%TF.GenerationSoftware,KiCad,Pcbnew,8.0.9-8.0.9-0~ubuntu22.04.1*%
%TF.CreationDate,2025-12-20T23:57:42-07:00*%
%TF.ProjectId,ESC_KiCAD,4553435f-4b69-4434-9144-2e6b69636164,A*%
%TF.SameCoordinates,Original*%
%TF.FileFunction,Legend,Bot*%
%TF.FilePolarity,Positive*%
%FSLAX46Y46*%
G04 Gerber Fmt 4.6, Leading zero omitted, Abs format (unit mm)*
G04 Created by KiCad (PCBNEW 8.0.9-8.0.9-0~ubuntu22.04.1) date 2025-12-20 23:57:42*
%MOMM*%
%LPD*%
G01*
G04 APERTURE LIST*
G04 Aperture macros list*
%AMRoundRect*
0 Rectangle with rounded corners*
0 $1 Rounding radius*
0 $2 $3 $4 $5 $6 $7 $8 $9 X,Y pos of 4 corners*
0 Add a 4 corners polygon primitive as box body*
4,1,4,$2,$3,$4,$5,$6,$7,$8,$9,$2,$3,0*
0 Add four circle primitives for the rounded corners*
1,1,$1+$1,$2,$3*
1,1,$1+$1,$4,$5*
1,1,$1+$1,$6,$7*
1,1,$1+$1,$8,$9*
0 Add four rect primitives between the rounded corners*
20,1,$1+$1,$2,$3,$4,$5,0*
20,1,$1+$1,$4,$5,$6,$7,0*
20,1,$1+$1,$6,$7,$8,$9,0*
20,1,$1+$1,$8,$9,$2,$3,0*%
G04 Aperture macros list end*
%ADD10C,0.152400*%
%ADD11C,0.176200*%
%ADD12C,4.000000*%
%ADD13O,2.804000X1.604000*%
%ADD14C,4.704000*%
%ADD15RoundRect,0.102000X2.250000X-2.250000X2.250000X2.250000X-2.250000X2.250000X-2.250000X-2.250000X0*%
%ADD16R,5.200000X3.500000*%
%ADD17C,5.200000*%
%ADD18R,3.350000X5.200000*%
%ADD19C,5.700000*%
%ADD20C,2.500000*%
%ADD21RoundRect,0.500000X-3.000000X-0.500000X3.000000X-0.500000X3.000000X0.500000X-3.000000X0.500000X0*%
%ADD22RoundRect,0.200000X-0.275000X0.200000X-0.275000X-0.200000X0.275000X-0.200000X0.275000X0.200000X0*%
%ADD23O,1.000000X1.000000*%
%ADD24R,1.000000X1.000000*%
%ADD25O,1.300000X2.000000*%
%ADD26R,1.300000X2.000000*%
%ADD27RoundRect,0.225000X0.250000X-0.225000X0.250000X0.225000X-0.250000X0.225000X-0.250000X-0.225000X0*%
%ADD28C,0.600000*%
G04 APERTURE END LIST*
D10*
X220702117Y-97564238D02*
X220702117Y-96314238D01*
X220702117Y-96314238D02*
X220404498Y-96314238D01*
X220404498Y-96314238D02*
X220225927Y-96373762D01*
X220225927Y-96373762D02*
X220106879Y-96492810D01*
X220106879Y-96492810D02*
X220047356Y-96611857D01*
X220047356Y-96611857D02*
X219987832Y-96849953D01*
X219987832Y-96849953D02*
X219987832Y-97028524D01*
X219987832Y-97028524D02*
X220047356Y-97266619D01*
X220047356Y-97266619D02*
X220106879Y-97385667D01*
X220106879Y-97385667D02*
X220225927Y-97504715D01*
X220225927Y-97504715D02*
X220404498Y-97564238D01*
X220404498Y-97564238D02*
X220702117Y-97564238D01*
X219452117Y-96909476D02*
X219035451Y-96909476D01*
X218856879Y-97564238D02*
X219452117Y-97564238D01*
X219452117Y-97564238D02*
X219452117Y-96314238D01*
X219452117Y-96314238D02*
X218856879Y-96314238D01*
X218321165Y-97564238D02*
X218321165Y-96314238D01*
X218321165Y-96314238D02*
X218023546Y-96314238D01*
X218023546Y-96314238D02*
X217844975Y-96373762D01*
X217844975Y-96373762D02*
X217725927Y-96492810D01*
X217725927Y-96492810D02*
X217666404Y-96611857D01*
X217666404Y-96611857D02*
X217606880Y-96849953D01*
X217606880Y-96849953D02*
X217606880Y-97028524D01*
X217606880Y-97028524D02*
X217666404Y-97266619D01*
X217666404Y-97266619D02*
X217725927Y-97385667D01*
X217725927Y-97385667D02*
X217844975Y-97504715D01*
X217844975Y-97504715D02*
X218023546Y-97564238D01*
X218023546Y-97564238D02*
X218321165Y-97564238D01*
X217071165Y-97564238D02*
X217071165Y-96314238D01*
X215761642Y-97445191D02*
X215821166Y-97504715D01*
X215821166Y-97504715D02*
X215999737Y-97564238D01*
X215999737Y-97564238D02*
X216118785Y-97564238D01*
X216118785Y-97564238D02*
X216297356Y-97504715D01*
X216297356Y-97504715D02*
X216416404Y-97385667D01*
X216416404Y-97385667D02*
X216475927Y-97266619D01*
X216475927Y-97266619D02*
X216535451Y-97028524D01*
X216535451Y-97028524D02*
X216535451Y-96849953D01*
X216535451Y-96849953D02*
X216475927Y-96611857D01*
X216475927Y-96611857D02*
X216416404Y-96492810D01*
X216416404Y-96492810D02*
X216297356Y-96373762D01*
X216297356Y-96373762D02*
X216118785Y-96314238D01*
X216118785Y-96314238D02*
X215999737Y-96314238D01*
X215999737Y-96314238D02*
X215821166Y-96373762D01*
X215821166Y-96373762D02*
X215761642Y-96433286D01*
X215285451Y-97207095D02*
X214690213Y-97207095D01*
X215404499Y-97564238D02*
X214987832Y-96314238D01*
X214987832Y-96314238D02*
X214571166Y-97564238D01*
X214333070Y-96314238D02*
X213618784Y-96314238D01*
X213975927Y-97564238D02*
X213975927Y-96314238D01*
X213202117Y-96909476D02*
X212785451Y-96909476D01*
X212606879Y-97564238D02*
X213202117Y-97564238D01*
X213202117Y-97564238D02*
X213202117Y-96314238D01*
X213202117Y-96314238D02*
X212606879Y-96314238D01*
X212071165Y-97564238D02*
X212071165Y-96314238D01*
X212071165Y-96314238D02*
X211773546Y-96314238D01*
X211773546Y-96314238D02*
X211594975Y-96373762D01*
X211594975Y-96373762D02*
X211475927Y-96492810D01*
X211475927Y-96492810D02*
X211416404Y-96611857D01*
X211416404Y-96611857D02*
X211356880Y-96849953D01*
X211356880Y-96849953D02*
X211356880Y-97028524D01*
X211356880Y-97028524D02*
X211416404Y-97266619D01*
X211416404Y-97266619D02*
X211475927Y-97385667D01*
X211475927Y-97385667D02*
X211594975Y-97504715D01*
X211594975Y-97504715D02*
X211773546Y-97564238D01*
X211773546Y-97564238D02*
X212071165Y-97564238D01*
X210047356Y-96314238D02*
X209333070Y-96314238D01*
X209690213Y-97564238D02*
X209690213Y-96314238D01*
X208678308Y-96314238D02*
X208440213Y-96314238D01*
X208440213Y-96314238D02*
X208321165Y-96373762D01*
X208321165Y-96373762D02*
X208202118Y-96492810D01*
X208202118Y-96492810D02*
X208142594Y-96730905D01*
X208142594Y-96730905D02*
X208142594Y-97147572D01*
X208142594Y-97147572D02*
X208202118Y-97385667D01*
X208202118Y-97385667D02*
X208321165Y-97504715D01*
X208321165Y-97504715D02*
X208440213Y-97564238D01*
X208440213Y-97564238D02*
X208678308Y-97564238D01*
X208678308Y-97564238D02*
X208797356Y-97504715D01*
X208797356Y-97504715D02*
X208916403Y-97385667D01*
X208916403Y-97385667D02*
X208975927Y-97147572D01*
X208975927Y-97147572D02*
X208975927Y-96730905D01*
X208975927Y-96730905D02*
X208916403Y-96492810D01*
X208916403Y-96492810D02*
X208797356Y-96373762D01*
X208797356Y-96373762D02*
X208678308Y-96314238D01*
X219987832Y-99576668D02*
X220404498Y-98981430D01*
X220702117Y-99576668D02*
X220702117Y-98326668D01*
X220702117Y-98326668D02*
X220225927Y-98326668D01*
X220225927Y-98326668D02*
X220106879Y-98386192D01*
X220106879Y-98386192D02*
X220047356Y-98445716D01*
X220047356Y-98445716D02*
X219987832Y-98564764D01*
X219987832Y-98564764D02*
X219987832Y-98743335D01*
X219987832Y-98743335D02*
X220047356Y-98862383D01*
X220047356Y-98862383D02*
X220106879Y-98921906D01*
X220106879Y-98921906D02*
X220225927Y-98981430D01*
X220225927Y-98981430D02*
X220702117Y-98981430D01*
X219511641Y-99219525D02*
X218916403Y-99219525D01*
X219630689Y-99576668D02*
X219214022Y-98326668D01*
X219214022Y-98326668D02*
X218797356Y-99576668D01*
X218142593Y-98981430D02*
X218142593Y-99576668D01*
X218559260Y-98326668D02*
X218142593Y-98981430D01*
X218142593Y-98981430D02*
X217725927Y-98326668D01*
X216416402Y-98326668D02*
X216416402Y-98564764D01*
X215940212Y-98326668D02*
X215940212Y-98564764D01*
X214690212Y-99576668D02*
X215106878Y-98981430D01*
X215404497Y-99576668D02*
X215404497Y-98326668D01*
X215404497Y-98326668D02*
X214928307Y-98326668D01*
X214928307Y-98326668D02*
X214809259Y-98386192D01*
X214809259Y-98386192D02*
X214749736Y-98445716D01*
X214749736Y-98445716D02*
X214690212Y-98564764D01*
X214690212Y-98564764D02*
X214690212Y-98743335D01*
X214690212Y-98743335D02*
X214749736Y-98862383D01*
X214749736Y-98862383D02*
X214809259Y-98921906D01*
X214809259Y-98921906D02*
X214928307Y-98981430D01*
X214928307Y-98981430D02*
X215404497Y-98981430D01*
X214214021Y-99219525D02*
X213618783Y-99219525D01*
X214333069Y-99576668D02*
X213916402Y-98326668D01*
X213916402Y-98326668D02*
X213499736Y-99576668D01*
X213202116Y-98326668D02*
X212368783Y-98326668D01*
X212368783Y-98326668D02*
X213202116Y-99576668D01*
X213202116Y-99576668D02*
X212368783Y-99576668D01*
X211654497Y-98326668D02*
X211416402Y-98326668D01*
X211416402Y-98326668D02*
X211297354Y-98386192D01*
X211297354Y-98386192D02*
X211178307Y-98505240D01*
X211178307Y-98505240D02*
X211118783Y-98743335D01*
X211118783Y-98743335D02*
X211118783Y-99160002D01*
X211118783Y-99160002D02*
X211178307Y-99398097D01*
X211178307Y-99398097D02*
X211297354Y-99517145D01*
X211297354Y-99517145D02*
X211416402Y-99576668D01*
X211416402Y-99576668D02*
X211654497Y-99576668D01*
X211654497Y-99576668D02*
X211773545Y-99517145D01*
X211773545Y-99517145D02*
X211892592Y-99398097D01*
X211892592Y-99398097D02*
X211952116Y-99160002D01*
X211952116Y-99160002D02*
X211952116Y-98743335D01*
X211952116Y-98743335D02*
X211892592Y-98505240D01*
X211892592Y-98505240D02*
X211773545Y-98386192D01*
X211773545Y-98386192D02*
X211654497Y-98326668D01*
X209868783Y-99576668D02*
X210285449Y-98981430D01*
X210583068Y-99576668D02*
X210583068Y-98326668D01*
X210583068Y-98326668D02*
X210106878Y-98326668D01*
X210106878Y-98326668D02*
X209987830Y-98386192D01*
X209987830Y-98386192D02*
X209928307Y-98445716D01*
X209928307Y-98445716D02*
X209868783Y-98564764D01*
X209868783Y-98564764D02*
X209868783Y-98743335D01*
X209868783Y-98743335D02*
X209928307Y-98862383D01*
X209928307Y-98862383D02*
X209987830Y-98921906D01*
X209987830Y-98921906D02*
X210106878Y-98981430D01*
X210106878Y-98981430D02*
X210583068Y-98981430D01*
X209392592Y-98326668D02*
X209392592Y-98564764D01*
X208916402Y-98326668D02*
X208916402Y-98564764D01*
X220702117Y-101589098D02*
X220702117Y-100339098D01*
X220702117Y-100339098D02*
X220225927Y-100339098D01*
X220225927Y-100339098D02*
X220106879Y-100398622D01*
X220106879Y-100398622D02*
X220047356Y-100458146D01*
X220047356Y-100458146D02*
X219987832Y-100577194D01*
X219987832Y-100577194D02*
X219987832Y-100755765D01*
X219987832Y-100755765D02*
X220047356Y-100874813D01*
X220047356Y-100874813D02*
X220106879Y-100934336D01*
X220106879Y-100934336D02*
X220225927Y-100993860D01*
X220225927Y-100993860D02*
X220702117Y-100993860D01*
X219452117Y-101589098D02*
X219452117Y-100339098D01*
X219452117Y-100934336D02*
X218737832Y-100934336D01*
X218737832Y-101589098D02*
X218737832Y-100339098D01*
X218142593Y-101589098D02*
X218142593Y-100339098D01*
X216952117Y-101589098D02*
X217547355Y-101589098D01*
X217547355Y-101589098D02*
X217547355Y-100339098D01*
X216535450Y-101589098D02*
X216535450Y-100339098D01*
X215940212Y-101589098D02*
X215940212Y-100339098D01*
X215940212Y-100339098D02*
X215464022Y-100339098D01*
X215464022Y-100339098D02*
X215344974Y-100398622D01*
X215344974Y-100398622D02*
X215285451Y-100458146D01*
X215285451Y-100458146D02*
X215225927Y-100577194D01*
X215225927Y-100577194D02*
X215225927Y-100755765D01*
X215225927Y-100755765D02*
X215285451Y-100874813D01*
X215285451Y-100874813D02*
X215344974Y-100934336D01*
X215344974Y-100934336D02*
X215464022Y-100993860D01*
X215464022Y-100993860D02*
X215940212Y-100993860D01*
X214690212Y-100934336D02*
X214273546Y-100934336D01*
X214094974Y-101589098D02*
X214690212Y-101589098D01*
X214690212Y-101589098D02*
X214690212Y-100339098D01*
X214690212Y-100339098D02*
X214094974Y-100339098D01*
X213559260Y-101589098D02*
X213559260Y-100339098D01*
X213559260Y-100339098D02*
X212844975Y-101589098D01*
X212844975Y-101589098D02*
X212844975Y-100339098D01*
X212249736Y-101589098D02*
X212249736Y-100339098D01*
X211535451Y-101589098D02*
X212071165Y-100874813D01*
X211535451Y-100339098D02*
X212249736Y-101053384D01*
X210761641Y-100339098D02*
X210523546Y-100339098D01*
X210523546Y-100339098D02*
X210404498Y-100398622D01*
X210404498Y-100398622D02*
X210285451Y-100517670D01*
X210285451Y-100517670D02*
X210225927Y-100755765D01*
X210225927Y-100755765D02*
X210225927Y-101172432D01*
X210225927Y-101172432D02*
X210285451Y-101410527D01*
X210285451Y-101410527D02*
X210404498Y-101529575D01*
X210404498Y-101529575D02*
X210523546Y-101589098D01*
X210523546Y-101589098D02*
X210761641Y-101589098D01*
X210761641Y-101589098D02*
X210880689Y-101529575D01*
X210880689Y-101529575D02*
X210999736Y-101410527D01*
X210999736Y-101410527D02*
X211059260Y-101172432D01*
X211059260Y-101172432D02*
X211059260Y-100755765D01*
X211059260Y-100755765D02*
X210999736Y-100517670D01*
X210999736Y-100517670D02*
X210880689Y-100398622D01*
X210880689Y-100398622D02*
X210761641Y-100339098D01*
X195804498Y-109819694D02*
X195233070Y-109819694D01*
X195518784Y-110819694D02*
X195518784Y-109819694D01*
X194899736Y-110819694D02*
X194899736Y-109819694D01*
X194899736Y-109819694D02*
X194518784Y-109819694D01*
X194518784Y-109819694D02*
X194423546Y-109867313D01*
X194423546Y-109867313D02*
X194375927Y-109914932D01*
X194375927Y-109914932D02*
X194328308Y-110010170D01*
X194328308Y-110010170D02*
X194328308Y-110153027D01*
X194328308Y-110153027D02*
X194375927Y-110248265D01*
X194375927Y-110248265D02*
X194423546Y-110295884D01*
X194423546Y-110295884D02*
X194518784Y-110343503D01*
X194518784Y-110343503D02*
X194899736Y-110343503D01*
X193423546Y-109819694D02*
X193899736Y-109819694D01*
X193899736Y-109819694D02*
X193947355Y-110295884D01*
X193947355Y-110295884D02*
X193899736Y-110248265D01*
X193899736Y-110248265D02*
X193804498Y-110200646D01*
X193804498Y-110200646D02*
X193566403Y-110200646D01*
X193566403Y-110200646D02*
X193471165Y-110248265D01*
X193471165Y-110248265D02*
X193423546Y-110295884D01*
X193423546Y-110295884D02*
X193375927Y-110391122D01*
X193375927Y-110391122D02*
X193375927Y-110629217D01*
X193375927Y-110629217D02*
X193423546Y-110724455D01*
X193423546Y-110724455D02*
X193471165Y-110772075D01*
X193471165Y-110772075D02*
X193566403Y-110819694D01*
X193566403Y-110819694D02*
X193804498Y-110819694D01*
X193804498Y-110819694D02*
X193899736Y-110772075D01*
X193899736Y-110772075D02*
X193947355Y-110724455D01*
X203052117Y-100039098D02*
X203052117Y-98789098D01*
X203052117Y-98789098D02*
X202575927Y-98789098D01*
X202575927Y-98789098D02*
X202456879Y-98848622D01*
X202456879Y-98848622D02*
X202397356Y-98908146D01*
X202397356Y-98908146D02*
X202337832Y-99027194D01*
X202337832Y-99027194D02*
X202337832Y-99205765D01*
X202337832Y-99205765D02*
X202397356Y-99324813D01*
X202397356Y-99324813D02*
X202456879Y-99384336D01*
X202456879Y-99384336D02*
X202575927Y-99443860D01*
X202575927Y-99443860D02*
X203052117Y-99443860D01*
X201802117Y-100039098D02*
X201802117Y-98789098D01*
X201802117Y-99384336D02*
X201087832Y-99384336D01*
X201087832Y-100039098D02*
X201087832Y-98789098D01*
X199778308Y-99920051D02*
X199837832Y-99979575D01*
X199837832Y-99979575D02*
X200016403Y-100039098D01*
X200016403Y-100039098D02*
X200135451Y-100039098D01*
X200135451Y-100039098D02*
X200314022Y-99979575D01*
X200314022Y-99979575D02*
X200433070Y-99860527D01*
X200433070Y-99860527D02*
X200492593Y-99741479D01*
X200492593Y-99741479D02*
X200552117Y-99503384D01*
X200552117Y-99503384D02*
X200552117Y-99324813D01*
X200552117Y-99324813D02*
X200492593Y-99086717D01*
X200492593Y-99086717D02*
X200433070Y-98967670D01*
X200433070Y-98967670D02*
X200314022Y-98848622D01*
X200314022Y-98848622D02*
X200135451Y-98789098D01*
X200135451Y-98789098D02*
X200016403Y-98789098D01*
X200016403Y-98789098D02*
X199837832Y-98848622D01*
X199837832Y-98848622D02*
X199778308Y-98908146D01*
X196004498Y-96219694D02*
X195433070Y-96219694D01*
X195718784Y-97219694D02*
X195718784Y-96219694D01*
X195099736Y-97219694D02*
X195099736Y-96219694D01*
X195099736Y-96219694D02*
X194718784Y-96219694D01*
X194718784Y-96219694D02*
X194623546Y-96267313D01*
X194623546Y-96267313D02*
X194575927Y-96314932D01*
X194575927Y-96314932D02*
X194528308Y-96410170D01*
X194528308Y-96410170D02*
X194528308Y-96553027D01*
X194528308Y-96553027D02*
X194575927Y-96648265D01*
X194575927Y-96648265D02*
X194623546Y-96695884D01*
X194623546Y-96695884D02*
X194718784Y-96743503D01*
X194718784Y-96743503D02*
X195099736Y-96743503D01*
X194194974Y-96219694D02*
X193575927Y-96219694D01*
X193575927Y-96219694D02*
X193909260Y-96600646D01*
X193909260Y-96600646D02*
X193766403Y-96600646D01*
X193766403Y-96600646D02*
X193671165Y-96648265D01*
X193671165Y-96648265D02*
X193623546Y-96695884D01*
X193623546Y-96695884D02*
X193575927Y-96791122D01*
X193575927Y-96791122D02*
X193575927Y-97029217D01*
X193575927Y-97029217D02*
X193623546Y-97124455D01*
X193623546Y-97124455D02*
X193671165Y-97172075D01*
X193671165Y-97172075D02*
X193766403Y-97219694D01*
X193766403Y-97219694D02*
X194052117Y-97219694D01*
X194052117Y-97219694D02*
X194147355Y-97172075D01*
X194147355Y-97172075D02*
X194194974Y-97124455D01*
X203152117Y-86389098D02*
X203152117Y-85139098D01*
X203152117Y-85139098D02*
X202675927Y-85139098D01*
X202675927Y-85139098D02*
X202556879Y-85198622D01*
X202556879Y-85198622D02*
X202497356Y-85258146D01*
X202497356Y-85258146D02*
X202437832Y-85377194D01*
X202437832Y-85377194D02*
X202437832Y-85555765D01*
X202437832Y-85555765D02*
X202497356Y-85674813D01*
X202497356Y-85674813D02*
X202556879Y-85734336D01*
X202556879Y-85734336D02*
X202675927Y-85793860D01*
X202675927Y-85793860D02*
X203152117Y-85793860D01*
X201902117Y-86389098D02*
X201902117Y-85139098D01*
X201902117Y-85734336D02*
X201187832Y-85734336D01*
X201187832Y-86389098D02*
X201187832Y-85139098D01*
X200175927Y-85734336D02*
X199997355Y-85793860D01*
X199997355Y-85793860D02*
X199937832Y-85853384D01*
X199937832Y-85853384D02*
X199878308Y-85972432D01*
X199878308Y-85972432D02*
X199878308Y-86151003D01*
X199878308Y-86151003D02*
X199937832Y-86270051D01*
X199937832Y-86270051D02*
X199997355Y-86329575D01*
X199997355Y-86329575D02*
X200116403Y-86389098D01*
X200116403Y-86389098D02*
X200592593Y-86389098D01*
X200592593Y-86389098D02*
X200592593Y-85139098D01*
X200592593Y-85139098D02*
X200175927Y-85139098D01*
X200175927Y-85139098D02*
X200056879Y-85198622D01*
X200056879Y-85198622D02*
X199997355Y-85258146D01*
X199997355Y-85258146D02*
X199937832Y-85377194D01*
X199937832Y-85377194D02*
X199937832Y-85496241D01*
X199937832Y-85496241D02*
X199997355Y-85615289D01*
X199997355Y-85615289D02*
X200056879Y-85674813D01*
X200056879Y-85674813D02*
X200175927Y-85734336D01*
X200175927Y-85734336D02*
X200592593Y-85734336D01*
X195904498Y-82369694D02*
X195333070Y-82369694D01*
X195618784Y-83369694D02*
X195618784Y-82369694D01*
X194999736Y-83369694D02*
X194999736Y-82369694D01*
X194999736Y-82369694D02*
X194618784Y-82369694D01*
X194618784Y-82369694D02*
X194523546Y-82417313D01*
X194523546Y-82417313D02*
X194475927Y-82464932D01*
X194475927Y-82464932D02*
X194428308Y-82560170D01*
X194428308Y-82560170D02*
X194428308Y-82703027D01*
X194428308Y-82703027D02*
X194475927Y-82798265D01*
X194475927Y-82798265D02*
X194523546Y-82845884D01*
X194523546Y-82845884D02*
X194618784Y-82893503D01*
X194618784Y-82893503D02*
X194999736Y-82893503D01*
X193475927Y-83369694D02*
X194047355Y-83369694D01*
X193761641Y-83369694D02*
X193761641Y-82369694D01*
X193761641Y-82369694D02*
X193856879Y-82512551D01*
X193856879Y-82512551D02*
X193952117Y-82607789D01*
X193952117Y-82607789D02*
X194047355Y-82655408D01*
X203052117Y-72689098D02*
X203052117Y-71439098D01*
X203052117Y-71439098D02*
X202575927Y-71439098D01*
X202575927Y-71439098D02*
X202456879Y-71498622D01*
X202456879Y-71498622D02*
X202397356Y-71558146D01*
X202397356Y-71558146D02*
X202337832Y-71677194D01*
X202337832Y-71677194D02*
X202337832Y-71855765D01*
X202337832Y-71855765D02*
X202397356Y-71974813D01*
X202397356Y-71974813D02*
X202456879Y-72034336D01*
X202456879Y-72034336D02*
X202575927Y-72093860D01*
X202575927Y-72093860D02*
X203052117Y-72093860D01*
X201802117Y-72689098D02*
X201802117Y-71439098D01*
X201802117Y-72034336D02*
X201087832Y-72034336D01*
X201087832Y-72689098D02*
X201087832Y-71439098D01*
X200552117Y-72331955D02*
X199956879Y-72331955D01*
X200671165Y-72689098D02*
X200254498Y-71439098D01*
X200254498Y-71439098D02*
X199837832Y-72689098D01*
X129285977Y-76988075D02*
X130200263Y-76988075D01*
X129285977Y-102788075D02*
X130200263Y-102788075D01*
X137339400Y-94745000D02*
X137339400Y-93475000D01*
X137339400Y-92205000D02*
X137339400Y-93475000D01*
X137339400Y-87570000D02*
X137339400Y-86300000D01*
X137339400Y-86300000D02*
X138609400Y-86300000D01*
X137339400Y-86300000D02*
X136069400Y-86300000D01*
X137339400Y-85030000D02*
X137339400Y-86300000D01*
X128900000Y-75800000D02*
X128900000Y-78200000D01*
X121700000Y-75800000D02*
X128900000Y-75800000D01*
X121650000Y-78200000D02*
X128900000Y-78200000D01*
X204350000Y-92150000D02*
X204350000Y-94435000D01*
X203150000Y-92150000D02*
X203150000Y-94435000D01*
X203150000Y-89150000D02*
X203150000Y-91435000D01*
X204350000Y-89150000D02*
X204350000Y-91435000D01*
X128900000Y-101600000D02*
X128900000Y-104000000D01*
X121700000Y-101600000D02*
X128900000Y-101600000D01*
X121650000Y-104000000D02*
X128900000Y-104000000D01*
D11*
X160588100Y-74925000D02*
G75*
G02*
X160411900Y-74925000I-88100J0D01*
G01*
X160411900Y-74925000D02*
G75*
G02*
X160588100Y-74925000I88100J0D01*
G01*
D10*
X201350000Y-94450000D02*
X201350000Y-92165000D01*
X202550000Y-94450000D02*
X202550000Y-92165000D01*
D11*
X153138100Y-74925000D02*
G75*
G02*
X152961900Y-74925000I-88100J0D01*
G01*
X152961900Y-74925000D02*
G75*
G02*
X153138100Y-74925000I88100J0D01*
G01*
%LPC*%
D12*
X154570000Y-102188100D03*
X141430000Y-102188100D03*
D13*
X127539400Y-96650000D03*
X127539400Y-83150000D03*
D14*
X133539400Y-93500000D03*
D15*
X133539400Y-86300000D03*
D16*
X215450000Y-84850000D03*
D17*
X215450000Y-86600000D03*
X212700000Y-91350000D03*
D18*
X211025000Y-91350000D03*
X219875000Y-91350000D03*
D17*
X218200000Y-91350000D03*
D19*
X124600000Y-71400000D03*
D20*
X204950000Y-99450000D03*
D21*
X125200000Y-77000000D03*
D22*
X203750000Y-94125000D03*
X203750000Y-92475000D03*
D23*
X155395000Y-81154400D03*
X155395000Y-82424400D03*
X154125000Y-81154400D03*
D24*
X154125000Y-82424400D03*
D19*
X219100000Y-71400000D03*
D22*
X203750000Y-89475000D03*
X203750000Y-91125000D03*
D20*
X197900000Y-96700000D03*
D21*
X125200000Y-102800000D03*
D20*
X169200000Y-110000000D03*
D25*
X158500000Y-73625000D03*
D26*
X160500000Y-73625000D03*
D19*
X124600000Y-108400000D03*
D20*
X197700000Y-110300000D03*
D27*
X201950000Y-92525000D03*
X201950000Y-94075000D03*
D20*
X204950000Y-72050000D03*
D25*
X151050000Y-73625000D03*
D26*
X153050000Y-73625000D03*
D20*
X205050000Y-85750000D03*
D19*
X219100000Y-108400000D03*
D20*
X197750000Y-82850000D03*
D28*
X216550000Y-82600000D03*
X217550000Y-82600000D03*
X215500000Y-82600000D03*
X214400000Y-82600000D03*
X213350000Y-82600000D03*
X222050000Y-92450000D03*
X222050000Y-93450000D03*
X222050000Y-91400000D03*
X222050000Y-90300000D03*
X222050000Y-89250000D03*
X208850000Y-93450000D03*
X208850000Y-92400000D03*
X208850000Y-91300000D03*
X208850000Y-90250000D03*
X208850000Y-89250000D03*
X132900000Y-100900000D03*
X145400000Y-82000000D03*
X145400000Y-81100000D03*
X146400000Y-82450000D03*
X146400000Y-80650000D03*
X146400000Y-81550000D03*
X138900000Y-109200000D03*
X138900000Y-105500000D03*
X128400000Y-110100000D03*
X128400000Y-106500000D03*
X164800000Y-89600000D03*
X163800000Y-90900000D03*
X180400000Y-93342000D03*
X176800000Y-93400000D03*
X162900000Y-91400000D03*
X180700000Y-82550000D03*
X178600000Y-83600000D03*
X166600000Y-90600000D03*
X175200000Y-75300000D03*
X166650000Y-105350000D03*
X168850000Y-105500000D03*
X163050000Y-95050000D03*
X164550000Y-97750000D03*
X174800000Y-108400000D03*
X176150000Y-105350000D03*
X175200000Y-104150000D03*
X164050000Y-95400000D03*
X174350000Y-97000000D03*
X174350000Y-94200000D03*
X173400000Y-97850000D03*
X173400000Y-94700000D03*
X176900000Y-96300000D03*
X166450000Y-89550000D03*
X179655000Y-81445000D03*
X172000000Y-91850000D03*
X154400000Y-92350000D03*
X202795000Y-109045000D03*
X183345000Y-108310000D03*
X171110000Y-72874398D03*
X136300000Y-91050000D03*
X157150000Y-76275000D03*
X127000000Y-100000000D03*
X126000000Y-99100000D03*
X126000000Y-78900000D03*
X179750000Y-91055000D03*
X126000000Y-80700000D03*
X127000000Y-80700000D03*
X180650000Y-105750000D03*
X205875000Y-96525000D03*
X136300000Y-90150000D03*
X149350000Y-84600000D03*
X161175600Y-109275000D03*
X163550000Y-98999999D03*
X127000000Y-100900000D03*
X140200000Y-86650000D03*
X154550000Y-78050000D03*
X140200000Y-81900000D03*
X164285000Y-82435000D03*
X143750000Y-72350000D03*
X159400000Y-86899999D03*
X183250000Y-94515000D03*
X147450000Y-81550000D03*
X128000000Y-79800000D03*
X177100000Y-86895000D03*
X150700000Y-90300000D03*
X179720600Y-108085600D03*
X126000000Y-100900000D03*
X156200000Y-89899998D03*
X173950000Y-85500001D03*
X182150000Y-78945000D03*
X168900000Y-90049999D03*
X172384400Y-72849998D03*
X180650000Y-91050000D03*
X179600000Y-94265000D03*
X200995000Y-81545000D03*
X147450000Y-80650000D03*
X152700000Y-99500000D03*
X201895000Y-81545000D03*
X173800000Y-88200000D03*
X152700000Y-97650000D03*
X180650000Y-91950000D03*
X179550000Y-80495000D03*
X201050000Y-95300000D03*
X155750001Y-93449999D03*
X140200000Y-85750000D03*
X126000000Y-79800000D03*
X177100000Y-85095000D03*
X173284400Y-78349998D03*
X142750000Y-89525600D03*
X200995000Y-110045000D03*
X205775000Y-82725000D03*
X142774400Y-88025600D03*
X126000000Y-100000000D03*
X177095000Y-72195000D03*
X148300000Y-90300000D03*
X151850000Y-95100000D03*
X131600000Y-80750000D03*
X137950000Y-95400000D03*
X179750000Y-104855000D03*
X192350588Y-82872353D03*
X163200000Y-89199999D03*
X128000000Y-80700000D03*
X140150000Y-91800000D03*
X177095000Y-73095000D03*
X177095000Y-98895000D03*
X203695000Y-110045000D03*
X180650000Y-77245000D03*
X179750000Y-91955000D03*
X128000000Y-100000000D03*
X177095000Y-100695000D03*
X157850000Y-88499999D03*
X166350000Y-95350000D03*
X195400000Y-95200000D03*
X201895000Y-109045000D03*
X163000000Y-100749999D03*
X147450000Y-82450000D03*
X180650000Y-78145000D03*
X150250000Y-84600000D03*
X170550000Y-100749999D03*
X163950000Y-78400000D03*
X143750000Y-74450000D03*
X128000000Y-100900000D03*
X201895000Y-110045000D03*
X182295000Y-106460000D03*
X191300588Y-96545000D03*
X127000000Y-79800000D03*
X192300588Y-96545000D03*
X179750000Y-77250000D03*
X200995000Y-82545000D03*
X127000000Y-99100000D03*
X203695000Y-81545000D03*
X177095000Y-71295000D03*
X172025000Y-97550000D03*
X143750000Y-71450000D03*
X148800000Y-76250000D03*
X191295000Y-69095000D03*
X183200000Y-80795000D03*
X168050000Y-95399999D03*
X203695000Y-82545000D03*
X131600000Y-79850000D03*
X203750000Y-96300000D03*
X203750000Y-95300000D03*
X137800000Y-81300000D03*
X177095000Y-99795000D03*
X202795000Y-110045000D03*
X168570000Y-72835598D03*
X143750000Y-73550000D03*
X134600000Y-76350000D03*
X169834400Y-78349998D03*
X153500000Y-92350000D03*
X205850000Y-110225000D03*
X152700000Y-98550000D03*
X177100000Y-85995000D03*
X202850000Y-96300000D03*
X145800000Y-74275000D03*
X137950000Y-94500000D03*
X127000000Y-78900000D03*
X162975600Y-109275000D03*
X150150000Y-76300000D03*
X201895000Y-82545000D03*
X159400000Y-85399999D03*
X200995000Y-109045000D03*
X137800000Y-80400000D03*
X135500000Y-76350000D03*
X192295000Y-69095000D03*
X170000000Y-98999999D03*
X201050000Y-96300000D03*
X202795000Y-81545000D03*
X203695000Y-109045000D03*
X180650000Y-104850000D03*
X179750000Y-105755000D03*
X140200000Y-82800000D03*
X195331550Y-81400000D03*
X128000000Y-99100000D03*
X202850000Y-95300000D03*
X145750000Y-88025600D03*
X158525001Y-96374999D03*
X156900000Y-89149998D03*
X195300000Y-108800000D03*
X140150000Y-90900000D03*
X201950000Y-96300000D03*
X179750000Y-78150000D03*
X191350588Y-82872353D03*
X164350000Y-76700000D03*
X202795000Y-82545000D03*
X148800000Y-77150000D03*
X182150000Y-92715000D03*
X159250001Y-91999999D03*
X201950000Y-95300000D03*
X128000000Y-78900000D03*
X148350000Y-87450000D03*
X144800000Y-87100000D03*
X148350000Y-88300000D03*
X144800000Y-90400000D03*
X148350000Y-89150000D03*
X148350000Y-91250000D03*
X154100000Y-88200000D03*
X162400001Y-88050000D03*
X169300000Y-96549999D03*
X161550000Y-88899999D03*
X170050000Y-88799999D03*
X155550001Y-94499998D03*
X167350000Y-97799999D03*
X152200000Y-88200000D03*
X166250000Y-97799999D03*
X153150000Y-88200000D03*
X161325000Y-80775000D03*
X171050000Y-87250000D03*
X191495000Y-74345000D03*
X191550000Y-89000000D03*
X191550000Y-89900000D03*
X123400000Y-80700000D03*
X191550000Y-90800000D03*
X122400000Y-100000000D03*
X192495000Y-75245000D03*
X192550000Y-88100000D03*
X192550000Y-89900000D03*
X124400000Y-100900000D03*
X124400000Y-79800000D03*
X124400000Y-100000000D03*
X124400000Y-78900000D03*
X123400000Y-79800000D03*
X124400000Y-80700000D03*
X191495000Y-103595000D03*
X122400000Y-100900000D03*
X191550000Y-88100000D03*
X191495000Y-101795000D03*
X191495000Y-102695000D03*
X123400000Y-78900000D03*
X192495000Y-101795000D03*
X122400000Y-99100000D03*
X122400000Y-80700000D03*
X123400000Y-100000000D03*
X191495000Y-75245000D03*
X123400000Y-99100000D03*
X122400000Y-78900000D03*
X192495000Y-76145000D03*
X191495000Y-104495000D03*
X192495000Y-102695000D03*
X192550000Y-90800000D03*
X192495000Y-103595000D03*
X192495000Y-74345000D03*
X192495000Y-77045000D03*
X122400000Y-79800000D03*
X124400000Y-99100000D03*
X192495000Y-104495000D03*
X123400000Y-100900000D03*
X191495000Y-77045000D03*
X192550000Y-89000000D03*
X191495000Y-76145000D03*
X188600000Y-94000000D03*
X188750000Y-107700000D03*
X188650000Y-80100000D03*
X168400000Y-80200000D03*
X160000001Y-93199999D03*
X160000000Y-105400000D03*
X168700000Y-91650000D03*
X177150000Y-88465000D03*
X168700000Y-93150000D03*
X177150000Y-89735000D03*
X175800000Y-91200000D03*
X174200000Y-92800000D03*
X175000000Y-90500000D03*
X173450000Y-92050000D03*
X174875000Y-100375000D03*
X172000000Y-93300000D03*
X174625000Y-101675000D03*
X143100000Y-76350000D03*
X139200000Y-70600000D03*
X182395000Y-99895000D03*
X181395000Y-72295000D03*
X182395000Y-70495000D03*
X182395000Y-97195000D03*
X139200000Y-72400000D03*
X139200000Y-73300000D03*
X143100000Y-77250000D03*
X181395000Y-98995000D03*
X139200000Y-71500000D03*
X139200000Y-74200000D03*
X182395000Y-71395000D03*
X182395000Y-69595000D03*
X182395000Y-98095000D03*
X139200000Y-69700000D03*
X181395000Y-70495000D03*
X181400000Y-86095000D03*
X182400000Y-86095000D03*
X182395000Y-98995000D03*
X182395000Y-72295000D03*
X182400000Y-85195000D03*
X181395000Y-99895000D03*
X181400000Y-85195000D03*
X182400000Y-83395000D03*
X181400000Y-98095000D03*
X143100000Y-78150000D03*
X181395000Y-71395000D03*
X182400000Y-84295000D03*
X139200000Y-68800000D03*
X181400000Y-84295000D03*
X188531550Y-81400000D03*
X188631550Y-95200000D03*
X188650000Y-108800000D03*
%LPD*%
M02*
