%TF.GenerationSoftware,KiCad,Pcbnew,8.0.9-8.0.9-0~ubuntu22.04.1*%
%TF.CreationDate,2025-12-20T23:57:57-07:00*%
%TF.ProjectId,ESC_KiCAD,4553435f-4b69-4434-9144-2e6b69636164,A*%
%TF.SameCoordinates,Original*%
%TF.FileFunction,Drillmap*%
%TF.FilePolarity,Positive*%
%FSLAX45Y45*%
G04 Gerber Fmt 4.5, Leading zero omitted, Abs format (unit mm)*
G04 Created by KiCad (PCBNEW 8.0.9-8.0.9-0~ubuntu22.04.1) date 2025-12-20 23:57:57*
%MOMM*%
%LPD*%
G01*
G04 APERTURE LIST*
%ADD10C,0.050000*%
%ADD11C,0.200000*%
%ADD12C,0.100000*%
%ADD13C,0.120000*%
%ADD14C,0.250000*%
%ADD15C,0.270000*%
%ADD16C,0.320000*%
%ADD17C,0.460000*%
G04 APERTURE END LIST*
D10*
X12060000Y-6740000D02*
X22310000Y-6740000D01*
X22310000Y-11240000D01*
X12060000Y-11240000D01*
X12060000Y-6740000D01*
D11*
D12*
X12225000Y-7875000D02*
X12255000Y-7905000D01*
X12255000Y-7875000D02*
X12225000Y-7905000D01*
X12225000Y-7965000D02*
X12255000Y-7995000D01*
X12255000Y-7965000D02*
X12225000Y-7995000D01*
X12225000Y-8055000D02*
X12255000Y-8085000D01*
X12255000Y-8055000D02*
X12225000Y-8085000D01*
X12225000Y-9895000D02*
X12255000Y-9925000D01*
X12255000Y-9895000D02*
X12225000Y-9925000D01*
X12225000Y-9985000D02*
X12255000Y-10015000D01*
X12255000Y-9985000D02*
X12225000Y-10015000D01*
X12225000Y-10075000D02*
X12255000Y-10105000D01*
X12255000Y-10075000D02*
X12225000Y-10105000D01*
X12325000Y-7875000D02*
X12355000Y-7905000D01*
X12355000Y-7875000D02*
X12325000Y-7905000D01*
X12325000Y-7965000D02*
X12355000Y-7995000D01*
X12355000Y-7965000D02*
X12325000Y-7995000D01*
X12325000Y-8055000D02*
X12355000Y-8085000D01*
X12355000Y-8055000D02*
X12325000Y-8085000D01*
X12325000Y-9895000D02*
X12355000Y-9925000D01*
X12355000Y-9895000D02*
X12325000Y-9925000D01*
X12325000Y-9985000D02*
X12355000Y-10015000D01*
X12355000Y-9985000D02*
X12325000Y-10015000D01*
X12325000Y-10075000D02*
X12355000Y-10105000D01*
X12355000Y-10075000D02*
X12325000Y-10105000D01*
X12425000Y-7875000D02*
X12455000Y-7905000D01*
X12455000Y-7875000D02*
X12425000Y-7905000D01*
X12425000Y-7965000D02*
X12455000Y-7995000D01*
X12455000Y-7965000D02*
X12425000Y-7995000D01*
X12425000Y-8055000D02*
X12455000Y-8085000D01*
X12455000Y-8055000D02*
X12425000Y-8085000D01*
X12425000Y-9895000D02*
X12455000Y-9925000D01*
X12455000Y-9895000D02*
X12425000Y-9925000D01*
X12425000Y-9985000D02*
X12455000Y-10015000D01*
X12455000Y-9985000D02*
X12425000Y-10015000D01*
X12425000Y-10075000D02*
X12455000Y-10105000D01*
X12455000Y-10075000D02*
X12425000Y-10105000D01*
X12585000Y-7875000D02*
X12615000Y-7905000D01*
X12615000Y-7875000D02*
X12585000Y-7905000D01*
X12585000Y-7965000D02*
X12615000Y-7995000D01*
X12615000Y-7965000D02*
X12585000Y-7995000D01*
X12585000Y-8055000D02*
X12615000Y-8085000D01*
X12615000Y-8055000D02*
X12585000Y-8085000D01*
X12585000Y-9895000D02*
X12615000Y-9925000D01*
X12615000Y-9895000D02*
X12585000Y-9925000D01*
X12585000Y-9985000D02*
X12615000Y-10015000D01*
X12615000Y-9985000D02*
X12585000Y-10015000D01*
X12585000Y-10075000D02*
X12615000Y-10105000D01*
X12615000Y-10075000D02*
X12585000Y-10105000D01*
X12685000Y-7875000D02*
X12715000Y-7905000D01*
X12715000Y-7875000D02*
X12685000Y-7905000D01*
X12685000Y-7965000D02*
X12715000Y-7995000D01*
X12715000Y-7965000D02*
X12685000Y-7995000D01*
X12685000Y-8055000D02*
X12715000Y-8085000D01*
X12715000Y-8055000D02*
X12685000Y-8085000D01*
X12685000Y-9895000D02*
X12715000Y-9925000D01*
X12715000Y-9895000D02*
X12685000Y-9925000D01*
X12685000Y-9985000D02*
X12715000Y-10015000D01*
X12715000Y-9985000D02*
X12685000Y-10015000D01*
X12685000Y-10075000D02*
X12715000Y-10105000D01*
X12715000Y-10075000D02*
X12685000Y-10105000D01*
X12785000Y-7875000D02*
X12815000Y-7905000D01*
X12815000Y-7875000D02*
X12785000Y-7905000D01*
X12785000Y-7965000D02*
X12815000Y-7995000D01*
X12815000Y-7965000D02*
X12785000Y-7995000D01*
X12785000Y-8055000D02*
X12815000Y-8085000D01*
X12815000Y-8055000D02*
X12785000Y-8085000D01*
X12785000Y-9895000D02*
X12815000Y-9925000D01*
X12815000Y-9895000D02*
X12785000Y-9925000D01*
X12785000Y-9985000D02*
X12815000Y-10015000D01*
X12815000Y-9985000D02*
X12785000Y-10015000D01*
X12785000Y-10075000D02*
X12815000Y-10105000D01*
X12815000Y-10075000D02*
X12785000Y-10105000D01*
X12825000Y-10635000D02*
X12855000Y-10665000D01*
X12855000Y-10635000D02*
X12825000Y-10665000D01*
X12825000Y-10995000D02*
X12855000Y-11025000D01*
X12855000Y-10995000D02*
X12825000Y-11025000D01*
X13145000Y-7970000D02*
X13175000Y-8000000D01*
X13175000Y-7970000D02*
X13145000Y-8000000D01*
X13145000Y-8060000D02*
X13175000Y-8090000D01*
X13175000Y-8060000D02*
X13145000Y-8090000D01*
X13275000Y-10075000D02*
X13305000Y-10105000D01*
X13305000Y-10075000D02*
X13275000Y-10105000D01*
X13445000Y-7620000D02*
X13475000Y-7650000D01*
X13475000Y-7620000D02*
X13445000Y-7650000D01*
X13535000Y-7620000D02*
X13565000Y-7650000D01*
X13565000Y-7620000D02*
X13535000Y-7650000D01*
X13615000Y-9000000D02*
X13645000Y-9030000D01*
X13645000Y-9000000D02*
X13615000Y-9030000D01*
X13615000Y-9090000D02*
X13645000Y-9120000D01*
X13645000Y-9090000D02*
X13615000Y-9120000D01*
X13765000Y-8025000D02*
X13795000Y-8055000D01*
X13795000Y-8025000D02*
X13765000Y-8055000D01*
X13765000Y-8115000D02*
X13795000Y-8145000D01*
X13795000Y-8115000D02*
X13765000Y-8145000D01*
X13780000Y-9435000D02*
X13810000Y-9465000D01*
X13810000Y-9435000D02*
X13780000Y-9465000D01*
X13780000Y-9525000D02*
X13810000Y-9555000D01*
X13810000Y-9525000D02*
X13780000Y-9555000D01*
X13875000Y-10535000D02*
X13905000Y-10565000D01*
X13905000Y-10535000D02*
X13875000Y-10565000D01*
X13875000Y-10905000D02*
X13905000Y-10935000D01*
X13905000Y-10905000D02*
X13875000Y-10935000D01*
X13905000Y-6865000D02*
X13935000Y-6895000D01*
X13935000Y-6865000D02*
X13905000Y-6895000D01*
X13905000Y-6955000D02*
X13935000Y-6985000D01*
X13935000Y-6955000D02*
X13905000Y-6985000D01*
X13905000Y-7045000D02*
X13935000Y-7075000D01*
X13935000Y-7045000D02*
X13905000Y-7075000D01*
X13905000Y-7135000D02*
X13935000Y-7165000D01*
X13935000Y-7135000D02*
X13905000Y-7165000D01*
X13905000Y-7225000D02*
X13935000Y-7255000D01*
X13935000Y-7225000D02*
X13905000Y-7255000D01*
X13905000Y-7315000D02*
X13935000Y-7345000D01*
X13935000Y-7315000D02*
X13905000Y-7345000D01*
X13905000Y-7405000D02*
X13935000Y-7435000D01*
X13935000Y-7405000D02*
X13905000Y-7435000D01*
X14000000Y-9075000D02*
X14030000Y-9105000D01*
X14030000Y-9075000D02*
X14000000Y-9105000D01*
X14000000Y-9165000D02*
X14030000Y-9195000D01*
X14030000Y-9165000D02*
X14000000Y-9195000D01*
X14005000Y-8175000D02*
X14035000Y-8205000D01*
X14035000Y-8175000D02*
X14005000Y-8205000D01*
X14005000Y-8265000D02*
X14035000Y-8295000D01*
X14035000Y-8265000D02*
X14005000Y-8295000D01*
X14005000Y-8560000D02*
X14035000Y-8590000D01*
X14035000Y-8560000D02*
X14005000Y-8590000D01*
X14005000Y-8650000D02*
X14035000Y-8680000D01*
X14035000Y-8650000D02*
X14005000Y-8680000D01*
X14260000Y-8937560D02*
X14290000Y-8967560D01*
X14290000Y-8937560D02*
X14260000Y-8967560D01*
X14262440Y-8787560D02*
X14292440Y-8817560D01*
X14292440Y-8787560D02*
X14262440Y-8817560D01*
X14295000Y-7620000D02*
X14325000Y-7650000D01*
X14325000Y-7620000D02*
X14295000Y-7650000D01*
X14295000Y-7710000D02*
X14325000Y-7740000D01*
X14325000Y-7710000D02*
X14295000Y-7740000D01*
X14295000Y-7800000D02*
X14325000Y-7830000D01*
X14325000Y-7800000D02*
X14295000Y-7830000D01*
X14360000Y-7130000D02*
X14390000Y-7160000D01*
X14390000Y-7130000D02*
X14360000Y-7160000D01*
X14360000Y-7220000D02*
X14390000Y-7250000D01*
X14390000Y-7220000D02*
X14360000Y-7250000D01*
X14360000Y-7340000D02*
X14390000Y-7370000D01*
X14390000Y-7340000D02*
X14360000Y-7370000D01*
X14360000Y-7430000D02*
X14390000Y-7460000D01*
X14390000Y-7430000D02*
X14360000Y-7460000D01*
X14465000Y-8695000D02*
X14495000Y-8725000D01*
X14495000Y-8695000D02*
X14465000Y-8725000D01*
X14465000Y-9025000D02*
X14495000Y-9055000D01*
X14495000Y-9025000D02*
X14465000Y-9055000D01*
X14525000Y-8095000D02*
X14555000Y-8125000D01*
X14555000Y-8095000D02*
X14525000Y-8125000D01*
X14525000Y-8185000D02*
X14555000Y-8215000D01*
X14555000Y-8185000D02*
X14525000Y-8215000D01*
X14560000Y-8787560D02*
X14590000Y-8817560D01*
X14590000Y-8787560D02*
X14560000Y-8817560D01*
X14565000Y-7412500D02*
X14595000Y-7442500D01*
X14595000Y-7412500D02*
X14565000Y-7442500D01*
X14625000Y-8050000D02*
X14655000Y-8080000D01*
X14655000Y-8050000D02*
X14625000Y-8080000D01*
X14625000Y-8140000D02*
X14655000Y-8170000D01*
X14655000Y-8140000D02*
X14625000Y-8170000D01*
X14625000Y-8230000D02*
X14655000Y-8260000D01*
X14655000Y-8230000D02*
X14625000Y-8260000D01*
X14730000Y-8050000D02*
X14760000Y-8080000D01*
X14760000Y-8050000D02*
X14730000Y-8080000D01*
X14730000Y-8140000D02*
X14760000Y-8170000D01*
X14760000Y-8140000D02*
X14730000Y-8170000D01*
X14730000Y-8230000D02*
X14760000Y-8260000D01*
X14760000Y-8230000D02*
X14730000Y-8260000D01*
X14815000Y-9015000D02*
X14845000Y-9045000D01*
X14845000Y-9015000D02*
X14815000Y-9045000D01*
X14820000Y-8730000D02*
X14850000Y-8760000D01*
X14850000Y-8730000D02*
X14820000Y-8760000D01*
X14820000Y-8815000D02*
X14850000Y-8845000D01*
X14850000Y-8815000D02*
X14820000Y-8845000D01*
X14820000Y-8900000D02*
X14850000Y-8930000D01*
X14850000Y-8900000D02*
X14820000Y-8930000D01*
X14820000Y-9110000D02*
X14850000Y-9140000D01*
X14850000Y-9110000D02*
X14820000Y-9140000D01*
X14865000Y-7610000D02*
X14895000Y-7640000D01*
X14895000Y-7610000D02*
X14865000Y-7640000D01*
X14865000Y-7700000D02*
X14895000Y-7730000D01*
X14895000Y-7700000D02*
X14865000Y-7730000D01*
X14920000Y-8445000D02*
X14950000Y-8475000D01*
X14950000Y-8445000D02*
X14920000Y-8475000D01*
X15000000Y-7615000D02*
X15030000Y-7645000D01*
X15030000Y-7615000D02*
X15000000Y-7645000D01*
X15010000Y-8445000D02*
X15040000Y-8475000D01*
X15040000Y-8445000D02*
X15010000Y-8475000D01*
X15055000Y-9015000D02*
X15085000Y-9045000D01*
X15085000Y-9015000D02*
X15055000Y-9045000D01*
X15170000Y-9495000D02*
X15200000Y-9525000D01*
X15200000Y-9495000D02*
X15170000Y-9525000D01*
X15205000Y-8805000D02*
X15235000Y-8835000D01*
X15235000Y-8805000D02*
X15205000Y-8835000D01*
X15255000Y-9750000D02*
X15285000Y-9780000D01*
X15285000Y-9750000D02*
X15255000Y-9780000D01*
X15255000Y-9840000D02*
X15285000Y-9870000D01*
X15285000Y-9840000D02*
X15255000Y-9870000D01*
X15255000Y-9935000D02*
X15285000Y-9965000D01*
X15285000Y-9935000D02*
X15255000Y-9965000D01*
X15300000Y-8805000D02*
X15330000Y-8835000D01*
X15330000Y-8805000D02*
X15300000Y-8835000D01*
X15335000Y-9220000D02*
X15365000Y-9250000D01*
X15365000Y-9220000D02*
X15335000Y-9250000D01*
X15395000Y-8805000D02*
X15425000Y-8835000D01*
X15425000Y-8805000D02*
X15395000Y-8835000D01*
X15425000Y-9220000D02*
X15455000Y-9250000D01*
X15455000Y-9220000D02*
X15425000Y-9250000D01*
X15440000Y-7790000D02*
X15470000Y-7820000D01*
X15470000Y-7790000D02*
X15440000Y-7820000D01*
X15540000Y-9435000D02*
X15570000Y-9465000D01*
X15570000Y-9435000D02*
X15540000Y-9465000D01*
X15560000Y-9330000D02*
X15590000Y-9360000D01*
X15590000Y-9330000D02*
X15560000Y-9360000D01*
X15605000Y-8975000D02*
X15635000Y-9005000D01*
X15635000Y-8975000D02*
X15605000Y-9005000D01*
X15675000Y-8900000D02*
X15705000Y-8930000D01*
X15705000Y-8900000D02*
X15675000Y-8930000D01*
X15700000Y-7612500D02*
X15730000Y-7642500D01*
X15730000Y-7612500D02*
X15700000Y-7642500D01*
X15770000Y-8835000D02*
X15800000Y-8865000D01*
X15800000Y-8835000D02*
X15770000Y-8865000D01*
X15837500Y-9622500D02*
X15867500Y-9652500D01*
X15867500Y-9622500D02*
X15837500Y-9652500D01*
X15910000Y-9185000D02*
X15940000Y-9215000D01*
X15940000Y-9185000D02*
X15910000Y-9215000D01*
X15925000Y-8525000D02*
X15955000Y-8555000D01*
X15955000Y-8525000D02*
X15925000Y-8555000D01*
X15925000Y-8675000D02*
X15955000Y-8705000D01*
X15955000Y-8675000D02*
X15925000Y-8705000D01*
X15985000Y-10525000D02*
X16015000Y-10555000D01*
X16015000Y-10525000D02*
X15985000Y-10555000D01*
X15985000Y-9305000D02*
X16015000Y-9335000D01*
X16015000Y-9305000D02*
X15985000Y-9335000D01*
X16102560Y-10912500D02*
X16132560Y-10942500D01*
X16132560Y-10912500D02*
X16102560Y-10942500D01*
X16117500Y-8062500D02*
X16147500Y-8092500D01*
X16147500Y-8062500D02*
X16117500Y-8092500D01*
X16140000Y-8875000D02*
X16170000Y-8905000D01*
X16170000Y-8875000D02*
X16140000Y-8905000D01*
X16225000Y-8790000D02*
X16255000Y-8820000D01*
X16255000Y-8790000D02*
X16225000Y-8820000D01*
X16275000Y-9125000D02*
X16305000Y-9155000D01*
X16305000Y-9125000D02*
X16275000Y-9155000D01*
X16282560Y-10912500D02*
X16312560Y-10942500D01*
X16312560Y-10912500D02*
X16282560Y-10942500D01*
X16285000Y-10060000D02*
X16315000Y-10090000D01*
X16315000Y-10060000D02*
X16285000Y-10090000D01*
X16290000Y-9490000D02*
X16320000Y-9520000D01*
X16320000Y-9490000D02*
X16290000Y-9520000D01*
X16305000Y-8905000D02*
X16335000Y-8935000D01*
X16335000Y-8905000D02*
X16305000Y-8935000D01*
X16340000Y-9885000D02*
X16370000Y-9915000D01*
X16370000Y-9885000D02*
X16340000Y-9915000D01*
X16365000Y-9075000D02*
X16395000Y-9105000D01*
X16395000Y-9075000D02*
X16365000Y-9105000D01*
X16380000Y-7825000D02*
X16410000Y-7855000D01*
X16410000Y-7825000D02*
X16380000Y-7855000D01*
X16390000Y-9525000D02*
X16420000Y-9555000D01*
X16420000Y-9525000D02*
X16390000Y-9555000D01*
X16413500Y-8228500D02*
X16443500Y-8258500D01*
X16443500Y-8228500D02*
X16413500Y-8258500D01*
X16420000Y-7655000D02*
X16450000Y-7685000D01*
X16450000Y-7655000D02*
X16420000Y-7685000D01*
X16440000Y-9760000D02*
X16470000Y-9790000D01*
X16470000Y-9760000D02*
X16440000Y-9790000D01*
X16465000Y-8945000D02*
X16495000Y-8975000D01*
X16495000Y-8945000D02*
X16465000Y-8975000D01*
X16610000Y-9765000D02*
X16640000Y-9795000D01*
X16640000Y-9765000D02*
X16610000Y-9795000D01*
X16620000Y-9520000D02*
X16650000Y-9550000D01*
X16650000Y-9520000D02*
X16620000Y-9550000D01*
X16630000Y-8940000D02*
X16660000Y-8970000D01*
X16660000Y-8940000D02*
X16630000Y-8970000D01*
X16645000Y-9045000D02*
X16675000Y-9075000D01*
X16675000Y-9045000D02*
X16645000Y-9075000D01*
X16650000Y-10520000D02*
X16680000Y-10550000D01*
X16680000Y-10520000D02*
X16650000Y-10550000D01*
X16720000Y-9765000D02*
X16750000Y-9795000D01*
X16750000Y-9765000D02*
X16720000Y-9795000D01*
X16790000Y-9525000D02*
X16820000Y-9555000D01*
X16820000Y-9525000D02*
X16790000Y-9555000D01*
X16825000Y-8005000D02*
X16855000Y-8035000D01*
X16855000Y-8005000D02*
X16825000Y-8035000D01*
X16842000Y-7268560D02*
X16872000Y-7298560D01*
X16872000Y-7268560D02*
X16842000Y-7298560D01*
X16855000Y-9150000D02*
X16885000Y-9180000D01*
X16885000Y-9150000D02*
X16855000Y-9180000D01*
X16855000Y-9300000D02*
X16885000Y-9330000D01*
X16885000Y-9300000D02*
X16855000Y-9330000D01*
X16870000Y-10535000D02*
X16900000Y-10565000D01*
X16900000Y-10535000D02*
X16870000Y-10565000D01*
X16875000Y-8990000D02*
X16905000Y-9020000D01*
X16905000Y-8990000D02*
X16875000Y-9020000D01*
X16915000Y-9640000D02*
X16945000Y-9670000D01*
X16945000Y-9640000D02*
X16915000Y-9670000D01*
X16968440Y-7820000D02*
X16998440Y-7850000D01*
X16998440Y-7820000D02*
X16968440Y-7850000D01*
X16985000Y-9885000D02*
X17015000Y-9915000D01*
X17015000Y-9885000D02*
X16985000Y-9915000D01*
X16990000Y-8865000D02*
X17020000Y-8895000D01*
X17020000Y-8865000D02*
X16990000Y-8895000D01*
X17040000Y-10060000D02*
X17070000Y-10090000D01*
X17070000Y-10060000D02*
X17040000Y-10090000D01*
X17090000Y-8710000D02*
X17120000Y-8740000D01*
X17120000Y-8710000D02*
X17090000Y-8740000D01*
X17096000Y-7272440D02*
X17126000Y-7302440D01*
X17126000Y-7272440D02*
X17096000Y-7302440D01*
X17185000Y-9170000D02*
X17215000Y-9200000D01*
X17215000Y-9170000D02*
X17185000Y-9200000D01*
X17185000Y-9315000D02*
X17215000Y-9345000D01*
X17215000Y-9315000D02*
X17185000Y-9345000D01*
X17187500Y-9740000D02*
X17217500Y-9770000D01*
X17217500Y-9740000D02*
X17187500Y-9770000D01*
X17223440Y-7270000D02*
X17253440Y-7300000D01*
X17253440Y-7270000D02*
X17223440Y-7300000D01*
X17313440Y-7820000D02*
X17343440Y-7850000D01*
X17343440Y-7820000D02*
X17313440Y-7850000D01*
X17325000Y-9455000D02*
X17355000Y-9485000D01*
X17355000Y-9455000D02*
X17325000Y-9485000D01*
X17325000Y-9770000D02*
X17355000Y-9800000D01*
X17355000Y-9770000D02*
X17325000Y-9800000D01*
X17330000Y-9190000D02*
X17360000Y-9220000D01*
X17360000Y-9190000D02*
X17330000Y-9220000D01*
X17365000Y-8805000D02*
X17395000Y-8835000D01*
X17395000Y-8805000D02*
X17365000Y-8835000D01*
X17380000Y-8535000D02*
X17410000Y-8565000D01*
X17410000Y-8535000D02*
X17380000Y-8565000D01*
X17405000Y-9265000D02*
X17435000Y-9295000D01*
X17435000Y-9265000D02*
X17405000Y-9295000D01*
X17420000Y-9405000D02*
X17450000Y-9435000D01*
X17450000Y-9405000D02*
X17420000Y-9435000D01*
X17420000Y-9685000D02*
X17450000Y-9715000D01*
X17450000Y-9685000D02*
X17420000Y-9715000D01*
X17447500Y-10152500D02*
X17477500Y-10182500D01*
X17477500Y-10152500D02*
X17447500Y-10182500D01*
X17465000Y-10825000D02*
X17495000Y-10855000D01*
X17495000Y-10825000D02*
X17465000Y-10855000D01*
X17472500Y-10022500D02*
X17502500Y-10052500D01*
X17502500Y-10022500D02*
X17472500Y-10052500D01*
X17485000Y-9035000D02*
X17515000Y-9065000D01*
X17515000Y-9035000D02*
X17485000Y-9065000D01*
X17505000Y-7515000D02*
X17535000Y-7545000D01*
X17535000Y-7515000D02*
X17505000Y-7545000D01*
X17505000Y-10400000D02*
X17535000Y-10430000D01*
X17535000Y-10400000D02*
X17505000Y-10430000D01*
X17565000Y-9105000D02*
X17595000Y-9135000D01*
X17595000Y-9105000D02*
X17565000Y-9135000D01*
X17600000Y-10520000D02*
X17630000Y-10550000D01*
X17630000Y-10520000D02*
X17600000Y-10550000D01*
X17665000Y-9325000D02*
X17695000Y-9355000D01*
X17695000Y-9325000D02*
X17665000Y-9355000D01*
X17675000Y-9615000D02*
X17705000Y-9645000D01*
X17705000Y-9615000D02*
X17675000Y-9645000D01*
X17694500Y-7114500D02*
X17724500Y-7144500D01*
X17724500Y-7114500D02*
X17694500Y-7144500D01*
X17694500Y-7204500D02*
X17724500Y-7234500D01*
X17724500Y-7204500D02*
X17694500Y-7234500D01*
X17694500Y-7294500D02*
X17724500Y-7324500D01*
X17724500Y-7294500D02*
X17694500Y-7324500D01*
X17694500Y-9874500D02*
X17724500Y-9904500D01*
X17724500Y-9874500D02*
X17694500Y-9904500D01*
X17694500Y-9964500D02*
X17724500Y-9994500D01*
X17724500Y-9964500D02*
X17694500Y-9994500D01*
X17694500Y-10054500D02*
X17724500Y-10084500D01*
X17724500Y-10054500D02*
X17694500Y-10084500D01*
X17695000Y-8494500D02*
X17725000Y-8524500D01*
X17725000Y-8494500D02*
X17695000Y-8524500D01*
X17695000Y-8584500D02*
X17725000Y-8614500D01*
X17725000Y-8584500D02*
X17695000Y-8614500D01*
X17695000Y-8674500D02*
X17725000Y-8704500D01*
X17725000Y-8674500D02*
X17695000Y-8704500D01*
X17700000Y-8831500D02*
X17730000Y-8861500D01*
X17730000Y-8831500D02*
X17700000Y-8861500D01*
X17700000Y-8958500D02*
X17730000Y-8988500D01*
X17730000Y-8958500D02*
X17700000Y-8988500D01*
X17845000Y-8345000D02*
X17875000Y-8375000D01*
X17875000Y-8345000D02*
X17845000Y-8375000D01*
X17940000Y-8034500D02*
X17970000Y-8064500D01*
X17970000Y-8034500D02*
X17940000Y-8064500D01*
X17945000Y-9411500D02*
X17975000Y-9441500D01*
X17975000Y-9411500D02*
X17945000Y-9441500D01*
X17950500Y-8129500D02*
X17980500Y-8159500D01*
X17980500Y-8129500D02*
X17950500Y-8159500D01*
X17957060Y-10793560D02*
X17987060Y-10823560D01*
X17987060Y-10793560D02*
X17957060Y-10823560D01*
X17960000Y-7710000D02*
X17990000Y-7740000D01*
X17990000Y-7710000D02*
X17960000Y-7740000D01*
X17960000Y-7800000D02*
X17990000Y-7830000D01*
X17990000Y-7800000D02*
X17960000Y-7830000D01*
X17960000Y-9090500D02*
X17990000Y-9120500D01*
X17990000Y-9090500D02*
X17960000Y-9120500D01*
X17960000Y-9180500D02*
X17990000Y-9210500D01*
X17990000Y-9180500D02*
X17960000Y-9210500D01*
X17960000Y-10470500D02*
X17990000Y-10500500D01*
X17990000Y-10470500D02*
X17960000Y-10500500D01*
X17960000Y-10560500D02*
X17990000Y-10590500D01*
X17990000Y-10560500D02*
X17960000Y-10590500D01*
X18025000Y-9319200D02*
X18055000Y-9349200D01*
X18055000Y-9319200D02*
X18025000Y-9349200D01*
X18050000Y-7709500D02*
X18080000Y-7739500D01*
X18080000Y-7709500D02*
X18050000Y-7739500D01*
X18050000Y-7799500D02*
X18080000Y-7829500D01*
X18080000Y-7799500D02*
X18050000Y-7829500D01*
X18050000Y-9090000D02*
X18080000Y-9120000D01*
X18080000Y-9090000D02*
X18050000Y-9120000D01*
X18050000Y-9180000D02*
X18080000Y-9210000D01*
X18080000Y-9180000D02*
X18050000Y-9210000D01*
X18050000Y-10470000D02*
X18080000Y-10500000D01*
X18080000Y-10470000D02*
X18050000Y-10500000D01*
X18050000Y-10560000D02*
X18080000Y-10590000D01*
X18080000Y-10560000D02*
X18050000Y-10590000D01*
X18055000Y-8240000D02*
X18085000Y-8270000D01*
X18085000Y-8240000D02*
X18055000Y-8270000D01*
X18124500Y-7034500D02*
X18154500Y-7064500D01*
X18154500Y-7034500D02*
X18124500Y-7064500D01*
X18124500Y-7124500D02*
X18154500Y-7154500D01*
X18154500Y-7124500D02*
X18124500Y-7154500D01*
X18124500Y-7214500D02*
X18154500Y-7244500D01*
X18154500Y-7214500D02*
X18124500Y-7244500D01*
X18124500Y-9884500D02*
X18154500Y-9914500D01*
X18154500Y-9884500D02*
X18124500Y-9914500D01*
X18124500Y-9974500D02*
X18154500Y-10004500D01*
X18154500Y-9974500D02*
X18124500Y-10004500D01*
X18125000Y-8414500D02*
X18155000Y-8444500D01*
X18155000Y-8414500D02*
X18125000Y-8444500D01*
X18125000Y-8504500D02*
X18155000Y-8534500D01*
X18155000Y-8504500D02*
X18125000Y-8534500D01*
X18125000Y-8594500D02*
X18155000Y-8624500D01*
X18155000Y-8594500D02*
X18125000Y-8624500D01*
X18125000Y-9794500D02*
X18155000Y-9824500D01*
X18155000Y-9794500D02*
X18125000Y-9824500D01*
X18200000Y-7879500D02*
X18230000Y-7909500D01*
X18230000Y-7879500D02*
X18200000Y-7909500D01*
X18200000Y-9256500D02*
X18230000Y-9286500D01*
X18230000Y-9256500D02*
X18200000Y-9286500D01*
X18214500Y-10631000D02*
X18244500Y-10661000D01*
X18244500Y-10631000D02*
X18214500Y-10661000D01*
X18224500Y-6944500D02*
X18254500Y-6974500D01*
X18254500Y-6944500D02*
X18224500Y-6974500D01*
X18224500Y-7034500D02*
X18254500Y-7064500D01*
X18254500Y-7034500D02*
X18224500Y-7064500D01*
X18224500Y-7124500D02*
X18254500Y-7154500D01*
X18254500Y-7124500D02*
X18224500Y-7154500D01*
X18224500Y-7214500D02*
X18254500Y-7244500D01*
X18254500Y-7214500D02*
X18224500Y-7244500D01*
X18224500Y-9704500D02*
X18254500Y-9734500D01*
X18254500Y-9704500D02*
X18224500Y-9734500D01*
X18224500Y-9794500D02*
X18254500Y-9824500D01*
X18254500Y-9794500D02*
X18224500Y-9824500D01*
X18224500Y-9884500D02*
X18254500Y-9914500D01*
X18254500Y-9884500D02*
X18224500Y-9914500D01*
X18224500Y-9974500D02*
X18254500Y-10004500D01*
X18254500Y-9974500D02*
X18224500Y-10004500D01*
X18225000Y-8324500D02*
X18255000Y-8354500D01*
X18255000Y-8324500D02*
X18225000Y-8354500D01*
X18225000Y-8414500D02*
X18255000Y-8444500D01*
X18255000Y-8414500D02*
X18225000Y-8444500D01*
X18225000Y-8504500D02*
X18255000Y-8534500D01*
X18255000Y-8504500D02*
X18225000Y-8534500D01*
X18225000Y-8594500D02*
X18255000Y-8624500D01*
X18255000Y-8594500D02*
X18225000Y-8624500D01*
X18305000Y-8064500D02*
X18335000Y-8094500D01*
X18335000Y-8064500D02*
X18305000Y-8094500D01*
X18310000Y-9436500D02*
X18340000Y-9466500D01*
X18340000Y-9436500D02*
X18310000Y-9466500D01*
X18319500Y-10816000D02*
X18349500Y-10846000D01*
X18349500Y-10816000D02*
X18319500Y-10846000D01*
X18838155Y-8125000D02*
X18868155Y-8155000D01*
X18868155Y-8125000D02*
X18838155Y-8155000D01*
X18845000Y-9385000D02*
X18875000Y-9415000D01*
X18875000Y-9385000D02*
X18845000Y-9415000D01*
X18848155Y-9505000D02*
X18878155Y-9535000D01*
X18878155Y-9505000D02*
X18848155Y-9535000D01*
X18850000Y-7995000D02*
X18880000Y-8025000D01*
X18880000Y-7995000D02*
X18850000Y-8025000D01*
X18850000Y-10865000D02*
X18880000Y-10895000D01*
X18880000Y-10865000D02*
X18850000Y-10895000D01*
X18860000Y-10755000D02*
X18890000Y-10785000D01*
X18890000Y-10755000D02*
X18860000Y-10785000D01*
X19114500Y-6894500D02*
X19144500Y-6924500D01*
X19144500Y-6894500D02*
X19114500Y-6924500D01*
X19115059Y-9639500D02*
X19145059Y-9669500D01*
X19145059Y-9639500D02*
X19115059Y-9669500D01*
X19120059Y-8272235D02*
X19150059Y-8302235D01*
X19150059Y-8272235D02*
X19120059Y-8302235D01*
X19134500Y-7419500D02*
X19164500Y-7449500D01*
X19164500Y-7419500D02*
X19134500Y-7449500D01*
X19134500Y-7509500D02*
X19164500Y-7539500D01*
X19164500Y-7509500D02*
X19134500Y-7539500D01*
X19134500Y-7599500D02*
X19164500Y-7629500D01*
X19164500Y-7599500D02*
X19134500Y-7629500D01*
X19134500Y-7689500D02*
X19164500Y-7719500D01*
X19164500Y-7689500D02*
X19134500Y-7719500D01*
X19134500Y-10164500D02*
X19164500Y-10194500D01*
X19164500Y-10164500D02*
X19134500Y-10194500D01*
X19134500Y-10254500D02*
X19164500Y-10284500D01*
X19164500Y-10254500D02*
X19134500Y-10284500D01*
X19134500Y-10344500D02*
X19164500Y-10374500D01*
X19164500Y-10344500D02*
X19134500Y-10374500D01*
X19134500Y-10434500D02*
X19164500Y-10464500D01*
X19164500Y-10434500D02*
X19134500Y-10464500D01*
X19140000Y-8795000D02*
X19170000Y-8825000D01*
X19170000Y-8795000D02*
X19140000Y-8825000D01*
X19140000Y-8885000D02*
X19170000Y-8915000D01*
X19170000Y-8885000D02*
X19140000Y-8915000D01*
X19140000Y-8975000D02*
X19170000Y-9005000D01*
X19170000Y-8975000D02*
X19140000Y-9005000D01*
X19140000Y-9065000D02*
X19170000Y-9095000D01*
X19170000Y-9065000D02*
X19140000Y-9095000D01*
X19214500Y-6894500D02*
X19244500Y-6924500D01*
X19244500Y-6894500D02*
X19214500Y-6924500D01*
X19215059Y-9639500D02*
X19245059Y-9669500D01*
X19245059Y-9639500D02*
X19215059Y-9669500D01*
X19220059Y-8272235D02*
X19250059Y-8302235D01*
X19250059Y-8272235D02*
X19220059Y-8302235D01*
X19234500Y-7419500D02*
X19264500Y-7449500D01*
X19264500Y-7419500D02*
X19234500Y-7449500D01*
X19234500Y-7509500D02*
X19264500Y-7539500D01*
X19264500Y-7509500D02*
X19234500Y-7539500D01*
X19234500Y-7599500D02*
X19264500Y-7629500D01*
X19264500Y-7599500D02*
X19234500Y-7629500D01*
X19234500Y-7689500D02*
X19264500Y-7719500D01*
X19264500Y-7689500D02*
X19234500Y-7719500D01*
X19234500Y-10164500D02*
X19264500Y-10194500D01*
X19264500Y-10164500D02*
X19234500Y-10194500D01*
X19234500Y-10254500D02*
X19264500Y-10284500D01*
X19264500Y-10254500D02*
X19234500Y-10284500D01*
X19234500Y-10344500D02*
X19264500Y-10374500D01*
X19264500Y-10344500D02*
X19234500Y-10374500D01*
X19234500Y-10434500D02*
X19264500Y-10464500D01*
X19264500Y-10434500D02*
X19234500Y-10464500D01*
X19240000Y-8795000D02*
X19270000Y-8825000D01*
X19270000Y-8795000D02*
X19240000Y-8825000D01*
X19240000Y-8885000D02*
X19270000Y-8915000D01*
X19270000Y-8885000D02*
X19240000Y-8915000D01*
X19240000Y-8975000D02*
X19270000Y-9005000D01*
X19270000Y-8975000D02*
X19240000Y-9005000D01*
X19240000Y-9065000D02*
X19270000Y-9095000D01*
X19270000Y-9065000D02*
X19240000Y-9095000D01*
X19515000Y-10865000D02*
X19545000Y-10895000D01*
X19545000Y-10865000D02*
X19515000Y-10895000D01*
X19518155Y-8125000D02*
X19548155Y-8155000D01*
X19548155Y-8125000D02*
X19518155Y-8155000D01*
X19525000Y-9505000D02*
X19555000Y-9535000D01*
X19555000Y-9505000D02*
X19525000Y-9535000D01*
X20084500Y-8139500D02*
X20114500Y-8169500D01*
X20114500Y-8139500D02*
X20084500Y-8169500D01*
X20084500Y-8239500D02*
X20114500Y-8269500D01*
X20114500Y-8239500D02*
X20084500Y-8269500D01*
X20084500Y-10889500D02*
X20114500Y-10919500D01*
X20114500Y-10889500D02*
X20084500Y-10919500D01*
X20084500Y-10989500D02*
X20114500Y-11019500D01*
X20114500Y-10989500D02*
X20084500Y-11019500D01*
X20090000Y-9515000D02*
X20120000Y-9545000D01*
X20120000Y-9515000D02*
X20090000Y-9545000D01*
X20090000Y-9615000D02*
X20120000Y-9645000D01*
X20120000Y-9615000D02*
X20090000Y-9645000D01*
X20174500Y-8139500D02*
X20204500Y-8169500D01*
X20204500Y-8139500D02*
X20174500Y-8169500D01*
X20174500Y-8239500D02*
X20204500Y-8269500D01*
X20204500Y-8239500D02*
X20174500Y-8269500D01*
X20174500Y-10889500D02*
X20204500Y-10919500D01*
X20204500Y-10889500D02*
X20174500Y-10919500D01*
X20174500Y-10989500D02*
X20204500Y-11019500D01*
X20204500Y-10989500D02*
X20174500Y-11019500D01*
X20180000Y-9515000D02*
X20210000Y-9545000D01*
X20210000Y-9515000D02*
X20180000Y-9545000D01*
X20180000Y-9615000D02*
X20210000Y-9645000D01*
X20210000Y-9615000D02*
X20180000Y-9645000D01*
X20264500Y-8139500D02*
X20294500Y-8169500D01*
X20294500Y-8139500D02*
X20264500Y-8169500D01*
X20264500Y-8239500D02*
X20294500Y-8269500D01*
X20294500Y-8239500D02*
X20264500Y-8269500D01*
X20264500Y-10889500D02*
X20294500Y-10919500D01*
X20294500Y-10889500D02*
X20264500Y-10919500D01*
X20264500Y-10989500D02*
X20294500Y-11019500D01*
X20294500Y-10989500D02*
X20264500Y-11019500D01*
X20270000Y-9515000D02*
X20300000Y-9545000D01*
X20300000Y-9515000D02*
X20270000Y-9545000D01*
X20270000Y-9615000D02*
X20300000Y-9645000D01*
X20300000Y-9615000D02*
X20270000Y-9645000D01*
X20354500Y-8139500D02*
X20384500Y-8169500D01*
X20384500Y-8139500D02*
X20354500Y-8169500D01*
X20354500Y-8239500D02*
X20384500Y-8269500D01*
X20384500Y-8239500D02*
X20354500Y-8269500D01*
X20354500Y-10889500D02*
X20384500Y-10919500D01*
X20384500Y-10889500D02*
X20354500Y-10919500D01*
X20354500Y-10989500D02*
X20384500Y-11019500D01*
X20384500Y-10989500D02*
X20354500Y-11019500D01*
X20360000Y-9515000D02*
X20390000Y-9545000D01*
X20390000Y-9515000D02*
X20360000Y-9545000D01*
X20360000Y-9615000D02*
X20390000Y-9645000D01*
X20390000Y-9615000D02*
X20360000Y-9645000D01*
X20562500Y-8257500D02*
X20592500Y-8287500D01*
X20592500Y-8257500D02*
X20562500Y-8287500D01*
X20570000Y-11007500D02*
X20600000Y-11037500D01*
X20600000Y-11007500D02*
X20570000Y-11037500D01*
X20572500Y-9637500D02*
X20602500Y-9667500D01*
X20602500Y-9637500D02*
X20572500Y-9667500D01*
X20870000Y-8910000D02*
X20900000Y-8940000D01*
X20900000Y-8910000D02*
X20870000Y-8940000D01*
X20870000Y-9010000D02*
X20900000Y-9040000D01*
X20900000Y-9010000D02*
X20870000Y-9040000D01*
X20870000Y-9115000D02*
X20900000Y-9145000D01*
X20900000Y-9115000D02*
X20870000Y-9145000D01*
X20870000Y-9225000D02*
X20900000Y-9255000D01*
X20900000Y-9225000D02*
X20870000Y-9255000D01*
X20870000Y-9330000D02*
X20900000Y-9360000D01*
X20900000Y-9330000D02*
X20870000Y-9360000D01*
X21320000Y-8245000D02*
X21350000Y-8275000D01*
X21350000Y-8245000D02*
X21320000Y-8275000D01*
X21425000Y-8245000D02*
X21455000Y-8275000D01*
X21455000Y-8245000D02*
X21425000Y-8275000D01*
X21535000Y-8245000D02*
X21565000Y-8275000D01*
X21565000Y-8245000D02*
X21535000Y-8275000D01*
X21640000Y-8245000D02*
X21670000Y-8275000D01*
X21670000Y-8245000D02*
X21640000Y-8275000D01*
X21740000Y-8245000D02*
X21770000Y-8275000D01*
X21770000Y-8245000D02*
X21740000Y-8275000D01*
X22190000Y-8910000D02*
X22220000Y-8940000D01*
X22220000Y-8910000D02*
X22190000Y-8940000D01*
X22190000Y-9015000D02*
X22220000Y-9045000D01*
X22220000Y-9015000D02*
X22190000Y-9045000D01*
X22190000Y-9125000D02*
X22220000Y-9155000D01*
X22220000Y-9125000D02*
X22190000Y-9155000D01*
X22190000Y-9230000D02*
X22220000Y-9260000D01*
X22220000Y-9230000D02*
X22190000Y-9260000D01*
X22190000Y-9330000D02*
X22220000Y-9360000D01*
X22220000Y-9330000D02*
X22190000Y-9360000D01*
X15445000Y-8115440D02*
G75*
G02*
X15380000Y-8115440I-32500J0D01*
G01*
X15380000Y-8115440D02*
G75*
G02*
X15445000Y-8115440I32500J0D01*
G01*
X15445000Y-8242440D02*
G75*
G02*
X15380000Y-8242440I-32500J0D01*
G01*
X15380000Y-8242440D02*
G75*
G02*
X15445000Y-8242440I32500J0D01*
G01*
X15572000Y-8115440D02*
G75*
G02*
X15507000Y-8115440I-32500J0D01*
G01*
X15507000Y-8115440D02*
G75*
G02*
X15572000Y-8115440I32500J0D01*
G01*
X15572000Y-8242440D02*
G75*
G02*
X15507000Y-8242440I-32500J0D01*
G01*
X15507000Y-8242440D02*
G75*
G02*
X15572000Y-8242440I32500J0D01*
G01*
X12753940Y-8280000D02*
X12753940Y-8350000D01*
X12718940Y-8315000D02*
X12788940Y-8315000D01*
X12698940Y-8350000D02*
X12808940Y-8350000D01*
X12808940Y-8280000D02*
G75*
G02*
X12808940Y-8350000I0J-35000D01*
G01*
X12808940Y-8280000D02*
X12698940Y-8280000D01*
X12698940Y-8280000D02*
G75*
G03*
X12698940Y-8350000I0J-35000D01*
G01*
X12753940Y-9630000D02*
X12753940Y-9700000D01*
X12718940Y-9665000D02*
X12788940Y-9665000D01*
X12698940Y-9700000D02*
X12808940Y-9700000D01*
X12808940Y-9630000D02*
G75*
G02*
X12808940Y-9700000I0J-35000D01*
G01*
X12808940Y-9630000D02*
X12698940Y-9630000D01*
X12698940Y-9630000D02*
G75*
G03*
X12698940Y-9700000I0J-35000D01*
G01*
X15131517Y-7389017D02*
X15131517Y-7335983D01*
X15078483Y-7335983D01*
X15078483Y-7389017D01*
X15131517Y-7389017D01*
X15331517Y-7389017D02*
X15331517Y-7335983D01*
X15278483Y-7335983D01*
X15278483Y-7389017D01*
X15331517Y-7389017D01*
X15876517Y-7389017D02*
X15876517Y-7335983D01*
X15823483Y-7335983D01*
X15823483Y-7389017D01*
X15876517Y-7389017D01*
X16076517Y-7389017D02*
X16076517Y-7335983D01*
X16023483Y-7335983D01*
X16023483Y-7389017D01*
X16076517Y-7389017D01*
D13*
X16920000Y-11060000D02*
X16980000Y-11000000D01*
X16920000Y-10940000D01*
X16860000Y-11000000D01*
X16920000Y-11060000D01*
X19770000Y-11090000D02*
X19830000Y-11030000D01*
X19770000Y-10970000D01*
X19710000Y-11030000D01*
X19770000Y-11090000D01*
X19775000Y-8345000D02*
X19835000Y-8285000D01*
X19775000Y-8225000D01*
X19715000Y-8285000D01*
X19775000Y-8345000D01*
X19790000Y-9730000D02*
X19850000Y-9670000D01*
X19790000Y-9610000D01*
X19730000Y-9670000D01*
X19790000Y-9730000D01*
X20495000Y-7265000D02*
X20555000Y-7205000D01*
X20495000Y-7145000D01*
X20435000Y-7205000D01*
X20495000Y-7265000D01*
X20495000Y-10005000D02*
X20555000Y-9945000D01*
X20495000Y-9885000D01*
X20435000Y-9945000D01*
X20495000Y-10005000D01*
X20505000Y-8635000D02*
X20565000Y-8575000D01*
X20505000Y-8515000D01*
X20445000Y-8575000D01*
X20505000Y-8635000D01*
D14*
X14018000Y-10093810D02*
X14268000Y-10343810D01*
X14268000Y-10093810D02*
X14018000Y-10343810D01*
X14268000Y-10218810D02*
G75*
G02*
X14018000Y-10218810I-125000J0D01*
G01*
X14018000Y-10218810D02*
G75*
G02*
X14268000Y-10218810I125000J0D01*
G01*
X15332000Y-10093810D02*
X15582000Y-10343810D01*
X15582000Y-10093810D02*
X15332000Y-10343810D01*
X15582000Y-10218810D02*
G75*
G02*
X15332000Y-10218810I-125000J0D01*
G01*
X15332000Y-10218810D02*
G75*
G02*
X15582000Y-10218810I125000J0D01*
G01*
D15*
X13218940Y-8495000D02*
X13488940Y-8765000D01*
X13488940Y-8495000D02*
X13218940Y-8765000D01*
X13353940Y-8495000D02*
X13353940Y-8765000D01*
X13218940Y-8630000D02*
X13488940Y-8630000D01*
X13218940Y-9215000D02*
X13488940Y-9485000D01*
X13488940Y-9215000D02*
X13218940Y-9485000D01*
X13353940Y-9215000D02*
X13353940Y-9485000D01*
X13218940Y-9350000D02*
X13488940Y-9350000D01*
D16*
X12300000Y-6980000D02*
X12620000Y-7300000D01*
X12620000Y-6980000D02*
X12300000Y-7300000D01*
X12573138Y-7253138D02*
X12573138Y-7026862D01*
X12346862Y-7026862D01*
X12346862Y-7253138D01*
X12573138Y-7253138D01*
X12300000Y-10680000D02*
X12620000Y-11000000D01*
X12620000Y-10680000D02*
X12300000Y-11000000D01*
X12573138Y-10953138D02*
X12573138Y-10726862D01*
X12346862Y-10726862D01*
X12346862Y-10953138D01*
X12573138Y-10953138D01*
X21750000Y-6980000D02*
X22070000Y-7300000D01*
X22070000Y-6980000D02*
X21750000Y-7300000D01*
X22023138Y-7253138D02*
X22023138Y-7026862D01*
X21796862Y-7026862D01*
X21796862Y-7253138D01*
X22023138Y-7253138D01*
X21750000Y-10680000D02*
X22070000Y-11000000D01*
X22070000Y-10680000D02*
X21750000Y-11000000D01*
X22023138Y-10953138D02*
X22023138Y-10726862D01*
X21796862Y-10726862D01*
X21796862Y-10953138D01*
X22023138Y-10953138D01*
D17*
X21040000Y-8905000D02*
X21500000Y-9365000D01*
X21500000Y-8905000D02*
X21040000Y-9365000D01*
X21270000Y-9365000D02*
X21500000Y-9135000D01*
X21270000Y-8905000D01*
X21040000Y-9135000D01*
X21270000Y-9365000D01*
X21315000Y-8430000D02*
X21775000Y-8890000D01*
X21775000Y-8430000D02*
X21315000Y-8890000D01*
X21545000Y-8890000D02*
X21775000Y-8660000D01*
X21545000Y-8430000D01*
X21315000Y-8660000D01*
X21545000Y-8890000D01*
X21590000Y-8905000D02*
X22050000Y-9365000D01*
X22050000Y-8905000D02*
X21590000Y-9365000D01*
X21820000Y-9365000D02*
X22050000Y-9135000D01*
X21820000Y-8905000D01*
X21590000Y-9135000D01*
X21820000Y-9365000D01*
D11*
X12318277Y-11553984D02*
X12318277Y-11353984D01*
X12318277Y-11353984D02*
X12365896Y-11353984D01*
X12365896Y-11353984D02*
X12394467Y-11363508D01*
X12394467Y-11363508D02*
X12413515Y-11382555D01*
X12413515Y-11382555D02*
X12423039Y-11401603D01*
X12423039Y-11401603D02*
X12432562Y-11439698D01*
X12432562Y-11439698D02*
X12432562Y-11468269D01*
X12432562Y-11468269D02*
X12423039Y-11506365D01*
X12423039Y-11506365D02*
X12413515Y-11525412D01*
X12413515Y-11525412D02*
X12394467Y-11544460D01*
X12394467Y-11544460D02*
X12365896Y-11553984D01*
X12365896Y-11553984D02*
X12318277Y-11553984D01*
X12518277Y-11553984D02*
X12518277Y-11420650D01*
X12518277Y-11458746D02*
X12527801Y-11439698D01*
X12527801Y-11439698D02*
X12537324Y-11430174D01*
X12537324Y-11430174D02*
X12556372Y-11420650D01*
X12556372Y-11420650D02*
X12575420Y-11420650D01*
X12642086Y-11553984D02*
X12642086Y-11420650D01*
X12642086Y-11353984D02*
X12632562Y-11363508D01*
X12632562Y-11363508D02*
X12642086Y-11373031D01*
X12642086Y-11373031D02*
X12651610Y-11363508D01*
X12651610Y-11363508D02*
X12642086Y-11353984D01*
X12642086Y-11353984D02*
X12642086Y-11373031D01*
X12765896Y-11553984D02*
X12746848Y-11544460D01*
X12746848Y-11544460D02*
X12737324Y-11525412D01*
X12737324Y-11525412D02*
X12737324Y-11353984D01*
X12870658Y-11553984D02*
X12851610Y-11544460D01*
X12851610Y-11544460D02*
X12842086Y-11525412D01*
X12842086Y-11525412D02*
X12842086Y-11353984D01*
X13099229Y-11553984D02*
X13099229Y-11353984D01*
X13099229Y-11353984D02*
X13165896Y-11496841D01*
X13165896Y-11496841D02*
X13232562Y-11353984D01*
X13232562Y-11353984D02*
X13232562Y-11553984D01*
X13413515Y-11553984D02*
X13413515Y-11449222D01*
X13413515Y-11449222D02*
X13403991Y-11430174D01*
X13403991Y-11430174D02*
X13384943Y-11420650D01*
X13384943Y-11420650D02*
X13346848Y-11420650D01*
X13346848Y-11420650D02*
X13327801Y-11430174D01*
X13413515Y-11544460D02*
X13394467Y-11553984D01*
X13394467Y-11553984D02*
X13346848Y-11553984D01*
X13346848Y-11553984D02*
X13327801Y-11544460D01*
X13327801Y-11544460D02*
X13318277Y-11525412D01*
X13318277Y-11525412D02*
X13318277Y-11506365D01*
X13318277Y-11506365D02*
X13327801Y-11487317D01*
X13327801Y-11487317D02*
X13346848Y-11477793D01*
X13346848Y-11477793D02*
X13394467Y-11477793D01*
X13394467Y-11477793D02*
X13413515Y-11468269D01*
X13508753Y-11420650D02*
X13508753Y-11620650D01*
X13508753Y-11430174D02*
X13527801Y-11420650D01*
X13527801Y-11420650D02*
X13565896Y-11420650D01*
X13565896Y-11420650D02*
X13584943Y-11430174D01*
X13584943Y-11430174D02*
X13594467Y-11439698D01*
X13594467Y-11439698D02*
X13603991Y-11458746D01*
X13603991Y-11458746D02*
X13603991Y-11515888D01*
X13603991Y-11515888D02*
X13594467Y-11534936D01*
X13594467Y-11534936D02*
X13584943Y-11544460D01*
X13584943Y-11544460D02*
X13565896Y-11553984D01*
X13565896Y-11553984D02*
X13527801Y-11553984D01*
X13527801Y-11553984D02*
X13508753Y-11544460D01*
X13689705Y-11534936D02*
X13699229Y-11544460D01*
X13699229Y-11544460D02*
X13689705Y-11553984D01*
X13689705Y-11553984D02*
X13680182Y-11544460D01*
X13680182Y-11544460D02*
X13689705Y-11534936D01*
X13689705Y-11534936D02*
X13689705Y-11553984D01*
X13689705Y-11430174D02*
X13699229Y-11439698D01*
X13699229Y-11439698D02*
X13689705Y-11449222D01*
X13689705Y-11449222D02*
X13680182Y-11439698D01*
X13680182Y-11439698D02*
X13689705Y-11430174D01*
X13689705Y-11430174D02*
X13689705Y-11449222D01*
D12*
X12027500Y-11867500D02*
X12057500Y-11897500D01*
X12057500Y-11867500D02*
X12027500Y-11897500D01*
D11*
X12356372Y-11773984D02*
X12375420Y-11773984D01*
X12375420Y-11773984D02*
X12394467Y-11783508D01*
X12394467Y-11783508D02*
X12403991Y-11793031D01*
X12403991Y-11793031D02*
X12413515Y-11812079D01*
X12413515Y-11812079D02*
X12423039Y-11850174D01*
X12423039Y-11850174D02*
X12423039Y-11897793D01*
X12423039Y-11897793D02*
X12413515Y-11935888D01*
X12413515Y-11935888D02*
X12403991Y-11954936D01*
X12403991Y-11954936D02*
X12394467Y-11964460D01*
X12394467Y-11964460D02*
X12375420Y-11973984D01*
X12375420Y-11973984D02*
X12356372Y-11973984D01*
X12356372Y-11973984D02*
X12337324Y-11964460D01*
X12337324Y-11964460D02*
X12327801Y-11954936D01*
X12327801Y-11954936D02*
X12318277Y-11935888D01*
X12318277Y-11935888D02*
X12308753Y-11897793D01*
X12308753Y-11897793D02*
X12308753Y-11850174D01*
X12308753Y-11850174D02*
X12318277Y-11812079D01*
X12318277Y-11812079D02*
X12327801Y-11793031D01*
X12327801Y-11793031D02*
X12337324Y-11783508D01*
X12337324Y-11783508D02*
X12356372Y-11773984D01*
X12508753Y-11954936D02*
X12518277Y-11964460D01*
X12518277Y-11964460D02*
X12508753Y-11973984D01*
X12508753Y-11973984D02*
X12499229Y-11964460D01*
X12499229Y-11964460D02*
X12508753Y-11954936D01*
X12508753Y-11954936D02*
X12508753Y-11973984D01*
X12584943Y-11773984D02*
X12708753Y-11773984D01*
X12708753Y-11773984D02*
X12642086Y-11850174D01*
X12642086Y-11850174D02*
X12670658Y-11850174D01*
X12670658Y-11850174D02*
X12689705Y-11859698D01*
X12689705Y-11859698D02*
X12699229Y-11869222D01*
X12699229Y-11869222D02*
X12708753Y-11888269D01*
X12708753Y-11888269D02*
X12708753Y-11935888D01*
X12708753Y-11935888D02*
X12699229Y-11954936D01*
X12699229Y-11954936D02*
X12689705Y-11964460D01*
X12689705Y-11964460D02*
X12670658Y-11973984D01*
X12670658Y-11973984D02*
X12613515Y-11973984D01*
X12613515Y-11973984D02*
X12594467Y-11964460D01*
X12594467Y-11964460D02*
X12584943Y-11954936D01*
X12832562Y-11773984D02*
X12851610Y-11773984D01*
X12851610Y-11773984D02*
X12870658Y-11783508D01*
X12870658Y-11783508D02*
X12880182Y-11793031D01*
X12880182Y-11793031D02*
X12889705Y-11812079D01*
X12889705Y-11812079D02*
X12899229Y-11850174D01*
X12899229Y-11850174D02*
X12899229Y-11897793D01*
X12899229Y-11897793D02*
X12889705Y-11935888D01*
X12889705Y-11935888D02*
X12880182Y-11954936D01*
X12880182Y-11954936D02*
X12870658Y-11964460D01*
X12870658Y-11964460D02*
X12851610Y-11973984D01*
X12851610Y-11973984D02*
X12832562Y-11973984D01*
X12832562Y-11973984D02*
X12813515Y-11964460D01*
X12813515Y-11964460D02*
X12803991Y-11954936D01*
X12803991Y-11954936D02*
X12794467Y-11935888D01*
X12794467Y-11935888D02*
X12784943Y-11897793D01*
X12784943Y-11897793D02*
X12784943Y-11850174D01*
X12784943Y-11850174D02*
X12794467Y-11812079D01*
X12794467Y-11812079D02*
X12803991Y-11793031D01*
X12803991Y-11793031D02*
X12813515Y-11783508D01*
X12813515Y-11783508D02*
X12832562Y-11773984D01*
X13023039Y-11773984D02*
X13042086Y-11773984D01*
X13042086Y-11773984D02*
X13061134Y-11783508D01*
X13061134Y-11783508D02*
X13070658Y-11793031D01*
X13070658Y-11793031D02*
X13080182Y-11812079D01*
X13080182Y-11812079D02*
X13089705Y-11850174D01*
X13089705Y-11850174D02*
X13089705Y-11897793D01*
X13089705Y-11897793D02*
X13080182Y-11935888D01*
X13080182Y-11935888D02*
X13070658Y-11954936D01*
X13070658Y-11954936D02*
X13061134Y-11964460D01*
X13061134Y-11964460D02*
X13042086Y-11973984D01*
X13042086Y-11973984D02*
X13023039Y-11973984D01*
X13023039Y-11973984D02*
X13003991Y-11964460D01*
X13003991Y-11964460D02*
X12994467Y-11954936D01*
X12994467Y-11954936D02*
X12984943Y-11935888D01*
X12984943Y-11935888D02*
X12975420Y-11897793D01*
X12975420Y-11897793D02*
X12975420Y-11850174D01*
X12975420Y-11850174D02*
X12984943Y-11812079D01*
X12984943Y-11812079D02*
X12994467Y-11793031D01*
X12994467Y-11793031D02*
X13003991Y-11783508D01*
X13003991Y-11783508D02*
X13023039Y-11773984D01*
X13175420Y-11973984D02*
X13175420Y-11840650D01*
X13175420Y-11859698D02*
X13184943Y-11850174D01*
X13184943Y-11850174D02*
X13203991Y-11840650D01*
X13203991Y-11840650D02*
X13232563Y-11840650D01*
X13232563Y-11840650D02*
X13251610Y-11850174D01*
X13251610Y-11850174D02*
X13261134Y-11869222D01*
X13261134Y-11869222D02*
X13261134Y-11973984D01*
X13261134Y-11869222D02*
X13270658Y-11850174D01*
X13270658Y-11850174D02*
X13289705Y-11840650D01*
X13289705Y-11840650D02*
X13318277Y-11840650D01*
X13318277Y-11840650D02*
X13337324Y-11850174D01*
X13337324Y-11850174D02*
X13346848Y-11869222D01*
X13346848Y-11869222D02*
X13346848Y-11973984D01*
X13442086Y-11973984D02*
X13442086Y-11840650D01*
X13442086Y-11859698D02*
X13451610Y-11850174D01*
X13451610Y-11850174D02*
X13470658Y-11840650D01*
X13470658Y-11840650D02*
X13499229Y-11840650D01*
X13499229Y-11840650D02*
X13518277Y-11850174D01*
X13518277Y-11850174D02*
X13527801Y-11869222D01*
X13527801Y-11869222D02*
X13527801Y-11973984D01*
X13527801Y-11869222D02*
X13537324Y-11850174D01*
X13537324Y-11850174D02*
X13556372Y-11840650D01*
X13556372Y-11840650D02*
X13584943Y-11840650D01*
X13584943Y-11840650D02*
X13603991Y-11850174D01*
X13603991Y-11850174D02*
X13613515Y-11869222D01*
X13613515Y-11869222D02*
X13613515Y-11973984D01*
X14003991Y-11764460D02*
X13832563Y-12021603D01*
X14261134Y-11773984D02*
X14280182Y-11773984D01*
X14280182Y-11773984D02*
X14299229Y-11783508D01*
X14299229Y-11783508D02*
X14308753Y-11793031D01*
X14308753Y-11793031D02*
X14318277Y-11812079D01*
X14318277Y-11812079D02*
X14327801Y-11850174D01*
X14327801Y-11850174D02*
X14327801Y-11897793D01*
X14327801Y-11897793D02*
X14318277Y-11935888D01*
X14318277Y-11935888D02*
X14308753Y-11954936D01*
X14308753Y-11954936D02*
X14299229Y-11964460D01*
X14299229Y-11964460D02*
X14280182Y-11973984D01*
X14280182Y-11973984D02*
X14261134Y-11973984D01*
X14261134Y-11973984D02*
X14242086Y-11964460D01*
X14242086Y-11964460D02*
X14232563Y-11954936D01*
X14232563Y-11954936D02*
X14223039Y-11935888D01*
X14223039Y-11935888D02*
X14213515Y-11897793D01*
X14213515Y-11897793D02*
X14213515Y-11850174D01*
X14213515Y-11850174D02*
X14223039Y-11812079D01*
X14223039Y-11812079D02*
X14232563Y-11793031D01*
X14232563Y-11793031D02*
X14242086Y-11783508D01*
X14242086Y-11783508D02*
X14261134Y-11773984D01*
X14413515Y-11954936D02*
X14423039Y-11964460D01*
X14423039Y-11964460D02*
X14413515Y-11973984D01*
X14413515Y-11973984D02*
X14403991Y-11964460D01*
X14403991Y-11964460D02*
X14413515Y-11954936D01*
X14413515Y-11954936D02*
X14413515Y-11973984D01*
X14546848Y-11773984D02*
X14565896Y-11773984D01*
X14565896Y-11773984D02*
X14584944Y-11783508D01*
X14584944Y-11783508D02*
X14594467Y-11793031D01*
X14594467Y-11793031D02*
X14603991Y-11812079D01*
X14603991Y-11812079D02*
X14613515Y-11850174D01*
X14613515Y-11850174D02*
X14613515Y-11897793D01*
X14613515Y-11897793D02*
X14603991Y-11935888D01*
X14603991Y-11935888D02*
X14594467Y-11954936D01*
X14594467Y-11954936D02*
X14584944Y-11964460D01*
X14584944Y-11964460D02*
X14565896Y-11973984D01*
X14565896Y-11973984D02*
X14546848Y-11973984D01*
X14546848Y-11973984D02*
X14527801Y-11964460D01*
X14527801Y-11964460D02*
X14518277Y-11954936D01*
X14518277Y-11954936D02*
X14508753Y-11935888D01*
X14508753Y-11935888D02*
X14499229Y-11897793D01*
X14499229Y-11897793D02*
X14499229Y-11850174D01*
X14499229Y-11850174D02*
X14508753Y-11812079D01*
X14508753Y-11812079D02*
X14518277Y-11793031D01*
X14518277Y-11793031D02*
X14527801Y-11783508D01*
X14527801Y-11783508D02*
X14546848Y-11773984D01*
X14803991Y-11973984D02*
X14689706Y-11973984D01*
X14746848Y-11973984D02*
X14746848Y-11773984D01*
X14746848Y-11773984D02*
X14727801Y-11802555D01*
X14727801Y-11802555D02*
X14708753Y-11821603D01*
X14708753Y-11821603D02*
X14689706Y-11831127D01*
X14994467Y-11973984D02*
X14880182Y-11973984D01*
X14937325Y-11973984D02*
X14937325Y-11773984D01*
X14937325Y-11773984D02*
X14918277Y-11802555D01*
X14918277Y-11802555D02*
X14899229Y-11821603D01*
X14899229Y-11821603D02*
X14880182Y-11831127D01*
X15108753Y-11859698D02*
X15089706Y-11850174D01*
X15089706Y-11850174D02*
X15080182Y-11840650D01*
X15080182Y-11840650D02*
X15070658Y-11821603D01*
X15070658Y-11821603D02*
X15070658Y-11812079D01*
X15070658Y-11812079D02*
X15080182Y-11793031D01*
X15080182Y-11793031D02*
X15089706Y-11783508D01*
X15089706Y-11783508D02*
X15108753Y-11773984D01*
X15108753Y-11773984D02*
X15146848Y-11773984D01*
X15146848Y-11773984D02*
X15165896Y-11783508D01*
X15165896Y-11783508D02*
X15175420Y-11793031D01*
X15175420Y-11793031D02*
X15184944Y-11812079D01*
X15184944Y-11812079D02*
X15184944Y-11821603D01*
X15184944Y-11821603D02*
X15175420Y-11840650D01*
X15175420Y-11840650D02*
X15165896Y-11850174D01*
X15165896Y-11850174D02*
X15146848Y-11859698D01*
X15146848Y-11859698D02*
X15108753Y-11859698D01*
X15108753Y-11859698D02*
X15089706Y-11869222D01*
X15089706Y-11869222D02*
X15080182Y-11878746D01*
X15080182Y-11878746D02*
X15070658Y-11897793D01*
X15070658Y-11897793D02*
X15070658Y-11935888D01*
X15070658Y-11935888D02*
X15080182Y-11954936D01*
X15080182Y-11954936D02*
X15089706Y-11964460D01*
X15089706Y-11964460D02*
X15108753Y-11973984D01*
X15108753Y-11973984D02*
X15146848Y-11973984D01*
X15146848Y-11973984D02*
X15165896Y-11964460D01*
X15165896Y-11964460D02*
X15175420Y-11954936D01*
X15175420Y-11954936D02*
X15184944Y-11935888D01*
X15184944Y-11935888D02*
X15184944Y-11897793D01*
X15184944Y-11897793D02*
X15175420Y-11878746D01*
X15175420Y-11878746D02*
X15165896Y-11869222D01*
X15165896Y-11869222D02*
X15146848Y-11859698D01*
X15261134Y-11773984D02*
X15261134Y-11812079D01*
X15337325Y-11773984D02*
X15337325Y-11812079D01*
X15632563Y-12050174D02*
X15623039Y-12040650D01*
X15623039Y-12040650D02*
X15603991Y-12012079D01*
X15603991Y-12012079D02*
X15594468Y-11993031D01*
X15594468Y-11993031D02*
X15584944Y-11964460D01*
X15584944Y-11964460D02*
X15575420Y-11916841D01*
X15575420Y-11916841D02*
X15575420Y-11878746D01*
X15575420Y-11878746D02*
X15584944Y-11831127D01*
X15584944Y-11831127D02*
X15594468Y-11802555D01*
X15594468Y-11802555D02*
X15603991Y-11783508D01*
X15603991Y-11783508D02*
X15623039Y-11754936D01*
X15623039Y-11754936D02*
X15632563Y-11745412D01*
X15689706Y-11773984D02*
X15813515Y-11773984D01*
X15813515Y-11773984D02*
X15746848Y-11850174D01*
X15746848Y-11850174D02*
X15775420Y-11850174D01*
X15775420Y-11850174D02*
X15794468Y-11859698D01*
X15794468Y-11859698D02*
X15803991Y-11869222D01*
X15803991Y-11869222D02*
X15813515Y-11888269D01*
X15813515Y-11888269D02*
X15813515Y-11935888D01*
X15813515Y-11935888D02*
X15803991Y-11954936D01*
X15803991Y-11954936D02*
X15794468Y-11964460D01*
X15794468Y-11964460D02*
X15775420Y-11973984D01*
X15775420Y-11973984D02*
X15718277Y-11973984D01*
X15718277Y-11973984D02*
X15699229Y-11964460D01*
X15699229Y-11964460D02*
X15689706Y-11954936D01*
X16003991Y-11973984D02*
X15889706Y-11973984D01*
X15946848Y-11973984D02*
X15946848Y-11773984D01*
X15946848Y-11773984D02*
X15927801Y-11802555D01*
X15927801Y-11802555D02*
X15908753Y-11821603D01*
X15908753Y-11821603D02*
X15889706Y-11831127D01*
X16175420Y-11773984D02*
X16137325Y-11773984D01*
X16137325Y-11773984D02*
X16118277Y-11783508D01*
X16118277Y-11783508D02*
X16108753Y-11793031D01*
X16108753Y-11793031D02*
X16089706Y-11821603D01*
X16089706Y-11821603D02*
X16080182Y-11859698D01*
X16080182Y-11859698D02*
X16080182Y-11935888D01*
X16080182Y-11935888D02*
X16089706Y-11954936D01*
X16089706Y-11954936D02*
X16099229Y-11964460D01*
X16099229Y-11964460D02*
X16118277Y-11973984D01*
X16118277Y-11973984D02*
X16156372Y-11973984D01*
X16156372Y-11973984D02*
X16175420Y-11964460D01*
X16175420Y-11964460D02*
X16184944Y-11954936D01*
X16184944Y-11954936D02*
X16194468Y-11935888D01*
X16194468Y-11935888D02*
X16194468Y-11888269D01*
X16194468Y-11888269D02*
X16184944Y-11869222D01*
X16184944Y-11869222D02*
X16175420Y-11859698D01*
X16175420Y-11859698D02*
X16156372Y-11850174D01*
X16156372Y-11850174D02*
X16118277Y-11850174D01*
X16118277Y-11850174D02*
X16099229Y-11859698D01*
X16099229Y-11859698D02*
X16089706Y-11869222D01*
X16089706Y-11869222D02*
X16080182Y-11888269D01*
X16432563Y-11973984D02*
X16432563Y-11773984D01*
X16518277Y-11973984D02*
X16518277Y-11869222D01*
X16518277Y-11869222D02*
X16508753Y-11850174D01*
X16508753Y-11850174D02*
X16489706Y-11840650D01*
X16489706Y-11840650D02*
X16461134Y-11840650D01*
X16461134Y-11840650D02*
X16442087Y-11850174D01*
X16442087Y-11850174D02*
X16432563Y-11859698D01*
X16642087Y-11973984D02*
X16623039Y-11964460D01*
X16623039Y-11964460D02*
X16613515Y-11954936D01*
X16613515Y-11954936D02*
X16603991Y-11935888D01*
X16603991Y-11935888D02*
X16603991Y-11878746D01*
X16603991Y-11878746D02*
X16613515Y-11859698D01*
X16613515Y-11859698D02*
X16623039Y-11850174D01*
X16623039Y-11850174D02*
X16642087Y-11840650D01*
X16642087Y-11840650D02*
X16670658Y-11840650D01*
X16670658Y-11840650D02*
X16689706Y-11850174D01*
X16689706Y-11850174D02*
X16699230Y-11859698D01*
X16699230Y-11859698D02*
X16708753Y-11878746D01*
X16708753Y-11878746D02*
X16708753Y-11935888D01*
X16708753Y-11935888D02*
X16699230Y-11954936D01*
X16699230Y-11954936D02*
X16689706Y-11964460D01*
X16689706Y-11964460D02*
X16670658Y-11973984D01*
X16670658Y-11973984D02*
X16642087Y-11973984D01*
X16823039Y-11973984D02*
X16803992Y-11964460D01*
X16803992Y-11964460D02*
X16794468Y-11945412D01*
X16794468Y-11945412D02*
X16794468Y-11773984D01*
X16975420Y-11964460D02*
X16956373Y-11973984D01*
X16956373Y-11973984D02*
X16918277Y-11973984D01*
X16918277Y-11973984D02*
X16899230Y-11964460D01*
X16899230Y-11964460D02*
X16889706Y-11945412D01*
X16889706Y-11945412D02*
X16889706Y-11869222D01*
X16889706Y-11869222D02*
X16899230Y-11850174D01*
X16899230Y-11850174D02*
X16918277Y-11840650D01*
X16918277Y-11840650D02*
X16956373Y-11840650D01*
X16956373Y-11840650D02*
X16975420Y-11850174D01*
X16975420Y-11850174D02*
X16984944Y-11869222D01*
X16984944Y-11869222D02*
X16984944Y-11888269D01*
X16984944Y-11888269D02*
X16889706Y-11907317D01*
X17061134Y-11964460D02*
X17080182Y-11973984D01*
X17080182Y-11973984D02*
X17118277Y-11973984D01*
X17118277Y-11973984D02*
X17137325Y-11964460D01*
X17137325Y-11964460D02*
X17146849Y-11945412D01*
X17146849Y-11945412D02*
X17146849Y-11935888D01*
X17146849Y-11935888D02*
X17137325Y-11916841D01*
X17137325Y-11916841D02*
X17118277Y-11907317D01*
X17118277Y-11907317D02*
X17089706Y-11907317D01*
X17089706Y-11907317D02*
X17070658Y-11897793D01*
X17070658Y-11897793D02*
X17061134Y-11878746D01*
X17061134Y-11878746D02*
X17061134Y-11869222D01*
X17061134Y-11869222D02*
X17070658Y-11850174D01*
X17070658Y-11850174D02*
X17089706Y-11840650D01*
X17089706Y-11840650D02*
X17118277Y-11840650D01*
X17118277Y-11840650D02*
X17137325Y-11850174D01*
X17213515Y-12050174D02*
X17223039Y-12040650D01*
X17223039Y-12040650D02*
X17242087Y-12012079D01*
X17242087Y-12012079D02*
X17251611Y-11993031D01*
X17251611Y-11993031D02*
X17261134Y-11964460D01*
X17261134Y-11964460D02*
X17270658Y-11916841D01*
X17270658Y-11916841D02*
X17270658Y-11878746D01*
X17270658Y-11878746D02*
X17261134Y-11831127D01*
X17261134Y-11831127D02*
X17251611Y-11802555D01*
X17251611Y-11802555D02*
X17242087Y-11783508D01*
X17242087Y-11783508D02*
X17223039Y-11754936D01*
X17223039Y-11754936D02*
X17213515Y-11745412D01*
D12*
X12057500Y-12146500D02*
G75*
G02*
X11992500Y-12146500I-32500J0D01*
G01*
X11992500Y-12146500D02*
G75*
G02*
X12057500Y-12146500I32500J0D01*
G01*
D11*
X12356372Y-12037984D02*
X12375420Y-12037984D01*
X12375420Y-12037984D02*
X12394467Y-12047508D01*
X12394467Y-12047508D02*
X12403991Y-12057031D01*
X12403991Y-12057031D02*
X12413515Y-12076079D01*
X12413515Y-12076079D02*
X12423039Y-12114174D01*
X12423039Y-12114174D02*
X12423039Y-12161793D01*
X12423039Y-12161793D02*
X12413515Y-12199888D01*
X12413515Y-12199888D02*
X12403991Y-12218936D01*
X12403991Y-12218936D02*
X12394467Y-12228460D01*
X12394467Y-12228460D02*
X12375420Y-12237984D01*
X12375420Y-12237984D02*
X12356372Y-12237984D01*
X12356372Y-12237984D02*
X12337324Y-12228460D01*
X12337324Y-12228460D02*
X12327801Y-12218936D01*
X12327801Y-12218936D02*
X12318277Y-12199888D01*
X12318277Y-12199888D02*
X12308753Y-12161793D01*
X12308753Y-12161793D02*
X12308753Y-12114174D01*
X12308753Y-12114174D02*
X12318277Y-12076079D01*
X12318277Y-12076079D02*
X12327801Y-12057031D01*
X12327801Y-12057031D02*
X12337324Y-12047508D01*
X12337324Y-12047508D02*
X12356372Y-12037984D01*
X12508753Y-12218936D02*
X12518277Y-12228460D01*
X12518277Y-12228460D02*
X12508753Y-12237984D01*
X12508753Y-12237984D02*
X12499229Y-12228460D01*
X12499229Y-12228460D02*
X12508753Y-12218936D01*
X12508753Y-12218936D02*
X12508753Y-12237984D01*
X12689705Y-12037984D02*
X12651610Y-12037984D01*
X12651610Y-12037984D02*
X12632562Y-12047508D01*
X12632562Y-12047508D02*
X12623039Y-12057031D01*
X12623039Y-12057031D02*
X12603991Y-12085603D01*
X12603991Y-12085603D02*
X12594467Y-12123698D01*
X12594467Y-12123698D02*
X12594467Y-12199888D01*
X12594467Y-12199888D02*
X12603991Y-12218936D01*
X12603991Y-12218936D02*
X12613515Y-12228460D01*
X12613515Y-12228460D02*
X12632562Y-12237984D01*
X12632562Y-12237984D02*
X12670658Y-12237984D01*
X12670658Y-12237984D02*
X12689705Y-12228460D01*
X12689705Y-12228460D02*
X12699229Y-12218936D01*
X12699229Y-12218936D02*
X12708753Y-12199888D01*
X12708753Y-12199888D02*
X12708753Y-12152269D01*
X12708753Y-12152269D02*
X12699229Y-12133222D01*
X12699229Y-12133222D02*
X12689705Y-12123698D01*
X12689705Y-12123698D02*
X12670658Y-12114174D01*
X12670658Y-12114174D02*
X12632562Y-12114174D01*
X12632562Y-12114174D02*
X12613515Y-12123698D01*
X12613515Y-12123698D02*
X12603991Y-12133222D01*
X12603991Y-12133222D02*
X12594467Y-12152269D01*
X12889705Y-12037984D02*
X12794467Y-12037984D01*
X12794467Y-12037984D02*
X12784943Y-12133222D01*
X12784943Y-12133222D02*
X12794467Y-12123698D01*
X12794467Y-12123698D02*
X12813515Y-12114174D01*
X12813515Y-12114174D02*
X12861134Y-12114174D01*
X12861134Y-12114174D02*
X12880182Y-12123698D01*
X12880182Y-12123698D02*
X12889705Y-12133222D01*
X12889705Y-12133222D02*
X12899229Y-12152269D01*
X12899229Y-12152269D02*
X12899229Y-12199888D01*
X12899229Y-12199888D02*
X12889705Y-12218936D01*
X12889705Y-12218936D02*
X12880182Y-12228460D01*
X12880182Y-12228460D02*
X12861134Y-12237984D01*
X12861134Y-12237984D02*
X12813515Y-12237984D01*
X12813515Y-12237984D02*
X12794467Y-12228460D01*
X12794467Y-12228460D02*
X12784943Y-12218936D01*
X13023039Y-12037984D02*
X13042086Y-12037984D01*
X13042086Y-12037984D02*
X13061134Y-12047508D01*
X13061134Y-12047508D02*
X13070658Y-12057031D01*
X13070658Y-12057031D02*
X13080182Y-12076079D01*
X13080182Y-12076079D02*
X13089705Y-12114174D01*
X13089705Y-12114174D02*
X13089705Y-12161793D01*
X13089705Y-12161793D02*
X13080182Y-12199888D01*
X13080182Y-12199888D02*
X13070658Y-12218936D01*
X13070658Y-12218936D02*
X13061134Y-12228460D01*
X13061134Y-12228460D02*
X13042086Y-12237984D01*
X13042086Y-12237984D02*
X13023039Y-12237984D01*
X13023039Y-12237984D02*
X13003991Y-12228460D01*
X13003991Y-12228460D02*
X12994467Y-12218936D01*
X12994467Y-12218936D02*
X12984943Y-12199888D01*
X12984943Y-12199888D02*
X12975420Y-12161793D01*
X12975420Y-12161793D02*
X12975420Y-12114174D01*
X12975420Y-12114174D02*
X12984943Y-12076079D01*
X12984943Y-12076079D02*
X12994467Y-12057031D01*
X12994467Y-12057031D02*
X13003991Y-12047508D01*
X13003991Y-12047508D02*
X13023039Y-12037984D01*
X13175420Y-12237984D02*
X13175420Y-12104650D01*
X13175420Y-12123698D02*
X13184943Y-12114174D01*
X13184943Y-12114174D02*
X13203991Y-12104650D01*
X13203991Y-12104650D02*
X13232563Y-12104650D01*
X13232563Y-12104650D02*
X13251610Y-12114174D01*
X13251610Y-12114174D02*
X13261134Y-12133222D01*
X13261134Y-12133222D02*
X13261134Y-12237984D01*
X13261134Y-12133222D02*
X13270658Y-12114174D01*
X13270658Y-12114174D02*
X13289705Y-12104650D01*
X13289705Y-12104650D02*
X13318277Y-12104650D01*
X13318277Y-12104650D02*
X13337324Y-12114174D01*
X13337324Y-12114174D02*
X13346848Y-12133222D01*
X13346848Y-12133222D02*
X13346848Y-12237984D01*
X13442086Y-12237984D02*
X13442086Y-12104650D01*
X13442086Y-12123698D02*
X13451610Y-12114174D01*
X13451610Y-12114174D02*
X13470658Y-12104650D01*
X13470658Y-12104650D02*
X13499229Y-12104650D01*
X13499229Y-12104650D02*
X13518277Y-12114174D01*
X13518277Y-12114174D02*
X13527801Y-12133222D01*
X13527801Y-12133222D02*
X13527801Y-12237984D01*
X13527801Y-12133222D02*
X13537324Y-12114174D01*
X13537324Y-12114174D02*
X13556372Y-12104650D01*
X13556372Y-12104650D02*
X13584943Y-12104650D01*
X13584943Y-12104650D02*
X13603991Y-12114174D01*
X13603991Y-12114174D02*
X13613515Y-12133222D01*
X13613515Y-12133222D02*
X13613515Y-12237984D01*
X14003991Y-12028460D02*
X13832563Y-12285603D01*
X14261134Y-12037984D02*
X14280182Y-12037984D01*
X14280182Y-12037984D02*
X14299229Y-12047508D01*
X14299229Y-12047508D02*
X14308753Y-12057031D01*
X14308753Y-12057031D02*
X14318277Y-12076079D01*
X14318277Y-12076079D02*
X14327801Y-12114174D01*
X14327801Y-12114174D02*
X14327801Y-12161793D01*
X14327801Y-12161793D02*
X14318277Y-12199888D01*
X14318277Y-12199888D02*
X14308753Y-12218936D01*
X14308753Y-12218936D02*
X14299229Y-12228460D01*
X14299229Y-12228460D02*
X14280182Y-12237984D01*
X14280182Y-12237984D02*
X14261134Y-12237984D01*
X14261134Y-12237984D02*
X14242086Y-12228460D01*
X14242086Y-12228460D02*
X14232563Y-12218936D01*
X14232563Y-12218936D02*
X14223039Y-12199888D01*
X14223039Y-12199888D02*
X14213515Y-12161793D01*
X14213515Y-12161793D02*
X14213515Y-12114174D01*
X14213515Y-12114174D02*
X14223039Y-12076079D01*
X14223039Y-12076079D02*
X14232563Y-12057031D01*
X14232563Y-12057031D02*
X14242086Y-12047508D01*
X14242086Y-12047508D02*
X14261134Y-12037984D01*
X14413515Y-12218936D02*
X14423039Y-12228460D01*
X14423039Y-12228460D02*
X14413515Y-12237984D01*
X14413515Y-12237984D02*
X14403991Y-12228460D01*
X14403991Y-12228460D02*
X14413515Y-12218936D01*
X14413515Y-12218936D02*
X14413515Y-12237984D01*
X14546848Y-12037984D02*
X14565896Y-12037984D01*
X14565896Y-12037984D02*
X14584944Y-12047508D01*
X14584944Y-12047508D02*
X14594467Y-12057031D01*
X14594467Y-12057031D02*
X14603991Y-12076079D01*
X14603991Y-12076079D02*
X14613515Y-12114174D01*
X14613515Y-12114174D02*
X14613515Y-12161793D01*
X14613515Y-12161793D02*
X14603991Y-12199888D01*
X14603991Y-12199888D02*
X14594467Y-12218936D01*
X14594467Y-12218936D02*
X14584944Y-12228460D01*
X14584944Y-12228460D02*
X14565896Y-12237984D01*
X14565896Y-12237984D02*
X14546848Y-12237984D01*
X14546848Y-12237984D02*
X14527801Y-12228460D01*
X14527801Y-12228460D02*
X14518277Y-12218936D01*
X14518277Y-12218936D02*
X14508753Y-12199888D01*
X14508753Y-12199888D02*
X14499229Y-12161793D01*
X14499229Y-12161793D02*
X14499229Y-12114174D01*
X14499229Y-12114174D02*
X14508753Y-12076079D01*
X14508753Y-12076079D02*
X14518277Y-12057031D01*
X14518277Y-12057031D02*
X14527801Y-12047508D01*
X14527801Y-12047508D02*
X14546848Y-12037984D01*
X14689706Y-12057031D02*
X14699229Y-12047508D01*
X14699229Y-12047508D02*
X14718277Y-12037984D01*
X14718277Y-12037984D02*
X14765896Y-12037984D01*
X14765896Y-12037984D02*
X14784944Y-12047508D01*
X14784944Y-12047508D02*
X14794467Y-12057031D01*
X14794467Y-12057031D02*
X14803991Y-12076079D01*
X14803991Y-12076079D02*
X14803991Y-12095127D01*
X14803991Y-12095127D02*
X14794467Y-12123698D01*
X14794467Y-12123698D02*
X14680182Y-12237984D01*
X14680182Y-12237984D02*
X14803991Y-12237984D01*
X14984944Y-12037984D02*
X14889706Y-12037984D01*
X14889706Y-12037984D02*
X14880182Y-12133222D01*
X14880182Y-12133222D02*
X14889706Y-12123698D01*
X14889706Y-12123698D02*
X14908753Y-12114174D01*
X14908753Y-12114174D02*
X14956372Y-12114174D01*
X14956372Y-12114174D02*
X14975420Y-12123698D01*
X14975420Y-12123698D02*
X14984944Y-12133222D01*
X14984944Y-12133222D02*
X14994467Y-12152269D01*
X14994467Y-12152269D02*
X14994467Y-12199888D01*
X14994467Y-12199888D02*
X14984944Y-12218936D01*
X14984944Y-12218936D02*
X14975420Y-12228460D01*
X14975420Y-12228460D02*
X14956372Y-12237984D01*
X14956372Y-12237984D02*
X14908753Y-12237984D01*
X14908753Y-12237984D02*
X14889706Y-12228460D01*
X14889706Y-12228460D02*
X14880182Y-12218936D01*
X15165896Y-12037984D02*
X15127801Y-12037984D01*
X15127801Y-12037984D02*
X15108753Y-12047508D01*
X15108753Y-12047508D02*
X15099229Y-12057031D01*
X15099229Y-12057031D02*
X15080182Y-12085603D01*
X15080182Y-12085603D02*
X15070658Y-12123698D01*
X15070658Y-12123698D02*
X15070658Y-12199888D01*
X15070658Y-12199888D02*
X15080182Y-12218936D01*
X15080182Y-12218936D02*
X15089706Y-12228460D01*
X15089706Y-12228460D02*
X15108753Y-12237984D01*
X15108753Y-12237984D02*
X15146848Y-12237984D01*
X15146848Y-12237984D02*
X15165896Y-12228460D01*
X15165896Y-12228460D02*
X15175420Y-12218936D01*
X15175420Y-12218936D02*
X15184944Y-12199888D01*
X15184944Y-12199888D02*
X15184944Y-12152269D01*
X15184944Y-12152269D02*
X15175420Y-12133222D01*
X15175420Y-12133222D02*
X15165896Y-12123698D01*
X15165896Y-12123698D02*
X15146848Y-12114174D01*
X15146848Y-12114174D02*
X15108753Y-12114174D01*
X15108753Y-12114174D02*
X15089706Y-12123698D01*
X15089706Y-12123698D02*
X15080182Y-12133222D01*
X15080182Y-12133222D02*
X15070658Y-12152269D01*
X15261134Y-12037984D02*
X15261134Y-12076079D01*
X15337325Y-12037984D02*
X15337325Y-12076079D01*
X15632563Y-12314174D02*
X15623039Y-12304650D01*
X15623039Y-12304650D02*
X15603991Y-12276079D01*
X15603991Y-12276079D02*
X15594468Y-12257031D01*
X15594468Y-12257031D02*
X15584944Y-12228460D01*
X15584944Y-12228460D02*
X15575420Y-12180841D01*
X15575420Y-12180841D02*
X15575420Y-12142746D01*
X15575420Y-12142746D02*
X15584944Y-12095127D01*
X15584944Y-12095127D02*
X15594468Y-12066555D01*
X15594468Y-12066555D02*
X15603991Y-12047508D01*
X15603991Y-12047508D02*
X15623039Y-12018936D01*
X15623039Y-12018936D02*
X15632563Y-12009412D01*
X15794468Y-12104650D02*
X15794468Y-12237984D01*
X15746848Y-12028460D02*
X15699229Y-12171317D01*
X15699229Y-12171317D02*
X15823039Y-12171317D01*
X16051610Y-12237984D02*
X16051610Y-12037984D01*
X16137325Y-12237984D02*
X16137325Y-12133222D01*
X16137325Y-12133222D02*
X16127801Y-12114174D01*
X16127801Y-12114174D02*
X16108753Y-12104650D01*
X16108753Y-12104650D02*
X16080182Y-12104650D01*
X16080182Y-12104650D02*
X16061134Y-12114174D01*
X16061134Y-12114174D02*
X16051610Y-12123698D01*
X16261134Y-12237984D02*
X16242087Y-12228460D01*
X16242087Y-12228460D02*
X16232563Y-12218936D01*
X16232563Y-12218936D02*
X16223039Y-12199888D01*
X16223039Y-12199888D02*
X16223039Y-12142746D01*
X16223039Y-12142746D02*
X16232563Y-12123698D01*
X16232563Y-12123698D02*
X16242087Y-12114174D01*
X16242087Y-12114174D02*
X16261134Y-12104650D01*
X16261134Y-12104650D02*
X16289706Y-12104650D01*
X16289706Y-12104650D02*
X16308753Y-12114174D01*
X16308753Y-12114174D02*
X16318277Y-12123698D01*
X16318277Y-12123698D02*
X16327801Y-12142746D01*
X16327801Y-12142746D02*
X16327801Y-12199888D01*
X16327801Y-12199888D02*
X16318277Y-12218936D01*
X16318277Y-12218936D02*
X16308753Y-12228460D01*
X16308753Y-12228460D02*
X16289706Y-12237984D01*
X16289706Y-12237984D02*
X16261134Y-12237984D01*
X16442087Y-12237984D02*
X16423039Y-12228460D01*
X16423039Y-12228460D02*
X16413515Y-12209412D01*
X16413515Y-12209412D02*
X16413515Y-12037984D01*
X16594468Y-12228460D02*
X16575420Y-12237984D01*
X16575420Y-12237984D02*
X16537325Y-12237984D01*
X16537325Y-12237984D02*
X16518277Y-12228460D01*
X16518277Y-12228460D02*
X16508753Y-12209412D01*
X16508753Y-12209412D02*
X16508753Y-12133222D01*
X16508753Y-12133222D02*
X16518277Y-12114174D01*
X16518277Y-12114174D02*
X16537325Y-12104650D01*
X16537325Y-12104650D02*
X16575420Y-12104650D01*
X16575420Y-12104650D02*
X16594468Y-12114174D01*
X16594468Y-12114174D02*
X16603991Y-12133222D01*
X16603991Y-12133222D02*
X16603991Y-12152269D01*
X16603991Y-12152269D02*
X16508753Y-12171317D01*
X16680182Y-12228460D02*
X16699230Y-12237984D01*
X16699230Y-12237984D02*
X16737325Y-12237984D01*
X16737325Y-12237984D02*
X16756372Y-12228460D01*
X16756372Y-12228460D02*
X16765896Y-12209412D01*
X16765896Y-12209412D02*
X16765896Y-12199888D01*
X16765896Y-12199888D02*
X16756372Y-12180841D01*
X16756372Y-12180841D02*
X16737325Y-12171317D01*
X16737325Y-12171317D02*
X16708753Y-12171317D01*
X16708753Y-12171317D02*
X16689706Y-12161793D01*
X16689706Y-12161793D02*
X16680182Y-12142746D01*
X16680182Y-12142746D02*
X16680182Y-12133222D01*
X16680182Y-12133222D02*
X16689706Y-12114174D01*
X16689706Y-12114174D02*
X16708753Y-12104650D01*
X16708753Y-12104650D02*
X16737325Y-12104650D01*
X16737325Y-12104650D02*
X16756372Y-12114174D01*
X16832563Y-12314174D02*
X16842087Y-12304650D01*
X16842087Y-12304650D02*
X16861134Y-12276079D01*
X16861134Y-12276079D02*
X16870658Y-12257031D01*
X16870658Y-12257031D02*
X16880182Y-12228460D01*
X16880182Y-12228460D02*
X16889706Y-12180841D01*
X16889706Y-12180841D02*
X16889706Y-12142746D01*
X16889706Y-12142746D02*
X16880182Y-12095127D01*
X16880182Y-12095127D02*
X16870658Y-12066555D01*
X16870658Y-12066555D02*
X16861134Y-12047508D01*
X16861134Y-12047508D02*
X16842087Y-12018936D01*
X16842087Y-12018936D02*
X16832563Y-12009412D01*
D12*
X12022500Y-12375500D02*
X12022500Y-12445500D01*
X11987500Y-12410500D02*
X12057500Y-12410500D01*
D11*
X12356372Y-12301984D02*
X12375420Y-12301984D01*
X12375420Y-12301984D02*
X12394467Y-12311508D01*
X12394467Y-12311508D02*
X12403991Y-12321031D01*
X12403991Y-12321031D02*
X12413515Y-12340079D01*
X12413515Y-12340079D02*
X12423039Y-12378174D01*
X12423039Y-12378174D02*
X12423039Y-12425793D01*
X12423039Y-12425793D02*
X12413515Y-12463888D01*
X12413515Y-12463888D02*
X12403991Y-12482936D01*
X12403991Y-12482936D02*
X12394467Y-12492460D01*
X12394467Y-12492460D02*
X12375420Y-12501984D01*
X12375420Y-12501984D02*
X12356372Y-12501984D01*
X12356372Y-12501984D02*
X12337324Y-12492460D01*
X12337324Y-12492460D02*
X12327801Y-12482936D01*
X12327801Y-12482936D02*
X12318277Y-12463888D01*
X12318277Y-12463888D02*
X12308753Y-12425793D01*
X12308753Y-12425793D02*
X12308753Y-12378174D01*
X12308753Y-12378174D02*
X12318277Y-12340079D01*
X12318277Y-12340079D02*
X12327801Y-12321031D01*
X12327801Y-12321031D02*
X12337324Y-12311508D01*
X12337324Y-12311508D02*
X12356372Y-12301984D01*
X12508753Y-12482936D02*
X12518277Y-12492460D01*
X12518277Y-12492460D02*
X12508753Y-12501984D01*
X12508753Y-12501984D02*
X12499229Y-12492460D01*
X12499229Y-12492460D02*
X12508753Y-12482936D01*
X12508753Y-12482936D02*
X12508753Y-12501984D01*
X12584943Y-12301984D02*
X12718277Y-12301984D01*
X12718277Y-12301984D02*
X12632562Y-12501984D01*
X12832562Y-12301984D02*
X12851610Y-12301984D01*
X12851610Y-12301984D02*
X12870658Y-12311508D01*
X12870658Y-12311508D02*
X12880182Y-12321031D01*
X12880182Y-12321031D02*
X12889705Y-12340079D01*
X12889705Y-12340079D02*
X12899229Y-12378174D01*
X12899229Y-12378174D02*
X12899229Y-12425793D01*
X12899229Y-12425793D02*
X12889705Y-12463888D01*
X12889705Y-12463888D02*
X12880182Y-12482936D01*
X12880182Y-12482936D02*
X12870658Y-12492460D01*
X12870658Y-12492460D02*
X12851610Y-12501984D01*
X12851610Y-12501984D02*
X12832562Y-12501984D01*
X12832562Y-12501984D02*
X12813515Y-12492460D01*
X12813515Y-12492460D02*
X12803991Y-12482936D01*
X12803991Y-12482936D02*
X12794467Y-12463888D01*
X12794467Y-12463888D02*
X12784943Y-12425793D01*
X12784943Y-12425793D02*
X12784943Y-12378174D01*
X12784943Y-12378174D02*
X12794467Y-12340079D01*
X12794467Y-12340079D02*
X12803991Y-12321031D01*
X12803991Y-12321031D02*
X12813515Y-12311508D01*
X12813515Y-12311508D02*
X12832562Y-12301984D01*
X13023039Y-12301984D02*
X13042086Y-12301984D01*
X13042086Y-12301984D02*
X13061134Y-12311508D01*
X13061134Y-12311508D02*
X13070658Y-12321031D01*
X13070658Y-12321031D02*
X13080182Y-12340079D01*
X13080182Y-12340079D02*
X13089705Y-12378174D01*
X13089705Y-12378174D02*
X13089705Y-12425793D01*
X13089705Y-12425793D02*
X13080182Y-12463888D01*
X13080182Y-12463888D02*
X13070658Y-12482936D01*
X13070658Y-12482936D02*
X13061134Y-12492460D01*
X13061134Y-12492460D02*
X13042086Y-12501984D01*
X13042086Y-12501984D02*
X13023039Y-12501984D01*
X13023039Y-12501984D02*
X13003991Y-12492460D01*
X13003991Y-12492460D02*
X12994467Y-12482936D01*
X12994467Y-12482936D02*
X12984943Y-12463888D01*
X12984943Y-12463888D02*
X12975420Y-12425793D01*
X12975420Y-12425793D02*
X12975420Y-12378174D01*
X12975420Y-12378174D02*
X12984943Y-12340079D01*
X12984943Y-12340079D02*
X12994467Y-12321031D01*
X12994467Y-12321031D02*
X13003991Y-12311508D01*
X13003991Y-12311508D02*
X13023039Y-12301984D01*
X13175420Y-12501984D02*
X13175420Y-12368650D01*
X13175420Y-12387698D02*
X13184943Y-12378174D01*
X13184943Y-12378174D02*
X13203991Y-12368650D01*
X13203991Y-12368650D02*
X13232563Y-12368650D01*
X13232563Y-12368650D02*
X13251610Y-12378174D01*
X13251610Y-12378174D02*
X13261134Y-12397222D01*
X13261134Y-12397222D02*
X13261134Y-12501984D01*
X13261134Y-12397222D02*
X13270658Y-12378174D01*
X13270658Y-12378174D02*
X13289705Y-12368650D01*
X13289705Y-12368650D02*
X13318277Y-12368650D01*
X13318277Y-12368650D02*
X13337324Y-12378174D01*
X13337324Y-12378174D02*
X13346848Y-12397222D01*
X13346848Y-12397222D02*
X13346848Y-12501984D01*
X13442086Y-12501984D02*
X13442086Y-12368650D01*
X13442086Y-12387698D02*
X13451610Y-12378174D01*
X13451610Y-12378174D02*
X13470658Y-12368650D01*
X13470658Y-12368650D02*
X13499229Y-12368650D01*
X13499229Y-12368650D02*
X13518277Y-12378174D01*
X13518277Y-12378174D02*
X13527801Y-12397222D01*
X13527801Y-12397222D02*
X13527801Y-12501984D01*
X13527801Y-12397222D02*
X13537324Y-12378174D01*
X13537324Y-12378174D02*
X13556372Y-12368650D01*
X13556372Y-12368650D02*
X13584943Y-12368650D01*
X13584943Y-12368650D02*
X13603991Y-12378174D01*
X13603991Y-12378174D02*
X13613515Y-12397222D01*
X13613515Y-12397222D02*
X13613515Y-12501984D01*
X14003991Y-12292460D02*
X13832563Y-12549603D01*
X14261134Y-12301984D02*
X14280182Y-12301984D01*
X14280182Y-12301984D02*
X14299229Y-12311508D01*
X14299229Y-12311508D02*
X14308753Y-12321031D01*
X14308753Y-12321031D02*
X14318277Y-12340079D01*
X14318277Y-12340079D02*
X14327801Y-12378174D01*
X14327801Y-12378174D02*
X14327801Y-12425793D01*
X14327801Y-12425793D02*
X14318277Y-12463888D01*
X14318277Y-12463888D02*
X14308753Y-12482936D01*
X14308753Y-12482936D02*
X14299229Y-12492460D01*
X14299229Y-12492460D02*
X14280182Y-12501984D01*
X14280182Y-12501984D02*
X14261134Y-12501984D01*
X14261134Y-12501984D02*
X14242086Y-12492460D01*
X14242086Y-12492460D02*
X14232563Y-12482936D01*
X14232563Y-12482936D02*
X14223039Y-12463888D01*
X14223039Y-12463888D02*
X14213515Y-12425793D01*
X14213515Y-12425793D02*
X14213515Y-12378174D01*
X14213515Y-12378174D02*
X14223039Y-12340079D01*
X14223039Y-12340079D02*
X14232563Y-12321031D01*
X14232563Y-12321031D02*
X14242086Y-12311508D01*
X14242086Y-12311508D02*
X14261134Y-12301984D01*
X14413515Y-12482936D02*
X14423039Y-12492460D01*
X14423039Y-12492460D02*
X14413515Y-12501984D01*
X14413515Y-12501984D02*
X14403991Y-12492460D01*
X14403991Y-12492460D02*
X14413515Y-12482936D01*
X14413515Y-12482936D02*
X14413515Y-12501984D01*
X14546848Y-12301984D02*
X14565896Y-12301984D01*
X14565896Y-12301984D02*
X14584944Y-12311508D01*
X14584944Y-12311508D02*
X14594467Y-12321031D01*
X14594467Y-12321031D02*
X14603991Y-12340079D01*
X14603991Y-12340079D02*
X14613515Y-12378174D01*
X14613515Y-12378174D02*
X14613515Y-12425793D01*
X14613515Y-12425793D02*
X14603991Y-12463888D01*
X14603991Y-12463888D02*
X14594467Y-12482936D01*
X14594467Y-12482936D02*
X14584944Y-12492460D01*
X14584944Y-12492460D02*
X14565896Y-12501984D01*
X14565896Y-12501984D02*
X14546848Y-12501984D01*
X14546848Y-12501984D02*
X14527801Y-12492460D01*
X14527801Y-12492460D02*
X14518277Y-12482936D01*
X14518277Y-12482936D02*
X14508753Y-12463888D01*
X14508753Y-12463888D02*
X14499229Y-12425793D01*
X14499229Y-12425793D02*
X14499229Y-12378174D01*
X14499229Y-12378174D02*
X14508753Y-12340079D01*
X14508753Y-12340079D02*
X14518277Y-12321031D01*
X14518277Y-12321031D02*
X14527801Y-12311508D01*
X14527801Y-12311508D02*
X14546848Y-12301984D01*
X14689706Y-12321031D02*
X14699229Y-12311508D01*
X14699229Y-12311508D02*
X14718277Y-12301984D01*
X14718277Y-12301984D02*
X14765896Y-12301984D01*
X14765896Y-12301984D02*
X14784944Y-12311508D01*
X14784944Y-12311508D02*
X14794467Y-12321031D01*
X14794467Y-12321031D02*
X14803991Y-12340079D01*
X14803991Y-12340079D02*
X14803991Y-12359127D01*
X14803991Y-12359127D02*
X14794467Y-12387698D01*
X14794467Y-12387698D02*
X14680182Y-12501984D01*
X14680182Y-12501984D02*
X14803991Y-12501984D01*
X14870658Y-12301984D02*
X15003991Y-12301984D01*
X15003991Y-12301984D02*
X14918277Y-12501984D01*
X15165896Y-12301984D02*
X15127801Y-12301984D01*
X15127801Y-12301984D02*
X15108753Y-12311508D01*
X15108753Y-12311508D02*
X15099229Y-12321031D01*
X15099229Y-12321031D02*
X15080182Y-12349603D01*
X15080182Y-12349603D02*
X15070658Y-12387698D01*
X15070658Y-12387698D02*
X15070658Y-12463888D01*
X15070658Y-12463888D02*
X15080182Y-12482936D01*
X15080182Y-12482936D02*
X15089706Y-12492460D01*
X15089706Y-12492460D02*
X15108753Y-12501984D01*
X15108753Y-12501984D02*
X15146848Y-12501984D01*
X15146848Y-12501984D02*
X15165896Y-12492460D01*
X15165896Y-12492460D02*
X15175420Y-12482936D01*
X15175420Y-12482936D02*
X15184944Y-12463888D01*
X15184944Y-12463888D02*
X15184944Y-12416269D01*
X15184944Y-12416269D02*
X15175420Y-12397222D01*
X15175420Y-12397222D02*
X15165896Y-12387698D01*
X15165896Y-12387698D02*
X15146848Y-12378174D01*
X15146848Y-12378174D02*
X15108753Y-12378174D01*
X15108753Y-12378174D02*
X15089706Y-12387698D01*
X15089706Y-12387698D02*
X15080182Y-12397222D01*
X15080182Y-12397222D02*
X15070658Y-12416269D01*
X15261134Y-12301984D02*
X15261134Y-12340079D01*
X15337325Y-12301984D02*
X15337325Y-12340079D01*
X15632563Y-12578174D02*
X15623039Y-12568650D01*
X15623039Y-12568650D02*
X15603991Y-12540079D01*
X15603991Y-12540079D02*
X15594468Y-12521031D01*
X15594468Y-12521031D02*
X15584944Y-12492460D01*
X15584944Y-12492460D02*
X15575420Y-12444841D01*
X15575420Y-12444841D02*
X15575420Y-12406746D01*
X15575420Y-12406746D02*
X15584944Y-12359127D01*
X15584944Y-12359127D02*
X15594468Y-12330555D01*
X15594468Y-12330555D02*
X15603991Y-12311508D01*
X15603991Y-12311508D02*
X15623039Y-12282936D01*
X15623039Y-12282936D02*
X15632563Y-12273412D01*
X15746848Y-12301984D02*
X15765896Y-12301984D01*
X15765896Y-12301984D02*
X15784944Y-12311508D01*
X15784944Y-12311508D02*
X15794468Y-12321031D01*
X15794468Y-12321031D02*
X15803991Y-12340079D01*
X15803991Y-12340079D02*
X15813515Y-12378174D01*
X15813515Y-12378174D02*
X15813515Y-12425793D01*
X15813515Y-12425793D02*
X15803991Y-12463888D01*
X15803991Y-12463888D02*
X15794468Y-12482936D01*
X15794468Y-12482936D02*
X15784944Y-12492460D01*
X15784944Y-12492460D02*
X15765896Y-12501984D01*
X15765896Y-12501984D02*
X15746848Y-12501984D01*
X15746848Y-12501984D02*
X15727801Y-12492460D01*
X15727801Y-12492460D02*
X15718277Y-12482936D01*
X15718277Y-12482936D02*
X15708753Y-12463888D01*
X15708753Y-12463888D02*
X15699229Y-12425793D01*
X15699229Y-12425793D02*
X15699229Y-12378174D01*
X15699229Y-12378174D02*
X15708753Y-12340079D01*
X15708753Y-12340079D02*
X15718277Y-12321031D01*
X15718277Y-12321031D02*
X15727801Y-12311508D01*
X15727801Y-12311508D02*
X15746848Y-12301984D01*
X16051610Y-12501984D02*
X16051610Y-12301984D01*
X16137325Y-12501984D02*
X16137325Y-12397222D01*
X16137325Y-12397222D02*
X16127801Y-12378174D01*
X16127801Y-12378174D02*
X16108753Y-12368650D01*
X16108753Y-12368650D02*
X16080182Y-12368650D01*
X16080182Y-12368650D02*
X16061134Y-12378174D01*
X16061134Y-12378174D02*
X16051610Y-12387698D01*
X16261134Y-12501984D02*
X16242087Y-12492460D01*
X16242087Y-12492460D02*
X16232563Y-12482936D01*
X16232563Y-12482936D02*
X16223039Y-12463888D01*
X16223039Y-12463888D02*
X16223039Y-12406746D01*
X16223039Y-12406746D02*
X16232563Y-12387698D01*
X16232563Y-12387698D02*
X16242087Y-12378174D01*
X16242087Y-12378174D02*
X16261134Y-12368650D01*
X16261134Y-12368650D02*
X16289706Y-12368650D01*
X16289706Y-12368650D02*
X16308753Y-12378174D01*
X16308753Y-12378174D02*
X16318277Y-12387698D01*
X16318277Y-12387698D02*
X16327801Y-12406746D01*
X16327801Y-12406746D02*
X16327801Y-12463888D01*
X16327801Y-12463888D02*
X16318277Y-12482936D01*
X16318277Y-12482936D02*
X16308753Y-12492460D01*
X16308753Y-12492460D02*
X16289706Y-12501984D01*
X16289706Y-12501984D02*
X16261134Y-12501984D01*
X16442087Y-12501984D02*
X16423039Y-12492460D01*
X16423039Y-12492460D02*
X16413515Y-12473412D01*
X16413515Y-12473412D02*
X16413515Y-12301984D01*
X16594468Y-12492460D02*
X16575420Y-12501984D01*
X16575420Y-12501984D02*
X16537325Y-12501984D01*
X16537325Y-12501984D02*
X16518277Y-12492460D01*
X16518277Y-12492460D02*
X16508753Y-12473412D01*
X16508753Y-12473412D02*
X16508753Y-12397222D01*
X16508753Y-12397222D02*
X16518277Y-12378174D01*
X16518277Y-12378174D02*
X16537325Y-12368650D01*
X16537325Y-12368650D02*
X16575420Y-12368650D01*
X16575420Y-12368650D02*
X16594468Y-12378174D01*
X16594468Y-12378174D02*
X16603991Y-12397222D01*
X16603991Y-12397222D02*
X16603991Y-12416269D01*
X16603991Y-12416269D02*
X16508753Y-12435317D01*
X16680182Y-12492460D02*
X16699230Y-12501984D01*
X16699230Y-12501984D02*
X16737325Y-12501984D01*
X16737325Y-12501984D02*
X16756372Y-12492460D01*
X16756372Y-12492460D02*
X16765896Y-12473412D01*
X16765896Y-12473412D02*
X16765896Y-12463888D01*
X16765896Y-12463888D02*
X16756372Y-12444841D01*
X16756372Y-12444841D02*
X16737325Y-12435317D01*
X16737325Y-12435317D02*
X16708753Y-12435317D01*
X16708753Y-12435317D02*
X16689706Y-12425793D01*
X16689706Y-12425793D02*
X16680182Y-12406746D01*
X16680182Y-12406746D02*
X16680182Y-12397222D01*
X16680182Y-12397222D02*
X16689706Y-12378174D01*
X16689706Y-12378174D02*
X16708753Y-12368650D01*
X16708753Y-12368650D02*
X16737325Y-12368650D01*
X16737325Y-12368650D02*
X16756372Y-12378174D01*
X17003992Y-12425793D02*
X17156373Y-12425793D01*
X17080182Y-12501984D02*
X17080182Y-12349603D01*
X17394468Y-12321031D02*
X17403992Y-12311508D01*
X17403992Y-12311508D02*
X17423039Y-12301984D01*
X17423039Y-12301984D02*
X17470658Y-12301984D01*
X17470658Y-12301984D02*
X17489706Y-12311508D01*
X17489706Y-12311508D02*
X17499230Y-12321031D01*
X17499230Y-12321031D02*
X17508754Y-12340079D01*
X17508754Y-12340079D02*
X17508754Y-12359127D01*
X17508754Y-12359127D02*
X17499230Y-12387698D01*
X17499230Y-12387698D02*
X17384944Y-12501984D01*
X17384944Y-12501984D02*
X17508754Y-12501984D01*
X17737325Y-12492460D02*
X17756373Y-12501984D01*
X17756373Y-12501984D02*
X17794468Y-12501984D01*
X17794468Y-12501984D02*
X17813516Y-12492460D01*
X17813516Y-12492460D02*
X17823039Y-12473412D01*
X17823039Y-12473412D02*
X17823039Y-12463888D01*
X17823039Y-12463888D02*
X17813516Y-12444841D01*
X17813516Y-12444841D02*
X17794468Y-12435317D01*
X17794468Y-12435317D02*
X17765896Y-12435317D01*
X17765896Y-12435317D02*
X17746849Y-12425793D01*
X17746849Y-12425793D02*
X17737325Y-12406746D01*
X17737325Y-12406746D02*
X17737325Y-12397222D01*
X17737325Y-12397222D02*
X17746849Y-12378174D01*
X17746849Y-12378174D02*
X17765896Y-12368650D01*
X17765896Y-12368650D02*
X17794468Y-12368650D01*
X17794468Y-12368650D02*
X17813516Y-12378174D01*
X17937325Y-12501984D02*
X17918277Y-12492460D01*
X17918277Y-12492460D02*
X17908754Y-12473412D01*
X17908754Y-12473412D02*
X17908754Y-12301984D01*
X18042087Y-12501984D02*
X18023039Y-12492460D01*
X18023039Y-12492460D02*
X18013516Y-12482936D01*
X18013516Y-12482936D02*
X18003992Y-12463888D01*
X18003992Y-12463888D02*
X18003992Y-12406746D01*
X18003992Y-12406746D02*
X18013516Y-12387698D01*
X18013516Y-12387698D02*
X18023039Y-12378174D01*
X18023039Y-12378174D02*
X18042087Y-12368650D01*
X18042087Y-12368650D02*
X18070658Y-12368650D01*
X18070658Y-12368650D02*
X18089706Y-12378174D01*
X18089706Y-12378174D02*
X18099230Y-12387698D01*
X18099230Y-12387698D02*
X18108754Y-12406746D01*
X18108754Y-12406746D02*
X18108754Y-12463888D01*
X18108754Y-12463888D02*
X18099230Y-12482936D01*
X18099230Y-12482936D02*
X18089706Y-12492460D01*
X18089706Y-12492460D02*
X18070658Y-12501984D01*
X18070658Y-12501984D02*
X18042087Y-12501984D01*
X18165897Y-12368650D02*
X18242087Y-12368650D01*
X18194468Y-12301984D02*
X18194468Y-12473412D01*
X18194468Y-12473412D02*
X18203992Y-12492460D01*
X18203992Y-12492460D02*
X18223039Y-12501984D01*
X18223039Y-12501984D02*
X18242087Y-12501984D01*
X18299230Y-12492460D02*
X18318277Y-12501984D01*
X18318277Y-12501984D02*
X18356373Y-12501984D01*
X18356373Y-12501984D02*
X18375420Y-12492460D01*
X18375420Y-12492460D02*
X18384944Y-12473412D01*
X18384944Y-12473412D02*
X18384944Y-12463888D01*
X18384944Y-12463888D02*
X18375420Y-12444841D01*
X18375420Y-12444841D02*
X18356373Y-12435317D01*
X18356373Y-12435317D02*
X18327801Y-12435317D01*
X18327801Y-12435317D02*
X18308754Y-12425793D01*
X18308754Y-12425793D02*
X18299230Y-12406746D01*
X18299230Y-12406746D02*
X18299230Y-12397222D01*
X18299230Y-12397222D02*
X18308754Y-12378174D01*
X18308754Y-12378174D02*
X18327801Y-12368650D01*
X18327801Y-12368650D02*
X18356373Y-12368650D01*
X18356373Y-12368650D02*
X18375420Y-12378174D01*
X18451611Y-12578174D02*
X18461135Y-12568650D01*
X18461135Y-12568650D02*
X18480182Y-12540079D01*
X18480182Y-12540079D02*
X18489706Y-12521031D01*
X18489706Y-12521031D02*
X18499230Y-12492460D01*
X18499230Y-12492460D02*
X18508754Y-12444841D01*
X18508754Y-12444841D02*
X18508754Y-12406746D01*
X18508754Y-12406746D02*
X18499230Y-12359127D01*
X18499230Y-12359127D02*
X18489706Y-12330555D01*
X18489706Y-12330555D02*
X18480182Y-12311508D01*
X18480182Y-12311508D02*
X18461135Y-12282936D01*
X18461135Y-12282936D02*
X18451611Y-12273412D01*
D12*
X12046517Y-12701017D02*
X12046517Y-12647983D01*
X11993483Y-12647983D01*
X11993483Y-12701017D01*
X12046517Y-12701017D01*
D11*
X12356372Y-12565984D02*
X12375420Y-12565984D01*
X12375420Y-12565984D02*
X12394467Y-12575508D01*
X12394467Y-12575508D02*
X12403991Y-12585031D01*
X12403991Y-12585031D02*
X12413515Y-12604079D01*
X12413515Y-12604079D02*
X12423039Y-12642174D01*
X12423039Y-12642174D02*
X12423039Y-12689793D01*
X12423039Y-12689793D02*
X12413515Y-12727888D01*
X12413515Y-12727888D02*
X12403991Y-12746936D01*
X12403991Y-12746936D02*
X12394467Y-12756460D01*
X12394467Y-12756460D02*
X12375420Y-12765984D01*
X12375420Y-12765984D02*
X12356372Y-12765984D01*
X12356372Y-12765984D02*
X12337324Y-12756460D01*
X12337324Y-12756460D02*
X12327801Y-12746936D01*
X12327801Y-12746936D02*
X12318277Y-12727888D01*
X12318277Y-12727888D02*
X12308753Y-12689793D01*
X12308753Y-12689793D02*
X12308753Y-12642174D01*
X12308753Y-12642174D02*
X12318277Y-12604079D01*
X12318277Y-12604079D02*
X12327801Y-12585031D01*
X12327801Y-12585031D02*
X12337324Y-12575508D01*
X12337324Y-12575508D02*
X12356372Y-12565984D01*
X12508753Y-12746936D02*
X12518277Y-12756460D01*
X12518277Y-12756460D02*
X12508753Y-12765984D01*
X12508753Y-12765984D02*
X12499229Y-12756460D01*
X12499229Y-12756460D02*
X12508753Y-12746936D01*
X12508753Y-12746936D02*
X12508753Y-12765984D01*
X12584943Y-12565984D02*
X12718277Y-12565984D01*
X12718277Y-12565984D02*
X12632562Y-12765984D01*
X12889705Y-12565984D02*
X12794467Y-12565984D01*
X12794467Y-12565984D02*
X12784943Y-12661222D01*
X12784943Y-12661222D02*
X12794467Y-12651698D01*
X12794467Y-12651698D02*
X12813515Y-12642174D01*
X12813515Y-12642174D02*
X12861134Y-12642174D01*
X12861134Y-12642174D02*
X12880182Y-12651698D01*
X12880182Y-12651698D02*
X12889705Y-12661222D01*
X12889705Y-12661222D02*
X12899229Y-12680269D01*
X12899229Y-12680269D02*
X12899229Y-12727888D01*
X12899229Y-12727888D02*
X12889705Y-12746936D01*
X12889705Y-12746936D02*
X12880182Y-12756460D01*
X12880182Y-12756460D02*
X12861134Y-12765984D01*
X12861134Y-12765984D02*
X12813515Y-12765984D01*
X12813515Y-12765984D02*
X12794467Y-12756460D01*
X12794467Y-12756460D02*
X12784943Y-12746936D01*
X13023039Y-12565984D02*
X13042086Y-12565984D01*
X13042086Y-12565984D02*
X13061134Y-12575508D01*
X13061134Y-12575508D02*
X13070658Y-12585031D01*
X13070658Y-12585031D02*
X13080182Y-12604079D01*
X13080182Y-12604079D02*
X13089705Y-12642174D01*
X13089705Y-12642174D02*
X13089705Y-12689793D01*
X13089705Y-12689793D02*
X13080182Y-12727888D01*
X13080182Y-12727888D02*
X13070658Y-12746936D01*
X13070658Y-12746936D02*
X13061134Y-12756460D01*
X13061134Y-12756460D02*
X13042086Y-12765984D01*
X13042086Y-12765984D02*
X13023039Y-12765984D01*
X13023039Y-12765984D02*
X13003991Y-12756460D01*
X13003991Y-12756460D02*
X12994467Y-12746936D01*
X12994467Y-12746936D02*
X12984943Y-12727888D01*
X12984943Y-12727888D02*
X12975420Y-12689793D01*
X12975420Y-12689793D02*
X12975420Y-12642174D01*
X12975420Y-12642174D02*
X12984943Y-12604079D01*
X12984943Y-12604079D02*
X12994467Y-12585031D01*
X12994467Y-12585031D02*
X13003991Y-12575508D01*
X13003991Y-12575508D02*
X13023039Y-12565984D01*
X13175420Y-12765984D02*
X13175420Y-12632650D01*
X13175420Y-12651698D02*
X13184943Y-12642174D01*
X13184943Y-12642174D02*
X13203991Y-12632650D01*
X13203991Y-12632650D02*
X13232563Y-12632650D01*
X13232563Y-12632650D02*
X13251610Y-12642174D01*
X13251610Y-12642174D02*
X13261134Y-12661222D01*
X13261134Y-12661222D02*
X13261134Y-12765984D01*
X13261134Y-12661222D02*
X13270658Y-12642174D01*
X13270658Y-12642174D02*
X13289705Y-12632650D01*
X13289705Y-12632650D02*
X13318277Y-12632650D01*
X13318277Y-12632650D02*
X13337324Y-12642174D01*
X13337324Y-12642174D02*
X13346848Y-12661222D01*
X13346848Y-12661222D02*
X13346848Y-12765984D01*
X13442086Y-12765984D02*
X13442086Y-12632650D01*
X13442086Y-12651698D02*
X13451610Y-12642174D01*
X13451610Y-12642174D02*
X13470658Y-12632650D01*
X13470658Y-12632650D02*
X13499229Y-12632650D01*
X13499229Y-12632650D02*
X13518277Y-12642174D01*
X13518277Y-12642174D02*
X13527801Y-12661222D01*
X13527801Y-12661222D02*
X13527801Y-12765984D01*
X13527801Y-12661222D02*
X13537324Y-12642174D01*
X13537324Y-12642174D02*
X13556372Y-12632650D01*
X13556372Y-12632650D02*
X13584943Y-12632650D01*
X13584943Y-12632650D02*
X13603991Y-12642174D01*
X13603991Y-12642174D02*
X13613515Y-12661222D01*
X13613515Y-12661222D02*
X13613515Y-12765984D01*
X14003991Y-12556460D02*
X13832563Y-12813603D01*
X14261134Y-12565984D02*
X14280182Y-12565984D01*
X14280182Y-12565984D02*
X14299229Y-12575508D01*
X14299229Y-12575508D02*
X14308753Y-12585031D01*
X14308753Y-12585031D02*
X14318277Y-12604079D01*
X14318277Y-12604079D02*
X14327801Y-12642174D01*
X14327801Y-12642174D02*
X14327801Y-12689793D01*
X14327801Y-12689793D02*
X14318277Y-12727888D01*
X14318277Y-12727888D02*
X14308753Y-12746936D01*
X14308753Y-12746936D02*
X14299229Y-12756460D01*
X14299229Y-12756460D02*
X14280182Y-12765984D01*
X14280182Y-12765984D02*
X14261134Y-12765984D01*
X14261134Y-12765984D02*
X14242086Y-12756460D01*
X14242086Y-12756460D02*
X14232563Y-12746936D01*
X14232563Y-12746936D02*
X14223039Y-12727888D01*
X14223039Y-12727888D02*
X14213515Y-12689793D01*
X14213515Y-12689793D02*
X14213515Y-12642174D01*
X14213515Y-12642174D02*
X14223039Y-12604079D01*
X14223039Y-12604079D02*
X14232563Y-12585031D01*
X14232563Y-12585031D02*
X14242086Y-12575508D01*
X14242086Y-12575508D02*
X14261134Y-12565984D01*
X14413515Y-12746936D02*
X14423039Y-12756460D01*
X14423039Y-12756460D02*
X14413515Y-12765984D01*
X14413515Y-12765984D02*
X14403991Y-12756460D01*
X14403991Y-12756460D02*
X14413515Y-12746936D01*
X14413515Y-12746936D02*
X14413515Y-12765984D01*
X14546848Y-12565984D02*
X14565896Y-12565984D01*
X14565896Y-12565984D02*
X14584944Y-12575508D01*
X14584944Y-12575508D02*
X14594467Y-12585031D01*
X14594467Y-12585031D02*
X14603991Y-12604079D01*
X14603991Y-12604079D02*
X14613515Y-12642174D01*
X14613515Y-12642174D02*
X14613515Y-12689793D01*
X14613515Y-12689793D02*
X14603991Y-12727888D01*
X14603991Y-12727888D02*
X14594467Y-12746936D01*
X14594467Y-12746936D02*
X14584944Y-12756460D01*
X14584944Y-12756460D02*
X14565896Y-12765984D01*
X14565896Y-12765984D02*
X14546848Y-12765984D01*
X14546848Y-12765984D02*
X14527801Y-12756460D01*
X14527801Y-12756460D02*
X14518277Y-12746936D01*
X14518277Y-12746936D02*
X14508753Y-12727888D01*
X14508753Y-12727888D02*
X14499229Y-12689793D01*
X14499229Y-12689793D02*
X14499229Y-12642174D01*
X14499229Y-12642174D02*
X14508753Y-12604079D01*
X14508753Y-12604079D02*
X14518277Y-12585031D01*
X14518277Y-12585031D02*
X14527801Y-12575508D01*
X14527801Y-12575508D02*
X14546848Y-12565984D01*
X14689706Y-12585031D02*
X14699229Y-12575508D01*
X14699229Y-12575508D02*
X14718277Y-12565984D01*
X14718277Y-12565984D02*
X14765896Y-12565984D01*
X14765896Y-12565984D02*
X14784944Y-12575508D01*
X14784944Y-12575508D02*
X14794467Y-12585031D01*
X14794467Y-12585031D02*
X14803991Y-12604079D01*
X14803991Y-12604079D02*
X14803991Y-12623127D01*
X14803991Y-12623127D02*
X14794467Y-12651698D01*
X14794467Y-12651698D02*
X14680182Y-12765984D01*
X14680182Y-12765984D02*
X14803991Y-12765984D01*
X14899229Y-12765984D02*
X14937325Y-12765984D01*
X14937325Y-12765984D02*
X14956372Y-12756460D01*
X14956372Y-12756460D02*
X14965896Y-12746936D01*
X14965896Y-12746936D02*
X14984944Y-12718365D01*
X14984944Y-12718365D02*
X14994467Y-12680269D01*
X14994467Y-12680269D02*
X14994467Y-12604079D01*
X14994467Y-12604079D02*
X14984944Y-12585031D01*
X14984944Y-12585031D02*
X14975420Y-12575508D01*
X14975420Y-12575508D02*
X14956372Y-12565984D01*
X14956372Y-12565984D02*
X14918277Y-12565984D01*
X14918277Y-12565984D02*
X14899229Y-12575508D01*
X14899229Y-12575508D02*
X14889706Y-12585031D01*
X14889706Y-12585031D02*
X14880182Y-12604079D01*
X14880182Y-12604079D02*
X14880182Y-12651698D01*
X14880182Y-12651698D02*
X14889706Y-12670746D01*
X14889706Y-12670746D02*
X14899229Y-12680269D01*
X14899229Y-12680269D02*
X14918277Y-12689793D01*
X14918277Y-12689793D02*
X14956372Y-12689793D01*
X14956372Y-12689793D02*
X14975420Y-12680269D01*
X14975420Y-12680269D02*
X14984944Y-12670746D01*
X14984944Y-12670746D02*
X14994467Y-12651698D01*
X15175420Y-12565984D02*
X15080182Y-12565984D01*
X15080182Y-12565984D02*
X15070658Y-12661222D01*
X15070658Y-12661222D02*
X15080182Y-12651698D01*
X15080182Y-12651698D02*
X15099229Y-12642174D01*
X15099229Y-12642174D02*
X15146848Y-12642174D01*
X15146848Y-12642174D02*
X15165896Y-12651698D01*
X15165896Y-12651698D02*
X15175420Y-12661222D01*
X15175420Y-12661222D02*
X15184944Y-12680269D01*
X15184944Y-12680269D02*
X15184944Y-12727888D01*
X15184944Y-12727888D02*
X15175420Y-12746936D01*
X15175420Y-12746936D02*
X15165896Y-12756460D01*
X15165896Y-12756460D02*
X15146848Y-12765984D01*
X15146848Y-12765984D02*
X15099229Y-12765984D01*
X15099229Y-12765984D02*
X15080182Y-12756460D01*
X15080182Y-12756460D02*
X15070658Y-12746936D01*
X15261134Y-12565984D02*
X15261134Y-12604079D01*
X15337325Y-12565984D02*
X15337325Y-12604079D01*
X15632563Y-12842174D02*
X15623039Y-12832650D01*
X15623039Y-12832650D02*
X15603991Y-12804079D01*
X15603991Y-12804079D02*
X15594468Y-12785031D01*
X15594468Y-12785031D02*
X15584944Y-12756460D01*
X15584944Y-12756460D02*
X15575420Y-12708841D01*
X15575420Y-12708841D02*
X15575420Y-12670746D01*
X15575420Y-12670746D02*
X15584944Y-12623127D01*
X15584944Y-12623127D02*
X15594468Y-12594555D01*
X15594468Y-12594555D02*
X15603991Y-12575508D01*
X15603991Y-12575508D02*
X15623039Y-12546936D01*
X15623039Y-12546936D02*
X15632563Y-12537412D01*
X15794468Y-12632650D02*
X15794468Y-12765984D01*
X15746848Y-12556460D02*
X15699229Y-12699317D01*
X15699229Y-12699317D02*
X15823039Y-12699317D01*
X16051610Y-12765984D02*
X16051610Y-12565984D01*
X16137325Y-12765984D02*
X16137325Y-12661222D01*
X16137325Y-12661222D02*
X16127801Y-12642174D01*
X16127801Y-12642174D02*
X16108753Y-12632650D01*
X16108753Y-12632650D02*
X16080182Y-12632650D01*
X16080182Y-12632650D02*
X16061134Y-12642174D01*
X16061134Y-12642174D02*
X16051610Y-12651698D01*
X16261134Y-12765984D02*
X16242087Y-12756460D01*
X16242087Y-12756460D02*
X16232563Y-12746936D01*
X16232563Y-12746936D02*
X16223039Y-12727888D01*
X16223039Y-12727888D02*
X16223039Y-12670746D01*
X16223039Y-12670746D02*
X16232563Y-12651698D01*
X16232563Y-12651698D02*
X16242087Y-12642174D01*
X16242087Y-12642174D02*
X16261134Y-12632650D01*
X16261134Y-12632650D02*
X16289706Y-12632650D01*
X16289706Y-12632650D02*
X16308753Y-12642174D01*
X16308753Y-12642174D02*
X16318277Y-12651698D01*
X16318277Y-12651698D02*
X16327801Y-12670746D01*
X16327801Y-12670746D02*
X16327801Y-12727888D01*
X16327801Y-12727888D02*
X16318277Y-12746936D01*
X16318277Y-12746936D02*
X16308753Y-12756460D01*
X16308753Y-12756460D02*
X16289706Y-12765984D01*
X16289706Y-12765984D02*
X16261134Y-12765984D01*
X16442087Y-12765984D02*
X16423039Y-12756460D01*
X16423039Y-12756460D02*
X16413515Y-12737412D01*
X16413515Y-12737412D02*
X16413515Y-12565984D01*
X16594468Y-12756460D02*
X16575420Y-12765984D01*
X16575420Y-12765984D02*
X16537325Y-12765984D01*
X16537325Y-12765984D02*
X16518277Y-12756460D01*
X16518277Y-12756460D02*
X16508753Y-12737412D01*
X16508753Y-12737412D02*
X16508753Y-12661222D01*
X16508753Y-12661222D02*
X16518277Y-12642174D01*
X16518277Y-12642174D02*
X16537325Y-12632650D01*
X16537325Y-12632650D02*
X16575420Y-12632650D01*
X16575420Y-12632650D02*
X16594468Y-12642174D01*
X16594468Y-12642174D02*
X16603991Y-12661222D01*
X16603991Y-12661222D02*
X16603991Y-12680269D01*
X16603991Y-12680269D02*
X16508753Y-12699317D01*
X16680182Y-12756460D02*
X16699230Y-12765984D01*
X16699230Y-12765984D02*
X16737325Y-12765984D01*
X16737325Y-12765984D02*
X16756372Y-12756460D01*
X16756372Y-12756460D02*
X16765896Y-12737412D01*
X16765896Y-12737412D02*
X16765896Y-12727888D01*
X16765896Y-12727888D02*
X16756372Y-12708841D01*
X16756372Y-12708841D02*
X16737325Y-12699317D01*
X16737325Y-12699317D02*
X16708753Y-12699317D01*
X16708753Y-12699317D02*
X16689706Y-12689793D01*
X16689706Y-12689793D02*
X16680182Y-12670746D01*
X16680182Y-12670746D02*
X16680182Y-12661222D01*
X16680182Y-12661222D02*
X16689706Y-12642174D01*
X16689706Y-12642174D02*
X16708753Y-12632650D01*
X16708753Y-12632650D02*
X16737325Y-12632650D01*
X16737325Y-12632650D02*
X16756372Y-12642174D01*
X16832563Y-12842174D02*
X16842087Y-12832650D01*
X16842087Y-12832650D02*
X16861134Y-12804079D01*
X16861134Y-12804079D02*
X16870658Y-12785031D01*
X16870658Y-12785031D02*
X16880182Y-12756460D01*
X16880182Y-12756460D02*
X16889706Y-12708841D01*
X16889706Y-12708841D02*
X16889706Y-12670746D01*
X16889706Y-12670746D02*
X16880182Y-12623127D01*
X16880182Y-12623127D02*
X16870658Y-12594555D01*
X16870658Y-12594555D02*
X16861134Y-12575508D01*
X16861134Y-12575508D02*
X16842087Y-12546936D01*
X16842087Y-12546936D02*
X16832563Y-12537412D01*
D13*
X11997500Y-12998500D02*
X12057500Y-12938500D01*
X11997500Y-12878500D01*
X11937500Y-12938500D01*
X11997500Y-12998500D01*
D11*
X12423039Y-13029984D02*
X12308753Y-13029984D01*
X12365896Y-13029984D02*
X12365896Y-12829984D01*
X12365896Y-12829984D02*
X12346848Y-12858555D01*
X12346848Y-12858555D02*
X12327801Y-12877603D01*
X12327801Y-12877603D02*
X12308753Y-12887127D01*
X12508753Y-13010936D02*
X12518277Y-13020460D01*
X12518277Y-13020460D02*
X12508753Y-13029984D01*
X12508753Y-13029984D02*
X12499229Y-13020460D01*
X12499229Y-13020460D02*
X12508753Y-13010936D01*
X12508753Y-13010936D02*
X12508753Y-13029984D01*
X12594467Y-12849031D02*
X12603991Y-12839508D01*
X12603991Y-12839508D02*
X12623039Y-12829984D01*
X12623039Y-12829984D02*
X12670658Y-12829984D01*
X12670658Y-12829984D02*
X12689705Y-12839508D01*
X12689705Y-12839508D02*
X12699229Y-12849031D01*
X12699229Y-12849031D02*
X12708753Y-12868079D01*
X12708753Y-12868079D02*
X12708753Y-12887127D01*
X12708753Y-12887127D02*
X12699229Y-12915698D01*
X12699229Y-12915698D02*
X12584943Y-13029984D01*
X12584943Y-13029984D02*
X12708753Y-13029984D01*
X12832562Y-12829984D02*
X12851610Y-12829984D01*
X12851610Y-12829984D02*
X12870658Y-12839508D01*
X12870658Y-12839508D02*
X12880182Y-12849031D01*
X12880182Y-12849031D02*
X12889705Y-12868079D01*
X12889705Y-12868079D02*
X12899229Y-12906174D01*
X12899229Y-12906174D02*
X12899229Y-12953793D01*
X12899229Y-12953793D02*
X12889705Y-12991888D01*
X12889705Y-12991888D02*
X12880182Y-13010936D01*
X12880182Y-13010936D02*
X12870658Y-13020460D01*
X12870658Y-13020460D02*
X12851610Y-13029984D01*
X12851610Y-13029984D02*
X12832562Y-13029984D01*
X12832562Y-13029984D02*
X12813515Y-13020460D01*
X12813515Y-13020460D02*
X12803991Y-13010936D01*
X12803991Y-13010936D02*
X12794467Y-12991888D01*
X12794467Y-12991888D02*
X12784943Y-12953793D01*
X12784943Y-12953793D02*
X12784943Y-12906174D01*
X12784943Y-12906174D02*
X12794467Y-12868079D01*
X12794467Y-12868079D02*
X12803991Y-12849031D01*
X12803991Y-12849031D02*
X12813515Y-12839508D01*
X12813515Y-12839508D02*
X12832562Y-12829984D01*
X13023039Y-12829984D02*
X13042086Y-12829984D01*
X13042086Y-12829984D02*
X13061134Y-12839508D01*
X13061134Y-12839508D02*
X13070658Y-12849031D01*
X13070658Y-12849031D02*
X13080182Y-12868079D01*
X13080182Y-12868079D02*
X13089705Y-12906174D01*
X13089705Y-12906174D02*
X13089705Y-12953793D01*
X13089705Y-12953793D02*
X13080182Y-12991888D01*
X13080182Y-12991888D02*
X13070658Y-13010936D01*
X13070658Y-13010936D02*
X13061134Y-13020460D01*
X13061134Y-13020460D02*
X13042086Y-13029984D01*
X13042086Y-13029984D02*
X13023039Y-13029984D01*
X13023039Y-13029984D02*
X13003991Y-13020460D01*
X13003991Y-13020460D02*
X12994467Y-13010936D01*
X12994467Y-13010936D02*
X12984943Y-12991888D01*
X12984943Y-12991888D02*
X12975420Y-12953793D01*
X12975420Y-12953793D02*
X12975420Y-12906174D01*
X12975420Y-12906174D02*
X12984943Y-12868079D01*
X12984943Y-12868079D02*
X12994467Y-12849031D01*
X12994467Y-12849031D02*
X13003991Y-12839508D01*
X13003991Y-12839508D02*
X13023039Y-12829984D01*
X13175420Y-13029984D02*
X13175420Y-12896650D01*
X13175420Y-12915698D02*
X13184943Y-12906174D01*
X13184943Y-12906174D02*
X13203991Y-12896650D01*
X13203991Y-12896650D02*
X13232563Y-12896650D01*
X13232563Y-12896650D02*
X13251610Y-12906174D01*
X13251610Y-12906174D02*
X13261134Y-12925222D01*
X13261134Y-12925222D02*
X13261134Y-13029984D01*
X13261134Y-12925222D02*
X13270658Y-12906174D01*
X13270658Y-12906174D02*
X13289705Y-12896650D01*
X13289705Y-12896650D02*
X13318277Y-12896650D01*
X13318277Y-12896650D02*
X13337324Y-12906174D01*
X13337324Y-12906174D02*
X13346848Y-12925222D01*
X13346848Y-12925222D02*
X13346848Y-13029984D01*
X13442086Y-13029984D02*
X13442086Y-12896650D01*
X13442086Y-12915698D02*
X13451610Y-12906174D01*
X13451610Y-12906174D02*
X13470658Y-12896650D01*
X13470658Y-12896650D02*
X13499229Y-12896650D01*
X13499229Y-12896650D02*
X13518277Y-12906174D01*
X13518277Y-12906174D02*
X13527801Y-12925222D01*
X13527801Y-12925222D02*
X13527801Y-13029984D01*
X13527801Y-12925222D02*
X13537324Y-12906174D01*
X13537324Y-12906174D02*
X13556372Y-12896650D01*
X13556372Y-12896650D02*
X13584943Y-12896650D01*
X13584943Y-12896650D02*
X13603991Y-12906174D01*
X13603991Y-12906174D02*
X13613515Y-12925222D01*
X13613515Y-12925222D02*
X13613515Y-13029984D01*
X14003991Y-12820460D02*
X13832563Y-13077603D01*
X14261134Y-12829984D02*
X14280182Y-12829984D01*
X14280182Y-12829984D02*
X14299229Y-12839508D01*
X14299229Y-12839508D02*
X14308753Y-12849031D01*
X14308753Y-12849031D02*
X14318277Y-12868079D01*
X14318277Y-12868079D02*
X14327801Y-12906174D01*
X14327801Y-12906174D02*
X14327801Y-12953793D01*
X14327801Y-12953793D02*
X14318277Y-12991888D01*
X14318277Y-12991888D02*
X14308753Y-13010936D01*
X14308753Y-13010936D02*
X14299229Y-13020460D01*
X14299229Y-13020460D02*
X14280182Y-13029984D01*
X14280182Y-13029984D02*
X14261134Y-13029984D01*
X14261134Y-13029984D02*
X14242086Y-13020460D01*
X14242086Y-13020460D02*
X14232563Y-13010936D01*
X14232563Y-13010936D02*
X14223039Y-12991888D01*
X14223039Y-12991888D02*
X14213515Y-12953793D01*
X14213515Y-12953793D02*
X14213515Y-12906174D01*
X14213515Y-12906174D02*
X14223039Y-12868079D01*
X14223039Y-12868079D02*
X14232563Y-12849031D01*
X14232563Y-12849031D02*
X14242086Y-12839508D01*
X14242086Y-12839508D02*
X14261134Y-12829984D01*
X14413515Y-13010936D02*
X14423039Y-13020460D01*
X14423039Y-13020460D02*
X14413515Y-13029984D01*
X14413515Y-13029984D02*
X14403991Y-13020460D01*
X14403991Y-13020460D02*
X14413515Y-13010936D01*
X14413515Y-13010936D02*
X14413515Y-13029984D01*
X14546848Y-12829984D02*
X14565896Y-12829984D01*
X14565896Y-12829984D02*
X14584944Y-12839508D01*
X14584944Y-12839508D02*
X14594467Y-12849031D01*
X14594467Y-12849031D02*
X14603991Y-12868079D01*
X14603991Y-12868079D02*
X14613515Y-12906174D01*
X14613515Y-12906174D02*
X14613515Y-12953793D01*
X14613515Y-12953793D02*
X14603991Y-12991888D01*
X14603991Y-12991888D02*
X14594467Y-13010936D01*
X14594467Y-13010936D02*
X14584944Y-13020460D01*
X14584944Y-13020460D02*
X14565896Y-13029984D01*
X14565896Y-13029984D02*
X14546848Y-13029984D01*
X14546848Y-13029984D02*
X14527801Y-13020460D01*
X14527801Y-13020460D02*
X14518277Y-13010936D01*
X14518277Y-13010936D02*
X14508753Y-12991888D01*
X14508753Y-12991888D02*
X14499229Y-12953793D01*
X14499229Y-12953793D02*
X14499229Y-12906174D01*
X14499229Y-12906174D02*
X14508753Y-12868079D01*
X14508753Y-12868079D02*
X14518277Y-12849031D01*
X14518277Y-12849031D02*
X14527801Y-12839508D01*
X14527801Y-12839508D02*
X14546848Y-12829984D01*
X14784944Y-12896650D02*
X14784944Y-13029984D01*
X14737325Y-12820460D02*
X14689706Y-12963317D01*
X14689706Y-12963317D02*
X14813515Y-12963317D01*
X14870658Y-12829984D02*
X15003991Y-12829984D01*
X15003991Y-12829984D02*
X14918277Y-13029984D01*
X15070658Y-12849031D02*
X15080182Y-12839508D01*
X15080182Y-12839508D02*
X15099229Y-12829984D01*
X15099229Y-12829984D02*
X15146848Y-12829984D01*
X15146848Y-12829984D02*
X15165896Y-12839508D01*
X15165896Y-12839508D02*
X15175420Y-12849031D01*
X15175420Y-12849031D02*
X15184944Y-12868079D01*
X15184944Y-12868079D02*
X15184944Y-12887127D01*
X15184944Y-12887127D02*
X15175420Y-12915698D01*
X15175420Y-12915698D02*
X15061134Y-13029984D01*
X15061134Y-13029984D02*
X15184944Y-13029984D01*
X15261134Y-12829984D02*
X15261134Y-12868079D01*
X15337325Y-12829984D02*
X15337325Y-12868079D01*
X15632563Y-13106174D02*
X15623039Y-13096650D01*
X15623039Y-13096650D02*
X15603991Y-13068079D01*
X15603991Y-13068079D02*
X15594468Y-13049031D01*
X15594468Y-13049031D02*
X15584944Y-13020460D01*
X15584944Y-13020460D02*
X15575420Y-12972841D01*
X15575420Y-12972841D02*
X15575420Y-12934746D01*
X15575420Y-12934746D02*
X15584944Y-12887127D01*
X15584944Y-12887127D02*
X15594468Y-12858555D01*
X15594468Y-12858555D02*
X15603991Y-12839508D01*
X15603991Y-12839508D02*
X15623039Y-12810936D01*
X15623039Y-12810936D02*
X15632563Y-12801412D01*
X15689706Y-12829984D02*
X15823039Y-12829984D01*
X15823039Y-12829984D02*
X15737325Y-13029984D01*
X16051610Y-13029984D02*
X16051610Y-12829984D01*
X16137325Y-13029984D02*
X16137325Y-12925222D01*
X16137325Y-12925222D02*
X16127801Y-12906174D01*
X16127801Y-12906174D02*
X16108753Y-12896650D01*
X16108753Y-12896650D02*
X16080182Y-12896650D01*
X16080182Y-12896650D02*
X16061134Y-12906174D01*
X16061134Y-12906174D02*
X16051610Y-12915698D01*
X16261134Y-13029984D02*
X16242087Y-13020460D01*
X16242087Y-13020460D02*
X16232563Y-13010936D01*
X16232563Y-13010936D02*
X16223039Y-12991888D01*
X16223039Y-12991888D02*
X16223039Y-12934746D01*
X16223039Y-12934746D02*
X16232563Y-12915698D01*
X16232563Y-12915698D02*
X16242087Y-12906174D01*
X16242087Y-12906174D02*
X16261134Y-12896650D01*
X16261134Y-12896650D02*
X16289706Y-12896650D01*
X16289706Y-12896650D02*
X16308753Y-12906174D01*
X16308753Y-12906174D02*
X16318277Y-12915698D01*
X16318277Y-12915698D02*
X16327801Y-12934746D01*
X16327801Y-12934746D02*
X16327801Y-12991888D01*
X16327801Y-12991888D02*
X16318277Y-13010936D01*
X16318277Y-13010936D02*
X16308753Y-13020460D01*
X16308753Y-13020460D02*
X16289706Y-13029984D01*
X16289706Y-13029984D02*
X16261134Y-13029984D01*
X16442087Y-13029984D02*
X16423039Y-13020460D01*
X16423039Y-13020460D02*
X16413515Y-13001412D01*
X16413515Y-13001412D02*
X16413515Y-12829984D01*
X16594468Y-13020460D02*
X16575420Y-13029984D01*
X16575420Y-13029984D02*
X16537325Y-13029984D01*
X16537325Y-13029984D02*
X16518277Y-13020460D01*
X16518277Y-13020460D02*
X16508753Y-13001412D01*
X16508753Y-13001412D02*
X16508753Y-12925222D01*
X16508753Y-12925222D02*
X16518277Y-12906174D01*
X16518277Y-12906174D02*
X16537325Y-12896650D01*
X16537325Y-12896650D02*
X16575420Y-12896650D01*
X16575420Y-12896650D02*
X16594468Y-12906174D01*
X16594468Y-12906174D02*
X16603991Y-12925222D01*
X16603991Y-12925222D02*
X16603991Y-12944269D01*
X16603991Y-12944269D02*
X16508753Y-12963317D01*
X16680182Y-13020460D02*
X16699230Y-13029984D01*
X16699230Y-13029984D02*
X16737325Y-13029984D01*
X16737325Y-13029984D02*
X16756372Y-13020460D01*
X16756372Y-13020460D02*
X16765896Y-13001412D01*
X16765896Y-13001412D02*
X16765896Y-12991888D01*
X16765896Y-12991888D02*
X16756372Y-12972841D01*
X16756372Y-12972841D02*
X16737325Y-12963317D01*
X16737325Y-12963317D02*
X16708753Y-12963317D01*
X16708753Y-12963317D02*
X16689706Y-12953793D01*
X16689706Y-12953793D02*
X16680182Y-12934746D01*
X16680182Y-12934746D02*
X16680182Y-12925222D01*
X16680182Y-12925222D02*
X16689706Y-12906174D01*
X16689706Y-12906174D02*
X16708753Y-12896650D01*
X16708753Y-12896650D02*
X16737325Y-12896650D01*
X16737325Y-12896650D02*
X16756372Y-12906174D01*
X16832563Y-13106174D02*
X16842087Y-13096650D01*
X16842087Y-13096650D02*
X16861134Y-13068079D01*
X16861134Y-13068079D02*
X16870658Y-13049031D01*
X16870658Y-13049031D02*
X16880182Y-13020460D01*
X16880182Y-13020460D02*
X16889706Y-12972841D01*
X16889706Y-12972841D02*
X16889706Y-12934746D01*
X16889706Y-12934746D02*
X16880182Y-12887127D01*
X16880182Y-12887127D02*
X16870658Y-12858555D01*
X16870658Y-12858555D02*
X16861134Y-12839508D01*
X16861134Y-12839508D02*
X16842087Y-12810936D01*
X16842087Y-12810936D02*
X16832563Y-12801412D01*
X11857500Y-13102500D02*
X12057500Y-13302500D01*
X12057500Y-13102500D02*
X11857500Y-13302500D01*
X12057500Y-13202500D02*
G75*
G02*
X11857500Y-13202500I-100000J0D01*
G01*
X11857500Y-13202500D02*
G75*
G02*
X12057500Y-13202500I100000J0D01*
G01*
X12308753Y-13113031D02*
X12318277Y-13103508D01*
X12318277Y-13103508D02*
X12337324Y-13093984D01*
X12337324Y-13093984D02*
X12384943Y-13093984D01*
X12384943Y-13093984D02*
X12403991Y-13103508D01*
X12403991Y-13103508D02*
X12413515Y-13113031D01*
X12413515Y-13113031D02*
X12423039Y-13132079D01*
X12423039Y-13132079D02*
X12423039Y-13151127D01*
X12423039Y-13151127D02*
X12413515Y-13179698D01*
X12413515Y-13179698D02*
X12299229Y-13293984D01*
X12299229Y-13293984D02*
X12423039Y-13293984D01*
X12508753Y-13274936D02*
X12518277Y-13284460D01*
X12518277Y-13284460D02*
X12508753Y-13293984D01*
X12508753Y-13293984D02*
X12499229Y-13284460D01*
X12499229Y-13284460D02*
X12508753Y-13274936D01*
X12508753Y-13274936D02*
X12508753Y-13293984D01*
X12699229Y-13093984D02*
X12603991Y-13093984D01*
X12603991Y-13093984D02*
X12594467Y-13189222D01*
X12594467Y-13189222D02*
X12603991Y-13179698D01*
X12603991Y-13179698D02*
X12623039Y-13170174D01*
X12623039Y-13170174D02*
X12670658Y-13170174D01*
X12670658Y-13170174D02*
X12689705Y-13179698D01*
X12689705Y-13179698D02*
X12699229Y-13189222D01*
X12699229Y-13189222D02*
X12708753Y-13208269D01*
X12708753Y-13208269D02*
X12708753Y-13255888D01*
X12708753Y-13255888D02*
X12699229Y-13274936D01*
X12699229Y-13274936D02*
X12689705Y-13284460D01*
X12689705Y-13284460D02*
X12670658Y-13293984D01*
X12670658Y-13293984D02*
X12623039Y-13293984D01*
X12623039Y-13293984D02*
X12603991Y-13284460D01*
X12603991Y-13284460D02*
X12594467Y-13274936D01*
X12832562Y-13093984D02*
X12851610Y-13093984D01*
X12851610Y-13093984D02*
X12870658Y-13103508D01*
X12870658Y-13103508D02*
X12880182Y-13113031D01*
X12880182Y-13113031D02*
X12889705Y-13132079D01*
X12889705Y-13132079D02*
X12899229Y-13170174D01*
X12899229Y-13170174D02*
X12899229Y-13217793D01*
X12899229Y-13217793D02*
X12889705Y-13255888D01*
X12889705Y-13255888D02*
X12880182Y-13274936D01*
X12880182Y-13274936D02*
X12870658Y-13284460D01*
X12870658Y-13284460D02*
X12851610Y-13293984D01*
X12851610Y-13293984D02*
X12832562Y-13293984D01*
X12832562Y-13293984D02*
X12813515Y-13284460D01*
X12813515Y-13284460D02*
X12803991Y-13274936D01*
X12803991Y-13274936D02*
X12794467Y-13255888D01*
X12794467Y-13255888D02*
X12784943Y-13217793D01*
X12784943Y-13217793D02*
X12784943Y-13170174D01*
X12784943Y-13170174D02*
X12794467Y-13132079D01*
X12794467Y-13132079D02*
X12803991Y-13113031D01*
X12803991Y-13113031D02*
X12813515Y-13103508D01*
X12813515Y-13103508D02*
X12832562Y-13093984D01*
X13023039Y-13093984D02*
X13042086Y-13093984D01*
X13042086Y-13093984D02*
X13061134Y-13103508D01*
X13061134Y-13103508D02*
X13070658Y-13113031D01*
X13070658Y-13113031D02*
X13080182Y-13132079D01*
X13080182Y-13132079D02*
X13089705Y-13170174D01*
X13089705Y-13170174D02*
X13089705Y-13217793D01*
X13089705Y-13217793D02*
X13080182Y-13255888D01*
X13080182Y-13255888D02*
X13070658Y-13274936D01*
X13070658Y-13274936D02*
X13061134Y-13284460D01*
X13061134Y-13284460D02*
X13042086Y-13293984D01*
X13042086Y-13293984D02*
X13023039Y-13293984D01*
X13023039Y-13293984D02*
X13003991Y-13284460D01*
X13003991Y-13284460D02*
X12994467Y-13274936D01*
X12994467Y-13274936D02*
X12984943Y-13255888D01*
X12984943Y-13255888D02*
X12975420Y-13217793D01*
X12975420Y-13217793D02*
X12975420Y-13170174D01*
X12975420Y-13170174D02*
X12984943Y-13132079D01*
X12984943Y-13132079D02*
X12994467Y-13113031D01*
X12994467Y-13113031D02*
X13003991Y-13103508D01*
X13003991Y-13103508D02*
X13023039Y-13093984D01*
X13175420Y-13293984D02*
X13175420Y-13160650D01*
X13175420Y-13179698D02*
X13184943Y-13170174D01*
X13184943Y-13170174D02*
X13203991Y-13160650D01*
X13203991Y-13160650D02*
X13232563Y-13160650D01*
X13232563Y-13160650D02*
X13251610Y-13170174D01*
X13251610Y-13170174D02*
X13261134Y-13189222D01*
X13261134Y-13189222D02*
X13261134Y-13293984D01*
X13261134Y-13189222D02*
X13270658Y-13170174D01*
X13270658Y-13170174D02*
X13289705Y-13160650D01*
X13289705Y-13160650D02*
X13318277Y-13160650D01*
X13318277Y-13160650D02*
X13337324Y-13170174D01*
X13337324Y-13170174D02*
X13346848Y-13189222D01*
X13346848Y-13189222D02*
X13346848Y-13293984D01*
X13442086Y-13293984D02*
X13442086Y-13160650D01*
X13442086Y-13179698D02*
X13451610Y-13170174D01*
X13451610Y-13170174D02*
X13470658Y-13160650D01*
X13470658Y-13160650D02*
X13499229Y-13160650D01*
X13499229Y-13160650D02*
X13518277Y-13170174D01*
X13518277Y-13170174D02*
X13527801Y-13189222D01*
X13527801Y-13189222D02*
X13527801Y-13293984D01*
X13527801Y-13189222D02*
X13537324Y-13170174D01*
X13537324Y-13170174D02*
X13556372Y-13160650D01*
X13556372Y-13160650D02*
X13584943Y-13160650D01*
X13584943Y-13160650D02*
X13603991Y-13170174D01*
X13603991Y-13170174D02*
X13613515Y-13189222D01*
X13613515Y-13189222D02*
X13613515Y-13293984D01*
X14003991Y-13084460D02*
X13832563Y-13341603D01*
X14261134Y-13093984D02*
X14280182Y-13093984D01*
X14280182Y-13093984D02*
X14299229Y-13103508D01*
X14299229Y-13103508D02*
X14308753Y-13113031D01*
X14308753Y-13113031D02*
X14318277Y-13132079D01*
X14318277Y-13132079D02*
X14327801Y-13170174D01*
X14327801Y-13170174D02*
X14327801Y-13217793D01*
X14327801Y-13217793D02*
X14318277Y-13255888D01*
X14318277Y-13255888D02*
X14308753Y-13274936D01*
X14308753Y-13274936D02*
X14299229Y-13284460D01*
X14299229Y-13284460D02*
X14280182Y-13293984D01*
X14280182Y-13293984D02*
X14261134Y-13293984D01*
X14261134Y-13293984D02*
X14242086Y-13284460D01*
X14242086Y-13284460D02*
X14232563Y-13274936D01*
X14232563Y-13274936D02*
X14223039Y-13255888D01*
X14223039Y-13255888D02*
X14213515Y-13217793D01*
X14213515Y-13217793D02*
X14213515Y-13170174D01*
X14213515Y-13170174D02*
X14223039Y-13132079D01*
X14223039Y-13132079D02*
X14232563Y-13113031D01*
X14232563Y-13113031D02*
X14242086Y-13103508D01*
X14242086Y-13103508D02*
X14261134Y-13093984D01*
X14413515Y-13274936D02*
X14423039Y-13284460D01*
X14423039Y-13284460D02*
X14413515Y-13293984D01*
X14413515Y-13293984D02*
X14403991Y-13284460D01*
X14403991Y-13284460D02*
X14413515Y-13274936D01*
X14413515Y-13274936D02*
X14413515Y-13293984D01*
X14546848Y-13093984D02*
X14565896Y-13093984D01*
X14565896Y-13093984D02*
X14584944Y-13103508D01*
X14584944Y-13103508D02*
X14594467Y-13113031D01*
X14594467Y-13113031D02*
X14603991Y-13132079D01*
X14603991Y-13132079D02*
X14613515Y-13170174D01*
X14613515Y-13170174D02*
X14613515Y-13217793D01*
X14613515Y-13217793D02*
X14603991Y-13255888D01*
X14603991Y-13255888D02*
X14594467Y-13274936D01*
X14594467Y-13274936D02*
X14584944Y-13284460D01*
X14584944Y-13284460D02*
X14565896Y-13293984D01*
X14565896Y-13293984D02*
X14546848Y-13293984D01*
X14546848Y-13293984D02*
X14527801Y-13284460D01*
X14527801Y-13284460D02*
X14518277Y-13274936D01*
X14518277Y-13274936D02*
X14508753Y-13255888D01*
X14508753Y-13255888D02*
X14499229Y-13217793D01*
X14499229Y-13217793D02*
X14499229Y-13170174D01*
X14499229Y-13170174D02*
X14508753Y-13132079D01*
X14508753Y-13132079D02*
X14518277Y-13113031D01*
X14518277Y-13113031D02*
X14527801Y-13103508D01*
X14527801Y-13103508D02*
X14546848Y-13093984D01*
X14708753Y-13293984D02*
X14746848Y-13293984D01*
X14746848Y-13293984D02*
X14765896Y-13284460D01*
X14765896Y-13284460D02*
X14775420Y-13274936D01*
X14775420Y-13274936D02*
X14794467Y-13246365D01*
X14794467Y-13246365D02*
X14803991Y-13208269D01*
X14803991Y-13208269D02*
X14803991Y-13132079D01*
X14803991Y-13132079D02*
X14794467Y-13113031D01*
X14794467Y-13113031D02*
X14784944Y-13103508D01*
X14784944Y-13103508D02*
X14765896Y-13093984D01*
X14765896Y-13093984D02*
X14727801Y-13093984D01*
X14727801Y-13093984D02*
X14708753Y-13103508D01*
X14708753Y-13103508D02*
X14699229Y-13113031D01*
X14699229Y-13113031D02*
X14689706Y-13132079D01*
X14689706Y-13132079D02*
X14689706Y-13179698D01*
X14689706Y-13179698D02*
X14699229Y-13198746D01*
X14699229Y-13198746D02*
X14708753Y-13208269D01*
X14708753Y-13208269D02*
X14727801Y-13217793D01*
X14727801Y-13217793D02*
X14765896Y-13217793D01*
X14765896Y-13217793D02*
X14784944Y-13208269D01*
X14784944Y-13208269D02*
X14794467Y-13198746D01*
X14794467Y-13198746D02*
X14803991Y-13179698D01*
X14918277Y-13179698D02*
X14899229Y-13170174D01*
X14899229Y-13170174D02*
X14889706Y-13160650D01*
X14889706Y-13160650D02*
X14880182Y-13141603D01*
X14880182Y-13141603D02*
X14880182Y-13132079D01*
X14880182Y-13132079D02*
X14889706Y-13113031D01*
X14889706Y-13113031D02*
X14899229Y-13103508D01*
X14899229Y-13103508D02*
X14918277Y-13093984D01*
X14918277Y-13093984D02*
X14956372Y-13093984D01*
X14956372Y-13093984D02*
X14975420Y-13103508D01*
X14975420Y-13103508D02*
X14984944Y-13113031D01*
X14984944Y-13113031D02*
X14994467Y-13132079D01*
X14994467Y-13132079D02*
X14994467Y-13141603D01*
X14994467Y-13141603D02*
X14984944Y-13160650D01*
X14984944Y-13160650D02*
X14975420Y-13170174D01*
X14975420Y-13170174D02*
X14956372Y-13179698D01*
X14956372Y-13179698D02*
X14918277Y-13179698D01*
X14918277Y-13179698D02*
X14899229Y-13189222D01*
X14899229Y-13189222D02*
X14889706Y-13198746D01*
X14889706Y-13198746D02*
X14880182Y-13217793D01*
X14880182Y-13217793D02*
X14880182Y-13255888D01*
X14880182Y-13255888D02*
X14889706Y-13274936D01*
X14889706Y-13274936D02*
X14899229Y-13284460D01*
X14899229Y-13284460D02*
X14918277Y-13293984D01*
X14918277Y-13293984D02*
X14956372Y-13293984D01*
X14956372Y-13293984D02*
X14975420Y-13284460D01*
X14975420Y-13284460D02*
X14984944Y-13274936D01*
X14984944Y-13274936D02*
X14994467Y-13255888D01*
X14994467Y-13255888D02*
X14994467Y-13217793D01*
X14994467Y-13217793D02*
X14984944Y-13198746D01*
X14984944Y-13198746D02*
X14975420Y-13189222D01*
X14975420Y-13189222D02*
X14956372Y-13179698D01*
X15165896Y-13160650D02*
X15165896Y-13293984D01*
X15118277Y-13084460D02*
X15070658Y-13227317D01*
X15070658Y-13227317D02*
X15194467Y-13227317D01*
X15261134Y-13093984D02*
X15261134Y-13132079D01*
X15337325Y-13093984D02*
X15337325Y-13132079D01*
X15632563Y-13370174D02*
X15623039Y-13360650D01*
X15623039Y-13360650D02*
X15603991Y-13332079D01*
X15603991Y-13332079D02*
X15594468Y-13313031D01*
X15594468Y-13313031D02*
X15584944Y-13284460D01*
X15584944Y-13284460D02*
X15575420Y-13236841D01*
X15575420Y-13236841D02*
X15575420Y-13198746D01*
X15575420Y-13198746D02*
X15584944Y-13151127D01*
X15584944Y-13151127D02*
X15594468Y-13122555D01*
X15594468Y-13122555D02*
X15603991Y-13103508D01*
X15603991Y-13103508D02*
X15623039Y-13074936D01*
X15623039Y-13074936D02*
X15632563Y-13065412D01*
X15699229Y-13113031D02*
X15708753Y-13103508D01*
X15708753Y-13103508D02*
X15727801Y-13093984D01*
X15727801Y-13093984D02*
X15775420Y-13093984D01*
X15775420Y-13093984D02*
X15794468Y-13103508D01*
X15794468Y-13103508D02*
X15803991Y-13113031D01*
X15803991Y-13113031D02*
X15813515Y-13132079D01*
X15813515Y-13132079D02*
X15813515Y-13151127D01*
X15813515Y-13151127D02*
X15803991Y-13179698D01*
X15803991Y-13179698D02*
X15689706Y-13293984D01*
X15689706Y-13293984D02*
X15813515Y-13293984D01*
X16051610Y-13293984D02*
X16051610Y-13093984D01*
X16137325Y-13293984D02*
X16137325Y-13189222D01*
X16137325Y-13189222D02*
X16127801Y-13170174D01*
X16127801Y-13170174D02*
X16108753Y-13160650D01*
X16108753Y-13160650D02*
X16080182Y-13160650D01*
X16080182Y-13160650D02*
X16061134Y-13170174D01*
X16061134Y-13170174D02*
X16051610Y-13179698D01*
X16261134Y-13293984D02*
X16242087Y-13284460D01*
X16242087Y-13284460D02*
X16232563Y-13274936D01*
X16232563Y-13274936D02*
X16223039Y-13255888D01*
X16223039Y-13255888D02*
X16223039Y-13198746D01*
X16223039Y-13198746D02*
X16232563Y-13179698D01*
X16232563Y-13179698D02*
X16242087Y-13170174D01*
X16242087Y-13170174D02*
X16261134Y-13160650D01*
X16261134Y-13160650D02*
X16289706Y-13160650D01*
X16289706Y-13160650D02*
X16308753Y-13170174D01*
X16308753Y-13170174D02*
X16318277Y-13179698D01*
X16318277Y-13179698D02*
X16327801Y-13198746D01*
X16327801Y-13198746D02*
X16327801Y-13255888D01*
X16327801Y-13255888D02*
X16318277Y-13274936D01*
X16318277Y-13274936D02*
X16308753Y-13284460D01*
X16308753Y-13284460D02*
X16289706Y-13293984D01*
X16289706Y-13293984D02*
X16261134Y-13293984D01*
X16442087Y-13293984D02*
X16423039Y-13284460D01*
X16423039Y-13284460D02*
X16413515Y-13265412D01*
X16413515Y-13265412D02*
X16413515Y-13093984D01*
X16594468Y-13284460D02*
X16575420Y-13293984D01*
X16575420Y-13293984D02*
X16537325Y-13293984D01*
X16537325Y-13293984D02*
X16518277Y-13284460D01*
X16518277Y-13284460D02*
X16508753Y-13265412D01*
X16508753Y-13265412D02*
X16508753Y-13189222D01*
X16508753Y-13189222D02*
X16518277Y-13170174D01*
X16518277Y-13170174D02*
X16537325Y-13160650D01*
X16537325Y-13160650D02*
X16575420Y-13160650D01*
X16575420Y-13160650D02*
X16594468Y-13170174D01*
X16594468Y-13170174D02*
X16603991Y-13189222D01*
X16603991Y-13189222D02*
X16603991Y-13208269D01*
X16603991Y-13208269D02*
X16508753Y-13227317D01*
X16680182Y-13284460D02*
X16699230Y-13293984D01*
X16699230Y-13293984D02*
X16737325Y-13293984D01*
X16737325Y-13293984D02*
X16756372Y-13284460D01*
X16756372Y-13284460D02*
X16765896Y-13265412D01*
X16765896Y-13265412D02*
X16765896Y-13255888D01*
X16765896Y-13255888D02*
X16756372Y-13236841D01*
X16756372Y-13236841D02*
X16737325Y-13227317D01*
X16737325Y-13227317D02*
X16708753Y-13227317D01*
X16708753Y-13227317D02*
X16689706Y-13217793D01*
X16689706Y-13217793D02*
X16680182Y-13198746D01*
X16680182Y-13198746D02*
X16680182Y-13189222D01*
X16680182Y-13189222D02*
X16689706Y-13170174D01*
X16689706Y-13170174D02*
X16708753Y-13160650D01*
X16708753Y-13160650D02*
X16737325Y-13160650D01*
X16737325Y-13160650D02*
X16756372Y-13170174D01*
X16832563Y-13370174D02*
X16842087Y-13360650D01*
X16842087Y-13360650D02*
X16861134Y-13332079D01*
X16861134Y-13332079D02*
X16870658Y-13313031D01*
X16870658Y-13313031D02*
X16880182Y-13284460D01*
X16880182Y-13284460D02*
X16889706Y-13236841D01*
X16889706Y-13236841D02*
X16889706Y-13198746D01*
X16889706Y-13198746D02*
X16880182Y-13151127D01*
X16880182Y-13151127D02*
X16870658Y-13122555D01*
X16870658Y-13122555D02*
X16861134Y-13103508D01*
X16861134Y-13103508D02*
X16842087Y-13074936D01*
X16842087Y-13074936D02*
X16832563Y-13065412D01*
X11857500Y-13422500D02*
X12057500Y-13622500D01*
X12057500Y-13422500D02*
X11857500Y-13622500D01*
X11957500Y-13422500D02*
X11957500Y-13622500D01*
X11857500Y-13522500D02*
X12057500Y-13522500D01*
X12308753Y-13433031D02*
X12318277Y-13423508D01*
X12318277Y-13423508D02*
X12337324Y-13413984D01*
X12337324Y-13413984D02*
X12384943Y-13413984D01*
X12384943Y-13413984D02*
X12403991Y-13423508D01*
X12403991Y-13423508D02*
X12413515Y-13433031D01*
X12413515Y-13433031D02*
X12423039Y-13452079D01*
X12423039Y-13452079D02*
X12423039Y-13471127D01*
X12423039Y-13471127D02*
X12413515Y-13499698D01*
X12413515Y-13499698D02*
X12299229Y-13613984D01*
X12299229Y-13613984D02*
X12423039Y-13613984D01*
X12508753Y-13594936D02*
X12518277Y-13604460D01*
X12518277Y-13604460D02*
X12508753Y-13613984D01*
X12508753Y-13613984D02*
X12499229Y-13604460D01*
X12499229Y-13604460D02*
X12508753Y-13594936D01*
X12508753Y-13594936D02*
X12508753Y-13613984D01*
X12584943Y-13413984D02*
X12718277Y-13413984D01*
X12718277Y-13413984D02*
X12632562Y-13613984D01*
X12832562Y-13413984D02*
X12851610Y-13413984D01*
X12851610Y-13413984D02*
X12870658Y-13423508D01*
X12870658Y-13423508D02*
X12880182Y-13433031D01*
X12880182Y-13433031D02*
X12889705Y-13452079D01*
X12889705Y-13452079D02*
X12899229Y-13490174D01*
X12899229Y-13490174D02*
X12899229Y-13537793D01*
X12899229Y-13537793D02*
X12889705Y-13575888D01*
X12889705Y-13575888D02*
X12880182Y-13594936D01*
X12880182Y-13594936D02*
X12870658Y-13604460D01*
X12870658Y-13604460D02*
X12851610Y-13613984D01*
X12851610Y-13613984D02*
X12832562Y-13613984D01*
X12832562Y-13613984D02*
X12813515Y-13604460D01*
X12813515Y-13604460D02*
X12803991Y-13594936D01*
X12803991Y-13594936D02*
X12794467Y-13575888D01*
X12794467Y-13575888D02*
X12784943Y-13537793D01*
X12784943Y-13537793D02*
X12784943Y-13490174D01*
X12784943Y-13490174D02*
X12794467Y-13452079D01*
X12794467Y-13452079D02*
X12803991Y-13433031D01*
X12803991Y-13433031D02*
X12813515Y-13423508D01*
X12813515Y-13423508D02*
X12832562Y-13413984D01*
X13023039Y-13413984D02*
X13042086Y-13413984D01*
X13042086Y-13413984D02*
X13061134Y-13423508D01*
X13061134Y-13423508D02*
X13070658Y-13433031D01*
X13070658Y-13433031D02*
X13080182Y-13452079D01*
X13080182Y-13452079D02*
X13089705Y-13490174D01*
X13089705Y-13490174D02*
X13089705Y-13537793D01*
X13089705Y-13537793D02*
X13080182Y-13575888D01*
X13080182Y-13575888D02*
X13070658Y-13594936D01*
X13070658Y-13594936D02*
X13061134Y-13604460D01*
X13061134Y-13604460D02*
X13042086Y-13613984D01*
X13042086Y-13613984D02*
X13023039Y-13613984D01*
X13023039Y-13613984D02*
X13003991Y-13604460D01*
X13003991Y-13604460D02*
X12994467Y-13594936D01*
X12994467Y-13594936D02*
X12984943Y-13575888D01*
X12984943Y-13575888D02*
X12975420Y-13537793D01*
X12975420Y-13537793D02*
X12975420Y-13490174D01*
X12975420Y-13490174D02*
X12984943Y-13452079D01*
X12984943Y-13452079D02*
X12994467Y-13433031D01*
X12994467Y-13433031D02*
X13003991Y-13423508D01*
X13003991Y-13423508D02*
X13023039Y-13413984D01*
X13175420Y-13613984D02*
X13175420Y-13480650D01*
X13175420Y-13499698D02*
X13184943Y-13490174D01*
X13184943Y-13490174D02*
X13203991Y-13480650D01*
X13203991Y-13480650D02*
X13232563Y-13480650D01*
X13232563Y-13480650D02*
X13251610Y-13490174D01*
X13251610Y-13490174D02*
X13261134Y-13509222D01*
X13261134Y-13509222D02*
X13261134Y-13613984D01*
X13261134Y-13509222D02*
X13270658Y-13490174D01*
X13270658Y-13490174D02*
X13289705Y-13480650D01*
X13289705Y-13480650D02*
X13318277Y-13480650D01*
X13318277Y-13480650D02*
X13337324Y-13490174D01*
X13337324Y-13490174D02*
X13346848Y-13509222D01*
X13346848Y-13509222D02*
X13346848Y-13613984D01*
X13442086Y-13613984D02*
X13442086Y-13480650D01*
X13442086Y-13499698D02*
X13451610Y-13490174D01*
X13451610Y-13490174D02*
X13470658Y-13480650D01*
X13470658Y-13480650D02*
X13499229Y-13480650D01*
X13499229Y-13480650D02*
X13518277Y-13490174D01*
X13518277Y-13490174D02*
X13527801Y-13509222D01*
X13527801Y-13509222D02*
X13527801Y-13613984D01*
X13527801Y-13509222D02*
X13537324Y-13490174D01*
X13537324Y-13490174D02*
X13556372Y-13480650D01*
X13556372Y-13480650D02*
X13584943Y-13480650D01*
X13584943Y-13480650D02*
X13603991Y-13490174D01*
X13603991Y-13490174D02*
X13613515Y-13509222D01*
X13613515Y-13509222D02*
X13613515Y-13613984D01*
X14003991Y-13404460D02*
X13832563Y-13661603D01*
X14261134Y-13413984D02*
X14280182Y-13413984D01*
X14280182Y-13413984D02*
X14299229Y-13423508D01*
X14299229Y-13423508D02*
X14308753Y-13433031D01*
X14308753Y-13433031D02*
X14318277Y-13452079D01*
X14318277Y-13452079D02*
X14327801Y-13490174D01*
X14327801Y-13490174D02*
X14327801Y-13537793D01*
X14327801Y-13537793D02*
X14318277Y-13575888D01*
X14318277Y-13575888D02*
X14308753Y-13594936D01*
X14308753Y-13594936D02*
X14299229Y-13604460D01*
X14299229Y-13604460D02*
X14280182Y-13613984D01*
X14280182Y-13613984D02*
X14261134Y-13613984D01*
X14261134Y-13613984D02*
X14242086Y-13604460D01*
X14242086Y-13604460D02*
X14232563Y-13594936D01*
X14232563Y-13594936D02*
X14223039Y-13575888D01*
X14223039Y-13575888D02*
X14213515Y-13537793D01*
X14213515Y-13537793D02*
X14213515Y-13490174D01*
X14213515Y-13490174D02*
X14223039Y-13452079D01*
X14223039Y-13452079D02*
X14232563Y-13433031D01*
X14232563Y-13433031D02*
X14242086Y-13423508D01*
X14242086Y-13423508D02*
X14261134Y-13413984D01*
X14413515Y-13594936D02*
X14423039Y-13604460D01*
X14423039Y-13604460D02*
X14413515Y-13613984D01*
X14413515Y-13613984D02*
X14403991Y-13604460D01*
X14403991Y-13604460D02*
X14413515Y-13594936D01*
X14413515Y-13594936D02*
X14413515Y-13613984D01*
X14613515Y-13613984D02*
X14499229Y-13613984D01*
X14556372Y-13613984D02*
X14556372Y-13413984D01*
X14556372Y-13413984D02*
X14537325Y-13442555D01*
X14537325Y-13442555D02*
X14518277Y-13461603D01*
X14518277Y-13461603D02*
X14499229Y-13471127D01*
X14737325Y-13413984D02*
X14756372Y-13413984D01*
X14756372Y-13413984D02*
X14775420Y-13423508D01*
X14775420Y-13423508D02*
X14784944Y-13433031D01*
X14784944Y-13433031D02*
X14794467Y-13452079D01*
X14794467Y-13452079D02*
X14803991Y-13490174D01*
X14803991Y-13490174D02*
X14803991Y-13537793D01*
X14803991Y-13537793D02*
X14794467Y-13575888D01*
X14794467Y-13575888D02*
X14784944Y-13594936D01*
X14784944Y-13594936D02*
X14775420Y-13604460D01*
X14775420Y-13604460D02*
X14756372Y-13613984D01*
X14756372Y-13613984D02*
X14737325Y-13613984D01*
X14737325Y-13613984D02*
X14718277Y-13604460D01*
X14718277Y-13604460D02*
X14708753Y-13594936D01*
X14708753Y-13594936D02*
X14699229Y-13575888D01*
X14699229Y-13575888D02*
X14689706Y-13537793D01*
X14689706Y-13537793D02*
X14689706Y-13490174D01*
X14689706Y-13490174D02*
X14699229Y-13452079D01*
X14699229Y-13452079D02*
X14708753Y-13433031D01*
X14708753Y-13433031D02*
X14718277Y-13423508D01*
X14718277Y-13423508D02*
X14737325Y-13413984D01*
X14975420Y-13413984D02*
X14937325Y-13413984D01*
X14937325Y-13413984D02*
X14918277Y-13423508D01*
X14918277Y-13423508D02*
X14908753Y-13433031D01*
X14908753Y-13433031D02*
X14889706Y-13461603D01*
X14889706Y-13461603D02*
X14880182Y-13499698D01*
X14880182Y-13499698D02*
X14880182Y-13575888D01*
X14880182Y-13575888D02*
X14889706Y-13594936D01*
X14889706Y-13594936D02*
X14899229Y-13604460D01*
X14899229Y-13604460D02*
X14918277Y-13613984D01*
X14918277Y-13613984D02*
X14956372Y-13613984D01*
X14956372Y-13613984D02*
X14975420Y-13604460D01*
X14975420Y-13604460D02*
X14984944Y-13594936D01*
X14984944Y-13594936D02*
X14994467Y-13575888D01*
X14994467Y-13575888D02*
X14994467Y-13528269D01*
X14994467Y-13528269D02*
X14984944Y-13509222D01*
X14984944Y-13509222D02*
X14975420Y-13499698D01*
X14975420Y-13499698D02*
X14956372Y-13490174D01*
X14956372Y-13490174D02*
X14918277Y-13490174D01*
X14918277Y-13490174D02*
X14899229Y-13499698D01*
X14899229Y-13499698D02*
X14889706Y-13509222D01*
X14889706Y-13509222D02*
X14880182Y-13528269D01*
X15061134Y-13413984D02*
X15184944Y-13413984D01*
X15184944Y-13413984D02*
X15118277Y-13490174D01*
X15118277Y-13490174D02*
X15146848Y-13490174D01*
X15146848Y-13490174D02*
X15165896Y-13499698D01*
X15165896Y-13499698D02*
X15175420Y-13509222D01*
X15175420Y-13509222D02*
X15184944Y-13528269D01*
X15184944Y-13528269D02*
X15184944Y-13575888D01*
X15184944Y-13575888D02*
X15175420Y-13594936D01*
X15175420Y-13594936D02*
X15165896Y-13604460D01*
X15165896Y-13604460D02*
X15146848Y-13613984D01*
X15146848Y-13613984D02*
X15089706Y-13613984D01*
X15089706Y-13613984D02*
X15070658Y-13604460D01*
X15070658Y-13604460D02*
X15061134Y-13594936D01*
X15261134Y-13413984D02*
X15261134Y-13452079D01*
X15337325Y-13413984D02*
X15337325Y-13452079D01*
X15632563Y-13690174D02*
X15623039Y-13680650D01*
X15623039Y-13680650D02*
X15603991Y-13652079D01*
X15603991Y-13652079D02*
X15594468Y-13633031D01*
X15594468Y-13633031D02*
X15584944Y-13604460D01*
X15584944Y-13604460D02*
X15575420Y-13556841D01*
X15575420Y-13556841D02*
X15575420Y-13518746D01*
X15575420Y-13518746D02*
X15584944Y-13471127D01*
X15584944Y-13471127D02*
X15594468Y-13442555D01*
X15594468Y-13442555D02*
X15603991Y-13423508D01*
X15603991Y-13423508D02*
X15623039Y-13394936D01*
X15623039Y-13394936D02*
X15632563Y-13385412D01*
X15699229Y-13433031D02*
X15708753Y-13423508D01*
X15708753Y-13423508D02*
X15727801Y-13413984D01*
X15727801Y-13413984D02*
X15775420Y-13413984D01*
X15775420Y-13413984D02*
X15794468Y-13423508D01*
X15794468Y-13423508D02*
X15803991Y-13433031D01*
X15803991Y-13433031D02*
X15813515Y-13452079D01*
X15813515Y-13452079D02*
X15813515Y-13471127D01*
X15813515Y-13471127D02*
X15803991Y-13499698D01*
X15803991Y-13499698D02*
X15689706Y-13613984D01*
X15689706Y-13613984D02*
X15813515Y-13613984D01*
X16051610Y-13613984D02*
X16051610Y-13413984D01*
X16137325Y-13613984D02*
X16137325Y-13509222D01*
X16137325Y-13509222D02*
X16127801Y-13490174D01*
X16127801Y-13490174D02*
X16108753Y-13480650D01*
X16108753Y-13480650D02*
X16080182Y-13480650D01*
X16080182Y-13480650D02*
X16061134Y-13490174D01*
X16061134Y-13490174D02*
X16051610Y-13499698D01*
X16261134Y-13613984D02*
X16242087Y-13604460D01*
X16242087Y-13604460D02*
X16232563Y-13594936D01*
X16232563Y-13594936D02*
X16223039Y-13575888D01*
X16223039Y-13575888D02*
X16223039Y-13518746D01*
X16223039Y-13518746D02*
X16232563Y-13499698D01*
X16232563Y-13499698D02*
X16242087Y-13490174D01*
X16242087Y-13490174D02*
X16261134Y-13480650D01*
X16261134Y-13480650D02*
X16289706Y-13480650D01*
X16289706Y-13480650D02*
X16308753Y-13490174D01*
X16308753Y-13490174D02*
X16318277Y-13499698D01*
X16318277Y-13499698D02*
X16327801Y-13518746D01*
X16327801Y-13518746D02*
X16327801Y-13575888D01*
X16327801Y-13575888D02*
X16318277Y-13594936D01*
X16318277Y-13594936D02*
X16308753Y-13604460D01*
X16308753Y-13604460D02*
X16289706Y-13613984D01*
X16289706Y-13613984D02*
X16261134Y-13613984D01*
X16442087Y-13613984D02*
X16423039Y-13604460D01*
X16423039Y-13604460D02*
X16413515Y-13585412D01*
X16413515Y-13585412D02*
X16413515Y-13413984D01*
X16594468Y-13604460D02*
X16575420Y-13613984D01*
X16575420Y-13613984D02*
X16537325Y-13613984D01*
X16537325Y-13613984D02*
X16518277Y-13604460D01*
X16518277Y-13604460D02*
X16508753Y-13585412D01*
X16508753Y-13585412D02*
X16508753Y-13509222D01*
X16508753Y-13509222D02*
X16518277Y-13490174D01*
X16518277Y-13490174D02*
X16537325Y-13480650D01*
X16537325Y-13480650D02*
X16575420Y-13480650D01*
X16575420Y-13480650D02*
X16594468Y-13490174D01*
X16594468Y-13490174D02*
X16603991Y-13509222D01*
X16603991Y-13509222D02*
X16603991Y-13528269D01*
X16603991Y-13528269D02*
X16508753Y-13547317D01*
X16680182Y-13604460D02*
X16699230Y-13613984D01*
X16699230Y-13613984D02*
X16737325Y-13613984D01*
X16737325Y-13613984D02*
X16756372Y-13604460D01*
X16756372Y-13604460D02*
X16765896Y-13585412D01*
X16765896Y-13585412D02*
X16765896Y-13575888D01*
X16765896Y-13575888D02*
X16756372Y-13556841D01*
X16756372Y-13556841D02*
X16737325Y-13547317D01*
X16737325Y-13547317D02*
X16708753Y-13547317D01*
X16708753Y-13547317D02*
X16689706Y-13537793D01*
X16689706Y-13537793D02*
X16680182Y-13518746D01*
X16680182Y-13518746D02*
X16680182Y-13509222D01*
X16680182Y-13509222D02*
X16689706Y-13490174D01*
X16689706Y-13490174D02*
X16708753Y-13480650D01*
X16708753Y-13480650D02*
X16737325Y-13480650D01*
X16737325Y-13480650D02*
X16756372Y-13490174D01*
X16832563Y-13690174D02*
X16842087Y-13680650D01*
X16842087Y-13680650D02*
X16861134Y-13652079D01*
X16861134Y-13652079D02*
X16870658Y-13633031D01*
X16870658Y-13633031D02*
X16880182Y-13604460D01*
X16880182Y-13604460D02*
X16889706Y-13556841D01*
X16889706Y-13556841D02*
X16889706Y-13518746D01*
X16889706Y-13518746D02*
X16880182Y-13471127D01*
X16880182Y-13471127D02*
X16870658Y-13442555D01*
X16870658Y-13442555D02*
X16861134Y-13423508D01*
X16861134Y-13423508D02*
X16842087Y-13394936D01*
X16842087Y-13394936D02*
X16832563Y-13385412D01*
X11857500Y-13742500D02*
X12057500Y-13942500D01*
X12057500Y-13742500D02*
X11857500Y-13942500D01*
X12028211Y-13913211D02*
X12028211Y-13771789D01*
X11886789Y-13771789D01*
X11886789Y-13913211D01*
X12028211Y-13913211D01*
X12299229Y-13733984D02*
X12423039Y-13733984D01*
X12423039Y-13733984D02*
X12356372Y-13810174D01*
X12356372Y-13810174D02*
X12384943Y-13810174D01*
X12384943Y-13810174D02*
X12403991Y-13819698D01*
X12403991Y-13819698D02*
X12413515Y-13829222D01*
X12413515Y-13829222D02*
X12423039Y-13848269D01*
X12423039Y-13848269D02*
X12423039Y-13895888D01*
X12423039Y-13895888D02*
X12413515Y-13914936D01*
X12413515Y-13914936D02*
X12403991Y-13924460D01*
X12403991Y-13924460D02*
X12384943Y-13933984D01*
X12384943Y-13933984D02*
X12327801Y-13933984D01*
X12327801Y-13933984D02*
X12308753Y-13924460D01*
X12308753Y-13924460D02*
X12299229Y-13914936D01*
X12508753Y-13914936D02*
X12518277Y-13924460D01*
X12518277Y-13924460D02*
X12508753Y-13933984D01*
X12508753Y-13933984D02*
X12499229Y-13924460D01*
X12499229Y-13924460D02*
X12508753Y-13914936D01*
X12508753Y-13914936D02*
X12508753Y-13933984D01*
X12594467Y-13753031D02*
X12603991Y-13743508D01*
X12603991Y-13743508D02*
X12623039Y-13733984D01*
X12623039Y-13733984D02*
X12670658Y-13733984D01*
X12670658Y-13733984D02*
X12689705Y-13743508D01*
X12689705Y-13743508D02*
X12699229Y-13753031D01*
X12699229Y-13753031D02*
X12708753Y-13772079D01*
X12708753Y-13772079D02*
X12708753Y-13791127D01*
X12708753Y-13791127D02*
X12699229Y-13819698D01*
X12699229Y-13819698D02*
X12584943Y-13933984D01*
X12584943Y-13933984D02*
X12708753Y-13933984D01*
X12832562Y-13733984D02*
X12851610Y-13733984D01*
X12851610Y-13733984D02*
X12870658Y-13743508D01*
X12870658Y-13743508D02*
X12880182Y-13753031D01*
X12880182Y-13753031D02*
X12889705Y-13772079D01*
X12889705Y-13772079D02*
X12899229Y-13810174D01*
X12899229Y-13810174D02*
X12899229Y-13857793D01*
X12899229Y-13857793D02*
X12889705Y-13895888D01*
X12889705Y-13895888D02*
X12880182Y-13914936D01*
X12880182Y-13914936D02*
X12870658Y-13924460D01*
X12870658Y-13924460D02*
X12851610Y-13933984D01*
X12851610Y-13933984D02*
X12832562Y-13933984D01*
X12832562Y-13933984D02*
X12813515Y-13924460D01*
X12813515Y-13924460D02*
X12803991Y-13914936D01*
X12803991Y-13914936D02*
X12794467Y-13895888D01*
X12794467Y-13895888D02*
X12784943Y-13857793D01*
X12784943Y-13857793D02*
X12784943Y-13810174D01*
X12784943Y-13810174D02*
X12794467Y-13772079D01*
X12794467Y-13772079D02*
X12803991Y-13753031D01*
X12803991Y-13753031D02*
X12813515Y-13743508D01*
X12813515Y-13743508D02*
X12832562Y-13733984D01*
X13023039Y-13733984D02*
X13042086Y-13733984D01*
X13042086Y-13733984D02*
X13061134Y-13743508D01*
X13061134Y-13743508D02*
X13070658Y-13753031D01*
X13070658Y-13753031D02*
X13080182Y-13772079D01*
X13080182Y-13772079D02*
X13089705Y-13810174D01*
X13089705Y-13810174D02*
X13089705Y-13857793D01*
X13089705Y-13857793D02*
X13080182Y-13895888D01*
X13080182Y-13895888D02*
X13070658Y-13914936D01*
X13070658Y-13914936D02*
X13061134Y-13924460D01*
X13061134Y-13924460D02*
X13042086Y-13933984D01*
X13042086Y-13933984D02*
X13023039Y-13933984D01*
X13023039Y-13933984D02*
X13003991Y-13924460D01*
X13003991Y-13924460D02*
X12994467Y-13914936D01*
X12994467Y-13914936D02*
X12984943Y-13895888D01*
X12984943Y-13895888D02*
X12975420Y-13857793D01*
X12975420Y-13857793D02*
X12975420Y-13810174D01*
X12975420Y-13810174D02*
X12984943Y-13772079D01*
X12984943Y-13772079D02*
X12994467Y-13753031D01*
X12994467Y-13753031D02*
X13003991Y-13743508D01*
X13003991Y-13743508D02*
X13023039Y-13733984D01*
X13175420Y-13933984D02*
X13175420Y-13800650D01*
X13175420Y-13819698D02*
X13184943Y-13810174D01*
X13184943Y-13810174D02*
X13203991Y-13800650D01*
X13203991Y-13800650D02*
X13232563Y-13800650D01*
X13232563Y-13800650D02*
X13251610Y-13810174D01*
X13251610Y-13810174D02*
X13261134Y-13829222D01*
X13261134Y-13829222D02*
X13261134Y-13933984D01*
X13261134Y-13829222D02*
X13270658Y-13810174D01*
X13270658Y-13810174D02*
X13289705Y-13800650D01*
X13289705Y-13800650D02*
X13318277Y-13800650D01*
X13318277Y-13800650D02*
X13337324Y-13810174D01*
X13337324Y-13810174D02*
X13346848Y-13829222D01*
X13346848Y-13829222D02*
X13346848Y-13933984D01*
X13442086Y-13933984D02*
X13442086Y-13800650D01*
X13442086Y-13819698D02*
X13451610Y-13810174D01*
X13451610Y-13810174D02*
X13470658Y-13800650D01*
X13470658Y-13800650D02*
X13499229Y-13800650D01*
X13499229Y-13800650D02*
X13518277Y-13810174D01*
X13518277Y-13810174D02*
X13527801Y-13829222D01*
X13527801Y-13829222D02*
X13527801Y-13933984D01*
X13527801Y-13829222D02*
X13537324Y-13810174D01*
X13537324Y-13810174D02*
X13556372Y-13800650D01*
X13556372Y-13800650D02*
X13584943Y-13800650D01*
X13584943Y-13800650D02*
X13603991Y-13810174D01*
X13603991Y-13810174D02*
X13613515Y-13829222D01*
X13613515Y-13829222D02*
X13613515Y-13933984D01*
X14003991Y-13724460D02*
X13832563Y-13981603D01*
X14261134Y-13733984D02*
X14280182Y-13733984D01*
X14280182Y-13733984D02*
X14299229Y-13743508D01*
X14299229Y-13743508D02*
X14308753Y-13753031D01*
X14308753Y-13753031D02*
X14318277Y-13772079D01*
X14318277Y-13772079D02*
X14327801Y-13810174D01*
X14327801Y-13810174D02*
X14327801Y-13857793D01*
X14327801Y-13857793D02*
X14318277Y-13895888D01*
X14318277Y-13895888D02*
X14308753Y-13914936D01*
X14308753Y-13914936D02*
X14299229Y-13924460D01*
X14299229Y-13924460D02*
X14280182Y-13933984D01*
X14280182Y-13933984D02*
X14261134Y-13933984D01*
X14261134Y-13933984D02*
X14242086Y-13924460D01*
X14242086Y-13924460D02*
X14232563Y-13914936D01*
X14232563Y-13914936D02*
X14223039Y-13895888D01*
X14223039Y-13895888D02*
X14213515Y-13857793D01*
X14213515Y-13857793D02*
X14213515Y-13810174D01*
X14213515Y-13810174D02*
X14223039Y-13772079D01*
X14223039Y-13772079D02*
X14232563Y-13753031D01*
X14232563Y-13753031D02*
X14242086Y-13743508D01*
X14242086Y-13743508D02*
X14261134Y-13733984D01*
X14413515Y-13914936D02*
X14423039Y-13924460D01*
X14423039Y-13924460D02*
X14413515Y-13933984D01*
X14413515Y-13933984D02*
X14403991Y-13924460D01*
X14403991Y-13924460D02*
X14413515Y-13914936D01*
X14413515Y-13914936D02*
X14413515Y-13933984D01*
X14613515Y-13933984D02*
X14499229Y-13933984D01*
X14556372Y-13933984D02*
X14556372Y-13733984D01*
X14556372Y-13733984D02*
X14537325Y-13762555D01*
X14537325Y-13762555D02*
X14518277Y-13781603D01*
X14518277Y-13781603D02*
X14499229Y-13791127D01*
X14689706Y-13753031D02*
X14699229Y-13743508D01*
X14699229Y-13743508D02*
X14718277Y-13733984D01*
X14718277Y-13733984D02*
X14765896Y-13733984D01*
X14765896Y-13733984D02*
X14784944Y-13743508D01*
X14784944Y-13743508D02*
X14794467Y-13753031D01*
X14794467Y-13753031D02*
X14803991Y-13772079D01*
X14803991Y-13772079D02*
X14803991Y-13791127D01*
X14803991Y-13791127D02*
X14794467Y-13819698D01*
X14794467Y-13819698D02*
X14680182Y-13933984D01*
X14680182Y-13933984D02*
X14803991Y-13933984D01*
X14975420Y-13733984D02*
X14937325Y-13733984D01*
X14937325Y-13733984D02*
X14918277Y-13743508D01*
X14918277Y-13743508D02*
X14908753Y-13753031D01*
X14908753Y-13753031D02*
X14889706Y-13781603D01*
X14889706Y-13781603D02*
X14880182Y-13819698D01*
X14880182Y-13819698D02*
X14880182Y-13895888D01*
X14880182Y-13895888D02*
X14889706Y-13914936D01*
X14889706Y-13914936D02*
X14899229Y-13924460D01*
X14899229Y-13924460D02*
X14918277Y-13933984D01*
X14918277Y-13933984D02*
X14956372Y-13933984D01*
X14956372Y-13933984D02*
X14975420Y-13924460D01*
X14975420Y-13924460D02*
X14984944Y-13914936D01*
X14984944Y-13914936D02*
X14994467Y-13895888D01*
X14994467Y-13895888D02*
X14994467Y-13848269D01*
X14994467Y-13848269D02*
X14984944Y-13829222D01*
X14984944Y-13829222D02*
X14975420Y-13819698D01*
X14975420Y-13819698D02*
X14956372Y-13810174D01*
X14956372Y-13810174D02*
X14918277Y-13810174D01*
X14918277Y-13810174D02*
X14899229Y-13819698D01*
X14899229Y-13819698D02*
X14889706Y-13829222D01*
X14889706Y-13829222D02*
X14880182Y-13848269D01*
X15118277Y-13733984D02*
X15137325Y-13733984D01*
X15137325Y-13733984D02*
X15156372Y-13743508D01*
X15156372Y-13743508D02*
X15165896Y-13753031D01*
X15165896Y-13753031D02*
X15175420Y-13772079D01*
X15175420Y-13772079D02*
X15184944Y-13810174D01*
X15184944Y-13810174D02*
X15184944Y-13857793D01*
X15184944Y-13857793D02*
X15175420Y-13895888D01*
X15175420Y-13895888D02*
X15165896Y-13914936D01*
X15165896Y-13914936D02*
X15156372Y-13924460D01*
X15156372Y-13924460D02*
X15137325Y-13933984D01*
X15137325Y-13933984D02*
X15118277Y-13933984D01*
X15118277Y-13933984D02*
X15099229Y-13924460D01*
X15099229Y-13924460D02*
X15089706Y-13914936D01*
X15089706Y-13914936D02*
X15080182Y-13895888D01*
X15080182Y-13895888D02*
X15070658Y-13857793D01*
X15070658Y-13857793D02*
X15070658Y-13810174D01*
X15070658Y-13810174D02*
X15080182Y-13772079D01*
X15080182Y-13772079D02*
X15089706Y-13753031D01*
X15089706Y-13753031D02*
X15099229Y-13743508D01*
X15099229Y-13743508D02*
X15118277Y-13733984D01*
X15261134Y-13733984D02*
X15261134Y-13772079D01*
X15337325Y-13733984D02*
X15337325Y-13772079D01*
X15632563Y-14010174D02*
X15623039Y-14000650D01*
X15623039Y-14000650D02*
X15603991Y-13972079D01*
X15603991Y-13972079D02*
X15594468Y-13953031D01*
X15594468Y-13953031D02*
X15584944Y-13924460D01*
X15584944Y-13924460D02*
X15575420Y-13876841D01*
X15575420Y-13876841D02*
X15575420Y-13838746D01*
X15575420Y-13838746D02*
X15584944Y-13791127D01*
X15584944Y-13791127D02*
X15594468Y-13762555D01*
X15594468Y-13762555D02*
X15603991Y-13743508D01*
X15603991Y-13743508D02*
X15623039Y-13714936D01*
X15623039Y-13714936D02*
X15632563Y-13705412D01*
X15794468Y-13800650D02*
X15794468Y-13933984D01*
X15746848Y-13724460D02*
X15699229Y-13867317D01*
X15699229Y-13867317D02*
X15823039Y-13867317D01*
X16051610Y-13933984D02*
X16051610Y-13733984D01*
X16137325Y-13933984D02*
X16137325Y-13829222D01*
X16137325Y-13829222D02*
X16127801Y-13810174D01*
X16127801Y-13810174D02*
X16108753Y-13800650D01*
X16108753Y-13800650D02*
X16080182Y-13800650D01*
X16080182Y-13800650D02*
X16061134Y-13810174D01*
X16061134Y-13810174D02*
X16051610Y-13819698D01*
X16261134Y-13933984D02*
X16242087Y-13924460D01*
X16242087Y-13924460D02*
X16232563Y-13914936D01*
X16232563Y-13914936D02*
X16223039Y-13895888D01*
X16223039Y-13895888D02*
X16223039Y-13838746D01*
X16223039Y-13838746D02*
X16232563Y-13819698D01*
X16232563Y-13819698D02*
X16242087Y-13810174D01*
X16242087Y-13810174D02*
X16261134Y-13800650D01*
X16261134Y-13800650D02*
X16289706Y-13800650D01*
X16289706Y-13800650D02*
X16308753Y-13810174D01*
X16308753Y-13810174D02*
X16318277Y-13819698D01*
X16318277Y-13819698D02*
X16327801Y-13838746D01*
X16327801Y-13838746D02*
X16327801Y-13895888D01*
X16327801Y-13895888D02*
X16318277Y-13914936D01*
X16318277Y-13914936D02*
X16308753Y-13924460D01*
X16308753Y-13924460D02*
X16289706Y-13933984D01*
X16289706Y-13933984D02*
X16261134Y-13933984D01*
X16442087Y-13933984D02*
X16423039Y-13924460D01*
X16423039Y-13924460D02*
X16413515Y-13905412D01*
X16413515Y-13905412D02*
X16413515Y-13733984D01*
X16594468Y-13924460D02*
X16575420Y-13933984D01*
X16575420Y-13933984D02*
X16537325Y-13933984D01*
X16537325Y-13933984D02*
X16518277Y-13924460D01*
X16518277Y-13924460D02*
X16508753Y-13905412D01*
X16508753Y-13905412D02*
X16508753Y-13829222D01*
X16508753Y-13829222D02*
X16518277Y-13810174D01*
X16518277Y-13810174D02*
X16537325Y-13800650D01*
X16537325Y-13800650D02*
X16575420Y-13800650D01*
X16575420Y-13800650D02*
X16594468Y-13810174D01*
X16594468Y-13810174D02*
X16603991Y-13829222D01*
X16603991Y-13829222D02*
X16603991Y-13848269D01*
X16603991Y-13848269D02*
X16508753Y-13867317D01*
X16680182Y-13924460D02*
X16699230Y-13933984D01*
X16699230Y-13933984D02*
X16737325Y-13933984D01*
X16737325Y-13933984D02*
X16756372Y-13924460D01*
X16756372Y-13924460D02*
X16765896Y-13905412D01*
X16765896Y-13905412D02*
X16765896Y-13895888D01*
X16765896Y-13895888D02*
X16756372Y-13876841D01*
X16756372Y-13876841D02*
X16737325Y-13867317D01*
X16737325Y-13867317D02*
X16708753Y-13867317D01*
X16708753Y-13867317D02*
X16689706Y-13857793D01*
X16689706Y-13857793D02*
X16680182Y-13838746D01*
X16680182Y-13838746D02*
X16680182Y-13829222D01*
X16680182Y-13829222D02*
X16689706Y-13810174D01*
X16689706Y-13810174D02*
X16708753Y-13800650D01*
X16708753Y-13800650D02*
X16737325Y-13800650D01*
X16737325Y-13800650D02*
X16756372Y-13810174D01*
X16832563Y-14010174D02*
X16842087Y-14000650D01*
X16842087Y-14000650D02*
X16861134Y-13972079D01*
X16861134Y-13972079D02*
X16870658Y-13953031D01*
X16870658Y-13953031D02*
X16880182Y-13924460D01*
X16880182Y-13924460D02*
X16889706Y-13876841D01*
X16889706Y-13876841D02*
X16889706Y-13838746D01*
X16889706Y-13838746D02*
X16880182Y-13791127D01*
X16880182Y-13791127D02*
X16870658Y-13762555D01*
X16870658Y-13762555D02*
X16861134Y-13743508D01*
X16861134Y-13743508D02*
X16842087Y-13714936D01*
X16842087Y-13714936D02*
X16832563Y-13705412D01*
X11857500Y-14062500D02*
X12057500Y-14262500D01*
X12057500Y-14062500D02*
X11857500Y-14262500D01*
X11957500Y-14262500D02*
X12057500Y-14162500D01*
X11957500Y-14062500D01*
X11857500Y-14162500D01*
X11957500Y-14262500D01*
X12403991Y-14120650D02*
X12403991Y-14253984D01*
X12356372Y-14044460D02*
X12308753Y-14187317D01*
X12308753Y-14187317D02*
X12432562Y-14187317D01*
X12508753Y-14234936D02*
X12518277Y-14244460D01*
X12518277Y-14244460D02*
X12508753Y-14253984D01*
X12508753Y-14253984D02*
X12499229Y-14244460D01*
X12499229Y-14244460D02*
X12508753Y-14234936D01*
X12508753Y-14234936D02*
X12508753Y-14253984D01*
X12689705Y-14053984D02*
X12651610Y-14053984D01*
X12651610Y-14053984D02*
X12632562Y-14063508D01*
X12632562Y-14063508D02*
X12623039Y-14073031D01*
X12623039Y-14073031D02*
X12603991Y-14101603D01*
X12603991Y-14101603D02*
X12594467Y-14139698D01*
X12594467Y-14139698D02*
X12594467Y-14215888D01*
X12594467Y-14215888D02*
X12603991Y-14234936D01*
X12603991Y-14234936D02*
X12613515Y-14244460D01*
X12613515Y-14244460D02*
X12632562Y-14253984D01*
X12632562Y-14253984D02*
X12670658Y-14253984D01*
X12670658Y-14253984D02*
X12689705Y-14244460D01*
X12689705Y-14244460D02*
X12699229Y-14234936D01*
X12699229Y-14234936D02*
X12708753Y-14215888D01*
X12708753Y-14215888D02*
X12708753Y-14168269D01*
X12708753Y-14168269D02*
X12699229Y-14149222D01*
X12699229Y-14149222D02*
X12689705Y-14139698D01*
X12689705Y-14139698D02*
X12670658Y-14130174D01*
X12670658Y-14130174D02*
X12632562Y-14130174D01*
X12632562Y-14130174D02*
X12613515Y-14139698D01*
X12613515Y-14139698D02*
X12603991Y-14149222D01*
X12603991Y-14149222D02*
X12594467Y-14168269D01*
X12832562Y-14053984D02*
X12851610Y-14053984D01*
X12851610Y-14053984D02*
X12870658Y-14063508D01*
X12870658Y-14063508D02*
X12880182Y-14073031D01*
X12880182Y-14073031D02*
X12889705Y-14092079D01*
X12889705Y-14092079D02*
X12899229Y-14130174D01*
X12899229Y-14130174D02*
X12899229Y-14177793D01*
X12899229Y-14177793D02*
X12889705Y-14215888D01*
X12889705Y-14215888D02*
X12880182Y-14234936D01*
X12880182Y-14234936D02*
X12870658Y-14244460D01*
X12870658Y-14244460D02*
X12851610Y-14253984D01*
X12851610Y-14253984D02*
X12832562Y-14253984D01*
X12832562Y-14253984D02*
X12813515Y-14244460D01*
X12813515Y-14244460D02*
X12803991Y-14234936D01*
X12803991Y-14234936D02*
X12794467Y-14215888D01*
X12794467Y-14215888D02*
X12784943Y-14177793D01*
X12784943Y-14177793D02*
X12784943Y-14130174D01*
X12784943Y-14130174D02*
X12794467Y-14092079D01*
X12794467Y-14092079D02*
X12803991Y-14073031D01*
X12803991Y-14073031D02*
X12813515Y-14063508D01*
X12813515Y-14063508D02*
X12832562Y-14053984D01*
X13023039Y-14053984D02*
X13042086Y-14053984D01*
X13042086Y-14053984D02*
X13061134Y-14063508D01*
X13061134Y-14063508D02*
X13070658Y-14073031D01*
X13070658Y-14073031D02*
X13080182Y-14092079D01*
X13080182Y-14092079D02*
X13089705Y-14130174D01*
X13089705Y-14130174D02*
X13089705Y-14177793D01*
X13089705Y-14177793D02*
X13080182Y-14215888D01*
X13080182Y-14215888D02*
X13070658Y-14234936D01*
X13070658Y-14234936D02*
X13061134Y-14244460D01*
X13061134Y-14244460D02*
X13042086Y-14253984D01*
X13042086Y-14253984D02*
X13023039Y-14253984D01*
X13023039Y-14253984D02*
X13003991Y-14244460D01*
X13003991Y-14244460D02*
X12994467Y-14234936D01*
X12994467Y-14234936D02*
X12984943Y-14215888D01*
X12984943Y-14215888D02*
X12975420Y-14177793D01*
X12975420Y-14177793D02*
X12975420Y-14130174D01*
X12975420Y-14130174D02*
X12984943Y-14092079D01*
X12984943Y-14092079D02*
X12994467Y-14073031D01*
X12994467Y-14073031D02*
X13003991Y-14063508D01*
X13003991Y-14063508D02*
X13023039Y-14053984D01*
X13175420Y-14253984D02*
X13175420Y-14120650D01*
X13175420Y-14139698D02*
X13184943Y-14130174D01*
X13184943Y-14130174D02*
X13203991Y-14120650D01*
X13203991Y-14120650D02*
X13232563Y-14120650D01*
X13232563Y-14120650D02*
X13251610Y-14130174D01*
X13251610Y-14130174D02*
X13261134Y-14149222D01*
X13261134Y-14149222D02*
X13261134Y-14253984D01*
X13261134Y-14149222D02*
X13270658Y-14130174D01*
X13270658Y-14130174D02*
X13289705Y-14120650D01*
X13289705Y-14120650D02*
X13318277Y-14120650D01*
X13318277Y-14120650D02*
X13337324Y-14130174D01*
X13337324Y-14130174D02*
X13346848Y-14149222D01*
X13346848Y-14149222D02*
X13346848Y-14253984D01*
X13442086Y-14253984D02*
X13442086Y-14120650D01*
X13442086Y-14139698D02*
X13451610Y-14130174D01*
X13451610Y-14130174D02*
X13470658Y-14120650D01*
X13470658Y-14120650D02*
X13499229Y-14120650D01*
X13499229Y-14120650D02*
X13518277Y-14130174D01*
X13518277Y-14130174D02*
X13527801Y-14149222D01*
X13527801Y-14149222D02*
X13527801Y-14253984D01*
X13527801Y-14149222D02*
X13537324Y-14130174D01*
X13537324Y-14130174D02*
X13556372Y-14120650D01*
X13556372Y-14120650D02*
X13584943Y-14120650D01*
X13584943Y-14120650D02*
X13603991Y-14130174D01*
X13603991Y-14130174D02*
X13613515Y-14149222D01*
X13613515Y-14149222D02*
X13613515Y-14253984D01*
X14003991Y-14044460D02*
X13832563Y-14301603D01*
X14261134Y-14053984D02*
X14280182Y-14053984D01*
X14280182Y-14053984D02*
X14299229Y-14063508D01*
X14299229Y-14063508D02*
X14308753Y-14073031D01*
X14308753Y-14073031D02*
X14318277Y-14092079D01*
X14318277Y-14092079D02*
X14327801Y-14130174D01*
X14327801Y-14130174D02*
X14327801Y-14177793D01*
X14327801Y-14177793D02*
X14318277Y-14215888D01*
X14318277Y-14215888D02*
X14308753Y-14234936D01*
X14308753Y-14234936D02*
X14299229Y-14244460D01*
X14299229Y-14244460D02*
X14280182Y-14253984D01*
X14280182Y-14253984D02*
X14261134Y-14253984D01*
X14261134Y-14253984D02*
X14242086Y-14244460D01*
X14242086Y-14244460D02*
X14232563Y-14234936D01*
X14232563Y-14234936D02*
X14223039Y-14215888D01*
X14223039Y-14215888D02*
X14213515Y-14177793D01*
X14213515Y-14177793D02*
X14213515Y-14130174D01*
X14213515Y-14130174D02*
X14223039Y-14092079D01*
X14223039Y-14092079D02*
X14232563Y-14073031D01*
X14232563Y-14073031D02*
X14242086Y-14063508D01*
X14242086Y-14063508D02*
X14261134Y-14053984D01*
X14413515Y-14234936D02*
X14423039Y-14244460D01*
X14423039Y-14244460D02*
X14413515Y-14253984D01*
X14413515Y-14253984D02*
X14403991Y-14244460D01*
X14403991Y-14244460D02*
X14413515Y-14234936D01*
X14413515Y-14234936D02*
X14413515Y-14253984D01*
X14613515Y-14253984D02*
X14499229Y-14253984D01*
X14556372Y-14253984D02*
X14556372Y-14053984D01*
X14556372Y-14053984D02*
X14537325Y-14082555D01*
X14537325Y-14082555D02*
X14518277Y-14101603D01*
X14518277Y-14101603D02*
X14499229Y-14111127D01*
X14727801Y-14139698D02*
X14708753Y-14130174D01*
X14708753Y-14130174D02*
X14699229Y-14120650D01*
X14699229Y-14120650D02*
X14689706Y-14101603D01*
X14689706Y-14101603D02*
X14689706Y-14092079D01*
X14689706Y-14092079D02*
X14699229Y-14073031D01*
X14699229Y-14073031D02*
X14708753Y-14063508D01*
X14708753Y-14063508D02*
X14727801Y-14053984D01*
X14727801Y-14053984D02*
X14765896Y-14053984D01*
X14765896Y-14053984D02*
X14784944Y-14063508D01*
X14784944Y-14063508D02*
X14794467Y-14073031D01*
X14794467Y-14073031D02*
X14803991Y-14092079D01*
X14803991Y-14092079D02*
X14803991Y-14101603D01*
X14803991Y-14101603D02*
X14794467Y-14120650D01*
X14794467Y-14120650D02*
X14784944Y-14130174D01*
X14784944Y-14130174D02*
X14765896Y-14139698D01*
X14765896Y-14139698D02*
X14727801Y-14139698D01*
X14727801Y-14139698D02*
X14708753Y-14149222D01*
X14708753Y-14149222D02*
X14699229Y-14158746D01*
X14699229Y-14158746D02*
X14689706Y-14177793D01*
X14689706Y-14177793D02*
X14689706Y-14215888D01*
X14689706Y-14215888D02*
X14699229Y-14234936D01*
X14699229Y-14234936D02*
X14708753Y-14244460D01*
X14708753Y-14244460D02*
X14727801Y-14253984D01*
X14727801Y-14253984D02*
X14765896Y-14253984D01*
X14765896Y-14253984D02*
X14784944Y-14244460D01*
X14784944Y-14244460D02*
X14794467Y-14234936D01*
X14794467Y-14234936D02*
X14803991Y-14215888D01*
X14803991Y-14215888D02*
X14803991Y-14177793D01*
X14803991Y-14177793D02*
X14794467Y-14158746D01*
X14794467Y-14158746D02*
X14784944Y-14149222D01*
X14784944Y-14149222D02*
X14765896Y-14139698D01*
X14994467Y-14253984D02*
X14880182Y-14253984D01*
X14937325Y-14253984D02*
X14937325Y-14053984D01*
X14937325Y-14053984D02*
X14918277Y-14082555D01*
X14918277Y-14082555D02*
X14899229Y-14101603D01*
X14899229Y-14101603D02*
X14880182Y-14111127D01*
X15184944Y-14253984D02*
X15070658Y-14253984D01*
X15127801Y-14253984D02*
X15127801Y-14053984D01*
X15127801Y-14053984D02*
X15108753Y-14082555D01*
X15108753Y-14082555D02*
X15089706Y-14101603D01*
X15089706Y-14101603D02*
X15070658Y-14111127D01*
X15261134Y-14053984D02*
X15261134Y-14092079D01*
X15337325Y-14053984D02*
X15337325Y-14092079D01*
X15632563Y-14330174D02*
X15623039Y-14320650D01*
X15623039Y-14320650D02*
X15603991Y-14292079D01*
X15603991Y-14292079D02*
X15594468Y-14273031D01*
X15594468Y-14273031D02*
X15584944Y-14244460D01*
X15584944Y-14244460D02*
X15575420Y-14196841D01*
X15575420Y-14196841D02*
X15575420Y-14158746D01*
X15575420Y-14158746D02*
X15584944Y-14111127D01*
X15584944Y-14111127D02*
X15594468Y-14082555D01*
X15594468Y-14082555D02*
X15603991Y-14063508D01*
X15603991Y-14063508D02*
X15623039Y-14034936D01*
X15623039Y-14034936D02*
X15632563Y-14025412D01*
X15689706Y-14053984D02*
X15813515Y-14053984D01*
X15813515Y-14053984D02*
X15746848Y-14130174D01*
X15746848Y-14130174D02*
X15775420Y-14130174D01*
X15775420Y-14130174D02*
X15794468Y-14139698D01*
X15794468Y-14139698D02*
X15803991Y-14149222D01*
X15803991Y-14149222D02*
X15813515Y-14168269D01*
X15813515Y-14168269D02*
X15813515Y-14215888D01*
X15813515Y-14215888D02*
X15803991Y-14234936D01*
X15803991Y-14234936D02*
X15794468Y-14244460D01*
X15794468Y-14244460D02*
X15775420Y-14253984D01*
X15775420Y-14253984D02*
X15718277Y-14253984D01*
X15718277Y-14253984D02*
X15699229Y-14244460D01*
X15699229Y-14244460D02*
X15689706Y-14234936D01*
X16051610Y-14253984D02*
X16051610Y-14053984D01*
X16137325Y-14253984D02*
X16137325Y-14149222D01*
X16137325Y-14149222D02*
X16127801Y-14130174D01*
X16127801Y-14130174D02*
X16108753Y-14120650D01*
X16108753Y-14120650D02*
X16080182Y-14120650D01*
X16080182Y-14120650D02*
X16061134Y-14130174D01*
X16061134Y-14130174D02*
X16051610Y-14139698D01*
X16261134Y-14253984D02*
X16242087Y-14244460D01*
X16242087Y-14244460D02*
X16232563Y-14234936D01*
X16232563Y-14234936D02*
X16223039Y-14215888D01*
X16223039Y-14215888D02*
X16223039Y-14158746D01*
X16223039Y-14158746D02*
X16232563Y-14139698D01*
X16232563Y-14139698D02*
X16242087Y-14130174D01*
X16242087Y-14130174D02*
X16261134Y-14120650D01*
X16261134Y-14120650D02*
X16289706Y-14120650D01*
X16289706Y-14120650D02*
X16308753Y-14130174D01*
X16308753Y-14130174D02*
X16318277Y-14139698D01*
X16318277Y-14139698D02*
X16327801Y-14158746D01*
X16327801Y-14158746D02*
X16327801Y-14215888D01*
X16327801Y-14215888D02*
X16318277Y-14234936D01*
X16318277Y-14234936D02*
X16308753Y-14244460D01*
X16308753Y-14244460D02*
X16289706Y-14253984D01*
X16289706Y-14253984D02*
X16261134Y-14253984D01*
X16442087Y-14253984D02*
X16423039Y-14244460D01*
X16423039Y-14244460D02*
X16413515Y-14225412D01*
X16413515Y-14225412D02*
X16413515Y-14053984D01*
X16594468Y-14244460D02*
X16575420Y-14253984D01*
X16575420Y-14253984D02*
X16537325Y-14253984D01*
X16537325Y-14253984D02*
X16518277Y-14244460D01*
X16518277Y-14244460D02*
X16508753Y-14225412D01*
X16508753Y-14225412D02*
X16508753Y-14149222D01*
X16508753Y-14149222D02*
X16518277Y-14130174D01*
X16518277Y-14130174D02*
X16537325Y-14120650D01*
X16537325Y-14120650D02*
X16575420Y-14120650D01*
X16575420Y-14120650D02*
X16594468Y-14130174D01*
X16594468Y-14130174D02*
X16603991Y-14149222D01*
X16603991Y-14149222D02*
X16603991Y-14168269D01*
X16603991Y-14168269D02*
X16508753Y-14187317D01*
X16680182Y-14244460D02*
X16699230Y-14253984D01*
X16699230Y-14253984D02*
X16737325Y-14253984D01*
X16737325Y-14253984D02*
X16756372Y-14244460D01*
X16756372Y-14244460D02*
X16765896Y-14225412D01*
X16765896Y-14225412D02*
X16765896Y-14215888D01*
X16765896Y-14215888D02*
X16756372Y-14196841D01*
X16756372Y-14196841D02*
X16737325Y-14187317D01*
X16737325Y-14187317D02*
X16708753Y-14187317D01*
X16708753Y-14187317D02*
X16689706Y-14177793D01*
X16689706Y-14177793D02*
X16680182Y-14158746D01*
X16680182Y-14158746D02*
X16680182Y-14149222D01*
X16680182Y-14149222D02*
X16689706Y-14130174D01*
X16689706Y-14130174D02*
X16708753Y-14120650D01*
X16708753Y-14120650D02*
X16737325Y-14120650D01*
X16737325Y-14120650D02*
X16756372Y-14130174D01*
X16832563Y-14330174D02*
X16842087Y-14320650D01*
X16842087Y-14320650D02*
X16861134Y-14292079D01*
X16861134Y-14292079D02*
X16870658Y-14273031D01*
X16870658Y-14273031D02*
X16880182Y-14244460D01*
X16880182Y-14244460D02*
X16889706Y-14196841D01*
X16889706Y-14196841D02*
X16889706Y-14158746D01*
X16889706Y-14158746D02*
X16880182Y-14111127D01*
X16880182Y-14111127D02*
X16870658Y-14082555D01*
X16870658Y-14082555D02*
X16861134Y-14063508D01*
X16861134Y-14063508D02*
X16842087Y-14034936D01*
X16842087Y-14034936D02*
X16832563Y-14025412D01*
M02*
