M48
; DRILL file {KiCad 8.0.9-8.0.9-0~ubuntu22.04.1} date 2025-12-20T23:57:55-0700
; FORMAT={-:-/ absolute / metric / decimal}
; #@! TF.CreationDate,2025-12-20T23:57:55-07:00
; #@! TF.GenerationSoftware,Kicad,Pcbnew,8.0.9-8.0.9-0~ubuntu22.04.1
; #@! TF.FileFunction,Plated,1,4,PTH
FMAT,2
METRIC
; #@! TA.AperFunction,Plated,PTH,ViaDrill
T1C0.300
; #@! TA.AperFunction,Plated,PTH,ComponentDrill
T2C0.650
; #@! TA.AperFunction,Plated,PTH,ComponentDrill
T3C0.700
; #@! TA.AperFunction,Plated,PTH,ComponentDrill
T4C0.750
; #@! TA.AperFunction,Plated,PTH,ComponentDrill
T5C1.200
; #@! TA.AperFunction,Plated,PTH,ComponentDrill
T6C2.500
; #@! TA.AperFunction,Plated,PTH,ComponentDrill
T7C2.700
; #@! TA.AperFunction,Plated,PTH,ComponentDrill
T8C3.200
; #@! TA.AperFunction,Plated,PTH,ComponentDrill
T9C4.600
%
G90
G05
T1
X122.4Y-78.9
X122.4Y-79.8
X122.4Y-80.7
X122.4Y-99.1
X122.4Y-100.0
X122.4Y-100.9
X123.4Y-78.9
X123.4Y-79.8
X123.4Y-80.7
X123.4Y-99.1
X123.4Y-100.0
X123.4Y-100.9
X124.4Y-78.9
X124.4Y-79.8
X124.4Y-80.7
X124.4Y-99.1
X124.4Y-100.0
X124.4Y-100.9
X126.0Y-78.9
X126.0Y-79.8
X126.0Y-80.7
X126.0Y-99.1
X126.0Y-100.0
X126.0Y-100.9
X127.0Y-78.9
X127.0Y-79.8
X127.0Y-80.7
X127.0Y-99.1
X127.0Y-100.0
X127.0Y-100.9
X128.0Y-78.9
X128.0Y-79.8
X128.0Y-80.7
X128.0Y-99.1
X128.0Y-100.0
X128.0Y-100.9
X128.4Y-106.5
X128.4Y-110.1
X131.6Y-79.85
X131.6Y-80.75
X132.9Y-100.9
X134.6Y-76.35
X135.5Y-76.35
X136.3Y-90.15
X136.3Y-91.05
X137.8Y-80.4
X137.8Y-81.3
X137.95Y-94.5
X137.95Y-95.4
X138.9Y-105.5
X138.9Y-109.2
X139.2Y-68.8
X139.2Y-69.7
X139.2Y-70.6
X139.2Y-71.5
X139.2Y-72.4
X139.2Y-73.3
X139.2Y-74.2
X140.15Y-90.9
X140.15Y-91.8
X140.2Y-81.9
X140.2Y-82.8
X140.2Y-85.75
X140.2Y-86.65
X142.75Y-89.526
X142.774Y-88.026
X143.1Y-76.35
X143.1Y-77.25
X143.1Y-78.15
X143.75Y-71.45
X143.75Y-72.35
X143.75Y-73.55
X143.75Y-74.45
X144.8Y-87.1
X144.8Y-90.4
X145.4Y-81.1
X145.4Y-82.0
X145.75Y-88.026
X145.8Y-74.275
X146.4Y-80.65
X146.4Y-81.55
X146.4Y-82.45
X147.45Y-80.65
X147.45Y-81.55
X147.45Y-82.45
X148.3Y-90.3
X148.35Y-87.45
X148.35Y-88.3
X148.35Y-89.15
X148.35Y-91.25
X148.8Y-76.25
X148.8Y-77.15
X149.35Y-84.6
X150.15Y-76.3
X150.25Y-84.6
X150.7Y-90.3
X151.85Y-95.1
X152.2Y-88.2
X152.7Y-97.65
X152.7Y-98.55
X152.7Y-99.5
X153.15Y-88.2
X153.5Y-92.35
X154.1Y-88.2
X154.4Y-92.35
X154.55Y-78.05
X155.55Y-94.5
X155.75Y-93.45
X156.2Y-89.9
X156.9Y-89.15
X157.15Y-76.275
X157.85Y-88.5
X158.525Y-96.375
X159.25Y-92.0
X159.4Y-85.4
X159.4Y-86.9
X160.0Y-105.4
X160.0Y-93.2
X161.176Y-109.275
X161.325Y-80.775
X161.55Y-88.9
X162.4Y-88.05
X162.9Y-91.4
X162.976Y-109.275
X163.0Y-100.75
X163.05Y-95.05
X163.2Y-89.2
X163.55Y-99.0
X163.8Y-90.9
X163.95Y-78.4
X164.05Y-95.4
X164.285Y-82.435
X164.35Y-76.7
X164.55Y-97.75
X164.8Y-89.6
X166.25Y-97.8
X166.35Y-95.35
X166.45Y-89.55
X166.6Y-90.6
X166.65Y-105.35
X167.35Y-97.8
X168.05Y-95.4
X168.4Y-80.2
X168.57Y-72.836
X168.7Y-91.65
X168.7Y-93.15
X168.85Y-105.5
X168.9Y-90.05
X169.3Y-96.55
X169.834Y-78.35
X170.0Y-99.0
X170.05Y-88.8
X170.55Y-100.75
X171.05Y-87.25
X171.11Y-72.874
X172.0Y-91.85
X172.0Y-93.3
X172.025Y-97.55
X172.384Y-72.85
X173.284Y-78.35
X173.4Y-94.7
X173.4Y-97.85
X173.45Y-92.05
X173.8Y-88.2
X173.95Y-85.5
X174.2Y-92.8
X174.35Y-94.2
X174.35Y-97.0
X174.625Y-101.675
X174.8Y-108.4
X174.875Y-100.375
X175.0Y-90.5
X175.2Y-75.3
X175.2Y-104.15
X175.8Y-91.2
X176.15Y-105.35
X176.8Y-93.4
X176.9Y-96.3
X177.095Y-71.295
X177.095Y-72.195
X177.095Y-73.095
X177.095Y-98.895
X177.095Y-99.795
X177.095Y-100.695
X177.1Y-85.095
X177.1Y-85.995
X177.1Y-86.895
X177.15Y-88.465
X177.15Y-89.735
X178.6Y-83.6
X179.55Y-80.495
X179.6Y-94.265
X179.655Y-81.445
X179.721Y-108.086
X179.75Y-77.25
X179.75Y-78.15
X179.75Y-91.055
X179.75Y-91.955
X179.75Y-104.855
X179.75Y-105.755
X180.4Y-93.342
X180.65Y-77.245
X180.65Y-78.145
X180.65Y-91.05
X180.65Y-91.95
X180.65Y-104.85
X180.65Y-105.75
X180.7Y-82.55
X181.395Y-70.495
X181.395Y-71.395
X181.395Y-72.295
X181.395Y-98.995
X181.395Y-99.895
X181.4Y-84.295
X181.4Y-85.195
X181.4Y-86.095
X181.4Y-98.095
X182.15Y-78.945
X182.15Y-92.715
X182.295Y-106.46
X182.395Y-69.595
X182.395Y-70.495
X182.395Y-71.395
X182.395Y-72.295
X182.395Y-97.195
X182.395Y-98.095
X182.395Y-98.995
X182.395Y-99.895
X182.4Y-83.395
X182.4Y-84.295
X182.4Y-85.195
X182.4Y-86.095
X183.2Y-80.795
X183.25Y-94.515
X183.345Y-108.31
X188.532Y-81.4
X188.6Y-94.0
X188.632Y-95.2
X188.65Y-80.1
X188.65Y-108.8
X188.75Y-107.7
X191.295Y-69.095
X191.301Y-96.545
X191.351Y-82.872
X191.495Y-74.345
X191.495Y-75.245
X191.495Y-76.145
X191.495Y-77.045
X191.495Y-101.795
X191.495Y-102.695
X191.495Y-103.595
X191.495Y-104.495
X191.55Y-88.1
X191.55Y-89.0
X191.55Y-89.9
X191.55Y-90.8
X192.295Y-69.095
X192.301Y-96.545
X192.351Y-82.872
X192.495Y-74.345
X192.495Y-75.245
X192.495Y-76.145
X192.495Y-77.045
X192.495Y-101.795
X192.495Y-102.695
X192.495Y-103.595
X192.495Y-104.495
X192.55Y-88.1
X192.55Y-89.0
X192.55Y-89.9
X192.55Y-90.8
X195.3Y-108.8
X195.332Y-81.4
X195.4Y-95.2
X200.995Y-81.545
X200.995Y-82.545
X200.995Y-109.045
X200.995Y-110.045
X201.05Y-95.3
X201.05Y-96.3
X201.895Y-81.545
X201.895Y-82.545
X201.895Y-109.045
X201.895Y-110.045
X201.95Y-95.3
X201.95Y-96.3
X202.795Y-81.545
X202.795Y-82.545
X202.795Y-109.045
X202.795Y-110.045
X202.85Y-95.3
X202.85Y-96.3
X203.695Y-81.545
X203.695Y-82.545
X203.695Y-109.045
X203.695Y-110.045
X203.75Y-95.3
X203.75Y-96.3
X205.775Y-82.725
X205.85Y-110.225
X205.875Y-96.525
X208.85Y-89.25
X208.85Y-90.25
X208.85Y-91.3
X208.85Y-92.4
X208.85Y-93.45
X213.35Y-82.6
X214.4Y-82.6
X215.5Y-82.6
X216.55Y-82.6
X217.55Y-82.6
X222.05Y-89.25
X222.05Y-90.3
X222.05Y-91.4
X222.05Y-92.45
X222.05Y-93.45
T2
X154.125Y-81.154
X154.125Y-82.424
X155.395Y-81.154
X155.395Y-82.424
T4
X151.05Y-73.625
X153.05Y-73.625
X158.5Y-73.625
X160.5Y-73.625
T5
X169.2Y-110.0
X197.7Y-110.3
X197.75Y-82.85
X197.9Y-96.7
X204.95Y-72.05
X204.95Y-99.45
X205.05Y-85.75
T6
X141.43Y-102.188
X154.57Y-102.188
T7
X133.539Y-86.3
X133.539Y-93.5
T8
X124.6Y-71.4
X124.6Y-108.4
X219.1Y-71.4
X219.1Y-108.4
T9
X212.7Y-91.35
X215.45Y-86.6
X218.2Y-91.35
T3
X126.989Y-83.15G85X128.089Y-83.15
G05
X126.989Y-96.65G85X128.089Y-96.65
G05
M30
