%TF.GenerationSoftware,KiCad,Pcbnew,8.0.9-8.0.9-0~ubuntu22.04.1*%
%TF.CreationDate,2025-12-20T23:57:42-07:00*%
%TF.ProjectId,ESC_KiCAD,4553435f-4b69-4434-9144-2e6b69636164,A*%
%TF.SameCoordinates,Original*%
%TF.FileFunction,Paste,Top*%
%TF.FilePolarity,Positive*%
%FSLAX46Y46*%
G04 Gerber Fmt 4.6, Leading zero omitted, Abs format (unit mm)*
G04 Created by KiCad (PCBNEW 8.0.9-8.0.9-0~ubuntu22.04.1) date 2025-12-20 23:57:42*
%MOMM*%
%LPD*%
G01*
G04 APERTURE LIST*
G04 Aperture macros list*
%AMRoundRect*
0 Rectangle with rounded corners*
0 $1 Rounding radius*
0 $2 $3 $4 $5 $6 $7 $8 $9 X,Y pos of 4 corners*
0 Add a 4 corners polygon primitive as box body*
4,1,4,$2,$3,$4,$5,$6,$7,$8,$9,$2,$3,0*
0 Add four circle primitives for the rounded corners*
1,1,$1+$1,$2,$3*
1,1,$1+$1,$4,$5*
1,1,$1+$1,$6,$7*
1,1,$1+$1,$8,$9*
0 Add four rect primitives between the rounded corners*
20,1,$1+$1,$2,$3,$4,$5,0*
20,1,$1+$1,$4,$5,$6,$7,0*
20,1,$1+$1,$6,$7,$8,$9,0*
20,1,$1+$1,$8,$9,$2,$3,0*%
G04 Aperture macros list end*
%ADD10RoundRect,0.050000X0.725000X0.250000X-0.725000X0.250000X-0.725000X-0.250000X0.725000X-0.250000X0*%
%ADD11R,0.800000X0.900000*%
%ADD12R,1.120000X2.880000*%
%ADD13RoundRect,0.050000X-0.100000X0.285000X-0.100000X-0.285000X0.100000X-0.285000X0.100000X0.285000X0*%
%ADD14R,2.150000X3.250000*%
%ADD15R,2.150000X0.950000*%
%ADD16RoundRect,0.050000X0.500000X-0.250000X0.500000X0.250000X-0.500000X0.250000X-0.500000X-0.250000X0*%
%ADD17RoundRect,0.250000X0.450000X-0.262500X0.450000X0.262500X-0.450000X0.262500X-0.450000X-0.262500X0*%
%ADD18RoundRect,0.200000X0.200000X0.275000X-0.200000X0.275000X-0.200000X-0.275000X0.200000X-0.275000X0*%
%ADD19RoundRect,0.250000X0.650000X-0.325000X0.650000X0.325000X-0.650000X0.325000X-0.650000X-0.325000X0*%
%ADD20RoundRect,0.218750X0.218750X0.256250X-0.218750X0.256250X-0.218750X-0.256250X0.218750X-0.256250X0*%
%ADD21RoundRect,0.200000X0.275000X-0.200000X0.275000X0.200000X-0.275000X0.200000X-0.275000X-0.200000X0*%
%ADD22RoundRect,0.500000X-3.000000X-0.500000X3.000000X-0.500000X3.000000X0.500000X-3.000000X0.500000X0*%
%ADD23RoundRect,0.225000X-0.225000X-0.250000X0.225000X-0.250000X0.225000X0.250000X-0.225000X0.250000X0*%
%ADD24RoundRect,0.225000X-0.250000X0.225000X-0.250000X-0.225000X0.250000X-0.225000X0.250000X0.225000X0*%
%ADD25R,0.900000X0.800000*%
%ADD26RoundRect,0.250000X-0.250000X-0.475000X0.250000X-0.475000X0.250000X0.475000X-0.250000X0.475000X0*%
%ADD27RoundRect,0.200000X-0.200000X-0.275000X0.200000X-0.275000X0.200000X0.275000X-0.200000X0.275000X0*%
%ADD28RoundRect,0.250000X-0.312500X-0.625000X0.312500X-0.625000X0.312500X0.625000X-0.312500X0.625000X0*%
%ADD29RoundRect,0.150000X0.150000X0.375000X-0.150000X0.375000X-0.150000X-0.375000X0.150000X-0.375000X0*%
%ADD30R,0.600000X0.900000*%
%ADD31R,0.900000X0.600000*%
%ADD32RoundRect,0.150000X-0.375000X0.150000X-0.375000X-0.150000X0.375000X-0.150000X0.375000X0.150000X0*%
%ADD33R,0.304800X1.193800*%
%ADD34R,1.193800X0.304800*%
%ADD35RoundRect,0.250000X0.250000X0.475000X-0.250000X0.475000X-0.250000X-0.475000X0.250000X-0.475000X0*%
%ADD36RoundRect,0.250000X-0.325000X-0.650000X0.325000X-0.650000X0.325000X0.650000X-0.325000X0.650000X0*%
%ADD37RoundRect,0.225000X0.225000X0.250000X-0.225000X0.250000X-0.225000X-0.250000X0.225000X-0.250000X0*%
%ADD38RoundRect,0.200000X-0.275000X0.200000X-0.275000X-0.200000X0.275000X-0.200000X0.275000X0.200000X0*%
%ADD39RoundRect,0.250000X-0.262500X-0.450000X0.262500X-0.450000X0.262500X0.450000X-0.262500X0.450000X0*%
%ADD40RoundRect,0.140000X0.140000X0.170000X-0.140000X0.170000X-0.140000X-0.170000X0.140000X-0.170000X0*%
%ADD41RoundRect,0.250000X0.325000X0.650000X-0.325000X0.650000X-0.325000X-0.650000X0.325000X-0.650000X0*%
%ADD42R,1.900000X2.200000*%
%ADD43RoundRect,0.225000X0.250000X-0.225000X0.250000X0.225000X-0.250000X0.225000X-0.250000X-0.225000X0*%
%ADD44RoundRect,0.050000X-0.725000X-0.250000X0.725000X-0.250000X0.725000X0.250000X-0.725000X0.250000X0*%
%ADD45R,2.200000X5.700000*%
%ADD46R,1.050000X0.650000*%
%ADD47RoundRect,0.250000X-0.475000X0.250000X-0.475000X-0.250000X0.475000X-0.250000X0.475000X0.250000X0*%
%ADD48RoundRect,0.250000X0.475000X-0.250000X0.475000X0.250000X-0.475000X0.250000X-0.475000X-0.250000X0*%
%ADD49R,0.900000X0.950000*%
%ADD50R,0.800000X2.400000*%
%ADD51R,1.200000X1.000000*%
%ADD52R,2.200000X1.900000*%
G04 APERTURE END LIST*
D10*
X157400000Y-83705000D03*
X157400000Y-82435000D03*
X157400000Y-81165000D03*
X157400000Y-79895000D03*
X162800000Y-79895000D03*
X162800000Y-81165000D03*
X162800000Y-82435000D03*
X162800000Y-83705000D03*
D11*
X153624400Y-78050000D03*
X152674400Y-76050000D03*
X154574400Y-76050000D03*
D12*
X151500000Y-98608100D03*
X149000000Y-98608100D03*
X147000000Y-98608100D03*
X144500000Y-98608100D03*
D13*
X145000189Y-89525600D03*
X144500063Y-89525600D03*
X144000000Y-89525600D03*
X143500000Y-89525600D03*
X143500000Y-88025600D03*
X144000000Y-88025600D03*
X144500000Y-88025600D03*
X145000189Y-88025600D03*
D14*
X149300000Y-81550000D03*
D15*
X143500000Y-83850000D03*
X143500000Y-81550000D03*
X143500000Y-79250000D03*
D16*
X137700000Y-77249999D03*
X137700000Y-78200000D03*
X137700000Y-79149998D03*
X135100000Y-79149998D03*
X135100000Y-78200000D03*
X135100000Y-77250000D03*
D17*
X189650000Y-86637500D03*
X189650000Y-88462500D03*
D11*
X173284400Y-79300000D03*
X172334400Y-77300000D03*
X174234400Y-77300000D03*
D18*
X139275000Y-80500000D03*
X140925000Y-80500000D03*
D19*
X191850000Y-84025000D03*
X191850000Y-86975000D03*
D20*
X192493450Y-95200000D03*
X194068450Y-95200000D03*
D21*
X187255000Y-92875000D03*
X187255000Y-94525000D03*
D22*
X125200000Y-77000000D03*
D23*
X180170000Y-73195000D03*
X178620000Y-73195000D03*
D24*
X182150000Y-81470000D03*
X182150000Y-79920000D03*
D25*
X152800000Y-95100000D03*
X150800000Y-96050000D03*
X150800000Y-94150000D03*
D26*
X180150000Y-85195000D03*
X178250000Y-85195000D03*
D27*
X137837500Y-105500000D03*
X136187500Y-105500000D03*
D20*
X192444050Y-81400000D03*
X194019050Y-81400000D03*
D18*
X184225000Y-80745000D03*
X185875000Y-80745000D03*
D28*
X186757500Y-96895000D03*
X183832500Y-96895000D03*
D26*
X143250000Y-86200000D03*
X141350000Y-86200000D03*
D25*
X180600000Y-95215000D03*
X178600000Y-96165000D03*
X178600000Y-94265000D03*
D29*
X205205000Y-107720000D03*
X203935000Y-107720000D03*
X202665000Y-107720000D03*
X201395000Y-107720000D03*
D30*
X205205000Y-101995000D03*
X203935000Y-101995000D03*
X202665000Y-101995000D03*
X201395000Y-101995000D03*
D31*
X204450000Y-102995000D03*
X203300000Y-102995000D03*
X202150000Y-102995000D03*
X204450000Y-103845000D03*
X203300000Y-103845000D03*
X202150000Y-103845000D03*
X204450000Y-104695000D03*
X203300000Y-104695000D03*
X202150000Y-104695000D03*
X204450000Y-105545000D03*
X203300000Y-105545000D03*
X202150000Y-105545000D03*
D32*
X199525000Y-86845000D03*
X199525000Y-88115000D03*
X199525000Y-89385000D03*
X199525000Y-90655000D03*
D31*
X193800000Y-86845000D03*
X193800000Y-88115000D03*
X193800000Y-89385000D03*
X193800000Y-90655000D03*
D30*
X194800000Y-87600000D03*
X194800000Y-88750000D03*
X194800000Y-89900000D03*
X195650000Y-87600000D03*
X195650000Y-88750000D03*
X195650000Y-89900000D03*
X196500000Y-87600000D03*
X196500000Y-88750000D03*
X196500000Y-89900000D03*
X197350000Y-87600000D03*
X197350000Y-88750000D03*
X197350000Y-89900000D03*
D18*
X160325000Y-85399999D03*
X161975000Y-85399999D03*
D27*
X202620000Y-100395000D03*
X200970000Y-100395000D03*
D33*
X163050000Y-88050000D03*
X163549999Y-88050000D03*
X164050001Y-88050000D03*
X164550000Y-88050000D03*
X165049999Y-88050000D03*
X165550000Y-88050000D03*
X166050000Y-88050000D03*
X166550001Y-88050000D03*
X167050000Y-88050000D03*
X167549999Y-88050000D03*
X168050001Y-88050000D03*
X168550000Y-88050000D03*
D34*
X170049999Y-89549999D03*
X170049999Y-90049998D03*
X170049999Y-90550000D03*
X170049999Y-91049999D03*
X170049999Y-91549998D03*
X170049999Y-92049999D03*
X170049999Y-92549999D03*
X170049999Y-93050000D03*
X170049999Y-93549999D03*
X170049999Y-94049998D03*
X170049999Y-94550000D03*
X170049999Y-95049999D03*
D33*
X168550000Y-96549998D03*
X168050001Y-96549998D03*
X167549999Y-96549998D03*
X167050000Y-96549998D03*
X166550001Y-96549998D03*
X166050000Y-96549998D03*
X165550000Y-96549998D03*
X165049999Y-96549998D03*
X164550000Y-96549998D03*
X164050001Y-96549998D03*
X163549999Y-96549998D03*
X163050000Y-96549998D03*
D34*
X161550001Y-95049999D03*
X161550001Y-94550000D03*
X161550001Y-94049998D03*
X161550001Y-93549999D03*
X161550001Y-93050000D03*
X161550001Y-92549999D03*
X161550001Y-92049999D03*
X161550001Y-91549998D03*
X161550001Y-91049999D03*
X161550001Y-90550000D03*
X161550001Y-90049998D03*
X161550001Y-89549999D03*
D35*
X183900000Y-106595000D03*
X185800000Y-106595000D03*
D17*
X189595000Y-72832500D03*
X189595000Y-74657500D03*
D36*
X147575000Y-76700000D03*
X144625000Y-76700000D03*
D37*
X170475000Y-96549999D03*
X172025000Y-96549999D03*
D23*
X160375000Y-88499999D03*
X158825000Y-88499999D03*
D38*
X206950000Y-93775000D03*
X206950000Y-92125000D03*
X146800000Y-74275000D03*
X146800000Y-72625000D03*
D21*
X187250000Y-79015000D03*
X187250000Y-80665000D03*
D24*
X182295000Y-109035000D03*
X182295000Y-107485000D03*
D27*
X202620000Y-72945000D03*
X200970000Y-72945000D03*
D38*
X206850000Y-79965000D03*
X206850000Y-78315000D03*
D27*
X172625000Y-107700000D03*
X170975000Y-107700000D03*
D38*
X140850000Y-79125000D03*
X140850000Y-77475000D03*
X199650000Y-94750000D03*
X199650000Y-93100000D03*
D11*
X169834400Y-79300000D03*
X168884400Y-77300000D03*
X170784400Y-77300000D03*
D38*
X199595000Y-108470000D03*
X199595000Y-106820000D03*
D26*
X143200000Y-91350000D03*
X141300000Y-91350000D03*
D19*
X191795000Y-70270000D03*
X191795000Y-73220000D03*
D23*
X162875000Y-78400000D03*
X161325000Y-78400000D03*
D39*
X198062500Y-94000000D03*
X196237500Y-94000000D03*
D23*
X180175000Y-86995000D03*
X178625000Y-86995000D03*
D20*
X132900000Y-109200000D03*
X134475000Y-109200000D03*
D40*
X156520001Y-93449999D03*
X157480001Y-93449999D03*
D37*
X136725000Y-75800000D03*
X138275000Y-75800000D03*
D29*
X205200000Y-80270000D03*
X203930000Y-80270000D03*
X202660000Y-80270000D03*
X201390000Y-80270000D03*
D30*
X205200000Y-74545000D03*
X203930000Y-74545000D03*
X202660000Y-74545000D03*
X201390000Y-74545000D03*
D31*
X204445000Y-75545000D03*
X203295000Y-75545000D03*
X202145000Y-75545000D03*
X204445000Y-76395000D03*
X203295000Y-76395000D03*
X202145000Y-76395000D03*
X204445000Y-77245000D03*
X203295000Y-77245000D03*
X202145000Y-77245000D03*
X204445000Y-78095000D03*
X203295000Y-78095000D03*
X202145000Y-78095000D03*
D39*
X198007500Y-80145000D03*
X196182500Y-80145000D03*
D28*
X186762500Y-83095000D03*
X183837500Y-83095000D03*
D38*
X206850000Y-107475000D03*
X206850000Y-105825000D03*
D24*
X139350000Y-79075000D03*
X139350000Y-77525000D03*
D27*
X191206550Y-95200000D03*
X189556550Y-95200000D03*
D26*
X142500000Y-71900000D03*
X140600000Y-71900000D03*
D23*
X161925000Y-86899999D03*
X160375000Y-86899999D03*
D27*
X202675000Y-86700000D03*
X201025000Y-86700000D03*
D41*
X130425000Y-80300000D03*
X133375000Y-80300000D03*
D42*
X137900000Y-90588100D03*
X137900000Y-86388100D03*
D22*
X125200000Y-102800000D03*
D37*
X135125000Y-80800000D03*
X136675000Y-80800000D03*
D27*
X191181550Y-81400000D03*
X189531550Y-81400000D03*
D43*
X156100000Y-76275000D03*
X156100000Y-77825000D03*
D44*
X187495000Y-100990000D03*
X187495000Y-102260000D03*
X187495000Y-103530000D03*
X187495000Y-104800000D03*
X182095000Y-104800000D03*
X182095000Y-103530000D03*
X182095000Y-102260000D03*
X182095000Y-100990000D03*
D38*
X152345000Y-81125000D03*
X152345000Y-79475000D03*
D27*
X137825000Y-109200000D03*
X136175000Y-109200000D03*
D43*
X206850000Y-108675000D03*
X206850000Y-110225000D03*
D45*
X137200000Y-71400000D03*
X132200000Y-71400000D03*
D17*
X189595000Y-100432500D03*
X189595000Y-102257500D03*
D37*
X171225000Y-88499999D03*
X172775000Y-88499999D03*
D35*
X183805000Y-92800000D03*
X185705000Y-92800000D03*
D27*
X172625000Y-104800000D03*
X170975000Y-104800000D03*
D38*
X146850000Y-89525000D03*
X146850000Y-87875000D03*
D43*
X206950000Y-94975000D03*
X206950000Y-96525000D03*
D27*
X191212500Y-108800000D03*
X189562500Y-108800000D03*
D43*
X151150000Y-76300000D03*
X151150000Y-77850000D03*
D35*
X183832500Y-79040000D03*
X185732500Y-79040000D03*
D18*
X184225000Y-94515000D03*
X185875000Y-94515000D03*
D21*
X187350000Y-106620000D03*
X187350000Y-108270000D03*
D16*
X152100000Y-89349999D03*
X152100000Y-91249998D03*
X149500000Y-91249998D03*
X149500000Y-90300000D03*
X149500000Y-89350000D03*
D46*
X164150600Y-109275000D03*
X160000600Y-109275000D03*
X164150600Y-107125000D03*
X160000600Y-107125000D03*
D27*
X158125001Y-94899999D03*
X156475001Y-94899999D03*
D26*
X142500000Y-74000000D03*
X140600000Y-74000000D03*
D39*
X197907500Y-107595000D03*
X196082500Y-107595000D03*
D44*
X187495000Y-73390000D03*
X187495000Y-74660000D03*
X187495000Y-75930000D03*
X187495000Y-77200000D03*
X182095000Y-77200000D03*
X182095000Y-75930000D03*
X182095000Y-74660000D03*
X182095000Y-73390000D03*
D25*
X180600000Y-81445000D03*
X178600000Y-82395000D03*
X178600000Y-80495000D03*
D47*
X149800000Y-87600000D03*
X149800000Y-85700000D03*
D48*
X153950000Y-89350000D03*
X153950000Y-91250000D03*
D37*
X167475000Y-98999999D03*
X169025000Y-98999999D03*
D28*
X186757500Y-69295000D03*
X183832500Y-69295000D03*
D35*
X167600000Y-100749999D03*
X169500000Y-100749999D03*
D20*
X132925000Y-105500000D03*
X134500000Y-105500000D03*
D18*
X184320000Y-108310000D03*
X185970000Y-108310000D03*
D29*
X205255000Y-94025000D03*
X203985000Y-94025000D03*
X202715000Y-94025000D03*
X201445000Y-94025000D03*
D30*
X205255000Y-88300000D03*
X203985000Y-88300000D03*
X202715000Y-88300000D03*
X201445000Y-88300000D03*
D31*
X204500000Y-89300000D03*
X203350000Y-89300000D03*
X202200000Y-89300000D03*
X204500000Y-90150000D03*
X203350000Y-90150000D03*
X202200000Y-90150000D03*
X204500000Y-91000000D03*
X203350000Y-91000000D03*
X202200000Y-91000000D03*
X204500000Y-91850000D03*
X203350000Y-91850000D03*
X202200000Y-91850000D03*
D24*
X182150000Y-95240000D03*
X182150000Y-93690000D03*
D26*
X165950000Y-100749999D03*
X164050000Y-100749999D03*
X172050000Y-86750000D03*
X173950000Y-86750000D03*
D20*
X145262500Y-70950000D03*
X146837500Y-70950000D03*
D49*
X184620000Y-99095000D03*
X187770000Y-99095000D03*
X184620000Y-71495000D03*
X187770000Y-71495000D03*
D50*
X168570000Y-75000000D03*
X168570000Y-71099998D03*
X169840000Y-75000000D03*
X169840000Y-71099998D03*
X171110000Y-75000000D03*
X171110000Y-71099998D03*
X172380000Y-75000000D03*
X172380000Y-71099998D03*
X173650000Y-75000000D03*
X173650000Y-71099998D03*
D43*
X159600001Y-94824999D03*
X159600001Y-96374999D03*
D20*
X192462500Y-108800000D03*
X194037500Y-108800000D03*
D32*
X199470000Y-73090000D03*
X199470000Y-74360000D03*
X199470000Y-75630000D03*
X199470000Y-76900000D03*
D31*
X193745000Y-73090000D03*
X193745000Y-74360000D03*
X193745000Y-75630000D03*
X193745000Y-76900000D03*
D30*
X194745000Y-73845000D03*
X194745000Y-74995000D03*
X194745000Y-76145000D03*
X195595000Y-73845000D03*
X195595000Y-74995000D03*
X195595000Y-76145000D03*
X196445000Y-73845000D03*
X196445000Y-74995000D03*
X196445000Y-76145000D03*
X197295000Y-73845000D03*
X197295000Y-74995000D03*
X197295000Y-76145000D03*
D40*
X157470001Y-89749999D03*
X158430001Y-89749999D03*
D24*
X141350000Y-83875000D03*
X141350000Y-82325000D03*
D25*
X169700000Y-106300000D03*
X167700000Y-107250000D03*
X167700000Y-105350000D03*
D26*
X180145000Y-98995000D03*
X178245000Y-98995000D03*
D38*
X199595000Y-80970000D03*
X199595000Y-79320000D03*
D23*
X180170000Y-100795000D03*
X178620000Y-100795000D03*
D38*
X152345000Y-84075000D03*
X152345000Y-82425000D03*
D49*
X184625000Y-85295000D03*
X187775000Y-85295000D03*
D23*
X166075000Y-98999999D03*
X164525000Y-98999999D03*
D44*
X187500000Y-87195000D03*
X187500000Y-88465000D03*
X187500000Y-89735000D03*
X187500000Y-91005000D03*
X182100000Y-91005000D03*
X182100000Y-89735000D03*
X182100000Y-88465000D03*
X182100000Y-87195000D03*
D51*
X158100001Y-92249999D03*
X156400001Y-92249999D03*
X156400001Y-90949999D03*
X158100001Y-90949999D03*
D52*
X139750000Y-94950000D03*
X143950000Y-94950000D03*
D26*
X180145000Y-71395000D03*
X178245000Y-71395000D03*
D43*
X206850000Y-81175000D03*
X206850000Y-82725000D03*
D32*
X199470000Y-100540000D03*
X199470000Y-101810000D03*
X199470000Y-103080000D03*
X199470000Y-104350000D03*
D31*
X193745000Y-100540000D03*
X193745000Y-101810000D03*
X193745000Y-103080000D03*
X193745000Y-104350000D03*
D30*
X194745000Y-101295000D03*
X194745000Y-102445000D03*
X194745000Y-103595000D03*
X195595000Y-101295000D03*
X195595000Y-102445000D03*
X195595000Y-103595000D03*
X196445000Y-101295000D03*
X196445000Y-102445000D03*
X196445000Y-103595000D03*
X197295000Y-101295000D03*
X197295000Y-102445000D03*
X197295000Y-103595000D03*
D27*
X172625000Y-106250000D03*
X170975000Y-106250000D03*
D25*
X180745000Y-109035600D03*
X178745000Y-109985600D03*
X178745000Y-108085600D03*
D26*
X163250000Y-76700000D03*
X161350000Y-76700000D03*
D19*
X191800000Y-97720000D03*
X191800000Y-100670000D03*
M02*
