%TF.GenerationSoftware,KiCad,Pcbnew,8.0.9-8.0.9-0~ubuntu22.04.1*%
%TF.CreationDate,2025-12-20T23:57:57-07:00*%
%TF.ProjectId,ESC_KiCAD,4553435f-4b69-4434-9144-2e6b69636164,A*%
%TF.SameCoordinates,Original*%
%TF.FileFunction,Drillmap*%
%TF.FilePolarity,Positive*%
%FSLAX45Y45*%
G04 Gerber Fmt 4.5, Leading zero omitted, Abs format (unit mm)*
G04 Created by KiCad (PCBNEW 8.0.9-8.0.9-0~ubuntu22.04.1) date 2025-12-20 23:57:57*
%MOMM*%
%LPD*%
G01*
G04 APERTURE LIST*
%ADD10C,0.050000*%
%ADD11C,0.200000*%
G04 APERTURE END LIST*
D10*
X12060000Y-6740000D02*
X22310000Y-6740000D01*
X22310000Y-11240000D01*
X12060000Y-11240000D01*
X12060000Y-6740000D01*
D11*
X12318277Y-11553984D02*
X12318277Y-11353984D01*
X12318277Y-11353984D02*
X12365896Y-11353984D01*
X12365896Y-11353984D02*
X12394467Y-11363508D01*
X12394467Y-11363508D02*
X12413515Y-11382555D01*
X12413515Y-11382555D02*
X12423039Y-11401603D01*
X12423039Y-11401603D02*
X12432562Y-11439698D01*
X12432562Y-11439698D02*
X12432562Y-11468269D01*
X12432562Y-11468269D02*
X12423039Y-11506365D01*
X12423039Y-11506365D02*
X12413515Y-11525412D01*
X12413515Y-11525412D02*
X12394467Y-11544460D01*
X12394467Y-11544460D02*
X12365896Y-11553984D01*
X12365896Y-11553984D02*
X12318277Y-11553984D01*
X12518277Y-11553984D02*
X12518277Y-11420650D01*
X12518277Y-11458746D02*
X12527801Y-11439698D01*
X12527801Y-11439698D02*
X12537324Y-11430174D01*
X12537324Y-11430174D02*
X12556372Y-11420650D01*
X12556372Y-11420650D02*
X12575420Y-11420650D01*
X12642086Y-11553984D02*
X12642086Y-11420650D01*
X12642086Y-11353984D02*
X12632562Y-11363508D01*
X12632562Y-11363508D02*
X12642086Y-11373031D01*
X12642086Y-11373031D02*
X12651610Y-11363508D01*
X12651610Y-11363508D02*
X12642086Y-11353984D01*
X12642086Y-11353984D02*
X12642086Y-11373031D01*
X12765896Y-11553984D02*
X12746848Y-11544460D01*
X12746848Y-11544460D02*
X12737324Y-11525412D01*
X12737324Y-11525412D02*
X12737324Y-11353984D01*
X12870658Y-11553984D02*
X12851610Y-11544460D01*
X12851610Y-11544460D02*
X12842086Y-11525412D01*
X12842086Y-11525412D02*
X12842086Y-11353984D01*
X13099229Y-11553984D02*
X13099229Y-11353984D01*
X13099229Y-11353984D02*
X13165896Y-11496841D01*
X13165896Y-11496841D02*
X13232562Y-11353984D01*
X13232562Y-11353984D02*
X13232562Y-11553984D01*
X13413515Y-11553984D02*
X13413515Y-11449222D01*
X13413515Y-11449222D02*
X13403991Y-11430174D01*
X13403991Y-11430174D02*
X13384943Y-11420650D01*
X13384943Y-11420650D02*
X13346848Y-11420650D01*
X13346848Y-11420650D02*
X13327801Y-11430174D01*
X13413515Y-11544460D02*
X13394467Y-11553984D01*
X13394467Y-11553984D02*
X13346848Y-11553984D01*
X13346848Y-11553984D02*
X13327801Y-11544460D01*
X13327801Y-11544460D02*
X13318277Y-11525412D01*
X13318277Y-11525412D02*
X13318277Y-11506365D01*
X13318277Y-11506365D02*
X13327801Y-11487317D01*
X13327801Y-11487317D02*
X13346848Y-11477793D01*
X13346848Y-11477793D02*
X13394467Y-11477793D01*
X13394467Y-11477793D02*
X13413515Y-11468269D01*
X13508753Y-11420650D02*
X13508753Y-11620650D01*
X13508753Y-11430174D02*
X13527801Y-11420650D01*
X13527801Y-11420650D02*
X13565896Y-11420650D01*
X13565896Y-11420650D02*
X13584943Y-11430174D01*
X13584943Y-11430174D02*
X13594467Y-11439698D01*
X13594467Y-11439698D02*
X13603991Y-11458746D01*
X13603991Y-11458746D02*
X13603991Y-11515888D01*
X13603991Y-11515888D02*
X13594467Y-11534936D01*
X13594467Y-11534936D02*
X13584943Y-11544460D01*
X13584943Y-11544460D02*
X13565896Y-11553984D01*
X13565896Y-11553984D02*
X13527801Y-11553984D01*
X13527801Y-11553984D02*
X13508753Y-11544460D01*
X13689705Y-11534936D02*
X13699229Y-11544460D01*
X13699229Y-11544460D02*
X13689705Y-11553984D01*
X13689705Y-11553984D02*
X13680182Y-11544460D01*
X13680182Y-11544460D02*
X13689705Y-11534936D01*
X13689705Y-11534936D02*
X13689705Y-11553984D01*
X13689705Y-11430174D02*
X13699229Y-11439698D01*
X13699229Y-11439698D02*
X13689705Y-11449222D01*
X13689705Y-11449222D02*
X13680182Y-11439698D01*
X13680182Y-11439698D02*
X13689705Y-11430174D01*
X13689705Y-11430174D02*
X13689705Y-11449222D01*
M02*
