%TF.GenerationSoftware,KiCad,Pcbnew,8.0.9-8.0.9-0~ubuntu22.04.1*%
%TF.CreationDate,2025-12-20T23:57:42-07:00*%
%TF.ProjectId,ESC_KiCAD,4553435f-4b69-4434-9144-2e6b69636164,A*%
%TF.SameCoordinates,Original*%
%TF.FileFunction,Copper,L2,Inr*%
%TF.FilePolarity,Positive*%
%FSLAX46Y46*%
G04 Gerber Fmt 4.6, Leading zero omitted, Abs format (unit mm)*
G04 Created by KiCad (PCBNEW 8.0.9-8.0.9-0~ubuntu22.04.1) date 2025-12-20 23:57:42*
%MOMM*%
%LPD*%
G01*
G04 APERTURE LIST*
%TA.AperFunction,ComponentPad*%
%ADD10C,4.000000*%
%TD*%
%TA.AperFunction,ComponentPad*%
%ADD11O,2.600000X1.400000*%
%TD*%
%TA.AperFunction,ComponentPad*%
%ADD12C,4.500000*%
%TD*%
%TA.AperFunction,ComponentPad*%
%ADD13R,4.500000X4.500000*%
%TD*%
%TA.AperFunction,ComponentPad*%
%ADD14C,5.200000*%
%TD*%
%TA.AperFunction,ComponentPad*%
%ADD15C,5.700000*%
%TD*%
%TA.AperFunction,ComponentPad*%
%ADD16C,2.500000*%
%TD*%
%TA.AperFunction,ComponentPad*%
%ADD17O,1.000000X1.000000*%
%TD*%
%TA.AperFunction,ComponentPad*%
%ADD18R,1.000000X1.000000*%
%TD*%
%TA.AperFunction,ComponentPad*%
%ADD19O,1.300000X2.000000*%
%TD*%
%TA.AperFunction,ComponentPad*%
%ADD20R,1.300000X2.000000*%
%TD*%
%TA.AperFunction,ViaPad*%
%ADD21C,0.600000*%
%TD*%
G04 APERTURE END LIST*
D10*
X154570000Y-102188100D03*
X141430000Y-102188100D03*
D11*
X127539400Y-96650000D03*
X127539400Y-83150000D03*
D12*
X133539400Y-93500000D03*
D13*
X133539400Y-86300000D03*
D14*
X215450000Y-86600000D03*
X212700000Y-91350000D03*
X218200000Y-91350000D03*
D15*
X124600000Y-71400000D03*
D16*
X204950000Y-99450000D03*
D17*
X155395000Y-81154400D03*
X155395000Y-82424400D03*
X154125000Y-81154400D03*
D18*
X154125000Y-82424400D03*
D15*
X219100000Y-71400000D03*
D16*
X197900000Y-96700000D03*
X169200000Y-110000000D03*
D19*
X158500000Y-73625000D03*
D20*
X160500000Y-73625000D03*
D15*
X124600000Y-108400000D03*
D16*
X197700000Y-110300000D03*
X204950000Y-72050000D03*
D19*
X151050000Y-73625000D03*
D20*
X153050000Y-73625000D03*
D16*
X205050000Y-85750000D03*
D15*
X219100000Y-108400000D03*
D16*
X197750000Y-82850000D03*
D21*
X216550000Y-82600000D03*
X217550000Y-82600000D03*
X215500000Y-82600000D03*
X214400000Y-82600000D03*
X213350000Y-82600000D03*
X222050000Y-92450000D03*
X222050000Y-93450000D03*
X222050000Y-91400000D03*
X222050000Y-90300000D03*
X222050000Y-89250000D03*
X208850000Y-93450000D03*
X208850000Y-92400000D03*
X208850000Y-91300000D03*
X208850000Y-90250000D03*
X208850000Y-89250000D03*
X132900000Y-100900000D03*
X145400000Y-82000000D03*
X145400000Y-81100000D03*
X146400000Y-82450000D03*
X146400000Y-80650000D03*
X146400000Y-81550000D03*
X138900000Y-109200000D03*
X138900000Y-105500000D03*
X128400000Y-110100000D03*
X128400000Y-106500000D03*
X164800000Y-89600000D03*
X163800000Y-90900000D03*
X180400000Y-93342000D03*
X176800000Y-93400000D03*
X162900000Y-91400000D03*
X180700000Y-82550000D03*
X178600000Y-83600000D03*
X166600000Y-90600000D03*
X175200000Y-75300000D03*
X166650000Y-105350000D03*
X168850000Y-105500000D03*
X163050000Y-95050000D03*
X164550000Y-97750000D03*
X174800000Y-108400000D03*
X176150000Y-105350000D03*
X175200000Y-104150000D03*
X164050000Y-95400000D03*
X174350000Y-97000000D03*
X174350000Y-94200000D03*
X173400000Y-97850000D03*
X173400000Y-94700000D03*
X176900000Y-96300000D03*
X166450000Y-89550000D03*
X179655000Y-81445000D03*
X172000000Y-91850000D03*
X154400000Y-92350000D03*
X202795000Y-109045000D03*
X183345000Y-108310000D03*
X171110000Y-72874398D03*
X136300000Y-91050000D03*
X157150000Y-76275000D03*
X127000000Y-100000000D03*
X126000000Y-99100000D03*
X126000000Y-78900000D03*
X179750000Y-91055000D03*
X126000000Y-80700000D03*
X127000000Y-80700000D03*
X180650000Y-105750000D03*
X205875000Y-96525000D03*
X136300000Y-90150000D03*
X149350000Y-84600000D03*
X161175600Y-109275000D03*
X163550000Y-98999999D03*
X127000000Y-100900000D03*
X140200000Y-86650000D03*
X154550000Y-78050000D03*
X140200000Y-81900000D03*
X164285000Y-82435000D03*
X143750000Y-72350000D03*
X159400000Y-86899999D03*
X183250000Y-94515000D03*
X147450000Y-81550000D03*
X128000000Y-79800000D03*
X177100000Y-86895000D03*
X150700000Y-90300000D03*
X179720600Y-108085600D03*
X126000000Y-100900000D03*
X156200000Y-89899998D03*
X173950000Y-85500001D03*
X182150000Y-78945000D03*
X168900000Y-90049999D03*
X172384400Y-72849998D03*
X180650000Y-91050000D03*
X179600000Y-94265000D03*
X200995000Y-81545000D03*
X147450000Y-80650000D03*
X152700000Y-99500000D03*
X201895000Y-81545000D03*
X173800000Y-88200000D03*
X152700000Y-97650000D03*
X180650000Y-91950000D03*
X179550000Y-80495000D03*
X201050000Y-95300000D03*
X155750001Y-93449999D03*
X140200000Y-85750000D03*
X126000000Y-79800000D03*
X177100000Y-85095000D03*
X173284400Y-78349998D03*
X142750000Y-89525600D03*
X200995000Y-110045000D03*
X205775000Y-82725000D03*
X142774400Y-88025600D03*
X126000000Y-100000000D03*
X177095000Y-72195000D03*
X148300000Y-90300000D03*
X151850000Y-95100000D03*
X131600000Y-80750000D03*
X137950000Y-95400000D03*
X179750000Y-104855000D03*
X192350588Y-82872353D03*
X163200000Y-89199999D03*
X128000000Y-80700000D03*
X140150000Y-91800000D03*
X177095000Y-73095000D03*
X177095000Y-98895000D03*
X203695000Y-110045000D03*
X180650000Y-77245000D03*
X179750000Y-91955000D03*
X128000000Y-100000000D03*
X177095000Y-100695000D03*
X157850000Y-88499999D03*
X166350000Y-95350000D03*
X195400000Y-95200000D03*
X201895000Y-109045000D03*
X163000000Y-100749999D03*
X147450000Y-82450000D03*
X180650000Y-78145000D03*
X150250000Y-84600000D03*
X170550000Y-100749999D03*
X163950000Y-78400000D03*
X143750000Y-74450000D03*
X128000000Y-100900000D03*
X201895000Y-110045000D03*
X182295000Y-106460000D03*
X191300588Y-96545000D03*
X127000000Y-79800000D03*
X192300588Y-96545000D03*
X179750000Y-77250000D03*
X200995000Y-82545000D03*
X127000000Y-99100000D03*
X203695000Y-81545000D03*
X177095000Y-71295000D03*
X172025000Y-97550000D03*
X143750000Y-71450000D03*
X148800000Y-76250000D03*
X191295000Y-69095000D03*
X183200000Y-80795000D03*
X168050000Y-95399999D03*
X203695000Y-82545000D03*
X131600000Y-79850000D03*
X203750000Y-96300000D03*
X203750000Y-95300000D03*
X137800000Y-81300000D03*
X177095000Y-99795000D03*
X202795000Y-110045000D03*
X168570000Y-72835598D03*
X143750000Y-73550000D03*
X134600000Y-76350000D03*
X169834400Y-78349998D03*
X153500000Y-92350000D03*
X205850000Y-110225000D03*
X152700000Y-98550000D03*
X177100000Y-85995000D03*
X202850000Y-96300000D03*
X145800000Y-74275000D03*
X137950000Y-94500000D03*
X127000000Y-78900000D03*
X162975600Y-109275000D03*
X150150000Y-76300000D03*
X201895000Y-82545000D03*
X159400000Y-85399999D03*
X200995000Y-109045000D03*
X137800000Y-80400000D03*
X135500000Y-76350000D03*
X192295000Y-69095000D03*
X170000000Y-98999999D03*
X201050000Y-96300000D03*
X202795000Y-81545000D03*
X203695000Y-109045000D03*
X180650000Y-104850000D03*
X179750000Y-105755000D03*
X140200000Y-82800000D03*
X195331550Y-81400000D03*
X128000000Y-99100000D03*
X202850000Y-95300000D03*
X145750000Y-88025600D03*
X158525001Y-96374999D03*
X156900000Y-89149998D03*
X195300000Y-108800000D03*
X140150000Y-90900000D03*
X201950000Y-96300000D03*
X179750000Y-78150000D03*
X191350588Y-82872353D03*
X164350000Y-76700000D03*
X202795000Y-82545000D03*
X148800000Y-77150000D03*
X182150000Y-92715000D03*
X159250001Y-91999999D03*
X201950000Y-95300000D03*
X128000000Y-78900000D03*
X148350000Y-87450000D03*
X144800000Y-87100000D03*
X148350000Y-88300000D03*
X144800000Y-90400000D03*
X148350000Y-89150000D03*
X148350000Y-91250000D03*
X154100000Y-88200000D03*
X162400001Y-88050000D03*
X169300000Y-96549999D03*
X161550000Y-88899999D03*
X170050000Y-88799999D03*
X155550001Y-94499998D03*
X167350000Y-97799999D03*
X152200000Y-88200000D03*
X166250000Y-97799999D03*
X153150000Y-88200000D03*
X161325000Y-80775000D03*
X171050000Y-87250000D03*
X191495000Y-74345000D03*
X191550000Y-89000000D03*
X191550000Y-89900000D03*
X123400000Y-80700000D03*
X191550000Y-90800000D03*
X122400000Y-100000000D03*
X192495000Y-75245000D03*
X192550000Y-88100000D03*
X192550000Y-89900000D03*
X124400000Y-100900000D03*
X124400000Y-79800000D03*
X124400000Y-100000000D03*
X124400000Y-78900000D03*
X123400000Y-79800000D03*
X124400000Y-80700000D03*
X191495000Y-103595000D03*
X122400000Y-100900000D03*
X191550000Y-88100000D03*
X191495000Y-101795000D03*
X191495000Y-102695000D03*
X123400000Y-78900000D03*
X192495000Y-101795000D03*
X122400000Y-99100000D03*
X122400000Y-80700000D03*
X123400000Y-100000000D03*
X191495000Y-75245000D03*
X123400000Y-99100000D03*
X122400000Y-78900000D03*
X192495000Y-76145000D03*
X191495000Y-104495000D03*
X192495000Y-102695000D03*
X192550000Y-90800000D03*
X192495000Y-103595000D03*
X192495000Y-74345000D03*
X192495000Y-77045000D03*
X122400000Y-79800000D03*
X124400000Y-99100000D03*
X192495000Y-104495000D03*
X123400000Y-100900000D03*
X191495000Y-77045000D03*
X192550000Y-89000000D03*
X191495000Y-76145000D03*
X188600000Y-94000000D03*
X188750000Y-107700000D03*
X188650000Y-80100000D03*
X168400000Y-80200000D03*
X160000001Y-93199999D03*
X160000000Y-105400000D03*
X168700000Y-91650000D03*
X177150000Y-88465000D03*
X168700000Y-93150000D03*
X177150000Y-89735000D03*
X175800000Y-91200000D03*
X174200000Y-92800000D03*
X175000000Y-90500000D03*
X173450000Y-92050000D03*
X174875000Y-100375000D03*
X172000000Y-93300000D03*
X174625000Y-101675000D03*
X143100000Y-76350000D03*
X139200000Y-70600000D03*
X182395000Y-99895000D03*
X181395000Y-72295000D03*
X182395000Y-70495000D03*
X182395000Y-97195000D03*
X139200000Y-72400000D03*
X139200000Y-73300000D03*
X143100000Y-77250000D03*
X181395000Y-98995000D03*
X139200000Y-71500000D03*
X139200000Y-74200000D03*
X182395000Y-71395000D03*
X182395000Y-69595000D03*
X182395000Y-98095000D03*
X139200000Y-69700000D03*
X181395000Y-70495000D03*
X181400000Y-86095000D03*
X182400000Y-86095000D03*
X182395000Y-98995000D03*
X182395000Y-72295000D03*
X182400000Y-85195000D03*
X181395000Y-99895000D03*
X181400000Y-85195000D03*
X182400000Y-83395000D03*
X181400000Y-98095000D03*
X143100000Y-78150000D03*
X181395000Y-71395000D03*
X182400000Y-84295000D03*
X139200000Y-68800000D03*
X181400000Y-84295000D03*
X188531550Y-81400000D03*
X188631550Y-95200000D03*
X188650000Y-108800000D03*
%TA.AperFunction,Conductor*%
G36*
X222542539Y-67920185D02*
G01*
X222588294Y-67972989D01*
X222599500Y-68024500D01*
X222599500Y-88787415D01*
X222579815Y-88854454D01*
X222527011Y-88900209D01*
X222457853Y-88910153D01*
X222394297Y-88881128D01*
X222381789Y-88868620D01*
X222381128Y-88867857D01*
X222260053Y-88790047D01*
X222260051Y-88790046D01*
X222260049Y-88790045D01*
X222260050Y-88790045D01*
X222121963Y-88749500D01*
X222121961Y-88749500D01*
X221978039Y-88749500D01*
X221978036Y-88749500D01*
X221839949Y-88790045D01*
X221718873Y-88867856D01*
X221624623Y-88976626D01*
X221624622Y-88976628D01*
X221564834Y-89107543D01*
X221544353Y-89250000D01*
X221564834Y-89392456D01*
X221609519Y-89490300D01*
X221624623Y-89523373D01*
X221718872Y-89632143D01*
X221718874Y-89632144D01*
X221718873Y-89632144D01*
X221778844Y-89670685D01*
X221824598Y-89723489D01*
X221834542Y-89792647D01*
X221805517Y-89856203D01*
X221778844Y-89879315D01*
X221718874Y-89917855D01*
X221718872Y-89917856D01*
X221718872Y-89917857D01*
X221699646Y-89940045D01*
X221624623Y-90026626D01*
X221624622Y-90026628D01*
X221564834Y-90157543D01*
X221544353Y-90300000D01*
X221564834Y-90442456D01*
X221610504Y-90542457D01*
X221624623Y-90573373D01*
X221718872Y-90682143D01*
X221718874Y-90682144D01*
X221718876Y-90682146D01*
X221817744Y-90745685D01*
X221863499Y-90798488D01*
X221873443Y-90867647D01*
X221844418Y-90931203D01*
X221817744Y-90954315D01*
X221718876Y-91017853D01*
X221718874Y-91017855D01*
X221624623Y-91126626D01*
X221624622Y-91126628D01*
X221564834Y-91257543D01*
X221544353Y-91400000D01*
X221564834Y-91542456D01*
X221613949Y-91650000D01*
X221624623Y-91673373D01*
X221718872Y-91782143D01*
X221718874Y-91782144D01*
X221718873Y-91782144D01*
X221778844Y-91820685D01*
X221824598Y-91873489D01*
X221834542Y-91942647D01*
X221805517Y-92006203D01*
X221778844Y-92029315D01*
X221718874Y-92067855D01*
X221624623Y-92176626D01*
X221624622Y-92176628D01*
X221564834Y-92307543D01*
X221544353Y-92450000D01*
X221564834Y-92592456D01*
X221603735Y-92677635D01*
X221624623Y-92723373D01*
X221718872Y-92832143D01*
X221718874Y-92832144D01*
X221739943Y-92845685D01*
X221785698Y-92898489D01*
X221795641Y-92967648D01*
X221766615Y-93031203D01*
X221739943Y-93054315D01*
X221718874Y-93067855D01*
X221718872Y-93067856D01*
X221718872Y-93067857D01*
X221696672Y-93093476D01*
X221624623Y-93176626D01*
X221624622Y-93176628D01*
X221564834Y-93307543D01*
X221544353Y-93450000D01*
X221564834Y-93592456D01*
X221613720Y-93699500D01*
X221624623Y-93723373D01*
X221718872Y-93832143D01*
X221839947Y-93909953D01*
X221839950Y-93909954D01*
X221839949Y-93909954D01*
X221978036Y-93950499D01*
X221978038Y-93950500D01*
X221978039Y-93950500D01*
X222121962Y-93950500D01*
X222121962Y-93950499D01*
X222260053Y-93909953D01*
X222381128Y-93832143D01*
X222381785Y-93831384D01*
X222382628Y-93830842D01*
X222387828Y-93826337D01*
X222388475Y-93827084D01*
X222440560Y-93793608D01*
X222510429Y-93793605D01*
X222569209Y-93831377D01*
X222598237Y-93894931D01*
X222599500Y-93912584D01*
X222599500Y-111775500D01*
X222579815Y-111842539D01*
X222527011Y-111888294D01*
X222475500Y-111899500D01*
X198251115Y-111899500D01*
X198184076Y-111879815D01*
X198138321Y-111827011D01*
X198128377Y-111757853D01*
X198157402Y-111694297D01*
X198210852Y-111658219D01*
X198236492Y-111649416D01*
X198284656Y-111632882D01*
X198496067Y-111518472D01*
X198685764Y-111370825D01*
X198848571Y-111193969D01*
X198980049Y-110992728D01*
X199076610Y-110772591D01*
X199135620Y-110539563D01*
X199155471Y-110300000D01*
X199135620Y-110060437D01*
X199076610Y-109827409D01*
X198980049Y-109607272D01*
X198974971Y-109599500D01*
X198914310Y-109506651D01*
X198848571Y-109406031D01*
X198685764Y-109229175D01*
X198685759Y-109229171D01*
X198685757Y-109229169D01*
X198496075Y-109081533D01*
X198496069Y-109081529D01*
X198284657Y-108967118D01*
X198284652Y-108967116D01*
X198057300Y-108889066D01*
X197879468Y-108859391D01*
X197820192Y-108849500D01*
X197579808Y-108849500D01*
X197532387Y-108857413D01*
X197342699Y-108889066D01*
X197115347Y-108967116D01*
X197115342Y-108967118D01*
X196903930Y-109081529D01*
X196903924Y-109081533D01*
X196714242Y-109229169D01*
X196714239Y-109229172D01*
X196551430Y-109406029D01*
X196551427Y-109406033D01*
X196419951Y-109607270D01*
X196323389Y-109827410D01*
X196264379Y-110060440D01*
X196244529Y-110299994D01*
X196244529Y-110300005D01*
X196264379Y-110539559D01*
X196323389Y-110772589D01*
X196419951Y-110992729D01*
X196524490Y-111152736D01*
X196551429Y-111193969D01*
X196714236Y-111370825D01*
X196714239Y-111370827D01*
X196714242Y-111370830D01*
X196903924Y-111518466D01*
X196903930Y-111518470D01*
X196903933Y-111518472D01*
X197115344Y-111632882D01*
X197115347Y-111632883D01*
X197189148Y-111658219D01*
X197246163Y-111698604D01*
X197272294Y-111763404D01*
X197259243Y-111832044D01*
X197211154Y-111882732D01*
X197148885Y-111899500D01*
X121224500Y-111899500D01*
X121157461Y-111879815D01*
X121111706Y-111827011D01*
X121100500Y-111775500D01*
X121100500Y-108400000D01*
X121544693Y-108400000D01*
X121563903Y-108742081D01*
X121563905Y-108742093D01*
X121621295Y-109079866D01*
X121621297Y-109079875D01*
X121628833Y-109106033D01*
X121716147Y-109409104D01*
X121765151Y-109527409D01*
X121847263Y-109725646D01*
X122012998Y-110025521D01*
X122211269Y-110304959D01*
X122439570Y-110560426D01*
X122439573Y-110560429D01*
X122695040Y-110788730D01*
X122695046Y-110788734D01*
X122695047Y-110788735D01*
X122974479Y-110987002D01*
X123274352Y-111152736D01*
X123590896Y-111283853D01*
X123920130Y-111378704D01*
X124257914Y-111436096D01*
X124600000Y-111455307D01*
X124942086Y-111436096D01*
X125279870Y-111378704D01*
X125609104Y-111283853D01*
X125925648Y-111152736D01*
X126225521Y-110987002D01*
X126504953Y-110788735D01*
X126523021Y-110772589D01*
X126612383Y-110692729D01*
X126760428Y-110560428D01*
X126988735Y-110304953D01*
X127134156Y-110100000D01*
X127894353Y-110100000D01*
X127914834Y-110242456D01*
X127943376Y-110304953D01*
X127974623Y-110373373D01*
X128068872Y-110482143D01*
X128189947Y-110559953D01*
X128189950Y-110559954D01*
X128189949Y-110559954D01*
X128328036Y-110600499D01*
X128328038Y-110600500D01*
X128328039Y-110600500D01*
X128471962Y-110600500D01*
X128471962Y-110600499D01*
X128608432Y-110560429D01*
X128610050Y-110559954D01*
X128610050Y-110559953D01*
X128610053Y-110559953D01*
X128731128Y-110482143D01*
X128825377Y-110373373D01*
X128885165Y-110242457D01*
X128905647Y-110100000D01*
X128891268Y-109999994D01*
X167744529Y-109999994D01*
X167744529Y-110000005D01*
X167764379Y-110239559D01*
X167823389Y-110472589D01*
X167919951Y-110692729D01*
X168051427Y-110893966D01*
X168051429Y-110893969D01*
X168214236Y-111070825D01*
X168214239Y-111070827D01*
X168214242Y-111070830D01*
X168403924Y-111218466D01*
X168403930Y-111218470D01*
X168403933Y-111218472D01*
X168615344Y-111332882D01*
X168615347Y-111332883D01*
X168842699Y-111410933D01*
X168842701Y-111410933D01*
X168842703Y-111410934D01*
X169079808Y-111450500D01*
X169079809Y-111450500D01*
X169320191Y-111450500D01*
X169320192Y-111450500D01*
X169557297Y-111410934D01*
X169784656Y-111332882D01*
X169996067Y-111218472D01*
X170027549Y-111193969D01*
X170080525Y-111152736D01*
X170185764Y-111070825D01*
X170348571Y-110893969D01*
X170480049Y-110692728D01*
X170576610Y-110472591D01*
X170635620Y-110239563D01*
X170650463Y-110060437D01*
X170655471Y-110000005D01*
X170655471Y-109999994D01*
X170641170Y-109827410D01*
X170635620Y-109760437D01*
X170576610Y-109527409D01*
X170480049Y-109307272D01*
X170449134Y-109259954D01*
X170348572Y-109106033D01*
X170348571Y-109106031D01*
X170185764Y-108929175D01*
X170185759Y-108929171D01*
X170185757Y-108929169D01*
X169996075Y-108781533D01*
X169996069Y-108781529D01*
X169784657Y-108667118D01*
X169784652Y-108667116D01*
X169557300Y-108589066D01*
X169379468Y-108559391D01*
X169320192Y-108549500D01*
X169079808Y-108549500D01*
X169032387Y-108557413D01*
X168842699Y-108589066D01*
X168615347Y-108667116D01*
X168615342Y-108667118D01*
X168403930Y-108781529D01*
X168403924Y-108781533D01*
X168214242Y-108929169D01*
X168214239Y-108929172D01*
X168051430Y-109106029D01*
X168051427Y-109106033D01*
X167919951Y-109307270D01*
X167823389Y-109527410D01*
X167764379Y-109760440D01*
X167744529Y-109999994D01*
X128891268Y-109999994D01*
X128885165Y-109957543D01*
X128825377Y-109826627D01*
X128731128Y-109717857D01*
X128610053Y-109640047D01*
X128610051Y-109640046D01*
X128610049Y-109640045D01*
X128610050Y-109640045D01*
X128471963Y-109599500D01*
X128471961Y-109599500D01*
X128328039Y-109599500D01*
X128328036Y-109599500D01*
X128189949Y-109640045D01*
X128068873Y-109717856D01*
X127974623Y-109826626D01*
X127974622Y-109826628D01*
X127914834Y-109957543D01*
X127894353Y-110100000D01*
X127134156Y-110100000D01*
X127187002Y-110025521D01*
X127352736Y-109725648D01*
X127483853Y-109409104D01*
X127578704Y-109079870D01*
X127636096Y-108742086D01*
X127655307Y-108400000D01*
X174294353Y-108400000D01*
X174314834Y-108542456D01*
X174371765Y-108667116D01*
X174374623Y-108673373D01*
X174468872Y-108782143D01*
X174589947Y-108859953D01*
X174589950Y-108859954D01*
X174589949Y-108859954D01*
X174728036Y-108900499D01*
X174728038Y-108900500D01*
X174728039Y-108900500D01*
X174871962Y-108900500D01*
X174871962Y-108900499D01*
X175010053Y-108859953D01*
X175103342Y-108800000D01*
X188144353Y-108800000D01*
X188164834Y-108942456D01*
X188176097Y-108967118D01*
X188224623Y-109073373D01*
X188318872Y-109182143D01*
X188439947Y-109259953D01*
X188439950Y-109259954D01*
X188439949Y-109259954D01*
X188578036Y-109300499D01*
X188578038Y-109300500D01*
X188578039Y-109300500D01*
X188721962Y-109300500D01*
X188721962Y-109300499D01*
X188860053Y-109259953D01*
X188981128Y-109182143D01*
X189075377Y-109073373D01*
X189135165Y-108942457D01*
X189155647Y-108800000D01*
X189135165Y-108657543D01*
X189075377Y-108526627D01*
X188981128Y-108417857D01*
X188981125Y-108417855D01*
X188981126Y-108417855D01*
X188953343Y-108400000D01*
X216044693Y-108400000D01*
X216063903Y-108742081D01*
X216063905Y-108742093D01*
X216121295Y-109079866D01*
X216121297Y-109079875D01*
X216128833Y-109106033D01*
X216216147Y-109409104D01*
X216265151Y-109527409D01*
X216347263Y-109725646D01*
X216512998Y-110025521D01*
X216711269Y-110304959D01*
X216939570Y-110560426D01*
X216939573Y-110560429D01*
X217195040Y-110788730D01*
X217195046Y-110788734D01*
X217195047Y-110788735D01*
X217474479Y-110987002D01*
X217774352Y-111152736D01*
X218090896Y-111283853D01*
X218420130Y-111378704D01*
X218757914Y-111436096D01*
X219100000Y-111455307D01*
X219442086Y-111436096D01*
X219779870Y-111378704D01*
X220109104Y-111283853D01*
X220425648Y-111152736D01*
X220725521Y-110987002D01*
X221004953Y-110788735D01*
X221023021Y-110772589D01*
X221112383Y-110692729D01*
X221260428Y-110560428D01*
X221488735Y-110304953D01*
X221687002Y-110025521D01*
X221852736Y-109725648D01*
X221983853Y-109409104D01*
X222078704Y-109079870D01*
X222136096Y-108742086D01*
X222155307Y-108400000D01*
X222136096Y-108057914D01*
X222078704Y-107720130D01*
X221983853Y-107390896D01*
X221852736Y-107074352D01*
X221687002Y-106774479D01*
X221488735Y-106495047D01*
X221488734Y-106495046D01*
X221488730Y-106495040D01*
X221260429Y-106239573D01*
X221260426Y-106239570D01*
X221004959Y-106011269D01*
X220725521Y-105812998D01*
X220425646Y-105647263D01*
X220360087Y-105620108D01*
X220109104Y-105516147D01*
X220024479Y-105491766D01*
X219779875Y-105421297D01*
X219779866Y-105421295D01*
X219442093Y-105363905D01*
X219442081Y-105363903D01*
X219100000Y-105344693D01*
X218757918Y-105363903D01*
X218757906Y-105363905D01*
X218420133Y-105421295D01*
X218420124Y-105421297D01*
X218090899Y-105516146D01*
X218090896Y-105516147D01*
X218027381Y-105542456D01*
X217774353Y-105647263D01*
X217474478Y-105812998D01*
X217195040Y-106011269D01*
X216939573Y-106239570D01*
X216939570Y-106239573D01*
X216711269Y-106495040D01*
X216512998Y-106774478D01*
X216347263Y-107074353D01*
X216216146Y-107390899D01*
X216121297Y-107720124D01*
X216121295Y-107720133D01*
X216063905Y-108057906D01*
X216063903Y-108057918D01*
X216044693Y-108400000D01*
X188953343Y-108400000D01*
X188927483Y-108383381D01*
X188881729Y-108330577D01*
X188871785Y-108261419D01*
X188900810Y-108197863D01*
X188952455Y-108164672D01*
X188951983Y-108163639D01*
X188959175Y-108160354D01*
X188959586Y-108160089D01*
X188960053Y-108159953D01*
X189081128Y-108082143D01*
X189175377Y-107973373D01*
X189235165Y-107842457D01*
X189255647Y-107700000D01*
X189235165Y-107557543D01*
X189175377Y-107426627D01*
X189081128Y-107317857D01*
X188960053Y-107240047D01*
X188960051Y-107240046D01*
X188960049Y-107240045D01*
X188960050Y-107240045D01*
X188821963Y-107199500D01*
X188821961Y-107199500D01*
X188678039Y-107199500D01*
X188678036Y-107199500D01*
X188539949Y-107240045D01*
X188418873Y-107317856D01*
X188324623Y-107426626D01*
X188324622Y-107426628D01*
X188264834Y-107557543D01*
X188244353Y-107700000D01*
X188264834Y-107842456D01*
X188290886Y-107899500D01*
X188324623Y-107973373D01*
X188418872Y-108082143D01*
X188472515Y-108116617D01*
X188518270Y-108169421D01*
X188528214Y-108238580D01*
X188499189Y-108302136D01*
X188447544Y-108335326D01*
X188448017Y-108336361D01*
X188440820Y-108339647D01*
X188440414Y-108339909D01*
X188439950Y-108340045D01*
X188318873Y-108417856D01*
X188224623Y-108526626D01*
X188224622Y-108526628D01*
X188164834Y-108657543D01*
X188144353Y-108800000D01*
X175103342Y-108800000D01*
X175131128Y-108782143D01*
X175225377Y-108673373D01*
X175285165Y-108542457D01*
X175305647Y-108400000D01*
X175285165Y-108257543D01*
X175225377Y-108126627D01*
X175131128Y-108017857D01*
X175010053Y-107940047D01*
X175010051Y-107940046D01*
X175010049Y-107940045D01*
X175010050Y-107940045D01*
X174871963Y-107899500D01*
X174871961Y-107899500D01*
X174728039Y-107899500D01*
X174728036Y-107899500D01*
X174589949Y-107940045D01*
X174468873Y-108017856D01*
X174374623Y-108126626D01*
X174374622Y-108126628D01*
X174314834Y-108257543D01*
X174294353Y-108400000D01*
X127655307Y-108400000D01*
X127636096Y-108057914D01*
X127578704Y-107720130D01*
X127483853Y-107390896D01*
X127352736Y-107074352D01*
X127187002Y-106774479D01*
X126992249Y-106500000D01*
X127894353Y-106500000D01*
X127914834Y-106642456D01*
X127974622Y-106773371D01*
X127974623Y-106773373D01*
X128068872Y-106882143D01*
X128189947Y-106959953D01*
X128189950Y-106959954D01*
X128189949Y-106959954D01*
X128328036Y-107000499D01*
X128328038Y-107000500D01*
X128328039Y-107000500D01*
X128471962Y-107000500D01*
X128471962Y-107000499D01*
X128610053Y-106959953D01*
X128731128Y-106882143D01*
X128825377Y-106773373D01*
X128885165Y-106642457D01*
X128905647Y-106500000D01*
X128885165Y-106357543D01*
X128825377Y-106226627D01*
X128731128Y-106117857D01*
X128610053Y-106040047D01*
X128610051Y-106040046D01*
X128610049Y-106040045D01*
X128610050Y-106040045D01*
X128471963Y-105999500D01*
X128471961Y-105999500D01*
X128328039Y-105999500D01*
X128328036Y-105999500D01*
X128189949Y-106040045D01*
X128068873Y-106117856D01*
X127974623Y-106226626D01*
X127974622Y-106226628D01*
X127914834Y-106357543D01*
X127894353Y-106500000D01*
X126992249Y-106500000D01*
X126988735Y-106495047D01*
X126988734Y-106495046D01*
X126988730Y-106495040D01*
X126760429Y-106239573D01*
X126760426Y-106239570D01*
X126504959Y-106011269D01*
X126225521Y-105812998D01*
X125925646Y-105647263D01*
X125860087Y-105620108D01*
X125609104Y-105516147D01*
X125524479Y-105491766D01*
X125279875Y-105421297D01*
X125279866Y-105421295D01*
X125154533Y-105400000D01*
X159494353Y-105400000D01*
X159514834Y-105542456D01*
X159560504Y-105642457D01*
X159574623Y-105673373D01*
X159668872Y-105782143D01*
X159789947Y-105859953D01*
X159789950Y-105859954D01*
X159789949Y-105859954D01*
X159928036Y-105900499D01*
X159928038Y-105900500D01*
X159928039Y-105900500D01*
X160071962Y-105900500D01*
X160071962Y-105900499D01*
X160210053Y-105859953D01*
X160331128Y-105782143D01*
X160425377Y-105673373D01*
X160485165Y-105542457D01*
X160491269Y-105500000D01*
X168344353Y-105500000D01*
X168364834Y-105642456D01*
X168424622Y-105773371D01*
X168424623Y-105773373D01*
X168518872Y-105882143D01*
X168639947Y-105959953D01*
X168639950Y-105959954D01*
X168639949Y-105959954D01*
X168747107Y-105991417D01*
X168774633Y-105999500D01*
X168778036Y-106000499D01*
X168778038Y-106000500D01*
X168778039Y-106000500D01*
X168921962Y-106000500D01*
X168921962Y-106000499D01*
X169060053Y-105959953D01*
X169181128Y-105882143D01*
X169275377Y-105773373D01*
X169335165Y-105642457D01*
X169355647Y-105500000D01*
X169335165Y-105357543D01*
X169331720Y-105350000D01*
X175644353Y-105350000D01*
X175664834Y-105492456D01*
X175675654Y-105516147D01*
X175724623Y-105623373D01*
X175818872Y-105732143D01*
X175939947Y-105809953D01*
X175939950Y-105809954D01*
X175939949Y-105809954D01*
X176078036Y-105850499D01*
X176078038Y-105850500D01*
X176078039Y-105850500D01*
X176221962Y-105850500D01*
X176221962Y-105850499D01*
X176360053Y-105809953D01*
X176481128Y-105732143D01*
X176575377Y-105623373D01*
X176635165Y-105492457D01*
X176655647Y-105350000D01*
X176635165Y-105207543D01*
X176575377Y-105076627D01*
X176481128Y-104967857D01*
X176360053Y-104890047D01*
X176360051Y-104890046D01*
X176360049Y-104890045D01*
X176360050Y-104890045D01*
X176221963Y-104849500D01*
X176221961Y-104849500D01*
X176078039Y-104849500D01*
X176078036Y-104849500D01*
X175939949Y-104890045D01*
X175818873Y-104967856D01*
X175724623Y-105076626D01*
X175724622Y-105076628D01*
X175664834Y-105207543D01*
X175644353Y-105350000D01*
X169331720Y-105350000D01*
X169275377Y-105226627D01*
X169181128Y-105117857D01*
X169060053Y-105040047D01*
X169060051Y-105040046D01*
X169060049Y-105040045D01*
X169060050Y-105040045D01*
X168921963Y-104999500D01*
X168921961Y-104999500D01*
X168778039Y-104999500D01*
X168778036Y-104999500D01*
X168639949Y-105040045D01*
X168518873Y-105117856D01*
X168424623Y-105226626D01*
X168424622Y-105226628D01*
X168364834Y-105357543D01*
X168344353Y-105500000D01*
X160491269Y-105500000D01*
X160505647Y-105400000D01*
X160485165Y-105257543D01*
X160425377Y-105126627D01*
X160331128Y-105017857D01*
X160210053Y-104940047D01*
X160210051Y-104940046D01*
X160210049Y-104940045D01*
X160210050Y-104940045D01*
X160071963Y-104899500D01*
X160071961Y-104899500D01*
X159928039Y-104899500D01*
X159928036Y-104899500D01*
X159789949Y-104940045D01*
X159668873Y-105017856D01*
X159574623Y-105126626D01*
X159574622Y-105126628D01*
X159514834Y-105257543D01*
X159494353Y-105400000D01*
X125154533Y-105400000D01*
X124942093Y-105363905D01*
X124942081Y-105363903D01*
X124600000Y-105344693D01*
X124257918Y-105363903D01*
X124257906Y-105363905D01*
X123920133Y-105421295D01*
X123920124Y-105421297D01*
X123590899Y-105516146D01*
X123590896Y-105516147D01*
X123527381Y-105542456D01*
X123274353Y-105647263D01*
X122974478Y-105812998D01*
X122695040Y-106011269D01*
X122439573Y-106239570D01*
X122439570Y-106239573D01*
X122211269Y-106495040D01*
X122012998Y-106774478D01*
X121847263Y-107074353D01*
X121716146Y-107390899D01*
X121621297Y-107720124D01*
X121621295Y-107720133D01*
X121563905Y-108057906D01*
X121563903Y-108057918D01*
X121544693Y-108400000D01*
X121100500Y-108400000D01*
X121100500Y-102188100D01*
X139224778Y-102188100D01*
X139243644Y-102475937D01*
X139243646Y-102475949D01*
X139299917Y-102758845D01*
X139299921Y-102758860D01*
X139392642Y-103032005D01*
X139520219Y-103290706D01*
X139520223Y-103290713D01*
X139680478Y-103530552D01*
X139870672Y-103747427D01*
X140087547Y-103937621D01*
X140126724Y-103963798D01*
X140327389Y-104097878D01*
X140586098Y-104225459D01*
X140859247Y-104318181D01*
X141142161Y-104374456D01*
X141430000Y-104393322D01*
X141717839Y-104374456D01*
X142000753Y-104318181D01*
X142273902Y-104225459D01*
X142532611Y-104097878D01*
X142772454Y-103937620D01*
X142989327Y-103747427D01*
X143179520Y-103530554D01*
X143339778Y-103290711D01*
X143467359Y-103032002D01*
X143560081Y-102758853D01*
X143616356Y-102475939D01*
X143635222Y-102188100D01*
X152364778Y-102188100D01*
X152383644Y-102475937D01*
X152383646Y-102475949D01*
X152439917Y-102758845D01*
X152439921Y-102758860D01*
X152532642Y-103032005D01*
X152660219Y-103290706D01*
X152660223Y-103290713D01*
X152820478Y-103530552D01*
X153010672Y-103747427D01*
X153227547Y-103937621D01*
X153266724Y-103963798D01*
X153467389Y-104097878D01*
X153726098Y-104225459D01*
X153999247Y-104318181D01*
X154282161Y-104374456D01*
X154570000Y-104393322D01*
X154857839Y-104374456D01*
X155140753Y-104318181D01*
X155413902Y-104225459D01*
X155566918Y-104150000D01*
X174694353Y-104150000D01*
X174714834Y-104292456D01*
X174760899Y-104393322D01*
X174774623Y-104423373D01*
X174868872Y-104532143D01*
X174989947Y-104609953D01*
X174989950Y-104609954D01*
X174989949Y-104609954D01*
X175128036Y-104650499D01*
X175128038Y-104650500D01*
X175128039Y-104650500D01*
X175271962Y-104650500D01*
X175271962Y-104650499D01*
X175410053Y-104609953D01*
X175531128Y-104532143D01*
X175625377Y-104423373D01*
X175685165Y-104292457D01*
X175705647Y-104150000D01*
X175685165Y-104007543D01*
X175625377Y-103876627D01*
X175531128Y-103767857D01*
X175410053Y-103690047D01*
X175410051Y-103690046D01*
X175410049Y-103690045D01*
X175410050Y-103690045D01*
X175271963Y-103649500D01*
X175271961Y-103649500D01*
X175128039Y-103649500D01*
X175128036Y-103649500D01*
X174989949Y-103690045D01*
X174868873Y-103767856D01*
X174774623Y-103876626D01*
X174774622Y-103876628D01*
X174714834Y-104007543D01*
X174694353Y-104150000D01*
X155566918Y-104150000D01*
X155672611Y-104097878D01*
X155912454Y-103937620D01*
X156129327Y-103747427D01*
X156319520Y-103530554D01*
X156479778Y-103290711D01*
X156607359Y-103032002D01*
X156700081Y-102758853D01*
X156756356Y-102475939D01*
X156775222Y-102188100D01*
X156756356Y-101900261D01*
X156711549Y-101675000D01*
X174119353Y-101675000D01*
X174139834Y-101817456D01*
X174177651Y-101900262D01*
X174199623Y-101948373D01*
X174293872Y-102057143D01*
X174414947Y-102134953D01*
X174414950Y-102134954D01*
X174414949Y-102134954D01*
X174553036Y-102175499D01*
X174553038Y-102175500D01*
X174553039Y-102175500D01*
X174696962Y-102175500D01*
X174696962Y-102175499D01*
X174835053Y-102134953D01*
X174956128Y-102057143D01*
X175050377Y-101948373D01*
X175110165Y-101817457D01*
X175113394Y-101795000D01*
X190989353Y-101795000D01*
X191009834Y-101937456D01*
X191014819Y-101948371D01*
X191069623Y-102068373D01*
X191119063Y-102125430D01*
X191152308Y-102163798D01*
X191181332Y-102227354D01*
X191171388Y-102296512D01*
X191152308Y-102326202D01*
X191069623Y-102421627D01*
X191069622Y-102421628D01*
X191009834Y-102552543D01*
X190989353Y-102695000D01*
X191009834Y-102837456D01*
X191069622Y-102968371D01*
X191069623Y-102968373D01*
X191119063Y-103025430D01*
X191152308Y-103063798D01*
X191181332Y-103127354D01*
X191171388Y-103196512D01*
X191152308Y-103226202D01*
X191069623Y-103321627D01*
X191069622Y-103321628D01*
X191009834Y-103452543D01*
X190989353Y-103595000D01*
X191009834Y-103737456D01*
X191023718Y-103767857D01*
X191069623Y-103868373D01*
X191119063Y-103925430D01*
X191152308Y-103963798D01*
X191181332Y-104027354D01*
X191171388Y-104096512D01*
X191152308Y-104126202D01*
X191069623Y-104221627D01*
X191069622Y-104221628D01*
X191009834Y-104352543D01*
X190989353Y-104495000D01*
X191009834Y-104637456D01*
X191062433Y-104752629D01*
X191069623Y-104768373D01*
X191163872Y-104877143D01*
X191284947Y-104954953D01*
X191284950Y-104954954D01*
X191284949Y-104954954D01*
X191423036Y-104995499D01*
X191423038Y-104995500D01*
X191423039Y-104995500D01*
X191566962Y-104995500D01*
X191566962Y-104995499D01*
X191705053Y-104954953D01*
X191826128Y-104877143D01*
X191901287Y-104790403D01*
X191960064Y-104752629D01*
X192029934Y-104752629D01*
X192088711Y-104790402D01*
X192163872Y-104877143D01*
X192284947Y-104954953D01*
X192284950Y-104954954D01*
X192284949Y-104954954D01*
X192423036Y-104995499D01*
X192423038Y-104995500D01*
X192423039Y-104995500D01*
X192566962Y-104995500D01*
X192566962Y-104995499D01*
X192705053Y-104954953D01*
X192826128Y-104877143D01*
X192920377Y-104768373D01*
X192980165Y-104637457D01*
X193000647Y-104495000D01*
X192980165Y-104352543D01*
X192920377Y-104221627D01*
X192837689Y-104126199D01*
X192808666Y-104062647D01*
X192818610Y-103993489D01*
X192837687Y-103963802D01*
X192920377Y-103868373D01*
X192980165Y-103737457D01*
X193000647Y-103595000D01*
X192980165Y-103452543D01*
X192920377Y-103321627D01*
X192837689Y-103226199D01*
X192808666Y-103162647D01*
X192818610Y-103093489D01*
X192837687Y-103063802D01*
X192920377Y-102968373D01*
X192980165Y-102837457D01*
X193000647Y-102695000D01*
X192980165Y-102552543D01*
X192920377Y-102421627D01*
X192837689Y-102326199D01*
X192808666Y-102262647D01*
X192818610Y-102193489D01*
X192837687Y-102163802D01*
X192920377Y-102068373D01*
X192980165Y-101937457D01*
X193000647Y-101795000D01*
X192980165Y-101652543D01*
X192920377Y-101521627D01*
X192826128Y-101412857D01*
X192705053Y-101335047D01*
X192705051Y-101335046D01*
X192705049Y-101335045D01*
X192705050Y-101335045D01*
X192566963Y-101294500D01*
X192566961Y-101294500D01*
X192423039Y-101294500D01*
X192423036Y-101294500D01*
X192284949Y-101335045D01*
X192163873Y-101412856D01*
X192088713Y-101499596D01*
X192029935Y-101537370D01*
X191960065Y-101537370D01*
X191901287Y-101499596D01*
X191826128Y-101412857D01*
X191705053Y-101335047D01*
X191705051Y-101335046D01*
X191705049Y-101335045D01*
X191705050Y-101335045D01*
X191566963Y-101294500D01*
X191566961Y-101294500D01*
X191423039Y-101294500D01*
X191423036Y-101294500D01*
X191284949Y-101335045D01*
X191163873Y-101412856D01*
X191069623Y-101521626D01*
X191069622Y-101521628D01*
X191009834Y-101652543D01*
X190989353Y-101795000D01*
X175113394Y-101795000D01*
X175130647Y-101675000D01*
X175110165Y-101532543D01*
X175050377Y-101401627D01*
X174956128Y-101292857D01*
X174835053Y-101215047D01*
X174835051Y-101215046D01*
X174835049Y-101215045D01*
X174835050Y-101215045D01*
X174696963Y-101174500D01*
X174696961Y-101174500D01*
X174553039Y-101174500D01*
X174553036Y-101174500D01*
X174414949Y-101215045D01*
X174293873Y-101292856D01*
X174199623Y-101401626D01*
X174199622Y-101401628D01*
X174139834Y-101532543D01*
X174119353Y-101675000D01*
X156711549Y-101675000D01*
X156700081Y-101617347D01*
X156607359Y-101344198D01*
X156479778Y-101085489D01*
X156382082Y-100939276D01*
X156319521Y-100845647D01*
X156129327Y-100628772D01*
X155912452Y-100438578D01*
X155817301Y-100375000D01*
X174369353Y-100375000D01*
X174389834Y-100517456D01*
X174439692Y-100626627D01*
X174449623Y-100648373D01*
X174543872Y-100757143D01*
X174664947Y-100834953D01*
X174664950Y-100834954D01*
X174664949Y-100834954D01*
X174803036Y-100875499D01*
X174803038Y-100875500D01*
X174803039Y-100875500D01*
X174946962Y-100875500D01*
X174946962Y-100875499D01*
X175085053Y-100834953D01*
X175206128Y-100757143D01*
X175300377Y-100648373D01*
X175360165Y-100517457D01*
X175380647Y-100375000D01*
X175360165Y-100232543D01*
X175300377Y-100101627D01*
X175206128Y-99992857D01*
X175085053Y-99915047D01*
X175085051Y-99915046D01*
X175085049Y-99915045D01*
X175085050Y-99915045D01*
X174946963Y-99874500D01*
X174946961Y-99874500D01*
X174803039Y-99874500D01*
X174803036Y-99874500D01*
X174664949Y-99915045D01*
X174543873Y-99992856D01*
X174449623Y-100101626D01*
X174449622Y-100101628D01*
X174389834Y-100232543D01*
X174369353Y-100375000D01*
X155817301Y-100375000D01*
X155672613Y-100278323D01*
X155672606Y-100278319D01*
X155413905Y-100150742D01*
X155140760Y-100058021D01*
X155140754Y-100058019D01*
X155140753Y-100058019D01*
X155140751Y-100058018D01*
X155140745Y-100058017D01*
X154857849Y-100001746D01*
X154857839Y-100001744D01*
X154570000Y-99982878D01*
X154282161Y-100001744D01*
X154282155Y-100001745D01*
X154282150Y-100001746D01*
X153999254Y-100058017D01*
X153999239Y-100058021D01*
X153726094Y-100150742D01*
X153467393Y-100278319D01*
X153467386Y-100278323D01*
X153227547Y-100438578D01*
X153010672Y-100628772D01*
X152820478Y-100845647D01*
X152660223Y-101085486D01*
X152660219Y-101085493D01*
X152532642Y-101344194D01*
X152439921Y-101617339D01*
X152439917Y-101617354D01*
X152383646Y-101900250D01*
X152383644Y-101900262D01*
X152364778Y-102188100D01*
X143635222Y-102188100D01*
X143616356Y-101900261D01*
X143560081Y-101617347D01*
X143467359Y-101344198D01*
X143339778Y-101085489D01*
X143242082Y-100939276D01*
X143179521Y-100845647D01*
X142989327Y-100628772D01*
X142772452Y-100438578D01*
X142532613Y-100278323D01*
X142532606Y-100278319D01*
X142273905Y-100150742D01*
X142000760Y-100058021D01*
X142000754Y-100058019D01*
X142000753Y-100058019D01*
X142000751Y-100058018D01*
X142000745Y-100058017D01*
X141717849Y-100001746D01*
X141717839Y-100001744D01*
X141430000Y-99982878D01*
X141142161Y-100001744D01*
X141142155Y-100001745D01*
X141142150Y-100001746D01*
X140859254Y-100058017D01*
X140859239Y-100058021D01*
X140586094Y-100150742D01*
X140327393Y-100278319D01*
X140327386Y-100278323D01*
X140087547Y-100438578D01*
X139870672Y-100628772D01*
X139680478Y-100845647D01*
X139520223Y-101085486D01*
X139520219Y-101085493D01*
X139392642Y-101344194D01*
X139299921Y-101617339D01*
X139299917Y-101617354D01*
X139243646Y-101900250D01*
X139243644Y-101900262D01*
X139224778Y-102188100D01*
X121100500Y-102188100D01*
X121100500Y-99100000D01*
X121894353Y-99100000D01*
X121914834Y-99242456D01*
X121970250Y-99363797D01*
X121974623Y-99373373D01*
X122021397Y-99427354D01*
X122057308Y-99468798D01*
X122086332Y-99532354D01*
X122076388Y-99601512D01*
X122057308Y-99631202D01*
X121974623Y-99726627D01*
X121974622Y-99726628D01*
X121914834Y-99857543D01*
X121894353Y-100000000D01*
X121914834Y-100142456D01*
X121936731Y-100190403D01*
X121974623Y-100273373D01*
X122024063Y-100330430D01*
X122057308Y-100368798D01*
X122086332Y-100432354D01*
X122076388Y-100501512D01*
X122057308Y-100531202D01*
X121974623Y-100626627D01*
X121974622Y-100626628D01*
X121914834Y-100757543D01*
X121894353Y-100900000D01*
X121914834Y-101042456D01*
X121934486Y-101085486D01*
X121974623Y-101173373D01*
X122068872Y-101282143D01*
X122189947Y-101359953D01*
X122189950Y-101359954D01*
X122189949Y-101359954D01*
X122328036Y-101400499D01*
X122328038Y-101400500D01*
X122328039Y-101400500D01*
X122471962Y-101400500D01*
X122471962Y-101400499D01*
X122610053Y-101359953D01*
X122731128Y-101282143D01*
X122806287Y-101195403D01*
X122865064Y-101157629D01*
X122934934Y-101157629D01*
X122993711Y-101195402D01*
X123068872Y-101282143D01*
X123189947Y-101359953D01*
X123189950Y-101359954D01*
X123189949Y-101359954D01*
X123328036Y-101400499D01*
X123328038Y-101400500D01*
X123328039Y-101400500D01*
X123471962Y-101400500D01*
X123471962Y-101400499D01*
X123610053Y-101359953D01*
X123731128Y-101282143D01*
X123806287Y-101195403D01*
X123865064Y-101157629D01*
X123934934Y-101157629D01*
X123993711Y-101195402D01*
X124068872Y-101282143D01*
X124189947Y-101359953D01*
X124189950Y-101359954D01*
X124189949Y-101359954D01*
X124328036Y-101400499D01*
X124328038Y-101400500D01*
X124328039Y-101400500D01*
X124471962Y-101400500D01*
X124471962Y-101400499D01*
X124610053Y-101359953D01*
X124731128Y-101282143D01*
X124825377Y-101173373D01*
X124885165Y-101042457D01*
X124905647Y-100900000D01*
X124885165Y-100757543D01*
X124825377Y-100626627D01*
X124742689Y-100531199D01*
X124713666Y-100467647D01*
X124723610Y-100398489D01*
X124742687Y-100368802D01*
X124825377Y-100273373D01*
X124885165Y-100142457D01*
X124905647Y-100000000D01*
X124885165Y-99857543D01*
X124825377Y-99726627D01*
X124742689Y-99631199D01*
X124713666Y-99567647D01*
X124723610Y-99498489D01*
X124742687Y-99468802D01*
X124825377Y-99373373D01*
X124885165Y-99242457D01*
X124905647Y-99100000D01*
X124890550Y-98995000D01*
X180889353Y-98995000D01*
X180909834Y-99137456D01*
X180957787Y-99242456D01*
X180969623Y-99268373D01*
X181019063Y-99325430D01*
X181052308Y-99363798D01*
X181081332Y-99427354D01*
X181071388Y-99496512D01*
X181052308Y-99526202D01*
X180969623Y-99621627D01*
X180969622Y-99621628D01*
X180909834Y-99752543D01*
X180889353Y-99895000D01*
X180909834Y-100037456D01*
X180961571Y-100150742D01*
X180969623Y-100168373D01*
X181063872Y-100277143D01*
X181184947Y-100354953D01*
X181184950Y-100354954D01*
X181184949Y-100354954D01*
X181323036Y-100395499D01*
X181323038Y-100395500D01*
X181323039Y-100395500D01*
X181466962Y-100395500D01*
X181466962Y-100395499D01*
X181605053Y-100354953D01*
X181726128Y-100277143D01*
X181801287Y-100190403D01*
X181860064Y-100152629D01*
X181929934Y-100152629D01*
X181988712Y-100190403D01*
X181988713Y-100190404D01*
X182060603Y-100273371D01*
X182063872Y-100277143D01*
X182184947Y-100354953D01*
X182184950Y-100354954D01*
X182184949Y-100354954D01*
X182323036Y-100395499D01*
X182323038Y-100395500D01*
X182323039Y-100395500D01*
X182466962Y-100395500D01*
X182466962Y-100395499D01*
X182605053Y-100354953D01*
X182726128Y-100277143D01*
X182820377Y-100168373D01*
X182880165Y-100037457D01*
X182900647Y-99895000D01*
X182880165Y-99752543D01*
X182820377Y-99621627D01*
X182737689Y-99526199D01*
X182708666Y-99462647D01*
X182710485Y-99449994D01*
X203494529Y-99449994D01*
X203494529Y-99450005D01*
X203514379Y-99689559D01*
X203573389Y-99922589D01*
X203669951Y-100142729D01*
X203757769Y-100277143D01*
X203801429Y-100343969D01*
X203964236Y-100520825D01*
X203964239Y-100520827D01*
X203964242Y-100520830D01*
X204153924Y-100668466D01*
X204153930Y-100668470D01*
X204153933Y-100668472D01*
X204365344Y-100782882D01*
X204365347Y-100782883D01*
X204592699Y-100860933D01*
X204592701Y-100860933D01*
X204592703Y-100860934D01*
X204829808Y-100900500D01*
X204829809Y-100900500D01*
X205070191Y-100900500D01*
X205070192Y-100900500D01*
X205307297Y-100860934D01*
X205534656Y-100782882D01*
X205746067Y-100668472D01*
X205799830Y-100626627D01*
X205922430Y-100531203D01*
X205935764Y-100520825D01*
X206098571Y-100343969D01*
X206230049Y-100142728D01*
X206326610Y-99922591D01*
X206385620Y-99689563D01*
X206399157Y-99526202D01*
X206405471Y-99450005D01*
X206405471Y-99449994D01*
X206385620Y-99210440D01*
X206385620Y-99210437D01*
X206326610Y-98977409D01*
X206230049Y-98757272D01*
X206206761Y-98721628D01*
X206098572Y-98556033D01*
X206098571Y-98556031D01*
X205935764Y-98379175D01*
X205935759Y-98379171D01*
X205935757Y-98379169D01*
X205746075Y-98231533D01*
X205746069Y-98231529D01*
X205534657Y-98117118D01*
X205534652Y-98117116D01*
X205307300Y-98039066D01*
X205129468Y-98009391D01*
X205070192Y-97999500D01*
X204829808Y-97999500D01*
X204782387Y-98007413D01*
X204592699Y-98039066D01*
X204365347Y-98117116D01*
X204365342Y-98117118D01*
X204153930Y-98231529D01*
X204153924Y-98231533D01*
X203964242Y-98379169D01*
X203964239Y-98379172D01*
X203801430Y-98556029D01*
X203801427Y-98556033D01*
X203669951Y-98757270D01*
X203573389Y-98977410D01*
X203514379Y-99210440D01*
X203494529Y-99449994D01*
X182710485Y-99449994D01*
X182718610Y-99393489D01*
X182737687Y-99363802D01*
X182820377Y-99268373D01*
X182880165Y-99137457D01*
X182900647Y-98995000D01*
X182880165Y-98852543D01*
X182820377Y-98721627D01*
X182737689Y-98626199D01*
X182708666Y-98562647D01*
X182718610Y-98493489D01*
X182737687Y-98463802D01*
X182820377Y-98368373D01*
X182880165Y-98237457D01*
X182900647Y-98095000D01*
X182880165Y-97952543D01*
X182820377Y-97821627D01*
X182737689Y-97726199D01*
X182708666Y-97662647D01*
X182718610Y-97593489D01*
X182737687Y-97563802D01*
X182820377Y-97468373D01*
X182880165Y-97337457D01*
X182900647Y-97195000D01*
X182880165Y-97052543D01*
X182820377Y-96921627D01*
X182726128Y-96812857D01*
X182605053Y-96735047D01*
X182605051Y-96735046D01*
X182605049Y-96735045D01*
X182605050Y-96735045D01*
X182485674Y-96699994D01*
X196444529Y-96699994D01*
X196444529Y-96700005D01*
X196464379Y-96939559D01*
X196523389Y-97172589D01*
X196619951Y-97392729D01*
X196731717Y-97563798D01*
X196751429Y-97593969D01*
X196914236Y-97770825D01*
X196914239Y-97770827D01*
X196914242Y-97770830D01*
X197103924Y-97918466D01*
X197103930Y-97918470D01*
X197103933Y-97918472D01*
X197315344Y-98032882D01*
X197315347Y-98032883D01*
X197542699Y-98110933D01*
X197542701Y-98110933D01*
X197542703Y-98110934D01*
X197779808Y-98150500D01*
X197779809Y-98150500D01*
X198020191Y-98150500D01*
X198020192Y-98150500D01*
X198257297Y-98110934D01*
X198484656Y-98032882D01*
X198696067Y-97918472D01*
X198729493Y-97892456D01*
X198820492Y-97821628D01*
X198885764Y-97770825D01*
X199048571Y-97593969D01*
X199180049Y-97392728D01*
X199276610Y-97172591D01*
X199335620Y-96939563D01*
X199355471Y-96700000D01*
X199355015Y-96694500D01*
X199335620Y-96460440D01*
X199335620Y-96460437D01*
X199276610Y-96227409D01*
X199180049Y-96007272D01*
X199048571Y-95806031D01*
X198885764Y-95629175D01*
X198885759Y-95629171D01*
X198885757Y-95629169D01*
X198696075Y-95481533D01*
X198696069Y-95481529D01*
X198484657Y-95367118D01*
X198484652Y-95367116D01*
X198257300Y-95289066D01*
X198068391Y-95257543D01*
X198020192Y-95249500D01*
X197779808Y-95249500D01*
X197732387Y-95257413D01*
X197542699Y-95289066D01*
X197315347Y-95367116D01*
X197315342Y-95367118D01*
X197103930Y-95481529D01*
X197103924Y-95481533D01*
X196914242Y-95629169D01*
X196914239Y-95629172D01*
X196751430Y-95806029D01*
X196751427Y-95806033D01*
X196619951Y-96007270D01*
X196523389Y-96227410D01*
X196464379Y-96460440D01*
X196444529Y-96699994D01*
X182485674Y-96699994D01*
X182466963Y-96694500D01*
X182466961Y-96694500D01*
X182323039Y-96694500D01*
X182323036Y-96694500D01*
X182184949Y-96735045D01*
X182063873Y-96812856D01*
X181969623Y-96921626D01*
X181969622Y-96921628D01*
X181909834Y-97052543D01*
X181889353Y-97195000D01*
X181909834Y-97337456D01*
X181935077Y-97392729D01*
X181969623Y-97468373D01*
X181997460Y-97500499D01*
X182052308Y-97563798D01*
X182081332Y-97627354D01*
X182071388Y-97696512D01*
X182052307Y-97726203D01*
X181991212Y-97796710D01*
X181932434Y-97834484D01*
X181862564Y-97834484D01*
X181803786Y-97796710D01*
X181781361Y-97770830D01*
X181731128Y-97712857D01*
X181610053Y-97635047D01*
X181610051Y-97635046D01*
X181610049Y-97635045D01*
X181610050Y-97635045D01*
X181471963Y-97594500D01*
X181471961Y-97594500D01*
X181328039Y-97594500D01*
X181328036Y-97594500D01*
X181189949Y-97635045D01*
X181068873Y-97712856D01*
X180974623Y-97821626D01*
X180974622Y-97821628D01*
X180914834Y-97952543D01*
X180894353Y-98095000D01*
X180914834Y-98237456D01*
X180974622Y-98368371D01*
X180974625Y-98368377D01*
X181054807Y-98460912D01*
X181083832Y-98524468D01*
X181073888Y-98593626D01*
X181054808Y-98623316D01*
X180969623Y-98721626D01*
X180969622Y-98721628D01*
X180909834Y-98852543D01*
X180889353Y-98995000D01*
X124890550Y-98995000D01*
X124885165Y-98957543D01*
X124825377Y-98826627D01*
X124731128Y-98717857D01*
X124610053Y-98640047D01*
X124610051Y-98640046D01*
X124610049Y-98640045D01*
X124610050Y-98640045D01*
X124471963Y-98599500D01*
X124471961Y-98599500D01*
X124328039Y-98599500D01*
X124328036Y-98599500D01*
X124189949Y-98640045D01*
X124068873Y-98717856D01*
X124068872Y-98717856D01*
X124068872Y-98717857D01*
X124065605Y-98721628D01*
X123993713Y-98804596D01*
X123934935Y-98842370D01*
X123865065Y-98842370D01*
X123806287Y-98804596D01*
X123731128Y-98717857D01*
X123610053Y-98640047D01*
X123610051Y-98640046D01*
X123610049Y-98640045D01*
X123610050Y-98640045D01*
X123471963Y-98599500D01*
X123471961Y-98599500D01*
X123328039Y-98599500D01*
X123328036Y-98599500D01*
X123189949Y-98640045D01*
X123068873Y-98717856D01*
X123068872Y-98717856D01*
X123068872Y-98717857D01*
X123065605Y-98721628D01*
X122993713Y-98804596D01*
X122934935Y-98842370D01*
X122865065Y-98842370D01*
X122806287Y-98804596D01*
X122731128Y-98717857D01*
X122610053Y-98640047D01*
X122610051Y-98640046D01*
X122610049Y-98640045D01*
X122610050Y-98640045D01*
X122471963Y-98599500D01*
X122471961Y-98599500D01*
X122328039Y-98599500D01*
X122328036Y-98599500D01*
X122189949Y-98640045D01*
X122068873Y-98717856D01*
X122068872Y-98717856D01*
X122068872Y-98717857D01*
X122056290Y-98732377D01*
X121974623Y-98826626D01*
X121974622Y-98826628D01*
X121914834Y-98957543D01*
X121894353Y-99100000D01*
X121100500Y-99100000D01*
X121100500Y-97750000D01*
X164044353Y-97750000D01*
X164064834Y-97892456D01*
X164110504Y-97992457D01*
X164124623Y-98023373D01*
X164218872Y-98132143D01*
X164339947Y-98209953D01*
X164339950Y-98209954D01*
X164339949Y-98209954D01*
X164478036Y-98250499D01*
X164478038Y-98250500D01*
X164478039Y-98250500D01*
X164621962Y-98250500D01*
X164621962Y-98250499D01*
X164760053Y-98209953D01*
X164881128Y-98132143D01*
X164975377Y-98023373D01*
X165035165Y-97892457D01*
X165048458Y-97799999D01*
X165744353Y-97799999D01*
X165764834Y-97942455D01*
X165806132Y-98032883D01*
X165824623Y-98073372D01*
X165918872Y-98182142D01*
X166039947Y-98259952D01*
X166039950Y-98259953D01*
X166039949Y-98259953D01*
X166178036Y-98300498D01*
X166178038Y-98300499D01*
X166178039Y-98300499D01*
X166321962Y-98300499D01*
X166321962Y-98300498D01*
X166460053Y-98259952D01*
X166581128Y-98182142D01*
X166675377Y-98073372D01*
X166687206Y-98047469D01*
X166732960Y-97994667D01*
X166800000Y-97974982D01*
X166867039Y-97994666D01*
X166912793Y-98047469D01*
X166924623Y-98073372D01*
X167018872Y-98182142D01*
X167139947Y-98259952D01*
X167139950Y-98259953D01*
X167139949Y-98259953D01*
X167278036Y-98300498D01*
X167278038Y-98300499D01*
X167278039Y-98300499D01*
X167421962Y-98300499D01*
X167421962Y-98300498D01*
X167560053Y-98259952D01*
X167681128Y-98182142D01*
X167775377Y-98073372D01*
X167835165Y-97942456D01*
X167848458Y-97850000D01*
X172894353Y-97850000D01*
X172914834Y-97992456D01*
X172939959Y-98047470D01*
X172974623Y-98123373D01*
X173068872Y-98232143D01*
X173189947Y-98309953D01*
X173189950Y-98309954D01*
X173189949Y-98309954D01*
X173328036Y-98350499D01*
X173328038Y-98350500D01*
X173328039Y-98350500D01*
X173471962Y-98350500D01*
X173471962Y-98350499D01*
X173610053Y-98309953D01*
X173731128Y-98232143D01*
X173825377Y-98123373D01*
X173885165Y-97992457D01*
X173905647Y-97850000D01*
X173885165Y-97707543D01*
X173825377Y-97576627D01*
X173731128Y-97467857D01*
X173610053Y-97390047D01*
X173610051Y-97390046D01*
X173610049Y-97390045D01*
X173610050Y-97390045D01*
X173471963Y-97349500D01*
X173471961Y-97349500D01*
X173328039Y-97349500D01*
X173328036Y-97349500D01*
X173189949Y-97390045D01*
X173068873Y-97467856D01*
X172974623Y-97576626D01*
X172974622Y-97576628D01*
X172914834Y-97707543D01*
X172894353Y-97850000D01*
X167848458Y-97850000D01*
X167855647Y-97799999D01*
X167835165Y-97657542D01*
X167775377Y-97526626D01*
X167681128Y-97417856D01*
X167560053Y-97340046D01*
X167560051Y-97340045D01*
X167560049Y-97340044D01*
X167560050Y-97340044D01*
X167421963Y-97299499D01*
X167421961Y-97299499D01*
X167278039Y-97299499D01*
X167278036Y-97299499D01*
X167139949Y-97340044D01*
X167018873Y-97417855D01*
X166924623Y-97526625D01*
X166924622Y-97526627D01*
X166912794Y-97552527D01*
X166867039Y-97605331D01*
X166799999Y-97625015D01*
X166732960Y-97605330D01*
X166687206Y-97552527D01*
X166675377Y-97526627D01*
X166675376Y-97526625D01*
X166666077Y-97515893D01*
X166581128Y-97417856D01*
X166460053Y-97340046D01*
X166460051Y-97340045D01*
X166460049Y-97340044D01*
X166460050Y-97340044D01*
X166321963Y-97299499D01*
X166321961Y-97299499D01*
X166178039Y-97299499D01*
X166178036Y-97299499D01*
X166039949Y-97340044D01*
X165918873Y-97417855D01*
X165824623Y-97526625D01*
X165824622Y-97526627D01*
X165764834Y-97657542D01*
X165744353Y-97799999D01*
X165048458Y-97799999D01*
X165055647Y-97750000D01*
X165035165Y-97607543D01*
X164975377Y-97476627D01*
X164881128Y-97367857D01*
X164760053Y-97290047D01*
X164760051Y-97290046D01*
X164760049Y-97290045D01*
X164760050Y-97290045D01*
X164621963Y-97249500D01*
X164621961Y-97249500D01*
X164478039Y-97249500D01*
X164478036Y-97249500D01*
X164339949Y-97290045D01*
X164218873Y-97367856D01*
X164124623Y-97476626D01*
X164124622Y-97476628D01*
X164064834Y-97607543D01*
X164044353Y-97750000D01*
X121100500Y-97750000D01*
X121100500Y-96561304D01*
X126038900Y-96561304D01*
X126038900Y-96738695D01*
X126073503Y-96912658D01*
X126073506Y-96912667D01*
X126141383Y-97076540D01*
X126141390Y-97076553D01*
X126239935Y-97224034D01*
X126239938Y-97224038D01*
X126365361Y-97349461D01*
X126365365Y-97349464D01*
X126512846Y-97448009D01*
X126512859Y-97448016D01*
X126581934Y-97476627D01*
X126676734Y-97515894D01*
X126676736Y-97515894D01*
X126676741Y-97515896D01*
X126850704Y-97550499D01*
X126850707Y-97550500D01*
X126850709Y-97550500D01*
X128228093Y-97550500D01*
X128228094Y-97550499D01*
X128286082Y-97538964D01*
X128402058Y-97515896D01*
X128402061Y-97515894D01*
X128402066Y-97515894D01*
X128565947Y-97448013D01*
X128713435Y-97349464D01*
X128838864Y-97224035D01*
X128937413Y-97076547D01*
X129005294Y-96912666D01*
X129039900Y-96738691D01*
X129039900Y-96561309D01*
X129039900Y-96561306D01*
X129039899Y-96561304D01*
X129037650Y-96549999D01*
X168794353Y-96549999D01*
X168814834Y-96692455D01*
X168869820Y-96812856D01*
X168874623Y-96823372D01*
X168968872Y-96932142D01*
X169089947Y-97009952D01*
X169089950Y-97009953D01*
X169089949Y-97009953D01*
X169228036Y-97050498D01*
X169228038Y-97050499D01*
X169228039Y-97050499D01*
X169371962Y-97050499D01*
X169371962Y-97050498D01*
X169510053Y-97009952D01*
X169525539Y-97000000D01*
X173844353Y-97000000D01*
X173864834Y-97142456D01*
X173902090Y-97224034D01*
X173924623Y-97273373D01*
X174018872Y-97382143D01*
X174139947Y-97459953D01*
X174139950Y-97459954D01*
X174139949Y-97459954D01*
X174278036Y-97500499D01*
X174278038Y-97500500D01*
X174278039Y-97500500D01*
X174421962Y-97500500D01*
X174421962Y-97500499D01*
X174560053Y-97459953D01*
X174681128Y-97382143D01*
X174775377Y-97273373D01*
X174835165Y-97142457D01*
X174855647Y-97000000D01*
X174835165Y-96857543D01*
X174775377Y-96726627D01*
X174681128Y-96617857D01*
X174560053Y-96540047D01*
X174560051Y-96540046D01*
X174560049Y-96540045D01*
X174560050Y-96540045D01*
X174421963Y-96499500D01*
X174421961Y-96499500D01*
X174278039Y-96499500D01*
X174278036Y-96499500D01*
X174139949Y-96540045D01*
X174018873Y-96617856D01*
X173924623Y-96726626D01*
X173924622Y-96726628D01*
X173864834Y-96857543D01*
X173844353Y-97000000D01*
X169525539Y-97000000D01*
X169631128Y-96932142D01*
X169725377Y-96823372D01*
X169785165Y-96692456D01*
X169805647Y-96549999D01*
X169785165Y-96407542D01*
X169736052Y-96300000D01*
X176394353Y-96300000D01*
X176414834Y-96442456D01*
X176440886Y-96499500D01*
X176474623Y-96573373D01*
X176568872Y-96682143D01*
X176689947Y-96759953D01*
X176689950Y-96759954D01*
X176689949Y-96759954D01*
X176828036Y-96800499D01*
X176828038Y-96800500D01*
X176828039Y-96800500D01*
X176971962Y-96800500D01*
X176971962Y-96800499D01*
X177110053Y-96759953D01*
X177231128Y-96682143D01*
X177325377Y-96573373D01*
X177385165Y-96442457D01*
X177405647Y-96300000D01*
X177385165Y-96157543D01*
X177325377Y-96026627D01*
X177231128Y-95917857D01*
X177110053Y-95840047D01*
X177110051Y-95840046D01*
X177110049Y-95840045D01*
X177110050Y-95840045D01*
X176971963Y-95799500D01*
X176971961Y-95799500D01*
X176828039Y-95799500D01*
X176828036Y-95799500D01*
X176689949Y-95840045D01*
X176568873Y-95917856D01*
X176474623Y-96026626D01*
X176474622Y-96026628D01*
X176414834Y-96157543D01*
X176394353Y-96300000D01*
X169736052Y-96300000D01*
X169725377Y-96276626D01*
X169631128Y-96167856D01*
X169510053Y-96090046D01*
X169510051Y-96090045D01*
X169510049Y-96090044D01*
X169510050Y-96090044D01*
X169371963Y-96049499D01*
X169371961Y-96049499D01*
X169228039Y-96049499D01*
X169228036Y-96049499D01*
X169089949Y-96090044D01*
X168968873Y-96167855D01*
X168874623Y-96276625D01*
X168874622Y-96276627D01*
X168814834Y-96407542D01*
X168794353Y-96549999D01*
X129037650Y-96549999D01*
X129005296Y-96387341D01*
X129005293Y-96387332D01*
X128937416Y-96223459D01*
X128937409Y-96223446D01*
X128838864Y-96075965D01*
X128838861Y-96075961D01*
X128713438Y-95950538D01*
X128713434Y-95950535D01*
X128565953Y-95851990D01*
X128565940Y-95851983D01*
X128402067Y-95784106D01*
X128402058Y-95784103D01*
X128228094Y-95749500D01*
X128228091Y-95749500D01*
X126850709Y-95749500D01*
X126850706Y-95749500D01*
X126676741Y-95784103D01*
X126676732Y-95784106D01*
X126512859Y-95851983D01*
X126512846Y-95851990D01*
X126365365Y-95950535D01*
X126365361Y-95950538D01*
X126239938Y-96075961D01*
X126239935Y-96075965D01*
X126141390Y-96223446D01*
X126141383Y-96223459D01*
X126073506Y-96387332D01*
X126073503Y-96387341D01*
X126038900Y-96561304D01*
X121100500Y-96561304D01*
X121100500Y-95050000D01*
X162544353Y-95050000D01*
X162564834Y-95192456D01*
X162568508Y-95200500D01*
X162624623Y-95323373D01*
X162718872Y-95432143D01*
X162839947Y-95509953D01*
X162839950Y-95509954D01*
X162839949Y-95509954D01*
X162978036Y-95550499D01*
X162978038Y-95550500D01*
X162978039Y-95550500D01*
X163121962Y-95550500D01*
X163121962Y-95550499D01*
X163260050Y-95509954D01*
X163260051Y-95509954D01*
X163260053Y-95509953D01*
X163372460Y-95437713D01*
X163439497Y-95418029D01*
X163506537Y-95437713D01*
X163552292Y-95490517D01*
X163562236Y-95524381D01*
X163564834Y-95542456D01*
X163568508Y-95550500D01*
X163624623Y-95673373D01*
X163718872Y-95782143D01*
X163839947Y-95859953D01*
X163839950Y-95859954D01*
X163839949Y-95859954D01*
X163978036Y-95900499D01*
X163978038Y-95900500D01*
X163978039Y-95900500D01*
X164121962Y-95900500D01*
X164121962Y-95900499D01*
X164260053Y-95859953D01*
X164381128Y-95782143D01*
X164475377Y-95673373D01*
X164535165Y-95542457D01*
X164555647Y-95400000D01*
X164535165Y-95257543D01*
X164475377Y-95126627D01*
X164381128Y-95017857D01*
X164260053Y-94940047D01*
X164260051Y-94940046D01*
X164260049Y-94940045D01*
X164260050Y-94940045D01*
X164121963Y-94899500D01*
X164121961Y-94899500D01*
X163978039Y-94899500D01*
X163978036Y-94899500D01*
X163839949Y-94940045D01*
X163727540Y-95012286D01*
X163660500Y-95031970D01*
X163593461Y-95012285D01*
X163547706Y-94959481D01*
X163537763Y-94925614D01*
X163535165Y-94907544D01*
X163531492Y-94899500D01*
X163475377Y-94776627D01*
X163408980Y-94700000D01*
X172894353Y-94700000D01*
X172914834Y-94842456D01*
X172953275Y-94926628D01*
X172974623Y-94973373D01*
X173068872Y-95082143D01*
X173189947Y-95159953D01*
X173189950Y-95159954D01*
X173189949Y-95159954D01*
X173297107Y-95191417D01*
X173326336Y-95200000D01*
X173328036Y-95200499D01*
X173328038Y-95200500D01*
X173328039Y-95200500D01*
X173471962Y-95200500D01*
X173471962Y-95200499D01*
X173610053Y-95159953D01*
X173731128Y-95082143D01*
X173825377Y-94973373D01*
X173885165Y-94842457D01*
X173903277Y-94716483D01*
X173932300Y-94652930D01*
X173991078Y-94615155D01*
X174060948Y-94615155D01*
X174093052Y-94629815D01*
X174139947Y-94659953D01*
X174139950Y-94659954D01*
X174139949Y-94659954D01*
X174196543Y-94676571D01*
X174276336Y-94700000D01*
X174278036Y-94700499D01*
X174278038Y-94700500D01*
X174278039Y-94700500D01*
X174421962Y-94700500D01*
X174421962Y-94700499D01*
X174560053Y-94659953D01*
X174681128Y-94582143D01*
X174775377Y-94473373D01*
X174835165Y-94342457D01*
X174855647Y-94200000D01*
X174835165Y-94057543D01*
X174808886Y-94000000D01*
X188094353Y-94000000D01*
X188114834Y-94142456D01*
X188153274Y-94226626D01*
X188174623Y-94273373D01*
X188268872Y-94382143D01*
X188389947Y-94459953D01*
X188477479Y-94485654D01*
X188536256Y-94523427D01*
X188565282Y-94586983D01*
X188555339Y-94656141D01*
X188509585Y-94708946D01*
X188477480Y-94723608D01*
X188421498Y-94740046D01*
X188300423Y-94817856D01*
X188206173Y-94926626D01*
X188206172Y-94926628D01*
X188146384Y-95057543D01*
X188125903Y-95200000D01*
X188146384Y-95342456D01*
X188189887Y-95437713D01*
X188206173Y-95473373D01*
X188300422Y-95582143D01*
X188421497Y-95659953D01*
X188421500Y-95659954D01*
X188421499Y-95659954D01*
X188559586Y-95700499D01*
X188559588Y-95700500D01*
X188559589Y-95700500D01*
X188703512Y-95700500D01*
X188703512Y-95700499D01*
X188841603Y-95659953D01*
X188962678Y-95582143D01*
X189056927Y-95473373D01*
X189116715Y-95342457D01*
X189137197Y-95200000D01*
X189116715Y-95057543D01*
X189056927Y-94926627D01*
X188962678Y-94817857D01*
X188841603Y-94740047D01*
X188841601Y-94740046D01*
X188841599Y-94740045D01*
X188841600Y-94740045D01*
X188754071Y-94714345D01*
X188695292Y-94676571D01*
X188666267Y-94613016D01*
X188676210Y-94543857D01*
X188721965Y-94491053D01*
X188754071Y-94476391D01*
X188810050Y-94459954D01*
X188810050Y-94459953D01*
X188810053Y-94459953D01*
X188931128Y-94382143D01*
X189025377Y-94273373D01*
X189085165Y-94142457D01*
X189105647Y-94000000D01*
X189085165Y-93857543D01*
X189025377Y-93726627D01*
X188931128Y-93617857D01*
X188810053Y-93540047D01*
X188810051Y-93540046D01*
X188810049Y-93540045D01*
X188810050Y-93540045D01*
X188671963Y-93499500D01*
X188671961Y-93499500D01*
X188528039Y-93499500D01*
X188528036Y-93499500D01*
X188389949Y-93540045D01*
X188268873Y-93617856D01*
X188174623Y-93726626D01*
X188174622Y-93726628D01*
X188114834Y-93857543D01*
X188094353Y-94000000D01*
X174808886Y-94000000D01*
X174775377Y-93926627D01*
X174681128Y-93817857D01*
X174560053Y-93740047D01*
X174560051Y-93740046D01*
X174560049Y-93740045D01*
X174560050Y-93740045D01*
X174421963Y-93699500D01*
X174421961Y-93699500D01*
X174278039Y-93699500D01*
X174278036Y-93699500D01*
X174139949Y-93740045D01*
X174018873Y-93817856D01*
X173924623Y-93926626D01*
X173924622Y-93926628D01*
X173864834Y-94057543D01*
X173846723Y-94183514D01*
X173817698Y-94247070D01*
X173758920Y-94284844D01*
X173689050Y-94284844D01*
X173656946Y-94270183D01*
X173610050Y-94240045D01*
X173471963Y-94199500D01*
X173471961Y-94199500D01*
X173328039Y-94199500D01*
X173328036Y-94199500D01*
X173189949Y-94240045D01*
X173068873Y-94317856D01*
X172974623Y-94426626D01*
X172974622Y-94426628D01*
X172914834Y-94557543D01*
X172894353Y-94700000D01*
X163408980Y-94700000D01*
X163381128Y-94667857D01*
X163260053Y-94590047D01*
X163260051Y-94590046D01*
X163260049Y-94590045D01*
X163260050Y-94590045D01*
X163121963Y-94549500D01*
X163121961Y-94549500D01*
X162978039Y-94549500D01*
X162978036Y-94549500D01*
X162839949Y-94590045D01*
X162718873Y-94667856D01*
X162624623Y-94776626D01*
X162624622Y-94776628D01*
X162564834Y-94907543D01*
X162544353Y-95050000D01*
X121100500Y-95050000D01*
X121100500Y-94499998D01*
X155044354Y-94499998D01*
X155064835Y-94642454D01*
X155109404Y-94740045D01*
X155124624Y-94773371D01*
X155218873Y-94882141D01*
X155339948Y-94959951D01*
X155339951Y-94959952D01*
X155339950Y-94959952D01*
X155478037Y-95000497D01*
X155478039Y-95000498D01*
X155478040Y-95000498D01*
X155621963Y-95000498D01*
X155621963Y-95000497D01*
X155760054Y-94959951D01*
X155881129Y-94882141D01*
X155975378Y-94773371D01*
X156035166Y-94642455D01*
X156055648Y-94499998D01*
X156035166Y-94357541D01*
X155975378Y-94226625D01*
X155881129Y-94117855D01*
X155760054Y-94040045D01*
X155760052Y-94040044D01*
X155760050Y-94040043D01*
X155760051Y-94040043D01*
X155621964Y-93999498D01*
X155621962Y-93999498D01*
X155478040Y-93999498D01*
X155478037Y-93999498D01*
X155339950Y-94040043D01*
X155218874Y-94117854D01*
X155124624Y-94226624D01*
X155124623Y-94226626D01*
X155064835Y-94357541D01*
X155044354Y-94499998D01*
X121100500Y-94499998D01*
X121100500Y-93199999D01*
X159494354Y-93199999D01*
X159514835Y-93342455D01*
X159551789Y-93423371D01*
X159574624Y-93473372D01*
X159668873Y-93582142D01*
X159789948Y-93659952D01*
X159789951Y-93659953D01*
X159789950Y-93659953D01*
X159928037Y-93700498D01*
X159928039Y-93700499D01*
X159928040Y-93700499D01*
X160071963Y-93700499D01*
X160071963Y-93700498D01*
X160210054Y-93659952D01*
X160331129Y-93582142D01*
X160425378Y-93473372D01*
X160485166Y-93342456D01*
X160505648Y-93199999D01*
X160498459Y-93150000D01*
X168194353Y-93150000D01*
X168214834Y-93292456D01*
X168259596Y-93390469D01*
X168274623Y-93423373D01*
X168368872Y-93532143D01*
X168489947Y-93609953D01*
X168489950Y-93609954D01*
X168489949Y-93609954D01*
X168628036Y-93650499D01*
X168628038Y-93650500D01*
X168628039Y-93650500D01*
X168771962Y-93650500D01*
X168771962Y-93650499D01*
X168910053Y-93609953D01*
X169031128Y-93532143D01*
X169125377Y-93423373D01*
X169181720Y-93300000D01*
X171494353Y-93300000D01*
X171514834Y-93442456D01*
X171560504Y-93542457D01*
X171574623Y-93573373D01*
X171668872Y-93682143D01*
X171789947Y-93759953D01*
X171789950Y-93759954D01*
X171789949Y-93759954D01*
X171928036Y-93800499D01*
X171928038Y-93800500D01*
X171928039Y-93800500D01*
X172071962Y-93800500D01*
X172071962Y-93800499D01*
X172210053Y-93759953D01*
X172331128Y-93682143D01*
X172425377Y-93573373D01*
X172485165Y-93442457D01*
X172491269Y-93400000D01*
X176294353Y-93400000D01*
X176314834Y-93542456D01*
X176345660Y-93609954D01*
X176374623Y-93673373D01*
X176468872Y-93782143D01*
X176589947Y-93859953D01*
X176589950Y-93859954D01*
X176589949Y-93859954D01*
X176728036Y-93900499D01*
X176728038Y-93900500D01*
X176728039Y-93900500D01*
X176871962Y-93900500D01*
X176871962Y-93900499D01*
X177010053Y-93859953D01*
X177131128Y-93782143D01*
X177225377Y-93673373D01*
X177285165Y-93542457D01*
X177305647Y-93400000D01*
X177297308Y-93342000D01*
X179894353Y-93342000D01*
X179914834Y-93484456D01*
X179941323Y-93542457D01*
X179974623Y-93615373D01*
X180068872Y-93724143D01*
X180189947Y-93801953D01*
X180189950Y-93801954D01*
X180189949Y-93801954D01*
X180328036Y-93842499D01*
X180328038Y-93842500D01*
X180328039Y-93842500D01*
X180471962Y-93842500D01*
X180471962Y-93842499D01*
X180610053Y-93801953D01*
X180731128Y-93724143D01*
X180825377Y-93615373D01*
X180885165Y-93484457D01*
X180905647Y-93342000D01*
X180885165Y-93199543D01*
X180825377Y-93068627D01*
X180731128Y-92959857D01*
X180610053Y-92882047D01*
X180610051Y-92882046D01*
X180610049Y-92882045D01*
X180610050Y-92882045D01*
X180471963Y-92841500D01*
X180471961Y-92841500D01*
X180328039Y-92841500D01*
X180328036Y-92841500D01*
X180189949Y-92882045D01*
X180068873Y-92959856D01*
X179974623Y-93068626D01*
X179974622Y-93068628D01*
X179914834Y-93199543D01*
X179894353Y-93342000D01*
X177297308Y-93342000D01*
X177285165Y-93257543D01*
X177225377Y-93126627D01*
X177131128Y-93017857D01*
X177010053Y-92940047D01*
X177010051Y-92940046D01*
X177010049Y-92940045D01*
X177010050Y-92940045D01*
X176871963Y-92899500D01*
X176871961Y-92899500D01*
X176728039Y-92899500D01*
X176728036Y-92899500D01*
X176589949Y-92940045D01*
X176468873Y-93017856D01*
X176374623Y-93126626D01*
X176374622Y-93126628D01*
X176314834Y-93257543D01*
X176294353Y-93400000D01*
X172491269Y-93400000D01*
X172505647Y-93300000D01*
X172485165Y-93157543D01*
X172425377Y-93026627D01*
X172331128Y-92917857D01*
X172210053Y-92840047D01*
X172210051Y-92840046D01*
X172210049Y-92840045D01*
X172210050Y-92840045D01*
X172071963Y-92799500D01*
X172071961Y-92799500D01*
X171928039Y-92799500D01*
X171928036Y-92799500D01*
X171789949Y-92840045D01*
X171668873Y-92917856D01*
X171574623Y-93026626D01*
X171574622Y-93026628D01*
X171514834Y-93157543D01*
X171494353Y-93300000D01*
X169181720Y-93300000D01*
X169185165Y-93292457D01*
X169205647Y-93150000D01*
X169185165Y-93007543D01*
X169125377Y-92876627D01*
X169031128Y-92767857D01*
X168910053Y-92690047D01*
X168910051Y-92690046D01*
X168910049Y-92690045D01*
X168910050Y-92690045D01*
X168771963Y-92649500D01*
X168771961Y-92649500D01*
X168628039Y-92649500D01*
X168628036Y-92649500D01*
X168489949Y-92690045D01*
X168368873Y-92767856D01*
X168274623Y-92876626D01*
X168274622Y-92876628D01*
X168214834Y-93007543D01*
X168194353Y-93150000D01*
X160498459Y-93150000D01*
X160485166Y-93057542D01*
X160425378Y-92926626D01*
X160331129Y-92817856D01*
X160210054Y-92740046D01*
X160210052Y-92740045D01*
X160210050Y-92740044D01*
X160210051Y-92740044D01*
X160071964Y-92699499D01*
X160071962Y-92699499D01*
X159928040Y-92699499D01*
X159928037Y-92699499D01*
X159789950Y-92740044D01*
X159668874Y-92817855D01*
X159574624Y-92926625D01*
X159574623Y-92926627D01*
X159514835Y-93057542D01*
X159494354Y-93199999D01*
X121100500Y-93199999D01*
X121100500Y-91250000D01*
X147844353Y-91250000D01*
X147864834Y-91392456D01*
X147924622Y-91523371D01*
X147924623Y-91523373D01*
X148018872Y-91632143D01*
X148139947Y-91709953D01*
X148139950Y-91709954D01*
X148139949Y-91709954D01*
X148247107Y-91741417D01*
X148261640Y-91745685D01*
X148278036Y-91750499D01*
X148278038Y-91750500D01*
X148278039Y-91750500D01*
X148421962Y-91750500D01*
X148421962Y-91750499D01*
X148560053Y-91709953D01*
X148681128Y-91632143D01*
X148775377Y-91523373D01*
X148831720Y-91400000D01*
X162394353Y-91400000D01*
X162414834Y-91542456D01*
X162463949Y-91650000D01*
X162474623Y-91673373D01*
X162568872Y-91782143D01*
X162689947Y-91859953D01*
X162689950Y-91859954D01*
X162689949Y-91859954D01*
X162797107Y-91891417D01*
X162824633Y-91899500D01*
X162828036Y-91900499D01*
X162828038Y-91900500D01*
X162828039Y-91900500D01*
X162971962Y-91900500D01*
X162971962Y-91900499D01*
X163110053Y-91859953D01*
X163231128Y-91782143D01*
X163325377Y-91673373D01*
X163336051Y-91650000D01*
X168194353Y-91650000D01*
X168214834Y-91792456D01*
X168274622Y-91923371D01*
X168274623Y-91923373D01*
X168368872Y-92032143D01*
X168489947Y-92109953D01*
X168489950Y-92109954D01*
X168489949Y-92109954D01*
X168628036Y-92150499D01*
X168628038Y-92150500D01*
X168628039Y-92150500D01*
X168771962Y-92150500D01*
X168771962Y-92150499D01*
X168910053Y-92109953D01*
X169031128Y-92032143D01*
X169125377Y-91923373D01*
X169158886Y-91850000D01*
X171494353Y-91850000D01*
X171514834Y-91992456D01*
X171532959Y-92032143D01*
X171574623Y-92123373D01*
X171668872Y-92232143D01*
X171789947Y-92309953D01*
X171789950Y-92309954D01*
X171789949Y-92309954D01*
X171928036Y-92350499D01*
X171928038Y-92350500D01*
X171928039Y-92350500D01*
X172071962Y-92350500D01*
X172071962Y-92350499D01*
X172210053Y-92309953D01*
X172331128Y-92232143D01*
X172425377Y-92123373D01*
X172458886Y-92050000D01*
X172944353Y-92050000D01*
X172964834Y-92192456D01*
X173018053Y-92308987D01*
X173024623Y-92323373D01*
X173118872Y-92432143D01*
X173239947Y-92509953D01*
X173239950Y-92509954D01*
X173239949Y-92509954D01*
X173378036Y-92550499D01*
X173378038Y-92550500D01*
X173378039Y-92550500D01*
X173521962Y-92550500D01*
X173521962Y-92550499D01*
X173554271Y-92541012D01*
X173624139Y-92541011D01*
X173682918Y-92578784D01*
X173711945Y-92642340D01*
X173711945Y-92677635D01*
X173694353Y-92799998D01*
X173694353Y-92799999D01*
X173714834Y-92942456D01*
X173772456Y-93068628D01*
X173774623Y-93073373D01*
X173868872Y-93182143D01*
X173989947Y-93259953D01*
X173989950Y-93259954D01*
X173989949Y-93259954D01*
X174097107Y-93291417D01*
X174126336Y-93300000D01*
X174128036Y-93300499D01*
X174128038Y-93300500D01*
X174128039Y-93300500D01*
X174271962Y-93300500D01*
X174271962Y-93300499D01*
X174410053Y-93259953D01*
X174531128Y-93182143D01*
X174625377Y-93073373D01*
X174685165Y-92942457D01*
X174705647Y-92800000D01*
X174685165Y-92657543D01*
X174625377Y-92526627D01*
X174531128Y-92417857D01*
X174410053Y-92340047D01*
X174410051Y-92340046D01*
X174410049Y-92340045D01*
X174410050Y-92340045D01*
X174271963Y-92299500D01*
X174271961Y-92299500D01*
X174128039Y-92299500D01*
X174128035Y-92299500D01*
X174095726Y-92308987D01*
X174025856Y-92308987D01*
X173967078Y-92271212D01*
X173938054Y-92207656D01*
X173938054Y-92172363D01*
X173941197Y-92150500D01*
X173955647Y-92050000D01*
X173935165Y-91907543D01*
X173875377Y-91776627D01*
X173781128Y-91667857D01*
X173660053Y-91590047D01*
X173660051Y-91590046D01*
X173660049Y-91590045D01*
X173660050Y-91590045D01*
X173521963Y-91549500D01*
X173521961Y-91549500D01*
X173378039Y-91549500D01*
X173378036Y-91549500D01*
X173239949Y-91590045D01*
X173118873Y-91667856D01*
X173024623Y-91776626D01*
X173024622Y-91776628D01*
X172964834Y-91907543D01*
X172944353Y-92050000D01*
X172458886Y-92050000D01*
X172485165Y-91992457D01*
X172505647Y-91850000D01*
X172485165Y-91707543D01*
X172425377Y-91576627D01*
X172331128Y-91467857D01*
X172210053Y-91390047D01*
X172210051Y-91390046D01*
X172210049Y-91390045D01*
X172210050Y-91390045D01*
X172071963Y-91349500D01*
X172071961Y-91349500D01*
X171928039Y-91349500D01*
X171928036Y-91349500D01*
X171789949Y-91390045D01*
X171668873Y-91467856D01*
X171574623Y-91576626D01*
X171574622Y-91576628D01*
X171514834Y-91707543D01*
X171494353Y-91850000D01*
X169158886Y-91850000D01*
X169185165Y-91792457D01*
X169205647Y-91650000D01*
X169185165Y-91507543D01*
X169125377Y-91376627D01*
X169031128Y-91267857D01*
X168910053Y-91190047D01*
X168910051Y-91190046D01*
X168910049Y-91190045D01*
X168910050Y-91190045D01*
X168771963Y-91149500D01*
X168771961Y-91149500D01*
X168628039Y-91149500D01*
X168628036Y-91149500D01*
X168489949Y-91190045D01*
X168368873Y-91267856D01*
X168274623Y-91376626D01*
X168274622Y-91376628D01*
X168214834Y-91507543D01*
X168194353Y-91650000D01*
X163336051Y-91650000D01*
X163385165Y-91542457D01*
X163399047Y-91445899D01*
X163428071Y-91382345D01*
X163486849Y-91344570D01*
X163556719Y-91344570D01*
X163588825Y-91359232D01*
X163589948Y-91359954D01*
X163692432Y-91390045D01*
X163726336Y-91400000D01*
X163728036Y-91400499D01*
X163728038Y-91400500D01*
X163728039Y-91400500D01*
X163871962Y-91400500D01*
X163871962Y-91400499D01*
X164010053Y-91359953D01*
X164131128Y-91282143D01*
X164225377Y-91173373D01*
X164285165Y-91042457D01*
X164305647Y-90900000D01*
X164285165Y-90757543D01*
X164225377Y-90626627D01*
X164131128Y-90517857D01*
X164010053Y-90440047D01*
X164010051Y-90440046D01*
X164010049Y-90440045D01*
X164010050Y-90440045D01*
X163871963Y-90399500D01*
X163871961Y-90399500D01*
X163728039Y-90399500D01*
X163728036Y-90399500D01*
X163589949Y-90440045D01*
X163468873Y-90517856D01*
X163374623Y-90626626D01*
X163374622Y-90626628D01*
X163314834Y-90757543D01*
X163300952Y-90854099D01*
X163271927Y-90917655D01*
X163213149Y-90955429D01*
X163143279Y-90955429D01*
X163111177Y-90940769D01*
X163110052Y-90940046D01*
X163110050Y-90940045D01*
X162971963Y-90899500D01*
X162971961Y-90899500D01*
X162828039Y-90899500D01*
X162828036Y-90899500D01*
X162689949Y-90940045D01*
X162568873Y-91017856D01*
X162474623Y-91126626D01*
X162474622Y-91126628D01*
X162414834Y-91257543D01*
X162394353Y-91400000D01*
X148831720Y-91400000D01*
X148835165Y-91392457D01*
X148855647Y-91250000D01*
X148835165Y-91107543D01*
X148775377Y-90976627D01*
X148681128Y-90867857D01*
X148560053Y-90790047D01*
X148560051Y-90790046D01*
X148560049Y-90790045D01*
X148560050Y-90790045D01*
X148421963Y-90749500D01*
X148421961Y-90749500D01*
X148278039Y-90749500D01*
X148278036Y-90749500D01*
X148139949Y-90790045D01*
X148018873Y-90867856D01*
X147924623Y-90976626D01*
X147924622Y-90976628D01*
X147864834Y-91107543D01*
X147844353Y-91250000D01*
X121100500Y-91250000D01*
X121100500Y-90400000D01*
X144294353Y-90400000D01*
X144314834Y-90542456D01*
X144373395Y-90670684D01*
X144374623Y-90673373D01*
X144468872Y-90782143D01*
X144589947Y-90859953D01*
X144589950Y-90859954D01*
X144589949Y-90859954D01*
X144655892Y-90879316D01*
X144726336Y-90900000D01*
X144728036Y-90900499D01*
X144728038Y-90900500D01*
X144728039Y-90900500D01*
X144871962Y-90900500D01*
X144871962Y-90900499D01*
X145010053Y-90859953D01*
X145131128Y-90782143D01*
X145225377Y-90673373D01*
X145285165Y-90542457D01*
X145305647Y-90400000D01*
X145285165Y-90257543D01*
X145225377Y-90126627D01*
X145131128Y-90017857D01*
X145010053Y-89940047D01*
X145010051Y-89940046D01*
X145010049Y-89940045D01*
X145010050Y-89940045D01*
X144871963Y-89899500D01*
X144871961Y-89899500D01*
X144728039Y-89899500D01*
X144728036Y-89899500D01*
X144589949Y-89940045D01*
X144468873Y-90017856D01*
X144374623Y-90126626D01*
X144374622Y-90126628D01*
X144314834Y-90257543D01*
X144294353Y-90400000D01*
X121100500Y-90400000D01*
X121100500Y-83061304D01*
X126038900Y-83061304D01*
X126038900Y-83238695D01*
X126073503Y-83412658D01*
X126073506Y-83412667D01*
X126141383Y-83576540D01*
X126141390Y-83576553D01*
X126239935Y-83724034D01*
X126239938Y-83724038D01*
X126365361Y-83849461D01*
X126365365Y-83849464D01*
X126512846Y-83948009D01*
X126512859Y-83948016D01*
X126595251Y-83982143D01*
X126676734Y-84015894D01*
X126676736Y-84015894D01*
X126676741Y-84015896D01*
X126850704Y-84050499D01*
X126850707Y-84050500D01*
X126850709Y-84050500D01*
X128228093Y-84050500D01*
X128228094Y-84050499D01*
X128294105Y-84037369D01*
X128329910Y-84030247D01*
X131088900Y-84030247D01*
X131088900Y-88569752D01*
X131100531Y-88628229D01*
X131100532Y-88628230D01*
X131144847Y-88694552D01*
X131211169Y-88738867D01*
X131211170Y-88738868D01*
X131269647Y-88750499D01*
X131269650Y-88750500D01*
X131269652Y-88750500D01*
X135809150Y-88750500D01*
X135809151Y-88750499D01*
X135823968Y-88747552D01*
X135867629Y-88738868D01*
X135867629Y-88738867D01*
X135867631Y-88738867D01*
X135933952Y-88694552D01*
X135978267Y-88628231D01*
X135978267Y-88628229D01*
X135978268Y-88628229D01*
X135989179Y-88573371D01*
X135989900Y-88569748D01*
X135989900Y-87100000D01*
X144294353Y-87100000D01*
X144314834Y-87242456D01*
X144344559Y-87307543D01*
X144374623Y-87373373D01*
X144468872Y-87482143D01*
X144589947Y-87559953D01*
X144589950Y-87559954D01*
X144589949Y-87559954D01*
X144692432Y-87590045D01*
X144724633Y-87599500D01*
X144728036Y-87600499D01*
X144728038Y-87600500D01*
X144728039Y-87600500D01*
X144871962Y-87600500D01*
X144871962Y-87600499D01*
X145010053Y-87559953D01*
X145131128Y-87482143D01*
X145158980Y-87450000D01*
X147844353Y-87450000D01*
X147864834Y-87592456D01*
X147899269Y-87667856D01*
X147924623Y-87723373D01*
X147970768Y-87776628D01*
X147985646Y-87793798D01*
X148014670Y-87857354D01*
X148004726Y-87926512D01*
X147985646Y-87956202D01*
X147924623Y-88026627D01*
X147924622Y-88026628D01*
X147864834Y-88157543D01*
X147844353Y-88300000D01*
X147864834Y-88442456D01*
X147903552Y-88527235D01*
X147924623Y-88573373D01*
X147972157Y-88628231D01*
X147985646Y-88643798D01*
X148014670Y-88707354D01*
X148004726Y-88776512D01*
X147985646Y-88806202D01*
X147924623Y-88876627D01*
X147924622Y-88876628D01*
X147864834Y-89007543D01*
X147844353Y-89150000D01*
X147864834Y-89292456D01*
X147924344Y-89422763D01*
X147924623Y-89423373D01*
X148018872Y-89532143D01*
X148139947Y-89609953D01*
X148139950Y-89609954D01*
X148139949Y-89609954D01*
X148247107Y-89641417D01*
X148261640Y-89645685D01*
X148278036Y-89650499D01*
X148278038Y-89650500D01*
X148278039Y-89650500D01*
X148421962Y-89650500D01*
X148421962Y-89650499D01*
X148560053Y-89609953D01*
X148575540Y-89600000D01*
X164294353Y-89600000D01*
X164314834Y-89742456D01*
X164372103Y-89867855D01*
X164374623Y-89873373D01*
X164468872Y-89982143D01*
X164589947Y-90059953D01*
X164589950Y-90059954D01*
X164589949Y-90059954D01*
X164695695Y-90091003D01*
X164724633Y-90099500D01*
X164728036Y-90100499D01*
X164728038Y-90100500D01*
X164728039Y-90100500D01*
X164871962Y-90100500D01*
X164871962Y-90100499D01*
X165010053Y-90059953D01*
X165131128Y-89982143D01*
X165225377Y-89873373D01*
X165285165Y-89742457D01*
X165305647Y-89600000D01*
X165298458Y-89550000D01*
X165944353Y-89550000D01*
X165964834Y-89692456D01*
X165994559Y-89757543D01*
X166024623Y-89823373D01*
X166118872Y-89932143D01*
X166239947Y-90009953D01*
X166239953Y-90009954D01*
X166240500Y-90010205D01*
X166240960Y-90010604D01*
X166247407Y-90014747D01*
X166246811Y-90015673D01*
X166293304Y-90055960D01*
X166312989Y-90122999D01*
X166293305Y-90190039D01*
X166270198Y-90216708D01*
X166268874Y-90217855D01*
X166174623Y-90326626D01*
X166174622Y-90326628D01*
X166114834Y-90457543D01*
X166094353Y-90600000D01*
X166114834Y-90742456D01*
X166168494Y-90859953D01*
X166174623Y-90873373D01*
X166268872Y-90982143D01*
X166389947Y-91059953D01*
X166389950Y-91059954D01*
X166389949Y-91059954D01*
X166455558Y-91079218D01*
X166510683Y-91095404D01*
X166528036Y-91100499D01*
X166528038Y-91100500D01*
X166528039Y-91100500D01*
X166671962Y-91100500D01*
X166671962Y-91100499D01*
X166810053Y-91059953D01*
X166931128Y-90982143D01*
X167025377Y-90873373D01*
X167085165Y-90742457D01*
X167105647Y-90600000D01*
X167091269Y-90500000D01*
X174494353Y-90500000D01*
X174514834Y-90642456D01*
X174568494Y-90759953D01*
X174574623Y-90773373D01*
X174668872Y-90882143D01*
X174789947Y-90959953D01*
X174789950Y-90959954D01*
X174789949Y-90959954D01*
X174928036Y-91000499D01*
X174928038Y-91000500D01*
X174928039Y-91000500D01*
X175071961Y-91000500D01*
X175148971Y-90977888D01*
X175218841Y-90977888D01*
X175277619Y-91015662D01*
X175306644Y-91079218D01*
X175306644Y-91114512D01*
X175294353Y-91199999D01*
X175314834Y-91342456D01*
X175360504Y-91442457D01*
X175374623Y-91473373D01*
X175468872Y-91582143D01*
X175589947Y-91659953D01*
X175589950Y-91659954D01*
X175589949Y-91659954D01*
X175728036Y-91700499D01*
X175728038Y-91700500D01*
X175728039Y-91700500D01*
X175871962Y-91700500D01*
X175871962Y-91700499D01*
X176010053Y-91659953D01*
X176131128Y-91582143D01*
X176225377Y-91473373D01*
X176285165Y-91342457D01*
X176305647Y-91200000D01*
X176285165Y-91057543D01*
X176225377Y-90926627D01*
X176131128Y-90817857D01*
X176010053Y-90740047D01*
X176010051Y-90740046D01*
X176010049Y-90740045D01*
X176010050Y-90740045D01*
X175871963Y-90699500D01*
X175871961Y-90699500D01*
X175728039Y-90699500D01*
X175651026Y-90722112D01*
X175581157Y-90722111D01*
X175522379Y-90684335D01*
X175493355Y-90620779D01*
X175493355Y-90585493D01*
X175505647Y-90500000D01*
X175485165Y-90357543D01*
X175425377Y-90226627D01*
X175331128Y-90117857D01*
X175210053Y-90040047D01*
X175210051Y-90040046D01*
X175210049Y-90040045D01*
X175210050Y-90040045D01*
X175071963Y-89999500D01*
X175071961Y-89999500D01*
X174928039Y-89999500D01*
X174928036Y-89999500D01*
X174789949Y-90040045D01*
X174668873Y-90117856D01*
X174668872Y-90117856D01*
X174668872Y-90117857D01*
X174661274Y-90126626D01*
X174574623Y-90226626D01*
X174574622Y-90226628D01*
X174514834Y-90357543D01*
X174494353Y-90500000D01*
X167091269Y-90500000D01*
X167085165Y-90457543D01*
X167025377Y-90326627D01*
X166931128Y-90217857D01*
X166810053Y-90140047D01*
X166810052Y-90140046D01*
X166810048Y-90140044D01*
X166809494Y-90139791D01*
X166809033Y-90139392D01*
X166802593Y-90135253D01*
X166803188Y-90134326D01*
X166756692Y-90094034D01*
X166737010Y-90026993D01*
X166756698Y-89959955D01*
X166779814Y-89933280D01*
X166781117Y-89932149D01*
X166781128Y-89932143D01*
X166875377Y-89823373D01*
X166915736Y-89735000D01*
X176644353Y-89735000D01*
X176664834Y-89877456D01*
X176693067Y-89939276D01*
X176724623Y-90008373D01*
X176818872Y-90117143D01*
X176939947Y-90194953D01*
X176939950Y-90194954D01*
X176939949Y-90194954D01*
X177078036Y-90235499D01*
X177078038Y-90235500D01*
X177078039Y-90235500D01*
X177221962Y-90235500D01*
X177221962Y-90235499D01*
X177360053Y-90194953D01*
X177481128Y-90117143D01*
X177575377Y-90008373D01*
X177635165Y-89877457D01*
X177655647Y-89735000D01*
X177635165Y-89592543D01*
X177575377Y-89461627D01*
X177481128Y-89352857D01*
X177360053Y-89275047D01*
X177360051Y-89275046D01*
X177360049Y-89275045D01*
X177360050Y-89275045D01*
X177221963Y-89234500D01*
X177221961Y-89234500D01*
X177078039Y-89234500D01*
X177078036Y-89234500D01*
X176939949Y-89275045D01*
X176818873Y-89352856D01*
X176724623Y-89461626D01*
X176724622Y-89461628D01*
X176664834Y-89592543D01*
X176644353Y-89735000D01*
X166915736Y-89735000D01*
X166935165Y-89692457D01*
X166955647Y-89550000D01*
X166935165Y-89407543D01*
X166875377Y-89276627D01*
X166781128Y-89167857D01*
X166660053Y-89090047D01*
X166660051Y-89090046D01*
X166660049Y-89090045D01*
X166660050Y-89090045D01*
X166521963Y-89049500D01*
X166521961Y-89049500D01*
X166378039Y-89049500D01*
X166378036Y-89049500D01*
X166239949Y-89090045D01*
X166118873Y-89167856D01*
X166024623Y-89276626D01*
X166024622Y-89276628D01*
X165964834Y-89407543D01*
X165944353Y-89550000D01*
X165298458Y-89550000D01*
X165285165Y-89457543D01*
X165225377Y-89326627D01*
X165131128Y-89217857D01*
X165010053Y-89140047D01*
X165010051Y-89140046D01*
X165010049Y-89140045D01*
X165010050Y-89140045D01*
X164871963Y-89099500D01*
X164871961Y-89099500D01*
X164728039Y-89099500D01*
X164728036Y-89099500D01*
X164589949Y-89140045D01*
X164468873Y-89217856D01*
X164374623Y-89326626D01*
X164374622Y-89326628D01*
X164314834Y-89457543D01*
X164294353Y-89600000D01*
X148575540Y-89600000D01*
X148681128Y-89532143D01*
X148775377Y-89423373D01*
X148835165Y-89292457D01*
X148855647Y-89150000D01*
X148835165Y-89007543D01*
X148786051Y-88899999D01*
X161044353Y-88899999D01*
X161064834Y-89042455D01*
X161109403Y-89140045D01*
X161124623Y-89173372D01*
X161218872Y-89282142D01*
X161339947Y-89359952D01*
X161339950Y-89359953D01*
X161339949Y-89359953D01*
X161415523Y-89382143D01*
X161471193Y-89398489D01*
X161478036Y-89400498D01*
X161478038Y-89400499D01*
X161478039Y-89400499D01*
X161621962Y-89400499D01*
X161621962Y-89400498D01*
X161748443Y-89363361D01*
X161760050Y-89359953D01*
X161760050Y-89359952D01*
X161760053Y-89359952D01*
X161881128Y-89282142D01*
X161975377Y-89173372D01*
X162035165Y-89042456D01*
X162055647Y-88899999D01*
X162041269Y-88799999D01*
X169544353Y-88799999D01*
X169564834Y-88942455D01*
X169610504Y-89042456D01*
X169624623Y-89073372D01*
X169718872Y-89182142D01*
X169839947Y-89259952D01*
X169839950Y-89259953D01*
X169839949Y-89259953D01*
X169978036Y-89300498D01*
X169978038Y-89300499D01*
X169978039Y-89300499D01*
X170121962Y-89300499D01*
X170121962Y-89300498D01*
X170260053Y-89259952D01*
X170381128Y-89182142D01*
X170475377Y-89073372D01*
X170535165Y-88942456D01*
X170555647Y-88799999D01*
X170535165Y-88657542D01*
X170475377Y-88526626D01*
X170421978Y-88465000D01*
X176644353Y-88465000D01*
X176664834Y-88607456D01*
X176690020Y-88662604D01*
X176724623Y-88738373D01*
X176818872Y-88847143D01*
X176939947Y-88924953D01*
X176939950Y-88924954D01*
X176939949Y-88924954D01*
X177078036Y-88965499D01*
X177078038Y-88965500D01*
X177078039Y-88965500D01*
X177221962Y-88965500D01*
X177221962Y-88965499D01*
X177360053Y-88924953D01*
X177481128Y-88847143D01*
X177575377Y-88738373D01*
X177635165Y-88607457D01*
X177655647Y-88465000D01*
X177635165Y-88322543D01*
X177575377Y-88191627D01*
X177495982Y-88100000D01*
X191044353Y-88100000D01*
X191064834Y-88242456D01*
X191122493Y-88368710D01*
X191124623Y-88373373D01*
X191174063Y-88430430D01*
X191207308Y-88468798D01*
X191236332Y-88532354D01*
X191226388Y-88601512D01*
X191207308Y-88631202D01*
X191124623Y-88726627D01*
X191124622Y-88726628D01*
X191064834Y-88857543D01*
X191044353Y-89000000D01*
X191064834Y-89142456D01*
X191099269Y-89217856D01*
X191124623Y-89273373D01*
X191170768Y-89326628D01*
X191207308Y-89368798D01*
X191236332Y-89432354D01*
X191226388Y-89501512D01*
X191207308Y-89531202D01*
X191124623Y-89626627D01*
X191124622Y-89626628D01*
X191064834Y-89757543D01*
X191044353Y-89900000D01*
X191064834Y-90042456D01*
X191124622Y-90173371D01*
X191124623Y-90173373D01*
X191170768Y-90226628D01*
X191207308Y-90268798D01*
X191236332Y-90332354D01*
X191226388Y-90401512D01*
X191207308Y-90431202D01*
X191124623Y-90526627D01*
X191124622Y-90526628D01*
X191064834Y-90657543D01*
X191044353Y-90800000D01*
X191064834Y-90942456D01*
X191117433Y-91057629D01*
X191124623Y-91073373D01*
X191218872Y-91182143D01*
X191339947Y-91259953D01*
X191339950Y-91259954D01*
X191339949Y-91259954D01*
X191415520Y-91282143D01*
X191476336Y-91300000D01*
X191478036Y-91300499D01*
X191478038Y-91300500D01*
X191478039Y-91300500D01*
X191621962Y-91300500D01*
X191621962Y-91300499D01*
X191760053Y-91259953D01*
X191881128Y-91182143D01*
X191956287Y-91095403D01*
X192015064Y-91057629D01*
X192084934Y-91057629D01*
X192143711Y-91095402D01*
X192218872Y-91182143D01*
X192339947Y-91259953D01*
X192339950Y-91259954D01*
X192339949Y-91259954D01*
X192415520Y-91282143D01*
X192476336Y-91300000D01*
X192478036Y-91300499D01*
X192478038Y-91300500D01*
X192478039Y-91300500D01*
X192621962Y-91300500D01*
X192621962Y-91300499D01*
X192760053Y-91259953D01*
X192881128Y-91182143D01*
X192975377Y-91073373D01*
X193035165Y-90942457D01*
X193055647Y-90800000D01*
X193035165Y-90657543D01*
X192975377Y-90526627D01*
X192892689Y-90431199D01*
X192863666Y-90367647D01*
X192873610Y-90298489D01*
X192892687Y-90268802D01*
X192975377Y-90173373D01*
X193035165Y-90042457D01*
X193055647Y-89900000D01*
X193035165Y-89757543D01*
X192975377Y-89626627D01*
X192892689Y-89531199D01*
X192863666Y-89467647D01*
X192873610Y-89398489D01*
X192892687Y-89368802D01*
X192975377Y-89273373D01*
X192986051Y-89250000D01*
X208344353Y-89250000D01*
X208364834Y-89392456D01*
X208409519Y-89490300D01*
X208424623Y-89523373D01*
X208518872Y-89632143D01*
X208526324Y-89636932D01*
X208539943Y-89645685D01*
X208585698Y-89698489D01*
X208595641Y-89767648D01*
X208566615Y-89831203D01*
X208539943Y-89854315D01*
X208518874Y-89867855D01*
X208518872Y-89867856D01*
X208518872Y-89867857D01*
X208510554Y-89877457D01*
X208424623Y-89976626D01*
X208424622Y-89976628D01*
X208364834Y-90107543D01*
X208344353Y-90250000D01*
X208364834Y-90392456D01*
X208413948Y-90499999D01*
X208424623Y-90523373D01*
X208518872Y-90632143D01*
X208518874Y-90632144D01*
X208518873Y-90632144D01*
X208578844Y-90670685D01*
X208624598Y-90723489D01*
X208634542Y-90792647D01*
X208605517Y-90856203D01*
X208578844Y-90879315D01*
X208518874Y-90917855D01*
X208424623Y-91026626D01*
X208424622Y-91026628D01*
X208364834Y-91157543D01*
X208344353Y-91300000D01*
X208364834Y-91442456D01*
X208410504Y-91542457D01*
X208424623Y-91573373D01*
X208518872Y-91682143D01*
X208518874Y-91682144D01*
X208518876Y-91682146D01*
X208617744Y-91745685D01*
X208663499Y-91798488D01*
X208673443Y-91867647D01*
X208644418Y-91931203D01*
X208617744Y-91954315D01*
X208518876Y-92017853D01*
X208518874Y-92017855D01*
X208424623Y-92126626D01*
X208424622Y-92126628D01*
X208364834Y-92257543D01*
X208344353Y-92400000D01*
X208364834Y-92542456D01*
X208424622Y-92673371D01*
X208424623Y-92673373D01*
X208518872Y-92782143D01*
X208518874Y-92782144D01*
X208518873Y-92782144D01*
X208578844Y-92820685D01*
X208624598Y-92873489D01*
X208634542Y-92942647D01*
X208605517Y-93006203D01*
X208578844Y-93029315D01*
X208518874Y-93067855D01*
X208518872Y-93067856D01*
X208518872Y-93067857D01*
X208496672Y-93093476D01*
X208424623Y-93176626D01*
X208424622Y-93176628D01*
X208364834Y-93307543D01*
X208344353Y-93450000D01*
X208364834Y-93592456D01*
X208413720Y-93699500D01*
X208424623Y-93723373D01*
X208518872Y-93832143D01*
X208639947Y-93909953D01*
X208639950Y-93909954D01*
X208639949Y-93909954D01*
X208778036Y-93950499D01*
X208778038Y-93950500D01*
X208778039Y-93950500D01*
X208921962Y-93950500D01*
X208921962Y-93950499D01*
X209060053Y-93909953D01*
X209181128Y-93832143D01*
X209275377Y-93723373D01*
X209335165Y-93592457D01*
X209355647Y-93450000D01*
X209335165Y-93307543D01*
X209275377Y-93176627D01*
X209181128Y-93067857D01*
X209121154Y-93029314D01*
X209075401Y-92976512D01*
X209065457Y-92907354D01*
X209094482Y-92843798D01*
X209121155Y-92820685D01*
X209181128Y-92782143D01*
X209275377Y-92673373D01*
X209335165Y-92542457D01*
X209355647Y-92400000D01*
X209335165Y-92257543D01*
X209275377Y-92126627D01*
X209181128Y-92017857D01*
X209082253Y-91954314D01*
X209036500Y-91901512D01*
X209026556Y-91832354D01*
X209055581Y-91768798D01*
X209082254Y-91745685D01*
X209181128Y-91682143D01*
X209275377Y-91573373D01*
X209335165Y-91442457D01*
X209348459Y-91349996D01*
X209894754Y-91349996D01*
X209894754Y-91350003D01*
X209913722Y-91675669D01*
X209913723Y-91675680D01*
X209970367Y-91996924D01*
X209970369Y-91996932D01*
X210063931Y-92309452D01*
X210193137Y-92608983D01*
X210193143Y-92608996D01*
X210356251Y-92891509D01*
X210551045Y-93153162D01*
X210551050Y-93153168D01*
X210551057Y-93153177D01*
X210774923Y-93390462D01*
X210774929Y-93390467D01*
X210774930Y-93390468D01*
X210774931Y-93390469D01*
X211024815Y-93600147D01*
X211024818Y-93600149D01*
X211024823Y-93600153D01*
X211297377Y-93779414D01*
X211588899Y-93925822D01*
X211895446Y-94037396D01*
X211895452Y-94037397D01*
X211895454Y-94037398D01*
X212212858Y-94112625D01*
X212212865Y-94112626D01*
X212212874Y-94112628D01*
X212536889Y-94150500D01*
X212536896Y-94150500D01*
X212863104Y-94150500D01*
X212863111Y-94150500D01*
X213187126Y-94112628D01*
X213187135Y-94112625D01*
X213187141Y-94112625D01*
X213493385Y-94040043D01*
X213504554Y-94037396D01*
X213811101Y-93925822D01*
X214102623Y-93779414D01*
X214375177Y-93600153D01*
X214625077Y-93390462D01*
X214848943Y-93153177D01*
X215043749Y-92891508D01*
X215206859Y-92608992D01*
X215336069Y-92309451D01*
X215336070Y-92309447D01*
X215336141Y-92309283D01*
X215380769Y-92255523D01*
X215447377Y-92234425D01*
X215514818Y-92252687D01*
X215561679Y-92304511D01*
X215563859Y-92309283D01*
X215563929Y-92309447D01*
X215563931Y-92309451D01*
X215663817Y-92541011D01*
X215693137Y-92608983D01*
X215693143Y-92608996D01*
X215856251Y-92891509D01*
X216051045Y-93153162D01*
X216051050Y-93153168D01*
X216051057Y-93153177D01*
X216274923Y-93390462D01*
X216274929Y-93390467D01*
X216274930Y-93390468D01*
X216274931Y-93390469D01*
X216524815Y-93600147D01*
X216524818Y-93600149D01*
X216524823Y-93600153D01*
X216797377Y-93779414D01*
X217088899Y-93925822D01*
X217395446Y-94037396D01*
X217395452Y-94037397D01*
X217395454Y-94037398D01*
X217712858Y-94112625D01*
X217712865Y-94112626D01*
X217712874Y-94112628D01*
X218036889Y-94150500D01*
X218036896Y-94150500D01*
X218363104Y-94150500D01*
X218363111Y-94150500D01*
X218687126Y-94112628D01*
X218687135Y-94112625D01*
X218687141Y-94112625D01*
X218993385Y-94040043D01*
X219004554Y-94037396D01*
X219311101Y-93925822D01*
X219602623Y-93779414D01*
X219875177Y-93600153D01*
X220125077Y-93390462D01*
X220348943Y-93153177D01*
X220543749Y-92891508D01*
X220706859Y-92608992D01*
X220836069Y-92309451D01*
X220929630Y-91996934D01*
X220930420Y-91992457D01*
X220986276Y-91675680D01*
X220986275Y-91675680D01*
X220986278Y-91675669D01*
X221005246Y-91350000D01*
X220986278Y-91024331D01*
X220986276Y-91024319D01*
X220929632Y-90703075D01*
X220929630Y-90703067D01*
X220923366Y-90682143D01*
X220836069Y-90390549D01*
X220706859Y-90091008D01*
X220606891Y-89917857D01*
X220543748Y-89808490D01*
X220348954Y-89546837D01*
X220348947Y-89546829D01*
X220348943Y-89546823D01*
X220125077Y-89309538D01*
X220125069Y-89309531D01*
X220125068Y-89309530D01*
X219875184Y-89099852D01*
X219875179Y-89099848D01*
X219875177Y-89099847D01*
X219602623Y-88920586D01*
X219515094Y-88876627D01*
X219311108Y-88774181D01*
X219311102Y-88774178D01*
X219004566Y-88662608D01*
X219004545Y-88662601D01*
X218687141Y-88587374D01*
X218687126Y-88587372D01*
X218680846Y-88586638D01*
X218363111Y-88549500D01*
X218036889Y-88549500D01*
X217884631Y-88567296D01*
X217723407Y-88586140D01*
X217654536Y-88574371D01*
X217602960Y-88527235D01*
X217585055Y-88459699D01*
X217606506Y-88393203D01*
X217609537Y-88388946D01*
X217793749Y-88141508D01*
X217956859Y-87858992D01*
X218086069Y-87559451D01*
X218179630Y-87246934D01*
X218180420Y-87242457D01*
X218224927Y-86990045D01*
X218236278Y-86925669D01*
X218255246Y-86600000D01*
X218236278Y-86274331D01*
X218227155Y-86222591D01*
X218179632Y-85953075D01*
X218179630Y-85953067D01*
X218140280Y-85821627D01*
X218086069Y-85640549D01*
X217956859Y-85341008D01*
X217793749Y-85058492D01*
X217792841Y-85057272D01*
X217598954Y-84796837D01*
X217598947Y-84796829D01*
X217598943Y-84796823D01*
X217375077Y-84559538D01*
X217375069Y-84559531D01*
X217375068Y-84559530D01*
X217125184Y-84349852D01*
X217125179Y-84349848D01*
X217125177Y-84349847D01*
X216852623Y-84170586D01*
X216847684Y-84168105D01*
X216561108Y-84024181D01*
X216561102Y-84024178D01*
X216254566Y-83912608D01*
X216254545Y-83912601D01*
X215937141Y-83837374D01*
X215937126Y-83837372D01*
X215917217Y-83835045D01*
X215613111Y-83799500D01*
X215286889Y-83799500D01*
X215003375Y-83832638D01*
X214962873Y-83837372D01*
X214962858Y-83837374D01*
X214645454Y-83912601D01*
X214645433Y-83912608D01*
X214338897Y-84024178D01*
X214338891Y-84024181D01*
X214047380Y-84170584D01*
X213774815Y-84349852D01*
X213524931Y-84559530D01*
X213524930Y-84559531D01*
X213524924Y-84559536D01*
X213524923Y-84559538D01*
X213301057Y-84796823D01*
X213301054Y-84796826D01*
X213301052Y-84796829D01*
X213301045Y-84796837D01*
X213106251Y-85058490D01*
X212943143Y-85341003D01*
X212943137Y-85341016D01*
X212813931Y-85640547D01*
X212720369Y-85953067D01*
X212720367Y-85953075D01*
X212663723Y-86274319D01*
X212663722Y-86274330D01*
X212644754Y-86599996D01*
X212644754Y-86600003D01*
X212663722Y-86925669D01*
X212663723Y-86925680D01*
X212720367Y-87246924D01*
X212720369Y-87246932D01*
X212813931Y-87559452D01*
X212943137Y-87858983D01*
X212943143Y-87858996D01*
X213106251Y-88141509D01*
X213290450Y-88388930D01*
X213314694Y-88454459D01*
X213299662Y-88522692D01*
X213250126Y-88571967D01*
X213181814Y-88586638D01*
X213176592Y-88586140D01*
X213018368Y-88567647D01*
X212863111Y-88549500D01*
X212536889Y-88549500D01*
X212257611Y-88582143D01*
X212212873Y-88587372D01*
X212212858Y-88587374D01*
X211895454Y-88662601D01*
X211895433Y-88662608D01*
X211588897Y-88774178D01*
X211588891Y-88774181D01*
X211297380Y-88920584D01*
X211024815Y-89099852D01*
X210774931Y-89309530D01*
X210774930Y-89309531D01*
X210774924Y-89309536D01*
X210774923Y-89309538D01*
X210551057Y-89546823D01*
X210551054Y-89546826D01*
X210551052Y-89546829D01*
X210551045Y-89546837D01*
X210356251Y-89808490D01*
X210193143Y-90091003D01*
X210193137Y-90091016D01*
X210063931Y-90390547D01*
X209970369Y-90703067D01*
X209970367Y-90703075D01*
X209913723Y-91024319D01*
X209913722Y-91024330D01*
X209894754Y-91349996D01*
X209348459Y-91349996D01*
X209355647Y-91300000D01*
X209335165Y-91157543D01*
X209275377Y-91026627D01*
X209181128Y-90917857D01*
X209121154Y-90879314D01*
X209075401Y-90826512D01*
X209065457Y-90757354D01*
X209094482Y-90693798D01*
X209121155Y-90670685D01*
X209181128Y-90632143D01*
X209275377Y-90523373D01*
X209335165Y-90392457D01*
X209355647Y-90250000D01*
X209335165Y-90107543D01*
X209275377Y-89976627D01*
X209181128Y-89867857D01*
X209181125Y-89867855D01*
X209181125Y-89867854D01*
X209160058Y-89854316D01*
X209114302Y-89801513D01*
X209104358Y-89732354D01*
X209133382Y-89668798D01*
X209160058Y-89645684D01*
X209181125Y-89632145D01*
X209181125Y-89632144D01*
X209181128Y-89632143D01*
X209275377Y-89523373D01*
X209335165Y-89392457D01*
X209355647Y-89250000D01*
X209335165Y-89107543D01*
X209275377Y-88976627D01*
X209181128Y-88867857D01*
X209060053Y-88790047D01*
X209060051Y-88790046D01*
X209060049Y-88790045D01*
X209060050Y-88790045D01*
X208921963Y-88749500D01*
X208921961Y-88749500D01*
X208778039Y-88749500D01*
X208778036Y-88749500D01*
X208639949Y-88790045D01*
X208518873Y-88867856D01*
X208424623Y-88976626D01*
X208424622Y-88976628D01*
X208364834Y-89107543D01*
X208344353Y-89250000D01*
X192986051Y-89250000D01*
X193035165Y-89142457D01*
X193055647Y-89000000D01*
X193035165Y-88857543D01*
X192975377Y-88726627D01*
X192892689Y-88631199D01*
X192863666Y-88567647D01*
X192873610Y-88498489D01*
X192892687Y-88468802D01*
X192975377Y-88373373D01*
X193035165Y-88242457D01*
X193055647Y-88100000D01*
X193035165Y-87957543D01*
X192975377Y-87826627D01*
X192881128Y-87717857D01*
X192760053Y-87640047D01*
X192760051Y-87640046D01*
X192760049Y-87640045D01*
X192760050Y-87640045D01*
X192621963Y-87599500D01*
X192621961Y-87599500D01*
X192478039Y-87599500D01*
X192478036Y-87599500D01*
X192339949Y-87640045D01*
X192218873Y-87717856D01*
X192218872Y-87717856D01*
X192218872Y-87717857D01*
X192199645Y-87740047D01*
X192143713Y-87804596D01*
X192084935Y-87842370D01*
X192015065Y-87842370D01*
X191956287Y-87804596D01*
X191881128Y-87717857D01*
X191760053Y-87640047D01*
X191760051Y-87640046D01*
X191760049Y-87640045D01*
X191760050Y-87640045D01*
X191621963Y-87599500D01*
X191621961Y-87599500D01*
X191478039Y-87599500D01*
X191478036Y-87599500D01*
X191339949Y-87640045D01*
X191218873Y-87717856D01*
X191124623Y-87826626D01*
X191124622Y-87826628D01*
X191064834Y-87957543D01*
X191044353Y-88100000D01*
X177495982Y-88100000D01*
X177481128Y-88082857D01*
X177360053Y-88005047D01*
X177360051Y-88005046D01*
X177360049Y-88005045D01*
X177360050Y-88005045D01*
X177221963Y-87964500D01*
X177221961Y-87964500D01*
X177078039Y-87964500D01*
X177078036Y-87964500D01*
X176939949Y-88005045D01*
X176818873Y-88082856D01*
X176724623Y-88191626D01*
X176724622Y-88191628D01*
X176664834Y-88322543D01*
X176644353Y-88465000D01*
X170421978Y-88465000D01*
X170381128Y-88417856D01*
X170260053Y-88340046D01*
X170260051Y-88340045D01*
X170260049Y-88340044D01*
X170260050Y-88340044D01*
X170121963Y-88299499D01*
X170121961Y-88299499D01*
X169978039Y-88299499D01*
X169978036Y-88299499D01*
X169839949Y-88340044D01*
X169718873Y-88417855D01*
X169624623Y-88526625D01*
X169624622Y-88526627D01*
X169564834Y-88657542D01*
X169544353Y-88799999D01*
X162041269Y-88799999D01*
X162035165Y-88757542D01*
X161991808Y-88662604D01*
X161986256Y-88650447D01*
X161976312Y-88581288D01*
X162005337Y-88517732D01*
X162064115Y-88479958D01*
X162133985Y-88479958D01*
X162166085Y-88494617D01*
X162189948Y-88509953D01*
X162189950Y-88509953D01*
X162189951Y-88509954D01*
X162238657Y-88524255D01*
X162326337Y-88550000D01*
X162328037Y-88550499D01*
X162328039Y-88550500D01*
X162328040Y-88550500D01*
X162471963Y-88550500D01*
X162471963Y-88550499D01*
X162610054Y-88509953D01*
X162731129Y-88432143D01*
X162825378Y-88323373D01*
X162885166Y-88192457D01*
X162905648Y-88050000D01*
X162885166Y-87907543D01*
X162825378Y-87776627D01*
X162731129Y-87667857D01*
X162610054Y-87590047D01*
X162610052Y-87590046D01*
X162610050Y-87590045D01*
X162610051Y-87590045D01*
X162471964Y-87549500D01*
X162471962Y-87549500D01*
X162328040Y-87549500D01*
X162328037Y-87549500D01*
X162189950Y-87590045D01*
X162068874Y-87667856D01*
X161974624Y-87776626D01*
X161974623Y-87776628D01*
X161914835Y-87907543D01*
X161894354Y-88050000D01*
X161914835Y-88192457D01*
X161914836Y-88192458D01*
X161963744Y-88299552D01*
X161973688Y-88368710D01*
X161944663Y-88432266D01*
X161885885Y-88470040D01*
X161816015Y-88470040D01*
X161783910Y-88455378D01*
X161760051Y-88440044D01*
X161621963Y-88399499D01*
X161621961Y-88399499D01*
X161478039Y-88399499D01*
X161478036Y-88399499D01*
X161339949Y-88440044D01*
X161218873Y-88517855D01*
X161124623Y-88626625D01*
X161124622Y-88626627D01*
X161064834Y-88757542D01*
X161044353Y-88899999D01*
X148786051Y-88899999D01*
X148775377Y-88876627D01*
X148714353Y-88806201D01*
X148685329Y-88742647D01*
X148695273Y-88673489D01*
X148714351Y-88643800D01*
X148775377Y-88573373D01*
X148835165Y-88442457D01*
X148855647Y-88300000D01*
X148841269Y-88200000D01*
X151694353Y-88200000D01*
X151714834Y-88342456D01*
X151760504Y-88442457D01*
X151774623Y-88473373D01*
X151868872Y-88582143D01*
X151989947Y-88659953D01*
X151989950Y-88659954D01*
X151989949Y-88659954D01*
X152128036Y-88700499D01*
X152128038Y-88700500D01*
X152128039Y-88700500D01*
X152271962Y-88700500D01*
X152271962Y-88700499D01*
X152401011Y-88662608D01*
X152410050Y-88659954D01*
X152410050Y-88659953D01*
X152410053Y-88659953D01*
X152531128Y-88582143D01*
X152581287Y-88524256D01*
X152640065Y-88486481D01*
X152709934Y-88486481D01*
X152768711Y-88524253D01*
X152768713Y-88524255D01*
X152768713Y-88524256D01*
X152812137Y-88574371D01*
X152818872Y-88582143D01*
X152939947Y-88659953D01*
X152939950Y-88659954D01*
X152939949Y-88659954D01*
X153078036Y-88700499D01*
X153078038Y-88700500D01*
X153078039Y-88700500D01*
X153221962Y-88700500D01*
X153221962Y-88700499D01*
X153351011Y-88662608D01*
X153360050Y-88659954D01*
X153360050Y-88659953D01*
X153360053Y-88659953D01*
X153481128Y-88582143D01*
X153531287Y-88524256D01*
X153590065Y-88486481D01*
X153659934Y-88486481D01*
X153718711Y-88524253D01*
X153718713Y-88524255D01*
X153718713Y-88524256D01*
X153762137Y-88574371D01*
X153768872Y-88582143D01*
X153889947Y-88659953D01*
X153889950Y-88659954D01*
X153889949Y-88659954D01*
X154028036Y-88700499D01*
X154028038Y-88700500D01*
X154028039Y-88700500D01*
X154171962Y-88700500D01*
X154171962Y-88700499D01*
X154301011Y-88662608D01*
X154310050Y-88659954D01*
X154310050Y-88659953D01*
X154310053Y-88659953D01*
X154431128Y-88582143D01*
X154525377Y-88473373D01*
X154585165Y-88342457D01*
X154605647Y-88200000D01*
X154585165Y-88057543D01*
X154525377Y-87926627D01*
X154431128Y-87817857D01*
X154310053Y-87740047D01*
X154310051Y-87740046D01*
X154310049Y-87740045D01*
X154310050Y-87740045D01*
X154171963Y-87699500D01*
X154171961Y-87699500D01*
X154028039Y-87699500D01*
X154028036Y-87699500D01*
X153889949Y-87740045D01*
X153768873Y-87817856D01*
X153718713Y-87875744D01*
X153659935Y-87913518D01*
X153590065Y-87913518D01*
X153531287Y-87875744D01*
X153516771Y-87858992D01*
X153481128Y-87817857D01*
X153360053Y-87740047D01*
X153360051Y-87740046D01*
X153360049Y-87740045D01*
X153360050Y-87740045D01*
X153221963Y-87699500D01*
X153221961Y-87699500D01*
X153078039Y-87699500D01*
X153078036Y-87699500D01*
X152939949Y-87740045D01*
X152818873Y-87817856D01*
X152768713Y-87875744D01*
X152709935Y-87913518D01*
X152640065Y-87913518D01*
X152581287Y-87875744D01*
X152566771Y-87858992D01*
X152531128Y-87817857D01*
X152410053Y-87740047D01*
X152410051Y-87740046D01*
X152410049Y-87740045D01*
X152410050Y-87740045D01*
X152271963Y-87699500D01*
X152271961Y-87699500D01*
X152128039Y-87699500D01*
X152128036Y-87699500D01*
X151989949Y-87740045D01*
X151868873Y-87817856D01*
X151774623Y-87926626D01*
X151774622Y-87926628D01*
X151714834Y-88057543D01*
X151694353Y-88200000D01*
X148841269Y-88200000D01*
X148835165Y-88157543D01*
X148775377Y-88026627D01*
X148714353Y-87956201D01*
X148685329Y-87892647D01*
X148695273Y-87823489D01*
X148714351Y-87793800D01*
X148775377Y-87723373D01*
X148835165Y-87592457D01*
X148855647Y-87450000D01*
X148835165Y-87307543D01*
X148808886Y-87250000D01*
X170544353Y-87250000D01*
X170564834Y-87392456D01*
X170624622Y-87523371D01*
X170624623Y-87523373D01*
X170718872Y-87632143D01*
X170839947Y-87709953D01*
X170839950Y-87709954D01*
X170839949Y-87709954D01*
X170978036Y-87750499D01*
X170978038Y-87750500D01*
X170978039Y-87750500D01*
X171121962Y-87750500D01*
X171121962Y-87750499D01*
X171260053Y-87709953D01*
X171381128Y-87632143D01*
X171475377Y-87523373D01*
X171535165Y-87392457D01*
X171555647Y-87250000D01*
X171535165Y-87107543D01*
X171475377Y-86976627D01*
X171381128Y-86867857D01*
X171260053Y-86790047D01*
X171260051Y-86790046D01*
X171260049Y-86790045D01*
X171260050Y-86790045D01*
X171121963Y-86749500D01*
X171121961Y-86749500D01*
X170978039Y-86749500D01*
X170978036Y-86749500D01*
X170839949Y-86790045D01*
X170718873Y-86867856D01*
X170624623Y-86976626D01*
X170624622Y-86976628D01*
X170564834Y-87107543D01*
X170544353Y-87250000D01*
X148808886Y-87250000D01*
X148775377Y-87176627D01*
X148681128Y-87067857D01*
X148560053Y-86990047D01*
X148560051Y-86990046D01*
X148560049Y-86990045D01*
X148560050Y-86990045D01*
X148421963Y-86949500D01*
X148421961Y-86949500D01*
X148278039Y-86949500D01*
X148278036Y-86949500D01*
X148139949Y-86990045D01*
X148018873Y-87067856D01*
X147924623Y-87176626D01*
X147924622Y-87176628D01*
X147864834Y-87307543D01*
X147844353Y-87450000D01*
X145158980Y-87450000D01*
X145225377Y-87373373D01*
X145285165Y-87242457D01*
X145305647Y-87100000D01*
X145285165Y-86957543D01*
X145225377Y-86826627D01*
X145131128Y-86717857D01*
X145010053Y-86640047D01*
X145010051Y-86640046D01*
X145010049Y-86640045D01*
X145010050Y-86640045D01*
X144871963Y-86599500D01*
X144871961Y-86599500D01*
X144728039Y-86599500D01*
X144728036Y-86599500D01*
X144589949Y-86640045D01*
X144468873Y-86717856D01*
X144374623Y-86826626D01*
X144374622Y-86826628D01*
X144314834Y-86957543D01*
X144294353Y-87100000D01*
X135989900Y-87100000D01*
X135989900Y-84295000D01*
X180894353Y-84295000D01*
X180914834Y-84437456D01*
X180970584Y-84559530D01*
X180974623Y-84568373D01*
X181024063Y-84625430D01*
X181057308Y-84663798D01*
X181086332Y-84727354D01*
X181076388Y-84796512D01*
X181057308Y-84826202D01*
X180974623Y-84921627D01*
X180974622Y-84921628D01*
X180914834Y-85052543D01*
X180894353Y-85195000D01*
X180914834Y-85337456D01*
X180916460Y-85341016D01*
X180974623Y-85468373D01*
X181011074Y-85510440D01*
X181057308Y-85563798D01*
X181086332Y-85627354D01*
X181076388Y-85696512D01*
X181057308Y-85726202D01*
X180974623Y-85821627D01*
X180974622Y-85821628D01*
X180914834Y-85952543D01*
X180894353Y-86095000D01*
X180914834Y-86237456D01*
X180931675Y-86274331D01*
X180974623Y-86368373D01*
X181068872Y-86477143D01*
X181189947Y-86554953D01*
X181189950Y-86554954D01*
X181189949Y-86554954D01*
X181328036Y-86595499D01*
X181328038Y-86595500D01*
X181328039Y-86595500D01*
X181471962Y-86595500D01*
X181471962Y-86595499D01*
X181610053Y-86554953D01*
X181731128Y-86477143D01*
X181806287Y-86390403D01*
X181865064Y-86352629D01*
X181934934Y-86352629D01*
X181993711Y-86390402D01*
X182068872Y-86477143D01*
X182189947Y-86554953D01*
X182189950Y-86554954D01*
X182189949Y-86554954D01*
X182328036Y-86595499D01*
X182328038Y-86595500D01*
X182328039Y-86595500D01*
X182471962Y-86595500D01*
X182471962Y-86595499D01*
X182610053Y-86554953D01*
X182731128Y-86477143D01*
X182825377Y-86368373D01*
X182885165Y-86237457D01*
X182905647Y-86095000D01*
X182885165Y-85952543D01*
X182825377Y-85821627D01*
X182763307Y-85749994D01*
X203594529Y-85749994D01*
X203594529Y-85750005D01*
X203614379Y-85989559D01*
X203673389Y-86222589D01*
X203769951Y-86442729D01*
X203843272Y-86554954D01*
X203901429Y-86643969D01*
X204064236Y-86820825D01*
X204064239Y-86820827D01*
X204064242Y-86820830D01*
X204253924Y-86968466D01*
X204253930Y-86968470D01*
X204253933Y-86968472D01*
X204465344Y-87082882D01*
X204465347Y-87082883D01*
X204692699Y-87160933D01*
X204692701Y-87160933D01*
X204692703Y-87160934D01*
X204929808Y-87200500D01*
X204929809Y-87200500D01*
X205170191Y-87200500D01*
X205170192Y-87200500D01*
X205407297Y-87160934D01*
X205634656Y-87082882D01*
X205846067Y-86968472D01*
X206035764Y-86820825D01*
X206198571Y-86643969D01*
X206330049Y-86442728D01*
X206426610Y-86222591D01*
X206485620Y-85989563D01*
X206505471Y-85750000D01*
X206503499Y-85726203D01*
X206485620Y-85510440D01*
X206485620Y-85510437D01*
X206426610Y-85277409D01*
X206330049Y-85057272D01*
X206326959Y-85052543D01*
X206198572Y-84856033D01*
X206198571Y-84856031D01*
X206035764Y-84679175D01*
X206035759Y-84679171D01*
X206035757Y-84679169D01*
X205846075Y-84531533D01*
X205846069Y-84531529D01*
X205634657Y-84417118D01*
X205634652Y-84417116D01*
X205407300Y-84339066D01*
X205229468Y-84309391D01*
X205170192Y-84299500D01*
X204929808Y-84299500D01*
X204882387Y-84307413D01*
X204692699Y-84339066D01*
X204465347Y-84417116D01*
X204465342Y-84417118D01*
X204253930Y-84531529D01*
X204253924Y-84531533D01*
X204064242Y-84679169D01*
X204064239Y-84679172D01*
X203901430Y-84856029D01*
X203901427Y-84856033D01*
X203769951Y-85057270D01*
X203673389Y-85277410D01*
X203614379Y-85510440D01*
X203594529Y-85749994D01*
X182763307Y-85749994D01*
X182742689Y-85726199D01*
X182713666Y-85662647D01*
X182723610Y-85593489D01*
X182742687Y-85563802D01*
X182825377Y-85468373D01*
X182885165Y-85337457D01*
X182905647Y-85195000D01*
X182885165Y-85052543D01*
X182825377Y-84921627D01*
X182742689Y-84826199D01*
X182713666Y-84762647D01*
X182723610Y-84693489D01*
X182742687Y-84663802D01*
X182825377Y-84568373D01*
X182885165Y-84437457D01*
X182905647Y-84295000D01*
X182885165Y-84152543D01*
X182825377Y-84021627D01*
X182742689Y-83926199D01*
X182713666Y-83862647D01*
X182723610Y-83793489D01*
X182742687Y-83763802D01*
X182825377Y-83668373D01*
X182885165Y-83537457D01*
X182905647Y-83395000D01*
X182885165Y-83252543D01*
X182825377Y-83121627D01*
X182731128Y-83012857D01*
X182610053Y-82935047D01*
X182610051Y-82935046D01*
X182610049Y-82935045D01*
X182610050Y-82935045D01*
X182471963Y-82894500D01*
X182471961Y-82894500D01*
X182328039Y-82894500D01*
X182328036Y-82894500D01*
X182189949Y-82935045D01*
X182068873Y-83012856D01*
X181974623Y-83121626D01*
X181974622Y-83121628D01*
X181914834Y-83252543D01*
X181894353Y-83395000D01*
X181914834Y-83537456D01*
X181974622Y-83668371D01*
X181974623Y-83668373D01*
X182022853Y-83724034D01*
X182057308Y-83763798D01*
X182086332Y-83827354D01*
X182076388Y-83896512D01*
X182057307Y-83926203D01*
X181993712Y-83999595D01*
X181934933Y-84037369D01*
X181865064Y-84037369D01*
X181806286Y-83999595D01*
X181791164Y-83982143D01*
X181731128Y-83912857D01*
X181610053Y-83835047D01*
X181610051Y-83835046D01*
X181610049Y-83835045D01*
X181610050Y-83835045D01*
X181471963Y-83794500D01*
X181471961Y-83794500D01*
X181328039Y-83794500D01*
X181328036Y-83794500D01*
X181189949Y-83835045D01*
X181068873Y-83912856D01*
X180974623Y-84021626D01*
X180974622Y-84021628D01*
X180914834Y-84152543D01*
X180894353Y-84295000D01*
X135989900Y-84295000D01*
X135989900Y-84030252D01*
X135989900Y-84030249D01*
X135989899Y-84030247D01*
X135978268Y-83971770D01*
X135978267Y-83971769D01*
X135933952Y-83905447D01*
X135867630Y-83861132D01*
X135867629Y-83861131D01*
X135809152Y-83849500D01*
X135809148Y-83849500D01*
X131269652Y-83849500D01*
X131269647Y-83849500D01*
X131211170Y-83861131D01*
X131211169Y-83861132D01*
X131144847Y-83905447D01*
X131100532Y-83971769D01*
X131100531Y-83971770D01*
X131088900Y-84030247D01*
X128329910Y-84030247D01*
X128402058Y-84015896D01*
X128402061Y-84015894D01*
X128402066Y-84015894D01*
X128565947Y-83948013D01*
X128713435Y-83849464D01*
X128838864Y-83724035D01*
X128921742Y-83600000D01*
X178094353Y-83600000D01*
X178114834Y-83742456D01*
X178174622Y-83873371D01*
X178174623Y-83873373D01*
X178268872Y-83982143D01*
X178389947Y-84059953D01*
X178389950Y-84059954D01*
X178389949Y-84059954D01*
X178528036Y-84100499D01*
X178528038Y-84100500D01*
X178528039Y-84100500D01*
X178671962Y-84100500D01*
X178671962Y-84100499D01*
X178810053Y-84059953D01*
X178931128Y-83982143D01*
X179025377Y-83873373D01*
X179085165Y-83742457D01*
X179105647Y-83600000D01*
X179085165Y-83457543D01*
X179025377Y-83326627D01*
X178931128Y-83217857D01*
X178810053Y-83140047D01*
X178810051Y-83140046D01*
X178810049Y-83140045D01*
X178810050Y-83140045D01*
X178671963Y-83099500D01*
X178671961Y-83099500D01*
X178528039Y-83099500D01*
X178528036Y-83099500D01*
X178389949Y-83140045D01*
X178268873Y-83217856D01*
X178174623Y-83326626D01*
X178174622Y-83326628D01*
X178114834Y-83457543D01*
X178094353Y-83600000D01*
X128921742Y-83600000D01*
X128937413Y-83576547D01*
X129005294Y-83412666D01*
X129039900Y-83238691D01*
X129039900Y-83061309D01*
X129039900Y-83061306D01*
X129039899Y-83061304D01*
X129005296Y-82887341D01*
X129005293Y-82887332D01*
X128997754Y-82869132D01*
X128966911Y-82794668D01*
X128937416Y-82723459D01*
X128937409Y-82723446D01*
X128838864Y-82575965D01*
X128838861Y-82575961D01*
X128713438Y-82450538D01*
X128713434Y-82450535D01*
X128565953Y-82351990D01*
X128565940Y-82351983D01*
X128402067Y-82284106D01*
X128402058Y-82284103D01*
X128228094Y-82249500D01*
X128228091Y-82249500D01*
X126850709Y-82249500D01*
X126850706Y-82249500D01*
X126676741Y-82284103D01*
X126676732Y-82284106D01*
X126512859Y-82351983D01*
X126512846Y-82351990D01*
X126365365Y-82450535D01*
X126365361Y-82450538D01*
X126239938Y-82575961D01*
X126239935Y-82575965D01*
X126141390Y-82723446D01*
X126141383Y-82723459D01*
X126073506Y-82887332D01*
X126073503Y-82887341D01*
X126038900Y-83061304D01*
X121100500Y-83061304D01*
X121100500Y-78900000D01*
X121894353Y-78900000D01*
X121914834Y-79042456D01*
X121974622Y-79173371D01*
X121974623Y-79173373D01*
X122024063Y-79230430D01*
X122057308Y-79268798D01*
X122086332Y-79332354D01*
X122076388Y-79401512D01*
X122057308Y-79431202D01*
X121974623Y-79526627D01*
X121974622Y-79526628D01*
X121914834Y-79657543D01*
X121894353Y-79800000D01*
X121914834Y-79942456D01*
X121974622Y-80073371D01*
X121974623Y-80073373D01*
X122024063Y-80130430D01*
X122057308Y-80168798D01*
X122086332Y-80232354D01*
X122076388Y-80301512D01*
X122057308Y-80331202D01*
X121974623Y-80426627D01*
X121974622Y-80426628D01*
X121914834Y-80557543D01*
X121894353Y-80700000D01*
X121914834Y-80842456D01*
X121959402Y-80940045D01*
X121974623Y-80973373D01*
X122068872Y-81082143D01*
X122189947Y-81159953D01*
X122189950Y-81159954D01*
X122189949Y-81159954D01*
X122328036Y-81200499D01*
X122328038Y-81200500D01*
X122328039Y-81200500D01*
X122471962Y-81200500D01*
X122471962Y-81200499D01*
X122610053Y-81159953D01*
X122731128Y-81082143D01*
X122806287Y-80995403D01*
X122865064Y-80957629D01*
X122934934Y-80957629D01*
X122993711Y-80995402D01*
X123068872Y-81082143D01*
X123189947Y-81159953D01*
X123189950Y-81159954D01*
X123189949Y-81159954D01*
X123328036Y-81200499D01*
X123328038Y-81200500D01*
X123328039Y-81200500D01*
X123471962Y-81200500D01*
X123471962Y-81200499D01*
X123610053Y-81159953D01*
X123731128Y-81082143D01*
X123806287Y-80995403D01*
X123865064Y-80957629D01*
X123934934Y-80957629D01*
X123993711Y-80995402D01*
X124068872Y-81082143D01*
X124189947Y-81159953D01*
X124189950Y-81159954D01*
X124189949Y-81159954D01*
X124328036Y-81200499D01*
X124328038Y-81200500D01*
X124328039Y-81200500D01*
X124471962Y-81200500D01*
X124471962Y-81200499D01*
X124610053Y-81159953D01*
X124618694Y-81154400D01*
X153419355Y-81154400D01*
X153439859Y-81323269D01*
X153439860Y-81323274D01*
X153500181Y-81482328D01*
X153500182Y-81482330D01*
X153562983Y-81573313D01*
X153584866Y-81639666D01*
X153567401Y-81707318D01*
X153529826Y-81746853D01*
X153480447Y-81779847D01*
X153436132Y-81846169D01*
X153436131Y-81846170D01*
X153424500Y-81904647D01*
X153424500Y-82944152D01*
X153436131Y-83002629D01*
X153436132Y-83002630D01*
X153480447Y-83068952D01*
X153546769Y-83113267D01*
X153546770Y-83113268D01*
X153605247Y-83124899D01*
X153605250Y-83124900D01*
X153605252Y-83124900D01*
X154644750Y-83124900D01*
X154644751Y-83124899D01*
X154659568Y-83121952D01*
X154703229Y-83113268D01*
X154703229Y-83113267D01*
X154703231Y-83113267D01*
X154769552Y-83068952D01*
X154800899Y-83022038D01*
X154854508Y-82977236D01*
X154923833Y-82968527D01*
X154986225Y-82998115D01*
X154994148Y-83005134D01*
X155144775Y-83084190D01*
X155309944Y-83124900D01*
X155480056Y-83124900D01*
X155645225Y-83084190D01*
X155763639Y-83022041D01*
X155795849Y-83005136D01*
X155795850Y-83005134D01*
X155795852Y-83005134D01*
X155923183Y-82892329D01*
X156019818Y-82752330D01*
X156080140Y-82593272D01*
X156085394Y-82550000D01*
X180194353Y-82550000D01*
X180214834Y-82692456D01*
X180228993Y-82723459D01*
X180274623Y-82823373D01*
X180368872Y-82932143D01*
X180489947Y-83009953D01*
X180489950Y-83009954D01*
X180489949Y-83009954D01*
X180628036Y-83050499D01*
X180628038Y-83050500D01*
X180628039Y-83050500D01*
X180771962Y-83050500D01*
X180771962Y-83050499D01*
X180910053Y-83009953D01*
X181031128Y-82932143D01*
X181102310Y-82849994D01*
X196294529Y-82849994D01*
X196294529Y-82850005D01*
X196314379Y-83089559D01*
X196373389Y-83322589D01*
X196469951Y-83542729D01*
X196600441Y-83742457D01*
X196601429Y-83743969D01*
X196764236Y-83920825D01*
X196764239Y-83920827D01*
X196764242Y-83920830D01*
X196953924Y-84068466D01*
X196953930Y-84068470D01*
X196953933Y-84068472D01*
X197165344Y-84182882D01*
X197165347Y-84182883D01*
X197392699Y-84260933D01*
X197392701Y-84260933D01*
X197392703Y-84260934D01*
X197629808Y-84300500D01*
X197629809Y-84300500D01*
X197870191Y-84300500D01*
X197870192Y-84300500D01*
X198107297Y-84260934D01*
X198334656Y-84182882D01*
X198546067Y-84068472D01*
X198569158Y-84050500D01*
X198634560Y-83999595D01*
X198735764Y-83920825D01*
X198898571Y-83743969D01*
X199030049Y-83542728D01*
X199126610Y-83322591D01*
X199185620Y-83089563D01*
X199198424Y-82935045D01*
X199205471Y-82850005D01*
X199205471Y-82849994D01*
X199185620Y-82610440D01*
X199185620Y-82610437D01*
X199182977Y-82600000D01*
X212844353Y-82600000D01*
X212864834Y-82742456D01*
X212902514Y-82824962D01*
X212924623Y-82873373D01*
X213018872Y-82982143D01*
X213139947Y-83059953D01*
X213139950Y-83059954D01*
X213139949Y-83059954D01*
X213247107Y-83091417D01*
X213274633Y-83099500D01*
X213278036Y-83100499D01*
X213278038Y-83100500D01*
X213278039Y-83100500D01*
X213421962Y-83100500D01*
X213421962Y-83100499D01*
X213560053Y-83059953D01*
X213681128Y-82982143D01*
X213775377Y-82873373D01*
X213775378Y-82873371D01*
X213781185Y-82866670D01*
X213784026Y-82869132D01*
X213823397Y-82834962D01*
X213892547Y-82824962D01*
X213956126Y-82853935D01*
X213967870Y-82867488D01*
X213968815Y-82866670D01*
X213974622Y-82873372D01*
X213974623Y-82873373D01*
X214068872Y-82982143D01*
X214189947Y-83059953D01*
X214189950Y-83059954D01*
X214189949Y-83059954D01*
X214297107Y-83091417D01*
X214324633Y-83099500D01*
X214328036Y-83100499D01*
X214328038Y-83100500D01*
X214328039Y-83100500D01*
X214471962Y-83100500D01*
X214471962Y-83100499D01*
X214610053Y-83059953D01*
X214731128Y-82982143D01*
X214825377Y-82873373D01*
X214837206Y-82847470D01*
X214882960Y-82794668D01*
X214950000Y-82774983D01*
X215017039Y-82794667D01*
X215062793Y-82847470D01*
X215074623Y-82873373D01*
X215168872Y-82982143D01*
X215289947Y-83059953D01*
X215289950Y-83059954D01*
X215289949Y-83059954D01*
X215397107Y-83091417D01*
X215424633Y-83099500D01*
X215428036Y-83100499D01*
X215428038Y-83100500D01*
X215428039Y-83100500D01*
X215571962Y-83100500D01*
X215571962Y-83100499D01*
X215710053Y-83059953D01*
X215831128Y-82982143D01*
X215925377Y-82873373D01*
X215925378Y-82873371D01*
X215931185Y-82866670D01*
X215934026Y-82869132D01*
X215973397Y-82834962D01*
X216042547Y-82824962D01*
X216106126Y-82853935D01*
X216117870Y-82867488D01*
X216118815Y-82866670D01*
X216124622Y-82873372D01*
X216124623Y-82873373D01*
X216218872Y-82982143D01*
X216339947Y-83059953D01*
X216339950Y-83059954D01*
X216339949Y-83059954D01*
X216447107Y-83091417D01*
X216474633Y-83099500D01*
X216478036Y-83100499D01*
X216478038Y-83100500D01*
X216478039Y-83100500D01*
X216621962Y-83100500D01*
X216621962Y-83100499D01*
X216760053Y-83059953D01*
X216881128Y-82982143D01*
X216956287Y-82895403D01*
X217015064Y-82857629D01*
X217084934Y-82857629D01*
X217143711Y-82895402D01*
X217218872Y-82982143D01*
X217339947Y-83059953D01*
X217339950Y-83059954D01*
X217339949Y-83059954D01*
X217447107Y-83091417D01*
X217474633Y-83099500D01*
X217478036Y-83100499D01*
X217478038Y-83100500D01*
X217478039Y-83100500D01*
X217621962Y-83100500D01*
X217621962Y-83100499D01*
X217760053Y-83059953D01*
X217881128Y-82982143D01*
X217975377Y-82873373D01*
X218035165Y-82742457D01*
X218055647Y-82600000D01*
X218035165Y-82457543D01*
X217975377Y-82326627D01*
X217881128Y-82217857D01*
X217760053Y-82140047D01*
X217760051Y-82140046D01*
X217760049Y-82140045D01*
X217760050Y-82140045D01*
X217621963Y-82099500D01*
X217621961Y-82099500D01*
X217478039Y-82099500D01*
X217478036Y-82099500D01*
X217339949Y-82140045D01*
X217218873Y-82217856D01*
X217218872Y-82217856D01*
X217218872Y-82217857D01*
X217161468Y-82284106D01*
X217143713Y-82304596D01*
X217084935Y-82342370D01*
X217015065Y-82342370D01*
X216956287Y-82304596D01*
X216881128Y-82217857D01*
X216760053Y-82140047D01*
X216760051Y-82140046D01*
X216760049Y-82140045D01*
X216760050Y-82140045D01*
X216621963Y-82099500D01*
X216621961Y-82099500D01*
X216478039Y-82099500D01*
X216478036Y-82099500D01*
X216339949Y-82140045D01*
X216218873Y-82217856D01*
X216218872Y-82217856D01*
X216218872Y-82217857D01*
X216161468Y-82284106D01*
X216118815Y-82333330D01*
X216116010Y-82330900D01*
X216076279Y-82365185D01*
X216007101Y-82374986D01*
X215943605Y-82345831D01*
X215932091Y-82332544D01*
X215931185Y-82333330D01*
X215906287Y-82304596D01*
X215831128Y-82217857D01*
X215710053Y-82140047D01*
X215710051Y-82140046D01*
X215710049Y-82140045D01*
X215710050Y-82140045D01*
X215571963Y-82099500D01*
X215571961Y-82099500D01*
X215428039Y-82099500D01*
X215428036Y-82099500D01*
X215289949Y-82140045D01*
X215168873Y-82217856D01*
X215074623Y-82326626D01*
X215074622Y-82326628D01*
X215062794Y-82352528D01*
X215017039Y-82405332D01*
X214949999Y-82425016D01*
X214882960Y-82405331D01*
X214837206Y-82352528D01*
X214825377Y-82326628D01*
X214825376Y-82326626D01*
X214806287Y-82304596D01*
X214731128Y-82217857D01*
X214610053Y-82140047D01*
X214610051Y-82140046D01*
X214610049Y-82140045D01*
X214610050Y-82140045D01*
X214471963Y-82099500D01*
X214471961Y-82099500D01*
X214328039Y-82099500D01*
X214328036Y-82099500D01*
X214189949Y-82140045D01*
X214068873Y-82217856D01*
X214068872Y-82217856D01*
X214068872Y-82217857D01*
X214011468Y-82284106D01*
X213968815Y-82333330D01*
X213966010Y-82330900D01*
X213926279Y-82365185D01*
X213857101Y-82374986D01*
X213793605Y-82345831D01*
X213782091Y-82332544D01*
X213781185Y-82333330D01*
X213756287Y-82304596D01*
X213681128Y-82217857D01*
X213560053Y-82140047D01*
X213560051Y-82140046D01*
X213560049Y-82140045D01*
X213560050Y-82140045D01*
X213421963Y-82099500D01*
X213421961Y-82099500D01*
X213278039Y-82099500D01*
X213278036Y-82099500D01*
X213139949Y-82140045D01*
X213018873Y-82217856D01*
X212924623Y-82326626D01*
X212924622Y-82326628D01*
X212864834Y-82457543D01*
X212844353Y-82600000D01*
X199182977Y-82600000D01*
X199126610Y-82377409D01*
X199030049Y-82157272D01*
X199018795Y-82140047D01*
X198898572Y-81956033D01*
X198898571Y-81956031D01*
X198735764Y-81779175D01*
X198735759Y-81779171D01*
X198735757Y-81779169D01*
X198546075Y-81631533D01*
X198546069Y-81631529D01*
X198334657Y-81517118D01*
X198334652Y-81517116D01*
X198107300Y-81439066D01*
X197929468Y-81409391D01*
X197870192Y-81399500D01*
X197629808Y-81399500D01*
X197582387Y-81407413D01*
X197392699Y-81439066D01*
X197165347Y-81517116D01*
X197165342Y-81517118D01*
X196953930Y-81631529D01*
X196953924Y-81631533D01*
X196764242Y-81779169D01*
X196764239Y-81779172D01*
X196764236Y-81779174D01*
X196764236Y-81779175D01*
X196761504Y-81782143D01*
X196601430Y-81956029D01*
X196601427Y-81956033D01*
X196469951Y-82157270D01*
X196373389Y-82377410D01*
X196314379Y-82610440D01*
X196294529Y-82849994D01*
X181102310Y-82849994D01*
X181125377Y-82823373D01*
X181185165Y-82692457D01*
X181205647Y-82550000D01*
X181185165Y-82407543D01*
X181125377Y-82276627D01*
X181031128Y-82167857D01*
X180910053Y-82090047D01*
X180910051Y-82090046D01*
X180910049Y-82090045D01*
X180910050Y-82090045D01*
X180771963Y-82049500D01*
X180771961Y-82049500D01*
X180628039Y-82049500D01*
X180628036Y-82049500D01*
X180489949Y-82090045D01*
X180368873Y-82167856D01*
X180274623Y-82276626D01*
X180274622Y-82276628D01*
X180214834Y-82407543D01*
X180194353Y-82550000D01*
X156085394Y-82550000D01*
X156100645Y-82424400D01*
X156080140Y-82255528D01*
X156019818Y-82096470D01*
X156015384Y-82090047D01*
X155985476Y-82046718D01*
X155923183Y-81956471D01*
X155839363Y-81882213D01*
X155802238Y-81823026D01*
X155803006Y-81753161D01*
X155839363Y-81696586D01*
X155923183Y-81622329D01*
X156019818Y-81482330D01*
X156033975Y-81445000D01*
X179149353Y-81445000D01*
X179169834Y-81587456D01*
X179189962Y-81631529D01*
X179229623Y-81718373D01*
X179323872Y-81827143D01*
X179444947Y-81904953D01*
X179444950Y-81904954D01*
X179444949Y-81904954D01*
X179583036Y-81945499D01*
X179583038Y-81945500D01*
X179583039Y-81945500D01*
X179726962Y-81945500D01*
X179726962Y-81945499D01*
X179865053Y-81904953D01*
X179986128Y-81827143D01*
X180080377Y-81718373D01*
X180140165Y-81587457D01*
X180160647Y-81445000D01*
X180154177Y-81400000D01*
X188025903Y-81400000D01*
X188046384Y-81542456D01*
X188087063Y-81631528D01*
X188106173Y-81673373D01*
X188200422Y-81782143D01*
X188321497Y-81859953D01*
X188321500Y-81859954D01*
X188321499Y-81859954D01*
X188459586Y-81900499D01*
X188459588Y-81900500D01*
X188459589Y-81900500D01*
X188603512Y-81900500D01*
X188603512Y-81900499D01*
X188741603Y-81859953D01*
X188862678Y-81782143D01*
X188956927Y-81673373D01*
X189016715Y-81542457D01*
X189037197Y-81400000D01*
X189016715Y-81257543D01*
X188956927Y-81126627D01*
X188862678Y-81017857D01*
X188741603Y-80940047D01*
X188741601Y-80940046D01*
X188741599Y-80940045D01*
X188741600Y-80940045D01*
X188603513Y-80899500D01*
X188603511Y-80899500D01*
X188459589Y-80899500D01*
X188459586Y-80899500D01*
X188321499Y-80940045D01*
X188200423Y-81017856D01*
X188106173Y-81126626D01*
X188106172Y-81126628D01*
X188046384Y-81257543D01*
X188025903Y-81400000D01*
X180154177Y-81400000D01*
X180140165Y-81302543D01*
X180080377Y-81171627D01*
X179986128Y-81062857D01*
X179865053Y-80985047D01*
X179865051Y-80985046D01*
X179865049Y-80985045D01*
X179865050Y-80985045D01*
X179726963Y-80944500D01*
X179726961Y-80944500D01*
X179583039Y-80944500D01*
X179583036Y-80944500D01*
X179444949Y-80985045D01*
X179323873Y-81062856D01*
X179229623Y-81171626D01*
X179229622Y-81171628D01*
X179169834Y-81302543D01*
X179149353Y-81445000D01*
X156033975Y-81445000D01*
X156080140Y-81323272D01*
X156100645Y-81154400D01*
X156080140Y-80985528D01*
X156069559Y-80957629D01*
X156025881Y-80842457D01*
X156019818Y-80826470D01*
X155984291Y-80775000D01*
X160819353Y-80775000D01*
X160839834Y-80917456D01*
X160899622Y-81048371D01*
X160899623Y-81048373D01*
X160993872Y-81157143D01*
X161114947Y-81234953D01*
X161114950Y-81234954D01*
X161114949Y-81234954D01*
X161253036Y-81275499D01*
X161253038Y-81275500D01*
X161253039Y-81275500D01*
X161396962Y-81275500D01*
X161396962Y-81275499D01*
X161535053Y-81234953D01*
X161656128Y-81157143D01*
X161750377Y-81048373D01*
X161810165Y-80917457D01*
X161830647Y-80775000D01*
X161810165Y-80632543D01*
X161750377Y-80501627D01*
X161656128Y-80392857D01*
X161535053Y-80315047D01*
X161535051Y-80315046D01*
X161535049Y-80315045D01*
X161535050Y-80315045D01*
X161396963Y-80274500D01*
X161396961Y-80274500D01*
X161253039Y-80274500D01*
X161253036Y-80274500D01*
X161114949Y-80315045D01*
X160993873Y-80392856D01*
X160899623Y-80501626D01*
X160899622Y-80501628D01*
X160839834Y-80632543D01*
X160819353Y-80775000D01*
X155984291Y-80775000D01*
X155923183Y-80686471D01*
X155795852Y-80573666D01*
X155795849Y-80573663D01*
X155645226Y-80494610D01*
X155480056Y-80453900D01*
X155309944Y-80453900D01*
X155144773Y-80494610D01*
X154994150Y-80573663D01*
X154866815Y-80686472D01*
X154862049Y-80693378D01*
X154807766Y-80737368D01*
X154738317Y-80745027D01*
X154675753Y-80713923D01*
X154657951Y-80693378D01*
X154653184Y-80686472D01*
X154525849Y-80573663D01*
X154375226Y-80494610D01*
X154210056Y-80453900D01*
X154039944Y-80453900D01*
X153874773Y-80494610D01*
X153724150Y-80573663D01*
X153596816Y-80686472D01*
X153500182Y-80826468D01*
X153439860Y-80985525D01*
X153439859Y-80985530D01*
X153419355Y-81154400D01*
X124618694Y-81154400D01*
X124731128Y-81082143D01*
X124825377Y-80973373D01*
X124885165Y-80842457D01*
X124905647Y-80700000D01*
X124885165Y-80557543D01*
X124825377Y-80426627D01*
X124742689Y-80331199D01*
X124713666Y-80267647D01*
X124723393Y-80200000D01*
X167894353Y-80200000D01*
X167914834Y-80342456D01*
X167953275Y-80426628D01*
X167974623Y-80473373D01*
X168068872Y-80582143D01*
X168189947Y-80659953D01*
X168189950Y-80659954D01*
X168189949Y-80659954D01*
X168280260Y-80686471D01*
X168326336Y-80700000D01*
X168328036Y-80700499D01*
X168328038Y-80700500D01*
X168328039Y-80700500D01*
X168471962Y-80700500D01*
X168471962Y-80700499D01*
X168610053Y-80659953D01*
X168731128Y-80582143D01*
X168825377Y-80473373D01*
X168885165Y-80342457D01*
X168905647Y-80200000D01*
X168891269Y-80100000D01*
X188144353Y-80100000D01*
X188164834Y-80242456D01*
X188210504Y-80342457D01*
X188224623Y-80373373D01*
X188318872Y-80482143D01*
X188439947Y-80559953D01*
X188439950Y-80559954D01*
X188439949Y-80559954D01*
X188578036Y-80600499D01*
X188578038Y-80600500D01*
X188578039Y-80600500D01*
X188721962Y-80600500D01*
X188721962Y-80600499D01*
X188860053Y-80559953D01*
X188981128Y-80482143D01*
X189075377Y-80373373D01*
X189135165Y-80242457D01*
X189155647Y-80100000D01*
X189135165Y-79957543D01*
X189075377Y-79826627D01*
X188981128Y-79717857D01*
X188860053Y-79640047D01*
X188860051Y-79640046D01*
X188860049Y-79640045D01*
X188860050Y-79640045D01*
X188721963Y-79599500D01*
X188721961Y-79599500D01*
X188578039Y-79599500D01*
X188578036Y-79599500D01*
X188439949Y-79640045D01*
X188318873Y-79717856D01*
X188224623Y-79826626D01*
X188224622Y-79826628D01*
X188164834Y-79957543D01*
X188144353Y-80100000D01*
X168891269Y-80100000D01*
X168885165Y-80057543D01*
X168825377Y-79926627D01*
X168731128Y-79817857D01*
X168610053Y-79740047D01*
X168610051Y-79740046D01*
X168610049Y-79740045D01*
X168610050Y-79740045D01*
X168471963Y-79699500D01*
X168471961Y-79699500D01*
X168328039Y-79699500D01*
X168328036Y-79699500D01*
X168189949Y-79740045D01*
X168068873Y-79817856D01*
X167974623Y-79926626D01*
X167974622Y-79926628D01*
X167914834Y-80057543D01*
X167894353Y-80200000D01*
X124723393Y-80200000D01*
X124723610Y-80198489D01*
X124742687Y-80168802D01*
X124825377Y-80073373D01*
X124885165Y-79942457D01*
X124905647Y-79800000D01*
X124885165Y-79657543D01*
X124825377Y-79526627D01*
X124742689Y-79431199D01*
X124713666Y-79367647D01*
X124723610Y-79298489D01*
X124742687Y-79268802D01*
X124825377Y-79173373D01*
X124885165Y-79042457D01*
X124905647Y-78900000D01*
X124885165Y-78757543D01*
X124825377Y-78626627D01*
X124731128Y-78517857D01*
X124610053Y-78440047D01*
X124610051Y-78440046D01*
X124610049Y-78440045D01*
X124610050Y-78440045D01*
X124471963Y-78399500D01*
X124471961Y-78399500D01*
X124328039Y-78399500D01*
X124328036Y-78399500D01*
X124189949Y-78440045D01*
X124068873Y-78517856D01*
X123993713Y-78604596D01*
X123934935Y-78642370D01*
X123865065Y-78642370D01*
X123806287Y-78604596D01*
X123731128Y-78517857D01*
X123610053Y-78440047D01*
X123610051Y-78440046D01*
X123610049Y-78440045D01*
X123610050Y-78440045D01*
X123471963Y-78399500D01*
X123471961Y-78399500D01*
X123328039Y-78399500D01*
X123328036Y-78399500D01*
X123189949Y-78440045D01*
X123068873Y-78517856D01*
X122993713Y-78604596D01*
X122934935Y-78642370D01*
X122865065Y-78642370D01*
X122806287Y-78604596D01*
X122731128Y-78517857D01*
X122610053Y-78440047D01*
X122610051Y-78440046D01*
X122610049Y-78440045D01*
X122610050Y-78440045D01*
X122471963Y-78399500D01*
X122471961Y-78399500D01*
X122328039Y-78399500D01*
X122328036Y-78399500D01*
X122189949Y-78440045D01*
X122068873Y-78517856D01*
X121974623Y-78626626D01*
X121974622Y-78626628D01*
X121914834Y-78757543D01*
X121894353Y-78900000D01*
X121100500Y-78900000D01*
X121100500Y-76350000D01*
X142594353Y-76350000D01*
X142614834Y-76492456D01*
X142674622Y-76623371D01*
X142674623Y-76623373D01*
X142694673Y-76646512D01*
X142757308Y-76718798D01*
X142786332Y-76782354D01*
X142776388Y-76851512D01*
X142757308Y-76881202D01*
X142674623Y-76976627D01*
X142674622Y-76976628D01*
X142614834Y-77107543D01*
X142594353Y-77250000D01*
X142614834Y-77392456D01*
X142666211Y-77504953D01*
X142674623Y-77523373D01*
X142724063Y-77580430D01*
X142757308Y-77618798D01*
X142786332Y-77682354D01*
X142776388Y-77751512D01*
X142757308Y-77781202D01*
X142674623Y-77876627D01*
X142674622Y-77876628D01*
X142614834Y-78007543D01*
X142594353Y-78150000D01*
X142614834Y-78292456D01*
X142663720Y-78399500D01*
X142674623Y-78423373D01*
X142768872Y-78532143D01*
X142889947Y-78609953D01*
X142889950Y-78609954D01*
X142889949Y-78609954D01*
X143028036Y-78650499D01*
X143028038Y-78650500D01*
X143028039Y-78650500D01*
X143171962Y-78650500D01*
X143171962Y-78650499D01*
X143310053Y-78609953D01*
X143431128Y-78532143D01*
X143525377Y-78423373D01*
X143585165Y-78292457D01*
X143605647Y-78150000D01*
X143585165Y-78007543D01*
X143525377Y-77876627D01*
X143442689Y-77781199D01*
X143413666Y-77717647D01*
X143423610Y-77648489D01*
X143442687Y-77618802D01*
X143525377Y-77523373D01*
X143585165Y-77392457D01*
X143605647Y-77250000D01*
X143585165Y-77107543D01*
X143525377Y-76976627D01*
X143442689Y-76881199D01*
X143413666Y-76817647D01*
X143423610Y-76748489D01*
X143442687Y-76718802D01*
X143525377Y-76623373D01*
X143585165Y-76492457D01*
X143605647Y-76350000D01*
X143585165Y-76207543D01*
X143525377Y-76076627D01*
X143431128Y-75967857D01*
X143310053Y-75890047D01*
X143310051Y-75890046D01*
X143310049Y-75890045D01*
X143310050Y-75890045D01*
X143171963Y-75849500D01*
X143171961Y-75849500D01*
X143028039Y-75849500D01*
X143028036Y-75849500D01*
X142889949Y-75890045D01*
X142768873Y-75967856D01*
X142674623Y-76076626D01*
X142674622Y-76076628D01*
X142614834Y-76207543D01*
X142594353Y-76350000D01*
X121100500Y-76350000D01*
X121100500Y-75300000D01*
X174694353Y-75300000D01*
X174714834Y-75442456D01*
X174749505Y-75518373D01*
X174774623Y-75573373D01*
X174868872Y-75682143D01*
X174989947Y-75759953D01*
X174989950Y-75759954D01*
X174989949Y-75759954D01*
X175128036Y-75800499D01*
X175128038Y-75800500D01*
X175128039Y-75800500D01*
X175271962Y-75800500D01*
X175271962Y-75800499D01*
X175410053Y-75759953D01*
X175531128Y-75682143D01*
X175625377Y-75573373D01*
X175685165Y-75442457D01*
X175705647Y-75300000D01*
X175685165Y-75157543D01*
X175625377Y-75026627D01*
X175531128Y-74917857D01*
X175410053Y-74840047D01*
X175410051Y-74840046D01*
X175410049Y-74840045D01*
X175410050Y-74840045D01*
X175271963Y-74799500D01*
X175271961Y-74799500D01*
X175128039Y-74799500D01*
X175128036Y-74799500D01*
X174989949Y-74840045D01*
X174868873Y-74917856D01*
X174774623Y-75026626D01*
X174774622Y-75026628D01*
X174714834Y-75157543D01*
X174694353Y-75300000D01*
X121100500Y-75300000D01*
X121100500Y-71400000D01*
X121544693Y-71400000D01*
X121563903Y-71742081D01*
X121563905Y-71742093D01*
X121621295Y-72079866D01*
X121621297Y-72079875D01*
X121672483Y-72257543D01*
X121716147Y-72409104D01*
X121791244Y-72590403D01*
X121847263Y-72725646D01*
X122012998Y-73025521D01*
X122211269Y-73304959D01*
X122439570Y-73560426D01*
X122439573Y-73560429D01*
X122695040Y-73788730D01*
X122695046Y-73788734D01*
X122695047Y-73788735D01*
X122974479Y-73987002D01*
X123274352Y-74152736D01*
X123590896Y-74283853D01*
X123920130Y-74378704D01*
X124257914Y-74436096D01*
X124600000Y-74455307D01*
X124942086Y-74436096D01*
X125279870Y-74378704D01*
X125609104Y-74283853D01*
X125925648Y-74152736D01*
X126225521Y-73987002D01*
X126504953Y-73788735D01*
X126528551Y-73767647D01*
X126639163Y-73668797D01*
X126760428Y-73560428D01*
X126988735Y-73304953D01*
X127187002Y-73025521D01*
X127352736Y-72725648D01*
X127483853Y-72409104D01*
X127578704Y-72079870D01*
X127636096Y-71742086D01*
X127655307Y-71400000D01*
X127636096Y-71057914D01*
X127578704Y-70720130D01*
X127483853Y-70390896D01*
X127352736Y-70074352D01*
X127187002Y-69774479D01*
X126988735Y-69495047D01*
X126988734Y-69495046D01*
X126988730Y-69495040D01*
X126760429Y-69239573D01*
X126760426Y-69239570D01*
X126504959Y-69011269D01*
X126225521Y-68812998D01*
X126202003Y-68800000D01*
X138694353Y-68800000D01*
X138714834Y-68942456D01*
X138774622Y-69073371D01*
X138774623Y-69073373D01*
X138792930Y-69094500D01*
X138857308Y-69168798D01*
X138886332Y-69232354D01*
X138876388Y-69301512D01*
X138857308Y-69331202D01*
X138774623Y-69426627D01*
X138774622Y-69426628D01*
X138714834Y-69557543D01*
X138694353Y-69700000D01*
X138714834Y-69842456D01*
X138770250Y-69963797D01*
X138774623Y-69973373D01*
X138792930Y-69994500D01*
X138857308Y-70068798D01*
X138886332Y-70132354D01*
X138876388Y-70201512D01*
X138857308Y-70231202D01*
X138774623Y-70326627D01*
X138774622Y-70326628D01*
X138714834Y-70457543D01*
X138694353Y-70600000D01*
X138714834Y-70742456D01*
X138755513Y-70831528D01*
X138774623Y-70873373D01*
X138821397Y-70927354D01*
X138857308Y-70968798D01*
X138886332Y-71032354D01*
X138876388Y-71101512D01*
X138857308Y-71131202D01*
X138774623Y-71226627D01*
X138774622Y-71226628D01*
X138714834Y-71357543D01*
X138694353Y-71500000D01*
X138714834Y-71642456D01*
X138760338Y-71742093D01*
X138774623Y-71773373D01*
X138821397Y-71827354D01*
X138857308Y-71868798D01*
X138886332Y-71932354D01*
X138876388Y-72001512D01*
X138857308Y-72031202D01*
X138774623Y-72126627D01*
X138774622Y-72126628D01*
X138714834Y-72257543D01*
X138694353Y-72400000D01*
X138714834Y-72542456D01*
X138774622Y-72673371D01*
X138774623Y-72673373D01*
X138819919Y-72725648D01*
X138857308Y-72768798D01*
X138886332Y-72832354D01*
X138876388Y-72901512D01*
X138857308Y-72931202D01*
X138774623Y-73026627D01*
X138774622Y-73026628D01*
X138714834Y-73157543D01*
X138694353Y-73300000D01*
X138714834Y-73442456D01*
X138774622Y-73573371D01*
X138774623Y-73573373D01*
X138824063Y-73630430D01*
X138857308Y-73668798D01*
X138886332Y-73732354D01*
X138876388Y-73801512D01*
X138857308Y-73831202D01*
X138774623Y-73926627D01*
X138774622Y-73926628D01*
X138714834Y-74057543D01*
X138694353Y-74200000D01*
X138714834Y-74342456D01*
X138733933Y-74384276D01*
X138774623Y-74473373D01*
X138868872Y-74582143D01*
X138989947Y-74659953D01*
X138989950Y-74659954D01*
X138989949Y-74659954D01*
X139128036Y-74700499D01*
X139128038Y-74700500D01*
X139128039Y-74700500D01*
X139271962Y-74700500D01*
X139271962Y-74700499D01*
X139410053Y-74659953D01*
X139531128Y-74582143D01*
X139625377Y-74473373D01*
X139685165Y-74342457D01*
X139705647Y-74200000D01*
X139685165Y-74057543D01*
X139625377Y-73926627D01*
X139542689Y-73831199D01*
X139513666Y-73767647D01*
X139523610Y-73698489D01*
X139542687Y-73668802D01*
X139625377Y-73573373D01*
X139685165Y-73442457D01*
X139705647Y-73300000D01*
X139690008Y-73191228D01*
X150199500Y-73191228D01*
X150199500Y-74058771D01*
X150232182Y-74223074D01*
X150232184Y-74223082D01*
X150296295Y-74377860D01*
X150389373Y-74517162D01*
X150507837Y-74635626D01*
X150544247Y-74659954D01*
X150647137Y-74728703D01*
X150801918Y-74792816D01*
X150966228Y-74825499D01*
X150966232Y-74825500D01*
X150966233Y-74825500D01*
X151133768Y-74825500D01*
X151133769Y-74825499D01*
X151298082Y-74792816D01*
X151452863Y-74728703D01*
X151592162Y-74635626D01*
X151710626Y-74517162D01*
X151803703Y-74377863D01*
X151867816Y-74223082D01*
X151900500Y-74058767D01*
X151900500Y-73191233D01*
X151867816Y-73026918D01*
X151803703Y-72872137D01*
X151734654Y-72768798D01*
X151710626Y-72732837D01*
X151592162Y-72614373D01*
X151578504Y-72605247D01*
X152199500Y-72605247D01*
X152199500Y-74644752D01*
X152211131Y-74703229D01*
X152211132Y-74703230D01*
X152255447Y-74769552D01*
X152321769Y-74813867D01*
X152321770Y-74813868D01*
X152380247Y-74825499D01*
X152380250Y-74825500D01*
X152380252Y-74825500D01*
X153719750Y-74825500D01*
X153719751Y-74825499D01*
X153734568Y-74822552D01*
X153778229Y-74813868D01*
X153778229Y-74813867D01*
X153778231Y-74813867D01*
X153844552Y-74769552D01*
X153888867Y-74703231D01*
X153888867Y-74703229D01*
X153888868Y-74703229D01*
X153900499Y-74644752D01*
X153900500Y-74644750D01*
X153900500Y-73191228D01*
X157649500Y-73191228D01*
X157649500Y-74058771D01*
X157682182Y-74223074D01*
X157682184Y-74223082D01*
X157746295Y-74377860D01*
X157839373Y-74517162D01*
X157957837Y-74635626D01*
X157994247Y-74659954D01*
X158097137Y-74728703D01*
X158251918Y-74792816D01*
X158416228Y-74825499D01*
X158416232Y-74825500D01*
X158416233Y-74825500D01*
X158583768Y-74825500D01*
X158583769Y-74825499D01*
X158748082Y-74792816D01*
X158902863Y-74728703D01*
X159042162Y-74635626D01*
X159160626Y-74517162D01*
X159253703Y-74377863D01*
X159317816Y-74223082D01*
X159350500Y-74058767D01*
X159350500Y-73191233D01*
X159317816Y-73026918D01*
X159253703Y-72872137D01*
X159184654Y-72768798D01*
X159160626Y-72732837D01*
X159042162Y-72614373D01*
X159028504Y-72605247D01*
X159649500Y-72605247D01*
X159649500Y-74644752D01*
X159661131Y-74703229D01*
X159661132Y-74703230D01*
X159705447Y-74769552D01*
X159771769Y-74813867D01*
X159771770Y-74813868D01*
X159830247Y-74825499D01*
X159830250Y-74825500D01*
X159830252Y-74825500D01*
X161169750Y-74825500D01*
X161169751Y-74825499D01*
X161184568Y-74822552D01*
X161228229Y-74813868D01*
X161228229Y-74813867D01*
X161228231Y-74813867D01*
X161294552Y-74769552D01*
X161338867Y-74703231D01*
X161338867Y-74703229D01*
X161338868Y-74703229D01*
X161350499Y-74644752D01*
X161350500Y-74644750D01*
X161350500Y-74345000D01*
X190989353Y-74345000D01*
X191009834Y-74487456D01*
X191023401Y-74517162D01*
X191069623Y-74618373D01*
X191105652Y-74659953D01*
X191152308Y-74713798D01*
X191181332Y-74777354D01*
X191171388Y-74846512D01*
X191152308Y-74876202D01*
X191069623Y-74971627D01*
X191069622Y-74971628D01*
X191009834Y-75102543D01*
X190989353Y-75245000D01*
X191009834Y-75387456D01*
X191034952Y-75442456D01*
X191069623Y-75518373D01*
X191117279Y-75573371D01*
X191152308Y-75613798D01*
X191181332Y-75677354D01*
X191171388Y-75746512D01*
X191152308Y-75776202D01*
X191069623Y-75871627D01*
X191069622Y-75871628D01*
X191009834Y-76002543D01*
X190989353Y-76145000D01*
X191009834Y-76287456D01*
X191069622Y-76418371D01*
X191069623Y-76418373D01*
X191119063Y-76475430D01*
X191152308Y-76513798D01*
X191181332Y-76577354D01*
X191171388Y-76646512D01*
X191152308Y-76676202D01*
X191069623Y-76771627D01*
X191069622Y-76771628D01*
X191009834Y-76902543D01*
X190989353Y-77045000D01*
X191009834Y-77187456D01*
X191062433Y-77302629D01*
X191069623Y-77318373D01*
X191163872Y-77427143D01*
X191284947Y-77504953D01*
X191284950Y-77504954D01*
X191284949Y-77504954D01*
X191423036Y-77545499D01*
X191423038Y-77545500D01*
X191423039Y-77545500D01*
X191566962Y-77545500D01*
X191566962Y-77545499D01*
X191705053Y-77504953D01*
X191826128Y-77427143D01*
X191901287Y-77340403D01*
X191960064Y-77302629D01*
X192029934Y-77302629D01*
X192088711Y-77340402D01*
X192163872Y-77427143D01*
X192284947Y-77504953D01*
X192284950Y-77504954D01*
X192284949Y-77504954D01*
X192423036Y-77545499D01*
X192423038Y-77545500D01*
X192423039Y-77545500D01*
X192566962Y-77545500D01*
X192566962Y-77545499D01*
X192705053Y-77504953D01*
X192826128Y-77427143D01*
X192920377Y-77318373D01*
X192980165Y-77187457D01*
X193000647Y-77045000D01*
X192980165Y-76902543D01*
X192920377Y-76771627D01*
X192837689Y-76676199D01*
X192808666Y-76612647D01*
X192818610Y-76543489D01*
X192837687Y-76513802D01*
X192920377Y-76418373D01*
X192980165Y-76287457D01*
X193000647Y-76145000D01*
X192980165Y-76002543D01*
X192920377Y-75871627D01*
X192837689Y-75776199D01*
X192808666Y-75712647D01*
X192818610Y-75643489D01*
X192837687Y-75613802D01*
X192920377Y-75518373D01*
X192980165Y-75387457D01*
X193000647Y-75245000D01*
X192980165Y-75102543D01*
X192920377Y-74971627D01*
X192837689Y-74876199D01*
X192808666Y-74812647D01*
X192818610Y-74743489D01*
X192837687Y-74713802D01*
X192920377Y-74618373D01*
X192980165Y-74487457D01*
X193000647Y-74345000D01*
X192980165Y-74202543D01*
X192920377Y-74071627D01*
X192826128Y-73962857D01*
X192705053Y-73885047D01*
X192705051Y-73885046D01*
X192705049Y-73885045D01*
X192705050Y-73885045D01*
X192566963Y-73844500D01*
X192566961Y-73844500D01*
X192423039Y-73844500D01*
X192423036Y-73844500D01*
X192284949Y-73885045D01*
X192163873Y-73962856D01*
X192163872Y-73962856D01*
X192163872Y-73962857D01*
X192142951Y-73987002D01*
X192088713Y-74049596D01*
X192029935Y-74087370D01*
X191960065Y-74087370D01*
X191901287Y-74049596D01*
X191826128Y-73962857D01*
X191705053Y-73885047D01*
X191705051Y-73885046D01*
X191705049Y-73885045D01*
X191705050Y-73885045D01*
X191566963Y-73844500D01*
X191566961Y-73844500D01*
X191423039Y-73844500D01*
X191423036Y-73844500D01*
X191284949Y-73885045D01*
X191163873Y-73962856D01*
X191069623Y-74071626D01*
X191069622Y-74071628D01*
X191009834Y-74202543D01*
X190989353Y-74345000D01*
X161350500Y-74345000D01*
X161350500Y-72605249D01*
X161350499Y-72605247D01*
X161338868Y-72546770D01*
X161338867Y-72546769D01*
X161294552Y-72480447D01*
X161228230Y-72436132D01*
X161228229Y-72436131D01*
X161169752Y-72424500D01*
X161169748Y-72424500D01*
X159830252Y-72424500D01*
X159830247Y-72424500D01*
X159771770Y-72436131D01*
X159771769Y-72436132D01*
X159705447Y-72480447D01*
X159661132Y-72546769D01*
X159661131Y-72546770D01*
X159649500Y-72605247D01*
X159028504Y-72605247D01*
X158902860Y-72521295D01*
X158748082Y-72457184D01*
X158748074Y-72457182D01*
X158583771Y-72424500D01*
X158583767Y-72424500D01*
X158416233Y-72424500D01*
X158416228Y-72424500D01*
X158251925Y-72457182D01*
X158251917Y-72457184D01*
X158097139Y-72521295D01*
X157957837Y-72614373D01*
X157839373Y-72732837D01*
X157746295Y-72872139D01*
X157682184Y-73026917D01*
X157682182Y-73026925D01*
X157649500Y-73191228D01*
X153900500Y-73191228D01*
X153900500Y-72605249D01*
X153900499Y-72605247D01*
X153888868Y-72546770D01*
X153888867Y-72546769D01*
X153844552Y-72480447D01*
X153778230Y-72436132D01*
X153778229Y-72436131D01*
X153719752Y-72424500D01*
X153719748Y-72424500D01*
X152380252Y-72424500D01*
X152380247Y-72424500D01*
X152321770Y-72436131D01*
X152321769Y-72436132D01*
X152255447Y-72480447D01*
X152211132Y-72546769D01*
X152211131Y-72546770D01*
X152199500Y-72605247D01*
X151578504Y-72605247D01*
X151452860Y-72521295D01*
X151298082Y-72457184D01*
X151298074Y-72457182D01*
X151133771Y-72424500D01*
X151133767Y-72424500D01*
X150966233Y-72424500D01*
X150966228Y-72424500D01*
X150801925Y-72457182D01*
X150801917Y-72457184D01*
X150647139Y-72521295D01*
X150507837Y-72614373D01*
X150389373Y-72732837D01*
X150296295Y-72872139D01*
X150232184Y-73026917D01*
X150232182Y-73026925D01*
X150199500Y-73191228D01*
X139690008Y-73191228D01*
X139685165Y-73157543D01*
X139625377Y-73026627D01*
X139542689Y-72931199D01*
X139513666Y-72867647D01*
X139523610Y-72798489D01*
X139542687Y-72768802D01*
X139625377Y-72673373D01*
X139685165Y-72542457D01*
X139705647Y-72400000D01*
X139685165Y-72257543D01*
X139625377Y-72126627D01*
X139542689Y-72031199D01*
X139513666Y-71967647D01*
X139523610Y-71898489D01*
X139542687Y-71868802D01*
X139625377Y-71773373D01*
X139685165Y-71642457D01*
X139705647Y-71500000D01*
X139685165Y-71357543D01*
X139625377Y-71226627D01*
X139542689Y-71131199D01*
X139513666Y-71067647D01*
X139523610Y-70998489D01*
X139542687Y-70968802D01*
X139625377Y-70873373D01*
X139685165Y-70742457D01*
X139705647Y-70600000D01*
X139690550Y-70495000D01*
X180889353Y-70495000D01*
X180909834Y-70637456D01*
X180946214Y-70717116D01*
X180969623Y-70768373D01*
X181019063Y-70825430D01*
X181052308Y-70863798D01*
X181081332Y-70927354D01*
X181071388Y-70996512D01*
X181052308Y-71026202D01*
X180969623Y-71121627D01*
X180969622Y-71121628D01*
X180909834Y-71252543D01*
X180889353Y-71395000D01*
X180909834Y-71537456D01*
X180928081Y-71577410D01*
X180969623Y-71668373D01*
X181019063Y-71725430D01*
X181052308Y-71763798D01*
X181081332Y-71827354D01*
X181071388Y-71896512D01*
X181052308Y-71926202D01*
X180969623Y-72021627D01*
X180969622Y-72021628D01*
X180909834Y-72152543D01*
X180889353Y-72295000D01*
X180909834Y-72437456D01*
X180948123Y-72521295D01*
X180969623Y-72568373D01*
X181063872Y-72677143D01*
X181184947Y-72754953D01*
X181184950Y-72754954D01*
X181184949Y-72754954D01*
X181323036Y-72795499D01*
X181323038Y-72795500D01*
X181323039Y-72795500D01*
X181466962Y-72795500D01*
X181466962Y-72795499D01*
X181605053Y-72754953D01*
X181726128Y-72677143D01*
X181801287Y-72590403D01*
X181860064Y-72552629D01*
X181929934Y-72552629D01*
X181988712Y-72590403D01*
X181988713Y-72590404D01*
X182060603Y-72673371D01*
X182063872Y-72677143D01*
X182184947Y-72754953D01*
X182184950Y-72754954D01*
X182184949Y-72754954D01*
X182323036Y-72795499D01*
X182323038Y-72795500D01*
X182323039Y-72795500D01*
X182466962Y-72795500D01*
X182466962Y-72795499D01*
X182605053Y-72754953D01*
X182726128Y-72677143D01*
X182820377Y-72568373D01*
X182880165Y-72437457D01*
X182900647Y-72295000D01*
X182880165Y-72152543D01*
X182833332Y-72049994D01*
X203494529Y-72049994D01*
X203494529Y-72050005D01*
X203514379Y-72289559D01*
X203573389Y-72522589D01*
X203669951Y-72742729D01*
X203801427Y-72943966D01*
X203801429Y-72943969D01*
X203964236Y-73120825D01*
X203964239Y-73120827D01*
X203964242Y-73120830D01*
X204153924Y-73268466D01*
X204153930Y-73268470D01*
X204153933Y-73268472D01*
X204365344Y-73382882D01*
X204365347Y-73382883D01*
X204592699Y-73460933D01*
X204592701Y-73460933D01*
X204592703Y-73460934D01*
X204829808Y-73500500D01*
X204829809Y-73500500D01*
X205070191Y-73500500D01*
X205070192Y-73500500D01*
X205307297Y-73460934D01*
X205534656Y-73382882D01*
X205746067Y-73268472D01*
X205935764Y-73120825D01*
X206098571Y-72943969D01*
X206230049Y-72742728D01*
X206326610Y-72522591D01*
X206385620Y-72289563D01*
X206396974Y-72152543D01*
X206405471Y-72050005D01*
X206405471Y-72049994D01*
X206385620Y-71810440D01*
X206385620Y-71810437D01*
X206326610Y-71577409D01*
X206248791Y-71400000D01*
X216044693Y-71400000D01*
X216063903Y-71742081D01*
X216063905Y-71742093D01*
X216121295Y-72079866D01*
X216121297Y-72079875D01*
X216172483Y-72257543D01*
X216216147Y-72409104D01*
X216291244Y-72590403D01*
X216347263Y-72725646D01*
X216512998Y-73025521D01*
X216711269Y-73304959D01*
X216939570Y-73560426D01*
X216939573Y-73560429D01*
X217195040Y-73788730D01*
X217195046Y-73788734D01*
X217195047Y-73788735D01*
X217474479Y-73987002D01*
X217774352Y-74152736D01*
X218090896Y-74283853D01*
X218420130Y-74378704D01*
X218757914Y-74436096D01*
X219100000Y-74455307D01*
X219442086Y-74436096D01*
X219779870Y-74378704D01*
X220109104Y-74283853D01*
X220425648Y-74152736D01*
X220725521Y-73987002D01*
X221004953Y-73788735D01*
X221028551Y-73767647D01*
X221139163Y-73668797D01*
X221260428Y-73560428D01*
X221488735Y-73304953D01*
X221687002Y-73025521D01*
X221852736Y-72725648D01*
X221983853Y-72409104D01*
X222078704Y-72079870D01*
X222136096Y-71742086D01*
X222155307Y-71400000D01*
X222136096Y-71057914D01*
X222078704Y-70720130D01*
X221983853Y-70390896D01*
X221852736Y-70074352D01*
X221687002Y-69774479D01*
X221488735Y-69495047D01*
X221488734Y-69495046D01*
X221488730Y-69495040D01*
X221260429Y-69239573D01*
X221260426Y-69239570D01*
X221004959Y-69011269D01*
X220725521Y-68812998D01*
X220425646Y-68647263D01*
X220360087Y-68620108D01*
X220109104Y-68516147D01*
X220024479Y-68491766D01*
X219779875Y-68421297D01*
X219779866Y-68421295D01*
X219442093Y-68363905D01*
X219442081Y-68363903D01*
X219100000Y-68344693D01*
X218757918Y-68363903D01*
X218757906Y-68363905D01*
X218420133Y-68421295D01*
X218420124Y-68421297D01*
X218090899Y-68516146D01*
X218090896Y-68516147D01*
X218065593Y-68526628D01*
X217774353Y-68647263D01*
X217474478Y-68812998D01*
X217195040Y-69011269D01*
X216939573Y-69239570D01*
X216939570Y-69239573D01*
X216711269Y-69495040D01*
X216512998Y-69774478D01*
X216347263Y-70074353D01*
X216216146Y-70390899D01*
X216121297Y-70720124D01*
X216121295Y-70720133D01*
X216063905Y-71057906D01*
X216063903Y-71057918D01*
X216044693Y-71400000D01*
X206248791Y-71400000D01*
X206230049Y-71357272D01*
X206098571Y-71156031D01*
X205935764Y-70979175D01*
X205935759Y-70979171D01*
X205935757Y-70979169D01*
X205746075Y-70831533D01*
X205746069Y-70831529D01*
X205534657Y-70717118D01*
X205534652Y-70717116D01*
X205307300Y-70639066D01*
X205129468Y-70609391D01*
X205070192Y-70599500D01*
X204829808Y-70599500D01*
X204782387Y-70607413D01*
X204592699Y-70639066D01*
X204365347Y-70717116D01*
X204365342Y-70717118D01*
X204153930Y-70831529D01*
X204153924Y-70831533D01*
X203964242Y-70979169D01*
X203964239Y-70979172D01*
X203801430Y-71156029D01*
X203801427Y-71156033D01*
X203669951Y-71357270D01*
X203573389Y-71577410D01*
X203514379Y-71810440D01*
X203494529Y-72049994D01*
X182833332Y-72049994D01*
X182820377Y-72021627D01*
X182737689Y-71926199D01*
X182708666Y-71862647D01*
X182718610Y-71793489D01*
X182737687Y-71763802D01*
X182820377Y-71668373D01*
X182880165Y-71537457D01*
X182900647Y-71395000D01*
X182880165Y-71252543D01*
X182820377Y-71121627D01*
X182737689Y-71026199D01*
X182708666Y-70962647D01*
X182718610Y-70893489D01*
X182737687Y-70863802D01*
X182820377Y-70768373D01*
X182880165Y-70637457D01*
X182900647Y-70495000D01*
X182880165Y-70352543D01*
X182820377Y-70221627D01*
X182737689Y-70126199D01*
X182708666Y-70062647D01*
X182718610Y-69993489D01*
X182737687Y-69963802D01*
X182820377Y-69868373D01*
X182880165Y-69737457D01*
X182900647Y-69595000D01*
X182880165Y-69452543D01*
X182820377Y-69321627D01*
X182726128Y-69212857D01*
X182605053Y-69135047D01*
X182605051Y-69135046D01*
X182605049Y-69135045D01*
X182605050Y-69135045D01*
X182466963Y-69094500D01*
X182466961Y-69094500D01*
X182323039Y-69094500D01*
X182323036Y-69094500D01*
X182184949Y-69135045D01*
X182063873Y-69212856D01*
X181969623Y-69321626D01*
X181969622Y-69321628D01*
X181909834Y-69452543D01*
X181889353Y-69595000D01*
X181909834Y-69737456D01*
X181957787Y-69842456D01*
X181969623Y-69868373D01*
X182019063Y-69925430D01*
X182052308Y-69963798D01*
X182081332Y-70027354D01*
X182071388Y-70096512D01*
X182052307Y-70126203D01*
X181988712Y-70199595D01*
X181929933Y-70237369D01*
X181860064Y-70237369D01*
X181801286Y-70199595D01*
X181758312Y-70150000D01*
X181726128Y-70112857D01*
X181605053Y-70035047D01*
X181605051Y-70035046D01*
X181605049Y-70035045D01*
X181605050Y-70035045D01*
X181466963Y-69994500D01*
X181466961Y-69994500D01*
X181323039Y-69994500D01*
X181323036Y-69994500D01*
X181184949Y-70035045D01*
X181063873Y-70112856D01*
X180969623Y-70221626D01*
X180969622Y-70221628D01*
X180909834Y-70352543D01*
X180889353Y-70495000D01*
X139690550Y-70495000D01*
X139685165Y-70457543D01*
X139625377Y-70326627D01*
X139542689Y-70231199D01*
X139513666Y-70167647D01*
X139523610Y-70098489D01*
X139542687Y-70068802D01*
X139625377Y-69973373D01*
X139685165Y-69842457D01*
X139705647Y-69700000D01*
X139685165Y-69557543D01*
X139625377Y-69426627D01*
X139542689Y-69331199D01*
X139513666Y-69267647D01*
X139523610Y-69198489D01*
X139542687Y-69168802D01*
X139625377Y-69073373D01*
X139685165Y-68942457D01*
X139705647Y-68800000D01*
X139685165Y-68657543D01*
X139625377Y-68526627D01*
X139531128Y-68417857D01*
X139410053Y-68340047D01*
X139410051Y-68340046D01*
X139410049Y-68340045D01*
X139410050Y-68340045D01*
X139271963Y-68299500D01*
X139271961Y-68299500D01*
X139128039Y-68299500D01*
X139128036Y-68299500D01*
X138989949Y-68340045D01*
X138868873Y-68417856D01*
X138774623Y-68526626D01*
X138774622Y-68526628D01*
X138714834Y-68657543D01*
X138694353Y-68800000D01*
X126202003Y-68800000D01*
X125925646Y-68647263D01*
X125860087Y-68620108D01*
X125609104Y-68516147D01*
X125524479Y-68491766D01*
X125279875Y-68421297D01*
X125279866Y-68421295D01*
X124942093Y-68363905D01*
X124942081Y-68363903D01*
X124600000Y-68344693D01*
X124257918Y-68363903D01*
X124257906Y-68363905D01*
X123920133Y-68421295D01*
X123920124Y-68421297D01*
X123590899Y-68516146D01*
X123590896Y-68516147D01*
X123565593Y-68526628D01*
X123274353Y-68647263D01*
X122974478Y-68812998D01*
X122695040Y-69011269D01*
X122439573Y-69239570D01*
X122439570Y-69239573D01*
X122211269Y-69495040D01*
X122012998Y-69774478D01*
X121847263Y-70074353D01*
X121716146Y-70390899D01*
X121621297Y-70720124D01*
X121621295Y-70720133D01*
X121563905Y-71057906D01*
X121563903Y-71057918D01*
X121544693Y-71400000D01*
X121100500Y-71400000D01*
X121100500Y-68024500D01*
X121120185Y-67957461D01*
X121172989Y-67911706D01*
X121224500Y-67900500D01*
X222475500Y-67900500D01*
X222542539Y-67920185D01*
G37*
%TD.AperFunction*%
M02*
