%TF.GenerationSoftware,KiCad,Pcbnew,8.0.3-8.0.3-0~ubuntu22.04.1*%
%TF.CreationDate,2024-07-11T21:31:44-06:00*%
%TF.ProjectId,FCC_KiCAD,4643435f-4b69-4434-9144-2e6b69636164,rev?*%
%TF.SameCoordinates,Original*%
%TF.FileFunction,Copper,L2,Inr*%
%TF.FilePolarity,Positive*%
%FSLAX46Y46*%
G04 Gerber Fmt 4.6, Leading zero omitted, Abs format (unit mm)*
G04 Created by KiCad (PCBNEW 8.0.3-8.0.3-0~ubuntu22.04.1) date 2024-07-11 21:31:44*
%MOMM*%
%LPD*%
G01*
G04 APERTURE LIST*
%TA.AperFunction,ComponentPad*%
%ADD10R,2.000000X1.300000*%
%TD*%
%TA.AperFunction,ComponentPad*%
%ADD11O,2.000000X1.300000*%
%TD*%
%TA.AperFunction,ComponentPad*%
%ADD12C,4.400000*%
%TD*%
%TA.AperFunction,ComponentPad*%
%ADD13R,6.200000X6.200000*%
%TD*%
%TA.AperFunction,ComponentPad*%
%ADD14C,6.200000*%
%TD*%
%TA.AperFunction,ComponentPad*%
%ADD15C,0.600000*%
%TD*%
%TA.AperFunction,ComponentPad*%
%ADD16R,1.750000X1.750000*%
%TD*%
%TA.AperFunction,ComponentPad*%
%ADD17C,1.750000*%
%TD*%
%TA.AperFunction,ComponentPad*%
%ADD18R,1.800000X1.800000*%
%TD*%
%TA.AperFunction,ComponentPad*%
%ADD19C,1.800000*%
%TD*%
%TA.AperFunction,ComponentPad*%
%ADD20C,2.500000*%
%TD*%
%TA.AperFunction,ComponentPad*%
%ADD21C,2.700000*%
%TD*%
%TA.AperFunction,ComponentPad*%
%ADD22C,4.000000*%
%TD*%
%TA.AperFunction,ViaPad*%
%ADD23C,0.600000*%
%TD*%
G04 APERTURE END LIST*
D10*
%TO.N,/I2C + CANBUS/CAN1H*%
%TO.C,J4*%
X128510000Y-87450000D03*
D11*
%TO.N,/I2C + CANBUS/CAN1L*%
X128510000Y-89450000D03*
%TD*%
D10*
%TO.N,/I2C + CANBUS/CAN1H*%
%TO.C,J5*%
X128510000Y-94200000D03*
D11*
%TO.N,/I2C + CANBUS/CAN1L*%
X128510000Y-96200000D03*
%TD*%
D10*
%TO.N,/I2C + CANBUS/CAN2H*%
%TO.C,J6*%
X172085000Y-96250000D03*
D11*
%TO.N,/I2C + CANBUS/CAN2L*%
X172085000Y-94250000D03*
%TD*%
D10*
%TO.N,/I2C + CANBUS/CAN2H*%
%TO.C,J7*%
X172085000Y-89500000D03*
D11*
%TO.N,/I2C + CANBUS/CAN2L*%
X172085000Y-87500000D03*
%TD*%
D12*
%TO.N,N/C*%
%TO.C,H3*%
X174935000Y-128860000D03*
%TD*%
D13*
%TO.N,+BATT*%
%TO.C,J8*%
X127675000Y-68850000D03*
D14*
%TO.N,GND*%
X127675000Y-76050000D03*
%TD*%
D12*
%TO.N,N/C*%
%TO.C,H1*%
X154935000Y-66150000D03*
%TD*%
D15*
%TO.N,GND*%
%TO.C,U2*%
X142174800Y-117575000D03*
X140600000Y-117575000D03*
X141387400Y-118362400D03*
X142174800Y-119149800D03*
X140600000Y-119149800D03*
%TD*%
D16*
%TO.N,Net-(J2-Pin_1)*%
%TO.C,J2*%
X134300000Y-94360000D03*
D17*
%TO.N,/I2C + CANBUS/CAN1H*%
X136840000Y-94360000D03*
%TO.N,Net-(J2-Pin_3)*%
X134300000Y-96900000D03*
%TO.N,/I2C + CANBUS/CAN1H*%
X136840000Y-96900000D03*
%TD*%
D18*
%TO.N,+BATT*%
%TO.C,C31*%
X145285000Y-70511800D03*
D19*
%TO.N,GND*%
X145285000Y-65000000D03*
%TD*%
D20*
%TO.N,Net-(J1-In)*%
%TO.C,J1*%
X133685000Y-127400000D03*
D21*
%TO.N,GND*%
X136225000Y-124860000D03*
X131145000Y-124860000D03*
X136225000Y-129940000D03*
X131145000Y-129940000D03*
%TD*%
D12*
%TO.N,N/C*%
%TO.C,H2*%
X125685000Y-128860000D03*
%TD*%
D18*
%TO.N,/POWER + USB/5VDCDC*%
%TO.C,C36*%
X152985000Y-79550000D03*
D19*
%TO.N,GND*%
X152985000Y-74038200D03*
%TD*%
D15*
%TO.N,GND*%
%TO.C,U9*%
X149825000Y-97550000D03*
X151175000Y-98300000D03*
X148475000Y-98300000D03*
X149825000Y-99050000D03*
%TD*%
D16*
%TO.N,Net-(J3-Pin_1)*%
%TO.C,J3*%
X166270000Y-97075000D03*
D17*
%TO.N,/I2C + CANBUS/CAN2L*%
X163730000Y-97075000D03*
%TO.N,Net-(J3-Pin_3)*%
X166270000Y-94535000D03*
%TO.N,/I2C + CANBUS/CAN2L*%
X163730000Y-94535000D03*
%TD*%
D22*
%TO.N,unconnected-(J9-SHIELD1-PadSH1)*%
%TO.C,J9*%
X174155000Y-71650000D03*
%TO.N,unconnected-(J9-SHIELD2-PadSH2)*%
X161015000Y-71650000D03*
%TD*%
D17*
%TO.N,+3V3*%
%TO.C,J11*%
X125685000Y-101320000D03*
%TO.N,GND*%
X125685000Y-103860000D03*
%TO.N,/MCU + PAYLOAD/GPIO1*%
X125685000Y-106400000D03*
%TO.N,/MCU + PAYLOAD/GPIO2*%
X125685000Y-108940000D03*
%TO.N,/MCU + PAYLOAD/GPIO3*%
X125685000Y-111480000D03*
%TO.N,/MCU + PAYLOAD/UART_TX*%
X125685000Y-114020000D03*
%TO.N,/MCU + PAYLOAD/UART_RX*%
X125685000Y-116560000D03*
%TO.N,MISO*%
X125685000Y-119100000D03*
%TO.N,SCLK*%
X125685000Y-121640000D03*
%TO.N,MOSI*%
X125685000Y-124180000D03*
%TD*%
%TO.N,+5V*%
%TO.C,J12*%
X174885000Y-101320000D03*
%TO.N,GND*%
X174885000Y-103860000D03*
%TO.N,/MCU + PAYLOAD/GPIO4*%
X174885000Y-106400000D03*
%TO.N,/MCU + PAYLOAD/GPIO5*%
X174885000Y-108940000D03*
%TO.N,/MCU + PAYLOAD/GPIO6*%
X174885000Y-111480000D03*
%TO.N,/MCU + PAYLOAD/GPIO7*%
X174885000Y-114020000D03*
%TO.N,/MCU + PAYLOAD/GPIO8*%
X174885000Y-116560000D03*
%TO.N,/MCU + PAYLOAD/GPIO9*%
X174885000Y-119100000D03*
%TO.N,SCL*%
X174885000Y-121640000D03*
%TO.N,SDA*%
X174885000Y-124180000D03*
%TD*%
D23*
%TO.N,GND*%
X156500000Y-105950000D03*
X176400000Y-83300000D03*
X133350000Y-90895000D03*
X141125000Y-128575000D03*
X144100000Y-123150000D03*
X144900001Y-103899999D03*
X161710049Y-75789784D03*
X167205000Y-90955000D03*
X146750000Y-84450000D03*
X150625000Y-88200000D03*
X163000000Y-126450000D03*
X161710049Y-74789784D03*
X145235000Y-77600000D03*
X153025000Y-83950000D03*
X158100000Y-102800000D03*
X162350000Y-121700000D03*
X161580000Y-100925000D03*
X153800000Y-127400000D03*
X144575000Y-89250000D03*
X142900000Y-108976999D03*
X156300000Y-127400000D03*
X139800001Y-108499999D03*
X144200000Y-117050000D03*
X146235000Y-77600000D03*
X169030000Y-90930000D03*
X155465001Y-114450000D03*
X145235000Y-76600000D03*
X143437400Y-123992400D03*
X154700000Y-114800000D03*
X153583412Y-111603300D03*
X168550000Y-113850000D03*
X148650000Y-119700000D03*
X156875000Y-89800000D03*
X155450000Y-122050000D03*
X169650000Y-115050000D03*
X136100000Y-108350000D03*
X148825000Y-99900000D03*
X152050000Y-122000000D03*
X165500000Y-115800000D03*
X164300000Y-116850000D03*
X132385000Y-70600000D03*
X167025000Y-116325000D03*
X137200000Y-106900000D03*
X144850000Y-119600000D03*
X135485000Y-64200000D03*
X146490000Y-117092400D03*
X146235000Y-76600000D03*
X164975000Y-125025000D03*
X144325000Y-92300000D03*
X167770000Y-121950000D03*
X143400001Y-107449999D03*
X157950000Y-96900000D03*
X174085000Y-82725000D03*
X146450000Y-97900000D03*
X136326079Y-110723922D03*
X138775000Y-122875000D03*
X136040000Y-111500000D03*
X162800000Y-105400000D03*
X132750000Y-117500000D03*
X131850000Y-109100002D03*
X132385000Y-71600000D03*
X154700000Y-115800000D03*
X140612400Y-113167400D03*
X151750000Y-116600000D03*
X135485000Y-63200000D03*
X143187400Y-123092400D03*
X131450000Y-90895000D03*
X175300000Y-77350000D03*
X167770000Y-123000000D03*
X145925000Y-84100000D03*
X176300000Y-77350000D03*
X136037400Y-118042400D03*
X163850000Y-123023000D03*
X147300000Y-101600000D03*
X140600000Y-104900000D03*
X168105000Y-90005000D03*
X167770000Y-120900000D03*
X145725000Y-93500000D03*
X164500000Y-114700000D03*
X136337400Y-119692400D03*
X148400000Y-105300000D03*
X157810000Y-105380000D03*
X167150000Y-126450000D03*
X150025000Y-95250000D03*
X150825000Y-99900000D03*
X132400000Y-89970000D03*
X142950000Y-99500000D03*
X163770000Y-121450000D03*
X163400000Y-120000000D03*
X154175000Y-86850000D03*
X152500000Y-127400000D03*
X151025000Y-94250000D03*
X147150000Y-90650000D03*
X134281644Y-109427000D03*
X150700000Y-116600000D03*
X162710049Y-74789784D03*
X151025000Y-95250000D03*
X174100000Y-81130000D03*
X168500000Y-79900000D03*
X138787400Y-123792400D03*
X150025000Y-94250000D03*
X166500000Y-111900000D03*
X136362400Y-122317400D03*
X138200000Y-129190000D03*
X139500000Y-113160000D03*
X138925000Y-102150000D03*
X162710049Y-75789784D03*
X151373000Y-111550000D03*
X133787400Y-121692400D03*
X143650000Y-104850000D03*
X151725000Y-88700000D03*
%TO.N,/POWER + USB/5VBUS_FILT*%
X155125000Y-83150000D03*
X168935000Y-83900000D03*
X156125000Y-84150000D03*
X155125000Y-84150000D03*
X169935000Y-82900000D03*
X169935000Y-83900000D03*
X168935000Y-82900000D03*
X156125000Y-83150000D03*
%TO.N,/POWER + USB/5VDCDC*%
X149125000Y-84150000D03*
X149125000Y-83150000D03*
X147285000Y-80300000D03*
X148125000Y-83150000D03*
X136885000Y-81850000D03*
X135885000Y-81850000D03*
X136885000Y-82850000D03*
X148125000Y-84150000D03*
X135885000Y-82850000D03*
%TO.N,+5V*%
X154625000Y-91650000D03*
X153625000Y-91650000D03*
X154625000Y-92650000D03*
X153625000Y-92650000D03*
%TO.N,+3V3*%
X143037400Y-120342400D03*
X156350000Y-103653356D03*
X165230000Y-104170000D03*
X161580000Y-102225000D03*
X161050000Y-105100000D03*
X138087400Y-118867400D03*
X158000000Y-120450000D03*
X155265001Y-105000000D03*
X148325000Y-95250000D03*
X167800000Y-111900000D03*
X166150000Y-114450000D03*
X140613714Y-115709905D03*
X151750000Y-114000000D03*
X148325000Y-96250000D03*
X131850000Y-110050002D03*
X147325000Y-96250000D03*
X152600000Y-113950000D03*
X144687400Y-118042400D03*
X139587400Y-120342400D03*
X143837400Y-120342400D03*
X147325000Y-95250000D03*
X164975000Y-117375000D03*
X166950000Y-115050000D03*
X165220000Y-121050000D03*
X146750000Y-104950000D03*
X147325000Y-94250000D03*
X147565001Y-104200000D03*
X165220000Y-121950000D03*
X154465001Y-112700000D03*
X148325000Y-94250000D03*
X138925000Y-100900000D03*
X149450000Y-125150000D03*
X162520000Y-120200000D03*
X136300000Y-109200000D03*
X161050000Y-111650000D03*
%TO.N,/MCU + PAYLOAD/NRST*%
X148800000Y-108699999D03*
X155450000Y-123050000D03*
%TO.N,/MCU + PAYLOAD/SWDIO*%
X152950000Y-110150000D03*
X154000000Y-117300000D03*
%TO.N,/MCU + PAYLOAD/SWCLK*%
X152000000Y-108375000D03*
X153250000Y-121800000D03*
%TO.N,/MCU + PAYLOAD/SWO*%
X152500000Y-119850000D03*
X150750000Y-109600000D03*
%TO.N,SCLK*%
X133950000Y-112650000D03*
X142850000Y-115600000D03*
%TO.N,/MCU + PAYLOAD/GPIO3*%
X144650000Y-105800000D03*
%TO.N,/MCU + PAYLOAD/GPIO1*%
X149800000Y-101350000D03*
%TO.N,/MCU + PAYLOAD/GPIO2*%
X145550000Y-105725000D03*
%TO.N,MISO*%
X133550000Y-111000000D03*
X142300000Y-114850000D03*
%TO.N,MOSI*%
X132700000Y-112525000D03*
X143500000Y-116350000D03*
%TO.N,/MCU + PAYLOAD/GPIO6*%
X154000000Y-108046698D03*
%TO.N,/MCU + PAYLOAD/GPIO4*%
X152300000Y-102650000D03*
%TO.N,SDA*%
X160950000Y-120500000D03*
X163800000Y-115400000D03*
%TO.N,/MCU + PAYLOAD/GPIO7*%
X159550000Y-109800000D03*
%TO.N,/MCU + PAYLOAD/GPIO5*%
X153800000Y-102950000D03*
%TO.N,SCL*%
X162050000Y-122550000D03*
X165250000Y-114350000D03*
%TO.N,/MCU + PAYLOAD/GPIO9*%
X156400000Y-112050000D03*
%TO.N,/MCU + PAYLOAD/GPIO8*%
X154050000Y-110700000D03*
%TO.N,ACCEL_INT*%
X134700000Y-107600000D03*
X144891324Y-106939145D03*
%TO.N,ACCEL_~{CS}*%
X143550000Y-111650000D03*
X133550000Y-108800000D03*
%TO.N,GYRO_INT*%
X147925000Y-109975000D03*
X133750000Y-110150000D03*
%TO.N,CC2500_GDO0*%
X144700000Y-113225000D03*
X149400000Y-111527000D03*
%TO.N,CC2500_~{CS}*%
X148550000Y-110900000D03*
X145600000Y-112400000D03*
%TO.N,CC2500_GDO2*%
X143850000Y-114100000D03*
X149300000Y-114480856D03*
%TO.N,CAN1_TX*%
X144900000Y-102800000D03*
X148700000Y-102800000D03*
%TO.N,CAN2_TX*%
X158000000Y-100750000D03*
X161345000Y-99675000D03*
%TO.N,CAN2_RX*%
X157400000Y-101800000D03*
X161345000Y-103475000D03*
%TD*%
%TA.AperFunction,Conductor*%
%TO.N,GND*%
G36*
X177343039Y-62519685D02*
G01*
X177388794Y-62572489D01*
X177400000Y-62624000D01*
X177400000Y-127670886D01*
X177380315Y-127737925D01*
X177327511Y-127783680D01*
X177258353Y-127793624D01*
X177194797Y-127764599D01*
X177163802Y-127723683D01*
X177130539Y-127652996D01*
X177130535Y-127652990D01*
X176961948Y-127387338D01*
X176961945Y-127387334D01*
X176761393Y-127144909D01*
X176761391Y-127144907D01*
X176532031Y-126929523D01*
X176532021Y-126929515D01*
X176277495Y-126744591D01*
X176277488Y-126744586D01*
X176277484Y-126744584D01*
X176001766Y-126593006D01*
X176001763Y-126593004D01*
X176001758Y-126593002D01*
X176001757Y-126593001D01*
X175709228Y-126477181D01*
X175709225Y-126477180D01*
X175404476Y-126398934D01*
X175404463Y-126398932D01*
X175092329Y-126359500D01*
X175092318Y-126359500D01*
X174777682Y-126359500D01*
X174777670Y-126359500D01*
X174465536Y-126398932D01*
X174465523Y-126398934D01*
X174160774Y-126477180D01*
X174160771Y-126477181D01*
X173868242Y-126593001D01*
X173868241Y-126593002D01*
X173592516Y-126744584D01*
X173592504Y-126744591D01*
X173337978Y-126929515D01*
X173337968Y-126929523D01*
X173108608Y-127144907D01*
X173108606Y-127144909D01*
X172908054Y-127387334D01*
X172908051Y-127387338D01*
X172739464Y-127652990D01*
X172739461Y-127652996D01*
X172605499Y-127937678D01*
X172605497Y-127937683D01*
X172508270Y-128236916D01*
X172449311Y-128545988D01*
X172449310Y-128545995D01*
X172429556Y-128859994D01*
X172429556Y-128860005D01*
X172449310Y-129174004D01*
X172449311Y-129174011D01*
X172508270Y-129483083D01*
X172605497Y-129782316D01*
X172605499Y-129782321D01*
X172739461Y-130067003D01*
X172739464Y-130067009D01*
X172908051Y-130332661D01*
X172908054Y-130332665D01*
X173108606Y-130575090D01*
X173108608Y-130575092D01*
X173337968Y-130790476D01*
X173337978Y-130790484D01*
X173592504Y-130975408D01*
X173592509Y-130975410D01*
X173592516Y-130975416D01*
X173868234Y-131126994D01*
X173868239Y-131126996D01*
X173868241Y-131126997D01*
X173868242Y-131126998D01*
X173952535Y-131160372D01*
X174007621Y-131203353D01*
X174030724Y-131269292D01*
X174014510Y-131337255D01*
X173964127Y-131385662D01*
X173906895Y-131399664D01*
X167726076Y-131400000D01*
X126712263Y-131400000D01*
X126645224Y-131380315D01*
X126599469Y-131327511D01*
X126589525Y-131258353D01*
X126618550Y-131194797D01*
X126666616Y-131160708D01*
X126751757Y-131126998D01*
X126751758Y-131126997D01*
X126751756Y-131126997D01*
X126751766Y-131126994D01*
X127027484Y-130975416D01*
X127282030Y-130790478D01*
X127511390Y-130575094D01*
X127711947Y-130332663D01*
X127880537Y-130067007D01*
X128014503Y-129782315D01*
X128111731Y-129483079D01*
X128170688Y-129174015D01*
X128184449Y-128955293D01*
X128190444Y-128860005D01*
X128190444Y-128859994D01*
X128170689Y-128545995D01*
X128170688Y-128545988D01*
X128170688Y-128545985D01*
X128111731Y-128236921D01*
X128014503Y-127937685D01*
X127987646Y-127880612D01*
X127913801Y-127723683D01*
X127880537Y-127652993D01*
X127845414Y-127597648D01*
X127719984Y-127400000D01*
X132129706Y-127400000D01*
X132148853Y-127643297D01*
X132148853Y-127643300D01*
X132148854Y-127643302D01*
X132182556Y-127783680D01*
X132205830Y-127880619D01*
X132299222Y-128106089D01*
X132426737Y-128314173D01*
X132426738Y-128314176D01*
X132426741Y-128314179D01*
X132585241Y-128499759D01*
X132639377Y-128545995D01*
X132770823Y-128658261D01*
X132770826Y-128658262D01*
X132978910Y-128785777D01*
X133204381Y-128879169D01*
X133204378Y-128879169D01*
X133204384Y-128879170D01*
X133204388Y-128879172D01*
X133441698Y-128936146D01*
X133685000Y-128955294D01*
X133928302Y-128936146D01*
X134165612Y-128879172D01*
X134391089Y-128785777D01*
X134599179Y-128658259D01*
X134784759Y-128499759D01*
X134943259Y-128314179D01*
X135070777Y-128106089D01*
X135164172Y-127880612D01*
X135221146Y-127643302D01*
X135240294Y-127400000D01*
X135221146Y-127156698D01*
X135164172Y-126919388D01*
X135164169Y-126919380D01*
X135070777Y-126693910D01*
X134943262Y-126485826D01*
X134943261Y-126485823D01*
X134907453Y-126443897D01*
X134784759Y-126300241D01*
X134662063Y-126195449D01*
X134599176Y-126141738D01*
X134599173Y-126141737D01*
X134391089Y-126014222D01*
X134165618Y-125920830D01*
X134165621Y-125920830D01*
X134059992Y-125895470D01*
X133928302Y-125863854D01*
X133928300Y-125863853D01*
X133928297Y-125863853D01*
X133685000Y-125844706D01*
X133441702Y-125863853D01*
X133204380Y-125920830D01*
X132978910Y-126014222D01*
X132770826Y-126141737D01*
X132770823Y-126141738D01*
X132585241Y-126300241D01*
X132426738Y-126485823D01*
X132426737Y-126485826D01*
X132299222Y-126693910D01*
X132205830Y-126919380D01*
X132148853Y-127156702D01*
X132129706Y-127400000D01*
X127719984Y-127400000D01*
X127711948Y-127387338D01*
X127711945Y-127387334D01*
X127511393Y-127144909D01*
X127511391Y-127144907D01*
X127282031Y-126929523D01*
X127282021Y-126929515D01*
X127027495Y-126744591D01*
X127027488Y-126744586D01*
X127027484Y-126744584D01*
X126751766Y-126593006D01*
X126751763Y-126593004D01*
X126751758Y-126593002D01*
X126751757Y-126593001D01*
X126459228Y-126477181D01*
X126459225Y-126477180D01*
X126154476Y-126398934D01*
X126154463Y-126398932D01*
X125842329Y-126359500D01*
X125842318Y-126359500D01*
X125527682Y-126359500D01*
X125527670Y-126359500D01*
X125215536Y-126398932D01*
X125215523Y-126398934D01*
X124910774Y-126477180D01*
X124910771Y-126477181D01*
X124618242Y-126593001D01*
X124618241Y-126593002D01*
X124342516Y-126744584D01*
X124342504Y-126744591D01*
X124087978Y-126929515D01*
X124087968Y-126929523D01*
X123858608Y-127144907D01*
X123858606Y-127144909D01*
X123658054Y-127387334D01*
X123658051Y-127387338D01*
X123489464Y-127652990D01*
X123489460Y-127652996D01*
X123436198Y-127766185D01*
X123389843Y-127818463D01*
X123322583Y-127837380D01*
X123255773Y-127816930D01*
X123210624Y-127763607D01*
X123200000Y-127713388D01*
X123200000Y-106399999D01*
X124504464Y-106399999D01*
X124504464Y-106400000D01*
X124524564Y-106616918D01*
X124524564Y-106616920D01*
X124524565Y-106616923D01*
X124584183Y-106826459D01*
X124681288Y-107021472D01*
X124812573Y-107195322D01*
X124973568Y-107342088D01*
X124973575Y-107342092D01*
X124973576Y-107342093D01*
X125158786Y-107456770D01*
X125158792Y-107456773D01*
X125171389Y-107461653D01*
X125361931Y-107535470D01*
X125429558Y-107548111D01*
X125491838Y-107579779D01*
X125527111Y-107640092D01*
X125524177Y-107709900D01*
X125483968Y-107767040D01*
X125429558Y-107791888D01*
X125361931Y-107804530D01*
X125313130Y-107823435D01*
X125158792Y-107883226D01*
X125158786Y-107883229D01*
X124973576Y-107997906D01*
X124973566Y-107997913D01*
X124812574Y-108144676D01*
X124681288Y-108318527D01*
X124584184Y-108513537D01*
X124524564Y-108723081D01*
X124504464Y-108939999D01*
X124504464Y-108940000D01*
X124524564Y-109156918D01*
X124524564Y-109156920D01*
X124524565Y-109156923D01*
X124581424Y-109356762D01*
X124584184Y-109366462D01*
X124638031Y-109474601D01*
X124681288Y-109561472D01*
X124812573Y-109735322D01*
X124973568Y-109882088D01*
X124973575Y-109882092D01*
X124973576Y-109882093D01*
X125158786Y-109996770D01*
X125158792Y-109996773D01*
X125181664Y-110005633D01*
X125361931Y-110075470D01*
X125429558Y-110088111D01*
X125491838Y-110119779D01*
X125527111Y-110180092D01*
X125524177Y-110249900D01*
X125483968Y-110307040D01*
X125429558Y-110331888D01*
X125361931Y-110344530D01*
X125340473Y-110352843D01*
X125158792Y-110423226D01*
X125158786Y-110423229D01*
X124973576Y-110537906D01*
X124973566Y-110537913D01*
X124812574Y-110684676D01*
X124681288Y-110858527D01*
X124584184Y-111053537D01*
X124524564Y-111263081D01*
X124504464Y-111479999D01*
X124504464Y-111480000D01*
X124524564Y-111696918D01*
X124524564Y-111696920D01*
X124524565Y-111696923D01*
X124575364Y-111875463D01*
X124584184Y-111906462D01*
X124608493Y-111955281D01*
X124681288Y-112101472D01*
X124812573Y-112275322D01*
X124973568Y-112422088D01*
X124973575Y-112422092D01*
X124973576Y-112422093D01*
X125158786Y-112536770D01*
X125158792Y-112536773D01*
X125175483Y-112543239D01*
X125361931Y-112615470D01*
X125429558Y-112628111D01*
X125491838Y-112659779D01*
X125527111Y-112720092D01*
X125524177Y-112789900D01*
X125483968Y-112847040D01*
X125429558Y-112871888D01*
X125361931Y-112884530D01*
X125321921Y-112900030D01*
X125158792Y-112963226D01*
X125158786Y-112963229D01*
X124973576Y-113077906D01*
X124973566Y-113077913D01*
X124812574Y-113224676D01*
X124681288Y-113398527D01*
X124584184Y-113593537D01*
X124567185Y-113653282D01*
X124527365Y-113793238D01*
X124524564Y-113803081D01*
X124504464Y-114019999D01*
X124504464Y-114020000D01*
X124524564Y-114236918D01*
X124524564Y-114236920D01*
X124524565Y-114236923D01*
X124583088Y-114442610D01*
X124584184Y-114446462D01*
X124653190Y-114585043D01*
X124681288Y-114641472D01*
X124812573Y-114815322D01*
X124973568Y-114962088D01*
X124973575Y-114962092D01*
X124973576Y-114962093D01*
X125158786Y-115076770D01*
X125158792Y-115076773D01*
X125181664Y-115085633D01*
X125361931Y-115155470D01*
X125429558Y-115168111D01*
X125491838Y-115199779D01*
X125527111Y-115260092D01*
X125524177Y-115329900D01*
X125483968Y-115387040D01*
X125429558Y-115411888D01*
X125361931Y-115424530D01*
X125329363Y-115437147D01*
X125158792Y-115503226D01*
X125158786Y-115503229D01*
X124973576Y-115617906D01*
X124973566Y-115617913D01*
X124812574Y-115764676D01*
X124681288Y-115938527D01*
X124584184Y-116133537D01*
X124524564Y-116343081D01*
X124504464Y-116559999D01*
X124504464Y-116560000D01*
X124524564Y-116776918D01*
X124524564Y-116776920D01*
X124524565Y-116776923D01*
X124569554Y-116935043D01*
X124584184Y-116986462D01*
X124626857Y-117072160D01*
X124681288Y-117181472D01*
X124812573Y-117355322D01*
X124973568Y-117502088D01*
X124973575Y-117502092D01*
X124973576Y-117502093D01*
X125158786Y-117616770D01*
X125158792Y-117616773D01*
X125181664Y-117625633D01*
X125361931Y-117695470D01*
X125429558Y-117708111D01*
X125491838Y-117739779D01*
X125527111Y-117800092D01*
X125524177Y-117869900D01*
X125483968Y-117927040D01*
X125429558Y-117951888D01*
X125361931Y-117964530D01*
X125320238Y-117980682D01*
X125158792Y-118043226D01*
X125158786Y-118043229D01*
X124973576Y-118157906D01*
X124973566Y-118157913D01*
X124812574Y-118304676D01*
X124681288Y-118478527D01*
X124584184Y-118673537D01*
X124584183Y-118673541D01*
X124529026Y-118867400D01*
X124524564Y-118883081D01*
X124504464Y-119099999D01*
X124504464Y-119100000D01*
X124524564Y-119316918D01*
X124524564Y-119316920D01*
X124524565Y-119316923D01*
X124545908Y-119391936D01*
X124584184Y-119526462D01*
X124628249Y-119614955D01*
X124681288Y-119721472D01*
X124810378Y-119892416D01*
X124812574Y-119895323D01*
X124845636Y-119925463D01*
X124973568Y-120042088D01*
X124973575Y-120042092D01*
X124973576Y-120042093D01*
X125158786Y-120156770D01*
X125158792Y-120156773D01*
X125181664Y-120165633D01*
X125361931Y-120235470D01*
X125429558Y-120248111D01*
X125491838Y-120279779D01*
X125527111Y-120340092D01*
X125524177Y-120409900D01*
X125483968Y-120467040D01*
X125429558Y-120491888D01*
X125361931Y-120504530D01*
X125313130Y-120523435D01*
X125158792Y-120583226D01*
X125158786Y-120583229D01*
X124973576Y-120697906D01*
X124973566Y-120697913D01*
X124812574Y-120844676D01*
X124681288Y-121018527D01*
X124584184Y-121213537D01*
X124524564Y-121423081D01*
X124504464Y-121639999D01*
X124504464Y-121640000D01*
X124524564Y-121856918D01*
X124584184Y-122066462D01*
X124664761Y-122228281D01*
X124681288Y-122261472D01*
X124812573Y-122435322D01*
X124973568Y-122582088D01*
X124973575Y-122582092D01*
X124973576Y-122582093D01*
X125158786Y-122696770D01*
X125158792Y-122696773D01*
X125181664Y-122705633D01*
X125361931Y-122775470D01*
X125429558Y-122788111D01*
X125491838Y-122819779D01*
X125527111Y-122880092D01*
X125524177Y-122949900D01*
X125483968Y-123007040D01*
X125429558Y-123031888D01*
X125361931Y-123044530D01*
X125313130Y-123063435D01*
X125158792Y-123123226D01*
X125158786Y-123123229D01*
X124973576Y-123237906D01*
X124973566Y-123237913D01*
X124812574Y-123384676D01*
X124681288Y-123558527D01*
X124584184Y-123753537D01*
X124524564Y-123963081D01*
X124504464Y-124179999D01*
X124504464Y-124180000D01*
X124524564Y-124396918D01*
X124524564Y-124396920D01*
X124524565Y-124396923D01*
X124584183Y-124606459D01*
X124584184Y-124606462D01*
X124593646Y-124625464D01*
X124681288Y-124801472D01*
X124812573Y-124975322D01*
X124973568Y-125122088D01*
X124973575Y-125122092D01*
X124973576Y-125122093D01*
X125158786Y-125236770D01*
X125158792Y-125236773D01*
X125181664Y-125245633D01*
X125361931Y-125315470D01*
X125576074Y-125355500D01*
X125576076Y-125355500D01*
X125793924Y-125355500D01*
X125793926Y-125355500D01*
X126008069Y-125315470D01*
X126211210Y-125236772D01*
X126351356Y-125149998D01*
X148844318Y-125149998D01*
X148844318Y-125150001D01*
X148864955Y-125306760D01*
X148864956Y-125306762D01*
X148925464Y-125452841D01*
X149021718Y-125578282D01*
X149147159Y-125674536D01*
X149293238Y-125735044D01*
X149371619Y-125745363D01*
X149449999Y-125755682D01*
X149450000Y-125755682D01*
X149450001Y-125755682D01*
X149502254Y-125748802D01*
X149606762Y-125735044D01*
X149752841Y-125674536D01*
X149878282Y-125578282D01*
X149974536Y-125452841D01*
X150035044Y-125306762D01*
X150055682Y-125150000D01*
X150052007Y-125122088D01*
X150035044Y-124993239D01*
X150035044Y-124993238D01*
X149974536Y-124847159D01*
X149878282Y-124721718D01*
X149752841Y-124625464D01*
X149606762Y-124564956D01*
X149606760Y-124564955D01*
X149450001Y-124544318D01*
X149449999Y-124544318D01*
X149293239Y-124564955D01*
X149293237Y-124564956D01*
X149147160Y-124625463D01*
X149021718Y-124721718D01*
X148925463Y-124847160D01*
X148864956Y-124993237D01*
X148864955Y-124993239D01*
X148844318Y-125149998D01*
X126351356Y-125149998D01*
X126396432Y-125122088D01*
X126557427Y-124975322D01*
X126688712Y-124801472D01*
X126785817Y-124606459D01*
X126845435Y-124396923D01*
X126865536Y-124180000D01*
X126845435Y-123963077D01*
X126785817Y-123753541D01*
X126688712Y-123558528D01*
X126557427Y-123384678D01*
X126522503Y-123352841D01*
X126396433Y-123237913D01*
X126396423Y-123237906D01*
X126211213Y-123123229D01*
X126211207Y-123123226D01*
X126126113Y-123090260D01*
X126022184Y-123049998D01*
X154844318Y-123049998D01*
X154844318Y-123050001D01*
X154864955Y-123206760D01*
X154864956Y-123206762D01*
X154925464Y-123352841D01*
X155021718Y-123478282D01*
X155147159Y-123574536D01*
X155293238Y-123635044D01*
X155371619Y-123645363D01*
X155449999Y-123655682D01*
X155450000Y-123655682D01*
X155450001Y-123655682D01*
X155502254Y-123648802D01*
X155606762Y-123635044D01*
X155752841Y-123574536D01*
X155878282Y-123478282D01*
X155974536Y-123352841D01*
X156035044Y-123206762D01*
X156055682Y-123050000D01*
X156035044Y-122893238D01*
X155974536Y-122747159D01*
X155878282Y-122621718D01*
X155784814Y-122549998D01*
X161444318Y-122549998D01*
X161444318Y-122550001D01*
X161464955Y-122706760D01*
X161464956Y-122706762D01*
X161525464Y-122852841D01*
X161621718Y-122978282D01*
X161747159Y-123074536D01*
X161893238Y-123135044D01*
X161971619Y-123145363D01*
X162049999Y-123155682D01*
X162050000Y-123155682D01*
X162050001Y-123155682D01*
X162102254Y-123148802D01*
X162206762Y-123135044D01*
X162352841Y-123074536D01*
X162478282Y-122978282D01*
X162574536Y-122852841D01*
X162635044Y-122706762D01*
X162655682Y-122550000D01*
X162635044Y-122393238D01*
X162574536Y-122247159D01*
X162478282Y-122121718D01*
X162352841Y-122025464D01*
X162206762Y-121964956D01*
X162206760Y-121964955D01*
X162050001Y-121944318D01*
X162049999Y-121944318D01*
X161893239Y-121964955D01*
X161893237Y-121964956D01*
X161747160Y-122025463D01*
X161621718Y-122121718D01*
X161525463Y-122247160D01*
X161464956Y-122393237D01*
X161464955Y-122393239D01*
X161444318Y-122549998D01*
X155784814Y-122549998D01*
X155752841Y-122525464D01*
X155606762Y-122464956D01*
X155606760Y-122464955D01*
X155450001Y-122444318D01*
X155449999Y-122444318D01*
X155293239Y-122464955D01*
X155293237Y-122464956D01*
X155147160Y-122525463D01*
X155021718Y-122621718D01*
X154925463Y-122747160D01*
X154864956Y-122893237D01*
X154864955Y-122893239D01*
X154844318Y-123049998D01*
X126022184Y-123049998D01*
X126008069Y-123044530D01*
X125940440Y-123031888D01*
X125878161Y-123000221D01*
X125842888Y-122939909D01*
X125845822Y-122870100D01*
X125886031Y-122812960D01*
X125940439Y-122788112D01*
X126008069Y-122775470D01*
X126211210Y-122696772D01*
X126396432Y-122582088D01*
X126557427Y-122435322D01*
X126688712Y-122261472D01*
X126785817Y-122066459D01*
X126845435Y-121856923D01*
X126850710Y-121799998D01*
X152644318Y-121799998D01*
X152644318Y-121800001D01*
X152664955Y-121956760D01*
X152664956Y-121956762D01*
X152725464Y-122102841D01*
X152821718Y-122228282D01*
X152947159Y-122324536D01*
X153093238Y-122385044D01*
X153155478Y-122393238D01*
X153249999Y-122405682D01*
X153250000Y-122405682D01*
X153250001Y-122405682D01*
X153344514Y-122393239D01*
X153406762Y-122385044D01*
X153552841Y-122324536D01*
X153678282Y-122228282D01*
X153774536Y-122102841D01*
X153835044Y-121956762D01*
X153855682Y-121800000D01*
X153835044Y-121643238D01*
X153774536Y-121497159D01*
X153678282Y-121371718D01*
X153552841Y-121275464D01*
X153406762Y-121214956D01*
X153406760Y-121214955D01*
X153250001Y-121194318D01*
X153249999Y-121194318D01*
X153093239Y-121214955D01*
X153093237Y-121214956D01*
X152947160Y-121275463D01*
X152821718Y-121371718D01*
X152725463Y-121497160D01*
X152664956Y-121643237D01*
X152664955Y-121643239D01*
X152644318Y-121799998D01*
X126850710Y-121799998D01*
X126865536Y-121640000D01*
X126845435Y-121423077D01*
X126785817Y-121213541D01*
X126688712Y-121018528D01*
X126557427Y-120844678D01*
X126492011Y-120785044D01*
X126396433Y-120697913D01*
X126396423Y-120697906D01*
X126211213Y-120583229D01*
X126211207Y-120583226D01*
X126126113Y-120550260D01*
X126008069Y-120504530D01*
X125940440Y-120491888D01*
X125878161Y-120460221D01*
X125842888Y-120399909D01*
X125845305Y-120342398D01*
X138981718Y-120342398D01*
X138981718Y-120342401D01*
X139002355Y-120499160D01*
X139002356Y-120499162D01*
X139046924Y-120606760D01*
X139062864Y-120645241D01*
X139159118Y-120770682D01*
X139284559Y-120866936D01*
X139430638Y-120927444D01*
X139509019Y-120937763D01*
X139587399Y-120948082D01*
X139587400Y-120948082D01*
X139587401Y-120948082D01*
X139639654Y-120941202D01*
X139744162Y-120927444D01*
X139890241Y-120866936D01*
X140015682Y-120770682D01*
X140111936Y-120645241D01*
X140172444Y-120499162D01*
X140191191Y-120356762D01*
X140193082Y-120342401D01*
X140193082Y-120342398D01*
X142431718Y-120342398D01*
X142431718Y-120342401D01*
X142452355Y-120499160D01*
X142452356Y-120499162D01*
X142496924Y-120606760D01*
X142512864Y-120645241D01*
X142609118Y-120770682D01*
X142734559Y-120866936D01*
X142880638Y-120927444D01*
X142959019Y-120937763D01*
X143037399Y-120948082D01*
X143037400Y-120948082D01*
X143037401Y-120948082D01*
X143089654Y-120941202D01*
X143194162Y-120927444D01*
X143340241Y-120866936D01*
X143361915Y-120850304D01*
X143427081Y-120825111D01*
X143495526Y-120839148D01*
X143512878Y-120850299D01*
X143534559Y-120866936D01*
X143534562Y-120866937D01*
X143534563Y-120866938D01*
X143598060Y-120893239D01*
X143680638Y-120927444D01*
X143759019Y-120937763D01*
X143837399Y-120948082D01*
X143837400Y-120948082D01*
X143837401Y-120948082D01*
X143889654Y-120941202D01*
X143994162Y-120927444D01*
X144140241Y-120866936D01*
X144265682Y-120770682D01*
X144361936Y-120645241D01*
X144422444Y-120499162D01*
X144441191Y-120356762D01*
X144443082Y-120342401D01*
X144443082Y-120342398D01*
X144424335Y-120200000D01*
X144422444Y-120185638D01*
X144361936Y-120039559D01*
X144265682Y-119914118D01*
X144182119Y-119849998D01*
X151894318Y-119849998D01*
X151894318Y-119850001D01*
X151914955Y-120006760D01*
X151914956Y-120006762D01*
X151929588Y-120042088D01*
X151975464Y-120152841D01*
X152071718Y-120278282D01*
X152197159Y-120374536D01*
X152343238Y-120435044D01*
X152413681Y-120444318D01*
X152499999Y-120455682D01*
X152500000Y-120455682D01*
X152500001Y-120455682D01*
X152543170Y-120449998D01*
X157394318Y-120449998D01*
X157394318Y-120450001D01*
X157414955Y-120606760D01*
X157414956Y-120606762D01*
X157475464Y-120752841D01*
X157571718Y-120878282D01*
X157697159Y-120974536D01*
X157843238Y-121035044D01*
X157921619Y-121045363D01*
X157999999Y-121055682D01*
X158000000Y-121055682D01*
X158000001Y-121055682D01*
X158052254Y-121048802D01*
X158156762Y-121035044D01*
X158302841Y-120974536D01*
X158428282Y-120878282D01*
X158524536Y-120752841D01*
X158585044Y-120606762D01*
X158599100Y-120499998D01*
X160344318Y-120499998D01*
X160344318Y-120500001D01*
X160364955Y-120656760D01*
X160364956Y-120656762D01*
X160425464Y-120802841D01*
X160521718Y-120928282D01*
X160647159Y-121024536D01*
X160793238Y-121085044D01*
X160871619Y-121095363D01*
X160949999Y-121105682D01*
X160950000Y-121105682D01*
X160950001Y-121105682D01*
X161002254Y-121098802D01*
X161106762Y-121085044D01*
X161191370Y-121049998D01*
X164614318Y-121049998D01*
X164614318Y-121050001D01*
X164634955Y-121206760D01*
X164634956Y-121206762D01*
X164695464Y-121352842D01*
X164750460Y-121424514D01*
X164775654Y-121489683D01*
X164761615Y-121558128D01*
X164750460Y-121575486D01*
X164695464Y-121647157D01*
X164634956Y-121793237D01*
X164634955Y-121793239D01*
X164614318Y-121949998D01*
X164614318Y-121950001D01*
X164634955Y-122106760D01*
X164634956Y-122106762D01*
X164695464Y-122252841D01*
X164791718Y-122378282D01*
X164917159Y-122474536D01*
X165063238Y-122535044D01*
X165141619Y-122545363D01*
X165219999Y-122555682D01*
X165220000Y-122555682D01*
X165220001Y-122555682D01*
X165272254Y-122548802D01*
X165376762Y-122535044D01*
X165522841Y-122474536D01*
X165648282Y-122378282D01*
X165744536Y-122252841D01*
X165805044Y-122106762D01*
X165825682Y-121950000D01*
X165805044Y-121793238D01*
X165744536Y-121647159D01*
X165744535Y-121647158D01*
X165744535Y-121647157D01*
X165689540Y-121575487D01*
X165664345Y-121510318D01*
X165678383Y-121441873D01*
X165689538Y-121424515D01*
X165744536Y-121352841D01*
X165805044Y-121206762D01*
X165825682Y-121050000D01*
X165805044Y-120893238D01*
X165744536Y-120747159D01*
X165648282Y-120621718D01*
X165522841Y-120525464D01*
X165468224Y-120502841D01*
X165376762Y-120464956D01*
X165376760Y-120464955D01*
X165220001Y-120444318D01*
X165219999Y-120444318D01*
X165063239Y-120464955D01*
X165063237Y-120464956D01*
X164917160Y-120525463D01*
X164791718Y-120621718D01*
X164695463Y-120747160D01*
X164634956Y-120893237D01*
X164634955Y-120893239D01*
X164614318Y-121049998D01*
X161191370Y-121049998D01*
X161252841Y-121024536D01*
X161378282Y-120928282D01*
X161474536Y-120802841D01*
X161535044Y-120656762D01*
X161555682Y-120500000D01*
X161555571Y-120499160D01*
X161535044Y-120343239D01*
X161535044Y-120343238D01*
X161475712Y-120199998D01*
X161914318Y-120199998D01*
X161914318Y-120200001D01*
X161934955Y-120356760D01*
X161934956Y-120356762D01*
X161994287Y-120500001D01*
X161995464Y-120502841D01*
X162091718Y-120628282D01*
X162217159Y-120724536D01*
X162363238Y-120785044D01*
X162418984Y-120792383D01*
X162519999Y-120805682D01*
X162520000Y-120805682D01*
X162520001Y-120805682D01*
X162621016Y-120792383D01*
X162676762Y-120785044D01*
X162822841Y-120724536D01*
X162948282Y-120628282D01*
X163044536Y-120502841D01*
X163105044Y-120356762D01*
X163125682Y-120200000D01*
X163123791Y-120185639D01*
X163105044Y-120043239D01*
X163105044Y-120043238D01*
X163044536Y-119897159D01*
X162948282Y-119771718D01*
X162822841Y-119675464D01*
X162676762Y-119614956D01*
X162676760Y-119614955D01*
X162520001Y-119594318D01*
X162519999Y-119594318D01*
X162363239Y-119614955D01*
X162363237Y-119614956D01*
X162217160Y-119675463D01*
X162091718Y-119771718D01*
X161995463Y-119897160D01*
X161934956Y-120043237D01*
X161934955Y-120043239D01*
X161914318Y-120199998D01*
X161475712Y-120199998D01*
X161474536Y-120197159D01*
X161378282Y-120071718D01*
X161252841Y-119975464D01*
X161106762Y-119914956D01*
X161106760Y-119914955D01*
X160950001Y-119894318D01*
X160949999Y-119894318D01*
X160793239Y-119914955D01*
X160793237Y-119914956D01*
X160647160Y-119975463D01*
X160521718Y-120071718D01*
X160425463Y-120197160D01*
X160364956Y-120343237D01*
X160364955Y-120343239D01*
X160344318Y-120499998D01*
X158599100Y-120499998D01*
X158605682Y-120450000D01*
X158599087Y-120399909D01*
X158585044Y-120293239D01*
X158585044Y-120293238D01*
X158524536Y-120147159D01*
X158428282Y-120021718D01*
X158302841Y-119925464D01*
X158277472Y-119914956D01*
X158156762Y-119864956D01*
X158156760Y-119864955D01*
X158000001Y-119844318D01*
X157999999Y-119844318D01*
X157843239Y-119864955D01*
X157843237Y-119864956D01*
X157697160Y-119925463D01*
X157571718Y-120021718D01*
X157475463Y-120147160D01*
X157414956Y-120293237D01*
X157414955Y-120293239D01*
X157394318Y-120449998D01*
X152543170Y-120449998D01*
X152552254Y-120448802D01*
X152656762Y-120435044D01*
X152802841Y-120374536D01*
X152928282Y-120278282D01*
X153024536Y-120152841D01*
X153085044Y-120006762D01*
X153105682Y-119850000D01*
X153085044Y-119693238D01*
X153024536Y-119547159D01*
X152928282Y-119421718D01*
X152802841Y-119325464D01*
X152782221Y-119316923D01*
X152656762Y-119264956D01*
X152656760Y-119264955D01*
X152500001Y-119244318D01*
X152499999Y-119244318D01*
X152343239Y-119264955D01*
X152343237Y-119264956D01*
X152197160Y-119325463D01*
X152071718Y-119421718D01*
X151975463Y-119547160D01*
X151914956Y-119693237D01*
X151914955Y-119693239D01*
X151894318Y-119849998D01*
X144182119Y-119849998D01*
X144140241Y-119817864D01*
X143994162Y-119757356D01*
X143994160Y-119757355D01*
X143837401Y-119736718D01*
X143837399Y-119736718D01*
X143680639Y-119757355D01*
X143680637Y-119757356D01*
X143534558Y-119817864D01*
X143512884Y-119834495D01*
X143447714Y-119859687D01*
X143379270Y-119845647D01*
X143361916Y-119834495D01*
X143340241Y-119817864D01*
X143194162Y-119757356D01*
X143194160Y-119757355D01*
X143037401Y-119736718D01*
X143037399Y-119736718D01*
X142880639Y-119757355D01*
X142880637Y-119757356D01*
X142734560Y-119817863D01*
X142609118Y-119914118D01*
X142512863Y-120039560D01*
X142452356Y-120185637D01*
X142452355Y-120185639D01*
X142431718Y-120342398D01*
X140193082Y-120342398D01*
X140174335Y-120200000D01*
X140172444Y-120185638D01*
X140111936Y-120039559D01*
X140015682Y-119914118D01*
X139890241Y-119817864D01*
X139744162Y-119757356D01*
X139744160Y-119757355D01*
X139587401Y-119736718D01*
X139587399Y-119736718D01*
X139430639Y-119757355D01*
X139430637Y-119757356D01*
X139284560Y-119817863D01*
X139159118Y-119914118D01*
X139062863Y-120039560D01*
X139002356Y-120185637D01*
X139002355Y-120185639D01*
X138981718Y-120342398D01*
X125845305Y-120342398D01*
X125845822Y-120330100D01*
X125886031Y-120272960D01*
X125940439Y-120248112D01*
X126008069Y-120235470D01*
X126211210Y-120156772D01*
X126396432Y-120042088D01*
X126557427Y-119895322D01*
X126688712Y-119721472D01*
X126785817Y-119526459D01*
X126845435Y-119316923D01*
X126865536Y-119100000D01*
X126845435Y-118883077D01*
X126840974Y-118867398D01*
X137481718Y-118867398D01*
X137481718Y-118867401D01*
X137502355Y-119024160D01*
X137502356Y-119024162D01*
X137562864Y-119170241D01*
X137659118Y-119295682D01*
X137784559Y-119391936D01*
X137930638Y-119452444D01*
X138009019Y-119462763D01*
X138087399Y-119473082D01*
X138087400Y-119473082D01*
X138087401Y-119473082D01*
X138139654Y-119466202D01*
X138244162Y-119452444D01*
X138390241Y-119391936D01*
X138515682Y-119295682D01*
X138611936Y-119170241D01*
X138672444Y-119024162D01*
X138693082Y-118867400D01*
X138672444Y-118710638D01*
X138611936Y-118564559D01*
X138515682Y-118439118D01*
X138390241Y-118342864D01*
X138244162Y-118282356D01*
X138244160Y-118282355D01*
X138087401Y-118261718D01*
X138087399Y-118261718D01*
X137930639Y-118282355D01*
X137930637Y-118282356D01*
X137784560Y-118342863D01*
X137659118Y-118439118D01*
X137562863Y-118564560D01*
X137502356Y-118710637D01*
X137502355Y-118710639D01*
X137481718Y-118867398D01*
X126840974Y-118867398D01*
X126785817Y-118673541D01*
X126688712Y-118478528D01*
X126557427Y-118304678D01*
X126396432Y-118157912D01*
X126396428Y-118157909D01*
X126396423Y-118157906D01*
X126211213Y-118043229D01*
X126211207Y-118043226D01*
X126209070Y-118042398D01*
X144081718Y-118042398D01*
X144081718Y-118042401D01*
X144102355Y-118199160D01*
X144102356Y-118199162D01*
X144162864Y-118345241D01*
X144259118Y-118470682D01*
X144384559Y-118566936D01*
X144530638Y-118627444D01*
X144609019Y-118637763D01*
X144687399Y-118648082D01*
X144687400Y-118648082D01*
X144687401Y-118648082D01*
X144739654Y-118641202D01*
X144844162Y-118627444D01*
X144990241Y-118566936D01*
X145115682Y-118470682D01*
X145211936Y-118345241D01*
X145272444Y-118199162D01*
X145293082Y-118042400D01*
X145272444Y-117885638D01*
X145211936Y-117739559D01*
X145115682Y-117614118D01*
X144990241Y-117517864D01*
X144952166Y-117502093D01*
X144844162Y-117457356D01*
X144844160Y-117457355D01*
X144687401Y-117436718D01*
X144687399Y-117436718D01*
X144530639Y-117457355D01*
X144530637Y-117457356D01*
X144384560Y-117517863D01*
X144259118Y-117614118D01*
X144162863Y-117739560D01*
X144102356Y-117885637D01*
X144102355Y-117885639D01*
X144081718Y-118042398D01*
X126209070Y-118042398D01*
X126126113Y-118010260D01*
X126008069Y-117964530D01*
X125940440Y-117951888D01*
X125878161Y-117920221D01*
X125842888Y-117859909D01*
X125845822Y-117790100D01*
X125886031Y-117732960D01*
X125940439Y-117708112D01*
X126008069Y-117695470D01*
X126211210Y-117616772D01*
X126396432Y-117502088D01*
X126557427Y-117355322D01*
X126599206Y-117299998D01*
X153394318Y-117299998D01*
X153394318Y-117300001D01*
X153414955Y-117456760D01*
X153414956Y-117456762D01*
X153475464Y-117602841D01*
X153571718Y-117728282D01*
X153697159Y-117824536D01*
X153843238Y-117885044D01*
X153921619Y-117895363D01*
X153999999Y-117905682D01*
X154000000Y-117905682D01*
X154000001Y-117905682D01*
X154052254Y-117898802D01*
X154156762Y-117885044D01*
X154302841Y-117824536D01*
X154428282Y-117728282D01*
X154524536Y-117602841D01*
X154585044Y-117456762D01*
X154595808Y-117374998D01*
X164369318Y-117374998D01*
X164369318Y-117375001D01*
X164389955Y-117531760D01*
X164389956Y-117531762D01*
X164425167Y-117616770D01*
X164450464Y-117677841D01*
X164546718Y-117803282D01*
X164672159Y-117899536D01*
X164818238Y-117960044D01*
X164852313Y-117964530D01*
X164974999Y-117980682D01*
X164975000Y-117980682D01*
X164975001Y-117980682D01*
X165027254Y-117973802D01*
X165131762Y-117960044D01*
X165277841Y-117899536D01*
X165403282Y-117803282D01*
X165499536Y-117677841D01*
X165560044Y-117531762D01*
X165580682Y-117375000D01*
X165578091Y-117355323D01*
X165560044Y-117218239D01*
X165560044Y-117218238D01*
X165499536Y-117072159D01*
X165403282Y-116946718D01*
X165277841Y-116850464D01*
X165131762Y-116789956D01*
X165131760Y-116789955D01*
X164975001Y-116769318D01*
X164974999Y-116769318D01*
X164818239Y-116789955D01*
X164818237Y-116789956D01*
X164672160Y-116850463D01*
X164546718Y-116946718D01*
X164450463Y-117072160D01*
X164389956Y-117218237D01*
X164389955Y-117218239D01*
X164369318Y-117374998D01*
X154595808Y-117374998D01*
X154605682Y-117300000D01*
X154585044Y-117143238D01*
X154524536Y-116997159D01*
X154428282Y-116871718D01*
X154302841Y-116775464D01*
X154288003Y-116769318D01*
X154156762Y-116714956D01*
X154156760Y-116714955D01*
X154000001Y-116694318D01*
X153999999Y-116694318D01*
X153843239Y-116714955D01*
X153843237Y-116714956D01*
X153697160Y-116775463D01*
X153571718Y-116871718D01*
X153475463Y-116997160D01*
X153414956Y-117143237D01*
X153414955Y-117143239D01*
X153394318Y-117299998D01*
X126599206Y-117299998D01*
X126688712Y-117181472D01*
X126785817Y-116986459D01*
X126845435Y-116776923D01*
X126865536Y-116560000D01*
X126845435Y-116343077D01*
X126785817Y-116133541D01*
X126688712Y-115938528D01*
X126557427Y-115764678D01*
X126548741Y-115756760D01*
X126497341Y-115709903D01*
X140008032Y-115709903D01*
X140008032Y-115709906D01*
X140028669Y-115866665D01*
X140028670Y-115866667D01*
X140089178Y-116012746D01*
X140185432Y-116138187D01*
X140310873Y-116234441D01*
X140456952Y-116294949D01*
X140535333Y-116305268D01*
X140613713Y-116315587D01*
X140613714Y-116315587D01*
X140613715Y-116315587D01*
X140665968Y-116308707D01*
X140770476Y-116294949D01*
X140916555Y-116234441D01*
X141041996Y-116138187D01*
X141138250Y-116012746D01*
X141198758Y-115866667D01*
X141213813Y-115752309D01*
X141219396Y-115709906D01*
X141219396Y-115709903D01*
X141198758Y-115553144D01*
X141198758Y-115553143D01*
X141138250Y-115407064D01*
X141041996Y-115281623D01*
X140916555Y-115185369D01*
X140770476Y-115124861D01*
X140770474Y-115124860D01*
X140613715Y-115104223D01*
X140613713Y-115104223D01*
X140456953Y-115124860D01*
X140456951Y-115124861D01*
X140310874Y-115185368D01*
X140185432Y-115281623D01*
X140089177Y-115407065D01*
X140028670Y-115553142D01*
X140028669Y-115553144D01*
X140008032Y-115709903D01*
X126497341Y-115709903D01*
X126396433Y-115617913D01*
X126396423Y-115617906D01*
X126211213Y-115503229D01*
X126211207Y-115503226D01*
X126126113Y-115470260D01*
X126008069Y-115424530D01*
X125940440Y-115411888D01*
X125878161Y-115380221D01*
X125842888Y-115319909D01*
X125845822Y-115250100D01*
X125886031Y-115192960D01*
X125940439Y-115168112D01*
X126008069Y-115155470D01*
X126211210Y-115076772D01*
X126396432Y-114962088D01*
X126519389Y-114849998D01*
X141694318Y-114849998D01*
X141694318Y-114850001D01*
X141714955Y-115006760D01*
X141714956Y-115006762D01*
X141743955Y-115076773D01*
X141775464Y-115152841D01*
X141871718Y-115278282D01*
X141997159Y-115374536D01*
X142143238Y-115435044D01*
X142143241Y-115435044D01*
X142151087Y-115437147D01*
X142150592Y-115438993D01*
X142204892Y-115463009D01*
X142243368Y-115521330D01*
X142247757Y-115573871D01*
X142244318Y-115599995D01*
X142244318Y-115600001D01*
X142264955Y-115756760D01*
X142264956Y-115756762D01*
X142325464Y-115902841D01*
X142421718Y-116028282D01*
X142547159Y-116124536D01*
X142693238Y-116185044D01*
X142789300Y-116197690D01*
X142853195Y-116225956D01*
X142891667Y-116284280D01*
X142896054Y-116336810D01*
X142894318Y-116350000D01*
X142894318Y-116350001D01*
X142914955Y-116506760D01*
X142914956Y-116506762D01*
X142937007Y-116559999D01*
X142975464Y-116652841D01*
X143071718Y-116778282D01*
X143197159Y-116874536D01*
X143343238Y-116935044D01*
X143421619Y-116945363D01*
X143499999Y-116955682D01*
X143500000Y-116955682D01*
X143500001Y-116955682D01*
X143552254Y-116948802D01*
X143656762Y-116935044D01*
X143802841Y-116874536D01*
X143928282Y-116778282D01*
X144024536Y-116652841D01*
X144085044Y-116506762D01*
X144105682Y-116350000D01*
X144101151Y-116315587D01*
X144085044Y-116193239D01*
X144085044Y-116193238D01*
X144024536Y-116047159D01*
X143928282Y-115921718D01*
X143802841Y-115825464D01*
X143656762Y-115764956D01*
X143564428Y-115752800D01*
X143560699Y-115752309D01*
X143496803Y-115724042D01*
X143458332Y-115665718D01*
X143453946Y-115613184D01*
X143455682Y-115600000D01*
X143435044Y-115443238D01*
X143417133Y-115399998D01*
X163194318Y-115399998D01*
X163194318Y-115400001D01*
X163214955Y-115556760D01*
X163214956Y-115556762D01*
X163247381Y-115635044D01*
X163275464Y-115702841D01*
X163371718Y-115828282D01*
X163497159Y-115924536D01*
X163643238Y-115985044D01*
X163721619Y-115995363D01*
X163799999Y-116005682D01*
X163800000Y-116005682D01*
X163800001Y-116005682D01*
X163852254Y-115998802D01*
X163956762Y-115985044D01*
X164102841Y-115924536D01*
X164228282Y-115828282D01*
X164324536Y-115702841D01*
X164385044Y-115556762D01*
X164405682Y-115400000D01*
X164403641Y-115384500D01*
X164385044Y-115243239D01*
X164385044Y-115243238D01*
X164324536Y-115097159D01*
X164228282Y-114971718D01*
X164102841Y-114875464D01*
X164100605Y-114874538D01*
X163956762Y-114814956D01*
X163956760Y-114814955D01*
X163800001Y-114794318D01*
X163799999Y-114794318D01*
X163643239Y-114814955D01*
X163643237Y-114814956D01*
X163497160Y-114875463D01*
X163371718Y-114971718D01*
X163275463Y-115097160D01*
X163214956Y-115243237D01*
X163214955Y-115243239D01*
X163194318Y-115399998D01*
X143417133Y-115399998D01*
X143374536Y-115297159D01*
X143278282Y-115171718D01*
X143152841Y-115075464D01*
X143129751Y-115065900D01*
X143006762Y-115014956D01*
X142998912Y-115012853D01*
X142999406Y-115011008D01*
X142945095Y-114986980D01*
X142906626Y-114928654D01*
X142902242Y-114876126D01*
X142905682Y-114850000D01*
X142885044Y-114693238D01*
X142824536Y-114547159D01*
X142728282Y-114421718D01*
X142602841Y-114325464D01*
X142599531Y-114324093D01*
X142456762Y-114264956D01*
X142456760Y-114264955D01*
X142300001Y-114244318D01*
X142299999Y-114244318D01*
X142143239Y-114264955D01*
X142143237Y-114264956D01*
X141997160Y-114325463D01*
X141871718Y-114421718D01*
X141775463Y-114547160D01*
X141714956Y-114693237D01*
X141714955Y-114693239D01*
X141694318Y-114849998D01*
X126519389Y-114849998D01*
X126557427Y-114815322D01*
X126688712Y-114641472D01*
X126785817Y-114446459D01*
X126845435Y-114236923D01*
X126858123Y-114099998D01*
X143244318Y-114099998D01*
X143244318Y-114100001D01*
X143264955Y-114256760D01*
X143264956Y-114256762D01*
X143322725Y-114396230D01*
X143325464Y-114402841D01*
X143421718Y-114528282D01*
X143547159Y-114624536D01*
X143693238Y-114685044D01*
X143755478Y-114693238D01*
X143849999Y-114705682D01*
X143850000Y-114705682D01*
X143850001Y-114705682D01*
X143944514Y-114693239D01*
X144006762Y-114685044D01*
X144152841Y-114624536D01*
X144278282Y-114528282D01*
X144314675Y-114480854D01*
X148694318Y-114480854D01*
X148694318Y-114480857D01*
X148714955Y-114637616D01*
X148714956Y-114637618D01*
X148773220Y-114778281D01*
X148775464Y-114783697D01*
X148871718Y-114909138D01*
X148997159Y-115005392D01*
X149143238Y-115065900D01*
X149215877Y-115075463D01*
X149299999Y-115086538D01*
X149300000Y-115086538D01*
X149300001Y-115086538D01*
X149374173Y-115076773D01*
X149456762Y-115065900D01*
X149602841Y-115005392D01*
X149728282Y-114909138D01*
X149824536Y-114783697D01*
X149885044Y-114637618D01*
X149905682Y-114480856D01*
X149903426Y-114463723D01*
X149885044Y-114324095D01*
X149885044Y-114324094D01*
X149824536Y-114178015D01*
X149728282Y-114052574D01*
X149659763Y-113999998D01*
X151144318Y-113999998D01*
X151144318Y-114000001D01*
X151164955Y-114156760D01*
X151164956Y-114156762D01*
X151206376Y-114256760D01*
X151225464Y-114302841D01*
X151321718Y-114428282D01*
X151447159Y-114524536D01*
X151593238Y-114585044D01*
X151671619Y-114595363D01*
X151749999Y-114605682D01*
X151750000Y-114605682D01*
X151750001Y-114605682D01*
X151802254Y-114598802D01*
X151906762Y-114585044D01*
X152052841Y-114524536D01*
X152132095Y-114463722D01*
X152197262Y-114438528D01*
X152265707Y-114452566D01*
X152283060Y-114463717D01*
X152297159Y-114474536D01*
X152297162Y-114474537D01*
X152297163Y-114474538D01*
X152312419Y-114480857D01*
X152443238Y-114535044D01*
X152521619Y-114545363D01*
X152599999Y-114555682D01*
X152600000Y-114555682D01*
X152600001Y-114555682D01*
X152664739Y-114547159D01*
X152756762Y-114535044D01*
X152902841Y-114474536D01*
X153028282Y-114378282D01*
X153049985Y-114349998D01*
X164644318Y-114349998D01*
X164644318Y-114350001D01*
X164664955Y-114506760D01*
X164664956Y-114506762D01*
X164719157Y-114637616D01*
X164725464Y-114652841D01*
X164821718Y-114778282D01*
X164947159Y-114874536D01*
X165093238Y-114935044D01*
X165171619Y-114945363D01*
X165249999Y-114955682D01*
X165250000Y-114955682D01*
X165250001Y-114955682D01*
X165302254Y-114948802D01*
X165406762Y-114935044D01*
X165552841Y-114874536D01*
X165560000Y-114869042D01*
X165625163Y-114843846D01*
X165693609Y-114857879D01*
X165714996Y-114873691D01*
X165715271Y-114873334D01*
X165721716Y-114878279D01*
X165721718Y-114878282D01*
X165847159Y-114974536D01*
X165993238Y-115035044D01*
X166150000Y-115055682D01*
X166218805Y-115046623D01*
X166287837Y-115057388D01*
X166340093Y-115103767D01*
X166357927Y-115153375D01*
X166364956Y-115206761D01*
X166364956Y-115206762D01*
X166415961Y-115329900D01*
X166425464Y-115352841D01*
X166521718Y-115478282D01*
X166647159Y-115574536D01*
X166793238Y-115635044D01*
X166871619Y-115645363D01*
X166949999Y-115655682D01*
X166950000Y-115655682D01*
X166950001Y-115655682D01*
X167002254Y-115648802D01*
X167106762Y-115635044D01*
X167252841Y-115574536D01*
X167378282Y-115478282D01*
X167474536Y-115352841D01*
X167535044Y-115206762D01*
X167555682Y-115050000D01*
X167555237Y-115046623D01*
X167535044Y-114893239D01*
X167535044Y-114893238D01*
X167474536Y-114747159D01*
X167378282Y-114621718D01*
X167252841Y-114525464D01*
X167250598Y-114524535D01*
X167106762Y-114464956D01*
X167106760Y-114464955D01*
X166950001Y-114444318D01*
X166949999Y-114444318D01*
X166881196Y-114453376D01*
X166812161Y-114442610D01*
X166759905Y-114396230D01*
X166742072Y-114346622D01*
X166735044Y-114293238D01*
X166674536Y-114147159D01*
X166578282Y-114021718D01*
X166452841Y-113925464D01*
X166443797Y-113921718D01*
X166306762Y-113864956D01*
X166306760Y-113864955D01*
X166150001Y-113844318D01*
X166149999Y-113844318D01*
X165993239Y-113864955D01*
X165993237Y-113864956D01*
X165847157Y-113925464D01*
X165839996Y-113930960D01*
X165774827Y-113956154D01*
X165706382Y-113942115D01*
X165685003Y-113926308D01*
X165684729Y-113926666D01*
X165678283Y-113921720D01*
X165678282Y-113921718D01*
X165552841Y-113825464D01*
X165525869Y-113814292D01*
X165406762Y-113764956D01*
X165406760Y-113764955D01*
X165250001Y-113744318D01*
X165249999Y-113744318D01*
X165093239Y-113764955D01*
X165093237Y-113764956D01*
X164947160Y-113825463D01*
X164821718Y-113921718D01*
X164725463Y-114047160D01*
X164664956Y-114193237D01*
X164664955Y-114193239D01*
X164644318Y-114349998D01*
X153049985Y-114349998D01*
X153124536Y-114252841D01*
X153185044Y-114106762D01*
X153205682Y-113950000D01*
X153203175Y-113930960D01*
X153187677Y-113813240D01*
X153185044Y-113793238D01*
X153124536Y-113647159D01*
X153028282Y-113521718D01*
X152902841Y-113425464D01*
X152877472Y-113414956D01*
X152756762Y-113364956D01*
X152756760Y-113364955D01*
X152600001Y-113344318D01*
X152599999Y-113344318D01*
X152443239Y-113364955D01*
X152443237Y-113364956D01*
X152297158Y-113425464D01*
X152217904Y-113486277D01*
X152152735Y-113511470D01*
X152084290Y-113497431D01*
X152066935Y-113486278D01*
X152052841Y-113475464D01*
X151906762Y-113414956D01*
X151906760Y-113414955D01*
X151750001Y-113394318D01*
X151749999Y-113394318D01*
X151593239Y-113414955D01*
X151593237Y-113414956D01*
X151447160Y-113475463D01*
X151321718Y-113571718D01*
X151225463Y-113697160D01*
X151164956Y-113843237D01*
X151164955Y-113843239D01*
X151144318Y-113999998D01*
X149659763Y-113999998D01*
X149602841Y-113956320D01*
X149602440Y-113956154D01*
X149456762Y-113895812D01*
X149456760Y-113895811D01*
X149300001Y-113875174D01*
X149299999Y-113875174D01*
X149143239Y-113895811D01*
X149143237Y-113895812D01*
X148997160Y-113956319D01*
X148871718Y-114052574D01*
X148775463Y-114178016D01*
X148714956Y-114324093D01*
X148714955Y-114324095D01*
X148694318Y-114480854D01*
X144314675Y-114480854D01*
X144374536Y-114402841D01*
X144435044Y-114256762D01*
X144455682Y-114100000D01*
X144436383Y-113953413D01*
X144447148Y-113884382D01*
X144493528Y-113832126D01*
X144560797Y-113813240D01*
X144575501Y-113814291D01*
X144700000Y-113830682D01*
X144700001Y-113830682D01*
X144752254Y-113823802D01*
X144856762Y-113810044D01*
X145002841Y-113749536D01*
X145128282Y-113653282D01*
X145224536Y-113527841D01*
X145285044Y-113381762D01*
X145305682Y-113225000D01*
X145305639Y-113224676D01*
X145292129Y-113122054D01*
X145302895Y-113053019D01*
X145349275Y-113000763D01*
X145416544Y-112981878D01*
X145435120Y-112984437D01*
X145435180Y-112983983D01*
X145443237Y-112985043D01*
X145443238Y-112985044D01*
X145522894Y-112995530D01*
X145599999Y-113005682D01*
X145600000Y-113005682D01*
X145600001Y-113005682D01*
X145652254Y-112998802D01*
X145756762Y-112985044D01*
X145902841Y-112924536D01*
X146028282Y-112828282D01*
X146124536Y-112702841D01*
X146125714Y-112699998D01*
X153859319Y-112699998D01*
X153859319Y-112700001D01*
X153879956Y-112856760D01*
X153879957Y-112856762D01*
X153919936Y-112953281D01*
X153940465Y-113002841D01*
X154036719Y-113128282D01*
X154162160Y-113224536D01*
X154308239Y-113285044D01*
X154386620Y-113295363D01*
X154465000Y-113305682D01*
X154465001Y-113305682D01*
X154465002Y-113305682D01*
X154517255Y-113298802D01*
X154621763Y-113285044D01*
X154767842Y-113224536D01*
X154893283Y-113128282D01*
X154989537Y-113002841D01*
X155050045Y-112856762D01*
X155070683Y-112700000D01*
X155064848Y-112655682D01*
X155050045Y-112543239D01*
X155050045Y-112543238D01*
X154989537Y-112397159D01*
X154893283Y-112271718D01*
X154767842Y-112175464D01*
X154621763Y-112114956D01*
X154621761Y-112114955D01*
X154465002Y-112094318D01*
X154465000Y-112094318D01*
X154308240Y-112114955D01*
X154308238Y-112114956D01*
X154162161Y-112175463D01*
X154036719Y-112271718D01*
X153940464Y-112397160D01*
X153879957Y-112543237D01*
X153879956Y-112543239D01*
X153859319Y-112699998D01*
X146125714Y-112699998D01*
X146185044Y-112556762D01*
X146205682Y-112400000D01*
X146201500Y-112368238D01*
X146185044Y-112243239D01*
X146185044Y-112243238D01*
X146124536Y-112097159D01*
X146028282Y-111971718D01*
X145902841Y-111875464D01*
X145756762Y-111814956D01*
X145756760Y-111814955D01*
X145600001Y-111794318D01*
X145599999Y-111794318D01*
X145443239Y-111814955D01*
X145443237Y-111814956D01*
X145297160Y-111875463D01*
X145171718Y-111971718D01*
X145075463Y-112097160D01*
X145014956Y-112243237D01*
X145014955Y-112243239D01*
X144994318Y-112399998D01*
X144994318Y-112400002D01*
X145007870Y-112502946D01*
X144997104Y-112571981D01*
X144950724Y-112624236D01*
X144883455Y-112643121D01*
X144864879Y-112640563D01*
X144864820Y-112641017D01*
X144856762Y-112639956D01*
X144766790Y-112628111D01*
X144700001Y-112619318D01*
X144699999Y-112619318D01*
X144543239Y-112639955D01*
X144543237Y-112639956D01*
X144397160Y-112700463D01*
X144271718Y-112796718D01*
X144175463Y-112922160D01*
X144114956Y-113068237D01*
X144114955Y-113068239D01*
X144094360Y-113224678D01*
X144094318Y-113225000D01*
X144112743Y-113364956D01*
X144113616Y-113371583D01*
X144102850Y-113440618D01*
X144056470Y-113492874D01*
X143989202Y-113511759D01*
X143974492Y-113510707D01*
X143850001Y-113494318D01*
X143849999Y-113494318D01*
X143693239Y-113514955D01*
X143693237Y-113514956D01*
X143547160Y-113575463D01*
X143421718Y-113671718D01*
X143325463Y-113797160D01*
X143264956Y-113943237D01*
X143264955Y-113943239D01*
X143244318Y-114099998D01*
X126858123Y-114099998D01*
X126865536Y-114020000D01*
X126845435Y-113803077D01*
X126785817Y-113593541D01*
X126688712Y-113398528D01*
X126557427Y-113224678D01*
X126396432Y-113077912D01*
X126396428Y-113077909D01*
X126396423Y-113077906D01*
X126211213Y-112963229D01*
X126211207Y-112963226D01*
X126105202Y-112922160D01*
X126008069Y-112884530D01*
X125940440Y-112871888D01*
X125878161Y-112840221D01*
X125842888Y-112779909D01*
X125845822Y-112710100D01*
X125886031Y-112652960D01*
X125940439Y-112628112D01*
X126008069Y-112615470D01*
X126211210Y-112536772D01*
X126230226Y-112524998D01*
X132094318Y-112524998D01*
X132094318Y-112525001D01*
X132114955Y-112681760D01*
X132114956Y-112681762D01*
X132174966Y-112826640D01*
X132175464Y-112827841D01*
X132271718Y-112953282D01*
X132397159Y-113049536D01*
X132543238Y-113110044D01*
X132621619Y-113120363D01*
X132699999Y-113130682D01*
X132700000Y-113130682D01*
X132700001Y-113130682D01*
X132752254Y-113123802D01*
X132856762Y-113110044D01*
X133002841Y-113049536D01*
X133128282Y-112953282D01*
X133190654Y-112871995D01*
X133247079Y-112830795D01*
X133316825Y-112826640D01*
X133377746Y-112860852D01*
X133403588Y-112900029D01*
X133425464Y-112952841D01*
X133521718Y-113078282D01*
X133647159Y-113174536D01*
X133793238Y-113235044D01*
X133871619Y-113245363D01*
X133949999Y-113255682D01*
X133950000Y-113255682D01*
X133950001Y-113255682D01*
X134002254Y-113248802D01*
X134106762Y-113235044D01*
X134252841Y-113174536D01*
X134378282Y-113078282D01*
X134474536Y-112952841D01*
X134535044Y-112806762D01*
X134549100Y-112699998D01*
X134555682Y-112650001D01*
X134555682Y-112649998D01*
X134539226Y-112525001D01*
X134535044Y-112493238D01*
X134474536Y-112347159D01*
X134378282Y-112221718D01*
X134252841Y-112125464D01*
X134227472Y-112114956D01*
X134106762Y-112064956D01*
X134106760Y-112064955D01*
X133950001Y-112044318D01*
X133949999Y-112044318D01*
X133793239Y-112064955D01*
X133793237Y-112064956D01*
X133647160Y-112125463D01*
X133647159Y-112125464D01*
X133521718Y-112221718D01*
X133521717Y-112221719D01*
X133521716Y-112221720D01*
X133459346Y-112303002D01*
X133402918Y-112344204D01*
X133333172Y-112348359D01*
X133272252Y-112314146D01*
X133246410Y-112274968D01*
X133245064Y-112271718D01*
X133224536Y-112222159D01*
X133128282Y-112096718D01*
X133002841Y-112000464D01*
X132856762Y-111939956D01*
X132856760Y-111939955D01*
X132700001Y-111919318D01*
X132699999Y-111919318D01*
X132543239Y-111939955D01*
X132543237Y-111939956D01*
X132397160Y-112000463D01*
X132271718Y-112096718D01*
X132175463Y-112222160D01*
X132114956Y-112368237D01*
X132114955Y-112368239D01*
X132094318Y-112524998D01*
X126230226Y-112524998D01*
X126396432Y-112422088D01*
X126557427Y-112275322D01*
X126688712Y-112101472D01*
X126785817Y-111906459D01*
X126845435Y-111696923D01*
X126849783Y-111649998D01*
X142944318Y-111649998D01*
X142944318Y-111650001D01*
X142964955Y-111806760D01*
X142964956Y-111806762D01*
X143003576Y-111900000D01*
X143025464Y-111952841D01*
X143121718Y-112078282D01*
X143247159Y-112174536D01*
X143393238Y-112235044D01*
X143455478Y-112243238D01*
X143549999Y-112255682D01*
X143550000Y-112255682D01*
X143550001Y-112255682D01*
X143644514Y-112243239D01*
X143706762Y-112235044D01*
X143852841Y-112174536D01*
X143978282Y-112078282D01*
X144074536Y-111952841D01*
X144135044Y-111806762D01*
X144155682Y-111650000D01*
X144149847Y-111605682D01*
X144135044Y-111493239D01*
X144135044Y-111493238D01*
X144074536Y-111347159D01*
X143978282Y-111221718D01*
X143852841Y-111125464D01*
X143706762Y-111064956D01*
X143706760Y-111064955D01*
X143550001Y-111044318D01*
X143549999Y-111044318D01*
X143393239Y-111064955D01*
X143393237Y-111064956D01*
X143247160Y-111125463D01*
X143121718Y-111221718D01*
X143025463Y-111347160D01*
X142964956Y-111493237D01*
X142964955Y-111493239D01*
X142944318Y-111649998D01*
X126849783Y-111649998D01*
X126865536Y-111480000D01*
X126845435Y-111263077D01*
X126785817Y-111053541D01*
X126688712Y-110858528D01*
X126557427Y-110684678D01*
X126533660Y-110663012D01*
X126434903Y-110572983D01*
X126396432Y-110537912D01*
X126396428Y-110537909D01*
X126396423Y-110537906D01*
X126211213Y-110423229D01*
X126211207Y-110423226D01*
X126126113Y-110390260D01*
X126008069Y-110344530D01*
X125940440Y-110331888D01*
X125878161Y-110300221D01*
X125842888Y-110239909D01*
X125845822Y-110170100D01*
X125886031Y-110112960D01*
X125940439Y-110088112D01*
X126008069Y-110075470D01*
X126073814Y-110050000D01*
X131244318Y-110050000D01*
X131244318Y-110050003D01*
X131264955Y-110206762D01*
X131264956Y-110206764D01*
X131322020Y-110344530D01*
X131325464Y-110352843D01*
X131421718Y-110478284D01*
X131547159Y-110574538D01*
X131693238Y-110635046D01*
X131771619Y-110645365D01*
X131849999Y-110655684D01*
X131850000Y-110655684D01*
X131850001Y-110655684D01*
X131902254Y-110648804D01*
X132006762Y-110635046D01*
X132152841Y-110574538D01*
X132278282Y-110478284D01*
X132374536Y-110352843D01*
X132435044Y-110206764D01*
X132455682Y-110050002D01*
X132452822Y-110028281D01*
X132435044Y-109893241D01*
X132435044Y-109893240D01*
X132374536Y-109747161D01*
X132278282Y-109621720D01*
X132152841Y-109525466D01*
X132084504Y-109497160D01*
X132006762Y-109464958D01*
X132006760Y-109464957D01*
X131850001Y-109444320D01*
X131849999Y-109444320D01*
X131693239Y-109464957D01*
X131693237Y-109464958D01*
X131547160Y-109525465D01*
X131421718Y-109621720D01*
X131325463Y-109747162D01*
X131264956Y-109893239D01*
X131264955Y-109893241D01*
X131244318Y-110050000D01*
X126073814Y-110050000D01*
X126211210Y-109996772D01*
X126396432Y-109882088D01*
X126557427Y-109735322D01*
X126688712Y-109561472D01*
X126785817Y-109366459D01*
X126845435Y-109156923D01*
X126865536Y-108940000D01*
X126852563Y-108799998D01*
X132944318Y-108799998D01*
X132944318Y-108800001D01*
X132964955Y-108956760D01*
X132964956Y-108956762D01*
X133000775Y-109043238D01*
X133025464Y-109102841D01*
X133121718Y-109228282D01*
X133247159Y-109324536D01*
X133393238Y-109385044D01*
X133415777Y-109388011D01*
X133479673Y-109416277D01*
X133518145Y-109474601D01*
X133518977Y-109544466D01*
X133481905Y-109603690D01*
X133454040Y-109621132D01*
X133454196Y-109621401D01*
X133447163Y-109625460D01*
X133321718Y-109721718D01*
X133225463Y-109847160D01*
X133164956Y-109993237D01*
X133164955Y-109993239D01*
X133144318Y-110149998D01*
X133144318Y-110150001D01*
X133164955Y-110306760D01*
X133164956Y-110306762D01*
X133201395Y-110394733D01*
X133208864Y-110464203D01*
X133177589Y-110526682D01*
X133162321Y-110540561D01*
X133121721Y-110571714D01*
X133025463Y-110697160D01*
X132964956Y-110843237D01*
X132964955Y-110843239D01*
X132944318Y-110999998D01*
X132944318Y-111000001D01*
X132964955Y-111156760D01*
X132964956Y-111156762D01*
X133021933Y-111294318D01*
X133025464Y-111302841D01*
X133121718Y-111428282D01*
X133247159Y-111524536D01*
X133393238Y-111585044D01*
X133471619Y-111595363D01*
X133549999Y-111605682D01*
X133550000Y-111605682D01*
X133550001Y-111605682D01*
X133614739Y-111597159D01*
X133706762Y-111585044D01*
X133852841Y-111524536D01*
X133978282Y-111428282D01*
X134074536Y-111302841D01*
X134135044Y-111156762D01*
X134155682Y-111000000D01*
X134148040Y-110941956D01*
X134135044Y-110843239D01*
X134135044Y-110843238D01*
X134098603Y-110755263D01*
X134091135Y-110685797D01*
X134122410Y-110623318D01*
X134137681Y-110609436D01*
X134178277Y-110578286D01*
X134178277Y-110578285D01*
X134178282Y-110578282D01*
X134274536Y-110452841D01*
X134335044Y-110306762D01*
X134352258Y-110176011D01*
X134355682Y-110150001D01*
X134355682Y-110149998D01*
X134335044Y-109993239D01*
X134335044Y-109993238D01*
X134327489Y-109974998D01*
X147319318Y-109974998D01*
X147319318Y-109975001D01*
X147339955Y-110131760D01*
X147339956Y-110131762D01*
X147379935Y-110228281D01*
X147400464Y-110277841D01*
X147496718Y-110403282D01*
X147622159Y-110499536D01*
X147768238Y-110560044D01*
X147866524Y-110572983D01*
X147930420Y-110601249D01*
X147968891Y-110659573D01*
X147969723Y-110729438D01*
X147964989Y-110743113D01*
X147964955Y-110743239D01*
X147944318Y-110899998D01*
X147944318Y-110900001D01*
X147964955Y-111056760D01*
X147964956Y-111056762D01*
X148006376Y-111156760D01*
X148025464Y-111202841D01*
X148121718Y-111328282D01*
X148247159Y-111424536D01*
X148393238Y-111485044D01*
X148455478Y-111493238D01*
X148549999Y-111505682D01*
X148550000Y-111505682D01*
X148664458Y-111490613D01*
X148733491Y-111501378D01*
X148785747Y-111547758D01*
X148803581Y-111597365D01*
X148814956Y-111683761D01*
X148814956Y-111683762D01*
X148865903Y-111806760D01*
X148875464Y-111829841D01*
X148971718Y-111955282D01*
X149097159Y-112051536D01*
X149243238Y-112112044D01*
X149321619Y-112122363D01*
X149399999Y-112132682D01*
X149400000Y-112132682D01*
X149400001Y-112132682D01*
X149454834Y-112125463D01*
X149556762Y-112112044D01*
X149702841Y-112051536D01*
X149704845Y-112049998D01*
X155794318Y-112049998D01*
X155794318Y-112050001D01*
X155814955Y-112206760D01*
X155814956Y-112206762D01*
X155843354Y-112275322D01*
X155875464Y-112352841D01*
X155971718Y-112478282D01*
X156097159Y-112574536D01*
X156243238Y-112635044D01*
X156288608Y-112641017D01*
X156399999Y-112655682D01*
X156400000Y-112655682D01*
X156400001Y-112655682D01*
X156452254Y-112648802D01*
X156556762Y-112635044D01*
X156702841Y-112574536D01*
X156828282Y-112478282D01*
X156924536Y-112352841D01*
X156985044Y-112206762D01*
X156999473Y-112097159D01*
X157005682Y-112050001D01*
X157005682Y-112049998D01*
X156991923Y-111945492D01*
X156985044Y-111893238D01*
X156924536Y-111747159D01*
X156849982Y-111649998D01*
X160444318Y-111649998D01*
X160444318Y-111650001D01*
X160464955Y-111806760D01*
X160464956Y-111806762D01*
X160503576Y-111900000D01*
X160525464Y-111952841D01*
X160621718Y-112078282D01*
X160747159Y-112174536D01*
X160893238Y-112235044D01*
X160955478Y-112243238D01*
X161049999Y-112255682D01*
X161050000Y-112255682D01*
X161050001Y-112255682D01*
X161144514Y-112243239D01*
X161206762Y-112235044D01*
X161352841Y-112174536D01*
X161478282Y-112078282D01*
X161574536Y-111952841D01*
X161596424Y-111899998D01*
X167194318Y-111899998D01*
X167194318Y-111900001D01*
X167214955Y-112056760D01*
X167214956Y-112056762D01*
X167233475Y-112101472D01*
X167275464Y-112202841D01*
X167371718Y-112328282D01*
X167497159Y-112424536D01*
X167643238Y-112485044D01*
X167705478Y-112493238D01*
X167799999Y-112505682D01*
X167800000Y-112505682D01*
X167800001Y-112505682D01*
X167894514Y-112493239D01*
X167956762Y-112485044D01*
X168102841Y-112424536D01*
X168228282Y-112328282D01*
X168324536Y-112202841D01*
X168385044Y-112056762D01*
X168405682Y-111900000D01*
X168396445Y-111829841D01*
X168385044Y-111743239D01*
X168385044Y-111743238D01*
X168324536Y-111597159D01*
X168228282Y-111471718D01*
X168102841Y-111375464D01*
X168090224Y-111370238D01*
X167956762Y-111314956D01*
X167956760Y-111314955D01*
X167800001Y-111294318D01*
X167799999Y-111294318D01*
X167643239Y-111314955D01*
X167643237Y-111314956D01*
X167497160Y-111375463D01*
X167371718Y-111471718D01*
X167275463Y-111597160D01*
X167214956Y-111743237D01*
X167214955Y-111743239D01*
X167194318Y-111899998D01*
X161596424Y-111899998D01*
X161635044Y-111806762D01*
X161655682Y-111650000D01*
X161649847Y-111605682D01*
X161635044Y-111493239D01*
X161635044Y-111493238D01*
X161574536Y-111347159D01*
X161478282Y-111221718D01*
X161352841Y-111125464D01*
X161206762Y-111064956D01*
X161206760Y-111064955D01*
X161050001Y-111044318D01*
X161049999Y-111044318D01*
X160893239Y-111064955D01*
X160893237Y-111064956D01*
X160747160Y-111125463D01*
X160621718Y-111221718D01*
X160525463Y-111347160D01*
X160464956Y-111493237D01*
X160464955Y-111493239D01*
X160444318Y-111649998D01*
X156849982Y-111649998D01*
X156828282Y-111621718D01*
X156702841Y-111525464D01*
X156644692Y-111501378D01*
X156556762Y-111464956D01*
X156556760Y-111464955D01*
X156400001Y-111444318D01*
X156399999Y-111444318D01*
X156243239Y-111464955D01*
X156243237Y-111464956D01*
X156097160Y-111525463D01*
X155971718Y-111621718D01*
X155875463Y-111747160D01*
X155814956Y-111893237D01*
X155814955Y-111893239D01*
X155794318Y-112049998D01*
X149704845Y-112049998D01*
X149828282Y-111955282D01*
X149924536Y-111829841D01*
X149985044Y-111683762D01*
X150005682Y-111527000D01*
X150002875Y-111505682D01*
X149985044Y-111370239D01*
X149985044Y-111370238D01*
X149924536Y-111224159D01*
X149828282Y-111098718D01*
X149702841Y-111002464D01*
X149696892Y-111000000D01*
X149556762Y-110941956D01*
X149556760Y-110941955D01*
X149400001Y-110921318D01*
X149399999Y-110921318D01*
X149285542Y-110936386D01*
X149216506Y-110925620D01*
X149164251Y-110879240D01*
X149146418Y-110829632D01*
X149136682Y-110755682D01*
X149135044Y-110743238D01*
X149074536Y-110597159D01*
X148978282Y-110471718D01*
X148852841Y-110375464D01*
X148706762Y-110314956D01*
X148675817Y-110310882D01*
X148608475Y-110302016D01*
X148544579Y-110273749D01*
X148506108Y-110215425D01*
X148505277Y-110145560D01*
X148510010Y-110131887D01*
X148510042Y-110131765D01*
X148510044Y-110131762D01*
X148530682Y-109975000D01*
X148510044Y-109818238D01*
X148449536Y-109672159D01*
X148394165Y-109599998D01*
X150144318Y-109599998D01*
X150144318Y-109600001D01*
X150164955Y-109756760D01*
X150164956Y-109756762D01*
X150221487Y-109893241D01*
X150225464Y-109902841D01*
X150321718Y-110028282D01*
X150447159Y-110124536D01*
X150593238Y-110185044D01*
X150671619Y-110195363D01*
X150749999Y-110205682D01*
X150750000Y-110205682D01*
X150750001Y-110205682D01*
X150802254Y-110198802D01*
X150906762Y-110185044D01*
X150991370Y-110149998D01*
X152344318Y-110149998D01*
X152344318Y-110150001D01*
X152364955Y-110306760D01*
X152364956Y-110306762D01*
X152404935Y-110403281D01*
X152425464Y-110452841D01*
X152521718Y-110578282D01*
X152647159Y-110674536D01*
X152793238Y-110735044D01*
X152855478Y-110743238D01*
X152949999Y-110755682D01*
X152950000Y-110755682D01*
X152950001Y-110755682D01*
X153044514Y-110743239D01*
X153106762Y-110735044D01*
X153252841Y-110674536D01*
X153253304Y-110674180D01*
X153253768Y-110674001D01*
X153259881Y-110670472D01*
X153260430Y-110671424D01*
X153318469Y-110648980D01*
X153386916Y-110663012D01*
X153436910Y-110711820D01*
X153451738Y-110756363D01*
X153464956Y-110856761D01*
X153464956Y-110856762D01*
X153524287Y-111000001D01*
X153525464Y-111002841D01*
X153621718Y-111128282D01*
X153747159Y-111224536D01*
X153893238Y-111285044D01*
X153963681Y-111294318D01*
X154049999Y-111305682D01*
X154050000Y-111305682D01*
X154050001Y-111305682D01*
X154102254Y-111298802D01*
X154206762Y-111285044D01*
X154352841Y-111224536D01*
X154478282Y-111128282D01*
X154574536Y-111002841D01*
X154635044Y-110856762D01*
X154655682Y-110700000D01*
X154650812Y-110663012D01*
X154637793Y-110564117D01*
X154635044Y-110543238D01*
X154574536Y-110397159D01*
X154478282Y-110271718D01*
X154352841Y-110175464D01*
X154339891Y-110170100D01*
X154206762Y-110114956D01*
X154206760Y-110114955D01*
X154050001Y-110094318D01*
X154049999Y-110094318D01*
X153893239Y-110114955D01*
X153893237Y-110114956D01*
X153747156Y-110175465D01*
X153747153Y-110175467D01*
X153746680Y-110175830D01*
X153746209Y-110176011D01*
X153740119Y-110179528D01*
X153739570Y-110178578D01*
X153681510Y-110201021D01*
X153613066Y-110186978D01*
X153563079Y-110138161D01*
X153548261Y-110093635D01*
X153545869Y-110075469D01*
X153535044Y-109993238D01*
X153474536Y-109847159D01*
X153438348Y-109799998D01*
X158944318Y-109799998D01*
X158944318Y-109800001D01*
X158964955Y-109956760D01*
X158964956Y-109956762D01*
X159021933Y-110094318D01*
X159025464Y-110102841D01*
X159121718Y-110228282D01*
X159247159Y-110324536D01*
X159393238Y-110385044D01*
X159466834Y-110394733D01*
X159549999Y-110405682D01*
X159550000Y-110405682D01*
X159550001Y-110405682D01*
X159633166Y-110394733D01*
X159706762Y-110385044D01*
X159852841Y-110324536D01*
X159978282Y-110228282D01*
X160074536Y-110102841D01*
X160135044Y-109956762D01*
X160155682Y-109800000D01*
X160149989Y-109756760D01*
X160138852Y-109672160D01*
X160135044Y-109643238D01*
X160074536Y-109497159D01*
X159978282Y-109371718D01*
X159852841Y-109275464D01*
X159706762Y-109214956D01*
X159706760Y-109214955D01*
X159550001Y-109194318D01*
X159549999Y-109194318D01*
X159393239Y-109214955D01*
X159393237Y-109214956D01*
X159247160Y-109275463D01*
X159121718Y-109371718D01*
X159025463Y-109497160D01*
X158964956Y-109643237D01*
X158964955Y-109643239D01*
X158944318Y-109799998D01*
X153438348Y-109799998D01*
X153378282Y-109721718D01*
X153252841Y-109625464D01*
X153252831Y-109625460D01*
X153106762Y-109564956D01*
X153106760Y-109564955D01*
X152950001Y-109544318D01*
X152949999Y-109544318D01*
X152793239Y-109564955D01*
X152793237Y-109564956D01*
X152647160Y-109625463D01*
X152521718Y-109721718D01*
X152425463Y-109847160D01*
X152364956Y-109993237D01*
X152364955Y-109993239D01*
X152344318Y-110149998D01*
X150991370Y-110149998D01*
X151052841Y-110124536D01*
X151178282Y-110028282D01*
X151274536Y-109902841D01*
X151335044Y-109756762D01*
X151355682Y-109600000D01*
X151351068Y-109564956D01*
X151341923Y-109495492D01*
X151335044Y-109443238D01*
X151274536Y-109297159D01*
X151178282Y-109171718D01*
X151052841Y-109075464D01*
X150906762Y-109014956D01*
X150906760Y-109014955D01*
X150750001Y-108994318D01*
X150749999Y-108994318D01*
X150593239Y-109014955D01*
X150593237Y-109014956D01*
X150447160Y-109075463D01*
X150321718Y-109171718D01*
X150225463Y-109297160D01*
X150164956Y-109443237D01*
X150164955Y-109443239D01*
X150144318Y-109599998D01*
X148394165Y-109599998D01*
X148353282Y-109546718D01*
X148227841Y-109450464D01*
X148210398Y-109443239D01*
X148081762Y-109389956D01*
X148081760Y-109389955D01*
X147925001Y-109369318D01*
X147924999Y-109369318D01*
X147768239Y-109389955D01*
X147768237Y-109389956D01*
X147622160Y-109450463D01*
X147496718Y-109546718D01*
X147400463Y-109672160D01*
X147339956Y-109818237D01*
X147339955Y-109818239D01*
X147319318Y-109974998D01*
X134327489Y-109974998D01*
X134274536Y-109847159D01*
X134178282Y-109721718D01*
X134052841Y-109625464D01*
X134052831Y-109625460D01*
X133906762Y-109564956D01*
X133884219Y-109561988D01*
X133820323Y-109533720D01*
X133781853Y-109475395D01*
X133781023Y-109405530D01*
X133818097Y-109346307D01*
X133845959Y-109328868D01*
X133845804Y-109328599D01*
X133852836Y-109324539D01*
X133852838Y-109324536D01*
X133852841Y-109324536D01*
X133978282Y-109228282D01*
X133999985Y-109199998D01*
X135694318Y-109199998D01*
X135694318Y-109200001D01*
X135714955Y-109356760D01*
X135714956Y-109356762D01*
X135763766Y-109474601D01*
X135775464Y-109502841D01*
X135871718Y-109628282D01*
X135997159Y-109724536D01*
X136143238Y-109785044D01*
X136221619Y-109795363D01*
X136299999Y-109805682D01*
X136300000Y-109805682D01*
X136300001Y-109805682D01*
X136352254Y-109798802D01*
X136456762Y-109785044D01*
X136602841Y-109724536D01*
X136728282Y-109628282D01*
X136824536Y-109502841D01*
X136885044Y-109356762D01*
X136905682Y-109200000D01*
X136885044Y-109043238D01*
X136824536Y-108897159D01*
X136728282Y-108771718D01*
X136634813Y-108699997D01*
X148194318Y-108699997D01*
X148194318Y-108700000D01*
X148214955Y-108856759D01*
X148214956Y-108856761D01*
X148275464Y-109002840D01*
X148371718Y-109128281D01*
X148497159Y-109224535D01*
X148643238Y-109285043D01*
X148721619Y-109295362D01*
X148799999Y-109305681D01*
X148800000Y-109305681D01*
X148800001Y-109305681D01*
X148864731Y-109297159D01*
X148956762Y-109285043D01*
X149102841Y-109224535D01*
X149228282Y-109128281D01*
X149324536Y-109002840D01*
X149385044Y-108856761D01*
X149405682Y-108699999D01*
X149398209Y-108643239D01*
X149385044Y-108543238D01*
X149385044Y-108543237D01*
X149324536Y-108397158D01*
X149307532Y-108374998D01*
X151394318Y-108374998D01*
X151394318Y-108375001D01*
X151414955Y-108531760D01*
X151414956Y-108531762D01*
X151461130Y-108643237D01*
X151475464Y-108677841D01*
X151571718Y-108803282D01*
X151697159Y-108899536D01*
X151843238Y-108960044D01*
X151921619Y-108970363D01*
X151999999Y-108980682D01*
X152000000Y-108980682D01*
X152000001Y-108980682D01*
X152052254Y-108973802D01*
X152156762Y-108960044D01*
X152302841Y-108899536D01*
X152428282Y-108803282D01*
X152524536Y-108677841D01*
X152585044Y-108531762D01*
X152605682Y-108375000D01*
X152585044Y-108218238D01*
X152524536Y-108072159D01*
X152504998Y-108046696D01*
X153394318Y-108046696D01*
X153394318Y-108046699D01*
X153414955Y-108203458D01*
X153414956Y-108203460D01*
X153475464Y-108349539D01*
X153571718Y-108474980D01*
X153697159Y-108571234D01*
X153843238Y-108631742D01*
X153921619Y-108642061D01*
X153999999Y-108652380D01*
X154000000Y-108652380D01*
X154000001Y-108652380D01*
X154069433Y-108643239D01*
X154156762Y-108631742D01*
X154302841Y-108571234D01*
X154428282Y-108474980D01*
X154524536Y-108349539D01*
X154585044Y-108203460D01*
X154605682Y-108046698D01*
X154603257Y-108028281D01*
X154585044Y-107889937D01*
X154585044Y-107889936D01*
X154524536Y-107743857D01*
X154428282Y-107618416D01*
X154302841Y-107522162D01*
X154156762Y-107461654D01*
X154156760Y-107461653D01*
X154000001Y-107441016D01*
X153999999Y-107441016D01*
X153843239Y-107461653D01*
X153843237Y-107461654D01*
X153697160Y-107522161D01*
X153571718Y-107618416D01*
X153475463Y-107743858D01*
X153414956Y-107889935D01*
X153414955Y-107889937D01*
X153394318Y-108046696D01*
X152504998Y-108046696D01*
X152428282Y-107946718D01*
X152302841Y-107850464D01*
X152156762Y-107789956D01*
X152156760Y-107789955D01*
X152000001Y-107769318D01*
X151999999Y-107769318D01*
X151843239Y-107789955D01*
X151843237Y-107789956D01*
X151697160Y-107850463D01*
X151571718Y-107946718D01*
X151475463Y-108072160D01*
X151414956Y-108218237D01*
X151414955Y-108218239D01*
X151394318Y-108374998D01*
X149307532Y-108374998D01*
X149228282Y-108271717D01*
X149102841Y-108175463D01*
X148956762Y-108114955D01*
X148956760Y-108114954D01*
X148800001Y-108094317D01*
X148799999Y-108094317D01*
X148643239Y-108114954D01*
X148643237Y-108114955D01*
X148497160Y-108175462D01*
X148371718Y-108271717D01*
X148275463Y-108397159D01*
X148214956Y-108543236D01*
X148214955Y-108543238D01*
X148194318Y-108699997D01*
X136634813Y-108699997D01*
X136602841Y-108675464D01*
X136547111Y-108652380D01*
X136456762Y-108614956D01*
X136456760Y-108614955D01*
X136300001Y-108594318D01*
X136299999Y-108594318D01*
X136143239Y-108614955D01*
X136143237Y-108614956D01*
X135997160Y-108675463D01*
X135871718Y-108771718D01*
X135775463Y-108897160D01*
X135714956Y-109043237D01*
X135714955Y-109043239D01*
X135694318Y-109199998D01*
X133999985Y-109199998D01*
X134074536Y-109102841D01*
X134135044Y-108956762D01*
X134155682Y-108800000D01*
X134145555Y-108723081D01*
X134139286Y-108675463D01*
X134135044Y-108643238D01*
X134074536Y-108497159D01*
X133978282Y-108371718D01*
X133852841Y-108275464D01*
X133706762Y-108214956D01*
X133706760Y-108214955D01*
X133550001Y-108194318D01*
X133549999Y-108194318D01*
X133393239Y-108214955D01*
X133393237Y-108214956D01*
X133247160Y-108275463D01*
X133121718Y-108371718D01*
X133025463Y-108497160D01*
X132964956Y-108643237D01*
X132964955Y-108643239D01*
X132944318Y-108799998D01*
X126852563Y-108799998D01*
X126845435Y-108723077D01*
X126785817Y-108513541D01*
X126688712Y-108318528D01*
X126557427Y-108144678D01*
X126502183Y-108094317D01*
X126396433Y-107997913D01*
X126396423Y-107997906D01*
X126211213Y-107883229D01*
X126211207Y-107883226D01*
X126126113Y-107850260D01*
X126008069Y-107804530D01*
X125940440Y-107791888D01*
X125878161Y-107760221D01*
X125842888Y-107699909D01*
X125845822Y-107630100D01*
X125867005Y-107599998D01*
X134094318Y-107599998D01*
X134094318Y-107600001D01*
X134114955Y-107756760D01*
X134114956Y-107756762D01*
X134170118Y-107889936D01*
X134175464Y-107902841D01*
X134271718Y-108028282D01*
X134397159Y-108124536D01*
X134543238Y-108185044D01*
X134613681Y-108194318D01*
X134699999Y-108205682D01*
X134700000Y-108205682D01*
X134700001Y-108205682D01*
X134752254Y-108198802D01*
X134856762Y-108185044D01*
X135002841Y-108124536D01*
X135128282Y-108028282D01*
X135224536Y-107902841D01*
X135285044Y-107756762D01*
X135305682Y-107600000D01*
X135295434Y-107522162D01*
X135286826Y-107456772D01*
X135285044Y-107443238D01*
X135224536Y-107297159D01*
X135128282Y-107171718D01*
X135002841Y-107075464D01*
X134856762Y-107014956D01*
X134856760Y-107014955D01*
X134700001Y-106994318D01*
X134699999Y-106994318D01*
X134543239Y-107014955D01*
X134543237Y-107014956D01*
X134397160Y-107075463D01*
X134271718Y-107171718D01*
X134175463Y-107297160D01*
X134114956Y-107443237D01*
X134114955Y-107443239D01*
X134094318Y-107599998D01*
X125867005Y-107599998D01*
X125886031Y-107572960D01*
X125940439Y-107548112D01*
X126008069Y-107535470D01*
X126211210Y-107456772D01*
X126396432Y-107342088D01*
X126557427Y-107195322D01*
X126688712Y-107021472D01*
X126785817Y-106826459D01*
X126845435Y-106616923D01*
X126865536Y-106400000D01*
X126863736Y-106380580D01*
X126845435Y-106183081D01*
X126845435Y-106183077D01*
X126785817Y-105973541D01*
X126699403Y-105799998D01*
X144044318Y-105799998D01*
X144044318Y-105800001D01*
X144064955Y-105956760D01*
X144064956Y-105956762D01*
X144125464Y-106102841D01*
X144221718Y-106228282D01*
X144347159Y-106324536D01*
X144394285Y-106344056D01*
X144448689Y-106387896D01*
X144470754Y-106454190D01*
X144453475Y-106521890D01*
X144445209Y-106534103D01*
X144366788Y-106636302D01*
X144306280Y-106782382D01*
X144306279Y-106782384D01*
X144285642Y-106939143D01*
X144285642Y-106939146D01*
X144306279Y-107095905D01*
X144306280Y-107095907D01*
X144347459Y-107195323D01*
X144366788Y-107241986D01*
X144463042Y-107367427D01*
X144588483Y-107463681D01*
X144734562Y-107524189D01*
X144812943Y-107534508D01*
X144891323Y-107544827D01*
X144891324Y-107544827D01*
X144891325Y-107544827D01*
X144943578Y-107537947D01*
X145048086Y-107524189D01*
X145194165Y-107463681D01*
X145319606Y-107367427D01*
X145415860Y-107241986D01*
X145476368Y-107095907D01*
X145497006Y-106939145D01*
X145476368Y-106782383D01*
X145415860Y-106636304D01*
X145322160Y-106514191D01*
X145296967Y-106449024D01*
X145307022Y-106399999D01*
X173704464Y-106399999D01*
X173704464Y-106400000D01*
X173724564Y-106616918D01*
X173724564Y-106616920D01*
X173724565Y-106616923D01*
X173784183Y-106826459D01*
X173881288Y-107021472D01*
X174012573Y-107195322D01*
X174173568Y-107342088D01*
X174173575Y-107342092D01*
X174173576Y-107342093D01*
X174358786Y-107456770D01*
X174358792Y-107456773D01*
X174371389Y-107461653D01*
X174561931Y-107535470D01*
X174629558Y-107548111D01*
X174691838Y-107579779D01*
X174727111Y-107640092D01*
X174724177Y-107709900D01*
X174683968Y-107767040D01*
X174629558Y-107791888D01*
X174561931Y-107804530D01*
X174513130Y-107823435D01*
X174358792Y-107883226D01*
X174358786Y-107883229D01*
X174173576Y-107997906D01*
X174173566Y-107997913D01*
X174012574Y-108144676D01*
X173881288Y-108318527D01*
X173784184Y-108513537D01*
X173724564Y-108723081D01*
X173704464Y-108939999D01*
X173704464Y-108940000D01*
X173724564Y-109156918D01*
X173724564Y-109156920D01*
X173724565Y-109156923D01*
X173781424Y-109356762D01*
X173784184Y-109366462D01*
X173838031Y-109474601D01*
X173881288Y-109561472D01*
X174012573Y-109735322D01*
X174173568Y-109882088D01*
X174173575Y-109882092D01*
X174173576Y-109882093D01*
X174358786Y-109996770D01*
X174358792Y-109996773D01*
X174381664Y-110005633D01*
X174561931Y-110075470D01*
X174629558Y-110088111D01*
X174691838Y-110119779D01*
X174727111Y-110180092D01*
X174724177Y-110249900D01*
X174683968Y-110307040D01*
X174629558Y-110331888D01*
X174561931Y-110344530D01*
X174540473Y-110352843D01*
X174358792Y-110423226D01*
X174358786Y-110423229D01*
X174173576Y-110537906D01*
X174173566Y-110537913D01*
X174012574Y-110684676D01*
X173881288Y-110858527D01*
X173784184Y-111053537D01*
X173724564Y-111263081D01*
X173704464Y-111479999D01*
X173704464Y-111480000D01*
X173724564Y-111696918D01*
X173724564Y-111696920D01*
X173724565Y-111696923D01*
X173775364Y-111875463D01*
X173784184Y-111906462D01*
X173808493Y-111955281D01*
X173881288Y-112101472D01*
X174012573Y-112275322D01*
X174173568Y-112422088D01*
X174173575Y-112422092D01*
X174173576Y-112422093D01*
X174358786Y-112536770D01*
X174358792Y-112536773D01*
X174375483Y-112543239D01*
X174561931Y-112615470D01*
X174629558Y-112628111D01*
X174691838Y-112659779D01*
X174727111Y-112720092D01*
X174724177Y-112789900D01*
X174683968Y-112847040D01*
X174629558Y-112871888D01*
X174561931Y-112884530D01*
X174521921Y-112900030D01*
X174358792Y-112963226D01*
X174358786Y-112963229D01*
X174173576Y-113077906D01*
X174173566Y-113077913D01*
X174012574Y-113224676D01*
X173881288Y-113398527D01*
X173784184Y-113593537D01*
X173767185Y-113653282D01*
X173727365Y-113793238D01*
X173724564Y-113803081D01*
X173704464Y-114019999D01*
X173704464Y-114020000D01*
X173724564Y-114236918D01*
X173724564Y-114236920D01*
X173724565Y-114236923D01*
X173783088Y-114442610D01*
X173784184Y-114446462D01*
X173853190Y-114585043D01*
X173881288Y-114641472D01*
X174012573Y-114815322D01*
X174173568Y-114962088D01*
X174173575Y-114962092D01*
X174173576Y-114962093D01*
X174358786Y-115076770D01*
X174358792Y-115076773D01*
X174381664Y-115085633D01*
X174561931Y-115155470D01*
X174629558Y-115168111D01*
X174691838Y-115199779D01*
X174727111Y-115260092D01*
X174724177Y-115329900D01*
X174683968Y-115387040D01*
X174629558Y-115411888D01*
X174561931Y-115424530D01*
X174529363Y-115437147D01*
X174358792Y-115503226D01*
X174358786Y-115503229D01*
X174173576Y-115617906D01*
X174173566Y-115617913D01*
X174012574Y-115764676D01*
X173881288Y-115938527D01*
X173784184Y-116133537D01*
X173724564Y-116343081D01*
X173704464Y-116559999D01*
X173704464Y-116560000D01*
X173724564Y-116776918D01*
X173724564Y-116776920D01*
X173724565Y-116776923D01*
X173769554Y-116935043D01*
X173784184Y-116986462D01*
X173826857Y-117072160D01*
X173881288Y-117181472D01*
X174012573Y-117355322D01*
X174173568Y-117502088D01*
X174173575Y-117502092D01*
X174173576Y-117502093D01*
X174358786Y-117616770D01*
X174358792Y-117616773D01*
X174381664Y-117625633D01*
X174561931Y-117695470D01*
X174629558Y-117708111D01*
X174691838Y-117739779D01*
X174727111Y-117800092D01*
X174724177Y-117869900D01*
X174683968Y-117927040D01*
X174629558Y-117951888D01*
X174561931Y-117964530D01*
X174520238Y-117980682D01*
X174358792Y-118043226D01*
X174358786Y-118043229D01*
X174173576Y-118157906D01*
X174173566Y-118157913D01*
X174012574Y-118304676D01*
X173881288Y-118478527D01*
X173784184Y-118673537D01*
X173784183Y-118673541D01*
X173729026Y-118867400D01*
X173724564Y-118883081D01*
X173704464Y-119099999D01*
X173704464Y-119100000D01*
X173724564Y-119316918D01*
X173724564Y-119316920D01*
X173724565Y-119316923D01*
X173745908Y-119391936D01*
X173784184Y-119526462D01*
X173828249Y-119614955D01*
X173881288Y-119721472D01*
X174010378Y-119892416D01*
X174012574Y-119895323D01*
X174045636Y-119925463D01*
X174173568Y-120042088D01*
X174173575Y-120042092D01*
X174173576Y-120042093D01*
X174358786Y-120156770D01*
X174358792Y-120156773D01*
X174381664Y-120165633D01*
X174561931Y-120235470D01*
X174629558Y-120248111D01*
X174691838Y-120279779D01*
X174727111Y-120340092D01*
X174724177Y-120409900D01*
X174683968Y-120467040D01*
X174629558Y-120491888D01*
X174561931Y-120504530D01*
X174513130Y-120523435D01*
X174358792Y-120583226D01*
X174358786Y-120583229D01*
X174173576Y-120697906D01*
X174173566Y-120697913D01*
X174012574Y-120844676D01*
X173881288Y-121018527D01*
X173784184Y-121213537D01*
X173724564Y-121423081D01*
X173704464Y-121639999D01*
X173704464Y-121640000D01*
X173724564Y-121856918D01*
X173784184Y-122066462D01*
X173864761Y-122228281D01*
X173881288Y-122261472D01*
X174012573Y-122435322D01*
X174173568Y-122582088D01*
X174173575Y-122582092D01*
X174173576Y-122582093D01*
X174358786Y-122696770D01*
X174358792Y-122696773D01*
X174381664Y-122705633D01*
X174561931Y-122775470D01*
X174629558Y-122788111D01*
X174691838Y-122819779D01*
X174727111Y-122880092D01*
X174724177Y-122949900D01*
X174683968Y-123007040D01*
X174629558Y-123031888D01*
X174561931Y-123044530D01*
X174513130Y-123063435D01*
X174358792Y-123123226D01*
X174358786Y-123123229D01*
X174173576Y-123237906D01*
X174173566Y-123237913D01*
X174012574Y-123384676D01*
X173881288Y-123558527D01*
X173784184Y-123753537D01*
X173724564Y-123963081D01*
X173704464Y-124179999D01*
X173704464Y-124180000D01*
X173724564Y-124396918D01*
X173724564Y-124396920D01*
X173724565Y-124396923D01*
X173784183Y-124606459D01*
X173784184Y-124606462D01*
X173793646Y-124625464D01*
X173881288Y-124801472D01*
X174012573Y-124975322D01*
X174173568Y-125122088D01*
X174173575Y-125122092D01*
X174173576Y-125122093D01*
X174358786Y-125236770D01*
X174358792Y-125236773D01*
X174381664Y-125245633D01*
X174561931Y-125315470D01*
X174776074Y-125355500D01*
X174776076Y-125355500D01*
X174993924Y-125355500D01*
X174993926Y-125355500D01*
X175208069Y-125315470D01*
X175411210Y-125236772D01*
X175596432Y-125122088D01*
X175757427Y-124975322D01*
X175888712Y-124801472D01*
X175985817Y-124606459D01*
X176045435Y-124396923D01*
X176065536Y-124180000D01*
X176045435Y-123963077D01*
X175985817Y-123753541D01*
X175888712Y-123558528D01*
X175757427Y-123384678D01*
X175722503Y-123352841D01*
X175596433Y-123237913D01*
X175596423Y-123237906D01*
X175411213Y-123123229D01*
X175411207Y-123123226D01*
X175326113Y-123090260D01*
X175208069Y-123044530D01*
X175140440Y-123031888D01*
X175078161Y-123000221D01*
X175042888Y-122939909D01*
X175045822Y-122870100D01*
X175086031Y-122812960D01*
X175140439Y-122788112D01*
X175208069Y-122775470D01*
X175411210Y-122696772D01*
X175596432Y-122582088D01*
X175757427Y-122435322D01*
X175888712Y-122261472D01*
X175985817Y-122066459D01*
X176045435Y-121856923D01*
X176065536Y-121640000D01*
X176045435Y-121423077D01*
X175985817Y-121213541D01*
X175888712Y-121018528D01*
X175757427Y-120844678D01*
X175692011Y-120785044D01*
X175596433Y-120697913D01*
X175596423Y-120697906D01*
X175411213Y-120583229D01*
X175411207Y-120583226D01*
X175326113Y-120550260D01*
X175208069Y-120504530D01*
X175140440Y-120491888D01*
X175078161Y-120460221D01*
X175042888Y-120399909D01*
X175045822Y-120330100D01*
X175086031Y-120272960D01*
X175140439Y-120248112D01*
X175208069Y-120235470D01*
X175411210Y-120156772D01*
X175596432Y-120042088D01*
X175757427Y-119895322D01*
X175888712Y-119721472D01*
X175985817Y-119526459D01*
X176045435Y-119316923D01*
X176065536Y-119100000D01*
X176045435Y-118883077D01*
X175985817Y-118673541D01*
X175888712Y-118478528D01*
X175757427Y-118304678D01*
X175596432Y-118157912D01*
X175596428Y-118157909D01*
X175596423Y-118157906D01*
X175411213Y-118043229D01*
X175411207Y-118043226D01*
X175326113Y-118010260D01*
X175208069Y-117964530D01*
X175140440Y-117951888D01*
X175078161Y-117920221D01*
X175042888Y-117859909D01*
X175045822Y-117790100D01*
X175086031Y-117732960D01*
X175140439Y-117708112D01*
X175208069Y-117695470D01*
X175411210Y-117616772D01*
X175596432Y-117502088D01*
X175757427Y-117355322D01*
X175888712Y-117181472D01*
X175985817Y-116986459D01*
X176045435Y-116776923D01*
X176065536Y-116560000D01*
X176045435Y-116343077D01*
X175985817Y-116133541D01*
X175888712Y-115938528D01*
X175757427Y-115764678D01*
X175748741Y-115756760D01*
X175596433Y-115617913D01*
X175596423Y-115617906D01*
X175411213Y-115503229D01*
X175411207Y-115503226D01*
X175326113Y-115470260D01*
X175208069Y-115424530D01*
X175140440Y-115411888D01*
X175078161Y-115380221D01*
X175042888Y-115319909D01*
X175045822Y-115250100D01*
X175086031Y-115192960D01*
X175140439Y-115168112D01*
X175208069Y-115155470D01*
X175411210Y-115076772D01*
X175596432Y-114962088D01*
X175757427Y-114815322D01*
X175888712Y-114641472D01*
X175985817Y-114446459D01*
X176045435Y-114236923D01*
X176065536Y-114020000D01*
X176045435Y-113803077D01*
X175985817Y-113593541D01*
X175888712Y-113398528D01*
X175757427Y-113224678D01*
X175596432Y-113077912D01*
X175596428Y-113077909D01*
X175596423Y-113077906D01*
X175411213Y-112963229D01*
X175411207Y-112963226D01*
X175305202Y-112922160D01*
X175208069Y-112884530D01*
X175140440Y-112871888D01*
X175078161Y-112840221D01*
X175042888Y-112779909D01*
X175045822Y-112710100D01*
X175086031Y-112652960D01*
X175140439Y-112628112D01*
X175208069Y-112615470D01*
X175411210Y-112536772D01*
X175596432Y-112422088D01*
X175757427Y-112275322D01*
X175888712Y-112101472D01*
X175985817Y-111906459D01*
X176045435Y-111696923D01*
X176065536Y-111480000D01*
X176045435Y-111263077D01*
X175985817Y-111053541D01*
X175888712Y-110858528D01*
X175757427Y-110684678D01*
X175733660Y-110663012D01*
X175634903Y-110572983D01*
X175596432Y-110537912D01*
X175596428Y-110537909D01*
X175596423Y-110537906D01*
X175411213Y-110423229D01*
X175411207Y-110423226D01*
X175326113Y-110390260D01*
X175208069Y-110344530D01*
X175140440Y-110331888D01*
X175078161Y-110300221D01*
X175042888Y-110239909D01*
X175045822Y-110170100D01*
X175086031Y-110112960D01*
X175140439Y-110088112D01*
X175208069Y-110075470D01*
X175411210Y-109996772D01*
X175596432Y-109882088D01*
X175757427Y-109735322D01*
X175888712Y-109561472D01*
X175985817Y-109366459D01*
X176045435Y-109156923D01*
X176065536Y-108940000D01*
X176045435Y-108723077D01*
X175985817Y-108513541D01*
X175888712Y-108318528D01*
X175757427Y-108144678D01*
X175702183Y-108094317D01*
X175596433Y-107997913D01*
X175596423Y-107997906D01*
X175411213Y-107883229D01*
X175411207Y-107883226D01*
X175326113Y-107850260D01*
X175208069Y-107804530D01*
X175140440Y-107791888D01*
X175078161Y-107760221D01*
X175042888Y-107699909D01*
X175045822Y-107630100D01*
X175086031Y-107572960D01*
X175140439Y-107548112D01*
X175208069Y-107535470D01*
X175411210Y-107456772D01*
X175596432Y-107342088D01*
X175757427Y-107195322D01*
X175888712Y-107021472D01*
X175985817Y-106826459D01*
X176045435Y-106616923D01*
X176065536Y-106400000D01*
X176063736Y-106380580D01*
X176045435Y-106183081D01*
X176045435Y-106183077D01*
X175985817Y-105973541D01*
X175888712Y-105778528D01*
X175757427Y-105604678D01*
X175735889Y-105585044D01*
X175596433Y-105457913D01*
X175596423Y-105457906D01*
X175411213Y-105343229D01*
X175411207Y-105343226D01*
X175310251Y-105304116D01*
X175208069Y-105264530D01*
X174993926Y-105224500D01*
X174776074Y-105224500D01*
X174561931Y-105264530D01*
X174513130Y-105283435D01*
X174358792Y-105343226D01*
X174358786Y-105343229D01*
X174173576Y-105457906D01*
X174173566Y-105457913D01*
X174012574Y-105604676D01*
X173881288Y-105778527D01*
X173784184Y-105973537D01*
X173724564Y-106183081D01*
X173704464Y-106399999D01*
X145307022Y-106399999D01*
X145311005Y-106380580D01*
X145359819Y-106330590D01*
X145427911Y-106314926D01*
X145436698Y-106315765D01*
X145550000Y-106330682D01*
X145550001Y-106330682D01*
X145602254Y-106323802D01*
X145706762Y-106310044D01*
X145852841Y-106249536D01*
X145978282Y-106153282D01*
X146074536Y-106027841D01*
X146135044Y-105881762D01*
X146155682Y-105725000D01*
X146135044Y-105568238D01*
X146105527Y-105496979D01*
X146098059Y-105427511D01*
X146129334Y-105365032D01*
X146189423Y-105329380D01*
X146259248Y-105331874D01*
X146316641Y-105371722D01*
X146318437Y-105374006D01*
X146321718Y-105378282D01*
X146447159Y-105474536D01*
X146593238Y-105535044D01*
X146671619Y-105545363D01*
X146749999Y-105555682D01*
X146750000Y-105555682D01*
X146750001Y-105555682D01*
X146802254Y-105548802D01*
X146906762Y-105535044D01*
X147052841Y-105474536D01*
X147178282Y-105378282D01*
X147274536Y-105252841D01*
X147335044Y-105106762D01*
X147349100Y-104999998D01*
X154659319Y-104999998D01*
X154659319Y-105000001D01*
X154679956Y-105156760D01*
X154679957Y-105156762D01*
X154721377Y-105256760D01*
X154740465Y-105302841D01*
X154836719Y-105428282D01*
X154962160Y-105524536D01*
X155108239Y-105585044D01*
X155186620Y-105595363D01*
X155265000Y-105605682D01*
X155265001Y-105605682D01*
X155265002Y-105605682D01*
X155317255Y-105598802D01*
X155421763Y-105585044D01*
X155567842Y-105524536D01*
X155693283Y-105428282D01*
X155789537Y-105302841D01*
X155850045Y-105156762D01*
X155857518Y-105099998D01*
X160444318Y-105099998D01*
X160444318Y-105100001D01*
X160464955Y-105256760D01*
X160464956Y-105256762D01*
X160525464Y-105402841D01*
X160621718Y-105528282D01*
X160747159Y-105624536D01*
X160893238Y-105685044D01*
X160971619Y-105695363D01*
X161049999Y-105705682D01*
X161050000Y-105705682D01*
X161050001Y-105705682D01*
X161102254Y-105698802D01*
X161206762Y-105685044D01*
X161352841Y-105624536D01*
X161478282Y-105528282D01*
X161574536Y-105402841D01*
X161635044Y-105256762D01*
X161655682Y-105100000D01*
X161635044Y-104943238D01*
X161574536Y-104797159D01*
X161478282Y-104671718D01*
X161352841Y-104575464D01*
X161343797Y-104571718D01*
X161206762Y-104514956D01*
X161206760Y-104514955D01*
X161050001Y-104494318D01*
X161049999Y-104494318D01*
X160893239Y-104514955D01*
X160893237Y-104514956D01*
X160747160Y-104575463D01*
X160621718Y-104671718D01*
X160525463Y-104797160D01*
X160464956Y-104943237D01*
X160464955Y-104943239D01*
X160444318Y-105099998D01*
X155857518Y-105099998D01*
X155870683Y-105000000D01*
X155864100Y-104950000D01*
X155850045Y-104843239D01*
X155850045Y-104843238D01*
X155789537Y-104697159D01*
X155693283Y-104571718D01*
X155567842Y-104475464D01*
X155421763Y-104414956D01*
X155421761Y-104414955D01*
X155265002Y-104394318D01*
X155265000Y-104394318D01*
X155108240Y-104414955D01*
X155108238Y-104414956D01*
X154962161Y-104475463D01*
X154836719Y-104571718D01*
X154740464Y-104697160D01*
X154679957Y-104843237D01*
X154679956Y-104843239D01*
X154659319Y-104999998D01*
X147349100Y-104999998D01*
X147355682Y-104950000D01*
X147353748Y-104935310D01*
X147364513Y-104866276D01*
X147410893Y-104814020D01*
X147478162Y-104795134D01*
X147492869Y-104796185D01*
X147565001Y-104805682D01*
X147565002Y-104805682D01*
X147629740Y-104797159D01*
X147721763Y-104785044D01*
X147867842Y-104724536D01*
X147993283Y-104628282D01*
X148089537Y-104502841D01*
X148150045Y-104356762D01*
X148170683Y-104200000D01*
X148167772Y-104177892D01*
X148154975Y-104080682D01*
X148150045Y-104043238D01*
X148089537Y-103897159D01*
X147993283Y-103771718D01*
X147867842Y-103675464D01*
X147814464Y-103653354D01*
X155744318Y-103653354D01*
X155744318Y-103653357D01*
X155764955Y-103810116D01*
X155764956Y-103810118D01*
X155825464Y-103956197D01*
X155921718Y-104081638D01*
X156047159Y-104177892D01*
X156193238Y-104238400D01*
X156271619Y-104248719D01*
X156349999Y-104259038D01*
X156350000Y-104259038D01*
X156350001Y-104259038D01*
X156402254Y-104252158D01*
X156506762Y-104238400D01*
X156652841Y-104177892D01*
X156663129Y-104169998D01*
X164624318Y-104169998D01*
X164624318Y-104170001D01*
X164644955Y-104326760D01*
X164644956Y-104326762D01*
X164705464Y-104472841D01*
X164801718Y-104598282D01*
X164927159Y-104694536D01*
X165073238Y-104755044D01*
X165151619Y-104765363D01*
X165229999Y-104775682D01*
X165230000Y-104775682D01*
X165230001Y-104775682D01*
X165282254Y-104768802D01*
X165386762Y-104755044D01*
X165532841Y-104694536D01*
X165658282Y-104598282D01*
X165754536Y-104472841D01*
X165815044Y-104326762D01*
X165831732Y-104200001D01*
X165835682Y-104170001D01*
X165835682Y-104169998D01*
X165818994Y-104043239D01*
X165815044Y-104013238D01*
X165754536Y-103867159D01*
X165658282Y-103741718D01*
X165532841Y-103645464D01*
X165499761Y-103631762D01*
X165386762Y-103584956D01*
X165386760Y-103584955D01*
X165230001Y-103564318D01*
X165229999Y-103564318D01*
X165073239Y-103584955D01*
X165073237Y-103584956D01*
X164927160Y-103645463D01*
X164801718Y-103741718D01*
X164705463Y-103867160D01*
X164644956Y-104013237D01*
X164644955Y-104013239D01*
X164624318Y-104169998D01*
X156663129Y-104169998D01*
X156778282Y-104081638D01*
X156874536Y-103956197D01*
X156935044Y-103810118D01*
X156948802Y-103705610D01*
X156955682Y-103653357D01*
X156955682Y-103653354D01*
X156935044Y-103496595D01*
X156935044Y-103496594D01*
X156926099Y-103474998D01*
X160739318Y-103474998D01*
X160739318Y-103475001D01*
X160759955Y-103631760D01*
X160759956Y-103631762D01*
X160820464Y-103777841D01*
X160916718Y-103903282D01*
X161042159Y-103999536D01*
X161188238Y-104060044D01*
X161266619Y-104070363D01*
X161344999Y-104080682D01*
X161345000Y-104080682D01*
X161345001Y-104080682D01*
X161397254Y-104073802D01*
X161501762Y-104060044D01*
X161647841Y-103999536D01*
X161773282Y-103903282D01*
X161869536Y-103777841D01*
X161930044Y-103631762D01*
X161950682Y-103475000D01*
X161930044Y-103318238D01*
X161869536Y-103172159D01*
X161773282Y-103046718D01*
X161730558Y-103013935D01*
X161689358Y-102957509D01*
X161685203Y-102887762D01*
X161719416Y-102826842D01*
X161758593Y-102801001D01*
X161882841Y-102749536D01*
X162008282Y-102653282D01*
X162104536Y-102527841D01*
X162165044Y-102381762D01*
X162185682Y-102225000D01*
X162165044Y-102068238D01*
X162104536Y-101922159D01*
X162008282Y-101796718D01*
X161882841Y-101700464D01*
X161736762Y-101639956D01*
X161736760Y-101639955D01*
X161580001Y-101619318D01*
X161579999Y-101619318D01*
X161423239Y-101639955D01*
X161423237Y-101639956D01*
X161277160Y-101700463D01*
X161151718Y-101796718D01*
X161055463Y-101922160D01*
X160994956Y-102068237D01*
X160994955Y-102068239D01*
X160974318Y-102224998D01*
X160974318Y-102225001D01*
X160994955Y-102381760D01*
X160994956Y-102381762D01*
X161041130Y-102493237D01*
X161055464Y-102527841D01*
X161151718Y-102653282D01*
X161194440Y-102686064D01*
X161235641Y-102742490D01*
X161239796Y-102812236D01*
X161205584Y-102873156D01*
X161166405Y-102898999D01*
X161042160Y-102950463D01*
X160916718Y-103046718D01*
X160820463Y-103172160D01*
X160759956Y-103318237D01*
X160759955Y-103318239D01*
X160739318Y-103474998D01*
X156926099Y-103474998D01*
X156874536Y-103350515D01*
X156778282Y-103225074D01*
X156652841Y-103128820D01*
X156599588Y-103106762D01*
X156506762Y-103068312D01*
X156506760Y-103068311D01*
X156350001Y-103047674D01*
X156349999Y-103047674D01*
X156193239Y-103068311D01*
X156193237Y-103068312D01*
X156047160Y-103128819D01*
X155921718Y-103225074D01*
X155825463Y-103350516D01*
X155764956Y-103496593D01*
X155764955Y-103496595D01*
X155744318Y-103653354D01*
X147814464Y-103653354D01*
X147795413Y-103645463D01*
X147721763Y-103614956D01*
X147721761Y-103614955D01*
X147565002Y-103594318D01*
X147565000Y-103594318D01*
X147408240Y-103614955D01*
X147408238Y-103614956D01*
X147262161Y-103675463D01*
X147136719Y-103771718D01*
X147040464Y-103897160D01*
X146979957Y-104043237D01*
X146979956Y-104043239D01*
X146959319Y-104199998D01*
X146961253Y-104214692D01*
X146950485Y-104283727D01*
X146904103Y-104335982D01*
X146836834Y-104354865D01*
X146822129Y-104353813D01*
X146750003Y-104344318D01*
X146749999Y-104344318D01*
X146593239Y-104364955D01*
X146593237Y-104364956D01*
X146447160Y-104425463D01*
X146321718Y-104521718D01*
X146225463Y-104647160D01*
X146164956Y-104793237D01*
X146164955Y-104793239D01*
X146144318Y-104949998D01*
X146144318Y-104950001D01*
X146164955Y-105106760D01*
X146164957Y-105106765D01*
X146194471Y-105178019D01*
X146201940Y-105247488D01*
X146170664Y-105309967D01*
X146110575Y-105345619D01*
X146040750Y-105343125D01*
X145983358Y-105303277D01*
X145981579Y-105301015D01*
X145978282Y-105296718D01*
X145852841Y-105200464D01*
X145838003Y-105194318D01*
X145706762Y-105139956D01*
X145706760Y-105139955D01*
X145550001Y-105119318D01*
X145549999Y-105119318D01*
X145393239Y-105139955D01*
X145393237Y-105139956D01*
X145247157Y-105200464D01*
X145126615Y-105292960D01*
X145061446Y-105318154D01*
X144993001Y-105304116D01*
X144975643Y-105292960D01*
X144952842Y-105275464D01*
X144806762Y-105214956D01*
X144806760Y-105214955D01*
X144650001Y-105194318D01*
X144649999Y-105194318D01*
X144493239Y-105214955D01*
X144493237Y-105214956D01*
X144347160Y-105275463D01*
X144221718Y-105371718D01*
X144125463Y-105497160D01*
X144064956Y-105643237D01*
X144064955Y-105643239D01*
X144044318Y-105799998D01*
X126699403Y-105799998D01*
X126688712Y-105778528D01*
X126557427Y-105604678D01*
X126535889Y-105585044D01*
X126396433Y-105457913D01*
X126396423Y-105457906D01*
X126211213Y-105343229D01*
X126211207Y-105343226D01*
X126110251Y-105304116D01*
X126008069Y-105264530D01*
X125793926Y-105224500D01*
X125576074Y-105224500D01*
X125361931Y-105264530D01*
X125313130Y-105283435D01*
X125158792Y-105343226D01*
X125158786Y-105343229D01*
X124973576Y-105457906D01*
X124973566Y-105457913D01*
X124812574Y-105604676D01*
X124681288Y-105778527D01*
X124584184Y-105973537D01*
X124524564Y-106183081D01*
X124504464Y-106399999D01*
X123200000Y-106399999D01*
X123200000Y-102799998D01*
X144294318Y-102799998D01*
X144294318Y-102800001D01*
X144314955Y-102956760D01*
X144314956Y-102956762D01*
X144361161Y-103068312D01*
X144375464Y-103102841D01*
X144471718Y-103228282D01*
X144597159Y-103324536D01*
X144743238Y-103385044D01*
X144821619Y-103395363D01*
X144899999Y-103405682D01*
X144900000Y-103405682D01*
X144900001Y-103405682D01*
X144952254Y-103398802D01*
X145056762Y-103385044D01*
X145202841Y-103324536D01*
X145328282Y-103228282D01*
X145424536Y-103102841D01*
X145485044Y-102956762D01*
X145505682Y-102800000D01*
X145505682Y-102799998D01*
X148094318Y-102799998D01*
X148094318Y-102800001D01*
X148114955Y-102956760D01*
X148114956Y-102956762D01*
X148161161Y-103068312D01*
X148175464Y-103102841D01*
X148271718Y-103228282D01*
X148397159Y-103324536D01*
X148543238Y-103385044D01*
X148621619Y-103395363D01*
X148699999Y-103405682D01*
X148700000Y-103405682D01*
X148700001Y-103405682D01*
X148752254Y-103398802D01*
X148856762Y-103385044D01*
X149002841Y-103324536D01*
X149128282Y-103228282D01*
X149224536Y-103102841D01*
X149285044Y-102956762D01*
X149305682Y-102800000D01*
X149299038Y-102749537D01*
X149285934Y-102649998D01*
X151694318Y-102649998D01*
X151694318Y-102650001D01*
X151714955Y-102806760D01*
X151714956Y-102806762D01*
X151774287Y-102950001D01*
X151775464Y-102952841D01*
X151871718Y-103078282D01*
X151997159Y-103174536D01*
X152143238Y-103235044D01*
X152221619Y-103245363D01*
X152299999Y-103255682D01*
X152300000Y-103255682D01*
X152300001Y-103255682D01*
X152352254Y-103248802D01*
X152456762Y-103235044D01*
X152602841Y-103174536D01*
X152728282Y-103078282D01*
X152824536Y-102952841D01*
X152825714Y-102949998D01*
X153194318Y-102949998D01*
X153194318Y-102950001D01*
X153214955Y-103106760D01*
X153214956Y-103106762D01*
X153263962Y-103225074D01*
X153275464Y-103252841D01*
X153371718Y-103378282D01*
X153497159Y-103474536D01*
X153643238Y-103535044D01*
X153721619Y-103545363D01*
X153799999Y-103555682D01*
X153800000Y-103555682D01*
X153800001Y-103555682D01*
X153852254Y-103548802D01*
X153956762Y-103535044D01*
X154102841Y-103474536D01*
X154228282Y-103378282D01*
X154324536Y-103252841D01*
X154385044Y-103106762D01*
X154398802Y-103002254D01*
X154405682Y-102950001D01*
X154405682Y-102949998D01*
X154387545Y-102812236D01*
X154385044Y-102793238D01*
X154324536Y-102647159D01*
X154228282Y-102521718D01*
X154102841Y-102425464D01*
X153985283Y-102376770D01*
X153956762Y-102364956D01*
X153956760Y-102364955D01*
X153800001Y-102344318D01*
X153799999Y-102344318D01*
X153643239Y-102364955D01*
X153643237Y-102364956D01*
X153497160Y-102425463D01*
X153371718Y-102521718D01*
X153275463Y-102647160D01*
X153214956Y-102793237D01*
X153214955Y-102793239D01*
X153194318Y-102949998D01*
X152825714Y-102949998D01*
X152885044Y-102806762D01*
X152905682Y-102650000D01*
X152885044Y-102493238D01*
X152824536Y-102347159D01*
X152728282Y-102221718D01*
X152602841Y-102125464D01*
X152578358Y-102115323D01*
X152456762Y-102064956D01*
X152456760Y-102064955D01*
X152300001Y-102044318D01*
X152299999Y-102044318D01*
X152143239Y-102064955D01*
X152143237Y-102064956D01*
X151997160Y-102125463D01*
X151871718Y-102221718D01*
X151775463Y-102347160D01*
X151714956Y-102493237D01*
X151714955Y-102493239D01*
X151694318Y-102649998D01*
X149285934Y-102649998D01*
X149285044Y-102643239D01*
X149285044Y-102643238D01*
X149224536Y-102497159D01*
X149128282Y-102371718D01*
X149002841Y-102275464D01*
X148881005Y-102224998D01*
X148856762Y-102214956D01*
X148856760Y-102214955D01*
X148700001Y-102194318D01*
X148699999Y-102194318D01*
X148543239Y-102214955D01*
X148543237Y-102214956D01*
X148397160Y-102275463D01*
X148271718Y-102371718D01*
X148175463Y-102497160D01*
X148114956Y-102643237D01*
X148114955Y-102643239D01*
X148094318Y-102799998D01*
X145505682Y-102799998D01*
X145499038Y-102749537D01*
X145485044Y-102643239D01*
X145485044Y-102643238D01*
X145424536Y-102497159D01*
X145328282Y-102371718D01*
X145202841Y-102275464D01*
X145081005Y-102224998D01*
X145056762Y-102214956D01*
X145056760Y-102214955D01*
X144900001Y-102194318D01*
X144899999Y-102194318D01*
X144743239Y-102214955D01*
X144743237Y-102214956D01*
X144597160Y-102275463D01*
X144471718Y-102371718D01*
X144375463Y-102497160D01*
X144314956Y-102643237D01*
X144314955Y-102643239D01*
X144294318Y-102799998D01*
X123200000Y-102799998D01*
X123200000Y-101319999D01*
X124504464Y-101319999D01*
X124504464Y-101320000D01*
X124524564Y-101536918D01*
X124524564Y-101536920D01*
X124524565Y-101536923D01*
X124584183Y-101746459D01*
X124584184Y-101746462D01*
X124647958Y-101874536D01*
X124681288Y-101941472D01*
X124812573Y-102115322D01*
X124973568Y-102262088D01*
X124973575Y-102262092D01*
X124973576Y-102262093D01*
X125158786Y-102376770D01*
X125158792Y-102376773D01*
X125180140Y-102385043D01*
X125361931Y-102455470D01*
X125576074Y-102495500D01*
X125576076Y-102495500D01*
X125793924Y-102495500D01*
X125793926Y-102495500D01*
X126008069Y-102455470D01*
X126211210Y-102376772D01*
X126396432Y-102262088D01*
X126557427Y-102115322D01*
X126688712Y-101941472D01*
X126785817Y-101746459D01*
X126845435Y-101536923D01*
X126865536Y-101320000D01*
X126845435Y-101103077D01*
X126787654Y-100899998D01*
X138319318Y-100899998D01*
X138319318Y-100900001D01*
X138339955Y-101056760D01*
X138339956Y-101056762D01*
X138398737Y-101198673D01*
X138400464Y-101202841D01*
X138496718Y-101328282D01*
X138622159Y-101424536D01*
X138768238Y-101485044D01*
X138846619Y-101495363D01*
X138924999Y-101505682D01*
X138925000Y-101505682D01*
X138925001Y-101505682D01*
X138989739Y-101497159D01*
X139081762Y-101485044D01*
X139227841Y-101424536D01*
X139324981Y-101349998D01*
X149194318Y-101349998D01*
X149194318Y-101350001D01*
X149214955Y-101506760D01*
X149214956Y-101506762D01*
X149275464Y-101652841D01*
X149371718Y-101778282D01*
X149497159Y-101874536D01*
X149643238Y-101935044D01*
X149692064Y-101941472D01*
X149799999Y-101955682D01*
X149800000Y-101955682D01*
X149800001Y-101955682D01*
X149852254Y-101948802D01*
X149956762Y-101935044D01*
X150102841Y-101874536D01*
X150199981Y-101799998D01*
X156794318Y-101799998D01*
X156794318Y-101800001D01*
X156814955Y-101956760D01*
X156814956Y-101956762D01*
X156861130Y-102068237D01*
X156875464Y-102102841D01*
X156971718Y-102228282D01*
X157097159Y-102324536D01*
X157243238Y-102385044D01*
X157321619Y-102395363D01*
X157399999Y-102405682D01*
X157400000Y-102405682D01*
X157400001Y-102405682D01*
X157452254Y-102398802D01*
X157556762Y-102385044D01*
X157702841Y-102324536D01*
X157828282Y-102228282D01*
X157924536Y-102102841D01*
X157985044Y-101956762D01*
X158005682Y-101800000D01*
X157985044Y-101643238D01*
X157934707Y-101521715D01*
X157927239Y-101452249D01*
X157958514Y-101389769D01*
X158018603Y-101354117D01*
X158033076Y-101351327D01*
X158156762Y-101335044D01*
X158193084Y-101319999D01*
X173704464Y-101319999D01*
X173704464Y-101320000D01*
X173724564Y-101536918D01*
X173724564Y-101536920D01*
X173724565Y-101536923D01*
X173784183Y-101746459D01*
X173784184Y-101746462D01*
X173847958Y-101874536D01*
X173881288Y-101941472D01*
X174012573Y-102115322D01*
X174173568Y-102262088D01*
X174173575Y-102262092D01*
X174173576Y-102262093D01*
X174358786Y-102376770D01*
X174358792Y-102376773D01*
X174380140Y-102385043D01*
X174561931Y-102455470D01*
X174776074Y-102495500D01*
X174776076Y-102495500D01*
X174993924Y-102495500D01*
X174993926Y-102495500D01*
X175208069Y-102455470D01*
X175411210Y-102376772D01*
X175596432Y-102262088D01*
X175757427Y-102115322D01*
X175888712Y-101941472D01*
X175985817Y-101746459D01*
X176045435Y-101536923D01*
X176065536Y-101320000D01*
X176045435Y-101103077D01*
X175985817Y-100893541D01*
X175888712Y-100698528D01*
X175757427Y-100524678D01*
X175596432Y-100377912D01*
X175596428Y-100377909D01*
X175596423Y-100377906D01*
X175411213Y-100263229D01*
X175411207Y-100263226D01*
X175313728Y-100225463D01*
X175208069Y-100184530D01*
X174993926Y-100144500D01*
X174776074Y-100144500D01*
X174561931Y-100184530D01*
X174513130Y-100203435D01*
X174358792Y-100263226D01*
X174358786Y-100263229D01*
X174173576Y-100377906D01*
X174173566Y-100377913D01*
X174012574Y-100524676D01*
X173881288Y-100698527D01*
X173784184Y-100893537D01*
X173784183Y-100893541D01*
X173726081Y-101097751D01*
X173724564Y-101103081D01*
X173704464Y-101319999D01*
X158193084Y-101319999D01*
X158302841Y-101274536D01*
X158428282Y-101178282D01*
X158524536Y-101052841D01*
X158585044Y-100906762D01*
X158605682Y-100750000D01*
X158598905Y-100698527D01*
X158585044Y-100593239D01*
X158585044Y-100593238D01*
X158524536Y-100447159D01*
X158428282Y-100321718D01*
X158302841Y-100225464D01*
X158240245Y-100199536D01*
X158156762Y-100164956D01*
X158156760Y-100164955D01*
X158000001Y-100144318D01*
X157999999Y-100144318D01*
X157843239Y-100164955D01*
X157843237Y-100164956D01*
X157697160Y-100225463D01*
X157571718Y-100321718D01*
X157475463Y-100447160D01*
X157414956Y-100593237D01*
X157414955Y-100593239D01*
X157394318Y-100749998D01*
X157394318Y-100750001D01*
X157414955Y-100906760D01*
X157414956Y-100906762D01*
X157465291Y-101028281D01*
X157472760Y-101097751D01*
X157441485Y-101160230D01*
X157381396Y-101195882D01*
X157366916Y-101198673D01*
X157266502Y-101211893D01*
X157243238Y-101214956D01*
X157243237Y-101214956D01*
X157097160Y-101275463D01*
X156971718Y-101371718D01*
X156875463Y-101497160D01*
X156814956Y-101643237D01*
X156814955Y-101643239D01*
X156794318Y-101799998D01*
X150199981Y-101799998D01*
X150228282Y-101778282D01*
X150324536Y-101652841D01*
X150385044Y-101506762D01*
X150405140Y-101354117D01*
X150405682Y-101350001D01*
X150405682Y-101349998D01*
X150386308Y-101202839D01*
X150385044Y-101193238D01*
X150324536Y-101047159D01*
X150228282Y-100921718D01*
X150102841Y-100825464D01*
X149956762Y-100764956D01*
X149956760Y-100764955D01*
X149800001Y-100744318D01*
X149799999Y-100744318D01*
X149643239Y-100764955D01*
X149643237Y-100764956D01*
X149497160Y-100825463D01*
X149371718Y-100921718D01*
X149275463Y-101047160D01*
X149214956Y-101193237D01*
X149214955Y-101193239D01*
X149194318Y-101349998D01*
X139324981Y-101349998D01*
X139353282Y-101328282D01*
X139449536Y-101202841D01*
X139510044Y-101056762D01*
X139530682Y-100900000D01*
X139510044Y-100743238D01*
X139449536Y-100597159D01*
X139353282Y-100471718D01*
X139227841Y-100375464D01*
X139081762Y-100314956D01*
X139081760Y-100314955D01*
X138925001Y-100294318D01*
X138924999Y-100294318D01*
X138768239Y-100314955D01*
X138768237Y-100314956D01*
X138622160Y-100375463D01*
X138496718Y-100471718D01*
X138400463Y-100597160D01*
X138339956Y-100743237D01*
X138339955Y-100743239D01*
X138319318Y-100899998D01*
X126787654Y-100899998D01*
X126785817Y-100893541D01*
X126688712Y-100698528D01*
X126557427Y-100524678D01*
X126396432Y-100377912D01*
X126396428Y-100377909D01*
X126396423Y-100377906D01*
X126211213Y-100263229D01*
X126211207Y-100263226D01*
X126113728Y-100225463D01*
X126008069Y-100184530D01*
X125793926Y-100144500D01*
X125576074Y-100144500D01*
X125361931Y-100184530D01*
X125313130Y-100203435D01*
X125158792Y-100263226D01*
X125158786Y-100263229D01*
X124973576Y-100377906D01*
X124973566Y-100377913D01*
X124812574Y-100524676D01*
X124681288Y-100698527D01*
X124584184Y-100893537D01*
X124584183Y-100893541D01*
X124526081Y-101097751D01*
X124524564Y-101103081D01*
X124504464Y-101319999D01*
X123200000Y-101319999D01*
X123200000Y-99674998D01*
X160739318Y-99674998D01*
X160739318Y-99675001D01*
X160759955Y-99831760D01*
X160759956Y-99831762D01*
X160820464Y-99977841D01*
X160916718Y-100103282D01*
X161042159Y-100199536D01*
X161188238Y-100260044D01*
X161212431Y-100263229D01*
X161344999Y-100280682D01*
X161345000Y-100280682D01*
X161345001Y-100280682D01*
X161397254Y-100273802D01*
X161501762Y-100260044D01*
X161647841Y-100199536D01*
X161773282Y-100103282D01*
X161869536Y-99977841D01*
X161930044Y-99831762D01*
X161950682Y-99675000D01*
X161930044Y-99518238D01*
X161869536Y-99372159D01*
X161773282Y-99246718D01*
X161647841Y-99150464D01*
X161501762Y-99089956D01*
X161501760Y-99089955D01*
X161345001Y-99069318D01*
X161344999Y-99069318D01*
X161188239Y-99089955D01*
X161188237Y-99089956D01*
X161042160Y-99150463D01*
X160916718Y-99246718D01*
X160820463Y-99372160D01*
X160759956Y-99518237D01*
X160759955Y-99518239D01*
X160739318Y-99674998D01*
X123200000Y-99674998D01*
X123200000Y-93505131D01*
X127209500Y-93505131D01*
X127209500Y-94894856D01*
X127209502Y-94894882D01*
X127212413Y-94919987D01*
X127212415Y-94919991D01*
X127257793Y-95022764D01*
X127257794Y-95022765D01*
X127337235Y-95102206D01*
X127440009Y-95147585D01*
X127465135Y-95150500D01*
X127611060Y-95150499D01*
X127678097Y-95170183D01*
X127723852Y-95222987D01*
X127733796Y-95292145D01*
X127704771Y-95355701D01*
X127679950Y-95377601D01*
X127554088Y-95461700D01*
X127421700Y-95594088D01*
X127421697Y-95594092D01*
X127317681Y-95749762D01*
X127317676Y-95749771D01*
X127246027Y-95922748D01*
X127246025Y-95922756D01*
X127209500Y-96106379D01*
X127209500Y-96293620D01*
X127246025Y-96477243D01*
X127246027Y-96477251D01*
X127317676Y-96650228D01*
X127317681Y-96650237D01*
X127421697Y-96805907D01*
X127421700Y-96805911D01*
X127554088Y-96938299D01*
X127554092Y-96938302D01*
X127709762Y-97042318D01*
X127709768Y-97042321D01*
X127709769Y-97042322D01*
X127882749Y-97113973D01*
X128066379Y-97150499D01*
X128066383Y-97150500D01*
X128066384Y-97150500D01*
X128953617Y-97150500D01*
X128953618Y-97150499D01*
X129137251Y-97113973D01*
X129310231Y-97042322D01*
X129465908Y-96938302D01*
X129504211Y-96899999D01*
X133119464Y-96899999D01*
X133119464Y-96900000D01*
X133139564Y-97116918D01*
X133139564Y-97116920D01*
X133139565Y-97116923D01*
X133199183Y-97326459D01*
X133296288Y-97521472D01*
X133427573Y-97695322D01*
X133588568Y-97842088D01*
X133588575Y-97842092D01*
X133588576Y-97842093D01*
X133773786Y-97956770D01*
X133773792Y-97956773D01*
X133796664Y-97965633D01*
X133976931Y-98035470D01*
X134191074Y-98075500D01*
X134191076Y-98075500D01*
X134408924Y-98075500D01*
X134408926Y-98075500D01*
X134623069Y-98035470D01*
X134826210Y-97956772D01*
X135011432Y-97842088D01*
X135172427Y-97695322D01*
X135303712Y-97521472D01*
X135400817Y-97326459D01*
X135450734Y-97151016D01*
X135488013Y-97091926D01*
X135551322Y-97062368D01*
X135620562Y-97071730D01*
X135673748Y-97117039D01*
X135689264Y-97151013D01*
X135739183Y-97326459D01*
X135836288Y-97521472D01*
X135967573Y-97695322D01*
X136128568Y-97842088D01*
X136128575Y-97842092D01*
X136128576Y-97842093D01*
X136313786Y-97956770D01*
X136313792Y-97956773D01*
X136336664Y-97965633D01*
X136516931Y-98035470D01*
X136731074Y-98075500D01*
X136731076Y-98075500D01*
X136948924Y-98075500D01*
X136948926Y-98075500D01*
X137163069Y-98035470D01*
X137366210Y-97956772D01*
X137551432Y-97842088D01*
X137712427Y-97695322D01*
X137843712Y-97521472D01*
X137940817Y-97326459D01*
X138000435Y-97116923D01*
X138020536Y-96900000D01*
X138000435Y-96683077D01*
X137940817Y-96473541D01*
X137843712Y-96278528D01*
X137712427Y-96104678D01*
X137551432Y-95957912D01*
X137551428Y-95957909D01*
X137551423Y-95957906D01*
X137366213Y-95843229D01*
X137366207Y-95843226D01*
X137275607Y-95808128D01*
X137163069Y-95764530D01*
X137095440Y-95751888D01*
X137033161Y-95720221D01*
X136997888Y-95659909D01*
X137000822Y-95590100D01*
X137041031Y-95532960D01*
X137095439Y-95508112D01*
X137163069Y-95495470D01*
X137366210Y-95416772D01*
X137551432Y-95302088D01*
X137712427Y-95155322D01*
X137843712Y-94981472D01*
X137940817Y-94786459D01*
X138000435Y-94576923D01*
X138020536Y-94360000D01*
X138018967Y-94343073D01*
X138010343Y-94249998D01*
X146719318Y-94249998D01*
X146719318Y-94250001D01*
X146739955Y-94406760D01*
X146739956Y-94406762D01*
X146800464Y-94552842D01*
X146893826Y-94674514D01*
X146919020Y-94739683D01*
X146904981Y-94808128D01*
X146893826Y-94825486D01*
X146800464Y-94947157D01*
X146739956Y-95093237D01*
X146739955Y-95093239D01*
X146719318Y-95249998D01*
X146719318Y-95250001D01*
X146739955Y-95406760D01*
X146739956Y-95406762D01*
X146800464Y-95552842D01*
X146893826Y-95674514D01*
X146919020Y-95739683D01*
X146904981Y-95808128D01*
X146893826Y-95825486D01*
X146800464Y-95947157D01*
X146739956Y-96093237D01*
X146739955Y-96093239D01*
X146719318Y-96249998D01*
X146719318Y-96250001D01*
X146739955Y-96406760D01*
X146739956Y-96406762D01*
X146769153Y-96477251D01*
X146800464Y-96552841D01*
X146896718Y-96678282D01*
X147022159Y-96774536D01*
X147168238Y-96835044D01*
X147246619Y-96845363D01*
X147324999Y-96855682D01*
X147325000Y-96855682D01*
X147325001Y-96855682D01*
X147377254Y-96848802D01*
X147481762Y-96835044D01*
X147627841Y-96774536D01*
X147749515Y-96681171D01*
X147814683Y-96655979D01*
X147883127Y-96670017D01*
X147900478Y-96681167D01*
X148022159Y-96774536D01*
X148168238Y-96835044D01*
X148246619Y-96845363D01*
X148324999Y-96855682D01*
X148325000Y-96855682D01*
X148325001Y-96855682D01*
X148377254Y-96848802D01*
X148481762Y-96835044D01*
X148627841Y-96774536D01*
X148753282Y-96678282D01*
X148849536Y-96552841D01*
X148910044Y-96406762D01*
X148930682Y-96250000D01*
X148918190Y-96155117D01*
X148911775Y-96106384D01*
X148910044Y-96093238D01*
X148849536Y-95947159D01*
X148756171Y-95825484D01*
X148730979Y-95760317D01*
X148745017Y-95691873D01*
X148756167Y-95674521D01*
X148849536Y-95552841D01*
X148910044Y-95406762D01*
X148930682Y-95250000D01*
X148927655Y-95227011D01*
X148911225Y-95102206D01*
X148910044Y-95093238D01*
X148849536Y-94947159D01*
X148756171Y-94825484D01*
X148730979Y-94760317D01*
X148745017Y-94691873D01*
X148756167Y-94674521D01*
X148849536Y-94552841D01*
X148856926Y-94534999D01*
X162549464Y-94534999D01*
X162549464Y-94535000D01*
X162569564Y-94751918D01*
X162569564Y-94751920D01*
X162569565Y-94751923D01*
X162617385Y-94919993D01*
X162629184Y-94961462D01*
X162699266Y-95102205D01*
X162726288Y-95156472D01*
X162838445Y-95304993D01*
X162857574Y-95330323D01*
X162887581Y-95357678D01*
X163018568Y-95477088D01*
X163018575Y-95477092D01*
X163018576Y-95477093D01*
X163203786Y-95591770D01*
X163203792Y-95591773D01*
X163225266Y-95600092D01*
X163406931Y-95670470D01*
X163474558Y-95683111D01*
X163536838Y-95714779D01*
X163572111Y-95775092D01*
X163569177Y-95844900D01*
X163528968Y-95902040D01*
X163474558Y-95926888D01*
X163406931Y-95939530D01*
X163359498Y-95957906D01*
X163203792Y-96018226D01*
X163203786Y-96018229D01*
X163018576Y-96132906D01*
X163018566Y-96132913D01*
X162857574Y-96279676D01*
X162726288Y-96453527D01*
X162629184Y-96648537D01*
X162618421Y-96686364D01*
X162570247Y-96855682D01*
X162569564Y-96858081D01*
X162549464Y-97074999D01*
X162549464Y-97075000D01*
X162569564Y-97291918D01*
X162569564Y-97291920D01*
X162569565Y-97291923D01*
X162629183Y-97501459D01*
X162726288Y-97696472D01*
X162857573Y-97870322D01*
X163018568Y-98017088D01*
X163018575Y-98017092D01*
X163018576Y-98017093D01*
X163203786Y-98131770D01*
X163203792Y-98131773D01*
X163226664Y-98140633D01*
X163406931Y-98210470D01*
X163621074Y-98250500D01*
X163621076Y-98250500D01*
X163838924Y-98250500D01*
X163838926Y-98250500D01*
X164053069Y-98210470D01*
X164256210Y-98131772D01*
X164441432Y-98017088D01*
X164602427Y-97870322D01*
X164733712Y-97696472D01*
X164830817Y-97501459D01*
X164851234Y-97429698D01*
X164888512Y-97370607D01*
X164951821Y-97341049D01*
X165021061Y-97350410D01*
X165074248Y-97395719D01*
X165094496Y-97462591D01*
X165094500Y-97463634D01*
X165094500Y-97994856D01*
X165094502Y-97994882D01*
X165097413Y-98019987D01*
X165097415Y-98019991D01*
X165142793Y-98122764D01*
X165142794Y-98122765D01*
X165222235Y-98202206D01*
X165325009Y-98247585D01*
X165350135Y-98250500D01*
X167189864Y-98250499D01*
X167189879Y-98250497D01*
X167189882Y-98250497D01*
X167214987Y-98247586D01*
X167214988Y-98247585D01*
X167214991Y-98247585D01*
X167317765Y-98202206D01*
X167397206Y-98122765D01*
X167442585Y-98019991D01*
X167445500Y-97994865D01*
X167445499Y-96155136D01*
X167442922Y-96132912D01*
X167442586Y-96130012D01*
X167442585Y-96130010D01*
X167442585Y-96130009D01*
X167397206Y-96027235D01*
X167317765Y-95947794D01*
X167270420Y-95926889D01*
X167214992Y-95902415D01*
X167189868Y-95899500D01*
X166665213Y-95899500D01*
X166598174Y-95879815D01*
X166552419Y-95827011D01*
X166542475Y-95757853D01*
X166571500Y-95694297D01*
X166620416Y-95659875D01*
X166796210Y-95591772D01*
X166981432Y-95477088D01*
X167142427Y-95330322D01*
X167273712Y-95156472D01*
X167370817Y-94961459D01*
X167430435Y-94751923D01*
X167450536Y-94535000D01*
X167430435Y-94318077D01*
X167384428Y-94156379D01*
X170784500Y-94156379D01*
X170784500Y-94343620D01*
X170821025Y-94527243D01*
X170821027Y-94527251D01*
X170892676Y-94700228D01*
X170892681Y-94700237D01*
X170996697Y-94855907D01*
X170996700Y-94855911D01*
X171129088Y-94988299D01*
X171129096Y-94988305D01*
X171254950Y-95072398D01*
X171299756Y-95126010D01*
X171308463Y-95195335D01*
X171278309Y-95258362D01*
X171218866Y-95295082D01*
X171186061Y-95299500D01*
X171040144Y-95299500D01*
X171040117Y-95299502D01*
X171015012Y-95302413D01*
X171015008Y-95302415D01*
X170912235Y-95347793D01*
X170832794Y-95427234D01*
X170787415Y-95530006D01*
X170787415Y-95530008D01*
X170784500Y-95555131D01*
X170784500Y-96944856D01*
X170784502Y-96944882D01*
X170787413Y-96969987D01*
X170787415Y-96969991D01*
X170832793Y-97072764D01*
X170832794Y-97072765D01*
X170912235Y-97152206D01*
X171015009Y-97197585D01*
X171040135Y-97200500D01*
X173129864Y-97200499D01*
X173129879Y-97200497D01*
X173129882Y-97200497D01*
X173154987Y-97197586D01*
X173154988Y-97197585D01*
X173154991Y-97197585D01*
X173257765Y-97152206D01*
X173337206Y-97072765D01*
X173382585Y-96969991D01*
X173385500Y-96944865D01*
X173385499Y-95555136D01*
X173384895Y-95549927D01*
X173382586Y-95530012D01*
X173382585Y-95530010D01*
X173382585Y-95530009D01*
X173337206Y-95427235D01*
X173257765Y-95347794D01*
X173203852Y-95323989D01*
X173154992Y-95302415D01*
X173129868Y-95299500D01*
X172983941Y-95299500D01*
X172916902Y-95279815D01*
X172871147Y-95227011D01*
X172861203Y-95157853D01*
X172890228Y-95094297D01*
X172915050Y-95072398D01*
X172989332Y-95022764D01*
X173040908Y-94988302D01*
X173173302Y-94855908D01*
X173277322Y-94700231D01*
X173348973Y-94527251D01*
X173385500Y-94343616D01*
X173385500Y-94156384D01*
X173348973Y-93972749D01*
X173277322Y-93799769D01*
X173277321Y-93799768D01*
X173277318Y-93799762D01*
X173173302Y-93644092D01*
X173173299Y-93644088D01*
X173040911Y-93511700D01*
X173040907Y-93511697D01*
X172885237Y-93407681D01*
X172885228Y-93407676D01*
X172712251Y-93336027D01*
X172712243Y-93336025D01*
X172528620Y-93299500D01*
X172528616Y-93299500D01*
X171641384Y-93299500D01*
X171641379Y-93299500D01*
X171457756Y-93336025D01*
X171457748Y-93336027D01*
X171284771Y-93407676D01*
X171284762Y-93407681D01*
X171129092Y-93511697D01*
X171129088Y-93511700D01*
X170996700Y-93644088D01*
X170996697Y-93644092D01*
X170892681Y-93799762D01*
X170892676Y-93799771D01*
X170821027Y-93972748D01*
X170821025Y-93972756D01*
X170784500Y-94156379D01*
X167384428Y-94156379D01*
X167370817Y-94108541D01*
X167273712Y-93913528D01*
X167142427Y-93739678D01*
X167141164Y-93738527D01*
X166981433Y-93592913D01*
X166981423Y-93592906D01*
X166796213Y-93478229D01*
X166796207Y-93478226D01*
X166697884Y-93440136D01*
X166593069Y-93399530D01*
X166378926Y-93359500D01*
X166161074Y-93359500D01*
X165946931Y-93399530D01*
X165906968Y-93415012D01*
X165743792Y-93478226D01*
X165743786Y-93478229D01*
X165558576Y-93592906D01*
X165558566Y-93592913D01*
X165397574Y-93739676D01*
X165266288Y-93913527D01*
X165169183Y-94108539D01*
X165169180Y-94108545D01*
X165119266Y-94283980D01*
X165081987Y-94343073D01*
X165018678Y-94372631D01*
X164949438Y-94363269D01*
X164896252Y-94317960D01*
X164880734Y-94283980D01*
X164830819Y-94108545D01*
X164830816Y-94108539D01*
X164830815Y-94108537D01*
X164733712Y-93913528D01*
X164602427Y-93739678D01*
X164601164Y-93738527D01*
X164441433Y-93592913D01*
X164441423Y-93592906D01*
X164256213Y-93478229D01*
X164256207Y-93478226D01*
X164157884Y-93440136D01*
X164053069Y-93399530D01*
X163838926Y-93359500D01*
X163621074Y-93359500D01*
X163406931Y-93399530D01*
X163366968Y-93415012D01*
X163203792Y-93478226D01*
X163203786Y-93478229D01*
X163018576Y-93592906D01*
X163018566Y-93592913D01*
X162857574Y-93739676D01*
X162726288Y-93913527D01*
X162629184Y-94108537D01*
X162599374Y-94213309D01*
X162579267Y-94283980D01*
X162569564Y-94318081D01*
X162549464Y-94534999D01*
X148856926Y-94534999D01*
X148910044Y-94406762D01*
X148923802Y-94302254D01*
X148930682Y-94250001D01*
X148930682Y-94249998D01*
X148910044Y-94093239D01*
X148910044Y-94093238D01*
X148849536Y-93947159D01*
X148753282Y-93821718D01*
X148627841Y-93725464D01*
X148481762Y-93664956D01*
X148481760Y-93664955D01*
X148325001Y-93644318D01*
X148324999Y-93644318D01*
X148168239Y-93664955D01*
X148168237Y-93664956D01*
X148022157Y-93725464D01*
X147900486Y-93818826D01*
X147835317Y-93844020D01*
X147766872Y-93829981D01*
X147749514Y-93818826D01*
X147627842Y-93725464D01*
X147481762Y-93664956D01*
X147481760Y-93664955D01*
X147325001Y-93644318D01*
X147324999Y-93644318D01*
X147168239Y-93664955D01*
X147168237Y-93664956D01*
X147022160Y-93725463D01*
X146896718Y-93821718D01*
X146800463Y-93947160D01*
X146739956Y-94093237D01*
X146739955Y-94093239D01*
X146719318Y-94249998D01*
X138010343Y-94249998D01*
X138001668Y-94156383D01*
X138000435Y-94143077D01*
X137940817Y-93933541D01*
X137843712Y-93738528D01*
X137712427Y-93564678D01*
X137654309Y-93511697D01*
X137575811Y-93440136D01*
X137551432Y-93417912D01*
X137551428Y-93417909D01*
X137551423Y-93417906D01*
X137366213Y-93303229D01*
X137366207Y-93303226D01*
X137281113Y-93270260D01*
X137163069Y-93224530D01*
X136948926Y-93184500D01*
X136731074Y-93184500D01*
X136516931Y-93224530D01*
X136468130Y-93243435D01*
X136313792Y-93303226D01*
X136313786Y-93303229D01*
X136128576Y-93417906D01*
X136128566Y-93417913D01*
X135967574Y-93564676D01*
X135836288Y-93738527D01*
X135739183Y-93933539D01*
X135739181Y-93933543D01*
X135718765Y-94005300D01*
X135681486Y-94064393D01*
X135618176Y-94093950D01*
X135548937Y-94084588D01*
X135495750Y-94039278D01*
X135475503Y-93972406D01*
X135475499Y-93971365D01*
X135475499Y-93440143D01*
X135475499Y-93440136D01*
X135472922Y-93417912D01*
X135472586Y-93415012D01*
X135472585Y-93415010D01*
X135472585Y-93415009D01*
X135427206Y-93312235D01*
X135347765Y-93232794D01*
X135329049Y-93224530D01*
X135244992Y-93187415D01*
X135219865Y-93184500D01*
X133380143Y-93184500D01*
X133380117Y-93184502D01*
X133355012Y-93187413D01*
X133355008Y-93187415D01*
X133252235Y-93232793D01*
X133172794Y-93312234D01*
X133127415Y-93415006D01*
X133127415Y-93415008D01*
X133124500Y-93440131D01*
X133124500Y-95279856D01*
X133124502Y-95279882D01*
X133127413Y-95304987D01*
X133127415Y-95304991D01*
X133172793Y-95407764D01*
X133172794Y-95407765D01*
X133252235Y-95487206D01*
X133355009Y-95532585D01*
X133380135Y-95535500D01*
X133904788Y-95535499D01*
X133971825Y-95555183D01*
X134017580Y-95607987D01*
X134027524Y-95677146D01*
X133998499Y-95740702D01*
X133949580Y-95775125D01*
X133773801Y-95843222D01*
X133773786Y-95843229D01*
X133588576Y-95957906D01*
X133588566Y-95957913D01*
X133427574Y-96104676D01*
X133296288Y-96278527D01*
X133199184Y-96473537D01*
X133199183Y-96473541D01*
X133148911Y-96650231D01*
X133139564Y-96683081D01*
X133119464Y-96899999D01*
X129504211Y-96899999D01*
X129598302Y-96805908D01*
X129702322Y-96650231D01*
X129773973Y-96477251D01*
X129810500Y-96293616D01*
X129810500Y-96106384D01*
X129773973Y-95922749D01*
X129702322Y-95749769D01*
X129702321Y-95749768D01*
X129702318Y-95749762D01*
X129598302Y-95594092D01*
X129598299Y-95594088D01*
X129465908Y-95461697D01*
X129340048Y-95377601D01*
X129295243Y-95323989D01*
X129286536Y-95254664D01*
X129316690Y-95191637D01*
X129376133Y-95154917D01*
X129408938Y-95150499D01*
X129554864Y-95150499D01*
X129554879Y-95150497D01*
X129554882Y-95150497D01*
X129579987Y-95147586D01*
X129579988Y-95147585D01*
X129579991Y-95147585D01*
X129682765Y-95102206D01*
X129762206Y-95022765D01*
X129807585Y-94919991D01*
X129810500Y-94894865D01*
X129810499Y-93505136D01*
X129810497Y-93505117D01*
X129807586Y-93480012D01*
X129807585Y-93480010D01*
X129807585Y-93480009D01*
X129762206Y-93377235D01*
X129682765Y-93297794D01*
X129682763Y-93297793D01*
X129579992Y-93252415D01*
X129554865Y-93249500D01*
X127465143Y-93249500D01*
X127465117Y-93249502D01*
X127440012Y-93252413D01*
X127440008Y-93252415D01*
X127337235Y-93297793D01*
X127257794Y-93377234D01*
X127212415Y-93480006D01*
X127212415Y-93480008D01*
X127209500Y-93505131D01*
X123200000Y-93505131D01*
X123200000Y-91649998D01*
X153019318Y-91649998D01*
X153019318Y-91650001D01*
X153039955Y-91806760D01*
X153039956Y-91806762D01*
X153100464Y-91952842D01*
X153193826Y-92074514D01*
X153219020Y-92139683D01*
X153204981Y-92208128D01*
X153193826Y-92225486D01*
X153100464Y-92347157D01*
X153039956Y-92493237D01*
X153039955Y-92493239D01*
X153019318Y-92649998D01*
X153019318Y-92650001D01*
X153039955Y-92806760D01*
X153039956Y-92806762D01*
X153100464Y-92952841D01*
X153196718Y-93078282D01*
X153322159Y-93174536D01*
X153468238Y-93235044D01*
X153546619Y-93245363D01*
X153624999Y-93255682D01*
X153625000Y-93255682D01*
X153625001Y-93255682D01*
X153677254Y-93248802D01*
X153781762Y-93235044D01*
X153927841Y-93174536D01*
X154049515Y-93081171D01*
X154114683Y-93055979D01*
X154183127Y-93070017D01*
X154200478Y-93081167D01*
X154322159Y-93174536D01*
X154468238Y-93235044D01*
X154546619Y-93245363D01*
X154624999Y-93255682D01*
X154625000Y-93255682D01*
X154625001Y-93255682D01*
X154677254Y-93248802D01*
X154781762Y-93235044D01*
X154927841Y-93174536D01*
X155053282Y-93078282D01*
X155149536Y-92952841D01*
X155210044Y-92806762D01*
X155230682Y-92650000D01*
X155210044Y-92493238D01*
X155149536Y-92347159D01*
X155056171Y-92225484D01*
X155030979Y-92160317D01*
X155045017Y-92091873D01*
X155056167Y-92074521D01*
X155149536Y-91952841D01*
X155210044Y-91806762D01*
X155230682Y-91650000D01*
X155210044Y-91493238D01*
X155149536Y-91347159D01*
X155053282Y-91221718D01*
X154927841Y-91125464D01*
X154781762Y-91064956D01*
X154781760Y-91064955D01*
X154625001Y-91044318D01*
X154624999Y-91044318D01*
X154468239Y-91064955D01*
X154468237Y-91064956D01*
X154322157Y-91125464D01*
X154200486Y-91218826D01*
X154135317Y-91244020D01*
X154066872Y-91229981D01*
X154049514Y-91218826D01*
X153927842Y-91125464D01*
X153781762Y-91064956D01*
X153781760Y-91064955D01*
X153625001Y-91044318D01*
X153624999Y-91044318D01*
X153468239Y-91064955D01*
X153468237Y-91064956D01*
X153322160Y-91125463D01*
X153196718Y-91221718D01*
X153100463Y-91347160D01*
X153039956Y-91493237D01*
X153039955Y-91493239D01*
X153019318Y-91649998D01*
X123200000Y-91649998D01*
X123200000Y-86755131D01*
X127209500Y-86755131D01*
X127209500Y-88144856D01*
X127209502Y-88144882D01*
X127212413Y-88169987D01*
X127212415Y-88169991D01*
X127257793Y-88272764D01*
X127257794Y-88272765D01*
X127337235Y-88352206D01*
X127440009Y-88397585D01*
X127465135Y-88400500D01*
X127611060Y-88400499D01*
X127678097Y-88420183D01*
X127723852Y-88472987D01*
X127733796Y-88542145D01*
X127704771Y-88605701D01*
X127679950Y-88627601D01*
X127554088Y-88711700D01*
X127421700Y-88844088D01*
X127421697Y-88844092D01*
X127317681Y-88999762D01*
X127317676Y-88999771D01*
X127246027Y-89172748D01*
X127246025Y-89172756D01*
X127209500Y-89356379D01*
X127209500Y-89543620D01*
X127246025Y-89727243D01*
X127246027Y-89727251D01*
X127317676Y-89900228D01*
X127317681Y-89900237D01*
X127421697Y-90055907D01*
X127421700Y-90055911D01*
X127554088Y-90188299D01*
X127554092Y-90188302D01*
X127709762Y-90292318D01*
X127709768Y-90292321D01*
X127709769Y-90292322D01*
X127882749Y-90363973D01*
X128066379Y-90400499D01*
X128066383Y-90400500D01*
X128066384Y-90400500D01*
X128953617Y-90400500D01*
X128953618Y-90400499D01*
X129137251Y-90363973D01*
X129310231Y-90292322D01*
X129465908Y-90188302D01*
X129598302Y-90055908D01*
X129702322Y-89900231D01*
X129773973Y-89727251D01*
X129810500Y-89543616D01*
X129810500Y-89356384D01*
X129773973Y-89172749D01*
X129702322Y-88999769D01*
X129702321Y-88999768D01*
X129702318Y-88999762D01*
X129598302Y-88844092D01*
X129598299Y-88844088D01*
X129465908Y-88711697D01*
X129340048Y-88627601D01*
X129295243Y-88573989D01*
X129286536Y-88504664D01*
X129316690Y-88441637D01*
X129376133Y-88404917D01*
X129408938Y-88400499D01*
X129554864Y-88400499D01*
X129554879Y-88400497D01*
X129554882Y-88400497D01*
X129579987Y-88397586D01*
X129579988Y-88397585D01*
X129579991Y-88397585D01*
X129682765Y-88352206D01*
X129762206Y-88272765D01*
X129807585Y-88169991D01*
X129810500Y-88144865D01*
X129810499Y-87406379D01*
X170784500Y-87406379D01*
X170784500Y-87593620D01*
X170821025Y-87777243D01*
X170821027Y-87777251D01*
X170892676Y-87950228D01*
X170892681Y-87950237D01*
X170996697Y-88105907D01*
X170996700Y-88105911D01*
X171129088Y-88238299D01*
X171129096Y-88238305D01*
X171254950Y-88322398D01*
X171299756Y-88376010D01*
X171308463Y-88445335D01*
X171278309Y-88508362D01*
X171218866Y-88545082D01*
X171186061Y-88549500D01*
X171040144Y-88549500D01*
X171040117Y-88549502D01*
X171015012Y-88552413D01*
X171015008Y-88552415D01*
X170912235Y-88597793D01*
X170832794Y-88677234D01*
X170787415Y-88780006D01*
X170787415Y-88780008D01*
X170784500Y-88805131D01*
X170784500Y-90194856D01*
X170784502Y-90194882D01*
X170787413Y-90219987D01*
X170787415Y-90219991D01*
X170832793Y-90322764D01*
X170832794Y-90322765D01*
X170912235Y-90402206D01*
X171015009Y-90447585D01*
X171040135Y-90450500D01*
X173129864Y-90450499D01*
X173129879Y-90450497D01*
X173129882Y-90450497D01*
X173154987Y-90447586D01*
X173154988Y-90447585D01*
X173154991Y-90447585D01*
X173257765Y-90402206D01*
X173337206Y-90322765D01*
X173382585Y-90219991D01*
X173385500Y-90194865D01*
X173385499Y-88805136D01*
X173385497Y-88805117D01*
X173382586Y-88780012D01*
X173382585Y-88780010D01*
X173382585Y-88780009D01*
X173337206Y-88677235D01*
X173257765Y-88597794D01*
X173203852Y-88573989D01*
X173154992Y-88552415D01*
X173129868Y-88549500D01*
X172983941Y-88549500D01*
X172916902Y-88529815D01*
X172871147Y-88477011D01*
X172861203Y-88407853D01*
X172890228Y-88344297D01*
X172915050Y-88322398D01*
X172989332Y-88272764D01*
X173040908Y-88238302D01*
X173173302Y-88105908D01*
X173277322Y-87950231D01*
X173348973Y-87777251D01*
X173385500Y-87593616D01*
X173385500Y-87406384D01*
X173348973Y-87222749D01*
X173277322Y-87049769D01*
X173277321Y-87049768D01*
X173277318Y-87049762D01*
X173173302Y-86894092D01*
X173173299Y-86894088D01*
X173040911Y-86761700D01*
X173040907Y-86761697D01*
X172885237Y-86657681D01*
X172885228Y-86657676D01*
X172712251Y-86586027D01*
X172712243Y-86586025D01*
X172528620Y-86549500D01*
X172528616Y-86549500D01*
X171641384Y-86549500D01*
X171641379Y-86549500D01*
X171457756Y-86586025D01*
X171457748Y-86586027D01*
X171284771Y-86657676D01*
X171284762Y-86657681D01*
X171129092Y-86761697D01*
X171129088Y-86761700D01*
X170996700Y-86894088D01*
X170996697Y-86894092D01*
X170892681Y-87049762D01*
X170892676Y-87049771D01*
X170821027Y-87222748D01*
X170821025Y-87222756D01*
X170784500Y-87406379D01*
X129810499Y-87406379D01*
X129810499Y-86755136D01*
X129810497Y-86755117D01*
X129807586Y-86730012D01*
X129807585Y-86730010D01*
X129807585Y-86730009D01*
X129762206Y-86627235D01*
X129682765Y-86547794D01*
X129682763Y-86547793D01*
X129579992Y-86502415D01*
X129554865Y-86499500D01*
X127465143Y-86499500D01*
X127465117Y-86499502D01*
X127440012Y-86502413D01*
X127440008Y-86502415D01*
X127337235Y-86547793D01*
X127257794Y-86627234D01*
X127212415Y-86730006D01*
X127212415Y-86730008D01*
X127209500Y-86755131D01*
X123200000Y-86755131D01*
X123200000Y-81849998D01*
X135279318Y-81849998D01*
X135279318Y-81850001D01*
X135299955Y-82006760D01*
X135299956Y-82006762D01*
X135360464Y-82152842D01*
X135453826Y-82274514D01*
X135479020Y-82339683D01*
X135464981Y-82408128D01*
X135453826Y-82425486D01*
X135360464Y-82547157D01*
X135299956Y-82693237D01*
X135299955Y-82693239D01*
X135279318Y-82849998D01*
X135279318Y-82850001D01*
X135299955Y-83006760D01*
X135299956Y-83006762D01*
X135359287Y-83150001D01*
X135360464Y-83152841D01*
X135456718Y-83278282D01*
X135582159Y-83374536D01*
X135728238Y-83435044D01*
X135806619Y-83445363D01*
X135884999Y-83455682D01*
X135885000Y-83455682D01*
X135885001Y-83455682D01*
X135937254Y-83448802D01*
X136041762Y-83435044D01*
X136187841Y-83374536D01*
X136309515Y-83281171D01*
X136374683Y-83255979D01*
X136443127Y-83270017D01*
X136460478Y-83281167D01*
X136582159Y-83374536D01*
X136728238Y-83435044D01*
X136806619Y-83445363D01*
X136884999Y-83455682D01*
X136885000Y-83455682D01*
X136885001Y-83455682D01*
X136937254Y-83448802D01*
X137041762Y-83435044D01*
X137187841Y-83374536D01*
X137313282Y-83278282D01*
X137409536Y-83152841D01*
X137410714Y-83149998D01*
X147519318Y-83149998D01*
X147519318Y-83150001D01*
X147539955Y-83306760D01*
X147539956Y-83306762D01*
X147600464Y-83452842D01*
X147693826Y-83574514D01*
X147719020Y-83639683D01*
X147704981Y-83708128D01*
X147693826Y-83725486D01*
X147600464Y-83847157D01*
X147539956Y-83993237D01*
X147539955Y-83993239D01*
X147519318Y-84149998D01*
X147519318Y-84150001D01*
X147539955Y-84306760D01*
X147539956Y-84306762D01*
X147600464Y-84452841D01*
X147696718Y-84578282D01*
X147822159Y-84674536D01*
X147968238Y-84735044D01*
X148046619Y-84745363D01*
X148124999Y-84755682D01*
X148125000Y-84755682D01*
X148125001Y-84755682D01*
X148177254Y-84748802D01*
X148281762Y-84735044D01*
X148427841Y-84674536D01*
X148549515Y-84581171D01*
X148614683Y-84555979D01*
X148683127Y-84570017D01*
X148700478Y-84581167D01*
X148822159Y-84674536D01*
X148968238Y-84735044D01*
X149046619Y-84745363D01*
X149124999Y-84755682D01*
X149125000Y-84755682D01*
X149125001Y-84755682D01*
X149177254Y-84748802D01*
X149281762Y-84735044D01*
X149427841Y-84674536D01*
X149553282Y-84578282D01*
X149649536Y-84452841D01*
X149710044Y-84306762D01*
X149730682Y-84150000D01*
X149710044Y-83993238D01*
X149649536Y-83847159D01*
X149556171Y-83725484D01*
X149530979Y-83660317D01*
X149545017Y-83591873D01*
X149556167Y-83574521D01*
X149649536Y-83452841D01*
X149710044Y-83306762D01*
X149730682Y-83150000D01*
X149730682Y-83149998D01*
X154519318Y-83149998D01*
X154519318Y-83150001D01*
X154539955Y-83306760D01*
X154539956Y-83306762D01*
X154600464Y-83452842D01*
X154693826Y-83574514D01*
X154719020Y-83639683D01*
X154704981Y-83708128D01*
X154693826Y-83725486D01*
X154600464Y-83847157D01*
X154539956Y-83993237D01*
X154539955Y-83993239D01*
X154519318Y-84149998D01*
X154519318Y-84150001D01*
X154539955Y-84306760D01*
X154539956Y-84306762D01*
X154600464Y-84452841D01*
X154696718Y-84578282D01*
X154822159Y-84674536D01*
X154968238Y-84735044D01*
X155046619Y-84745363D01*
X155124999Y-84755682D01*
X155125000Y-84755682D01*
X155125001Y-84755682D01*
X155177254Y-84748802D01*
X155281762Y-84735044D01*
X155427841Y-84674536D01*
X155549515Y-84581171D01*
X155614683Y-84555979D01*
X155683127Y-84570017D01*
X155700478Y-84581167D01*
X155822159Y-84674536D01*
X155968238Y-84735044D01*
X156046619Y-84745363D01*
X156124999Y-84755682D01*
X156125000Y-84755682D01*
X156125001Y-84755682D01*
X156177254Y-84748802D01*
X156281762Y-84735044D01*
X156427841Y-84674536D01*
X156553282Y-84578282D01*
X156649536Y-84452841D01*
X156710044Y-84306762D01*
X156730682Y-84150000D01*
X156710044Y-83993238D01*
X156649536Y-83847159D01*
X156556171Y-83725484D01*
X156530979Y-83660317D01*
X156545017Y-83591873D01*
X156556167Y-83574521D01*
X156649536Y-83452841D01*
X156710044Y-83306762D01*
X156730682Y-83150000D01*
X156710044Y-82993238D01*
X156671423Y-82899998D01*
X168329318Y-82899998D01*
X168329318Y-82900001D01*
X168349955Y-83056760D01*
X168349956Y-83056762D01*
X168410464Y-83202842D01*
X168503826Y-83324514D01*
X168529020Y-83389683D01*
X168514981Y-83458128D01*
X168503826Y-83475486D01*
X168410464Y-83597157D01*
X168349956Y-83743237D01*
X168349955Y-83743239D01*
X168329318Y-83899998D01*
X168329318Y-83900001D01*
X168349955Y-84056760D01*
X168349956Y-84056762D01*
X168388576Y-84150000D01*
X168410464Y-84202841D01*
X168506718Y-84328282D01*
X168632159Y-84424536D01*
X168778238Y-84485044D01*
X168856619Y-84495363D01*
X168934999Y-84505682D01*
X168935000Y-84505682D01*
X168935001Y-84505682D01*
X168987254Y-84498802D01*
X169091762Y-84485044D01*
X169237841Y-84424536D01*
X169359515Y-84331171D01*
X169424683Y-84305979D01*
X169493127Y-84320017D01*
X169510478Y-84331167D01*
X169632159Y-84424536D01*
X169778238Y-84485044D01*
X169856619Y-84495363D01*
X169934999Y-84505682D01*
X169935000Y-84505682D01*
X169935001Y-84505682D01*
X169987254Y-84498802D01*
X170091762Y-84485044D01*
X170237841Y-84424536D01*
X170363282Y-84328282D01*
X170459536Y-84202841D01*
X170520044Y-84056762D01*
X170540682Y-83900000D01*
X170533725Y-83847159D01*
X170520044Y-83743239D01*
X170520044Y-83743238D01*
X170459536Y-83597159D01*
X170366171Y-83475484D01*
X170340979Y-83410317D01*
X170355017Y-83341873D01*
X170366167Y-83324521D01*
X170459536Y-83202841D01*
X170520044Y-83056762D01*
X170540682Y-82900000D01*
X170534099Y-82850000D01*
X170520044Y-82743239D01*
X170520044Y-82743238D01*
X170459536Y-82597159D01*
X170363282Y-82471718D01*
X170237841Y-82375464D01*
X170091762Y-82314956D01*
X170091760Y-82314955D01*
X169935001Y-82294318D01*
X169934999Y-82294318D01*
X169778239Y-82314955D01*
X169778237Y-82314956D01*
X169632157Y-82375464D01*
X169510486Y-82468826D01*
X169445317Y-82494020D01*
X169376872Y-82479981D01*
X169359514Y-82468826D01*
X169237842Y-82375464D01*
X169091762Y-82314956D01*
X169091760Y-82314955D01*
X168935001Y-82294318D01*
X168934999Y-82294318D01*
X168778239Y-82314955D01*
X168778237Y-82314956D01*
X168632160Y-82375463D01*
X168506718Y-82471718D01*
X168410463Y-82597160D01*
X168349956Y-82743237D01*
X168349955Y-82743239D01*
X168329318Y-82899998D01*
X156671423Y-82899998D01*
X156649536Y-82847159D01*
X156553282Y-82721718D01*
X156427841Y-82625464D01*
X156281762Y-82564956D01*
X156281760Y-82564955D01*
X156125001Y-82544318D01*
X156124999Y-82544318D01*
X155968239Y-82564955D01*
X155968237Y-82564956D01*
X155822157Y-82625464D01*
X155700486Y-82718826D01*
X155635317Y-82744020D01*
X155566872Y-82729981D01*
X155549514Y-82718826D01*
X155427842Y-82625464D01*
X155281762Y-82564956D01*
X155281760Y-82564955D01*
X155125001Y-82544318D01*
X155124999Y-82544318D01*
X154968239Y-82564955D01*
X154968237Y-82564956D01*
X154822160Y-82625463D01*
X154696718Y-82721718D01*
X154600463Y-82847160D01*
X154539956Y-82993237D01*
X154539955Y-82993239D01*
X154519318Y-83149998D01*
X149730682Y-83149998D01*
X149710044Y-82993238D01*
X149649536Y-82847159D01*
X149553282Y-82721718D01*
X149427841Y-82625464D01*
X149281762Y-82564956D01*
X149281760Y-82564955D01*
X149125001Y-82544318D01*
X149124999Y-82544318D01*
X148968239Y-82564955D01*
X148968237Y-82564956D01*
X148822157Y-82625464D01*
X148700486Y-82718826D01*
X148635317Y-82744020D01*
X148566872Y-82729981D01*
X148549514Y-82718826D01*
X148427842Y-82625464D01*
X148281762Y-82564956D01*
X148281760Y-82564955D01*
X148125001Y-82544318D01*
X148124999Y-82544318D01*
X147968239Y-82564955D01*
X147968237Y-82564956D01*
X147822160Y-82625463D01*
X147696718Y-82721718D01*
X147600463Y-82847160D01*
X147539956Y-82993237D01*
X147539955Y-82993239D01*
X147519318Y-83149998D01*
X137410714Y-83149998D01*
X137470044Y-83006762D01*
X137490682Y-82850000D01*
X137470044Y-82693238D01*
X137409536Y-82547159D01*
X137316171Y-82425484D01*
X137290979Y-82360317D01*
X137305017Y-82291873D01*
X137316167Y-82274521D01*
X137409536Y-82152841D01*
X137470044Y-82006762D01*
X137490682Y-81850000D01*
X137470044Y-81693238D01*
X137409536Y-81547159D01*
X137313282Y-81421718D01*
X137187841Y-81325464D01*
X137041762Y-81264956D01*
X137041760Y-81264955D01*
X136885001Y-81244318D01*
X136884999Y-81244318D01*
X136728239Y-81264955D01*
X136728237Y-81264956D01*
X136582157Y-81325464D01*
X136460486Y-81418826D01*
X136395317Y-81444020D01*
X136326872Y-81429981D01*
X136309514Y-81418826D01*
X136187842Y-81325464D01*
X136041762Y-81264956D01*
X136041760Y-81264955D01*
X135885001Y-81244318D01*
X135884999Y-81244318D01*
X135728239Y-81264955D01*
X135728237Y-81264956D01*
X135582160Y-81325463D01*
X135456718Y-81421718D01*
X135360463Y-81547160D01*
X135299956Y-81693237D01*
X135299955Y-81693239D01*
X135279318Y-81849998D01*
X123200000Y-81849998D01*
X123200000Y-80299998D01*
X146679318Y-80299998D01*
X146679318Y-80300001D01*
X146699955Y-80456760D01*
X146699956Y-80456762D01*
X146760464Y-80602841D01*
X146856718Y-80728282D01*
X146982159Y-80824536D01*
X147128238Y-80885044D01*
X147206619Y-80895363D01*
X147284999Y-80905682D01*
X147285000Y-80905682D01*
X147285001Y-80905682D01*
X147337254Y-80898802D01*
X147441762Y-80885044D01*
X147587841Y-80824536D01*
X147713282Y-80728282D01*
X147809536Y-80602841D01*
X147870044Y-80456762D01*
X147890682Y-80300000D01*
X147870044Y-80143238D01*
X147809536Y-79997159D01*
X147713282Y-79871718D01*
X147587841Y-79775464D01*
X147441762Y-79714956D01*
X147441760Y-79714955D01*
X147285001Y-79694318D01*
X147284999Y-79694318D01*
X147128239Y-79714955D01*
X147128237Y-79714956D01*
X146982160Y-79775463D01*
X146856718Y-79871718D01*
X146760463Y-79997160D01*
X146699956Y-80143237D01*
X146699955Y-80143239D01*
X146679318Y-80299998D01*
X123200000Y-80299998D01*
X123200000Y-78605131D01*
X151784500Y-78605131D01*
X151784500Y-80494856D01*
X151784502Y-80494882D01*
X151787413Y-80519987D01*
X151787415Y-80519991D01*
X151832793Y-80622764D01*
X151832794Y-80622765D01*
X151912235Y-80702206D01*
X152015009Y-80747585D01*
X152040135Y-80750500D01*
X153929864Y-80750499D01*
X153929879Y-80750497D01*
X153929882Y-80750497D01*
X153954987Y-80747586D01*
X153954988Y-80747585D01*
X153954991Y-80747585D01*
X154057765Y-80702206D01*
X154137206Y-80622765D01*
X154182585Y-80519991D01*
X154185500Y-80494865D01*
X154185499Y-78605136D01*
X154185497Y-78605117D01*
X154182586Y-78580012D01*
X154182585Y-78580010D01*
X154182585Y-78580009D01*
X154137206Y-78477235D01*
X154057765Y-78397794D01*
X154057763Y-78397793D01*
X153954992Y-78352415D01*
X153929865Y-78349500D01*
X152040143Y-78349500D01*
X152040117Y-78349502D01*
X152015012Y-78352413D01*
X152015008Y-78352415D01*
X151912235Y-78397793D01*
X151832794Y-78477234D01*
X151787415Y-78580006D01*
X151787415Y-78580008D01*
X151784500Y-78605131D01*
X123200000Y-78605131D01*
X123200000Y-65705131D01*
X124274500Y-65705131D01*
X124274500Y-71994856D01*
X124274502Y-71994882D01*
X124277413Y-72019987D01*
X124277415Y-72019991D01*
X124322793Y-72122764D01*
X124322794Y-72122765D01*
X124402235Y-72202206D01*
X124505009Y-72247585D01*
X124530135Y-72250500D01*
X130819864Y-72250499D01*
X130819879Y-72250497D01*
X130819882Y-72250497D01*
X130844987Y-72247586D01*
X130844988Y-72247585D01*
X130844991Y-72247585D01*
X130947765Y-72202206D01*
X131027206Y-72122765D01*
X131072585Y-72019991D01*
X131075500Y-71994865D01*
X131075500Y-69566931D01*
X144084500Y-69566931D01*
X144084500Y-71456656D01*
X144084502Y-71456682D01*
X144087413Y-71481787D01*
X144087415Y-71481791D01*
X144132793Y-71584564D01*
X144132794Y-71584565D01*
X144212235Y-71664006D01*
X144315009Y-71709385D01*
X144340135Y-71712300D01*
X146229864Y-71712299D01*
X146229879Y-71712297D01*
X146229882Y-71712297D01*
X146254987Y-71709386D01*
X146254988Y-71709385D01*
X146254991Y-71709385D01*
X146357765Y-71664006D01*
X146371771Y-71650000D01*
X158709564Y-71650000D01*
X158729287Y-71950918D01*
X158729288Y-71950930D01*
X158788118Y-72246683D01*
X158788122Y-72246698D01*
X158885053Y-72532247D01*
X158885062Y-72532268D01*
X159018431Y-72802713D01*
X159018435Y-72802720D01*
X159185973Y-73053459D01*
X159384810Y-73280189D01*
X159611540Y-73479026D01*
X159862279Y-73646564D01*
X159862286Y-73646568D01*
X160132731Y-73779937D01*
X160132736Y-73779939D01*
X160132748Y-73779945D01*
X160418309Y-73876880D01*
X160618251Y-73916651D01*
X160714069Y-73935711D01*
X160714070Y-73935711D01*
X160714080Y-73935713D01*
X161015000Y-73955436D01*
X161315920Y-73935713D01*
X161611691Y-73876880D01*
X161897252Y-73779945D01*
X162167718Y-73646566D01*
X162418461Y-73479025D01*
X162645189Y-73280189D01*
X162844025Y-73053461D01*
X163011566Y-72802718D01*
X163144945Y-72532252D01*
X163241880Y-72246691D01*
X163300713Y-71950920D01*
X163320436Y-71650000D01*
X171849564Y-71650000D01*
X171869287Y-71950918D01*
X171869288Y-71950930D01*
X171928118Y-72246683D01*
X171928122Y-72246698D01*
X172025053Y-72532247D01*
X172025062Y-72532268D01*
X172158431Y-72802713D01*
X172158435Y-72802720D01*
X172325973Y-73053459D01*
X172524810Y-73280189D01*
X172751540Y-73479026D01*
X173002279Y-73646564D01*
X173002286Y-73646568D01*
X173272731Y-73779937D01*
X173272736Y-73779939D01*
X173272748Y-73779945D01*
X173558309Y-73876880D01*
X173758251Y-73916651D01*
X173854069Y-73935711D01*
X173854070Y-73935711D01*
X173854080Y-73935713D01*
X174155000Y-73955436D01*
X174455920Y-73935713D01*
X174751691Y-73876880D01*
X175037252Y-73779945D01*
X175307718Y-73646566D01*
X175558461Y-73479025D01*
X175785189Y-73280189D01*
X175984025Y-73053461D01*
X176151566Y-72802718D01*
X176284945Y-72532252D01*
X176381880Y-72246691D01*
X176440713Y-71950920D01*
X176460436Y-71650000D01*
X176440713Y-71349080D01*
X176381880Y-71053309D01*
X176284945Y-70767748D01*
X176151566Y-70497282D01*
X175984025Y-70246539D01*
X175785189Y-70019810D01*
X175558459Y-69820973D01*
X175307720Y-69653435D01*
X175307713Y-69653431D01*
X175037268Y-69520062D01*
X175037247Y-69520053D01*
X174751698Y-69423122D01*
X174751692Y-69423120D01*
X174751691Y-69423120D01*
X174751689Y-69423119D01*
X174751683Y-69423118D01*
X174455930Y-69364288D01*
X174455921Y-69364287D01*
X174455920Y-69364287D01*
X174155000Y-69344564D01*
X173854080Y-69364287D01*
X173854079Y-69364287D01*
X173854069Y-69364288D01*
X173558316Y-69423118D01*
X173558301Y-69423122D01*
X173272752Y-69520053D01*
X173272731Y-69520062D01*
X173002286Y-69653431D01*
X173002279Y-69653435D01*
X172751540Y-69820973D01*
X172524810Y-70019810D01*
X172325973Y-70246540D01*
X172158435Y-70497279D01*
X172158431Y-70497286D01*
X172025062Y-70767731D01*
X172025053Y-70767752D01*
X171928122Y-71053301D01*
X171928118Y-71053316D01*
X171869288Y-71349069D01*
X171869287Y-71349081D01*
X171849564Y-71650000D01*
X163320436Y-71650000D01*
X163300713Y-71349080D01*
X163241880Y-71053309D01*
X163144945Y-70767748D01*
X163011566Y-70497282D01*
X162844025Y-70246539D01*
X162645189Y-70019810D01*
X162418459Y-69820973D01*
X162167720Y-69653435D01*
X162167713Y-69653431D01*
X161897268Y-69520062D01*
X161897247Y-69520053D01*
X161611698Y-69423122D01*
X161611692Y-69423120D01*
X161611691Y-69423120D01*
X161611689Y-69423119D01*
X161611683Y-69423118D01*
X161315930Y-69364288D01*
X161315921Y-69364287D01*
X161315920Y-69364287D01*
X161015000Y-69344564D01*
X160714080Y-69364287D01*
X160714079Y-69364287D01*
X160714069Y-69364288D01*
X160418316Y-69423118D01*
X160418301Y-69423122D01*
X160132752Y-69520053D01*
X160132731Y-69520062D01*
X159862286Y-69653431D01*
X159862279Y-69653435D01*
X159611540Y-69820973D01*
X159384810Y-70019810D01*
X159185973Y-70246540D01*
X159018435Y-70497279D01*
X159018431Y-70497286D01*
X158885062Y-70767731D01*
X158885053Y-70767752D01*
X158788122Y-71053301D01*
X158788118Y-71053316D01*
X158729288Y-71349069D01*
X158729287Y-71349081D01*
X158709564Y-71650000D01*
X146371771Y-71650000D01*
X146437206Y-71584565D01*
X146482585Y-71481791D01*
X146485500Y-71456665D01*
X146485499Y-69566936D01*
X146485497Y-69566917D01*
X146482586Y-69541812D01*
X146482585Y-69541810D01*
X146482585Y-69541809D01*
X146437206Y-69439035D01*
X146357765Y-69359594D01*
X146357763Y-69359593D01*
X146254992Y-69314215D01*
X146229865Y-69311300D01*
X144340143Y-69311300D01*
X144340117Y-69311302D01*
X144315012Y-69314213D01*
X144315008Y-69314215D01*
X144212235Y-69359593D01*
X144132794Y-69439034D01*
X144087415Y-69541806D01*
X144087415Y-69541808D01*
X144084500Y-69566931D01*
X131075500Y-69566931D01*
X131075499Y-66149994D01*
X152429556Y-66149994D01*
X152429556Y-66150005D01*
X152449310Y-66464004D01*
X152449311Y-66464011D01*
X152508270Y-66773083D01*
X152605497Y-67072316D01*
X152605499Y-67072321D01*
X152739461Y-67357003D01*
X152739464Y-67357009D01*
X152908051Y-67622661D01*
X152908054Y-67622665D01*
X153108606Y-67865090D01*
X153108608Y-67865092D01*
X153337968Y-68080476D01*
X153337978Y-68080484D01*
X153592504Y-68265408D01*
X153592509Y-68265410D01*
X153592516Y-68265416D01*
X153868234Y-68416994D01*
X153868239Y-68416996D01*
X153868241Y-68416997D01*
X153868242Y-68416998D01*
X154160771Y-68532818D01*
X154160774Y-68532819D01*
X154465523Y-68611065D01*
X154465527Y-68611066D01*
X154531010Y-68619338D01*
X154777670Y-68650499D01*
X154777679Y-68650499D01*
X154777682Y-68650500D01*
X154777684Y-68650500D01*
X155092316Y-68650500D01*
X155092318Y-68650500D01*
X155092321Y-68650499D01*
X155092329Y-68650499D01*
X155278593Y-68626968D01*
X155404473Y-68611066D01*
X155709225Y-68532819D01*
X155709228Y-68532818D01*
X156001757Y-68416998D01*
X156001758Y-68416997D01*
X156001756Y-68416997D01*
X156001766Y-68416994D01*
X156277484Y-68265416D01*
X156532030Y-68080478D01*
X156761390Y-67865094D01*
X156961947Y-67622663D01*
X157130537Y-67357007D01*
X157264503Y-67072315D01*
X157361731Y-66773079D01*
X157420688Y-66464015D01*
X157440444Y-66150000D01*
X157420688Y-65835985D01*
X157361731Y-65526921D01*
X157264503Y-65227685D01*
X157130537Y-64942993D01*
X156961947Y-64677337D01*
X156961945Y-64677334D01*
X156761393Y-64434909D01*
X156761391Y-64434907D01*
X156532031Y-64219523D01*
X156532021Y-64219515D01*
X156277495Y-64034591D01*
X156277488Y-64034586D01*
X156277484Y-64034584D01*
X156001766Y-63883006D01*
X156001763Y-63883004D01*
X156001758Y-63883002D01*
X156001757Y-63883001D01*
X155709228Y-63767181D01*
X155709225Y-63767180D01*
X155404476Y-63688934D01*
X155404463Y-63688932D01*
X155092329Y-63649500D01*
X155092318Y-63649500D01*
X154777682Y-63649500D01*
X154777670Y-63649500D01*
X154465536Y-63688932D01*
X154465523Y-63688934D01*
X154160774Y-63767180D01*
X154160771Y-63767181D01*
X153868242Y-63883001D01*
X153868241Y-63883002D01*
X153592516Y-64034584D01*
X153592504Y-64034591D01*
X153337978Y-64219515D01*
X153337968Y-64219523D01*
X153108608Y-64434907D01*
X153108606Y-64434909D01*
X152908054Y-64677334D01*
X152908051Y-64677338D01*
X152739464Y-64942990D01*
X152739461Y-64942996D01*
X152605499Y-65227678D01*
X152605497Y-65227683D01*
X152508270Y-65526916D01*
X152449311Y-65835988D01*
X152449310Y-65835995D01*
X152429556Y-66149994D01*
X131075499Y-66149994D01*
X131075499Y-65705136D01*
X131075497Y-65705117D01*
X131072586Y-65680012D01*
X131072585Y-65680010D01*
X131072585Y-65680009D01*
X131027206Y-65577235D01*
X130947765Y-65497794D01*
X130947763Y-65497793D01*
X130844992Y-65452415D01*
X130819865Y-65449500D01*
X124530143Y-65449500D01*
X124530117Y-65449502D01*
X124505012Y-65452413D01*
X124505008Y-65452415D01*
X124402235Y-65497793D01*
X124322794Y-65577234D01*
X124277415Y-65680006D01*
X124277415Y-65680008D01*
X124274500Y-65705131D01*
X123200000Y-65705131D01*
X123200000Y-62657395D01*
X123206958Y-62616442D01*
X123218643Y-62583047D01*
X123259364Y-62526270D01*
X123324316Y-62500522D01*
X123335685Y-62500000D01*
X177276000Y-62500000D01*
X177343039Y-62519685D01*
G37*
%TD.AperFunction*%
%TD*%
M02*
