%TF.GenerationSoftware,KiCad,Pcbnew,8.0.3-8.0.3-0~ubuntu22.04.1*%
%TF.CreationDate,2024-07-11T21:31:44-06:00*%
%TF.ProjectId,FCC_KiCAD,4643435f-4b69-4434-9144-2e6b69636164,rev?*%
%TF.SameCoordinates,Original*%
%TF.FileFunction,Copper,L3,Inr*%
%TF.FilePolarity,Positive*%
%FSLAX46Y46*%
G04 Gerber Fmt 4.6, Leading zero omitted, Abs format (unit mm)*
G04 Created by KiCad (PCBNEW 8.0.3-8.0.3-0~ubuntu22.04.1) date 2024-07-11 21:31:44*
%MOMM*%
%LPD*%
G01*
G04 APERTURE LIST*
%TA.AperFunction,ComponentPad*%
%ADD10R,2.000000X1.300000*%
%TD*%
%TA.AperFunction,ComponentPad*%
%ADD11O,2.000000X1.300000*%
%TD*%
%TA.AperFunction,ComponentPad*%
%ADD12C,4.400000*%
%TD*%
%TA.AperFunction,ComponentPad*%
%ADD13R,6.200000X6.200000*%
%TD*%
%TA.AperFunction,ComponentPad*%
%ADD14C,6.200000*%
%TD*%
%TA.AperFunction,ComponentPad*%
%ADD15C,0.600000*%
%TD*%
%TA.AperFunction,ComponentPad*%
%ADD16R,1.750000X1.750000*%
%TD*%
%TA.AperFunction,ComponentPad*%
%ADD17C,1.750000*%
%TD*%
%TA.AperFunction,ComponentPad*%
%ADD18R,1.800000X1.800000*%
%TD*%
%TA.AperFunction,ComponentPad*%
%ADD19C,1.800000*%
%TD*%
%TA.AperFunction,ComponentPad*%
%ADD20C,2.500000*%
%TD*%
%TA.AperFunction,ComponentPad*%
%ADD21C,2.700000*%
%TD*%
%TA.AperFunction,ComponentPad*%
%ADD22C,4.000000*%
%TD*%
%TA.AperFunction,ViaPad*%
%ADD23C,0.600000*%
%TD*%
G04 APERTURE END LIST*
D10*
%TO.N,/I2C + CANBUS/CAN1H*%
%TO.C,J4*%
X128510000Y-87450000D03*
D11*
%TO.N,/I2C + CANBUS/CAN1L*%
X128510000Y-89450000D03*
%TD*%
D10*
%TO.N,/I2C + CANBUS/CAN1H*%
%TO.C,J5*%
X128510000Y-94200000D03*
D11*
%TO.N,/I2C + CANBUS/CAN1L*%
X128510000Y-96200000D03*
%TD*%
D10*
%TO.N,/I2C + CANBUS/CAN2H*%
%TO.C,J6*%
X172085000Y-96250000D03*
D11*
%TO.N,/I2C + CANBUS/CAN2L*%
X172085000Y-94250000D03*
%TD*%
D10*
%TO.N,/I2C + CANBUS/CAN2H*%
%TO.C,J7*%
X172085000Y-89500000D03*
D11*
%TO.N,/I2C + CANBUS/CAN2L*%
X172085000Y-87500000D03*
%TD*%
D12*
%TO.N,N/C*%
%TO.C,H3*%
X174935000Y-128860000D03*
%TD*%
D13*
%TO.N,+BATT*%
%TO.C,J8*%
X127675000Y-68850000D03*
D14*
%TO.N,GND*%
X127675000Y-76050000D03*
%TD*%
D12*
%TO.N,N/C*%
%TO.C,H1*%
X154935000Y-66150000D03*
%TD*%
D15*
%TO.N,GND*%
%TO.C,U2*%
X142174800Y-117575000D03*
X140600000Y-117575000D03*
X141387400Y-118362400D03*
X142174800Y-119149800D03*
X140600000Y-119149800D03*
%TD*%
D16*
%TO.N,Net-(J2-Pin_1)*%
%TO.C,J2*%
X134300000Y-94360000D03*
D17*
%TO.N,/I2C + CANBUS/CAN1H*%
X136840000Y-94360000D03*
%TO.N,Net-(J2-Pin_3)*%
X134300000Y-96900000D03*
%TO.N,/I2C + CANBUS/CAN1H*%
X136840000Y-96900000D03*
%TD*%
D18*
%TO.N,+BATT*%
%TO.C,C31*%
X145285000Y-70511800D03*
D19*
%TO.N,GND*%
X145285000Y-65000000D03*
%TD*%
D20*
%TO.N,Net-(J1-In)*%
%TO.C,J1*%
X133685000Y-127400000D03*
D21*
%TO.N,GND*%
X136225000Y-124860000D03*
X131145000Y-124860000D03*
X136225000Y-129940000D03*
X131145000Y-129940000D03*
%TD*%
D12*
%TO.N,N/C*%
%TO.C,H2*%
X125685000Y-128860000D03*
%TD*%
D18*
%TO.N,/POWER + USB/5VDCDC*%
%TO.C,C36*%
X152985000Y-79550000D03*
D19*
%TO.N,GND*%
X152985000Y-74038200D03*
%TD*%
D15*
%TO.N,GND*%
%TO.C,U9*%
X149825000Y-97550000D03*
X151175000Y-98300000D03*
X148475000Y-98300000D03*
X149825000Y-99050000D03*
%TD*%
D16*
%TO.N,Net-(J3-Pin_1)*%
%TO.C,J3*%
X166270000Y-97075000D03*
D17*
%TO.N,/I2C + CANBUS/CAN2L*%
X163730000Y-97075000D03*
%TO.N,Net-(J3-Pin_3)*%
X166270000Y-94535000D03*
%TO.N,/I2C + CANBUS/CAN2L*%
X163730000Y-94535000D03*
%TD*%
D22*
%TO.N,unconnected-(J9-SHIELD1-PadSH1)*%
%TO.C,J9*%
X174155000Y-71650000D03*
%TO.N,unconnected-(J9-SHIELD2-PadSH2)*%
X161015000Y-71650000D03*
%TD*%
D17*
%TO.N,+3V3*%
%TO.C,J11*%
X125685000Y-101320000D03*
%TO.N,GND*%
X125685000Y-103860000D03*
%TO.N,/MCU + PAYLOAD/GPIO1*%
X125685000Y-106400000D03*
%TO.N,/MCU + PAYLOAD/GPIO2*%
X125685000Y-108940000D03*
%TO.N,/MCU + PAYLOAD/GPIO3*%
X125685000Y-111480000D03*
%TO.N,/MCU + PAYLOAD/UART_TX*%
X125685000Y-114020000D03*
%TO.N,/MCU + PAYLOAD/UART_RX*%
X125685000Y-116560000D03*
%TO.N,MISO*%
X125685000Y-119100000D03*
%TO.N,SCLK*%
X125685000Y-121640000D03*
%TO.N,MOSI*%
X125685000Y-124180000D03*
%TD*%
%TO.N,+5V*%
%TO.C,J12*%
X174885000Y-101320000D03*
%TO.N,GND*%
X174885000Y-103860000D03*
%TO.N,/MCU + PAYLOAD/GPIO4*%
X174885000Y-106400000D03*
%TO.N,/MCU + PAYLOAD/GPIO5*%
X174885000Y-108940000D03*
%TO.N,/MCU + PAYLOAD/GPIO6*%
X174885000Y-111480000D03*
%TO.N,/MCU + PAYLOAD/GPIO7*%
X174885000Y-114020000D03*
%TO.N,/MCU + PAYLOAD/GPIO8*%
X174885000Y-116560000D03*
%TO.N,/MCU + PAYLOAD/GPIO9*%
X174885000Y-119100000D03*
%TO.N,SCL*%
X174885000Y-121640000D03*
%TO.N,SDA*%
X174885000Y-124180000D03*
%TD*%
D23*
%TO.N,GND*%
X156500000Y-105950000D03*
X176400000Y-83300000D03*
X133350000Y-90895000D03*
X141125000Y-128575000D03*
X144100000Y-123150000D03*
X144900001Y-103899999D03*
X161710049Y-75789784D03*
X167205000Y-90955000D03*
X146750000Y-84450000D03*
X150625000Y-88200000D03*
X163000000Y-126450000D03*
X161710049Y-74789784D03*
X145235000Y-77600000D03*
X153025000Y-83950000D03*
X158100000Y-102800000D03*
X162350000Y-121700000D03*
X161580000Y-100925000D03*
X153800000Y-127400000D03*
X144575000Y-89250000D03*
X142900000Y-108976999D03*
X156300000Y-127400000D03*
X139800001Y-108499999D03*
X144200000Y-117050000D03*
X146235000Y-77600000D03*
X169030000Y-90930000D03*
X155465001Y-114450000D03*
X145235000Y-76600000D03*
X143437400Y-123992400D03*
X154700000Y-114800000D03*
X153583412Y-111603300D03*
X168550000Y-113850000D03*
X148650000Y-119700000D03*
X156875000Y-89800000D03*
X155450000Y-122050000D03*
X169650000Y-115050000D03*
X136100000Y-108350000D03*
X148825000Y-99900000D03*
X152050000Y-122000000D03*
X165500000Y-115800000D03*
X164300000Y-116850000D03*
X132385000Y-70600000D03*
X167025000Y-116325000D03*
X137200000Y-106900000D03*
X144850000Y-119600000D03*
X135485000Y-64200000D03*
X146490000Y-117092400D03*
X146235000Y-76600000D03*
X164975000Y-125025000D03*
X144325000Y-92300000D03*
X167770000Y-121950000D03*
X143400001Y-107449999D03*
X157950000Y-96900000D03*
X174085000Y-82725000D03*
X146450000Y-97900000D03*
X136326079Y-110723922D03*
X138775000Y-122875000D03*
X136040000Y-111500000D03*
X162800000Y-105400000D03*
X132750000Y-117500000D03*
X131850000Y-109100002D03*
X132385000Y-71600000D03*
X154700000Y-115800000D03*
X140612400Y-113167400D03*
X151750000Y-116600000D03*
X135485000Y-63200000D03*
X143187400Y-123092400D03*
X131450000Y-90895000D03*
X175300000Y-77350000D03*
X167770000Y-123000000D03*
X145925000Y-84100000D03*
X176300000Y-77350000D03*
X136037400Y-118042400D03*
X163850000Y-123023000D03*
X147300000Y-101600000D03*
X140600000Y-104900000D03*
X168105000Y-90005000D03*
X167770000Y-120900000D03*
X145725000Y-93500000D03*
X164500000Y-114700000D03*
X136337400Y-119692400D03*
X148400000Y-105300000D03*
X157810000Y-105380000D03*
X167150000Y-126450000D03*
X150025000Y-95250000D03*
X150825000Y-99900000D03*
X132400000Y-89970000D03*
X142950000Y-99500000D03*
X163770000Y-121450000D03*
X163400000Y-120000000D03*
X154175000Y-86850000D03*
X152500000Y-127400000D03*
X151025000Y-94250000D03*
X147150000Y-90650000D03*
X134281644Y-109427000D03*
X150700000Y-116600000D03*
X162710049Y-74789784D03*
X151025000Y-95250000D03*
X174100000Y-81130000D03*
X168500000Y-79900000D03*
X138787400Y-123792400D03*
X150025000Y-94250000D03*
X166500000Y-111900000D03*
X136362400Y-122317400D03*
X138200000Y-129190000D03*
X139500000Y-113160000D03*
X138925000Y-102150000D03*
X162710049Y-75789784D03*
X151373000Y-111550000D03*
X133787400Y-121692400D03*
X143650000Y-104850000D03*
X151725000Y-88700000D03*
%TO.N,/POWER + USB/5VBUS_FILT*%
X155125000Y-83150000D03*
X168935000Y-83900000D03*
X156125000Y-84150000D03*
X155125000Y-84150000D03*
X169935000Y-82900000D03*
X169935000Y-83900000D03*
X168935000Y-82900000D03*
X156125000Y-83150000D03*
%TO.N,/POWER + USB/5VDCDC*%
X149125000Y-84150000D03*
X149125000Y-83150000D03*
X147285000Y-80300000D03*
X148125000Y-83150000D03*
X136885000Y-81850000D03*
X135885000Y-81850000D03*
X136885000Y-82850000D03*
X148125000Y-84150000D03*
X135885000Y-82850000D03*
%TO.N,+5V*%
X154625000Y-91650000D03*
X153625000Y-91650000D03*
X154625000Y-92650000D03*
X153625000Y-92650000D03*
%TO.N,+3V3*%
X143037400Y-120342400D03*
X156350000Y-103653356D03*
X165230000Y-104170000D03*
X161580000Y-102225000D03*
X161050000Y-105100000D03*
X138087400Y-118867400D03*
X158000000Y-120450000D03*
X155265001Y-105000000D03*
X148325000Y-95250000D03*
X167800000Y-111900000D03*
X166150000Y-114450000D03*
X140613714Y-115709905D03*
X151750000Y-114000000D03*
X148325000Y-96250000D03*
X131850000Y-110050002D03*
X147325000Y-96250000D03*
X152600000Y-113950000D03*
X144687400Y-118042400D03*
X139587400Y-120342400D03*
X143837400Y-120342400D03*
X147325000Y-95250000D03*
X164975000Y-117375000D03*
X166950000Y-115050000D03*
X165220000Y-121050000D03*
X146750000Y-104950000D03*
X147325000Y-94250000D03*
X147565001Y-104200000D03*
X165220000Y-121950000D03*
X154465001Y-112700000D03*
X148325000Y-94250000D03*
X138925000Y-100900000D03*
X149450000Y-125150000D03*
X162520000Y-120200000D03*
X136300000Y-109200000D03*
X161050000Y-111650000D03*
%TO.N,/MCU + PAYLOAD/NRST*%
X148800000Y-108699999D03*
X155450000Y-123050000D03*
%TO.N,/MCU + PAYLOAD/SWDIO*%
X152950000Y-110150000D03*
X154000000Y-117300000D03*
%TO.N,/MCU + PAYLOAD/SWCLK*%
X152000000Y-108375000D03*
X153250000Y-121800000D03*
%TO.N,/MCU + PAYLOAD/SWO*%
X152500000Y-119850000D03*
X150750000Y-109600000D03*
%TO.N,SCLK*%
X133950000Y-112650000D03*
X142850000Y-115600000D03*
%TO.N,/MCU + PAYLOAD/GPIO3*%
X144650000Y-105800000D03*
%TO.N,/MCU + PAYLOAD/GPIO1*%
X149800000Y-101350000D03*
%TO.N,/MCU + PAYLOAD/GPIO2*%
X145550000Y-105725000D03*
%TO.N,MISO*%
X133550000Y-111000000D03*
X142300000Y-114850000D03*
%TO.N,MOSI*%
X132700000Y-112525000D03*
X143500000Y-116350000D03*
%TO.N,/MCU + PAYLOAD/GPIO6*%
X154000000Y-108046698D03*
%TO.N,/MCU + PAYLOAD/GPIO4*%
X152300000Y-102650000D03*
%TO.N,SDA*%
X160950000Y-120500000D03*
X163800000Y-115400000D03*
%TO.N,/MCU + PAYLOAD/GPIO7*%
X159550000Y-109800000D03*
%TO.N,/MCU + PAYLOAD/GPIO5*%
X153800000Y-102950000D03*
%TO.N,SCL*%
X162050000Y-122550000D03*
X165250000Y-114350000D03*
%TO.N,/MCU + PAYLOAD/GPIO9*%
X156400000Y-112050000D03*
%TO.N,/MCU + PAYLOAD/GPIO8*%
X154050000Y-110700000D03*
%TO.N,ACCEL_INT*%
X134700000Y-107600000D03*
X144891324Y-106939145D03*
%TO.N,ACCEL_~{CS}*%
X143550000Y-111650000D03*
X133550000Y-108800000D03*
%TO.N,GYRO_INT*%
X147925000Y-109975000D03*
X133750000Y-110150000D03*
%TO.N,CC2500_GDO0*%
X144700000Y-113225000D03*
X149400000Y-111527000D03*
%TO.N,CC2500_~{CS}*%
X148550000Y-110900000D03*
X145600000Y-112400000D03*
%TO.N,CC2500_GDO2*%
X143850000Y-114100000D03*
X149300000Y-114480856D03*
%TO.N,CAN1_TX*%
X144900000Y-102800000D03*
X148700000Y-102800000D03*
%TO.N,CAN2_TX*%
X158000000Y-100750000D03*
X161345000Y-99675000D03*
%TO.N,CAN2_RX*%
X157400000Y-101800000D03*
X161345000Y-103475000D03*
%TD*%
%TA.AperFunction,Conductor*%
%TO.N,/POWER + USB/5VDCDC*%
G36*
X153943039Y-78519685D02*
G01*
X153988794Y-78572489D01*
X154000000Y-78624000D01*
X154000000Y-80844315D01*
X153980315Y-80911354D01*
X153958381Y-80936994D01*
X152200000Y-82500000D01*
X152200000Y-86076000D01*
X152180315Y-86143039D01*
X152127511Y-86188794D01*
X152076000Y-86200000D01*
X135025621Y-86200000D01*
X134958582Y-86180315D01*
X134912827Y-86127511D01*
X134901631Y-86074390D01*
X134919689Y-84683983D01*
X134927273Y-84099998D01*
X145319318Y-84099998D01*
X145319318Y-84100001D01*
X145339955Y-84256760D01*
X145339956Y-84256762D01*
X145400464Y-84402841D01*
X145496718Y-84528282D01*
X145622159Y-84624536D01*
X145768238Y-84685044D01*
X145846619Y-84695363D01*
X145924999Y-84705682D01*
X145925000Y-84705682D01*
X145925001Y-84705682D01*
X146002105Y-84695530D01*
X146081762Y-84685044D01*
X146081762Y-84685043D01*
X146089820Y-84683983D01*
X146090023Y-84685526D01*
X146150628Y-84686962D01*
X146208495Y-84726118D01*
X146220605Y-84746252D01*
X146221396Y-84745796D01*
X146225462Y-84752837D01*
X146225464Y-84752841D01*
X146321718Y-84878282D01*
X146447159Y-84974536D01*
X146593238Y-85035044D01*
X146671619Y-85045363D01*
X146749999Y-85055682D01*
X146750000Y-85055682D01*
X146750001Y-85055682D01*
X146802254Y-85048802D01*
X146906762Y-85035044D01*
X147052841Y-84974536D01*
X147178282Y-84878282D01*
X147274536Y-84752841D01*
X147335044Y-84606762D01*
X147355682Y-84450000D01*
X147349473Y-84402841D01*
X147335044Y-84293239D01*
X147335044Y-84293238D01*
X147274536Y-84147159D01*
X147178282Y-84021718D01*
X147052841Y-83925464D01*
X146906762Y-83864956D01*
X146906760Y-83864955D01*
X146750001Y-83844318D01*
X146749999Y-83844318D01*
X146672894Y-83854469D01*
X146593238Y-83864956D01*
X146593237Y-83864956D01*
X146585180Y-83866017D01*
X146584977Y-83864478D01*
X146524346Y-83863029D01*
X146466487Y-83823861D01*
X146454391Y-83803738D01*
X146453599Y-83804196D01*
X146449539Y-83797163D01*
X146446527Y-83793238D01*
X146353282Y-83671718D01*
X146227841Y-83575464D01*
X146081762Y-83514956D01*
X146081760Y-83514955D01*
X145925001Y-83494318D01*
X145924999Y-83494318D01*
X145768239Y-83514955D01*
X145768237Y-83514956D01*
X145622160Y-83575463D01*
X145496718Y-83671718D01*
X145400463Y-83797160D01*
X145339956Y-83943237D01*
X145339955Y-83943239D01*
X145319318Y-84099998D01*
X134927273Y-84099998D01*
X134968831Y-80900000D01*
X134998411Y-78622390D01*
X135018965Y-78555612D01*
X135072359Y-78510546D01*
X135122401Y-78500000D01*
X153876000Y-78500000D01*
X153943039Y-78519685D01*
G37*
%TD.AperFunction*%
%TD*%
%TA.AperFunction,Conductor*%
%TO.N,/POWER + USB/5VBUS_FILT*%
G36*
X171043039Y-82019685D02*
G01*
X171088794Y-82072489D01*
X171100000Y-82124000D01*
X171100000Y-85076000D01*
X171080315Y-85143039D01*
X171027511Y-85188794D01*
X170976000Y-85200000D01*
X154224000Y-85200000D01*
X154156961Y-85180315D01*
X154111206Y-85127511D01*
X154100000Y-85076000D01*
X154100000Y-82124000D01*
X154119685Y-82056961D01*
X154172489Y-82011206D01*
X154224000Y-82000000D01*
X170976000Y-82000000D01*
X171043039Y-82019685D01*
G37*
%TD.AperFunction*%
%TD*%
%TA.AperFunction,Conductor*%
%TO.N,+5V*%
G36*
X177143039Y-85719685D02*
G01*
X177188794Y-85772489D01*
X177200000Y-85824000D01*
X177200000Y-102576000D01*
X177180315Y-102643039D01*
X177127511Y-102688794D01*
X177076000Y-102700000D01*
X175088336Y-102700000D01*
X175065552Y-102697889D01*
X175016897Y-102688794D01*
X174993926Y-102684500D01*
X174776074Y-102684500D01*
X174753103Y-102688794D01*
X174704448Y-102697889D01*
X174681664Y-102700000D01*
X167724000Y-102700000D01*
X167656961Y-102680315D01*
X167611206Y-102627511D01*
X167600000Y-102576000D01*
X167600000Y-94156379D01*
X170784500Y-94156379D01*
X170784500Y-94343620D01*
X170821025Y-94527243D01*
X170821027Y-94527251D01*
X170892676Y-94700228D01*
X170892681Y-94700237D01*
X170996697Y-94855907D01*
X170996700Y-94855911D01*
X171129088Y-94988299D01*
X171129096Y-94988305D01*
X171254950Y-95072398D01*
X171299756Y-95126010D01*
X171308463Y-95195335D01*
X171278309Y-95258362D01*
X171218866Y-95295082D01*
X171186061Y-95299500D01*
X171040144Y-95299500D01*
X171040117Y-95299502D01*
X171015012Y-95302413D01*
X171015008Y-95302415D01*
X170912235Y-95347793D01*
X170832794Y-95427234D01*
X170787415Y-95530006D01*
X170787415Y-95530008D01*
X170784500Y-95555131D01*
X170784500Y-96944856D01*
X170784502Y-96944882D01*
X170787413Y-96969987D01*
X170787415Y-96969991D01*
X170832793Y-97072764D01*
X170832794Y-97072765D01*
X170912235Y-97152206D01*
X171015009Y-97197585D01*
X171040135Y-97200500D01*
X173129864Y-97200499D01*
X173129879Y-97200497D01*
X173129882Y-97200497D01*
X173154987Y-97197586D01*
X173154988Y-97197585D01*
X173154991Y-97197585D01*
X173257765Y-97152206D01*
X173337206Y-97072765D01*
X173382585Y-96969991D01*
X173385500Y-96944865D01*
X173385499Y-95555136D01*
X173385497Y-95555117D01*
X173382586Y-95530012D01*
X173382585Y-95530010D01*
X173382585Y-95530009D01*
X173337206Y-95427235D01*
X173257765Y-95347794D01*
X173218195Y-95330322D01*
X173154992Y-95302415D01*
X173129868Y-95299500D01*
X172983941Y-95299500D01*
X172916902Y-95279815D01*
X172871147Y-95227011D01*
X172861203Y-95157853D01*
X172890228Y-95094297D01*
X172915050Y-95072398D01*
X172962911Y-95040417D01*
X173040908Y-94988302D01*
X173173302Y-94855908D01*
X173277322Y-94700231D01*
X173348973Y-94527251D01*
X173385500Y-94343616D01*
X173385500Y-94156384D01*
X173348973Y-93972749D01*
X173277322Y-93799769D01*
X173277321Y-93799768D01*
X173277318Y-93799762D01*
X173173302Y-93644092D01*
X173173299Y-93644088D01*
X173040911Y-93511700D01*
X173040907Y-93511697D01*
X172885237Y-93407681D01*
X172885228Y-93407676D01*
X172712251Y-93336027D01*
X172712243Y-93336025D01*
X172528620Y-93299500D01*
X172528616Y-93299500D01*
X171641384Y-93299500D01*
X171641379Y-93299500D01*
X171457756Y-93336025D01*
X171457748Y-93336027D01*
X171284771Y-93407676D01*
X171284762Y-93407681D01*
X171129092Y-93511697D01*
X171129088Y-93511700D01*
X170996700Y-93644088D01*
X170996697Y-93644092D01*
X170892681Y-93799762D01*
X170892676Y-93799771D01*
X170821027Y-93972748D01*
X170821025Y-93972756D01*
X170784500Y-94156379D01*
X167600000Y-94156379D01*
X167600000Y-93400000D01*
X166607074Y-93400000D01*
X166584291Y-93397889D01*
X166378926Y-93359500D01*
X166161074Y-93359500D01*
X165955708Y-93397889D01*
X165932926Y-93400000D01*
X164067074Y-93400000D01*
X164044291Y-93397889D01*
X163838926Y-93359500D01*
X163621074Y-93359500D01*
X163415708Y-93397889D01*
X163392926Y-93400000D01*
X153124000Y-93400000D01*
X153056961Y-93380315D01*
X153011206Y-93327511D01*
X153000000Y-93276000D01*
X153000000Y-90954998D01*
X166599318Y-90954998D01*
X166599318Y-90955001D01*
X166619955Y-91111760D01*
X166619956Y-91111762D01*
X166680464Y-91257841D01*
X166776718Y-91383282D01*
X166902159Y-91479536D01*
X167048238Y-91540044D01*
X167126619Y-91550363D01*
X167204999Y-91560682D01*
X167205000Y-91560682D01*
X167205001Y-91560682D01*
X167257254Y-91553802D01*
X167361762Y-91540044D01*
X167507841Y-91479536D01*
X167633282Y-91383282D01*
X167729536Y-91257841D01*
X167790044Y-91111762D01*
X167810682Y-90955000D01*
X167807390Y-90929998D01*
X167790044Y-90798240D01*
X167790044Y-90798239D01*
X167790044Y-90798238D01*
X167767743Y-90744400D01*
X167760275Y-90674934D01*
X167791550Y-90612455D01*
X167851638Y-90576802D01*
X167921463Y-90579295D01*
X167929750Y-90582386D01*
X167948238Y-90590044D01*
X168015286Y-90598871D01*
X168104999Y-90610682D01*
X168105000Y-90610682D01*
X168105001Y-90610682D01*
X168157254Y-90603802D01*
X168261762Y-90590044D01*
X168297920Y-90575066D01*
X168367386Y-90567597D01*
X168429866Y-90598871D01*
X168465520Y-90658959D01*
X168463027Y-90728784D01*
X168459933Y-90737079D01*
X168444957Y-90773234D01*
X168444955Y-90773239D01*
X168424318Y-90929998D01*
X168424318Y-90930001D01*
X168444955Y-91086760D01*
X168444956Y-91086762D01*
X168455310Y-91111760D01*
X168505464Y-91232841D01*
X168601718Y-91358282D01*
X168727159Y-91454536D01*
X168873238Y-91515044D01*
X168951619Y-91525363D01*
X169029999Y-91535682D01*
X169030000Y-91535682D01*
X169030001Y-91535682D01*
X169082254Y-91528802D01*
X169186762Y-91515044D01*
X169332841Y-91454536D01*
X169458282Y-91358282D01*
X169554536Y-91232841D01*
X169615044Y-91086762D01*
X169635682Y-90930000D01*
X169615044Y-90773238D01*
X169554536Y-90627159D01*
X169458282Y-90501718D01*
X169332841Y-90405464D01*
X169283540Y-90385043D01*
X169186762Y-90344956D01*
X169186760Y-90344955D01*
X169030001Y-90324318D01*
X169029999Y-90324318D01*
X168873239Y-90344955D01*
X168873234Y-90344957D01*
X168837079Y-90359933D01*
X168767609Y-90367402D01*
X168705130Y-90336126D01*
X168669478Y-90276037D01*
X168671973Y-90206212D01*
X168675057Y-90197943D01*
X168690044Y-90161762D01*
X168710682Y-90005000D01*
X168704331Y-89956762D01*
X168690044Y-89848239D01*
X168690044Y-89848238D01*
X168629536Y-89702159D01*
X168533282Y-89576718D01*
X168407841Y-89480464D01*
X168261762Y-89419956D01*
X168261760Y-89419955D01*
X168105001Y-89399318D01*
X168104999Y-89399318D01*
X167948239Y-89419955D01*
X167948237Y-89419956D01*
X167802160Y-89480463D01*
X167676718Y-89576718D01*
X167580463Y-89702160D01*
X167519956Y-89848237D01*
X167519955Y-89848239D01*
X167499318Y-90004998D01*
X167499318Y-90005001D01*
X167519955Y-90161760D01*
X167519956Y-90161762D01*
X167542255Y-90215596D01*
X167549724Y-90285066D01*
X167518449Y-90347545D01*
X167458360Y-90383197D01*
X167388535Y-90380703D01*
X167380243Y-90377611D01*
X167361762Y-90369956D01*
X167361760Y-90369955D01*
X167205001Y-90349318D01*
X167204999Y-90349318D01*
X167048239Y-90369955D01*
X167048237Y-90369956D01*
X166902160Y-90430463D01*
X166776718Y-90526718D01*
X166680463Y-90652160D01*
X166619956Y-90798237D01*
X166619955Y-90798239D01*
X166599318Y-90954998D01*
X153000000Y-90954998D01*
X153000000Y-89799998D01*
X156269318Y-89799998D01*
X156269318Y-89800001D01*
X156289955Y-89956760D01*
X156289956Y-89956762D01*
X156350464Y-90102841D01*
X156446718Y-90228282D01*
X156572159Y-90324536D01*
X156718238Y-90385044D01*
X156796619Y-90395363D01*
X156874999Y-90405682D01*
X156875000Y-90405682D01*
X156875001Y-90405682D01*
X156927254Y-90398802D01*
X157031762Y-90385044D01*
X157177841Y-90324536D01*
X157303282Y-90228282D01*
X157399536Y-90102841D01*
X157460044Y-89956762D01*
X157480682Y-89800000D01*
X157460044Y-89643238D01*
X157399536Y-89497159D01*
X157303282Y-89371718D01*
X157177841Y-89275464D01*
X157031762Y-89214956D01*
X157031760Y-89214955D01*
X156875001Y-89194318D01*
X156874999Y-89194318D01*
X156718239Y-89214955D01*
X156718237Y-89214956D01*
X156572160Y-89275463D01*
X156446718Y-89371718D01*
X156350463Y-89497160D01*
X156289956Y-89643237D01*
X156289955Y-89643239D01*
X156269318Y-89799998D01*
X153000000Y-89799998D01*
X153000000Y-89707366D01*
X153019685Y-89640327D01*
X153043718Y-89612862D01*
X155641223Y-87406379D01*
X170784500Y-87406379D01*
X170784500Y-87593620D01*
X170821025Y-87777243D01*
X170821027Y-87777251D01*
X170892676Y-87950228D01*
X170892681Y-87950237D01*
X170996697Y-88105907D01*
X170996700Y-88105911D01*
X171129088Y-88238299D01*
X171129096Y-88238305D01*
X171254950Y-88322398D01*
X171299756Y-88376010D01*
X171308463Y-88445335D01*
X171278309Y-88508362D01*
X171218866Y-88545082D01*
X171186061Y-88549500D01*
X171040144Y-88549500D01*
X171040117Y-88549502D01*
X171015012Y-88552413D01*
X171015008Y-88552415D01*
X170912235Y-88597793D01*
X170832794Y-88677234D01*
X170787415Y-88780006D01*
X170787415Y-88780008D01*
X170784500Y-88805131D01*
X170784500Y-90194856D01*
X170784502Y-90194882D01*
X170787413Y-90219987D01*
X170787415Y-90219991D01*
X170832793Y-90322764D01*
X170832794Y-90322765D01*
X170912235Y-90402206D01*
X171015009Y-90447585D01*
X171040135Y-90450500D01*
X173129864Y-90450499D01*
X173129879Y-90450497D01*
X173129882Y-90450497D01*
X173154987Y-90447586D01*
X173154988Y-90447585D01*
X173154991Y-90447585D01*
X173257765Y-90402206D01*
X173337206Y-90322765D01*
X173382585Y-90219991D01*
X173385500Y-90194865D01*
X173385499Y-88805136D01*
X173385497Y-88805117D01*
X173382586Y-88780012D01*
X173382585Y-88780010D01*
X173382585Y-88780009D01*
X173337206Y-88677235D01*
X173257765Y-88597794D01*
X173257763Y-88597793D01*
X173154992Y-88552415D01*
X173129868Y-88549500D01*
X172983941Y-88549500D01*
X172916902Y-88529815D01*
X172871147Y-88477011D01*
X172861203Y-88407853D01*
X172890228Y-88344297D01*
X172915050Y-88322398D01*
X172962911Y-88290417D01*
X173040908Y-88238302D01*
X173173302Y-88105908D01*
X173277322Y-87950231D01*
X173348973Y-87777251D01*
X173385500Y-87593616D01*
X173385500Y-87406384D01*
X173348973Y-87222749D01*
X173277322Y-87049769D01*
X173277321Y-87049768D01*
X173277318Y-87049762D01*
X173173302Y-86894092D01*
X173173299Y-86894088D01*
X173040911Y-86761700D01*
X173040907Y-86761697D01*
X172885237Y-86657681D01*
X172885228Y-86657676D01*
X172712251Y-86586027D01*
X172712243Y-86586025D01*
X172528620Y-86549500D01*
X172528616Y-86549500D01*
X171641384Y-86549500D01*
X171641379Y-86549500D01*
X171457756Y-86586025D01*
X171457748Y-86586027D01*
X171284771Y-86657676D01*
X171284762Y-86657681D01*
X171129092Y-86761697D01*
X171129088Y-86761700D01*
X170996700Y-86894088D01*
X170996697Y-86894092D01*
X170892681Y-87049762D01*
X170892676Y-87049771D01*
X170821027Y-87222748D01*
X170821025Y-87222756D01*
X170784500Y-87406379D01*
X155641223Y-87406379D01*
X157615279Y-85729493D01*
X157679117Y-85701095D01*
X157695558Y-85700000D01*
X177076000Y-85700000D01*
X177143039Y-85719685D01*
G37*
%TD.AperFunction*%
%TD*%
%TA.AperFunction,Conductor*%
%TO.N,+3V3*%
G36*
X152242947Y-93419735D02*
G01*
X152288749Y-93472499D01*
X152300000Y-93524110D01*
X152300000Y-94200000D01*
X156600000Y-94200000D01*
X162444485Y-94200000D01*
X162511524Y-94219685D01*
X162557279Y-94272489D01*
X162567956Y-94335441D01*
X162549464Y-94534999D01*
X162549464Y-94535000D01*
X162569564Y-94751918D01*
X162569564Y-94751920D01*
X162569565Y-94751923D01*
X162617385Y-94919993D01*
X162629184Y-94961462D01*
X162694345Y-95092322D01*
X162726288Y-95156472D01*
X162838445Y-95304993D01*
X162857574Y-95330323D01*
X162887581Y-95357678D01*
X163018568Y-95477088D01*
X163018575Y-95477092D01*
X163018576Y-95477093D01*
X163203786Y-95591770D01*
X163203792Y-95591773D01*
X163225266Y-95600092D01*
X163406931Y-95670470D01*
X163474558Y-95683111D01*
X163536838Y-95714779D01*
X163572111Y-95775092D01*
X163569177Y-95844900D01*
X163528968Y-95902040D01*
X163474558Y-95926888D01*
X163406931Y-95939530D01*
X163359498Y-95957906D01*
X163203792Y-96018226D01*
X163203786Y-96018229D01*
X163018576Y-96132906D01*
X163018566Y-96132913D01*
X162857574Y-96279676D01*
X162726288Y-96453527D01*
X162629184Y-96648537D01*
X162618421Y-96686364D01*
X162584408Y-96805911D01*
X162569564Y-96858081D01*
X162549464Y-97074999D01*
X162549464Y-97075000D01*
X162569564Y-97291918D01*
X162569564Y-97291920D01*
X162569565Y-97291923D01*
X162607297Y-97424536D01*
X162629184Y-97501462D01*
X162653354Y-97550001D01*
X162726288Y-97696472D01*
X162857573Y-97870322D01*
X163018568Y-98017088D01*
X163018575Y-98017092D01*
X163018576Y-98017093D01*
X163203786Y-98131770D01*
X163203792Y-98131773D01*
X163212233Y-98135043D01*
X163406931Y-98210470D01*
X163621074Y-98250500D01*
X163621076Y-98250500D01*
X163838924Y-98250500D01*
X163838926Y-98250500D01*
X164053069Y-98210470D01*
X164256210Y-98131772D01*
X164441432Y-98017088D01*
X164602427Y-97870322D01*
X164733712Y-97696472D01*
X164830817Y-97501459D01*
X164851234Y-97429698D01*
X164888512Y-97370607D01*
X164951821Y-97341049D01*
X165021061Y-97350410D01*
X165074248Y-97395719D01*
X165094496Y-97462591D01*
X165094500Y-97463634D01*
X165094500Y-97994856D01*
X165094502Y-97994882D01*
X165097413Y-98019987D01*
X165097415Y-98019991D01*
X165142793Y-98122764D01*
X165142794Y-98122765D01*
X165222235Y-98202206D01*
X165325009Y-98247585D01*
X165350135Y-98250500D01*
X166876000Y-98250499D01*
X166943039Y-98270184D01*
X166988794Y-98322987D01*
X167000000Y-98374499D01*
X167000000Y-103400000D01*
X173624865Y-103417526D01*
X173691852Y-103437388D01*
X173737467Y-103490313D01*
X173747228Y-103559498D01*
X173743804Y-103575459D01*
X173724564Y-103643079D01*
X173704464Y-103859999D01*
X173704464Y-103860000D01*
X173724564Y-104076918D01*
X173724564Y-104076920D01*
X173724565Y-104076923D01*
X173772193Y-104244318D01*
X173784184Y-104286462D01*
X173828502Y-104375464D01*
X173881288Y-104481472D01*
X174012573Y-104655322D01*
X174173568Y-104802088D01*
X174173575Y-104802092D01*
X174173576Y-104802093D01*
X174358786Y-104916770D01*
X174358792Y-104916773D01*
X174381664Y-104925633D01*
X174561931Y-104995470D01*
X174629558Y-105008111D01*
X174691838Y-105039779D01*
X174727111Y-105100092D01*
X174724177Y-105169900D01*
X174683968Y-105227040D01*
X174629558Y-105251888D01*
X174561931Y-105264530D01*
X174521795Y-105280079D01*
X174358792Y-105343226D01*
X174358786Y-105343229D01*
X174173576Y-105457906D01*
X174173566Y-105457913D01*
X174012574Y-105604676D01*
X173881288Y-105778527D01*
X173784184Y-105973537D01*
X173724564Y-106183081D01*
X173704464Y-106399999D01*
X173704464Y-106400000D01*
X173724564Y-106616918D01*
X173724564Y-106616920D01*
X173724565Y-106616923D01*
X173771643Y-106782384D01*
X173784184Y-106826462D01*
X173833481Y-106925463D01*
X173881288Y-107021472D01*
X174012573Y-107195322D01*
X174173568Y-107342088D01*
X174173575Y-107342092D01*
X174173576Y-107342093D01*
X174358786Y-107456770D01*
X174358792Y-107456773D01*
X174371389Y-107461653D01*
X174561931Y-107535470D01*
X174629558Y-107548111D01*
X174691838Y-107579779D01*
X174727111Y-107640092D01*
X174724177Y-107709900D01*
X174683968Y-107767040D01*
X174629558Y-107791888D01*
X174561931Y-107804530D01*
X174513130Y-107823435D01*
X174358792Y-107883226D01*
X174358786Y-107883229D01*
X174173576Y-107997906D01*
X174173566Y-107997913D01*
X174012574Y-108144676D01*
X173881288Y-108318527D01*
X173784184Y-108513537D01*
X173767768Y-108571234D01*
X173743434Y-108656761D01*
X173724564Y-108723081D01*
X173704464Y-108939999D01*
X173704464Y-108940000D01*
X173724564Y-109156918D01*
X173724564Y-109156920D01*
X173724565Y-109156923D01*
X173764466Y-109297160D01*
X173784184Y-109366462D01*
X173838031Y-109474601D01*
X173881288Y-109561472D01*
X174012573Y-109735322D01*
X174173568Y-109882088D01*
X174173575Y-109882092D01*
X174173576Y-109882093D01*
X174358786Y-109996770D01*
X174358792Y-109996773D01*
X174381664Y-110005633D01*
X174561931Y-110075470D01*
X174629558Y-110088111D01*
X174691838Y-110119779D01*
X174727111Y-110180092D01*
X174724177Y-110249900D01*
X174683968Y-110307040D01*
X174629558Y-110331888D01*
X174561931Y-110344530D01*
X174513130Y-110363435D01*
X174358792Y-110423226D01*
X174358786Y-110423229D01*
X174173576Y-110537906D01*
X174173566Y-110537913D01*
X174012574Y-110684676D01*
X173881288Y-110858527D01*
X173784184Y-111053537D01*
X173780935Y-111064955D01*
X173728725Y-111248458D01*
X173724564Y-111263081D01*
X173704464Y-111479999D01*
X173704464Y-111480000D01*
X173724564Y-111696918D01*
X173724564Y-111696920D01*
X173724565Y-111696923D01*
X173775364Y-111875463D01*
X173784184Y-111906462D01*
X173830991Y-112000463D01*
X173881288Y-112101472D01*
X174012573Y-112275322D01*
X174173568Y-112422088D01*
X174173575Y-112422092D01*
X174173576Y-112422093D01*
X174358786Y-112536770D01*
X174358792Y-112536773D01*
X174381664Y-112545633D01*
X174561931Y-112615470D01*
X174629558Y-112628111D01*
X174691838Y-112659779D01*
X174727111Y-112720092D01*
X174724177Y-112789900D01*
X174683968Y-112847040D01*
X174629558Y-112871888D01*
X174561931Y-112884530D01*
X174521921Y-112900030D01*
X174358792Y-112963226D01*
X174358786Y-112963229D01*
X174173576Y-113077906D01*
X174173566Y-113077913D01*
X174012574Y-113224676D01*
X173881288Y-113398527D01*
X173784184Y-113593537D01*
X173724564Y-113803081D01*
X173704464Y-114019999D01*
X173704464Y-114020000D01*
X173724564Y-114236918D01*
X173724564Y-114236920D01*
X173724565Y-114236923D01*
X173763719Y-114374536D01*
X173784184Y-114446462D01*
X173834326Y-114547160D01*
X173881288Y-114641472D01*
X174012573Y-114815322D01*
X174173568Y-114962088D01*
X174173575Y-114962092D01*
X174173576Y-114962093D01*
X174358786Y-115076770D01*
X174358792Y-115076773D01*
X174381664Y-115085633D01*
X174561931Y-115155470D01*
X174629558Y-115168111D01*
X174691838Y-115199779D01*
X174727111Y-115260092D01*
X174724177Y-115329900D01*
X174683968Y-115387040D01*
X174629558Y-115411888D01*
X174561931Y-115424530D01*
X174529363Y-115437147D01*
X174358792Y-115503226D01*
X174358786Y-115503229D01*
X174173576Y-115617906D01*
X174173566Y-115617913D01*
X174012574Y-115764676D01*
X173881288Y-115938527D01*
X173784184Y-116133537D01*
X173770766Y-116180697D01*
X173737630Y-116297160D01*
X173724564Y-116343081D01*
X173704464Y-116559999D01*
X173704464Y-116560000D01*
X173724564Y-116776918D01*
X173724564Y-116776920D01*
X173724565Y-116776923D01*
X173784183Y-116986459D01*
X173784184Y-116986462D01*
X173867030Y-117152839D01*
X173881288Y-117181472D01*
X174012573Y-117355322D01*
X174173568Y-117502088D01*
X174173575Y-117502092D01*
X174173576Y-117502093D01*
X174358786Y-117616770D01*
X174358792Y-117616773D01*
X174377582Y-117624052D01*
X174561931Y-117695470D01*
X174629558Y-117708111D01*
X174691838Y-117739779D01*
X174727111Y-117800092D01*
X174724177Y-117869900D01*
X174683968Y-117927040D01*
X174629558Y-117951888D01*
X174561931Y-117964530D01*
X174513130Y-117983435D01*
X174358792Y-118043226D01*
X174358786Y-118043229D01*
X174173576Y-118157906D01*
X174173566Y-118157913D01*
X174012574Y-118304676D01*
X173881288Y-118478527D01*
X173784184Y-118673537D01*
X173784183Y-118673541D01*
X173734842Y-118846959D01*
X173724564Y-118883081D01*
X173704464Y-119099999D01*
X173704464Y-119100000D01*
X173724564Y-119316918D01*
X173724564Y-119316920D01*
X173724565Y-119316923D01*
X173769674Y-119475464D01*
X173784184Y-119526462D01*
X173869182Y-119697160D01*
X173881288Y-119721472D01*
X173983452Y-119856760D01*
X174012574Y-119895323D01*
X174066238Y-119944244D01*
X174173568Y-120042088D01*
X174173575Y-120042092D01*
X174173576Y-120042093D01*
X174358786Y-120156770D01*
X174358792Y-120156773D01*
X174381664Y-120165633D01*
X174561931Y-120235470D01*
X174629558Y-120248111D01*
X174691838Y-120279779D01*
X174727111Y-120340092D01*
X174724177Y-120409900D01*
X174683968Y-120467040D01*
X174629558Y-120491888D01*
X174561931Y-120504530D01*
X174513130Y-120523435D01*
X174358792Y-120583226D01*
X174358786Y-120583229D01*
X174173576Y-120697906D01*
X174173566Y-120697913D01*
X174012574Y-120844676D01*
X173881288Y-121018527D01*
X173784184Y-121213537D01*
X173724564Y-121423081D01*
X173704464Y-121639999D01*
X173704464Y-121640000D01*
X173724564Y-121856918D01*
X173724564Y-121856920D01*
X173724565Y-121856923D01*
X173779500Y-122050000D01*
X173784184Y-122066462D01*
X173842936Y-122184451D01*
X173881288Y-122261472D01*
X174012573Y-122435322D01*
X174173568Y-122582088D01*
X174173575Y-122582092D01*
X174173576Y-122582093D01*
X174358786Y-122696770D01*
X174358792Y-122696773D01*
X174381664Y-122705633D01*
X174561931Y-122775470D01*
X174629558Y-122788111D01*
X174691838Y-122819779D01*
X174727111Y-122880092D01*
X174724177Y-122949900D01*
X174683968Y-123007040D01*
X174629558Y-123031888D01*
X174561931Y-123044530D01*
X174513130Y-123063435D01*
X174358792Y-123123226D01*
X174358786Y-123123229D01*
X174173576Y-123237906D01*
X174173566Y-123237913D01*
X174012574Y-123384676D01*
X173881288Y-123558527D01*
X173784184Y-123753537D01*
X173784183Y-123753541D01*
X173745352Y-123890020D01*
X173724564Y-123963081D01*
X173704464Y-124179999D01*
X173704464Y-124180000D01*
X173724564Y-124396918D01*
X173724564Y-124396920D01*
X173724565Y-124396923D01*
X173784183Y-124606459D01*
X173881288Y-124801472D01*
X174012573Y-124975322D01*
X174173568Y-125122088D01*
X174173575Y-125122092D01*
X174173576Y-125122093D01*
X174358786Y-125236770D01*
X174358792Y-125236773D01*
X174381664Y-125245633D01*
X174561931Y-125315470D01*
X174776074Y-125355500D01*
X174776076Y-125355500D01*
X174993924Y-125355500D01*
X174993926Y-125355500D01*
X175208069Y-125315470D01*
X175411210Y-125236772D01*
X175596432Y-125122088D01*
X175757427Y-124975322D01*
X175888712Y-124801472D01*
X175985817Y-124606459D01*
X176045435Y-124396923D01*
X176065536Y-124180000D01*
X176045435Y-123963077D01*
X175985817Y-123753541D01*
X175888712Y-123558528D01*
X175757427Y-123384678D01*
X175722503Y-123352841D01*
X175596433Y-123237913D01*
X175596423Y-123237906D01*
X175411213Y-123123229D01*
X175411207Y-123123226D01*
X175326113Y-123090260D01*
X175208069Y-123044530D01*
X175140440Y-123031888D01*
X175078161Y-123000221D01*
X175042888Y-122939909D01*
X175045822Y-122870100D01*
X175086031Y-122812960D01*
X175140439Y-122788112D01*
X175208069Y-122775470D01*
X175411210Y-122696772D01*
X175596432Y-122582088D01*
X175757427Y-122435322D01*
X175888712Y-122261472D01*
X175985817Y-122066459D01*
X176045435Y-121856923D01*
X176065536Y-121640000D01*
X176045435Y-121423077D01*
X175985817Y-121213541D01*
X175888712Y-121018528D01*
X175757427Y-120844678D01*
X175596432Y-120697912D01*
X175596428Y-120697909D01*
X175596423Y-120697906D01*
X175411213Y-120583229D01*
X175411207Y-120583226D01*
X175326113Y-120550260D01*
X175208069Y-120504530D01*
X175140440Y-120491888D01*
X175078161Y-120460221D01*
X175042888Y-120399909D01*
X175045822Y-120330100D01*
X175086031Y-120272960D01*
X175140439Y-120248112D01*
X175208069Y-120235470D01*
X175411210Y-120156772D01*
X175596432Y-120042088D01*
X175757427Y-119895322D01*
X175888712Y-119721472D01*
X175985817Y-119526459D01*
X176045435Y-119316923D01*
X176065536Y-119100000D01*
X176065009Y-119094318D01*
X176055743Y-118994318D01*
X176045435Y-118883077D01*
X175985817Y-118673541D01*
X175888712Y-118478528D01*
X175757427Y-118304678D01*
X175750801Y-118298638D01*
X175596433Y-118157913D01*
X175596423Y-118157906D01*
X175411213Y-118043229D01*
X175411207Y-118043226D01*
X175308098Y-118003282D01*
X175208069Y-117964530D01*
X175140440Y-117951888D01*
X175078161Y-117920221D01*
X175042888Y-117859909D01*
X175045822Y-117790100D01*
X175086031Y-117732960D01*
X175140439Y-117708112D01*
X175208069Y-117695470D01*
X175411210Y-117616772D01*
X175596432Y-117502088D01*
X175757427Y-117355322D01*
X175888712Y-117181472D01*
X175985817Y-116986459D01*
X176045435Y-116776923D01*
X176065536Y-116560000D01*
X176045435Y-116343077D01*
X175985817Y-116133541D01*
X175888712Y-115938528D01*
X175757427Y-115764678D01*
X175748741Y-115756760D01*
X175596433Y-115617913D01*
X175596423Y-115617906D01*
X175411213Y-115503229D01*
X175411207Y-115503226D01*
X175326113Y-115470260D01*
X175208069Y-115424530D01*
X175140440Y-115411888D01*
X175078161Y-115380221D01*
X175042888Y-115319909D01*
X175045822Y-115250100D01*
X175086031Y-115192960D01*
X175140439Y-115168112D01*
X175208069Y-115155470D01*
X175411210Y-115076772D01*
X175596432Y-114962088D01*
X175757427Y-114815322D01*
X175888712Y-114641472D01*
X175985817Y-114446459D01*
X176045435Y-114236923D01*
X176065536Y-114020000D01*
X176045435Y-113803077D01*
X175985817Y-113593541D01*
X175888712Y-113398528D01*
X175757427Y-113224678D01*
X175686478Y-113160000D01*
X175596433Y-113077913D01*
X175596423Y-113077906D01*
X175411213Y-112963229D01*
X175411207Y-112963226D01*
X175305202Y-112922160D01*
X175208069Y-112884530D01*
X175140440Y-112871888D01*
X175078161Y-112840221D01*
X175042888Y-112779909D01*
X175045822Y-112710100D01*
X175086031Y-112652960D01*
X175140439Y-112628112D01*
X175208069Y-112615470D01*
X175411210Y-112536772D01*
X175596432Y-112422088D01*
X175757427Y-112275322D01*
X175888712Y-112101472D01*
X175985817Y-111906459D01*
X176045435Y-111696923D01*
X176065536Y-111480000D01*
X176045435Y-111263077D01*
X175985817Y-111053541D01*
X175888712Y-110858528D01*
X175757427Y-110684678D01*
X175733660Y-110663012D01*
X175634903Y-110572983D01*
X175596432Y-110537912D01*
X175596428Y-110537909D01*
X175596423Y-110537906D01*
X175411213Y-110423229D01*
X175411207Y-110423226D01*
X175326113Y-110390260D01*
X175208069Y-110344530D01*
X175140440Y-110331888D01*
X175078161Y-110300221D01*
X175042888Y-110239909D01*
X175045822Y-110170100D01*
X175086031Y-110112960D01*
X175140439Y-110088112D01*
X175208069Y-110075470D01*
X175411210Y-109996772D01*
X175596432Y-109882088D01*
X175757427Y-109735322D01*
X175888712Y-109561472D01*
X175985817Y-109366459D01*
X176045435Y-109156923D01*
X176065536Y-108940000D01*
X176045435Y-108723077D01*
X175985817Y-108513541D01*
X175888712Y-108318528D01*
X175757427Y-108144678D01*
X175702183Y-108094317D01*
X175596433Y-107997913D01*
X175596423Y-107997906D01*
X175411213Y-107883229D01*
X175411207Y-107883226D01*
X175326113Y-107850260D01*
X175208069Y-107804530D01*
X175140440Y-107791888D01*
X175078161Y-107760221D01*
X175042888Y-107699909D01*
X175045822Y-107630100D01*
X175086031Y-107572960D01*
X175140439Y-107548112D01*
X175208069Y-107535470D01*
X175411210Y-107456772D01*
X175596432Y-107342088D01*
X175757427Y-107195322D01*
X175888712Y-107021472D01*
X175985817Y-106826459D01*
X176045435Y-106616923D01*
X176065536Y-106400000D01*
X176063736Y-106380580D01*
X176055743Y-106294318D01*
X176045435Y-106183077D01*
X175985817Y-105973541D01*
X175888712Y-105778528D01*
X175757427Y-105604678D01*
X175685822Y-105539402D01*
X175596433Y-105457913D01*
X175596423Y-105457906D01*
X175411213Y-105343229D01*
X175411207Y-105343226D01*
X175299629Y-105300001D01*
X175208069Y-105264530D01*
X175140440Y-105251888D01*
X175078161Y-105220221D01*
X175042888Y-105159909D01*
X175045822Y-105090100D01*
X175086031Y-105032960D01*
X175140439Y-105008112D01*
X175208069Y-104995470D01*
X175411210Y-104916772D01*
X175596432Y-104802088D01*
X175757427Y-104655322D01*
X175888712Y-104481472D01*
X175985817Y-104286459D01*
X176045435Y-104076923D01*
X176065536Y-103860000D01*
X176045435Y-103643077D01*
X176028095Y-103582133D01*
X176028681Y-103512268D01*
X176066948Y-103453809D01*
X176130745Y-103425318D01*
X176147685Y-103424200D01*
X176326330Y-103424672D01*
X176393315Y-103444534D01*
X176438930Y-103497459D01*
X176450000Y-103548672D01*
X176450000Y-125800762D01*
X176430315Y-125867801D01*
X176377511Y-125913556D01*
X176325763Y-125924762D01*
X167434552Y-125907769D01*
X167387338Y-125898331D01*
X167313630Y-125867801D01*
X167306762Y-125864956D01*
X167306760Y-125864955D01*
X167150001Y-125844318D01*
X167149999Y-125844318D01*
X166993240Y-125864955D01*
X166915278Y-125897248D01*
X166867589Y-125906686D01*
X163265315Y-125899801D01*
X163218101Y-125890363D01*
X163163630Y-125867801D01*
X163156762Y-125864956D01*
X163156760Y-125864955D01*
X163000001Y-125844318D01*
X162999999Y-125844318D01*
X162843239Y-125864955D01*
X162843238Y-125864956D01*
X162784337Y-125889353D01*
X162736649Y-125898791D01*
X137774595Y-125851085D01*
X137707593Y-125831272D01*
X137661939Y-125778381D01*
X137652128Y-125709203D01*
X137669103Y-125662297D01*
X137700154Y-125611628D01*
X137799573Y-125371610D01*
X137860221Y-125118994D01*
X137867619Y-125024998D01*
X164369318Y-125024998D01*
X164369318Y-125025001D01*
X164389955Y-125181760D01*
X164389956Y-125181762D01*
X164450464Y-125327841D01*
X164546718Y-125453282D01*
X164672159Y-125549536D01*
X164818238Y-125610044D01*
X164896619Y-125620363D01*
X164974999Y-125630682D01*
X164975000Y-125630682D01*
X164975001Y-125630682D01*
X165027254Y-125623802D01*
X165131762Y-125610044D01*
X165277841Y-125549536D01*
X165403282Y-125453282D01*
X165499536Y-125327841D01*
X165560044Y-125181762D01*
X165580682Y-125025000D01*
X165560044Y-124868238D01*
X165499536Y-124722159D01*
X165403282Y-124596718D01*
X165277841Y-124500464D01*
X165131762Y-124439956D01*
X165131760Y-124439955D01*
X164975001Y-124419318D01*
X164974999Y-124419318D01*
X164818239Y-124439955D01*
X164818237Y-124439956D01*
X164672160Y-124500463D01*
X164546718Y-124596718D01*
X164450463Y-124722160D01*
X164389956Y-124868237D01*
X164389955Y-124868239D01*
X164369318Y-125024998D01*
X137867619Y-125024998D01*
X137880604Y-124860000D01*
X137860221Y-124601006D01*
X137799573Y-124348390D01*
X137700154Y-124108372D01*
X137564412Y-123886860D01*
X137395689Y-123689311D01*
X137198140Y-123520588D01*
X136976628Y-123384846D01*
X136976627Y-123384845D01*
X136976623Y-123384843D01*
X136788112Y-123306760D01*
X136736610Y-123285427D01*
X136736611Y-123285427D01*
X136598921Y-123252370D01*
X136483994Y-123224779D01*
X136483992Y-123224778D01*
X136483991Y-123224778D01*
X136225000Y-123204396D01*
X135966009Y-123224778D01*
X135713389Y-123285427D01*
X135473376Y-123384843D01*
X135251859Y-123520588D01*
X135054311Y-123689311D01*
X134885588Y-123886859D01*
X134749843Y-124108376D01*
X134650427Y-124348389D01*
X134589778Y-124601009D01*
X134569396Y-124860000D01*
X134589778Y-125118990D01*
X134650427Y-125371610D01*
X134749845Y-125611626D01*
X134777261Y-125656366D01*
X134795505Y-125723812D01*
X134774388Y-125790414D01*
X134720616Y-125835027D01*
X134671296Y-125845155D01*
X132700537Y-125841388D01*
X132633535Y-125821575D01*
X132587881Y-125768684D01*
X132578070Y-125699506D01*
X132595048Y-125652597D01*
X132598696Y-125646645D01*
X132620154Y-125611628D01*
X132719573Y-125371610D01*
X132780221Y-125118994D01*
X132800604Y-124860000D01*
X132780221Y-124601006D01*
X132719573Y-124348390D01*
X132620154Y-124108372D01*
X132484412Y-123886860D01*
X132315689Y-123689311D01*
X132118140Y-123520588D01*
X131896628Y-123384846D01*
X131896627Y-123384845D01*
X131896623Y-123384843D01*
X131708112Y-123306760D01*
X131656610Y-123285427D01*
X131656611Y-123285427D01*
X131518921Y-123252370D01*
X131403994Y-123224779D01*
X131403992Y-123224778D01*
X131403991Y-123224778D01*
X131145000Y-123204396D01*
X130886009Y-123224778D01*
X130633389Y-123285427D01*
X130393376Y-123384843D01*
X130171859Y-123520588D01*
X129974311Y-123689311D01*
X129805588Y-123886859D01*
X129669843Y-124108376D01*
X129570427Y-124348389D01*
X129509778Y-124601009D01*
X129489396Y-124860000D01*
X129509778Y-125118990D01*
X129570427Y-125371610D01*
X129669845Y-125611626D01*
X129691304Y-125646645D01*
X129709548Y-125714091D01*
X129688431Y-125780693D01*
X129634659Y-125825306D01*
X129585339Y-125835434D01*
X124248763Y-125825236D01*
X124181761Y-125805423D01*
X124136107Y-125752532D01*
X124125000Y-125701236D01*
X124125000Y-103859999D01*
X124504464Y-103859999D01*
X124504464Y-103860000D01*
X124524564Y-104076918D01*
X124524564Y-104076920D01*
X124524565Y-104076923D01*
X124572193Y-104244318D01*
X124584184Y-104286462D01*
X124628502Y-104375464D01*
X124681288Y-104481472D01*
X124812573Y-104655322D01*
X124973568Y-104802088D01*
X124973575Y-104802092D01*
X124973576Y-104802093D01*
X125158786Y-104916770D01*
X125158792Y-104916773D01*
X125181664Y-104925633D01*
X125361931Y-104995470D01*
X125429558Y-105008111D01*
X125491838Y-105039779D01*
X125527111Y-105100092D01*
X125524177Y-105169900D01*
X125483968Y-105227040D01*
X125429558Y-105251888D01*
X125361931Y-105264530D01*
X125321795Y-105280079D01*
X125158792Y-105343226D01*
X125158786Y-105343229D01*
X124973576Y-105457906D01*
X124973566Y-105457913D01*
X124812574Y-105604676D01*
X124681288Y-105778527D01*
X124584184Y-105973537D01*
X124524564Y-106183081D01*
X124504464Y-106399999D01*
X124504464Y-106400000D01*
X124524564Y-106616918D01*
X124524564Y-106616920D01*
X124524565Y-106616923D01*
X124571643Y-106782384D01*
X124584184Y-106826462D01*
X124633481Y-106925463D01*
X124681288Y-107021472D01*
X124812573Y-107195322D01*
X124973568Y-107342088D01*
X124973575Y-107342092D01*
X124973576Y-107342093D01*
X125158786Y-107456770D01*
X125158792Y-107456773D01*
X125171389Y-107461653D01*
X125361931Y-107535470D01*
X125429558Y-107548111D01*
X125491838Y-107579779D01*
X125527111Y-107640092D01*
X125524177Y-107709900D01*
X125483968Y-107767040D01*
X125429558Y-107791888D01*
X125361931Y-107804530D01*
X125313130Y-107823435D01*
X125158792Y-107883226D01*
X125158786Y-107883229D01*
X124973576Y-107997906D01*
X124973566Y-107997913D01*
X124812574Y-108144676D01*
X124681288Y-108318527D01*
X124584184Y-108513537D01*
X124567768Y-108571234D01*
X124543434Y-108656761D01*
X124524564Y-108723081D01*
X124504464Y-108939999D01*
X124504464Y-108940000D01*
X124524564Y-109156918D01*
X124524564Y-109156920D01*
X124524565Y-109156923D01*
X124564466Y-109297160D01*
X124584184Y-109366462D01*
X124638031Y-109474601D01*
X124681288Y-109561472D01*
X124812573Y-109735322D01*
X124973568Y-109882088D01*
X124973575Y-109882092D01*
X124973576Y-109882093D01*
X125158786Y-109996770D01*
X125158792Y-109996773D01*
X125181664Y-110005633D01*
X125361931Y-110075470D01*
X125429558Y-110088111D01*
X125491838Y-110119779D01*
X125527111Y-110180092D01*
X125524177Y-110249900D01*
X125483968Y-110307040D01*
X125429558Y-110331888D01*
X125361931Y-110344530D01*
X125313130Y-110363435D01*
X125158792Y-110423226D01*
X125158786Y-110423229D01*
X124973576Y-110537906D01*
X124973566Y-110537913D01*
X124812574Y-110684676D01*
X124681288Y-110858527D01*
X124584184Y-111053537D01*
X124580935Y-111064955D01*
X124528725Y-111248458D01*
X124524564Y-111263081D01*
X124504464Y-111479999D01*
X124504464Y-111480000D01*
X124524564Y-111696918D01*
X124524564Y-111696920D01*
X124524565Y-111696923D01*
X124575364Y-111875463D01*
X124584184Y-111906462D01*
X124630991Y-112000463D01*
X124681288Y-112101472D01*
X124812573Y-112275322D01*
X124973568Y-112422088D01*
X124973575Y-112422092D01*
X124973576Y-112422093D01*
X125158786Y-112536770D01*
X125158792Y-112536773D01*
X125181664Y-112545633D01*
X125361931Y-112615470D01*
X125429558Y-112628111D01*
X125491838Y-112659779D01*
X125527111Y-112720092D01*
X125524177Y-112789900D01*
X125483968Y-112847040D01*
X125429558Y-112871888D01*
X125361931Y-112884530D01*
X125321921Y-112900030D01*
X125158792Y-112963226D01*
X125158786Y-112963229D01*
X124973576Y-113077906D01*
X124973566Y-113077913D01*
X124812574Y-113224676D01*
X124681288Y-113398527D01*
X124584184Y-113593537D01*
X124524564Y-113803081D01*
X124504464Y-114019999D01*
X124504464Y-114020000D01*
X124524564Y-114236918D01*
X124524564Y-114236920D01*
X124524565Y-114236923D01*
X124563719Y-114374536D01*
X124584184Y-114446462D01*
X124634326Y-114547160D01*
X124681288Y-114641472D01*
X124812573Y-114815322D01*
X124973568Y-114962088D01*
X124973575Y-114962092D01*
X124973576Y-114962093D01*
X125158786Y-115076770D01*
X125158792Y-115076773D01*
X125181664Y-115085633D01*
X125361931Y-115155470D01*
X125429558Y-115168111D01*
X125491838Y-115199779D01*
X125527111Y-115260092D01*
X125524177Y-115329900D01*
X125483968Y-115387040D01*
X125429558Y-115411888D01*
X125361931Y-115424530D01*
X125329363Y-115437147D01*
X125158792Y-115503226D01*
X125158786Y-115503229D01*
X124973576Y-115617906D01*
X124973566Y-115617913D01*
X124812574Y-115764676D01*
X124681288Y-115938527D01*
X124584184Y-116133537D01*
X124570766Y-116180697D01*
X124537630Y-116297160D01*
X124524564Y-116343081D01*
X124504464Y-116559999D01*
X124504464Y-116560000D01*
X124524564Y-116776918D01*
X124524564Y-116776920D01*
X124524565Y-116776923D01*
X124584183Y-116986459D01*
X124584184Y-116986462D01*
X124667030Y-117152839D01*
X124681288Y-117181472D01*
X124812573Y-117355322D01*
X124973568Y-117502088D01*
X124973575Y-117502092D01*
X124973576Y-117502093D01*
X125158786Y-117616770D01*
X125158792Y-117616773D01*
X125177582Y-117624052D01*
X125361931Y-117695470D01*
X125429558Y-117708111D01*
X125491838Y-117739779D01*
X125527111Y-117800092D01*
X125524177Y-117869900D01*
X125483968Y-117927040D01*
X125429558Y-117951888D01*
X125361931Y-117964530D01*
X125313130Y-117983435D01*
X125158792Y-118043226D01*
X125158786Y-118043229D01*
X124973576Y-118157906D01*
X124973566Y-118157913D01*
X124812574Y-118304676D01*
X124681288Y-118478527D01*
X124584184Y-118673537D01*
X124584183Y-118673541D01*
X124534842Y-118846959D01*
X124524564Y-118883081D01*
X124504464Y-119099999D01*
X124504464Y-119100000D01*
X124524564Y-119316918D01*
X124524564Y-119316920D01*
X124524565Y-119316923D01*
X124569674Y-119475464D01*
X124584184Y-119526462D01*
X124669182Y-119697160D01*
X124681288Y-119721472D01*
X124783452Y-119856760D01*
X124812574Y-119895323D01*
X124866238Y-119944244D01*
X124973568Y-120042088D01*
X124973575Y-120042092D01*
X124973576Y-120042093D01*
X125158786Y-120156770D01*
X125158792Y-120156773D01*
X125181664Y-120165633D01*
X125361931Y-120235470D01*
X125429558Y-120248111D01*
X125491838Y-120279779D01*
X125527111Y-120340092D01*
X125524177Y-120409900D01*
X125483968Y-120467040D01*
X125429558Y-120491888D01*
X125361931Y-120504530D01*
X125313130Y-120523435D01*
X125158792Y-120583226D01*
X125158786Y-120583229D01*
X124973576Y-120697906D01*
X124973566Y-120697913D01*
X124812574Y-120844676D01*
X124681288Y-121018527D01*
X124584184Y-121213537D01*
X124524564Y-121423081D01*
X124504464Y-121639999D01*
X124504464Y-121640000D01*
X124524564Y-121856918D01*
X124524564Y-121856920D01*
X124524565Y-121856923D01*
X124579500Y-122050000D01*
X124584184Y-122066462D01*
X124642936Y-122184451D01*
X124681288Y-122261472D01*
X124812573Y-122435322D01*
X124973568Y-122582088D01*
X124973575Y-122582092D01*
X124973576Y-122582093D01*
X125158786Y-122696770D01*
X125158792Y-122696773D01*
X125181664Y-122705633D01*
X125361931Y-122775470D01*
X125429558Y-122788111D01*
X125491838Y-122819779D01*
X125527111Y-122880092D01*
X125524177Y-122949900D01*
X125483968Y-123007040D01*
X125429558Y-123031888D01*
X125361931Y-123044530D01*
X125313130Y-123063435D01*
X125158792Y-123123226D01*
X125158786Y-123123229D01*
X124973576Y-123237906D01*
X124973566Y-123237913D01*
X124812574Y-123384676D01*
X124681288Y-123558527D01*
X124584184Y-123753537D01*
X124584183Y-123753541D01*
X124545352Y-123890020D01*
X124524564Y-123963081D01*
X124504464Y-124179999D01*
X124504464Y-124180000D01*
X124524564Y-124396918D01*
X124524564Y-124396920D01*
X124524565Y-124396923D01*
X124584183Y-124606459D01*
X124681288Y-124801472D01*
X124812573Y-124975322D01*
X124973568Y-125122088D01*
X124973575Y-125122092D01*
X124973576Y-125122093D01*
X125158786Y-125236770D01*
X125158792Y-125236773D01*
X125181664Y-125245633D01*
X125361931Y-125315470D01*
X125576074Y-125355500D01*
X125576076Y-125355500D01*
X125793924Y-125355500D01*
X125793926Y-125355500D01*
X126008069Y-125315470D01*
X126211210Y-125236772D01*
X126396432Y-125122088D01*
X126557427Y-124975322D01*
X126688712Y-124801472D01*
X126785817Y-124606459D01*
X126845435Y-124396923D01*
X126865536Y-124180000D01*
X126845435Y-123963077D01*
X126785817Y-123753541D01*
X126688712Y-123558528D01*
X126557427Y-123384678D01*
X126522503Y-123352841D01*
X126396433Y-123237913D01*
X126396423Y-123237906D01*
X126211213Y-123123229D01*
X126211207Y-123123226D01*
X126126113Y-123090260D01*
X126008069Y-123044530D01*
X125940440Y-123031888D01*
X125878161Y-123000221D01*
X125842888Y-122939909D01*
X125845822Y-122870100D01*
X125886031Y-122812960D01*
X125940439Y-122788112D01*
X126008069Y-122775470D01*
X126211210Y-122696772D01*
X126396432Y-122582088D01*
X126557427Y-122435322D01*
X126646479Y-122317398D01*
X135756718Y-122317398D01*
X135756718Y-122317401D01*
X135777355Y-122474160D01*
X135777356Y-122474162D01*
X135832846Y-122608128D01*
X135837864Y-122620241D01*
X135934118Y-122745682D01*
X136059559Y-122841936D01*
X136205638Y-122902444D01*
X136284019Y-122912763D01*
X136362399Y-122923082D01*
X136362400Y-122923082D01*
X136362401Y-122923082D01*
X136414654Y-122916202D01*
X136519162Y-122902444D01*
X136585422Y-122874998D01*
X138169318Y-122874998D01*
X138169318Y-122875001D01*
X138189955Y-123031760D01*
X138189956Y-123031762D01*
X138250464Y-123177842D01*
X138318335Y-123266293D01*
X138343529Y-123331462D01*
X138329491Y-123399907D01*
X138318336Y-123417264D01*
X138262864Y-123489558D01*
X138202356Y-123635637D01*
X138202355Y-123635639D01*
X138181718Y-123792398D01*
X138181718Y-123792401D01*
X138202355Y-123949160D01*
X138202356Y-123949162D01*
X138262864Y-124095241D01*
X138359118Y-124220682D01*
X138484559Y-124316936D01*
X138630638Y-124377444D01*
X138709019Y-124387763D01*
X138787399Y-124398082D01*
X138787400Y-124398082D01*
X138787401Y-124398082D01*
X138839654Y-124391202D01*
X138944162Y-124377444D01*
X139090241Y-124316936D01*
X139215682Y-124220682D01*
X139311936Y-124095241D01*
X139372444Y-123949162D01*
X139393082Y-123792400D01*
X139372444Y-123635638D01*
X139311936Y-123489559D01*
X139311935Y-123489558D01*
X139311935Y-123489557D01*
X139279377Y-123447127D01*
X139244063Y-123401105D01*
X139218869Y-123335938D01*
X139232907Y-123267493D01*
X139244061Y-123250137D01*
X139299536Y-123177841D01*
X139334928Y-123092398D01*
X142581718Y-123092398D01*
X142581718Y-123092401D01*
X142602355Y-123249160D01*
X142602356Y-123249162D01*
X142658488Y-123384678D01*
X142662864Y-123395241D01*
X142759118Y-123520682D01*
X142853377Y-123593009D01*
X142894579Y-123649437D01*
X142898734Y-123719183D01*
X142892452Y-123738837D01*
X142852355Y-123835640D01*
X142831718Y-123992398D01*
X142831718Y-123992401D01*
X142852355Y-124149160D01*
X142852356Y-124149162D01*
X142912864Y-124295241D01*
X143009118Y-124420682D01*
X143134559Y-124516936D01*
X143280638Y-124577444D01*
X143359019Y-124587763D01*
X143437399Y-124598082D01*
X143437400Y-124598082D01*
X143437401Y-124598082D01*
X143489654Y-124591202D01*
X143594162Y-124577444D01*
X143740241Y-124516936D01*
X143865682Y-124420682D01*
X143961936Y-124295241D01*
X144022444Y-124149162D01*
X144043082Y-123992400D01*
X144029603Y-123890018D01*
X144040368Y-123820984D01*
X144086748Y-123768728D01*
X144136354Y-123750895D01*
X144256762Y-123735044D01*
X144402841Y-123674536D01*
X144528282Y-123578282D01*
X144624536Y-123452841D01*
X144685044Y-123306762D01*
X144705682Y-123150000D01*
X144702157Y-123123228D01*
X144685044Y-122993239D01*
X144685044Y-122993238D01*
X144624536Y-122847159D01*
X144528282Y-122721718D01*
X144402841Y-122625464D01*
X144393797Y-122621718D01*
X144256762Y-122564956D01*
X144256760Y-122564955D01*
X144100001Y-122544318D01*
X144099999Y-122544318D01*
X143943239Y-122564955D01*
X143943237Y-122564956D01*
X143797158Y-122625464D01*
X143756717Y-122656495D01*
X143691547Y-122681688D01*
X143623103Y-122667649D01*
X143605747Y-122656495D01*
X143490241Y-122567864D01*
X143483220Y-122564956D01*
X143344162Y-122507356D01*
X143344160Y-122507355D01*
X143187401Y-122486718D01*
X143187399Y-122486718D01*
X143030639Y-122507355D01*
X143030637Y-122507356D01*
X142884560Y-122567863D01*
X142759118Y-122664118D01*
X142662863Y-122789560D01*
X142602356Y-122935637D01*
X142602355Y-122935639D01*
X142581718Y-123092398D01*
X139334928Y-123092398D01*
X139360044Y-123031762D01*
X139380682Y-122875000D01*
X139379528Y-122866238D01*
X139363852Y-122747160D01*
X139360044Y-122718238D01*
X139299536Y-122572159D01*
X139203282Y-122446718D01*
X139077841Y-122350464D01*
X139015245Y-122324536D01*
X138931762Y-122289956D01*
X138931760Y-122289955D01*
X138775001Y-122269318D01*
X138774999Y-122269318D01*
X138618239Y-122289955D01*
X138618237Y-122289956D01*
X138472160Y-122350463D01*
X138346718Y-122446718D01*
X138250463Y-122572160D01*
X138189956Y-122718237D01*
X138189955Y-122718239D01*
X138169318Y-122874998D01*
X136585422Y-122874998D01*
X136665241Y-122841936D01*
X136790682Y-122745682D01*
X136886936Y-122620241D01*
X136947444Y-122474162D01*
X136968082Y-122317400D01*
X136966165Y-122302841D01*
X136947444Y-122160639D01*
X136947444Y-122160638D01*
X136886936Y-122014559D01*
X136875763Y-121999998D01*
X151444318Y-121999998D01*
X151444318Y-122000001D01*
X151464955Y-122156760D01*
X151464956Y-122156762D01*
X151525464Y-122302841D01*
X151621718Y-122428282D01*
X151747159Y-122524536D01*
X151893238Y-122585044D01*
X151966720Y-122594718D01*
X152049999Y-122605682D01*
X152050000Y-122605682D01*
X152050001Y-122605682D01*
X152133280Y-122594718D01*
X152206762Y-122585044D01*
X152352841Y-122524536D01*
X152478282Y-122428282D01*
X152574536Y-122302841D01*
X152599058Y-122243638D01*
X152642895Y-122189239D01*
X152709189Y-122167173D01*
X152776889Y-122184451D01*
X152811992Y-122215607D01*
X152821718Y-122228282D01*
X152947159Y-122324536D01*
X153093238Y-122385044D01*
X153155478Y-122393238D01*
X153249999Y-122405682D01*
X153250000Y-122405682D01*
X153250001Y-122405682D01*
X153302254Y-122398802D01*
X153406762Y-122385044D01*
X153552841Y-122324536D01*
X153678282Y-122228282D01*
X153774536Y-122102841D01*
X153796424Y-122049998D01*
X154844318Y-122049998D01*
X154844318Y-122050001D01*
X154864955Y-122206760D01*
X154864956Y-122206762D01*
X154925464Y-122352842D01*
X155018826Y-122474514D01*
X155044020Y-122539683D01*
X155029981Y-122608128D01*
X155018826Y-122625486D01*
X154925464Y-122747157D01*
X154864956Y-122893237D01*
X154864955Y-122893239D01*
X154844318Y-123049998D01*
X154844318Y-123050001D01*
X154864955Y-123206760D01*
X154864956Y-123206762D01*
X154918462Y-123335938D01*
X154925464Y-123352841D01*
X155021718Y-123478282D01*
X155147159Y-123574536D01*
X155293238Y-123635044D01*
X155356306Y-123643347D01*
X155449999Y-123655682D01*
X155450000Y-123655682D01*
X155450001Y-123655682D01*
X155502254Y-123648802D01*
X155606762Y-123635044D01*
X155752841Y-123574536D01*
X155878282Y-123478282D01*
X155974536Y-123352841D01*
X156035044Y-123206762D01*
X156055682Y-123050000D01*
X156052127Y-123023000D01*
X156035044Y-122893239D01*
X156035044Y-122893238D01*
X155974536Y-122747159D01*
X155881171Y-122625484D01*
X155855979Y-122560317D01*
X155858095Y-122549998D01*
X161444318Y-122549998D01*
X161444318Y-122550001D01*
X161464955Y-122706760D01*
X161464956Y-122706762D01*
X161525464Y-122852841D01*
X161621718Y-122978282D01*
X161747159Y-123074536D01*
X161893238Y-123135044D01*
X161971619Y-123145363D01*
X162049999Y-123155682D01*
X162050000Y-123155682D01*
X162050001Y-123155682D01*
X162102254Y-123148802D01*
X162206762Y-123135044D01*
X162352841Y-123074536D01*
X162420007Y-123022998D01*
X163244318Y-123022998D01*
X163244318Y-123023001D01*
X163264955Y-123179760D01*
X163264956Y-123179762D01*
X163289042Y-123237912D01*
X163325464Y-123325841D01*
X163421718Y-123451282D01*
X163547159Y-123547536D01*
X163693238Y-123608044D01*
X163760780Y-123616936D01*
X163849999Y-123628682D01*
X163850000Y-123628682D01*
X163850001Y-123628682D01*
X163902254Y-123621802D01*
X164006762Y-123608044D01*
X164152841Y-123547536D01*
X164278282Y-123451282D01*
X164374536Y-123325841D01*
X164435044Y-123179762D01*
X164454512Y-123031889D01*
X164455682Y-123023001D01*
X164455682Y-123022998D01*
X164436198Y-122875001D01*
X164435044Y-122866238D01*
X164374536Y-122720159D01*
X164278282Y-122594718D01*
X164152841Y-122498464D01*
X164104117Y-122478282D01*
X164006762Y-122437956D01*
X164006760Y-122437955D01*
X163850001Y-122417318D01*
X163849999Y-122417318D01*
X163693239Y-122437955D01*
X163693237Y-122437956D01*
X163547160Y-122498463D01*
X163421718Y-122594718D01*
X163325463Y-122720160D01*
X163264956Y-122866237D01*
X163264955Y-122866239D01*
X163244318Y-123022998D01*
X162420007Y-123022998D01*
X162478282Y-122978282D01*
X162574536Y-122852841D01*
X162635044Y-122706762D01*
X162652823Y-122571718D01*
X162655682Y-122550001D01*
X162655682Y-122549998D01*
X162640931Y-122437955D01*
X162635044Y-122393238D01*
X162622721Y-122363489D01*
X162615253Y-122294024D01*
X162646527Y-122231544D01*
X162661791Y-122217668D01*
X162778282Y-122128282D01*
X162874536Y-122002841D01*
X162935044Y-121856762D01*
X162955682Y-121700000D01*
X162953802Y-121685720D01*
X162964567Y-121616686D01*
X162989618Y-121588460D01*
X162974979Y-121583972D01*
X162956003Y-121561537D01*
X163130381Y-121561537D01*
X163145016Y-121566024D01*
X163190140Y-121619369D01*
X163191294Y-121622065D01*
X163245464Y-121752841D01*
X163341718Y-121878282D01*
X163467159Y-121974536D01*
X163613238Y-122035044D01*
X163691619Y-122045363D01*
X163769999Y-122055682D01*
X163770000Y-122055682D01*
X163770001Y-122055682D01*
X163822254Y-122048802D01*
X163926762Y-122035044D01*
X164072841Y-121974536D01*
X164198282Y-121878282D01*
X164294536Y-121752841D01*
X164355044Y-121606762D01*
X164375682Y-121450000D01*
X164371068Y-121414956D01*
X164355044Y-121293239D01*
X164355044Y-121293238D01*
X164294536Y-121147159D01*
X164198282Y-121021718D01*
X164072841Y-120925464D01*
X164011361Y-120899998D01*
X167164318Y-120899998D01*
X167164318Y-120900001D01*
X167184955Y-121056760D01*
X167184956Y-121056762D01*
X167241933Y-121194318D01*
X167245464Y-121202841D01*
X167341718Y-121328282D01*
X167341720Y-121328283D01*
X167341722Y-121328286D01*
X167347465Y-121334029D01*
X167346020Y-121335473D01*
X167380763Y-121383060D01*
X167384913Y-121452806D01*
X167350697Y-121513724D01*
X167343317Y-121520118D01*
X167341722Y-121521713D01*
X167341718Y-121521717D01*
X167341718Y-121521718D01*
X167338844Y-121525464D01*
X167245463Y-121647160D01*
X167184956Y-121793237D01*
X167184955Y-121793239D01*
X167164318Y-121949998D01*
X167164318Y-121950001D01*
X167184955Y-122106760D01*
X167184956Y-122106762D01*
X167226376Y-122206760D01*
X167245464Y-122252841D01*
X167341718Y-122378282D01*
X167341720Y-122378283D01*
X167341722Y-122378286D01*
X167347465Y-122384029D01*
X167346020Y-122385473D01*
X167380763Y-122433060D01*
X167384913Y-122502806D01*
X167350697Y-122563724D01*
X167343317Y-122570118D01*
X167341722Y-122571713D01*
X167341718Y-122571717D01*
X167341718Y-122571718D01*
X167331493Y-122585044D01*
X167245463Y-122697160D01*
X167184956Y-122843237D01*
X167184955Y-122843239D01*
X167164318Y-122999998D01*
X167164318Y-123000001D01*
X167184955Y-123156760D01*
X167184956Y-123156762D01*
X167223631Y-123250133D01*
X167245464Y-123302841D01*
X167341718Y-123428282D01*
X167467159Y-123524536D01*
X167613238Y-123585044D01*
X167673739Y-123593009D01*
X167769999Y-123605682D01*
X167770000Y-123605682D01*
X167770001Y-123605682D01*
X167866261Y-123593009D01*
X167926762Y-123585044D01*
X168072841Y-123524536D01*
X168198282Y-123428282D01*
X168294536Y-123302841D01*
X168355044Y-123156762D01*
X168371484Y-123031889D01*
X168375682Y-123000001D01*
X168375682Y-122999998D01*
X168359226Y-122875001D01*
X168355044Y-122843238D01*
X168294536Y-122697159D01*
X168198282Y-122571718D01*
X168198279Y-122571715D01*
X168198277Y-122571713D01*
X168192535Y-122565971D01*
X168193980Y-122564525D01*
X168159241Y-122516953D01*
X168155083Y-122447207D01*
X168189292Y-122386285D01*
X168196680Y-122379883D01*
X168198277Y-122378286D01*
X168198277Y-122378285D01*
X168198282Y-122378282D01*
X168294536Y-122252841D01*
X168355044Y-122106762D01*
X168375682Y-121950000D01*
X168362406Y-121849162D01*
X168355044Y-121793239D01*
X168355044Y-121793238D01*
X168294536Y-121647159D01*
X168198282Y-121521718D01*
X168198279Y-121521715D01*
X168198277Y-121521713D01*
X168192535Y-121515971D01*
X168193980Y-121514525D01*
X168159241Y-121466953D01*
X168155083Y-121397207D01*
X168189292Y-121336285D01*
X168196680Y-121329883D01*
X168198277Y-121328286D01*
X168198277Y-121328285D01*
X168198282Y-121328282D01*
X168294536Y-121202841D01*
X168355044Y-121056762D01*
X168375682Y-120900000D01*
X168371068Y-120864956D01*
X168355044Y-120743239D01*
X168355044Y-120743238D01*
X168294536Y-120597159D01*
X168198282Y-120471718D01*
X168072841Y-120375464D01*
X167926762Y-120314956D01*
X167926760Y-120314955D01*
X167770001Y-120294318D01*
X167769999Y-120294318D01*
X167613239Y-120314955D01*
X167613237Y-120314956D01*
X167467160Y-120375463D01*
X167341718Y-120471718D01*
X167245463Y-120597160D01*
X167184956Y-120743237D01*
X167184955Y-120743239D01*
X167164318Y-120899998D01*
X164011361Y-120899998D01*
X163926762Y-120864956D01*
X163926760Y-120864955D01*
X163770001Y-120844318D01*
X163769999Y-120844318D01*
X163613239Y-120864955D01*
X163613237Y-120864956D01*
X163467160Y-120925463D01*
X163341718Y-121021718D01*
X163245463Y-121147160D01*
X163184956Y-121293237D01*
X163184955Y-121293239D01*
X163164318Y-121449998D01*
X163164318Y-121449999D01*
X163166198Y-121464283D01*
X163155430Y-121533318D01*
X163130381Y-121561537D01*
X162956003Y-121561537D01*
X162929857Y-121530626D01*
X162928697Y-121527916D01*
X162927681Y-121525464D01*
X162874536Y-121397159D01*
X162778282Y-121271718D01*
X162652841Y-121175464D01*
X162506762Y-121114956D01*
X162506760Y-121114955D01*
X162350001Y-121094318D01*
X162349999Y-121094318D01*
X162193239Y-121114955D01*
X162193237Y-121114956D01*
X162047160Y-121175463D01*
X161921718Y-121271718D01*
X161825463Y-121397160D01*
X161764956Y-121543237D01*
X161764955Y-121543239D01*
X161744318Y-121699998D01*
X161744318Y-121700001D01*
X161764955Y-121856760D01*
X161764957Y-121856765D01*
X161777277Y-121886508D01*
X161784746Y-121955977D01*
X161753471Y-122018456D01*
X161738203Y-122032335D01*
X161621720Y-122121716D01*
X161621719Y-122121717D01*
X161621718Y-122121718D01*
X161557548Y-122205345D01*
X161525463Y-122247160D01*
X161464956Y-122393237D01*
X161464955Y-122393239D01*
X161444318Y-122549998D01*
X155858095Y-122549998D01*
X155870017Y-122491873D01*
X155881167Y-122474521D01*
X155974536Y-122352841D01*
X156035044Y-122206762D01*
X156055682Y-122050000D01*
X156053356Y-122032335D01*
X156035044Y-121893239D01*
X156035044Y-121893238D01*
X155974536Y-121747159D01*
X155878282Y-121621718D01*
X155752841Y-121525464D01*
X155743797Y-121521718D01*
X155606762Y-121464956D01*
X155606760Y-121464955D01*
X155450001Y-121444318D01*
X155449999Y-121444318D01*
X155293239Y-121464955D01*
X155293237Y-121464956D01*
X155147160Y-121525463D01*
X155021718Y-121621718D01*
X154925463Y-121747160D01*
X154864956Y-121893237D01*
X154864955Y-121893239D01*
X154844318Y-122049998D01*
X153796424Y-122049998D01*
X153835044Y-121956762D01*
X153855682Y-121800000D01*
X153854742Y-121792863D01*
X153835044Y-121643239D01*
X153835044Y-121643238D01*
X153774536Y-121497159D01*
X153678282Y-121371718D01*
X153552841Y-121275464D01*
X153543797Y-121271718D01*
X153406762Y-121214956D01*
X153406760Y-121214955D01*
X153250001Y-121194318D01*
X153249999Y-121194318D01*
X153093239Y-121214955D01*
X153093237Y-121214956D01*
X152947160Y-121275463D01*
X152821718Y-121371718D01*
X152725463Y-121497160D01*
X152700943Y-121556358D01*
X152657102Y-121610761D01*
X152590808Y-121632826D01*
X152523108Y-121615547D01*
X152488006Y-121584391D01*
X152478283Y-121571719D01*
X152470861Y-121566024D01*
X152352841Y-121475464D01*
X152327472Y-121464956D01*
X152206762Y-121414956D01*
X152206760Y-121414955D01*
X152050001Y-121394318D01*
X152049999Y-121394318D01*
X151893239Y-121414955D01*
X151893237Y-121414956D01*
X151747160Y-121475463D01*
X151621718Y-121571718D01*
X151525463Y-121697160D01*
X151464956Y-121843237D01*
X151464955Y-121843239D01*
X151444318Y-121999998D01*
X136875763Y-121999998D01*
X136790682Y-121889118D01*
X136665241Y-121792864D01*
X136519162Y-121732356D01*
X136519160Y-121732355D01*
X136362401Y-121711718D01*
X136362399Y-121711718D01*
X136205639Y-121732355D01*
X136205637Y-121732356D01*
X136059560Y-121792863D01*
X135934118Y-121889118D01*
X135837863Y-122014560D01*
X135777356Y-122160637D01*
X135777355Y-122160639D01*
X135756718Y-122317398D01*
X126646479Y-122317398D01*
X126688712Y-122261472D01*
X126785817Y-122066459D01*
X126845435Y-121856923D01*
X126860681Y-121692398D01*
X133181718Y-121692398D01*
X133181718Y-121692401D01*
X133202355Y-121849160D01*
X133202356Y-121849162D01*
X133262542Y-121994465D01*
X133262864Y-121995241D01*
X133359118Y-122120682D01*
X133484559Y-122216936D01*
X133630638Y-122277444D01*
X133709019Y-122287763D01*
X133787399Y-122298082D01*
X133787400Y-122298082D01*
X133787401Y-122298082D01*
X133849131Y-122289955D01*
X133944162Y-122277444D01*
X134090241Y-122216936D01*
X134215682Y-122120682D01*
X134311936Y-121995241D01*
X134372444Y-121849162D01*
X134392081Y-121700001D01*
X134393082Y-121692401D01*
X134393082Y-121692398D01*
X134373445Y-121543239D01*
X134372444Y-121535638D01*
X134311936Y-121389559D01*
X134215682Y-121264118D01*
X134090241Y-121167864D01*
X133944162Y-121107356D01*
X133944160Y-121107355D01*
X133787401Y-121086718D01*
X133787399Y-121086718D01*
X133630639Y-121107355D01*
X133630637Y-121107356D01*
X133484560Y-121167863D01*
X133359118Y-121264118D01*
X133262863Y-121389560D01*
X133202356Y-121535637D01*
X133202355Y-121535639D01*
X133181718Y-121692398D01*
X126860681Y-121692398D01*
X126865536Y-121640000D01*
X126845435Y-121423077D01*
X126785817Y-121213541D01*
X126688712Y-121018528D01*
X126557427Y-120844678D01*
X126396432Y-120697912D01*
X126396428Y-120697909D01*
X126396423Y-120697906D01*
X126211213Y-120583229D01*
X126211207Y-120583226D01*
X126126113Y-120550260D01*
X126008069Y-120504530D01*
X125983825Y-120499998D01*
X160344318Y-120499998D01*
X160344318Y-120500001D01*
X160364955Y-120656760D01*
X160364956Y-120656762D01*
X160400775Y-120743238D01*
X160425464Y-120802841D01*
X160521718Y-120928282D01*
X160647159Y-121024536D01*
X160793238Y-121085044D01*
X160863681Y-121094318D01*
X160949999Y-121105682D01*
X160950000Y-121105682D01*
X160950001Y-121105682D01*
X161002254Y-121098802D01*
X161106762Y-121085044D01*
X161252841Y-121024536D01*
X161378282Y-120928282D01*
X161474536Y-120802841D01*
X161535044Y-120656762D01*
X161555682Y-120500000D01*
X161551008Y-120464500D01*
X161535044Y-120343239D01*
X161535044Y-120343238D01*
X161474536Y-120197159D01*
X161378282Y-120071718D01*
X161284814Y-119999998D01*
X162794318Y-119999998D01*
X162794318Y-120000001D01*
X162814955Y-120156760D01*
X162814956Y-120156762D01*
X162871933Y-120294318D01*
X162875464Y-120302841D01*
X162971718Y-120428282D01*
X163097159Y-120524536D01*
X163243238Y-120585044D01*
X163321619Y-120595363D01*
X163399999Y-120605682D01*
X163400000Y-120605682D01*
X163400001Y-120605682D01*
X163464739Y-120597159D01*
X163556762Y-120585044D01*
X163702841Y-120524536D01*
X163828282Y-120428282D01*
X163924536Y-120302841D01*
X163985044Y-120156762D01*
X164005682Y-120000000D01*
X164005055Y-119995241D01*
X163985044Y-119843239D01*
X163985044Y-119843238D01*
X163924536Y-119697159D01*
X163828282Y-119571718D01*
X163702841Y-119475464D01*
X163647741Y-119452641D01*
X163556762Y-119414956D01*
X163556760Y-119414955D01*
X163400001Y-119394318D01*
X163399999Y-119394318D01*
X163243239Y-119414955D01*
X163243237Y-119414956D01*
X163097160Y-119475463D01*
X162971718Y-119571718D01*
X162875463Y-119697160D01*
X162814956Y-119843237D01*
X162814955Y-119843239D01*
X162794318Y-119999998D01*
X161284814Y-119999998D01*
X161252841Y-119975464D01*
X161106762Y-119914956D01*
X161106760Y-119914955D01*
X160950001Y-119894318D01*
X160949999Y-119894318D01*
X160793239Y-119914955D01*
X160793237Y-119914956D01*
X160647160Y-119975463D01*
X160521718Y-120071718D01*
X160425463Y-120197160D01*
X160364956Y-120343237D01*
X160364955Y-120343239D01*
X160344318Y-120499998D01*
X125983825Y-120499998D01*
X125940440Y-120491888D01*
X125878161Y-120460221D01*
X125842888Y-120399909D01*
X125845822Y-120330100D01*
X125886031Y-120272960D01*
X125940439Y-120248112D01*
X126008069Y-120235470D01*
X126211210Y-120156772D01*
X126396432Y-120042088D01*
X126557427Y-119895322D01*
X126688712Y-119721472D01*
X126703189Y-119692398D01*
X135731718Y-119692398D01*
X135731718Y-119692401D01*
X135752355Y-119849160D01*
X135752356Y-119849162D01*
X135771476Y-119895323D01*
X135812864Y-119995241D01*
X135909118Y-120120682D01*
X136034559Y-120216936D01*
X136180638Y-120277444D01*
X136238366Y-120285044D01*
X136337399Y-120298082D01*
X136337400Y-120298082D01*
X136337401Y-120298082D01*
X136389654Y-120291202D01*
X136494162Y-120277444D01*
X136640241Y-120216936D01*
X136765682Y-120120682D01*
X136861936Y-119995241D01*
X136922444Y-119849162D01*
X136942081Y-119700001D01*
X136943082Y-119692401D01*
X136943082Y-119692398D01*
X136923445Y-119543239D01*
X136922444Y-119535638D01*
X136861936Y-119389559D01*
X136765682Y-119264118D01*
X136640241Y-119167864D01*
X136596623Y-119149797D01*
X136494162Y-119107356D01*
X136494160Y-119107355D01*
X136337401Y-119086718D01*
X136337399Y-119086718D01*
X136180639Y-119107355D01*
X136180637Y-119107356D01*
X136034560Y-119167863D01*
X135909118Y-119264118D01*
X135812863Y-119389560D01*
X135752356Y-119535637D01*
X135752355Y-119535639D01*
X135731718Y-119692398D01*
X126703189Y-119692398D01*
X126785817Y-119526459D01*
X126845435Y-119316923D01*
X126865536Y-119100000D01*
X126865009Y-119094318D01*
X126855743Y-118994318D01*
X126845435Y-118883077D01*
X126785817Y-118673541D01*
X126688712Y-118478528D01*
X126557427Y-118304678D01*
X126550801Y-118298638D01*
X126396433Y-118157913D01*
X126396423Y-118157906D01*
X126211213Y-118043229D01*
X126211207Y-118043226D01*
X126108098Y-118003282D01*
X126008069Y-117964530D01*
X125940440Y-117951888D01*
X125878161Y-117920221D01*
X125842888Y-117859909D01*
X125845822Y-117790100D01*
X125886031Y-117732960D01*
X125940439Y-117708112D01*
X126008069Y-117695470D01*
X126211210Y-117616772D01*
X126396432Y-117502088D01*
X126398725Y-117499998D01*
X132144318Y-117499998D01*
X132144318Y-117500001D01*
X132164955Y-117656760D01*
X132164956Y-117656762D01*
X132209469Y-117764227D01*
X132225464Y-117802841D01*
X132321718Y-117928282D01*
X132447159Y-118024536D01*
X132593238Y-118085044D01*
X132671619Y-118095363D01*
X132749999Y-118105682D01*
X132750000Y-118105682D01*
X132750001Y-118105682D01*
X132802254Y-118098802D01*
X132906762Y-118085044D01*
X133009718Y-118042398D01*
X135431718Y-118042398D01*
X135431718Y-118042401D01*
X135452355Y-118199160D01*
X135452356Y-118199162D01*
X135512864Y-118345241D01*
X135609118Y-118470682D01*
X135734559Y-118566936D01*
X135880638Y-118627444D01*
X135959019Y-118637763D01*
X136037399Y-118648082D01*
X136037400Y-118648082D01*
X136037401Y-118648082D01*
X136089654Y-118641202D01*
X136194162Y-118627444D01*
X136340241Y-118566936D01*
X136465682Y-118470682D01*
X136561936Y-118345241D01*
X136622444Y-118199162D01*
X136643082Y-118042400D01*
X136622444Y-117885638D01*
X136561936Y-117739559D01*
X136465682Y-117614118D01*
X136414700Y-117574998D01*
X139994318Y-117574998D01*
X139994318Y-117575001D01*
X140014955Y-117731760D01*
X140014956Y-117731762D01*
X140047195Y-117809595D01*
X140075464Y-117877841D01*
X140171718Y-118003282D01*
X140297159Y-118099536D01*
X140443238Y-118160044D01*
X140521619Y-118170363D01*
X140599999Y-118180682D01*
X140600000Y-118180682D01*
X140649051Y-118174224D01*
X140718085Y-118184989D01*
X140770341Y-118231369D01*
X140789227Y-118298638D01*
X140788175Y-118313347D01*
X140781718Y-118362397D01*
X140781718Y-118362402D01*
X140788175Y-118411452D01*
X140777409Y-118480487D01*
X140731028Y-118532742D01*
X140663759Y-118551627D01*
X140649052Y-118550575D01*
X140600003Y-118544118D01*
X140599999Y-118544118D01*
X140443239Y-118564755D01*
X140443237Y-118564756D01*
X140297160Y-118625263D01*
X140171718Y-118721518D01*
X140075463Y-118846960D01*
X140014956Y-118993037D01*
X140014955Y-118993039D01*
X139994318Y-119149798D01*
X139994318Y-119149801D01*
X140014955Y-119306560D01*
X140014956Y-119306562D01*
X140071569Y-119443239D01*
X140075464Y-119452641D01*
X140171718Y-119578082D01*
X140297159Y-119674336D01*
X140443238Y-119734844D01*
X140521619Y-119745163D01*
X140599999Y-119755482D01*
X140600000Y-119755482D01*
X140600001Y-119755482D01*
X140652254Y-119748602D01*
X140756762Y-119734844D01*
X140902841Y-119674336D01*
X141028282Y-119578082D01*
X141124536Y-119452641D01*
X141185044Y-119306562D01*
X141202303Y-119175463D01*
X141205682Y-119149801D01*
X141205682Y-119149800D01*
X141205682Y-119149797D01*
X141199224Y-119100747D01*
X141209989Y-119031714D01*
X141256369Y-118979458D01*
X141323638Y-118960572D01*
X141338343Y-118961623D01*
X141387400Y-118968082D01*
X141436451Y-118961624D01*
X141505485Y-118972389D01*
X141557741Y-119018769D01*
X141576627Y-119086038D01*
X141575575Y-119100747D01*
X141569118Y-119149797D01*
X141569118Y-119149801D01*
X141589755Y-119306560D01*
X141589756Y-119306562D01*
X141646369Y-119443239D01*
X141650264Y-119452641D01*
X141746518Y-119578082D01*
X141871959Y-119674336D01*
X142018038Y-119734844D01*
X142096419Y-119745163D01*
X142174799Y-119755482D01*
X142174800Y-119755482D01*
X142174801Y-119755482D01*
X142227054Y-119748602D01*
X142331562Y-119734844D01*
X142477641Y-119674336D01*
X142574520Y-119599998D01*
X144244318Y-119599998D01*
X144244318Y-119600001D01*
X144264955Y-119756760D01*
X144264956Y-119756762D01*
X144322349Y-119895322D01*
X144325464Y-119902841D01*
X144421718Y-120028282D01*
X144547159Y-120124536D01*
X144693238Y-120185044D01*
X144771619Y-120195363D01*
X144849999Y-120205682D01*
X144850000Y-120205682D01*
X144850001Y-120205682D01*
X144914739Y-120197159D01*
X145006762Y-120185044D01*
X145152841Y-120124536D01*
X145278282Y-120028282D01*
X145374536Y-119902841D01*
X145435044Y-119756762D01*
X145442517Y-119699998D01*
X148044318Y-119699998D01*
X148044318Y-119700001D01*
X148064955Y-119856760D01*
X148064956Y-119856762D01*
X148124287Y-120000001D01*
X148125464Y-120002841D01*
X148221718Y-120128282D01*
X148347159Y-120224536D01*
X148493238Y-120285044D01*
X148563681Y-120294318D01*
X148649999Y-120305682D01*
X148650000Y-120305682D01*
X148650001Y-120305682D01*
X148707728Y-120298082D01*
X148806762Y-120285044D01*
X148952841Y-120224536D01*
X149078282Y-120128282D01*
X149174536Y-120002841D01*
X149235044Y-119856762D01*
X149235934Y-119849998D01*
X151894318Y-119849998D01*
X151894318Y-119850001D01*
X151914955Y-120006760D01*
X151914956Y-120006762D01*
X151929588Y-120042088D01*
X151975464Y-120152841D01*
X152071718Y-120278282D01*
X152197159Y-120374536D01*
X152343238Y-120435044D01*
X152421619Y-120445363D01*
X152499999Y-120455682D01*
X152500000Y-120455682D01*
X152500001Y-120455682D01*
X152552254Y-120448802D01*
X152656762Y-120435044D01*
X152802841Y-120374536D01*
X152928282Y-120278282D01*
X153024536Y-120152841D01*
X153085044Y-120006762D01*
X153105682Y-119850000D01*
X153105571Y-119849160D01*
X153091923Y-119745492D01*
X153085044Y-119693238D01*
X153024536Y-119547159D01*
X152928282Y-119421718D01*
X152802841Y-119325464D01*
X152782221Y-119316923D01*
X152656762Y-119264956D01*
X152656760Y-119264955D01*
X152500001Y-119244318D01*
X152499999Y-119244318D01*
X152343239Y-119264955D01*
X152343237Y-119264956D01*
X152197160Y-119325463D01*
X152071718Y-119421718D01*
X151975463Y-119547160D01*
X151914956Y-119693237D01*
X151914955Y-119693239D01*
X151894318Y-119849998D01*
X149235934Y-119849998D01*
X149255682Y-119700000D01*
X149254681Y-119692400D01*
X149235044Y-119543239D01*
X149235044Y-119543238D01*
X149174536Y-119397159D01*
X149078282Y-119271718D01*
X148952841Y-119175464D01*
X148943797Y-119171718D01*
X148806762Y-119114956D01*
X148806760Y-119114955D01*
X148650001Y-119094318D01*
X148649999Y-119094318D01*
X148493239Y-119114955D01*
X148493237Y-119114956D01*
X148347160Y-119175463D01*
X148221718Y-119271718D01*
X148125463Y-119397160D01*
X148064956Y-119543237D01*
X148064955Y-119543239D01*
X148044318Y-119699998D01*
X145442517Y-119699998D01*
X145455682Y-119600000D01*
X145452796Y-119578082D01*
X145435044Y-119443239D01*
X145435044Y-119443238D01*
X145374536Y-119297159D01*
X145278282Y-119171718D01*
X145152841Y-119075464D01*
X145006762Y-119014956D01*
X145006760Y-119014955D01*
X144850001Y-118994318D01*
X144849999Y-118994318D01*
X144693239Y-119014955D01*
X144693237Y-119014956D01*
X144547160Y-119075463D01*
X144421718Y-119171718D01*
X144325463Y-119297160D01*
X144264956Y-119443237D01*
X144264955Y-119443239D01*
X144244318Y-119599998D01*
X142574520Y-119599998D01*
X142603082Y-119578082D01*
X142699336Y-119452641D01*
X142759844Y-119306562D01*
X142777103Y-119175463D01*
X142780482Y-119149801D01*
X142780482Y-119149798D01*
X142764936Y-119031714D01*
X142759844Y-118993038D01*
X142699336Y-118846959D01*
X142603082Y-118721518D01*
X142477641Y-118625264D01*
X142331562Y-118564756D01*
X142331560Y-118564755D01*
X142174801Y-118544118D01*
X142174797Y-118544118D01*
X142125747Y-118550575D01*
X142056712Y-118539809D01*
X142004456Y-118493428D01*
X141985572Y-118426159D01*
X141986624Y-118411450D01*
X141993082Y-118362400D01*
X141986624Y-118313347D01*
X141997389Y-118244314D01*
X142043769Y-118192058D01*
X142111038Y-118173172D01*
X142125743Y-118174223D01*
X142174800Y-118180682D01*
X142174801Y-118180682D01*
X142231844Y-118173172D01*
X142331562Y-118160044D01*
X142477641Y-118099536D01*
X142603082Y-118003282D01*
X142699336Y-117877841D01*
X142759844Y-117731762D01*
X142780482Y-117575000D01*
X142759844Y-117418238D01*
X142699336Y-117272159D01*
X142603082Y-117146718D01*
X142477641Y-117050464D01*
X142476523Y-117050001D01*
X142331562Y-116989956D01*
X142331560Y-116989955D01*
X142174801Y-116969318D01*
X142174799Y-116969318D01*
X142018039Y-116989955D01*
X142018037Y-116989956D01*
X141871960Y-117050463D01*
X141746518Y-117146718D01*
X141650263Y-117272160D01*
X141589756Y-117418237D01*
X141589755Y-117418239D01*
X141569118Y-117574998D01*
X141569118Y-117575002D01*
X141575575Y-117624052D01*
X141564809Y-117693087D01*
X141518428Y-117745342D01*
X141451159Y-117764227D01*
X141436452Y-117763175D01*
X141387403Y-117756718D01*
X141387397Y-117756718D01*
X141338347Y-117763175D01*
X141269312Y-117752409D01*
X141217056Y-117706028D01*
X141198172Y-117638759D01*
X141199224Y-117624050D01*
X141200183Y-117616773D01*
X141205682Y-117575000D01*
X141185044Y-117418238D01*
X141124536Y-117272159D01*
X141028282Y-117146718D01*
X140902841Y-117050464D01*
X140901723Y-117050001D01*
X140756762Y-116989956D01*
X140756760Y-116989955D01*
X140600001Y-116969318D01*
X140599999Y-116969318D01*
X140443239Y-116989955D01*
X140443237Y-116989956D01*
X140297160Y-117050463D01*
X140171718Y-117146718D01*
X140075463Y-117272160D01*
X140014956Y-117418237D01*
X140014955Y-117418239D01*
X139994318Y-117574998D01*
X136414700Y-117574998D01*
X136340241Y-117517864D01*
X136302166Y-117502093D01*
X136194162Y-117457356D01*
X136194160Y-117457355D01*
X136037401Y-117436718D01*
X136037399Y-117436718D01*
X135880639Y-117457355D01*
X135880637Y-117457356D01*
X135734560Y-117517863D01*
X135609118Y-117614118D01*
X135512863Y-117739560D01*
X135452356Y-117885637D01*
X135452355Y-117885639D01*
X135431718Y-118042398D01*
X133009718Y-118042398D01*
X133052841Y-118024536D01*
X133178282Y-117928282D01*
X133274536Y-117802841D01*
X133335044Y-117656762D01*
X133353330Y-117517863D01*
X133355682Y-117500001D01*
X133355682Y-117499998D01*
X133335044Y-117343239D01*
X133335044Y-117343238D01*
X133274536Y-117197159D01*
X133178282Y-117071718D01*
X133052841Y-116975464D01*
X133038003Y-116969318D01*
X132906762Y-116914956D01*
X132906760Y-116914955D01*
X132750001Y-116894318D01*
X132749999Y-116894318D01*
X132593239Y-116914955D01*
X132593237Y-116914956D01*
X132447160Y-116975463D01*
X132321718Y-117071718D01*
X132225463Y-117197160D01*
X132164956Y-117343237D01*
X132164955Y-117343239D01*
X132144318Y-117499998D01*
X126398725Y-117499998D01*
X126557427Y-117355322D01*
X126688712Y-117181472D01*
X126785817Y-116986459D01*
X126845435Y-116776923D01*
X126865536Y-116560000D01*
X126845435Y-116343077D01*
X126785817Y-116133541D01*
X126688712Y-115938528D01*
X126557427Y-115764678D01*
X126548741Y-115756760D01*
X126396433Y-115617913D01*
X126396423Y-115617906D01*
X126211213Y-115503229D01*
X126211207Y-115503226D01*
X126126113Y-115470260D01*
X126008069Y-115424530D01*
X125940440Y-115411888D01*
X125878161Y-115380221D01*
X125842888Y-115319909D01*
X125845822Y-115250100D01*
X125886031Y-115192960D01*
X125940439Y-115168112D01*
X126008069Y-115155470D01*
X126211210Y-115076772D01*
X126396432Y-114962088D01*
X126519389Y-114849998D01*
X141694318Y-114849998D01*
X141694318Y-114850001D01*
X141714955Y-115006760D01*
X141714956Y-115006762D01*
X141743955Y-115076773D01*
X141775464Y-115152841D01*
X141871718Y-115278282D01*
X141997159Y-115374536D01*
X142143238Y-115435044D01*
X142143241Y-115435044D01*
X142151087Y-115437147D01*
X142150592Y-115438993D01*
X142204892Y-115463009D01*
X142243368Y-115521330D01*
X142247757Y-115573871D01*
X142244318Y-115599995D01*
X142244318Y-115600001D01*
X142264955Y-115756760D01*
X142264956Y-115756762D01*
X142325464Y-115902841D01*
X142421718Y-116028282D01*
X142547159Y-116124536D01*
X142693238Y-116185044D01*
X142789300Y-116197690D01*
X142853195Y-116225956D01*
X142891667Y-116284280D01*
X142896054Y-116336810D01*
X142894318Y-116350000D01*
X142894318Y-116350001D01*
X142914955Y-116506760D01*
X142914956Y-116506762D01*
X142953576Y-116600000D01*
X142975464Y-116652841D01*
X143071718Y-116778282D01*
X143197159Y-116874536D01*
X143343238Y-116935044D01*
X143489010Y-116954235D01*
X143552907Y-116982501D01*
X143591378Y-117040826D01*
X143595764Y-117060988D01*
X143614956Y-117206761D01*
X143614956Y-117206762D01*
X143653576Y-117300000D01*
X143675464Y-117352841D01*
X143771718Y-117478282D01*
X143897159Y-117574536D01*
X144043238Y-117635044D01*
X144121619Y-117645363D01*
X144199999Y-117655682D01*
X144200000Y-117655682D01*
X144200001Y-117655682D01*
X144252254Y-117648802D01*
X144356762Y-117635044D01*
X144502841Y-117574536D01*
X144628282Y-117478282D01*
X144724536Y-117352841D01*
X144785044Y-117206762D01*
X144800100Y-117092398D01*
X145884318Y-117092398D01*
X145884318Y-117092401D01*
X145904955Y-117249160D01*
X145904956Y-117249162D01*
X145917017Y-117278281D01*
X145965464Y-117395241D01*
X146061718Y-117520682D01*
X146187159Y-117616936D01*
X146333238Y-117677444D01*
X146411619Y-117687763D01*
X146489999Y-117698082D01*
X146490000Y-117698082D01*
X146490001Y-117698082D01*
X146542254Y-117691202D01*
X146646762Y-117677444D01*
X146792841Y-117616936D01*
X146918282Y-117520682D01*
X147014536Y-117395241D01*
X147053987Y-117299998D01*
X153394318Y-117299998D01*
X153394318Y-117300001D01*
X153414955Y-117456760D01*
X153414956Y-117456762D01*
X153441432Y-117520682D01*
X153475464Y-117602841D01*
X153571718Y-117728282D01*
X153697159Y-117824536D01*
X153843238Y-117885044D01*
X153921619Y-117895363D01*
X153999999Y-117905682D01*
X154000000Y-117905682D01*
X154000001Y-117905682D01*
X154052254Y-117898802D01*
X154156762Y-117885044D01*
X154302841Y-117824536D01*
X154428282Y-117728282D01*
X154524536Y-117602841D01*
X154585044Y-117456762D01*
X154605682Y-117300000D01*
X154585044Y-117143238D01*
X154524536Y-116997159D01*
X154428282Y-116871718D01*
X154399976Y-116849998D01*
X163694318Y-116849998D01*
X163694318Y-116850001D01*
X163714955Y-117006760D01*
X163714956Y-117006762D01*
X163775464Y-117152841D01*
X163871718Y-117278282D01*
X163997159Y-117374536D01*
X164143238Y-117435044D01*
X164221619Y-117445363D01*
X164299999Y-117455682D01*
X164300000Y-117455682D01*
X164300001Y-117455682D01*
X164352254Y-117448802D01*
X164456762Y-117435044D01*
X164602841Y-117374536D01*
X164728282Y-117278282D01*
X164824536Y-117152841D01*
X164885044Y-117006762D01*
X164905682Y-116850000D01*
X164885044Y-116693238D01*
X164824536Y-116547159D01*
X164728282Y-116421718D01*
X164602841Y-116325464D01*
X164601723Y-116325001D01*
X164456762Y-116264956D01*
X164456760Y-116264955D01*
X164300001Y-116244318D01*
X164299999Y-116244318D01*
X164143239Y-116264955D01*
X164143237Y-116264956D01*
X163997160Y-116325463D01*
X163871718Y-116421718D01*
X163775463Y-116547160D01*
X163714956Y-116693237D01*
X163714955Y-116693239D01*
X163694318Y-116849998D01*
X154399976Y-116849998D01*
X154302841Y-116775464D01*
X154257690Y-116756762D01*
X154156762Y-116714956D01*
X154156760Y-116714955D01*
X154000001Y-116694318D01*
X153999999Y-116694318D01*
X153843239Y-116714955D01*
X153843237Y-116714956D01*
X153697160Y-116775463D01*
X153571718Y-116871718D01*
X153475463Y-116997160D01*
X153414956Y-117143237D01*
X153414955Y-117143239D01*
X153394318Y-117299998D01*
X147053987Y-117299998D01*
X147075044Y-117249162D01*
X147095682Y-117092400D01*
X147083143Y-116997160D01*
X147075044Y-116935639D01*
X147075044Y-116935638D01*
X147014536Y-116789559D01*
X146918282Y-116664118D01*
X146834719Y-116599998D01*
X150094318Y-116599998D01*
X150094318Y-116600001D01*
X150114955Y-116756760D01*
X150114956Y-116756762D01*
X150174999Y-116901720D01*
X150175464Y-116902841D01*
X150271718Y-117028282D01*
X150397159Y-117124536D01*
X150543238Y-117185044D01*
X150621619Y-117195363D01*
X150699999Y-117205682D01*
X150700000Y-117205682D01*
X150700001Y-117205682D01*
X150764739Y-117197159D01*
X150856762Y-117185044D01*
X151002841Y-117124536D01*
X151128282Y-117028282D01*
X151128286Y-117028277D01*
X151134029Y-117022535D01*
X151135474Y-117023980D01*
X151183047Y-116989241D01*
X151252793Y-116985083D01*
X151313715Y-117019292D01*
X151320116Y-117026680D01*
X151321713Y-117028277D01*
X151321715Y-117028279D01*
X151321718Y-117028282D01*
X151447159Y-117124536D01*
X151593238Y-117185044D01*
X151671619Y-117195363D01*
X151749999Y-117205682D01*
X151750000Y-117205682D01*
X151750001Y-117205682D01*
X151814739Y-117197159D01*
X151906762Y-117185044D01*
X152052841Y-117124536D01*
X152178282Y-117028282D01*
X152274536Y-116902841D01*
X152335044Y-116756762D01*
X152355682Y-116600000D01*
X152348725Y-116547159D01*
X152337069Y-116458617D01*
X152335044Y-116443238D01*
X152274536Y-116297159D01*
X152178282Y-116171718D01*
X152052841Y-116075464D01*
X151906762Y-116014956D01*
X151906760Y-116014955D01*
X151750001Y-115994318D01*
X151749999Y-115994318D01*
X151593239Y-116014955D01*
X151593237Y-116014956D01*
X151447160Y-116075463D01*
X151321713Y-116171722D01*
X151315971Y-116177465D01*
X151314526Y-116176020D01*
X151266940Y-116210763D01*
X151197194Y-116214913D01*
X151136276Y-116180697D01*
X151129881Y-116173317D01*
X151128286Y-116171722D01*
X151128283Y-116171720D01*
X151128282Y-116171718D01*
X151002841Y-116075464D01*
X150856762Y-116014956D01*
X150856760Y-116014955D01*
X150700001Y-115994318D01*
X150699999Y-115994318D01*
X150543239Y-116014955D01*
X150543237Y-116014956D01*
X150397160Y-116075463D01*
X150271718Y-116171718D01*
X150175463Y-116297160D01*
X150114956Y-116443237D01*
X150114955Y-116443239D01*
X150094318Y-116599998D01*
X146834719Y-116599998D01*
X146792841Y-116567864D01*
X146773853Y-116559999D01*
X146646762Y-116507356D01*
X146646760Y-116507355D01*
X146490001Y-116486718D01*
X146489999Y-116486718D01*
X146333239Y-116507355D01*
X146333237Y-116507356D01*
X146187160Y-116567863D01*
X146061718Y-116664118D01*
X145965463Y-116789560D01*
X145904956Y-116935637D01*
X145904955Y-116935639D01*
X145884318Y-117092398D01*
X144800100Y-117092398D01*
X144802823Y-117071718D01*
X144805682Y-117050001D01*
X144805682Y-117049998D01*
X144787903Y-116914955D01*
X144785044Y-116893238D01*
X144724536Y-116747159D01*
X144628282Y-116621718D01*
X144502841Y-116525464D01*
X144356762Y-116464956D01*
X144330168Y-116461454D01*
X144210988Y-116445764D01*
X144147092Y-116417497D01*
X144108621Y-116359173D01*
X144104235Y-116339010D01*
X144103945Y-116336810D01*
X144085044Y-116193238D01*
X144024536Y-116047159D01*
X143928282Y-115921718D01*
X143802841Y-115825464D01*
X143656762Y-115764956D01*
X143564428Y-115752800D01*
X143560699Y-115752309D01*
X143496803Y-115724042D01*
X143458332Y-115665718D01*
X143453946Y-115613184D01*
X143455682Y-115600000D01*
X143435044Y-115443238D01*
X143374536Y-115297159D01*
X143278282Y-115171718D01*
X143152841Y-115075464D01*
X143129751Y-115065900D01*
X143006762Y-115014956D01*
X142998912Y-115012853D01*
X142999406Y-115011008D01*
X142945095Y-114986980D01*
X142906626Y-114928654D01*
X142902242Y-114876126D01*
X142905682Y-114850000D01*
X142885044Y-114693238D01*
X142824536Y-114547159D01*
X142728282Y-114421718D01*
X142602841Y-114325464D01*
X142599531Y-114324093D01*
X142456762Y-114264956D01*
X142456760Y-114264955D01*
X142300001Y-114244318D01*
X142299999Y-114244318D01*
X142143239Y-114264955D01*
X142143237Y-114264956D01*
X141997160Y-114325463D01*
X141871718Y-114421718D01*
X141775463Y-114547160D01*
X141714956Y-114693237D01*
X141714955Y-114693239D01*
X141694318Y-114849998D01*
X126519389Y-114849998D01*
X126557427Y-114815322D01*
X126688712Y-114641472D01*
X126785817Y-114446459D01*
X126845435Y-114236923D01*
X126858123Y-114099998D01*
X143244318Y-114099998D01*
X143244318Y-114100001D01*
X143264955Y-114256760D01*
X143264956Y-114256762D01*
X143303576Y-114350000D01*
X143325464Y-114402841D01*
X143421718Y-114528282D01*
X143547159Y-114624536D01*
X143693238Y-114685044D01*
X143755478Y-114693238D01*
X143849999Y-114705682D01*
X143850000Y-114705682D01*
X143850001Y-114705682D01*
X143944514Y-114693239D01*
X144006762Y-114685044D01*
X144152841Y-114624536D01*
X144278282Y-114528282D01*
X144314675Y-114480854D01*
X148694318Y-114480854D01*
X148694318Y-114480857D01*
X148714955Y-114637616D01*
X148714956Y-114637618D01*
X148773220Y-114778281D01*
X148775464Y-114783697D01*
X148871718Y-114909138D01*
X148997159Y-115005392D01*
X149143238Y-115065900D01*
X149215877Y-115075463D01*
X149299999Y-115086538D01*
X149300000Y-115086538D01*
X149300001Y-115086538D01*
X149374173Y-115076773D01*
X149456762Y-115065900D01*
X149602841Y-115005392D01*
X149728282Y-114909138D01*
X149812028Y-114799998D01*
X154094318Y-114799998D01*
X154094318Y-114800001D01*
X154114955Y-114956760D01*
X154114956Y-114956762D01*
X154175464Y-115102842D01*
X154268826Y-115224514D01*
X154294020Y-115289683D01*
X154279981Y-115358128D01*
X154268826Y-115375486D01*
X154175464Y-115497157D01*
X154114956Y-115643237D01*
X154114955Y-115643239D01*
X154094318Y-115799998D01*
X154094318Y-115800001D01*
X154114955Y-115956760D01*
X154114956Y-115956762D01*
X154175464Y-116102841D01*
X154271718Y-116228282D01*
X154397159Y-116324536D01*
X154543238Y-116385044D01*
X154621619Y-116395363D01*
X154699999Y-116405682D01*
X154700000Y-116405682D01*
X154700001Y-116405682D01*
X154752254Y-116398802D01*
X154856762Y-116385044D01*
X155002841Y-116324536D01*
X155128282Y-116228282D01*
X155224536Y-116102841D01*
X155285044Y-115956762D01*
X155305682Y-115800000D01*
X155301068Y-115764956D01*
X155291923Y-115695492D01*
X155285044Y-115643238D01*
X155224536Y-115497159D01*
X155149981Y-115399998D01*
X163194318Y-115399998D01*
X163194318Y-115400001D01*
X163214955Y-115556760D01*
X163214956Y-115556762D01*
X163250775Y-115643238D01*
X163275464Y-115702841D01*
X163371718Y-115828282D01*
X163497159Y-115924536D01*
X163643238Y-115985044D01*
X163713681Y-115994318D01*
X163799999Y-116005682D01*
X163800000Y-116005682D01*
X163800001Y-116005682D01*
X163852254Y-115998802D01*
X163956762Y-115985044D01*
X164102841Y-115924536D01*
X164228282Y-115828282D01*
X164249985Y-115799998D01*
X164894318Y-115799998D01*
X164894318Y-115800001D01*
X164914955Y-115956760D01*
X164914956Y-115956762D01*
X164975464Y-116102841D01*
X165071718Y-116228282D01*
X165197159Y-116324536D01*
X165343238Y-116385044D01*
X165421619Y-116395363D01*
X165499999Y-116405682D01*
X165500000Y-116405682D01*
X165500001Y-116405682D01*
X165552254Y-116398802D01*
X165656762Y-116385044D01*
X165801726Y-116324998D01*
X166419318Y-116324998D01*
X166419318Y-116325001D01*
X166439955Y-116481760D01*
X166439956Y-116481762D01*
X166450310Y-116506760D01*
X166500464Y-116627841D01*
X166596718Y-116753282D01*
X166722159Y-116849536D01*
X166868238Y-116910044D01*
X166905541Y-116914955D01*
X167024999Y-116930682D01*
X167025000Y-116930682D01*
X167025001Y-116930682D01*
X167077254Y-116923802D01*
X167181762Y-116910044D01*
X167327841Y-116849536D01*
X167453282Y-116753282D01*
X167549536Y-116627841D01*
X167610044Y-116481762D01*
X167630682Y-116325000D01*
X167610044Y-116168238D01*
X167549536Y-116022159D01*
X167453282Y-115896718D01*
X167327841Y-115800464D01*
X167326723Y-115800001D01*
X167181762Y-115739956D01*
X167181760Y-115739955D01*
X167025001Y-115719318D01*
X167024999Y-115719318D01*
X166868239Y-115739955D01*
X166868237Y-115739956D01*
X166722160Y-115800463D01*
X166596718Y-115896718D01*
X166500463Y-116022160D01*
X166439956Y-116168237D01*
X166439955Y-116168239D01*
X166419318Y-116324998D01*
X165801726Y-116324998D01*
X165802841Y-116324536D01*
X165928282Y-116228282D01*
X166024536Y-116102841D01*
X166085044Y-115956762D01*
X166105682Y-115800000D01*
X166101068Y-115764956D01*
X166091923Y-115695492D01*
X166085044Y-115643238D01*
X166024536Y-115497159D01*
X165928282Y-115371718D01*
X165802841Y-115275464D01*
X165656762Y-115214956D01*
X165656760Y-115214955D01*
X165500001Y-115194318D01*
X165499999Y-115194318D01*
X165343239Y-115214955D01*
X165343237Y-115214956D01*
X165197160Y-115275463D01*
X165071718Y-115371718D01*
X164975463Y-115497160D01*
X164914956Y-115643237D01*
X164914955Y-115643239D01*
X164894318Y-115799998D01*
X164249985Y-115799998D01*
X164324536Y-115702841D01*
X164385044Y-115556762D01*
X164404235Y-115410988D01*
X164432501Y-115347092D01*
X164490826Y-115308621D01*
X164510985Y-115304235D01*
X164656762Y-115285044D01*
X164802841Y-115224536D01*
X164928282Y-115128282D01*
X164988351Y-115049998D01*
X169044318Y-115049998D01*
X169044318Y-115050001D01*
X169064955Y-115206760D01*
X169064956Y-115206762D01*
X169115961Y-115329900D01*
X169125464Y-115352841D01*
X169221718Y-115478282D01*
X169347159Y-115574536D01*
X169493238Y-115635044D01*
X169555478Y-115643238D01*
X169649999Y-115655682D01*
X169650000Y-115655682D01*
X169650001Y-115655682D01*
X169744514Y-115643239D01*
X169806762Y-115635044D01*
X169952841Y-115574536D01*
X170078282Y-115478282D01*
X170174536Y-115352841D01*
X170235044Y-115206762D01*
X170255682Y-115050000D01*
X170251068Y-115014956D01*
X170235044Y-114893239D01*
X170235044Y-114893238D01*
X170174536Y-114747159D01*
X170078282Y-114621718D01*
X169952841Y-114525464D01*
X169907690Y-114506762D01*
X169806762Y-114464956D01*
X169806760Y-114464955D01*
X169650001Y-114444318D01*
X169649999Y-114444318D01*
X169493239Y-114464955D01*
X169493237Y-114464956D01*
X169347160Y-114525463D01*
X169221718Y-114621718D01*
X169125463Y-114747160D01*
X169064956Y-114893237D01*
X169064955Y-114893239D01*
X169044318Y-115049998D01*
X164988351Y-115049998D01*
X165024536Y-115002841D01*
X165024536Y-115002839D01*
X165029484Y-114996392D01*
X165030581Y-114997234D01*
X165074885Y-114954975D01*
X165143490Y-114941739D01*
X165147860Y-114942235D01*
X165250000Y-114955682D01*
X165250001Y-114955682D01*
X165302254Y-114948802D01*
X165406762Y-114935044D01*
X165552841Y-114874536D01*
X165678282Y-114778282D01*
X165774536Y-114652841D01*
X165835044Y-114506762D01*
X165855682Y-114350000D01*
X165852271Y-114324094D01*
X165835044Y-114193239D01*
X165835044Y-114193238D01*
X165774536Y-114047159D01*
X165678282Y-113921718D01*
X165584814Y-113849998D01*
X167944318Y-113849998D01*
X167944318Y-113850001D01*
X167964955Y-114006760D01*
X167964956Y-114006762D01*
X168023112Y-114147164D01*
X168025464Y-114152841D01*
X168121718Y-114278282D01*
X168247159Y-114374536D01*
X168393238Y-114435044D01*
X168463681Y-114444318D01*
X168549999Y-114455682D01*
X168550000Y-114455682D01*
X168550001Y-114455682D01*
X168620056Y-114446459D01*
X168706762Y-114435044D01*
X168852841Y-114374536D01*
X168978282Y-114278282D01*
X169074536Y-114152841D01*
X169135044Y-114006762D01*
X169155682Y-113850000D01*
X169150842Y-113813240D01*
X169135044Y-113693239D01*
X169135044Y-113693238D01*
X169074536Y-113547159D01*
X168978282Y-113421718D01*
X168852841Y-113325464D01*
X168706762Y-113264956D01*
X168706760Y-113264955D01*
X168550001Y-113244318D01*
X168549999Y-113244318D01*
X168393239Y-113264955D01*
X168393237Y-113264956D01*
X168247160Y-113325463D01*
X168121718Y-113421718D01*
X168025463Y-113547160D01*
X167964956Y-113693237D01*
X167964955Y-113693239D01*
X167944318Y-113849998D01*
X165584814Y-113849998D01*
X165552841Y-113825464D01*
X165525869Y-113814292D01*
X165406762Y-113764956D01*
X165406760Y-113764955D01*
X165250001Y-113744318D01*
X165249999Y-113744318D01*
X165093239Y-113764955D01*
X165093237Y-113764956D01*
X164947160Y-113825463D01*
X164821716Y-113921719D01*
X164720517Y-114053606D01*
X164719423Y-114052767D01*
X164675089Y-114095037D01*
X164606481Y-114108257D01*
X164602088Y-114107758D01*
X164500001Y-114094318D01*
X164499999Y-114094318D01*
X164343239Y-114114955D01*
X164343237Y-114114956D01*
X164197160Y-114175463D01*
X164071718Y-114271718D01*
X163975463Y-114397160D01*
X163914956Y-114543237D01*
X163914956Y-114543239D01*
X163895764Y-114689011D01*
X163867497Y-114752907D01*
X163809172Y-114791378D01*
X163789011Y-114795764D01*
X163665729Y-114811995D01*
X163643238Y-114814956D01*
X163643237Y-114814956D01*
X163497160Y-114875463D01*
X163371718Y-114971718D01*
X163275463Y-115097160D01*
X163214956Y-115243237D01*
X163214955Y-115243239D01*
X163194318Y-115399998D01*
X155149981Y-115399998D01*
X155131171Y-115375484D01*
X155105979Y-115310317D01*
X155120017Y-115241873D01*
X155131167Y-115224521D01*
X155224536Y-115102841D01*
X155224539Y-115102832D01*
X155225393Y-115101355D01*
X155226447Y-115100349D01*
X155229484Y-115096392D01*
X155230100Y-115096865D01*
X155275955Y-115053135D01*
X155344561Y-115039905D01*
X155348940Y-115040402D01*
X155465001Y-115055682D01*
X155465002Y-115055682D01*
X155517255Y-115048802D01*
X155621763Y-115035044D01*
X155767842Y-114974536D01*
X155893283Y-114878282D01*
X155989537Y-114752841D01*
X156050045Y-114606762D01*
X156070683Y-114450000D01*
X156064474Y-114402841D01*
X156050045Y-114293239D01*
X156050045Y-114293238D01*
X155989537Y-114147159D01*
X155893283Y-114021718D01*
X155767842Y-113925464D01*
X155758798Y-113921718D01*
X155621763Y-113864956D01*
X155621761Y-113864955D01*
X155465002Y-113844318D01*
X155465000Y-113844318D01*
X155308240Y-113864955D01*
X155308238Y-113864956D01*
X155162161Y-113925463D01*
X155036717Y-114021719D01*
X154940460Y-114147164D01*
X154939596Y-114148662D01*
X154938536Y-114149671D01*
X154935518Y-114153606D01*
X154934904Y-114153134D01*
X154889025Y-114196874D01*
X154820417Y-114210092D01*
X154816029Y-114209593D01*
X154700001Y-114194318D01*
X154699999Y-114194318D01*
X154543239Y-114214955D01*
X154543237Y-114214956D01*
X154397160Y-114275463D01*
X154271718Y-114371718D01*
X154175463Y-114497160D01*
X154114956Y-114643237D01*
X154114955Y-114643239D01*
X154094318Y-114799998D01*
X149812028Y-114799998D01*
X149824536Y-114783697D01*
X149885044Y-114637618D01*
X149905682Y-114480856D01*
X149901619Y-114449998D01*
X149885044Y-114324095D01*
X149885044Y-114324094D01*
X149824536Y-114178015D01*
X149728282Y-114052574D01*
X149602841Y-113956320D01*
X149571258Y-113943238D01*
X149456762Y-113895812D01*
X149456760Y-113895811D01*
X149300001Y-113875174D01*
X149299999Y-113875174D01*
X149143239Y-113895811D01*
X149143237Y-113895812D01*
X148997160Y-113956319D01*
X148871718Y-114052574D01*
X148775463Y-114178016D01*
X148714956Y-114324093D01*
X148714955Y-114324095D01*
X148694318Y-114480854D01*
X144314675Y-114480854D01*
X144374536Y-114402841D01*
X144435044Y-114256762D01*
X144455682Y-114100000D01*
X144436383Y-113953413D01*
X144447148Y-113884382D01*
X144493528Y-113832126D01*
X144560797Y-113813240D01*
X144575501Y-113814291D01*
X144700000Y-113830682D01*
X144700001Y-113830682D01*
X144752254Y-113823802D01*
X144856762Y-113810044D01*
X145002841Y-113749536D01*
X145128282Y-113653282D01*
X145224536Y-113527841D01*
X145285044Y-113381762D01*
X145305682Y-113225000D01*
X145305639Y-113224676D01*
X145292129Y-113122054D01*
X145302895Y-113053019D01*
X145349275Y-113000763D01*
X145416544Y-112981878D01*
X145435120Y-112984437D01*
X145435180Y-112983983D01*
X145443237Y-112985043D01*
X145443238Y-112985044D01*
X145522894Y-112995530D01*
X145599999Y-113005682D01*
X145600000Y-113005682D01*
X145600001Y-113005682D01*
X145652254Y-112998802D01*
X145756762Y-112985044D01*
X145902841Y-112924536D01*
X146028282Y-112828282D01*
X146124536Y-112702841D01*
X146185044Y-112556762D01*
X146205682Y-112400000D01*
X146201500Y-112368238D01*
X146185044Y-112243239D01*
X146185044Y-112243238D01*
X146124536Y-112097159D01*
X146028282Y-111971718D01*
X145902841Y-111875464D01*
X145848224Y-111852841D01*
X145756762Y-111814956D01*
X145756760Y-111814955D01*
X145600001Y-111794318D01*
X145599999Y-111794318D01*
X145443239Y-111814955D01*
X145443237Y-111814956D01*
X145297160Y-111875463D01*
X145171718Y-111971718D01*
X145075463Y-112097160D01*
X145014956Y-112243237D01*
X145014955Y-112243239D01*
X144994318Y-112399998D01*
X144994318Y-112400002D01*
X145007870Y-112502946D01*
X144997104Y-112571981D01*
X144950724Y-112624236D01*
X144883455Y-112643121D01*
X144864879Y-112640563D01*
X144864820Y-112641017D01*
X144856762Y-112639956D01*
X144766790Y-112628111D01*
X144700001Y-112619318D01*
X144699999Y-112619318D01*
X144543239Y-112639955D01*
X144543237Y-112639956D01*
X144397160Y-112700463D01*
X144271718Y-112796718D01*
X144175463Y-112922160D01*
X144114956Y-113068237D01*
X144114955Y-113068239D01*
X144094318Y-113224998D01*
X144094318Y-113225001D01*
X144113616Y-113371583D01*
X144102850Y-113440618D01*
X144056470Y-113492874D01*
X143989202Y-113511759D01*
X143974492Y-113510707D01*
X143850001Y-113494318D01*
X143849999Y-113494318D01*
X143693239Y-113514955D01*
X143693237Y-113514956D01*
X143547160Y-113575463D01*
X143421718Y-113671718D01*
X143325463Y-113797160D01*
X143264956Y-113943237D01*
X143264955Y-113943239D01*
X143244318Y-114099998D01*
X126858123Y-114099998D01*
X126865536Y-114020000D01*
X126845435Y-113803077D01*
X126785817Y-113593541D01*
X126688712Y-113398528D01*
X126557427Y-113224678D01*
X126486478Y-113160000D01*
X126396433Y-113077913D01*
X126396423Y-113077906D01*
X126211213Y-112963229D01*
X126211207Y-112963226D01*
X126105202Y-112922160D01*
X126008069Y-112884530D01*
X125940440Y-112871888D01*
X125878161Y-112840221D01*
X125842888Y-112779909D01*
X125845822Y-112710100D01*
X125886031Y-112652960D01*
X125940439Y-112628112D01*
X126008069Y-112615470D01*
X126211210Y-112536772D01*
X126230226Y-112524998D01*
X132094318Y-112524998D01*
X132094318Y-112525001D01*
X132114955Y-112681760D01*
X132114956Y-112681762D01*
X132174966Y-112826640D01*
X132175464Y-112827841D01*
X132271718Y-112953282D01*
X132397159Y-113049536D01*
X132543238Y-113110044D01*
X132621619Y-113120363D01*
X132699999Y-113130682D01*
X132700000Y-113130682D01*
X132700001Y-113130682D01*
X132752254Y-113123802D01*
X132856762Y-113110044D01*
X133002841Y-113049536D01*
X133128282Y-112953282D01*
X133190654Y-112871995D01*
X133247079Y-112830795D01*
X133316825Y-112826640D01*
X133377746Y-112860852D01*
X133403588Y-112900029D01*
X133425464Y-112952841D01*
X133521718Y-113078282D01*
X133647159Y-113174536D01*
X133793238Y-113235044D01*
X133863681Y-113244318D01*
X133949999Y-113255682D01*
X133950000Y-113255682D01*
X133950001Y-113255682D01*
X134002254Y-113248802D01*
X134106762Y-113235044D01*
X134252841Y-113174536D01*
X134271787Y-113159998D01*
X138894318Y-113159998D01*
X138894318Y-113160001D01*
X138914955Y-113316760D01*
X138914956Y-113316762D01*
X138975464Y-113462841D01*
X139071718Y-113588282D01*
X139197159Y-113684536D01*
X139343238Y-113745044D01*
X139399447Y-113752444D01*
X139499999Y-113765682D01*
X139500000Y-113765682D01*
X139500001Y-113765682D01*
X139552254Y-113758802D01*
X139656762Y-113745044D01*
X139802841Y-113684536D01*
X139928282Y-113588282D01*
X139954986Y-113553479D01*
X140011412Y-113512278D01*
X140081158Y-113508123D01*
X140142079Y-113542335D01*
X140151729Y-113553472D01*
X140184118Y-113595682D01*
X140309559Y-113691936D01*
X140455638Y-113752444D01*
X140534019Y-113762763D01*
X140612399Y-113773082D01*
X140612400Y-113773082D01*
X140612401Y-113773082D01*
X140674131Y-113764955D01*
X140769162Y-113752444D01*
X140915241Y-113691936D01*
X141040682Y-113595682D01*
X141136936Y-113470241D01*
X141197444Y-113324162D01*
X141218082Y-113167400D01*
X141197444Y-113010638D01*
X141136936Y-112864559D01*
X141040682Y-112739118D01*
X140915241Y-112642864D01*
X140908220Y-112639956D01*
X140769162Y-112582356D01*
X140769160Y-112582355D01*
X140612401Y-112561718D01*
X140612399Y-112561718D01*
X140455639Y-112582355D01*
X140455637Y-112582356D01*
X140309560Y-112642863D01*
X140293091Y-112655500D01*
X140184118Y-112739118D01*
X140184117Y-112739119D01*
X140184116Y-112739120D01*
X140157414Y-112773919D01*
X140100986Y-112815121D01*
X140031240Y-112819276D01*
X139970320Y-112785063D01*
X139960670Y-112773927D01*
X139928282Y-112731718D01*
X139802841Y-112635464D01*
X139785089Y-112628111D01*
X139656762Y-112574956D01*
X139656760Y-112574955D01*
X139500001Y-112554318D01*
X139499999Y-112554318D01*
X139343239Y-112574955D01*
X139343237Y-112574956D01*
X139197160Y-112635463D01*
X139071718Y-112731718D01*
X138975463Y-112857160D01*
X138914956Y-113003237D01*
X138914955Y-113003239D01*
X138894318Y-113159998D01*
X134271787Y-113159998D01*
X134378282Y-113078282D01*
X134474536Y-112952841D01*
X134535044Y-112806762D01*
X134549038Y-112700463D01*
X134555682Y-112650001D01*
X134555682Y-112649998D01*
X134539226Y-112525001D01*
X134535044Y-112493238D01*
X134474536Y-112347159D01*
X134378282Y-112221718D01*
X134252841Y-112125464D01*
X134220442Y-112112044D01*
X134106762Y-112064956D01*
X134106760Y-112064955D01*
X133950001Y-112044318D01*
X133949999Y-112044318D01*
X133793239Y-112064955D01*
X133793237Y-112064956D01*
X133647160Y-112125463D01*
X133637752Y-112132682D01*
X133521718Y-112221718D01*
X133521717Y-112221719D01*
X133521716Y-112221720D01*
X133459346Y-112303002D01*
X133402918Y-112344204D01*
X133333172Y-112348359D01*
X133272252Y-112314146D01*
X133246410Y-112274968D01*
X133224536Y-112222159D01*
X133128282Y-112096718D01*
X133002841Y-112000464D01*
X132856762Y-111939956D01*
X132856760Y-111939955D01*
X132700001Y-111919318D01*
X132699999Y-111919318D01*
X132543239Y-111939955D01*
X132543237Y-111939956D01*
X132397160Y-112000463D01*
X132271718Y-112096718D01*
X132175463Y-112222160D01*
X132114956Y-112368237D01*
X132114955Y-112368239D01*
X132094318Y-112524998D01*
X126230226Y-112524998D01*
X126396432Y-112422088D01*
X126557427Y-112275322D01*
X126688712Y-112101472D01*
X126785817Y-111906459D01*
X126845435Y-111696923D01*
X126865536Y-111480000D01*
X126845435Y-111263077D01*
X126785817Y-111053541D01*
X126688712Y-110858528D01*
X126557427Y-110684678D01*
X126533660Y-110663012D01*
X126434903Y-110572983D01*
X126396432Y-110537912D01*
X126396428Y-110537909D01*
X126396423Y-110537906D01*
X126211213Y-110423229D01*
X126211207Y-110423226D01*
X126126113Y-110390260D01*
X126008069Y-110344530D01*
X125940440Y-110331888D01*
X125878161Y-110300221D01*
X125842888Y-110239909D01*
X125845822Y-110170100D01*
X125886031Y-110112960D01*
X125940439Y-110088112D01*
X126008069Y-110075470D01*
X126211210Y-109996772D01*
X126396432Y-109882088D01*
X126557427Y-109735322D01*
X126688712Y-109561472D01*
X126785817Y-109366459D01*
X126845435Y-109156923D01*
X126850710Y-109100000D01*
X131244318Y-109100000D01*
X131244318Y-109100003D01*
X131264955Y-109256762D01*
X131264956Y-109256764D01*
X131320125Y-109389955D01*
X131325464Y-109402843D01*
X131421718Y-109528284D01*
X131547159Y-109624538D01*
X131693238Y-109685046D01*
X131771619Y-109695365D01*
X131849999Y-109705684D01*
X131850000Y-109705684D01*
X131850001Y-109705684D01*
X131902254Y-109698804D01*
X132006762Y-109685046D01*
X132152841Y-109624538D01*
X132278282Y-109528284D01*
X132374536Y-109402843D01*
X132435044Y-109256764D01*
X132455682Y-109100002D01*
X132453712Y-109085042D01*
X132435044Y-108943241D01*
X132435044Y-108943240D01*
X132375711Y-108799998D01*
X132944318Y-108799998D01*
X132944318Y-108800001D01*
X132964955Y-108956760D01*
X132964956Y-108956762D01*
X132993028Y-109024535D01*
X133025464Y-109102841D01*
X133121718Y-109228282D01*
X133247159Y-109324536D01*
X133393238Y-109385044D01*
X133415777Y-109388011D01*
X133479673Y-109416277D01*
X133518145Y-109474601D01*
X133518977Y-109544466D01*
X133481905Y-109603690D01*
X133454040Y-109621132D01*
X133454196Y-109621401D01*
X133447163Y-109625460D01*
X133321718Y-109721718D01*
X133225463Y-109847160D01*
X133164956Y-109993237D01*
X133164955Y-109993239D01*
X133144318Y-110149998D01*
X133144318Y-110150001D01*
X133164955Y-110306760D01*
X133164956Y-110306762D01*
X133201395Y-110394733D01*
X133208864Y-110464203D01*
X133177589Y-110526682D01*
X133162321Y-110540561D01*
X133121721Y-110571714D01*
X133025463Y-110697160D01*
X132964956Y-110843237D01*
X132964955Y-110843239D01*
X132944318Y-110999998D01*
X132944318Y-111000001D01*
X132964955Y-111156760D01*
X132964956Y-111156762D01*
X133021933Y-111294318D01*
X133025464Y-111302841D01*
X133121718Y-111428282D01*
X133247159Y-111524536D01*
X133393238Y-111585044D01*
X133471619Y-111595363D01*
X133549999Y-111605682D01*
X133550000Y-111605682D01*
X133550001Y-111605682D01*
X133614739Y-111597159D01*
X133706762Y-111585044D01*
X133852841Y-111524536D01*
X133884820Y-111499998D01*
X135434318Y-111499998D01*
X135434318Y-111500001D01*
X135454955Y-111656760D01*
X135454956Y-111656762D01*
X135511933Y-111794318D01*
X135515464Y-111802841D01*
X135611718Y-111928282D01*
X135737159Y-112024536D01*
X135883238Y-112085044D01*
X135961619Y-112095363D01*
X136039999Y-112105682D01*
X136040000Y-112105682D01*
X136040001Y-112105682D01*
X136104739Y-112097159D01*
X136196762Y-112085044D01*
X136342841Y-112024536D01*
X136468282Y-111928282D01*
X136564536Y-111802841D01*
X136625044Y-111656762D01*
X136625934Y-111649998D01*
X142944318Y-111649998D01*
X142944318Y-111650001D01*
X142964955Y-111806760D01*
X142964956Y-111806762D01*
X143003576Y-111900000D01*
X143025464Y-111952841D01*
X143121718Y-112078282D01*
X143247159Y-112174536D01*
X143393238Y-112235044D01*
X143455478Y-112243238D01*
X143549999Y-112255682D01*
X143550000Y-112255682D01*
X143550001Y-112255682D01*
X143644514Y-112243239D01*
X143706762Y-112235044D01*
X143852841Y-112174536D01*
X143978282Y-112078282D01*
X144074536Y-111952841D01*
X144135044Y-111806762D01*
X144155682Y-111650000D01*
X144149847Y-111605682D01*
X144135044Y-111493239D01*
X144135044Y-111493238D01*
X144074536Y-111347159D01*
X143978282Y-111221718D01*
X143852841Y-111125464D01*
X143843797Y-111121718D01*
X143706762Y-111064956D01*
X143706760Y-111064955D01*
X143550001Y-111044318D01*
X143549999Y-111044318D01*
X143393239Y-111064955D01*
X143393237Y-111064956D01*
X143247160Y-111125463D01*
X143121718Y-111221718D01*
X143025463Y-111347160D01*
X142964956Y-111493237D01*
X142964955Y-111493239D01*
X142944318Y-111649998D01*
X136625934Y-111649998D01*
X136645682Y-111500000D01*
X136641068Y-111464956D01*
X136623983Y-111335180D01*
X136626377Y-111334864D01*
X136627741Y-111277284D01*
X136666897Y-111219417D01*
X136670342Y-111216673D01*
X136754361Y-111152204D01*
X136850615Y-111026763D01*
X136911123Y-110880684D01*
X136929218Y-110743237D01*
X136931761Y-110723923D01*
X136931761Y-110723920D01*
X136915611Y-110601249D01*
X136911123Y-110567160D01*
X136850615Y-110421081D01*
X136754361Y-110295640D01*
X136628920Y-110199386D01*
X136598964Y-110186978D01*
X136482841Y-110138878D01*
X136482839Y-110138877D01*
X136326080Y-110118240D01*
X136326078Y-110118240D01*
X136169318Y-110138877D01*
X136169316Y-110138878D01*
X136023239Y-110199385D01*
X135897797Y-110295640D01*
X135801542Y-110421082D01*
X135741035Y-110567159D01*
X135741034Y-110567161D01*
X135720397Y-110723920D01*
X135720397Y-110723923D01*
X135722940Y-110743237D01*
X135737885Y-110856761D01*
X135742096Y-110888742D01*
X135739703Y-110889056D01*
X135738330Y-110946658D01*
X135699165Y-111004518D01*
X135695707Y-111007270D01*
X135611720Y-111071716D01*
X135611719Y-111071717D01*
X135611718Y-111071718D01*
X135568316Y-111128281D01*
X135515463Y-111197160D01*
X135454956Y-111343237D01*
X135454955Y-111343239D01*
X135434318Y-111499998D01*
X133884820Y-111499998D01*
X133978282Y-111428282D01*
X134074536Y-111302841D01*
X134135044Y-111156762D01*
X134155682Y-111000000D01*
X134151068Y-110964956D01*
X134135044Y-110843239D01*
X134135044Y-110843238D01*
X134098603Y-110755263D01*
X134091135Y-110685797D01*
X134122410Y-110623318D01*
X134137681Y-110609436D01*
X134178277Y-110578286D01*
X134178277Y-110578285D01*
X134178282Y-110578282D01*
X134274536Y-110452841D01*
X134335044Y-110306762D01*
X134352258Y-110176011D01*
X134355682Y-110150001D01*
X134355682Y-110149999D01*
X134355152Y-110145975D01*
X134355682Y-110142575D01*
X134355682Y-110141872D01*
X134355792Y-110141872D01*
X134365914Y-110076939D01*
X134412292Y-110024681D01*
X134431407Y-110016387D01*
X134430897Y-110015154D01*
X134438404Y-110012044D01*
X134438406Y-110012044D01*
X134527843Y-109974998D01*
X147319318Y-109974998D01*
X147319318Y-109975001D01*
X147339955Y-110131760D01*
X147339956Y-110131762D01*
X147379935Y-110228281D01*
X147400464Y-110277841D01*
X147496718Y-110403282D01*
X147622159Y-110499536D01*
X147768238Y-110560044D01*
X147866524Y-110572983D01*
X147930420Y-110601249D01*
X147968891Y-110659573D01*
X147969723Y-110729438D01*
X147964989Y-110743113D01*
X147964955Y-110743239D01*
X147944318Y-110899998D01*
X147944318Y-110900001D01*
X147964955Y-111056760D01*
X147964956Y-111056762D01*
X148006376Y-111156760D01*
X148025464Y-111202841D01*
X148121718Y-111328282D01*
X148247159Y-111424536D01*
X148393238Y-111485044D01*
X148455478Y-111493238D01*
X148549999Y-111505682D01*
X148550000Y-111505682D01*
X148664458Y-111490613D01*
X148733491Y-111501378D01*
X148785747Y-111547758D01*
X148803581Y-111597365D01*
X148814956Y-111683761D01*
X148814956Y-111683762D01*
X148865903Y-111806760D01*
X148875464Y-111829841D01*
X148971718Y-111955282D01*
X149097159Y-112051536D01*
X149243238Y-112112044D01*
X149321619Y-112122363D01*
X149399999Y-112132682D01*
X149400000Y-112132682D01*
X149400001Y-112132682D01*
X149454834Y-112125463D01*
X149556762Y-112112044D01*
X149702841Y-112051536D01*
X149828282Y-111955282D01*
X149924536Y-111829841D01*
X149985044Y-111683762D01*
X150002654Y-111549998D01*
X150767318Y-111549998D01*
X150767318Y-111550001D01*
X150787955Y-111706760D01*
X150787956Y-111706762D01*
X150829376Y-111806760D01*
X150848464Y-111852841D01*
X150944718Y-111978282D01*
X151070159Y-112074536D01*
X151216238Y-112135044D01*
X151294619Y-112145363D01*
X151372999Y-112155682D01*
X151373000Y-112155682D01*
X151373001Y-112155682D01*
X151425254Y-112148802D01*
X151529762Y-112135044D01*
X151675841Y-112074536D01*
X151801282Y-111978282D01*
X151897536Y-111852841D01*
X151958044Y-111706762D01*
X151978682Y-111550000D01*
X151972847Y-111505682D01*
X151958044Y-111393239D01*
X151958044Y-111393238D01*
X151897536Y-111247159D01*
X151801282Y-111121718D01*
X151675841Y-111025464D01*
X151658439Y-111018256D01*
X151529762Y-110964956D01*
X151529760Y-110964955D01*
X151373001Y-110944318D01*
X151372999Y-110944318D01*
X151216239Y-110964955D01*
X151216237Y-110964956D01*
X151070160Y-111025463D01*
X150944718Y-111121718D01*
X150848463Y-111247160D01*
X150787956Y-111393237D01*
X150787955Y-111393239D01*
X150767318Y-111549998D01*
X150002654Y-111549998D01*
X150005682Y-111527000D01*
X150002875Y-111505682D01*
X149985044Y-111370239D01*
X149985044Y-111370238D01*
X149924536Y-111224159D01*
X149828282Y-111098718D01*
X149702841Y-111002464D01*
X149696892Y-111000000D01*
X149556762Y-110941956D01*
X149556760Y-110941955D01*
X149400001Y-110921318D01*
X149399999Y-110921318D01*
X149285542Y-110936386D01*
X149216506Y-110925620D01*
X149164251Y-110879240D01*
X149146418Y-110829632D01*
X149136682Y-110755682D01*
X149135044Y-110743238D01*
X149074536Y-110597159D01*
X148978282Y-110471718D01*
X148852841Y-110375464D01*
X148706762Y-110314956D01*
X148675817Y-110310882D01*
X148608475Y-110302016D01*
X148544579Y-110273749D01*
X148506108Y-110215425D01*
X148505277Y-110145560D01*
X148510010Y-110131887D01*
X148510042Y-110131765D01*
X148510044Y-110131762D01*
X148530682Y-109975000D01*
X148510044Y-109818238D01*
X148449536Y-109672159D01*
X148394165Y-109599998D01*
X150144318Y-109599998D01*
X150144318Y-109600001D01*
X150164955Y-109756760D01*
X150164956Y-109756762D01*
X150225464Y-109902841D01*
X150321718Y-110028282D01*
X150447159Y-110124536D01*
X150593238Y-110185044D01*
X150671619Y-110195363D01*
X150749999Y-110205682D01*
X150750000Y-110205682D01*
X150750001Y-110205682D01*
X150802254Y-110198802D01*
X150906762Y-110185044D01*
X150991370Y-110149998D01*
X152344318Y-110149998D01*
X152344318Y-110150001D01*
X152364955Y-110306760D01*
X152364956Y-110306762D01*
X152412308Y-110421081D01*
X152425464Y-110452841D01*
X152521718Y-110578282D01*
X152647159Y-110674536D01*
X152793238Y-110735044D01*
X152855478Y-110743238D01*
X152949999Y-110755682D01*
X152950000Y-110755682D01*
X152950001Y-110755682D01*
X153044514Y-110743239D01*
X153106762Y-110735044D01*
X153252841Y-110674536D01*
X153253304Y-110674180D01*
X153253768Y-110674001D01*
X153259881Y-110670472D01*
X153260430Y-110671424D01*
X153318469Y-110648980D01*
X153386916Y-110663012D01*
X153436910Y-110711820D01*
X153451738Y-110756363D01*
X153464956Y-110856761D01*
X153464956Y-110856762D01*
X153468991Y-110866503D01*
X153476458Y-110935973D01*
X153445182Y-110998451D01*
X153401882Y-111028515D01*
X153280572Y-111078763D01*
X153155130Y-111175018D01*
X153058875Y-111300460D01*
X152998368Y-111446537D01*
X152998367Y-111446539D01*
X152977730Y-111603298D01*
X152977730Y-111603301D01*
X152998367Y-111760060D01*
X152998368Y-111760062D01*
X153036797Y-111852839D01*
X153058876Y-111906141D01*
X153155130Y-112031582D01*
X153280571Y-112127836D01*
X153426650Y-112188344D01*
X153505031Y-112198663D01*
X153583411Y-112208982D01*
X153583412Y-112208982D01*
X153583413Y-112208982D01*
X153635666Y-112202102D01*
X153740174Y-112188344D01*
X153886253Y-112127836D01*
X153987694Y-112049998D01*
X155794318Y-112049998D01*
X155794318Y-112050001D01*
X155814955Y-112206760D01*
X155814956Y-112206762D01*
X155843354Y-112275322D01*
X155875464Y-112352841D01*
X155971718Y-112478282D01*
X156097159Y-112574536D01*
X156243238Y-112635044D01*
X156288608Y-112641017D01*
X156399999Y-112655682D01*
X156400000Y-112655682D01*
X156400001Y-112655682D01*
X156452254Y-112648802D01*
X156556762Y-112635044D01*
X156702841Y-112574536D01*
X156828282Y-112478282D01*
X156924536Y-112352841D01*
X156985044Y-112206762D01*
X156999473Y-112097159D01*
X157005682Y-112050001D01*
X157005682Y-112049998D01*
X156991923Y-111945492D01*
X156985934Y-111899998D01*
X165894318Y-111899998D01*
X165894318Y-111900001D01*
X165914955Y-112056760D01*
X165914956Y-112056762D01*
X165947381Y-112135044D01*
X165975464Y-112202841D01*
X166071718Y-112328282D01*
X166197159Y-112424536D01*
X166343238Y-112485044D01*
X166405478Y-112493238D01*
X166499999Y-112505682D01*
X166500000Y-112505682D01*
X166500001Y-112505682D01*
X166594514Y-112493239D01*
X166656762Y-112485044D01*
X166802841Y-112424536D01*
X166928282Y-112328282D01*
X167024536Y-112202841D01*
X167085044Y-112056762D01*
X167105682Y-111900000D01*
X167099473Y-111852841D01*
X167085044Y-111743239D01*
X167085044Y-111743238D01*
X167024536Y-111597159D01*
X166928282Y-111471718D01*
X166802841Y-111375464D01*
X166790224Y-111370238D01*
X166656762Y-111314956D01*
X166656760Y-111314955D01*
X166500001Y-111294318D01*
X166499999Y-111294318D01*
X166343239Y-111314955D01*
X166343237Y-111314956D01*
X166197160Y-111375463D01*
X166071718Y-111471718D01*
X165975463Y-111597160D01*
X165914956Y-111743237D01*
X165914955Y-111743239D01*
X165894318Y-111899998D01*
X156985934Y-111899998D01*
X156985044Y-111893238D01*
X156924536Y-111747159D01*
X156828282Y-111621718D01*
X156702841Y-111525464D01*
X156644692Y-111501378D01*
X156556762Y-111464956D01*
X156556760Y-111464955D01*
X156400001Y-111444318D01*
X156399999Y-111444318D01*
X156243239Y-111464955D01*
X156243237Y-111464956D01*
X156097160Y-111525463D01*
X155971718Y-111621718D01*
X155875463Y-111747160D01*
X155814956Y-111893237D01*
X155814955Y-111893239D01*
X155794318Y-112049998D01*
X153987694Y-112049998D01*
X154011694Y-112031582D01*
X154107948Y-111906141D01*
X154168456Y-111760062D01*
X154186669Y-111621718D01*
X154189094Y-111603301D01*
X154189094Y-111603298D01*
X154175676Y-111501378D01*
X154168456Y-111446538D01*
X154164420Y-111436795D01*
X154156952Y-111367330D01*
X154188226Y-111304850D01*
X154231527Y-111274785D01*
X154352841Y-111224536D01*
X154478282Y-111128282D01*
X154574536Y-111002841D01*
X154635044Y-110856762D01*
X154651806Y-110729438D01*
X154655682Y-110700001D01*
X154655682Y-110699998D01*
X154638793Y-110571714D01*
X154635044Y-110543238D01*
X154574536Y-110397159D01*
X154478282Y-110271718D01*
X154352841Y-110175464D01*
X154339891Y-110170100D01*
X154206762Y-110114956D01*
X154206760Y-110114955D01*
X154050001Y-110094318D01*
X154049999Y-110094318D01*
X153893239Y-110114955D01*
X153893237Y-110114956D01*
X153747156Y-110175465D01*
X153747153Y-110175467D01*
X153746680Y-110175830D01*
X153746209Y-110176011D01*
X153740119Y-110179528D01*
X153739570Y-110178578D01*
X153681510Y-110201021D01*
X153613066Y-110186978D01*
X153563079Y-110138161D01*
X153548261Y-110093635D01*
X153545869Y-110075469D01*
X153535044Y-109993238D01*
X153474536Y-109847159D01*
X153438348Y-109799998D01*
X158944318Y-109799998D01*
X158944318Y-109800001D01*
X158964955Y-109956760D01*
X158964956Y-109956762D01*
X159021933Y-110094318D01*
X159025464Y-110102841D01*
X159121718Y-110228282D01*
X159247159Y-110324536D01*
X159393238Y-110385044D01*
X159466834Y-110394733D01*
X159549999Y-110405682D01*
X159550000Y-110405682D01*
X159550001Y-110405682D01*
X159633166Y-110394733D01*
X159706762Y-110385044D01*
X159852841Y-110324536D01*
X159978282Y-110228282D01*
X160074536Y-110102841D01*
X160135044Y-109956762D01*
X160155682Y-109800000D01*
X160149989Y-109756760D01*
X160138852Y-109672160D01*
X160135044Y-109643238D01*
X160074536Y-109497159D01*
X159978282Y-109371718D01*
X159852841Y-109275464D01*
X159840224Y-109270238D01*
X159706762Y-109214956D01*
X159706760Y-109214955D01*
X159550001Y-109194318D01*
X159549999Y-109194318D01*
X159393239Y-109214955D01*
X159393237Y-109214956D01*
X159247160Y-109275463D01*
X159121718Y-109371718D01*
X159025463Y-109497160D01*
X158964956Y-109643237D01*
X158964955Y-109643239D01*
X158944318Y-109799998D01*
X153438348Y-109799998D01*
X153378282Y-109721718D01*
X153252841Y-109625464D01*
X153252831Y-109625460D01*
X153106762Y-109564956D01*
X153106760Y-109564955D01*
X152950001Y-109544318D01*
X152949999Y-109544318D01*
X152793239Y-109564955D01*
X152793237Y-109564956D01*
X152647160Y-109625463D01*
X152521718Y-109721718D01*
X152425463Y-109847160D01*
X152364956Y-109993237D01*
X152364955Y-109993239D01*
X152344318Y-110149998D01*
X150991370Y-110149998D01*
X151052841Y-110124536D01*
X151178282Y-110028282D01*
X151274536Y-109902841D01*
X151335044Y-109756762D01*
X151355682Y-109600000D01*
X151351068Y-109564956D01*
X151335044Y-109443239D01*
X151335044Y-109443238D01*
X151274536Y-109297159D01*
X151178282Y-109171718D01*
X151052841Y-109075464D01*
X150906762Y-109014956D01*
X150906760Y-109014955D01*
X150750001Y-108994318D01*
X150749999Y-108994318D01*
X150593239Y-109014955D01*
X150593237Y-109014956D01*
X150447160Y-109075463D01*
X150321718Y-109171718D01*
X150225463Y-109297160D01*
X150164956Y-109443237D01*
X150164955Y-109443239D01*
X150144318Y-109599998D01*
X148394165Y-109599998D01*
X148353282Y-109546718D01*
X148227841Y-109450464D01*
X148210398Y-109443239D01*
X148081762Y-109389956D01*
X148081760Y-109389955D01*
X147925001Y-109369318D01*
X147924999Y-109369318D01*
X147768239Y-109389955D01*
X147768237Y-109389956D01*
X147622160Y-109450463D01*
X147496718Y-109546718D01*
X147400463Y-109672160D01*
X147339956Y-109818237D01*
X147339955Y-109818239D01*
X147319318Y-109974998D01*
X134527843Y-109974998D01*
X134584485Y-109951536D01*
X134709926Y-109855282D01*
X134806180Y-109729841D01*
X134866688Y-109583762D01*
X134887326Y-109427000D01*
X134885914Y-109416277D01*
X134866688Y-109270239D01*
X134866688Y-109270238D01*
X134806180Y-109124159D01*
X134709926Y-108998718D01*
X134584485Y-108902464D01*
X134577416Y-108899536D01*
X134438406Y-108841956D01*
X134438404Y-108841955D01*
X134281645Y-108821318D01*
X134273517Y-108821318D01*
X134273517Y-108819510D01*
X134214486Y-108810303D01*
X134162232Y-108763921D01*
X134144401Y-108714318D01*
X134135044Y-108643238D01*
X134074536Y-108497159D01*
X133978282Y-108371718D01*
X133949976Y-108349998D01*
X135494318Y-108349998D01*
X135494318Y-108350001D01*
X135514955Y-108506760D01*
X135514956Y-108506762D01*
X135525310Y-108531760D01*
X135575464Y-108652841D01*
X135671718Y-108778282D01*
X135797159Y-108874536D01*
X135943238Y-108935044D01*
X135980883Y-108940000D01*
X136099999Y-108955682D01*
X136100000Y-108955682D01*
X136100001Y-108955682D01*
X136152254Y-108948802D01*
X136256762Y-108935044D01*
X136402841Y-108874536D01*
X136528282Y-108778282D01*
X136624536Y-108652841D01*
X136685044Y-108506762D01*
X136685935Y-108499997D01*
X139194319Y-108499997D01*
X139194319Y-108500000D01*
X139214956Y-108656759D01*
X139214957Y-108656761D01*
X139274288Y-108800000D01*
X139275465Y-108802840D01*
X139371719Y-108928281D01*
X139497160Y-109024535D01*
X139643239Y-109085043D01*
X139721620Y-109095362D01*
X139800000Y-109105681D01*
X139800001Y-109105681D01*
X139800002Y-109105681D01*
X139852255Y-109098801D01*
X139956763Y-109085043D01*
X140102842Y-109024535D01*
X140164795Y-108976997D01*
X142294318Y-108976997D01*
X142294318Y-108977000D01*
X142314955Y-109133759D01*
X142314956Y-109133761D01*
X142365905Y-109256764D01*
X142375464Y-109279840D01*
X142471718Y-109405281D01*
X142597159Y-109501535D01*
X142743238Y-109562043D01*
X142765365Y-109564956D01*
X142899999Y-109582681D01*
X142900000Y-109582681D01*
X142900001Y-109582681D01*
X142952254Y-109575801D01*
X143056762Y-109562043D01*
X143202841Y-109501535D01*
X143328282Y-109405281D01*
X143424536Y-109279840D01*
X143485044Y-109133761D01*
X143505682Y-108976999D01*
X143503017Y-108956760D01*
X143485044Y-108820238D01*
X143485044Y-108820237D01*
X143435239Y-108699997D01*
X148194318Y-108699997D01*
X148194318Y-108700000D01*
X148214955Y-108856759D01*
X148214956Y-108856761D01*
X148273756Y-108998718D01*
X148275464Y-109002840D01*
X148371718Y-109128281D01*
X148497159Y-109224535D01*
X148643238Y-109285043D01*
X148721619Y-109295362D01*
X148799999Y-109305681D01*
X148800000Y-109305681D01*
X148800001Y-109305681D01*
X148864731Y-109297159D01*
X148956762Y-109285043D01*
X149102841Y-109224535D01*
X149228282Y-109128281D01*
X149324536Y-109002840D01*
X149385044Y-108856761D01*
X149405682Y-108699999D01*
X149399989Y-108656759D01*
X149385044Y-108543238D01*
X149385044Y-108543237D01*
X149324536Y-108397158D01*
X149307532Y-108374998D01*
X151394318Y-108374998D01*
X151394318Y-108375001D01*
X151414955Y-108531760D01*
X151414956Y-108531762D01*
X151472928Y-108671720D01*
X151475464Y-108677841D01*
X151571718Y-108803282D01*
X151697159Y-108899536D01*
X151843238Y-108960044D01*
X151921619Y-108970363D01*
X151999999Y-108980682D01*
X152000000Y-108980682D01*
X152000001Y-108980682D01*
X152052254Y-108973802D01*
X152156762Y-108960044D01*
X152302841Y-108899536D01*
X152428282Y-108803282D01*
X152524536Y-108677841D01*
X152585044Y-108531762D01*
X152605682Y-108375000D01*
X152602390Y-108349998D01*
X152585044Y-108218239D01*
X152585044Y-108218238D01*
X152524536Y-108072159D01*
X152504998Y-108046696D01*
X153394318Y-108046696D01*
X153394318Y-108046699D01*
X153414955Y-108203458D01*
X153414956Y-108203460D01*
X153472853Y-108343237D01*
X153475464Y-108349539D01*
X153571718Y-108474980D01*
X153697159Y-108571234D01*
X153843238Y-108631742D01*
X153921619Y-108642061D01*
X153999999Y-108652380D01*
X154000000Y-108652380D01*
X154000001Y-108652380D01*
X154069433Y-108643239D01*
X154156762Y-108631742D01*
X154302841Y-108571234D01*
X154428282Y-108474980D01*
X154524536Y-108349539D01*
X154585044Y-108203460D01*
X154605682Y-108046698D01*
X154604147Y-108035042D01*
X154585044Y-107889937D01*
X154585044Y-107889936D01*
X154524536Y-107743857D01*
X154428282Y-107618416D01*
X154302841Y-107522162D01*
X154213230Y-107485044D01*
X154156762Y-107461654D01*
X154156760Y-107461653D01*
X154000001Y-107441016D01*
X153999999Y-107441016D01*
X153843239Y-107461653D01*
X153843237Y-107461654D01*
X153697160Y-107522161D01*
X153571718Y-107618416D01*
X153475463Y-107743858D01*
X153414956Y-107889935D01*
X153414955Y-107889937D01*
X153394318Y-108046696D01*
X152504998Y-108046696D01*
X152428282Y-107946718D01*
X152302841Y-107850464D01*
X152242483Y-107825463D01*
X152156762Y-107789956D01*
X152156760Y-107789955D01*
X152000001Y-107769318D01*
X151999999Y-107769318D01*
X151843239Y-107789955D01*
X151843237Y-107789956D01*
X151697160Y-107850463D01*
X151571718Y-107946718D01*
X151475463Y-108072160D01*
X151414956Y-108218237D01*
X151414955Y-108218239D01*
X151394318Y-108374998D01*
X149307532Y-108374998D01*
X149228282Y-108271717D01*
X149102841Y-108175463D01*
X148956762Y-108114955D01*
X148956760Y-108114954D01*
X148800001Y-108094317D01*
X148799999Y-108094317D01*
X148643239Y-108114954D01*
X148643237Y-108114955D01*
X148497160Y-108175462D01*
X148371718Y-108271717D01*
X148275463Y-108397159D01*
X148214956Y-108543236D01*
X148214955Y-108543238D01*
X148194318Y-108699997D01*
X143435239Y-108699997D01*
X143424536Y-108674158D01*
X143328282Y-108548717D01*
X143202841Y-108452463D01*
X143056762Y-108391955D01*
X143056760Y-108391954D01*
X142900001Y-108371317D01*
X142899999Y-108371317D01*
X142743239Y-108391954D01*
X142743237Y-108391955D01*
X142597160Y-108452462D01*
X142471718Y-108548717D01*
X142375463Y-108674159D01*
X142314956Y-108820236D01*
X142314955Y-108820238D01*
X142294318Y-108976997D01*
X140164795Y-108976997D01*
X140228283Y-108928281D01*
X140324537Y-108802840D01*
X140385045Y-108656761D01*
X140405683Y-108499999D01*
X140404935Y-108494320D01*
X140385045Y-108343238D01*
X140385045Y-108343237D01*
X140324537Y-108197158D01*
X140228283Y-108071717D01*
X140102842Y-107975463D01*
X139956763Y-107914955D01*
X139956761Y-107914954D01*
X139800002Y-107894317D01*
X139800000Y-107894317D01*
X139643240Y-107914954D01*
X139643238Y-107914955D01*
X139497161Y-107975462D01*
X139371719Y-108071717D01*
X139275464Y-108197159D01*
X139214957Y-108343236D01*
X139214956Y-108343238D01*
X139194319Y-108499997D01*
X136685935Y-108499997D01*
X136705682Y-108350000D01*
X136705621Y-108349539D01*
X136685044Y-108193239D01*
X136685044Y-108193238D01*
X136624536Y-108047159D01*
X136528282Y-107921718D01*
X136402841Y-107825464D01*
X136256762Y-107764956D01*
X136256760Y-107764955D01*
X136100001Y-107744318D01*
X136099999Y-107744318D01*
X135943239Y-107764955D01*
X135943237Y-107764956D01*
X135797160Y-107825463D01*
X135671718Y-107921718D01*
X135575463Y-108047160D01*
X135514956Y-108193237D01*
X135514955Y-108193239D01*
X135494318Y-108349998D01*
X133949976Y-108349998D01*
X133852841Y-108275464D01*
X133706762Y-108214956D01*
X133706760Y-108214955D01*
X133550001Y-108194318D01*
X133549999Y-108194318D01*
X133393239Y-108214955D01*
X133393237Y-108214956D01*
X133247160Y-108275463D01*
X133121718Y-108371718D01*
X133025463Y-108497160D01*
X132964956Y-108643237D01*
X132964955Y-108643239D01*
X132944318Y-108799998D01*
X132375711Y-108799998D01*
X132374536Y-108797161D01*
X132278282Y-108671720D01*
X132152841Y-108575466D01*
X132088263Y-108548717D01*
X132006762Y-108514958D01*
X132006760Y-108514957D01*
X131850001Y-108494320D01*
X131849999Y-108494320D01*
X131693239Y-108514957D01*
X131693237Y-108514958D01*
X131547160Y-108575465D01*
X131421718Y-108671720D01*
X131325463Y-108797162D01*
X131264956Y-108943239D01*
X131264955Y-108943241D01*
X131244318Y-109100000D01*
X126850710Y-109100000D01*
X126865536Y-108940000D01*
X126845435Y-108723077D01*
X126785817Y-108513541D01*
X126688712Y-108318528D01*
X126557427Y-108144678D01*
X126502183Y-108094317D01*
X126396433Y-107997913D01*
X126396423Y-107997906D01*
X126211213Y-107883229D01*
X126211207Y-107883226D01*
X126126113Y-107850260D01*
X126008069Y-107804530D01*
X125940440Y-107791888D01*
X125878161Y-107760221D01*
X125842888Y-107699909D01*
X125845822Y-107630100D01*
X125867005Y-107599998D01*
X134094318Y-107599998D01*
X134094318Y-107600001D01*
X134114955Y-107756760D01*
X134114956Y-107756762D01*
X134170118Y-107889936D01*
X134175464Y-107902841D01*
X134271718Y-108028282D01*
X134397159Y-108124536D01*
X134543238Y-108185044D01*
X134605478Y-108193238D01*
X134699999Y-108205682D01*
X134700000Y-108205682D01*
X134700001Y-108205682D01*
X134764739Y-108197159D01*
X134856762Y-108185044D01*
X135002841Y-108124536D01*
X135128282Y-108028282D01*
X135224536Y-107902841D01*
X135285044Y-107756762D01*
X135305682Y-107600000D01*
X135295434Y-107522162D01*
X135286826Y-107456772D01*
X135285044Y-107443238D01*
X135224536Y-107297159D01*
X135128282Y-107171718D01*
X135002841Y-107075464D01*
X134957690Y-107056762D01*
X134856762Y-107014956D01*
X134856760Y-107014955D01*
X134700001Y-106994318D01*
X134699999Y-106994318D01*
X134543239Y-107014955D01*
X134543237Y-107014956D01*
X134397160Y-107075463D01*
X134271718Y-107171718D01*
X134175463Y-107297160D01*
X134114956Y-107443237D01*
X134114955Y-107443239D01*
X134094318Y-107599998D01*
X125867005Y-107599998D01*
X125886031Y-107572960D01*
X125940439Y-107548112D01*
X126008069Y-107535470D01*
X126211210Y-107456772D01*
X126396432Y-107342088D01*
X126557427Y-107195322D01*
X126688712Y-107021472D01*
X126749199Y-106899998D01*
X136594318Y-106899998D01*
X136594318Y-106900001D01*
X136614955Y-107056760D01*
X136614956Y-107056762D01*
X136672349Y-107195322D01*
X136675464Y-107202841D01*
X136771718Y-107328282D01*
X136897159Y-107424536D01*
X137043238Y-107485044D01*
X137121619Y-107495363D01*
X137199999Y-107505682D01*
X137200000Y-107505682D01*
X137200001Y-107505682D01*
X137252254Y-107498802D01*
X137356762Y-107485044D01*
X137441373Y-107449997D01*
X142794319Y-107449997D01*
X142794319Y-107450000D01*
X142814956Y-107606759D01*
X142814957Y-107606761D01*
X142871744Y-107743858D01*
X142875465Y-107752840D01*
X142971719Y-107878281D01*
X143097160Y-107974535D01*
X143243239Y-108035043D01*
X143321620Y-108045362D01*
X143400000Y-108055681D01*
X143400001Y-108055681D01*
X143400002Y-108055681D01*
X143468249Y-108046696D01*
X143556763Y-108035043D01*
X143702842Y-107974535D01*
X143828283Y-107878281D01*
X143924537Y-107752840D01*
X143985045Y-107606761D01*
X144005683Y-107449999D01*
X144004500Y-107441016D01*
X143985045Y-107293238D01*
X143985045Y-107293237D01*
X143924537Y-107147158D01*
X143828283Y-107021717D01*
X143702842Y-106925463D01*
X143641371Y-106900001D01*
X143556763Y-106864955D01*
X143556761Y-106864954D01*
X143400002Y-106844317D01*
X143400000Y-106844317D01*
X143243240Y-106864954D01*
X143243238Y-106864955D01*
X143097161Y-106925462D01*
X142971719Y-107021717D01*
X142875464Y-107147159D01*
X142814957Y-107293236D01*
X142814956Y-107293238D01*
X142794319Y-107449997D01*
X137441373Y-107449997D01*
X137502841Y-107424536D01*
X137628282Y-107328282D01*
X137724536Y-107202841D01*
X137785044Y-107056762D01*
X137800528Y-106939146D01*
X137805682Y-106900001D01*
X137805682Y-106899998D01*
X137790198Y-106782384D01*
X137785044Y-106743238D01*
X137724536Y-106597159D01*
X137628282Y-106471718D01*
X137502841Y-106375464D01*
X137451266Y-106354101D01*
X137356762Y-106314956D01*
X137356760Y-106314955D01*
X137200001Y-106294318D01*
X137199999Y-106294318D01*
X137043239Y-106314955D01*
X137043237Y-106314956D01*
X136897160Y-106375463D01*
X136771718Y-106471718D01*
X136675463Y-106597160D01*
X136614956Y-106743237D01*
X136614955Y-106743239D01*
X136594318Y-106899998D01*
X126749199Y-106899998D01*
X126785817Y-106826459D01*
X126845435Y-106616923D01*
X126865536Y-106400000D01*
X126863736Y-106380580D01*
X126855743Y-106294318D01*
X126845435Y-106183077D01*
X126785817Y-105973541D01*
X126688712Y-105778528D01*
X126557427Y-105604678D01*
X126485822Y-105539402D01*
X126396433Y-105457913D01*
X126396423Y-105457906D01*
X126211213Y-105343229D01*
X126211207Y-105343226D01*
X126099629Y-105300001D01*
X126008069Y-105264530D01*
X125940440Y-105251888D01*
X125878161Y-105220221D01*
X125842888Y-105159909D01*
X125845822Y-105090100D01*
X125886031Y-105032960D01*
X125940439Y-105008112D01*
X126008069Y-104995470D01*
X126211210Y-104916772D01*
X126238301Y-104899998D01*
X139994318Y-104899998D01*
X139994318Y-104900001D01*
X140014955Y-105056760D01*
X140014956Y-105056762D01*
X140071933Y-105194318D01*
X140075464Y-105202841D01*
X140171718Y-105328282D01*
X140297159Y-105424536D01*
X140443238Y-105485044D01*
X140521619Y-105495363D01*
X140599999Y-105505682D01*
X140600000Y-105505682D01*
X140600001Y-105505682D01*
X140664739Y-105497159D01*
X140756762Y-105485044D01*
X140902841Y-105424536D01*
X141028282Y-105328282D01*
X141124536Y-105202841D01*
X141185044Y-105056762D01*
X141205682Y-104900000D01*
X141199099Y-104850000D01*
X141199099Y-104849998D01*
X143044318Y-104849998D01*
X143044318Y-104850001D01*
X143064955Y-105006760D01*
X143064956Y-105006762D01*
X143111400Y-105118889D01*
X143125464Y-105152841D01*
X143221718Y-105278282D01*
X143347159Y-105374536D01*
X143493238Y-105435044D01*
X143571619Y-105445363D01*
X143649999Y-105455682D01*
X143650000Y-105455682D01*
X143650001Y-105455682D01*
X143702254Y-105448802D01*
X143806762Y-105435044D01*
X143945954Y-105377388D01*
X144015420Y-105369920D01*
X144077899Y-105401195D01*
X144113552Y-105461284D01*
X144111059Y-105531109D01*
X144107965Y-105539402D01*
X144064957Y-105643234D01*
X144064955Y-105643239D01*
X144044318Y-105799998D01*
X144044318Y-105800001D01*
X144064955Y-105956760D01*
X144064956Y-105956762D01*
X144125464Y-106102841D01*
X144221718Y-106228282D01*
X144347159Y-106324536D01*
X144394285Y-106344056D01*
X144448689Y-106387896D01*
X144470754Y-106454190D01*
X144453475Y-106521890D01*
X144445209Y-106534103D01*
X144366788Y-106636302D01*
X144306280Y-106782382D01*
X144306279Y-106782384D01*
X144285642Y-106939143D01*
X144285642Y-106939146D01*
X144306279Y-107095905D01*
X144306280Y-107095907D01*
X144350573Y-107202841D01*
X144366788Y-107241986D01*
X144463042Y-107367427D01*
X144588483Y-107463681D01*
X144734562Y-107524189D01*
X144812943Y-107534508D01*
X144891323Y-107544827D01*
X144891324Y-107544827D01*
X144891325Y-107544827D01*
X144943578Y-107537947D01*
X145048086Y-107524189D01*
X145194165Y-107463681D01*
X145319606Y-107367427D01*
X145415860Y-107241986D01*
X145476368Y-107095907D01*
X145497006Y-106939145D01*
X145491852Y-106900000D01*
X145476368Y-106782384D01*
X145476368Y-106782383D01*
X145415860Y-106636304D01*
X145322160Y-106514191D01*
X145296967Y-106449024D01*
X145311005Y-106380580D01*
X145359819Y-106330590D01*
X145427911Y-106314926D01*
X145436698Y-106315765D01*
X145550000Y-106330682D01*
X145550001Y-106330682D01*
X145602254Y-106323802D01*
X145706762Y-106310044D01*
X145852841Y-106249536D01*
X145978282Y-106153282D01*
X146074536Y-106027841D01*
X146106780Y-105949998D01*
X155894318Y-105949998D01*
X155894318Y-105950001D01*
X155914955Y-106106760D01*
X155914956Y-106106762D01*
X155937048Y-106160098D01*
X155975464Y-106252841D01*
X156071718Y-106378282D01*
X156197159Y-106474536D01*
X156343238Y-106535044D01*
X156421619Y-106545363D01*
X156499999Y-106555682D01*
X156500000Y-106555682D01*
X156500001Y-106555682D01*
X156552254Y-106548802D01*
X156656762Y-106535044D01*
X156802841Y-106474536D01*
X156928282Y-106378282D01*
X157024536Y-106252841D01*
X157085044Y-106106762D01*
X157102583Y-105973537D01*
X157105682Y-105950001D01*
X157105682Y-105950000D01*
X157099847Y-105905682D01*
X157086395Y-105803502D01*
X157097160Y-105734469D01*
X157143540Y-105682213D01*
X157210809Y-105663328D01*
X157277610Y-105683808D01*
X157307708Y-105711830D01*
X157381718Y-105808282D01*
X157507159Y-105904536D01*
X157653238Y-105965044D01*
X157731619Y-105975363D01*
X157809999Y-105985682D01*
X157810000Y-105985682D01*
X157810001Y-105985682D01*
X157862254Y-105978802D01*
X157966762Y-105965044D01*
X158112841Y-105904536D01*
X158238282Y-105808282D01*
X158334536Y-105682841D01*
X158395044Y-105536762D01*
X158413049Y-105399998D01*
X162194318Y-105399998D01*
X162194318Y-105400001D01*
X162214955Y-105556760D01*
X162214956Y-105556762D01*
X162266919Y-105682213D01*
X162275464Y-105702841D01*
X162371718Y-105828282D01*
X162497159Y-105924536D01*
X162643238Y-105985044D01*
X162721619Y-105995363D01*
X162799999Y-106005682D01*
X162800000Y-106005682D01*
X162800001Y-106005682D01*
X162852254Y-105998802D01*
X162956762Y-105985044D01*
X163102841Y-105924536D01*
X163228282Y-105828282D01*
X163324536Y-105702841D01*
X163385044Y-105556762D01*
X163405682Y-105400000D01*
X163401068Y-105364956D01*
X163385044Y-105243239D01*
X163385044Y-105243238D01*
X163324536Y-105097159D01*
X163228282Y-104971718D01*
X163102841Y-104875464D01*
X163093797Y-104871718D01*
X162956762Y-104814956D01*
X162956760Y-104814955D01*
X162800001Y-104794318D01*
X162799999Y-104794318D01*
X162643239Y-104814955D01*
X162643237Y-104814956D01*
X162497160Y-104875463D01*
X162371718Y-104971718D01*
X162275463Y-105097160D01*
X162214956Y-105243237D01*
X162214955Y-105243239D01*
X162194318Y-105399998D01*
X158413049Y-105399998D01*
X158415682Y-105380000D01*
X158415338Y-105377389D01*
X158397677Y-105243237D01*
X158395044Y-105223238D01*
X158334536Y-105077159D01*
X158238282Y-104951718D01*
X158112841Y-104855464D01*
X158099652Y-104850001D01*
X157966762Y-104794956D01*
X157966760Y-104794955D01*
X157810001Y-104774318D01*
X157809999Y-104774318D01*
X157653239Y-104794955D01*
X157653237Y-104794956D01*
X157507160Y-104855463D01*
X157381718Y-104951718D01*
X157285463Y-105077160D01*
X157224956Y-105223237D01*
X157224955Y-105223239D01*
X157204318Y-105379998D01*
X157204318Y-105380001D01*
X157223604Y-105526495D01*
X157212838Y-105595530D01*
X157166458Y-105647786D01*
X157099189Y-105666671D01*
X157032389Y-105646190D01*
X157002289Y-105618166D01*
X156984920Y-105595530D01*
X156928282Y-105521718D01*
X156802841Y-105425464D01*
X156794864Y-105422160D01*
X156656762Y-105364956D01*
X156656760Y-105364955D01*
X156500001Y-105344318D01*
X156499999Y-105344318D01*
X156343239Y-105364955D01*
X156343237Y-105364956D01*
X156197160Y-105425463D01*
X156071718Y-105521718D01*
X155975463Y-105647160D01*
X155914956Y-105793237D01*
X155914955Y-105793239D01*
X155894318Y-105949998D01*
X146106780Y-105949998D01*
X146135044Y-105881762D01*
X146155682Y-105725000D01*
X146153948Y-105711832D01*
X146135044Y-105568239D01*
X146135044Y-105568238D01*
X146074536Y-105422159D01*
X145980799Y-105299998D01*
X147794318Y-105299998D01*
X147794318Y-105300001D01*
X147814955Y-105456760D01*
X147814956Y-105456762D01*
X147861130Y-105568237D01*
X147875464Y-105602841D01*
X147971718Y-105728282D01*
X148097159Y-105824536D01*
X148243238Y-105885044D01*
X148321619Y-105895363D01*
X148399999Y-105905682D01*
X148400000Y-105905682D01*
X148400001Y-105905682D01*
X148452254Y-105898802D01*
X148556762Y-105885044D01*
X148702841Y-105824536D01*
X148828282Y-105728282D01*
X148924536Y-105602841D01*
X148985044Y-105456762D01*
X149005682Y-105300000D01*
X149003059Y-105280079D01*
X148985044Y-105143239D01*
X148985044Y-105143238D01*
X148924536Y-104997159D01*
X148828282Y-104871718D01*
X148702841Y-104775464D01*
X148700074Y-104774318D01*
X148556762Y-104714956D01*
X148556760Y-104714955D01*
X148400001Y-104694318D01*
X148399999Y-104694318D01*
X148243239Y-104714955D01*
X148243237Y-104714956D01*
X148097160Y-104775463D01*
X147971718Y-104871718D01*
X147875463Y-104997160D01*
X147814956Y-105143237D01*
X147814955Y-105143239D01*
X147794318Y-105299998D01*
X145980799Y-105299998D01*
X145978282Y-105296718D01*
X145852841Y-105200464D01*
X145838003Y-105194318D01*
X145706762Y-105139956D01*
X145706760Y-105139955D01*
X145550001Y-105119318D01*
X145549999Y-105119318D01*
X145393239Y-105139955D01*
X145393237Y-105139956D01*
X145247157Y-105200464D01*
X145126615Y-105292960D01*
X145061446Y-105318154D01*
X144993001Y-105304116D01*
X144975643Y-105292960D01*
X144952842Y-105275464D01*
X144806762Y-105214956D01*
X144806760Y-105214955D01*
X144650001Y-105194318D01*
X144649999Y-105194318D01*
X144493239Y-105214955D01*
X144493234Y-105214957D01*
X144354047Y-105272610D01*
X144284578Y-105280079D01*
X144222099Y-105248804D01*
X144186447Y-105188715D01*
X144188941Y-105118889D01*
X144192034Y-105110596D01*
X144196385Y-105100092D01*
X144235044Y-105006762D01*
X144255682Y-104850000D01*
X144251068Y-104814956D01*
X144235044Y-104693239D01*
X144235044Y-104693238D01*
X144174536Y-104547159D01*
X144078282Y-104421718D01*
X143952841Y-104325464D01*
X143927472Y-104314956D01*
X143806762Y-104264956D01*
X143806760Y-104264955D01*
X143650001Y-104244318D01*
X143649999Y-104244318D01*
X143493239Y-104264955D01*
X143493237Y-104264956D01*
X143347160Y-104325463D01*
X143221718Y-104421718D01*
X143125463Y-104547160D01*
X143064956Y-104693237D01*
X143064955Y-104693239D01*
X143044318Y-104849998D01*
X141199099Y-104849998D01*
X141185044Y-104743239D01*
X141185044Y-104743238D01*
X141124536Y-104597159D01*
X141028282Y-104471718D01*
X140902841Y-104375464D01*
X140756762Y-104314956D01*
X140756760Y-104314955D01*
X140600001Y-104294318D01*
X140599999Y-104294318D01*
X140443239Y-104314955D01*
X140443237Y-104314956D01*
X140297160Y-104375463D01*
X140171718Y-104471718D01*
X140075463Y-104597160D01*
X140014956Y-104743237D01*
X140014955Y-104743239D01*
X139994318Y-104899998D01*
X126238301Y-104899998D01*
X126396432Y-104802088D01*
X126557427Y-104655322D01*
X126688712Y-104481472D01*
X126785817Y-104286459D01*
X126845435Y-104076923D01*
X126865536Y-103860000D01*
X126845435Y-103643077D01*
X126785817Y-103433541D01*
X126688712Y-103238528D01*
X126557427Y-103064678D01*
X126396432Y-102917912D01*
X126396428Y-102917909D01*
X126396423Y-102917906D01*
X126211213Y-102803229D01*
X126211207Y-102803226D01*
X126202875Y-102799998D01*
X144294318Y-102799998D01*
X144294318Y-102800001D01*
X144314955Y-102956760D01*
X144314956Y-102956762D01*
X144359655Y-103064676D01*
X144375464Y-103102841D01*
X144471718Y-103228282D01*
X144502139Y-103251624D01*
X144543341Y-103308049D01*
X144547496Y-103377795D01*
X144513285Y-103438716D01*
X144502140Y-103448374D01*
X144502138Y-103448376D01*
X144471719Y-103471717D01*
X144469200Y-103475000D01*
X144375464Y-103597159D01*
X144314957Y-103743236D01*
X144314956Y-103743238D01*
X144294319Y-103899997D01*
X144294319Y-103900000D01*
X144314956Y-104056759D01*
X144314957Y-104056761D01*
X144375465Y-104202840D01*
X144471719Y-104328281D01*
X144597160Y-104424535D01*
X144743239Y-104485043D01*
X144821620Y-104495362D01*
X144900000Y-104505681D01*
X144900001Y-104505681D01*
X144900002Y-104505681D01*
X144952255Y-104498801D01*
X145056763Y-104485043D01*
X145202842Y-104424535D01*
X145328283Y-104328281D01*
X145424537Y-104202840D01*
X145485045Y-104056761D01*
X145505683Y-103899999D01*
X145485045Y-103743237D01*
X145424537Y-103597158D01*
X145328283Y-103471717D01*
X145297861Y-103448373D01*
X145256659Y-103391948D01*
X145252504Y-103322202D01*
X145286715Y-103261281D01*
X145297850Y-103251632D01*
X145328282Y-103228282D01*
X145424536Y-103102841D01*
X145485044Y-102956762D01*
X145505682Y-102800000D01*
X145505682Y-102799998D01*
X148094318Y-102799998D01*
X148094318Y-102800001D01*
X148114955Y-102956760D01*
X148114956Y-102956762D01*
X148159655Y-103064676D01*
X148175464Y-103102841D01*
X148271718Y-103228282D01*
X148397159Y-103324536D01*
X148543238Y-103385044D01*
X148621619Y-103395363D01*
X148699999Y-103405682D01*
X148700000Y-103405682D01*
X148700001Y-103405682D01*
X148752254Y-103398802D01*
X148856762Y-103385044D01*
X149002841Y-103324536D01*
X149128282Y-103228282D01*
X149224536Y-103102841D01*
X149285044Y-102956762D01*
X149305682Y-102800000D01*
X149299847Y-102755682D01*
X149285934Y-102649998D01*
X151694318Y-102649998D01*
X151694318Y-102650001D01*
X151714955Y-102806760D01*
X151714956Y-102806762D01*
X151774287Y-102950001D01*
X151775464Y-102952841D01*
X151871718Y-103078282D01*
X151997159Y-103174536D01*
X152143238Y-103235044D01*
X152169702Y-103238528D01*
X152299999Y-103255682D01*
X152300000Y-103255682D01*
X152300001Y-103255682D01*
X152352254Y-103248802D01*
X152456762Y-103235044D01*
X152602841Y-103174536D01*
X152728282Y-103078282D01*
X152824536Y-102952841D01*
X152825714Y-102949998D01*
X153194318Y-102949998D01*
X153194318Y-102950001D01*
X153214955Y-103106760D01*
X153214956Y-103106762D01*
X153275464Y-103252841D01*
X153371718Y-103378282D01*
X153497159Y-103474536D01*
X153643238Y-103535044D01*
X153721619Y-103545363D01*
X153799999Y-103555682D01*
X153800000Y-103555682D01*
X153800001Y-103555682D01*
X153852254Y-103548802D01*
X153956762Y-103535044D01*
X154101726Y-103474998D01*
X160739318Y-103474998D01*
X160739318Y-103475001D01*
X160759955Y-103631760D01*
X160759956Y-103631762D01*
X160806130Y-103743237D01*
X160820464Y-103777841D01*
X160916718Y-103903282D01*
X161042159Y-103999536D01*
X161188238Y-104060044D01*
X161266619Y-104070363D01*
X161344999Y-104080682D01*
X161345000Y-104080682D01*
X161345001Y-104080682D01*
X161397254Y-104073802D01*
X161501762Y-104060044D01*
X161647841Y-103999536D01*
X161773282Y-103903282D01*
X161869536Y-103777841D01*
X161930044Y-103631762D01*
X161950682Y-103475000D01*
X161943115Y-103417526D01*
X161930044Y-103318239D01*
X161930044Y-103318238D01*
X161869536Y-103172159D01*
X161773282Y-103046718D01*
X161647841Y-102950464D01*
X161646723Y-102950001D01*
X161501762Y-102889956D01*
X161501760Y-102889955D01*
X161345001Y-102869318D01*
X161344999Y-102869318D01*
X161188239Y-102889955D01*
X161188237Y-102889956D01*
X161042160Y-102950463D01*
X160916718Y-103046718D01*
X160820463Y-103172160D01*
X160759956Y-103318237D01*
X160759955Y-103318239D01*
X160739318Y-103474998D01*
X154101726Y-103474998D01*
X154102841Y-103474536D01*
X154228282Y-103378282D01*
X154324536Y-103252841D01*
X154385044Y-103106762D01*
X154405682Y-102950000D01*
X154385044Y-102793238D01*
X154324536Y-102647159D01*
X154228282Y-102521718D01*
X154102841Y-102425464D01*
X154051039Y-102404007D01*
X153956762Y-102364956D01*
X153956760Y-102364955D01*
X153800001Y-102344318D01*
X153799999Y-102344318D01*
X153643239Y-102364955D01*
X153643237Y-102364956D01*
X153497160Y-102425463D01*
X153371718Y-102521718D01*
X153275463Y-102647160D01*
X153214956Y-102793237D01*
X153214955Y-102793239D01*
X153194318Y-102949998D01*
X152825714Y-102949998D01*
X152885044Y-102806762D01*
X152905682Y-102650000D01*
X152885044Y-102493238D01*
X152824536Y-102347159D01*
X152728282Y-102221718D01*
X152602841Y-102125464D01*
X152548224Y-102102841D01*
X152456762Y-102064956D01*
X152456760Y-102064955D01*
X152300001Y-102044318D01*
X152299999Y-102044318D01*
X152143239Y-102064955D01*
X152143237Y-102064956D01*
X151997160Y-102125463D01*
X151871718Y-102221718D01*
X151775463Y-102347160D01*
X151714956Y-102493237D01*
X151714955Y-102493239D01*
X151694318Y-102649998D01*
X149285934Y-102649998D01*
X149285044Y-102643239D01*
X149285044Y-102643238D01*
X149224536Y-102497159D01*
X149128282Y-102371718D01*
X149002841Y-102275464D01*
X148856762Y-102214956D01*
X148856760Y-102214955D01*
X148700001Y-102194318D01*
X148699999Y-102194318D01*
X148543239Y-102214955D01*
X148543237Y-102214956D01*
X148397160Y-102275463D01*
X148271718Y-102371718D01*
X148175463Y-102497160D01*
X148114956Y-102643237D01*
X148114955Y-102643239D01*
X148094318Y-102799998D01*
X145505682Y-102799998D01*
X145499847Y-102755682D01*
X145485044Y-102643239D01*
X145485044Y-102643238D01*
X145424536Y-102497159D01*
X145328282Y-102371718D01*
X145202841Y-102275464D01*
X145056762Y-102214956D01*
X145056760Y-102214955D01*
X144900001Y-102194318D01*
X144899999Y-102194318D01*
X144743239Y-102214955D01*
X144743237Y-102214956D01*
X144597160Y-102275463D01*
X144471718Y-102371718D01*
X144375463Y-102497160D01*
X144314956Y-102643237D01*
X144314955Y-102643239D01*
X144294318Y-102799998D01*
X126202875Y-102799998D01*
X126126113Y-102770260D01*
X126008069Y-102724530D01*
X125793926Y-102684500D01*
X125576074Y-102684500D01*
X125361931Y-102724530D01*
X125313130Y-102743435D01*
X125158792Y-102803226D01*
X125158786Y-102803229D01*
X124973576Y-102917906D01*
X124973566Y-102917913D01*
X124812574Y-103064676D01*
X124681288Y-103238527D01*
X124584184Y-103433537D01*
X124581055Y-103444534D01*
X124527785Y-103631762D01*
X124524564Y-103643081D01*
X124504464Y-103859999D01*
X124125000Y-103859999D01*
X124125000Y-102149998D01*
X138319318Y-102149998D01*
X138319318Y-102150001D01*
X138339955Y-102306760D01*
X138339956Y-102306762D01*
X138372381Y-102385044D01*
X138400464Y-102452841D01*
X138496718Y-102578282D01*
X138622159Y-102674536D01*
X138768238Y-102735044D01*
X138846619Y-102745363D01*
X138924999Y-102755682D01*
X138925000Y-102755682D01*
X138925001Y-102755682D01*
X138977254Y-102748802D01*
X139081762Y-102735044D01*
X139227841Y-102674536D01*
X139353282Y-102578282D01*
X139449536Y-102452841D01*
X139510044Y-102306762D01*
X139530682Y-102150000D01*
X139524473Y-102102841D01*
X139514657Y-102028281D01*
X139510044Y-101993238D01*
X139449536Y-101847159D01*
X139353282Y-101721718D01*
X139227841Y-101625464D01*
X139166361Y-101599998D01*
X146694318Y-101599998D01*
X146694318Y-101600001D01*
X146714955Y-101756760D01*
X146714956Y-101756762D01*
X146775464Y-101902841D01*
X146871718Y-102028282D01*
X146997159Y-102124536D01*
X147143238Y-102185044D01*
X147213681Y-102194318D01*
X147299999Y-102205682D01*
X147300000Y-102205682D01*
X147300001Y-102205682D01*
X147352254Y-102198802D01*
X147456762Y-102185044D01*
X147602841Y-102124536D01*
X147728282Y-102028282D01*
X147824536Y-101902841D01*
X147885044Y-101756762D01*
X147905682Y-101600000D01*
X147901068Y-101564956D01*
X147885044Y-101443239D01*
X147885044Y-101443238D01*
X147846423Y-101349998D01*
X149194318Y-101349998D01*
X149194318Y-101350001D01*
X149214955Y-101506760D01*
X149214956Y-101506762D01*
X149253576Y-101600000D01*
X149275464Y-101652841D01*
X149371718Y-101778282D01*
X149497159Y-101874536D01*
X149643238Y-101935044D01*
X149692064Y-101941472D01*
X149799999Y-101955682D01*
X149800000Y-101955682D01*
X149800001Y-101955682D01*
X149852254Y-101948802D01*
X149956762Y-101935044D01*
X150102841Y-101874536D01*
X150199981Y-101799998D01*
X156794318Y-101799998D01*
X156794318Y-101800001D01*
X156814955Y-101956760D01*
X156814956Y-101956762D01*
X156875464Y-102102841D01*
X156971718Y-102228282D01*
X157097159Y-102324536D01*
X157243238Y-102385044D01*
X157321619Y-102395363D01*
X157399999Y-102405682D01*
X157400000Y-102405682D01*
X157412720Y-102404007D01*
X157481754Y-102414769D01*
X157534012Y-102461147D01*
X157552900Y-102528415D01*
X157543470Y-102574397D01*
X157514957Y-102643234D01*
X157514955Y-102643239D01*
X157494318Y-102799998D01*
X157494318Y-102800001D01*
X157514955Y-102956760D01*
X157514956Y-102956762D01*
X157559655Y-103064676D01*
X157575464Y-103102841D01*
X157671718Y-103228282D01*
X157797159Y-103324536D01*
X157943238Y-103385044D01*
X158021619Y-103395363D01*
X158099999Y-103405682D01*
X158100000Y-103405682D01*
X158100001Y-103405682D01*
X158152254Y-103398802D01*
X158256762Y-103385044D01*
X158402841Y-103324536D01*
X158528282Y-103228282D01*
X158624536Y-103102841D01*
X158685044Y-102956762D01*
X158705682Y-102800000D01*
X158699847Y-102755682D01*
X158685044Y-102643239D01*
X158685044Y-102643238D01*
X158624536Y-102497159D01*
X158528282Y-102371718D01*
X158402841Y-102275464D01*
X158256762Y-102214956D01*
X158256760Y-102214955D01*
X158100001Y-102194318D01*
X158099998Y-102194318D01*
X158087274Y-102195993D01*
X158018239Y-102185227D01*
X157965984Y-102138847D01*
X157947099Y-102071578D01*
X157956527Y-102025606D01*
X157985044Y-101956762D01*
X158005682Y-101800000D01*
X157999989Y-101756760D01*
X157985044Y-101643239D01*
X157985044Y-101643238D01*
X157934707Y-101521715D01*
X157927239Y-101452249D01*
X157958514Y-101389769D01*
X158018603Y-101354117D01*
X158033076Y-101351327D01*
X158156762Y-101335044D01*
X158302841Y-101274536D01*
X158428282Y-101178282D01*
X158524536Y-101052841D01*
X158585044Y-100906762D01*
X158605682Y-100750000D01*
X158585044Y-100593238D01*
X158524536Y-100447159D01*
X158428282Y-100321718D01*
X158302841Y-100225464D01*
X158248224Y-100202841D01*
X158156762Y-100164956D01*
X158156760Y-100164955D01*
X158000001Y-100144318D01*
X157999999Y-100144318D01*
X157843239Y-100164955D01*
X157843237Y-100164956D01*
X157697160Y-100225463D01*
X157571718Y-100321718D01*
X157475463Y-100447160D01*
X157414956Y-100593237D01*
X157414955Y-100593239D01*
X157394318Y-100749998D01*
X157394318Y-100750001D01*
X157414955Y-100906760D01*
X157414956Y-100906762D01*
X157459771Y-101014956D01*
X157465291Y-101028281D01*
X157472760Y-101097751D01*
X157441485Y-101160230D01*
X157381396Y-101195882D01*
X157366916Y-101198673D01*
X157266502Y-101211893D01*
X157243238Y-101214956D01*
X157243237Y-101214956D01*
X157097160Y-101275463D01*
X156971718Y-101371718D01*
X156875463Y-101497160D01*
X156814956Y-101643237D01*
X156814955Y-101643239D01*
X156794318Y-101799998D01*
X150199981Y-101799998D01*
X150228282Y-101778282D01*
X150324536Y-101652841D01*
X150385044Y-101506762D01*
X150405250Y-101353281D01*
X150405682Y-101350001D01*
X150405682Y-101349998D01*
X150387903Y-101214956D01*
X150385044Y-101193238D01*
X150324536Y-101047159D01*
X150228282Y-100921718D01*
X150102841Y-100825464D01*
X149956762Y-100764956D01*
X149956760Y-100764955D01*
X149800001Y-100744318D01*
X149799999Y-100744318D01*
X149643239Y-100764955D01*
X149643237Y-100764956D01*
X149497160Y-100825463D01*
X149371718Y-100921718D01*
X149275463Y-101047160D01*
X149214956Y-101193237D01*
X149214955Y-101193239D01*
X149194318Y-101349998D01*
X147846423Y-101349998D01*
X147824536Y-101297159D01*
X147728282Y-101171718D01*
X147602841Y-101075464D01*
X147548224Y-101052841D01*
X147456762Y-101014956D01*
X147456760Y-101014955D01*
X147300001Y-100994318D01*
X147299999Y-100994318D01*
X147143239Y-101014955D01*
X147143237Y-101014956D01*
X146997160Y-101075463D01*
X146871718Y-101171718D01*
X146775463Y-101297160D01*
X146714956Y-101443237D01*
X146714955Y-101443239D01*
X146694318Y-101599998D01*
X139166361Y-101599998D01*
X139081762Y-101564956D01*
X139081760Y-101564955D01*
X138925001Y-101544318D01*
X138924999Y-101544318D01*
X138768239Y-101564955D01*
X138768237Y-101564956D01*
X138622160Y-101625463D01*
X138496718Y-101721718D01*
X138400463Y-101847160D01*
X138339956Y-101993237D01*
X138339955Y-101993239D01*
X138319318Y-102149998D01*
X124125000Y-102149998D01*
X124125000Y-99499998D01*
X142344318Y-99499998D01*
X142344318Y-99500001D01*
X142364955Y-99656760D01*
X142364956Y-99656762D01*
X142400775Y-99743238D01*
X142425464Y-99802841D01*
X142521718Y-99928282D01*
X142647159Y-100024536D01*
X142793238Y-100085044D01*
X142871619Y-100095363D01*
X142949999Y-100105682D01*
X142950000Y-100105682D01*
X142950001Y-100105682D01*
X143002254Y-100098802D01*
X143106762Y-100085044D01*
X143252841Y-100024536D01*
X143378282Y-99928282D01*
X143399985Y-99899998D01*
X148219318Y-99899998D01*
X148219318Y-99900001D01*
X148239955Y-100056760D01*
X148239956Y-100056762D01*
X148300464Y-100202841D01*
X148396718Y-100328282D01*
X148522159Y-100424536D01*
X148668238Y-100485044D01*
X148746619Y-100495363D01*
X148824999Y-100505682D01*
X148825000Y-100505682D01*
X148825001Y-100505682D01*
X148877254Y-100498802D01*
X148981762Y-100485044D01*
X149127841Y-100424536D01*
X149253282Y-100328282D01*
X149349536Y-100202841D01*
X149410044Y-100056762D01*
X149430682Y-99900000D01*
X149410044Y-99743238D01*
X149410043Y-99743237D01*
X149408983Y-99735180D01*
X149410497Y-99734980D01*
X149411938Y-99674275D01*
X149451096Y-99616409D01*
X149515322Y-99588900D01*
X149577504Y-99597460D01*
X149668238Y-99635044D01*
X149746619Y-99645363D01*
X149824999Y-99655682D01*
X149825000Y-99655682D01*
X149825001Y-99655682D01*
X149877254Y-99648802D01*
X149981762Y-99635044D01*
X150072496Y-99597460D01*
X150141962Y-99589992D01*
X150204441Y-99621267D01*
X150240094Y-99681355D01*
X150239776Y-99735016D01*
X150241017Y-99735180D01*
X150219318Y-99899998D01*
X150219318Y-99900001D01*
X150239955Y-100056760D01*
X150239956Y-100056762D01*
X150300464Y-100202841D01*
X150396718Y-100328282D01*
X150522159Y-100424536D01*
X150668238Y-100485044D01*
X150746619Y-100495363D01*
X150824999Y-100505682D01*
X150825000Y-100505682D01*
X150825001Y-100505682D01*
X150877254Y-100498802D01*
X150981762Y-100485044D01*
X151127841Y-100424536D01*
X151253282Y-100328282D01*
X151349536Y-100202841D01*
X151410044Y-100056762D01*
X151430682Y-99900000D01*
X151410044Y-99743238D01*
X151381778Y-99674998D01*
X160739318Y-99674998D01*
X160739318Y-99675001D01*
X160759955Y-99831760D01*
X160759956Y-99831762D01*
X160799935Y-99928281D01*
X160820464Y-99977841D01*
X160916718Y-100103282D01*
X161042159Y-100199536D01*
X161166406Y-100251000D01*
X161220808Y-100294841D01*
X161242873Y-100361135D01*
X161225594Y-100428834D01*
X161194440Y-100463936D01*
X161151719Y-100496717D01*
X161055463Y-100622160D01*
X160994956Y-100768237D01*
X160994955Y-100768239D01*
X160974318Y-100924998D01*
X160974318Y-100925001D01*
X160994955Y-101081760D01*
X160994956Y-101081762D01*
X161041130Y-101193237D01*
X161055464Y-101227841D01*
X161151718Y-101353282D01*
X161277159Y-101449536D01*
X161423238Y-101510044D01*
X161501619Y-101520363D01*
X161579999Y-101530682D01*
X161580000Y-101530682D01*
X161580001Y-101530682D01*
X161632254Y-101523802D01*
X161736762Y-101510044D01*
X161882841Y-101449536D01*
X162008282Y-101353282D01*
X162104536Y-101227841D01*
X162165044Y-101081762D01*
X162185682Y-100925000D01*
X162181540Y-100893541D01*
X162165044Y-100768239D01*
X162165044Y-100768238D01*
X162104536Y-100622159D01*
X162008282Y-100496718D01*
X161882841Y-100400464D01*
X161758594Y-100348999D01*
X161704191Y-100305158D01*
X161682126Y-100238864D01*
X161699405Y-100171164D01*
X161730558Y-100136064D01*
X161773282Y-100103282D01*
X161869536Y-99977841D01*
X161930044Y-99831762D01*
X161950682Y-99675000D01*
X161942968Y-99616409D01*
X161930044Y-99518239D01*
X161930044Y-99518238D01*
X161869536Y-99372159D01*
X161773282Y-99246718D01*
X161647841Y-99150464D01*
X161501762Y-99089956D01*
X161501760Y-99089955D01*
X161345001Y-99069318D01*
X161344999Y-99069318D01*
X161188239Y-99089955D01*
X161188237Y-99089956D01*
X161042160Y-99150463D01*
X160916718Y-99246718D01*
X160820463Y-99372160D01*
X160759956Y-99518237D01*
X160759955Y-99518239D01*
X160739318Y-99674998D01*
X151381778Y-99674998D01*
X151349536Y-99597159D01*
X151253282Y-99471718D01*
X151127841Y-99375464D01*
X151119864Y-99372160D01*
X150981762Y-99314956D01*
X150981760Y-99314955D01*
X150825001Y-99294318D01*
X150824999Y-99294318D01*
X150668239Y-99314955D01*
X150668234Y-99314957D01*
X150577505Y-99352538D01*
X150508036Y-99360007D01*
X150445557Y-99328731D01*
X150409905Y-99268642D01*
X150410227Y-99214983D01*
X150408983Y-99214820D01*
X150430682Y-99050001D01*
X150430682Y-99049998D01*
X150410044Y-98893239D01*
X150410044Y-98893238D01*
X150349536Y-98747159D01*
X150253282Y-98621718D01*
X150127841Y-98525464D01*
X149981762Y-98464956D01*
X149981760Y-98464955D01*
X149825001Y-98444318D01*
X149824999Y-98444318D01*
X149668239Y-98464955D01*
X149668237Y-98464956D01*
X149522160Y-98525463D01*
X149396718Y-98621718D01*
X149300463Y-98747160D01*
X149239956Y-98893237D01*
X149239955Y-98893239D01*
X149219318Y-99049998D01*
X149219318Y-99050001D01*
X149241017Y-99214820D01*
X149239503Y-99215019D01*
X149238057Y-99275736D01*
X149198894Y-99333597D01*
X149134665Y-99361100D01*
X149072494Y-99352538D01*
X148981765Y-99314957D01*
X148981760Y-99314955D01*
X148825001Y-99294318D01*
X148824999Y-99294318D01*
X148668239Y-99314955D01*
X148668237Y-99314956D01*
X148522160Y-99375463D01*
X148396718Y-99471718D01*
X148300463Y-99597160D01*
X148239956Y-99743237D01*
X148239955Y-99743239D01*
X148219318Y-99899998D01*
X143399985Y-99899998D01*
X143474536Y-99802841D01*
X143535044Y-99656762D01*
X143555682Y-99500000D01*
X143535044Y-99343238D01*
X143474536Y-99197159D01*
X143378282Y-99071718D01*
X143252841Y-98975464D01*
X143106762Y-98914956D01*
X143106760Y-98914955D01*
X142950001Y-98894318D01*
X142949999Y-98894318D01*
X142793239Y-98914955D01*
X142793237Y-98914956D01*
X142647160Y-98975463D01*
X142521718Y-99071718D01*
X142425463Y-99197160D01*
X142364956Y-99343237D01*
X142364955Y-99343239D01*
X142344318Y-99499998D01*
X124125000Y-99499998D01*
X124125000Y-93548890D01*
X124144685Y-93481851D01*
X124197489Y-93436096D01*
X124248889Y-93424890D01*
X127085394Y-93422373D01*
X127152447Y-93441997D01*
X127198249Y-93494760D01*
X127209500Y-93546372D01*
X127209500Y-94894856D01*
X127209502Y-94894882D01*
X127212413Y-94919987D01*
X127212415Y-94919991D01*
X127257793Y-95022764D01*
X127257794Y-95022765D01*
X127337235Y-95102206D01*
X127440009Y-95147585D01*
X127465135Y-95150500D01*
X127611060Y-95150499D01*
X127678097Y-95170183D01*
X127723852Y-95222987D01*
X127733796Y-95292145D01*
X127704771Y-95355701D01*
X127679950Y-95377601D01*
X127554088Y-95461700D01*
X127421700Y-95594088D01*
X127421697Y-95594092D01*
X127317681Y-95749762D01*
X127317676Y-95749771D01*
X127246027Y-95922748D01*
X127246025Y-95922756D01*
X127209500Y-96106379D01*
X127209500Y-96293620D01*
X127246025Y-96477243D01*
X127246027Y-96477251D01*
X127317676Y-96650228D01*
X127317681Y-96650237D01*
X127421697Y-96805907D01*
X127421700Y-96805911D01*
X127554088Y-96938299D01*
X127554092Y-96938302D01*
X127709762Y-97042318D01*
X127709768Y-97042321D01*
X127709769Y-97042322D01*
X127882749Y-97113973D01*
X128066379Y-97150499D01*
X128066383Y-97150500D01*
X128066384Y-97150500D01*
X128953617Y-97150500D01*
X128953618Y-97150499D01*
X129137251Y-97113973D01*
X129310231Y-97042322D01*
X129465908Y-96938302D01*
X129598302Y-96805908D01*
X129702322Y-96650231D01*
X129773973Y-96477251D01*
X129810500Y-96293616D01*
X129810500Y-96106384D01*
X129773973Y-95922749D01*
X129702322Y-95749769D01*
X129702321Y-95749768D01*
X129702318Y-95749762D01*
X129598302Y-95594092D01*
X129598299Y-95594088D01*
X129465908Y-95461697D01*
X129340048Y-95377601D01*
X129295243Y-95323989D01*
X129286536Y-95254664D01*
X129316690Y-95191637D01*
X129376133Y-95154917D01*
X129408938Y-95150499D01*
X129554864Y-95150499D01*
X129554879Y-95150497D01*
X129554882Y-95150497D01*
X129579987Y-95147586D01*
X129579988Y-95147585D01*
X129579991Y-95147585D01*
X129682765Y-95102206D01*
X129762206Y-95022765D01*
X129807585Y-94919991D01*
X129810500Y-94894865D01*
X129810499Y-93543843D01*
X129830184Y-93476805D01*
X129882987Y-93431050D01*
X129934383Y-93419845D01*
X133000392Y-93417124D01*
X133067447Y-93436749D01*
X133113249Y-93489512D01*
X133124500Y-93541124D01*
X133124500Y-95279856D01*
X133124502Y-95279882D01*
X133127413Y-95304987D01*
X133127415Y-95304991D01*
X133172793Y-95407764D01*
X133172794Y-95407765D01*
X133252235Y-95487206D01*
X133355009Y-95532585D01*
X133380135Y-95535500D01*
X133904788Y-95535499D01*
X133971825Y-95555183D01*
X134017580Y-95607987D01*
X134027524Y-95677146D01*
X133998499Y-95740702D01*
X133949580Y-95775125D01*
X133773801Y-95843222D01*
X133773786Y-95843229D01*
X133588576Y-95957906D01*
X133588566Y-95957913D01*
X133427574Y-96104676D01*
X133296288Y-96278527D01*
X133199184Y-96473537D01*
X133199183Y-96473541D01*
X133148911Y-96650231D01*
X133139564Y-96683081D01*
X133119464Y-96899999D01*
X133119464Y-96900000D01*
X133139564Y-97116918D01*
X133139564Y-97116920D01*
X133139565Y-97116923D01*
X133176621Y-97247160D01*
X133199184Y-97326462D01*
X133296288Y-97521472D01*
X133427574Y-97695323D01*
X133480133Y-97743237D01*
X133588568Y-97842088D01*
X133588575Y-97842092D01*
X133588576Y-97842093D01*
X133773786Y-97956770D01*
X133773792Y-97956773D01*
X133796664Y-97965633D01*
X133976931Y-98035470D01*
X134191074Y-98075500D01*
X134191076Y-98075500D01*
X134408924Y-98075500D01*
X134408926Y-98075500D01*
X134623069Y-98035470D01*
X134826210Y-97956772D01*
X135011432Y-97842088D01*
X135172427Y-97695322D01*
X135303712Y-97521472D01*
X135400817Y-97326459D01*
X135450734Y-97151016D01*
X135488013Y-97091926D01*
X135551322Y-97062368D01*
X135620562Y-97071730D01*
X135673748Y-97117039D01*
X135689264Y-97151013D01*
X135729357Y-97291923D01*
X135739184Y-97326462D01*
X135836288Y-97521472D01*
X135967574Y-97695323D01*
X136020133Y-97743237D01*
X136128568Y-97842088D01*
X136128575Y-97842092D01*
X136128576Y-97842093D01*
X136313786Y-97956770D01*
X136313792Y-97956773D01*
X136336664Y-97965633D01*
X136516931Y-98035470D01*
X136731074Y-98075500D01*
X136731076Y-98075500D01*
X136948924Y-98075500D01*
X136948926Y-98075500D01*
X137163069Y-98035470D01*
X137366210Y-97956772D01*
X137457904Y-97899998D01*
X145844318Y-97899998D01*
X145844318Y-97900001D01*
X145864955Y-98056760D01*
X145864956Y-98056762D01*
X145925200Y-98202205D01*
X145925464Y-98202841D01*
X146021718Y-98328282D01*
X146147159Y-98424536D01*
X146293238Y-98485044D01*
X146371619Y-98495363D01*
X146449999Y-98505682D01*
X146450000Y-98505682D01*
X146450001Y-98505682D01*
X146502254Y-98498802D01*
X146606762Y-98485044D01*
X146752841Y-98424536D01*
X146878282Y-98328282D01*
X146899985Y-98299998D01*
X147869318Y-98299998D01*
X147869318Y-98300001D01*
X147889955Y-98456760D01*
X147889956Y-98456762D01*
X147950464Y-98602841D01*
X148046718Y-98728282D01*
X148172159Y-98824536D01*
X148318238Y-98885044D01*
X148380478Y-98893238D01*
X148474999Y-98905682D01*
X148475000Y-98905682D01*
X148475001Y-98905682D01*
X148527254Y-98898802D01*
X148631762Y-98885044D01*
X148777841Y-98824536D01*
X148903282Y-98728282D01*
X148999536Y-98602841D01*
X149060044Y-98456762D01*
X149080682Y-98300000D01*
X149080682Y-98299998D01*
X150569318Y-98299998D01*
X150569318Y-98300001D01*
X150589955Y-98456760D01*
X150589956Y-98456762D01*
X150650464Y-98602841D01*
X150746718Y-98728282D01*
X150872159Y-98824536D01*
X151018238Y-98885044D01*
X151080478Y-98893238D01*
X151174999Y-98905682D01*
X151175000Y-98905682D01*
X151175001Y-98905682D01*
X151227254Y-98898802D01*
X151331762Y-98885044D01*
X151477841Y-98824536D01*
X151603282Y-98728282D01*
X151699536Y-98602841D01*
X151760044Y-98456762D01*
X151780682Y-98300000D01*
X151773781Y-98247585D01*
X151760044Y-98143239D01*
X151760044Y-98143238D01*
X151699536Y-97997159D01*
X151603282Y-97871718D01*
X151477841Y-97775464D01*
X151331762Y-97714956D01*
X151331760Y-97714955D01*
X151175001Y-97694318D01*
X151174999Y-97694318D01*
X151018239Y-97714955D01*
X151018237Y-97714956D01*
X150872160Y-97775463D01*
X150746718Y-97871718D01*
X150650463Y-97997160D01*
X150589956Y-98143237D01*
X150589955Y-98143239D01*
X150569318Y-98299998D01*
X149080682Y-98299998D01*
X149073781Y-98247585D01*
X149060044Y-98143239D01*
X149060044Y-98143238D01*
X148999536Y-97997159D01*
X148903282Y-97871718D01*
X148777841Y-97775464D01*
X148631762Y-97714956D01*
X148631760Y-97714955D01*
X148475001Y-97694318D01*
X148474999Y-97694318D01*
X148318239Y-97714955D01*
X148318237Y-97714956D01*
X148172160Y-97775463D01*
X148046718Y-97871718D01*
X147950463Y-97997160D01*
X147889956Y-98143237D01*
X147889955Y-98143239D01*
X147869318Y-98299998D01*
X146899985Y-98299998D01*
X146974536Y-98202841D01*
X147035044Y-98056762D01*
X147055682Y-97900000D01*
X147049473Y-97852841D01*
X147035044Y-97743239D01*
X147035044Y-97743238D01*
X146974536Y-97597159D01*
X146938348Y-97549998D01*
X149219318Y-97549998D01*
X149219318Y-97550001D01*
X149239955Y-97706760D01*
X149239956Y-97706762D01*
X149300464Y-97852841D01*
X149396718Y-97978282D01*
X149522159Y-98074536D01*
X149668238Y-98135044D01*
X149730478Y-98143238D01*
X149824999Y-98155682D01*
X149825000Y-98155682D01*
X149825001Y-98155682D01*
X149919514Y-98143239D01*
X149981762Y-98135044D01*
X150127841Y-98074536D01*
X150253282Y-97978282D01*
X150349536Y-97852841D01*
X150410044Y-97706762D01*
X150430682Y-97550000D01*
X150424847Y-97505682D01*
X150410044Y-97393239D01*
X150410044Y-97393238D01*
X150349536Y-97247159D01*
X150253282Y-97121718D01*
X150127841Y-97025464D01*
X149981762Y-96964956D01*
X149981760Y-96964955D01*
X149825001Y-96944318D01*
X149824999Y-96944318D01*
X149668239Y-96964955D01*
X149668237Y-96964956D01*
X149522160Y-97025463D01*
X149396718Y-97121718D01*
X149300463Y-97247160D01*
X149239956Y-97393237D01*
X149239955Y-97393239D01*
X149219318Y-97549998D01*
X146938348Y-97549998D01*
X146878282Y-97471718D01*
X146752841Y-97375464D01*
X146741115Y-97370607D01*
X146606762Y-97314956D01*
X146606760Y-97314955D01*
X146450001Y-97294318D01*
X146449999Y-97294318D01*
X146293239Y-97314955D01*
X146293237Y-97314956D01*
X146147160Y-97375463D01*
X146021718Y-97471718D01*
X145925463Y-97597160D01*
X145864956Y-97743237D01*
X145864955Y-97743239D01*
X145844318Y-97899998D01*
X137457904Y-97899998D01*
X137551432Y-97842088D01*
X137712427Y-97695322D01*
X137843712Y-97521472D01*
X137940817Y-97326459D01*
X138000435Y-97116923D01*
X138020536Y-96900000D01*
X138020536Y-96899998D01*
X157344318Y-96899998D01*
X157344318Y-96900001D01*
X157364955Y-97056760D01*
X157364956Y-97056762D01*
X157403998Y-97151019D01*
X157425464Y-97202841D01*
X157521718Y-97328282D01*
X157647159Y-97424536D01*
X157793238Y-97485044D01*
X157871619Y-97495363D01*
X157949999Y-97505682D01*
X157950000Y-97505682D01*
X157950001Y-97505682D01*
X158002254Y-97498802D01*
X158106762Y-97485044D01*
X158252841Y-97424536D01*
X158378282Y-97328282D01*
X158474536Y-97202841D01*
X158535044Y-97056762D01*
X158549847Y-96944318D01*
X158555682Y-96900001D01*
X158555682Y-96899998D01*
X158535044Y-96743239D01*
X158535044Y-96743238D01*
X158474536Y-96597159D01*
X158378282Y-96471718D01*
X158252841Y-96375464D01*
X158106762Y-96314956D01*
X158106760Y-96314955D01*
X157950001Y-96294318D01*
X157949999Y-96294318D01*
X157793239Y-96314955D01*
X157793237Y-96314956D01*
X157647160Y-96375463D01*
X157521718Y-96471718D01*
X157425463Y-96597160D01*
X157364956Y-96743237D01*
X157364955Y-96743239D01*
X157344318Y-96899998D01*
X138020536Y-96899998D01*
X138000435Y-96683077D01*
X137940817Y-96473541D01*
X137843712Y-96278528D01*
X137712427Y-96104678D01*
X137551432Y-95957912D01*
X137551428Y-95957909D01*
X137551423Y-95957906D01*
X137366213Y-95843229D01*
X137366207Y-95843226D01*
X137281113Y-95810260D01*
X137163069Y-95764530D01*
X137095440Y-95751888D01*
X137033161Y-95720221D01*
X136997888Y-95659909D01*
X137000822Y-95590100D01*
X137041031Y-95532960D01*
X137095439Y-95508112D01*
X137163069Y-95495470D01*
X137366210Y-95416772D01*
X137551432Y-95302088D01*
X137712427Y-95155322D01*
X137843712Y-94981472D01*
X137940817Y-94786459D01*
X138000435Y-94576923D01*
X138020536Y-94360000D01*
X138010343Y-94249998D01*
X149419318Y-94249998D01*
X149419318Y-94250001D01*
X149439955Y-94406760D01*
X149439956Y-94406762D01*
X149500464Y-94552842D01*
X149593826Y-94674514D01*
X149619020Y-94739683D01*
X149604981Y-94808128D01*
X149593826Y-94825486D01*
X149500464Y-94947157D01*
X149439956Y-95093237D01*
X149439955Y-95093239D01*
X149419318Y-95249998D01*
X149419318Y-95250001D01*
X149439955Y-95406760D01*
X149439956Y-95406762D01*
X149495053Y-95539779D01*
X149500464Y-95552841D01*
X149596718Y-95678282D01*
X149722159Y-95774536D01*
X149868238Y-95835044D01*
X149930387Y-95843226D01*
X150024999Y-95855682D01*
X150025000Y-95855682D01*
X150025001Y-95855682D01*
X150077254Y-95848802D01*
X150181762Y-95835044D01*
X150327841Y-95774536D01*
X150449515Y-95681171D01*
X150514683Y-95655979D01*
X150583127Y-95670017D01*
X150600478Y-95681167D01*
X150722159Y-95774536D01*
X150868238Y-95835044D01*
X150930387Y-95843226D01*
X151024999Y-95855682D01*
X151025000Y-95855682D01*
X151025001Y-95855682D01*
X151077254Y-95848802D01*
X151181762Y-95835044D01*
X151327841Y-95774536D01*
X151453282Y-95678282D01*
X151549536Y-95552841D01*
X151610044Y-95406762D01*
X151630682Y-95250000D01*
X151622998Y-95191637D01*
X151611225Y-95102206D01*
X151610044Y-95093238D01*
X151549536Y-94947159D01*
X151456171Y-94825484D01*
X151430979Y-94760317D01*
X151445017Y-94691873D01*
X151456167Y-94674521D01*
X151549536Y-94552841D01*
X151610044Y-94406762D01*
X151630682Y-94250000D01*
X151624099Y-94200000D01*
X151610044Y-94093239D01*
X151610044Y-94093238D01*
X151549536Y-93947159D01*
X151453282Y-93821718D01*
X151327841Y-93725464D01*
X151181762Y-93664956D01*
X151161711Y-93662316D01*
X151053201Y-93648030D01*
X151026984Y-93636431D01*
X151015049Y-93644117D01*
X150996195Y-93648110D01*
X150868238Y-93664956D01*
X150868237Y-93664956D01*
X150722157Y-93725464D01*
X150600486Y-93818826D01*
X150535317Y-93844020D01*
X150466872Y-93829981D01*
X150449514Y-93818826D01*
X150327842Y-93725464D01*
X150181762Y-93664956D01*
X150181760Y-93664955D01*
X150059896Y-93648912D01*
X150025699Y-93633783D01*
X150008265Y-93645010D01*
X149989411Y-93649003D01*
X149868238Y-93664956D01*
X149868237Y-93664956D01*
X149722160Y-93725463D01*
X149596718Y-93821718D01*
X149500463Y-93947160D01*
X149439956Y-94093237D01*
X149439955Y-94093239D01*
X149419318Y-94249998D01*
X138010343Y-94249998D01*
X138000435Y-94143077D01*
X137940817Y-93933541D01*
X137843712Y-93738528D01*
X137747822Y-93611549D01*
X137723131Y-93546190D01*
X137737696Y-93477855D01*
X137786893Y-93428243D01*
X137846664Y-93412824D01*
X144998153Y-93406479D01*
X145065207Y-93426103D01*
X145111009Y-93478866D01*
X145121199Y-93514292D01*
X145122492Y-93524110D01*
X145138806Y-93648030D01*
X145139956Y-93656761D01*
X145139956Y-93656762D01*
X145199191Y-93799769D01*
X145200464Y-93802841D01*
X145296718Y-93928282D01*
X145422159Y-94024536D01*
X145568238Y-94085044D01*
X145630478Y-94093238D01*
X145724999Y-94105682D01*
X145725000Y-94105682D01*
X145725001Y-94105682D01*
X145777254Y-94098802D01*
X145881762Y-94085044D01*
X146027841Y-94024536D01*
X146153282Y-93928282D01*
X146249536Y-93802841D01*
X146310044Y-93656762D01*
X146328970Y-93513002D01*
X146357236Y-93449106D01*
X146415561Y-93410635D01*
X146451791Y-93405189D01*
X149973117Y-93402064D01*
X150026662Y-93417735D01*
X150056975Y-93403454D01*
X150075965Y-93401973D01*
X150979900Y-93401171D01*
X151025146Y-93414413D01*
X151050281Y-93402572D01*
X151069263Y-93401092D01*
X152175890Y-93400110D01*
X152242947Y-93419735D01*
G37*
%TD.AperFunction*%
%TD*%
M02*
