%TF.GenerationSoftware,KiCad,Pcbnew,8.0.3-8.0.3-0~ubuntu22.04.1*%
%TF.CreationDate,2024-07-11T19:27:40-06:00*%
%TF.ProjectId,FCC_KiCAD,4643435f-4b69-4434-9144-2e6b69636164,rev?*%
%TF.SameCoordinates,Original*%
%TF.FileFunction,Copper,L1,Top*%
%TF.FilePolarity,Positive*%
%FSLAX46Y46*%
G04 Gerber Fmt 4.6, Leading zero omitted, Abs format (unit mm)*
G04 Created by KiCad (PCBNEW 8.0.3-8.0.3-0~ubuntu22.04.1) date 2024-07-11 19:27:40*
%MOMM*%
%LPD*%
G01*
G04 APERTURE LIST*
G04 Aperture macros list*
%AMRoundRect*
0 Rectangle with rounded corners*
0 $1 Rounding radius*
0 $2 $3 $4 $5 $6 $7 $8 $9 X,Y pos of 4 corners*
0 Add a 4 corners polygon primitive as box body*
4,1,4,$2,$3,$4,$5,$6,$7,$8,$9,$2,$3,0*
0 Add four circle primitives for the rounded corners*
1,1,$1+$1,$2,$3*
1,1,$1+$1,$4,$5*
1,1,$1+$1,$6,$7*
1,1,$1+$1,$8,$9*
0 Add four rect primitives between the rounded corners*
20,1,$1+$1,$2,$3,$4,$5,0*
20,1,$1+$1,$4,$5,$6,$7,0*
20,1,$1+$1,$6,$7,$8,$9,0*
20,1,$1+$1,$8,$9,$2,$3,0*%
G04 Aperture macros list end*
%TA.AperFunction,SMDPad,CuDef*%
%ADD10R,0.250000X0.275000*%
%TD*%
%TA.AperFunction,SMDPad,CuDef*%
%ADD11R,0.275000X0.250000*%
%TD*%
%TA.AperFunction,SMDPad,CuDef*%
%ADD12R,0.675000X0.250000*%
%TD*%
%TA.AperFunction,SMDPad,CuDef*%
%ADD13R,0.250000X0.675000*%
%TD*%
%TA.AperFunction,ComponentPad*%
%ADD14R,2.000000X1.300000*%
%TD*%
%TA.AperFunction,ComponentPad*%
%ADD15O,2.000000X1.300000*%
%TD*%
%TA.AperFunction,SMDPad,CuDef*%
%ADD16RoundRect,0.140000X0.140000X0.170000X-0.140000X0.170000X-0.140000X-0.170000X0.140000X-0.170000X0*%
%TD*%
%TA.AperFunction,SMDPad,CuDef*%
%ADD17R,0.800000X0.900000*%
%TD*%
%TA.AperFunction,SMDPad,CuDef*%
%ADD18R,2.500000X1.700000*%
%TD*%
%TA.AperFunction,SMDPad,CuDef*%
%ADD19RoundRect,0.050000X0.725000X0.250000X-0.725000X0.250000X-0.725000X-0.250000X0.725000X-0.250000X0*%
%TD*%
%TA.AperFunction,ComponentPad*%
%ADD20C,4.400000*%
%TD*%
%TA.AperFunction,SMDPad,CuDef*%
%ADD21RoundRect,0.140000X0.170000X-0.140000X0.170000X0.140000X-0.170000X0.140000X-0.170000X-0.140000X0*%
%TD*%
%TA.AperFunction,ComponentPad*%
%ADD22R,6.200000X6.200000*%
%TD*%
%TA.AperFunction,ComponentPad*%
%ADD23C,6.200000*%
%TD*%
%TA.AperFunction,SMDPad,CuDef*%
%ADD24RoundRect,0.140000X-0.170000X0.140000X-0.170000X-0.140000X0.170000X-0.140000X0.170000X0.140000X0*%
%TD*%
%TA.AperFunction,SMDPad,CuDef*%
%ADD25R,0.600000X1.400000*%
%TD*%
%TA.AperFunction,SMDPad,CuDef*%
%ADD26RoundRect,0.200000X-0.275000X0.200000X-0.275000X-0.200000X0.275000X-0.200000X0.275000X0.200000X0*%
%TD*%
%TA.AperFunction,SMDPad,CuDef*%
%ADD27R,1.700000X2.500000*%
%TD*%
%TA.AperFunction,SMDPad,CuDef*%
%ADD28RoundRect,0.140000X-0.140000X-0.170000X0.140000X-0.170000X0.140000X0.170000X-0.140000X0.170000X0*%
%TD*%
%TA.AperFunction,SMDPad,CuDef*%
%ADD29RoundRect,0.147500X-0.147500X-0.172500X0.147500X-0.172500X0.147500X0.172500X-0.147500X0.172500X0*%
%TD*%
%TA.AperFunction,SMDPad,CuDef*%
%ADD30RoundRect,0.200000X0.275000X-0.200000X0.275000X0.200000X-0.275000X0.200000X-0.275000X-0.200000X0*%
%TD*%
%TA.AperFunction,SMDPad,CuDef*%
%ADD31R,2.200000X2.000000*%
%TD*%
%TA.AperFunction,SMDPad,CuDef*%
%ADD32R,0.280000X0.760000*%
%TD*%
%TA.AperFunction,SMDPad,CuDef*%
%ADD33R,0.760000X0.280000*%
%TD*%
%TA.AperFunction,ComponentPad*%
%ADD34C,0.600000*%
%TD*%
%TA.AperFunction,SMDPad,CuDef*%
%ADD35R,2.400000X2.400000*%
%TD*%
%TA.AperFunction,SMDPad,CuDef*%
%ADD36R,1.200000X1.000000*%
%TD*%
%TA.AperFunction,SMDPad,CuDef*%
%ADD37R,0.550000X1.300000*%
%TD*%
%TA.AperFunction,ComponentPad*%
%ADD38R,1.750000X1.750000*%
%TD*%
%TA.AperFunction,ComponentPad*%
%ADD39C,1.750000*%
%TD*%
%TA.AperFunction,SMDPad,CuDef*%
%ADD40RoundRect,0.050000X-0.725000X-0.250000X0.725000X-0.250000X0.725000X0.250000X-0.725000X0.250000X0*%
%TD*%
%TA.AperFunction,SMDPad,CuDef*%
%ADD41RoundRect,0.218750X0.256250X-0.218750X0.256250X0.218750X-0.256250X0.218750X-0.256250X-0.218750X0*%
%TD*%
%TA.AperFunction,ComponentPad*%
%ADD42R,1.800000X1.800000*%
%TD*%
%TA.AperFunction,ComponentPad*%
%ADD43C,1.800000*%
%TD*%
%TA.AperFunction,SMDPad,CuDef*%
%ADD44RoundRect,0.050000X0.250000X-0.725000X0.250000X0.725000X-0.250000X0.725000X-0.250000X-0.725000X0*%
%TD*%
%TA.AperFunction,SMDPad,CuDef*%
%ADD45RoundRect,0.218750X-0.256250X0.218750X-0.256250X-0.218750X0.256250X-0.218750X0.256250X0.218750X0*%
%TD*%
%TA.AperFunction,SMDPad,CuDef*%
%ADD46R,1.000000X1.200000*%
%TD*%
%TA.AperFunction,ComponentPad*%
%ADD47C,2.500000*%
%TD*%
%TA.AperFunction,ComponentPad*%
%ADD48C,2.700000*%
%TD*%
%TA.AperFunction,SMDPad,CuDef*%
%ADD49RoundRect,0.225000X0.225000X0.250000X-0.225000X0.250000X-0.225000X-0.250000X0.225000X-0.250000X0*%
%TD*%
%TA.AperFunction,SMDPad,CuDef*%
%ADD50R,0.800000X2.400000*%
%TD*%
%TA.AperFunction,SMDPad,CuDef*%
%ADD51R,1.193800X0.304800*%
%TD*%
%TA.AperFunction,SMDPad,CuDef*%
%ADD52R,0.304800X1.193800*%
%TD*%
%TA.AperFunction,SMDPad,CuDef*%
%ADD53RoundRect,0.147500X0.147500X0.172500X-0.147500X0.172500X-0.147500X-0.172500X0.147500X-0.172500X0*%
%TD*%
%TA.AperFunction,SMDPad,CuDef*%
%ADD54RoundRect,0.200000X-0.200000X-0.275000X0.200000X-0.275000X0.200000X0.275000X-0.200000X0.275000X0*%
%TD*%
%TA.AperFunction,SMDPad,CuDef*%
%ADD55RoundRect,0.147500X-0.172500X0.147500X-0.172500X-0.147500X0.172500X-0.147500X0.172500X0.147500X0*%
%TD*%
%TA.AperFunction,SMDPad,CuDef*%
%ADD56RoundRect,0.050000X-0.275000X0.975000X-0.275000X-0.975000X0.275000X-0.975000X0.275000X0.975000X0*%
%TD*%
%TA.AperFunction,SMDPad,CuDef*%
%ADD57RoundRect,0.050000X-1.550000X0.975000X-1.550000X-0.975000X1.550000X-0.975000X1.550000X0.975000X0*%
%TD*%
%TA.AperFunction,SMDPad,CuDef*%
%ADD58R,0.900000X0.800000*%
%TD*%
%TA.AperFunction,SMDPad,CuDef*%
%ADD59R,1.120000X2.880000*%
%TD*%
%TA.AperFunction,ComponentPad*%
%ADD60C,4.000000*%
%TD*%
%TA.AperFunction,SMDPad,CuDef*%
%ADD61R,1.050000X0.650000*%
%TD*%
%TA.AperFunction,ViaPad*%
%ADD62C,0.600000*%
%TD*%
%TA.AperFunction,Conductor*%
%ADD63C,0.254000*%
%TD*%
%TA.AperFunction,Conductor*%
%ADD64C,0.508000*%
%TD*%
%TA.AperFunction,Conductor*%
%ADD65C,0.295000*%
%TD*%
%TA.AperFunction,Conductor*%
%ADD66C,0.280000*%
%TD*%
%TA.AperFunction,Conductor*%
%ADD67C,2.500000*%
%TD*%
%TA.AperFunction,Conductor*%
%ADD68C,0.800000*%
%TD*%
%TA.AperFunction,Conductor*%
%ADD69C,2.000000*%
%TD*%
%TA.AperFunction,Conductor*%
%ADD70C,0.156500*%
%TD*%
%TA.AperFunction,Conductor*%
%ADD71C,0.167600*%
%TD*%
G04 APERTURE END LIST*
D10*
%TO.P,U4,1,VDDIO*%
%TO.N,+3V3*%
X165750000Y-115050000D03*
%TO.P,U4,2,SCL/SCK*%
%TO.N,SCL*%
X165250000Y-115050000D03*
D11*
%TO.P,U4,3,VSS*%
%TO.N,GND*%
X164738000Y-115312001D03*
%TO.P,U4,4,SDA/SDI*%
%TO.N,SDA*%
X164738000Y-115812000D03*
%TO.P,U4,5,SDO*%
%TO.N,GND*%
X164738000Y-116311999D03*
D10*
%TO.P,U4,6,~{CSB}*%
%TO.N,+3V3*%
X165250000Y-116574000D03*
%TO.P,U4,7,INT*%
%TO.N,BMP_INT*%
X165750000Y-116574000D03*
D11*
%TO.P,U4,8,VSS*%
%TO.N,GND*%
X166262000Y-116311999D03*
%TO.P,U4,9,VSS*%
X166262000Y-115812000D03*
%TO.P,U4,10,VDD*%
%TO.N,+3V3*%
X166262000Y-115312001D03*
%TD*%
D12*
%TO.P,U1,1,INT2*%
%TO.N,unconnected-(U1-INT2-Pad1)*%
X135200000Y-108300001D03*
%TO.P,U1,2,GND*%
%TO.N,GND*%
X135200000Y-108800000D03*
%TO.P,U1,3,VDD*%
%TO.N,+3V3*%
X135200000Y-109300002D03*
%TO.P,U1,4,GNDA*%
%TO.N,GND*%
X135200000Y-109800001D03*
%TO.P,U1,5,~{CSB}2*%
%TO.N,GYRO_~{CS}*%
X135200000Y-110300000D03*
%TO.P,U1,6,GNDIO*%
%TO.N,GND*%
X135200000Y-110800001D03*
%TO.P,U1,7,PS*%
X135200000Y-111300001D03*
D13*
%TO.P,U1,8,SCL/SCK*%
%TO.N,SCLK*%
X133950000Y-111800001D03*
D12*
%TO.P,U1,9,SDA/SDI*%
%TO.N,MOSI*%
X132700000Y-111300002D03*
%TO.P,U1,10,SDO2*%
%TO.N,MISO*%
X132700000Y-110800003D03*
%TO.P,U1,11,VDDIO*%
%TO.N,+3V3*%
X132700000Y-110300001D03*
%TO.P,U1,12,INT3*%
%TO.N,GYRO_INT*%
X132700000Y-109800002D03*
%TO.P,U1,13,INT4*%
%TO.N,unconnected-(U1-INT4-Pad13)*%
X132700000Y-109300003D03*
%TO.P,U1,14,~{CSB}1*%
%TO.N,ACCEL_~{CS}*%
X132700000Y-108800001D03*
%TO.P,U1,15,SDO1*%
%TO.N,MISO*%
X132700000Y-108300002D03*
D13*
%TO.P,U1,16,INT1*%
%TO.N,ACCEL_INT*%
X133950000Y-107800001D03*
%TD*%
D14*
%TO.P,J4,1,Pin_1*%
%TO.N,/I2C + CANBUS/CAN1H*%
X128510000Y-87450000D03*
D15*
%TO.P,J4,2,Pin_2*%
%TO.N,/I2C + CANBUS/CAN1L*%
X128510000Y-89450000D03*
%TD*%
D14*
%TO.P,J5,1,Pin_1*%
%TO.N,/I2C + CANBUS/CAN1H*%
X128510000Y-94200000D03*
D15*
%TO.P,J5,2,Pin_2*%
%TO.N,/I2C + CANBUS/CAN1L*%
X128510000Y-96200000D03*
%TD*%
D14*
%TO.P,J6,1,Pin_1*%
%TO.N,/I2C + CANBUS/CAN2H*%
X172085000Y-96250000D03*
D15*
%TO.P,J6,2,Pin_2*%
%TO.N,/I2C + CANBUS/CAN2L*%
X172085000Y-94250000D03*
%TD*%
D14*
%TO.P,J7,1,Pin_1*%
%TO.N,/I2C + CANBUS/CAN2H*%
X172085000Y-89500000D03*
D15*
%TO.P,J7,2,Pin_2*%
%TO.N,/I2C + CANBUS/CAN2L*%
X172085000Y-87500000D03*
%TD*%
D16*
%TO.P,C55,1*%
%TO.N,Net-(U10-PF1_OSC_OUT)*%
X141565001Y-108499999D03*
%TO.P,C55,2*%
%TO.N,GND*%
X140605001Y-108499999D03*
%TD*%
D17*
%TO.P,D12,1,K*%
%TO.N,/MCU + PAYLOAD/SWDIO*%
X151100000Y-123000000D03*
%TO.P,D12,2,K*%
%TO.N,/MCU + PAYLOAD/SWCLK*%
X153000000Y-123000000D03*
%TO.P,D12,3,A*%
%TO.N,GND*%
X152050000Y-121000000D03*
%TD*%
D18*
%TO.P,D6,1,K*%
%TO.N,Net-(D6-K)*%
X138385000Y-71100000D03*
%TO.P,D6,2,A*%
%TO.N,GND*%
X134385000Y-71100000D03*
%TD*%
D19*
%TO.P,U5,1,D*%
%TO.N,CAN1_TX*%
X137500000Y-103440000D03*
%TO.P,U5,2,GND*%
%TO.N,GND*%
X137500000Y-102170000D03*
%TO.P,U5,3,VCC*%
%TO.N,+3V3*%
X137500000Y-100900000D03*
%TO.P,U5,4,R*%
%TO.N,CAN1_RX*%
X137500000Y-99630000D03*
%TO.P,U5,5,NC*%
%TO.N,unconnected-(U5-NC-Pad5)*%
X132100000Y-99630000D03*
%TO.P,U5,6,CANL*%
%TO.N,/I2C + CANBUS/CAN1L*%
X132100000Y-100900000D03*
%TO.P,U5,7,CANH*%
%TO.N,/I2C + CANBUS/CAN1H*%
X132100000Y-102170000D03*
%TO.P,U5,8,NC*%
%TO.N,unconnected-(U5-NC-Pad8)*%
X132100000Y-103440000D03*
%TD*%
D20*
%TO.P,H3,1*%
%TO.N,N/C*%
X174935000Y-128860000D03*
%TD*%
D16*
%TO.P,C40,1*%
%TO.N,GND*%
X156085001Y-89800000D03*
%TO.P,C40,2*%
%TO.N,+5V*%
X155125001Y-89800000D03*
%TD*%
D21*
%TO.P,C51,1*%
%TO.N,+3V3*%
X147300001Y-103309998D03*
%TO.P,C51,2*%
%TO.N,GND*%
X147300001Y-102349998D03*
%TD*%
%TO.P,C5,1*%
%TO.N,+3V3*%
X140612400Y-114917400D03*
%TO.P,C5,2*%
%TO.N,GND*%
X140612400Y-113957400D03*
%TD*%
D17*
%TO.P,D1,1,K*%
%TO.N,/I2C + CANBUS/CAN1H*%
X133350000Y-88900000D03*
%TO.P,D1,2,K*%
%TO.N,/I2C + CANBUS/CAN1L*%
X131450000Y-88900000D03*
%TO.P,D1,3,A*%
%TO.N,GND*%
X132400000Y-90900000D03*
%TD*%
D16*
%TO.P,C8,1*%
%TO.N,+3V3*%
X137287400Y-118867400D03*
%TO.P,C8,2*%
%TO.N,GND*%
X136327400Y-118867400D03*
%TD*%
D22*
%TO.P,J8,1,Pin_1*%
%TO.N,+BATT*%
X127675000Y-68850000D03*
D23*
%TO.P,J8,2,Pin_2*%
%TO.N,GND*%
X127675000Y-76050000D03*
%TD*%
D24*
%TO.P,C26,1*%
%TO.N,Net-(U7-C1)*%
X164970000Y-123100000D03*
%TO.P,C26,2*%
%TO.N,GND*%
X164970000Y-124060000D03*
%TD*%
D17*
%TO.P,D13,1,K*%
%TO.N,/MCU + PAYLOAD/SWO*%
X154500000Y-123000000D03*
%TO.P,D13,2,K*%
%TO.N,/MCU + PAYLOAD/NRST*%
X156400000Y-123000000D03*
%TO.P,D13,3,A*%
%TO.N,GND*%
X155450000Y-121000000D03*
%TD*%
D25*
%TO.P,U3,1,E0*%
%TO.N,+3V3*%
X167770000Y-105400000D03*
%TO.P,U3,2,E1*%
X166500000Y-105400000D03*
%TO.P,U3,3,E2*%
X165230000Y-105400000D03*
%TO.P,U3,4,VSS*%
%TO.N,GND*%
X163960000Y-105400000D03*
%TO.P,U3,5,SDA*%
%TO.N,SDA*%
X163960000Y-110700000D03*
%TO.P,U3,6,SCL*%
%TO.N,SCL*%
X165230000Y-110700000D03*
%TO.P,U3,7,~{WC}*%
%TO.N,GND*%
X166500000Y-110700000D03*
%TO.P,U3,8,VCC*%
%TO.N,+3V3*%
X167770000Y-110700000D03*
%TD*%
D16*
%TO.P,C3,1*%
%TO.N,Net-(U2-XOSC_Q1)*%
X134510000Y-117492400D03*
%TO.P,C3,2*%
%TO.N,GND*%
X133550000Y-117492400D03*
%TD*%
D26*
%TO.P,R10,1*%
%TO.N,+5V*%
X156485000Y-92650000D03*
%TO.P,R10,2*%
%TO.N,Net-(D10-A)*%
X156485000Y-94300000D03*
%TD*%
D27*
%TO.P,D3,1,K*%
%TO.N,+BATT*%
X133885000Y-67700000D03*
%TO.P,D3,2,A*%
%TO.N,GND*%
X133885000Y-63700000D03*
%TD*%
D20*
%TO.P,H1,1*%
%TO.N,N/C*%
X154935000Y-66150000D03*
%TD*%
D28*
%TO.P,C28,1*%
%TO.N,/I2C + CANBUS/CAN2L*%
X166610000Y-92175000D03*
%TO.P,C28,2*%
%TO.N,GND*%
X167570000Y-92175000D03*
%TD*%
D24*
%TO.P,C22,1*%
%TO.N,GND*%
X160630000Y-101075000D03*
%TO.P,C22,2*%
%TO.N,+3V3*%
X160630000Y-102035000D03*
%TD*%
D29*
%TO.P,L1,1,1*%
%TO.N,GND*%
X139617400Y-123792400D03*
%TO.P,L1,2,2*%
%TO.N,Net-(C11-Pad2)*%
X140587400Y-123792400D03*
%TD*%
D24*
%TO.P,C6,1*%
%TO.N,Net-(U2-XOSC_Q2)*%
X136357400Y-120567400D03*
%TO.P,C6,2*%
%TO.N,GND*%
X136357400Y-121527400D03*
%TD*%
D30*
%TO.P,R14,1*%
%TO.N,+3V3*%
X161050000Y-110650000D03*
%TO.P,R14,2*%
%TO.N,SDA*%
X161050000Y-109000000D03*
%TD*%
D24*
%TO.P,C10,1*%
%TO.N,+3V3*%
X143887400Y-121342400D03*
%TO.P,C10,2*%
%TO.N,GND*%
X143887400Y-122302400D03*
%TD*%
D31*
%TO.P,L4,1,1*%
%TO.N,Net-(D6-K)*%
X136385000Y-74200000D03*
%TO.P,L4,2,2*%
%TO.N,/POWER + USB/5VDCDC*%
X136385000Y-80100000D03*
%TD*%
D24*
%TO.P,C43,1*%
%TO.N,GND*%
X145725000Y-94290000D03*
%TO.P,C43,2*%
%TO.N,+3V3*%
X145725000Y-95250000D03*
%TD*%
D16*
%TO.P,C24,1*%
%TO.N,/I2C + CANBUS/CAN2H*%
X169610000Y-92175000D03*
%TO.P,C24,2*%
%TO.N,GND*%
X168650000Y-92175000D03*
%TD*%
D28*
%TO.P,C25,1*%
%TO.N,+3V3*%
X166020000Y-121950000D03*
%TO.P,C25,2*%
%TO.N,GND*%
X166980000Y-121950000D03*
%TD*%
D26*
%TO.P,R12,1*%
%TO.N,+3V3*%
X158000000Y-121350000D03*
%TO.P,R12,2*%
%TO.N,/MCU + PAYLOAD/NRST*%
X158000000Y-123000000D03*
%TD*%
D28*
%TO.P,C49,1*%
%TO.N,+3V3*%
X157150001Y-103649999D03*
%TO.P,C49,2*%
%TO.N,GND*%
X158110001Y-103649999D03*
%TD*%
D30*
%TO.P,R15,1*%
%TO.N,CAN1_RX*%
X146450000Y-100500000D03*
%TO.P,R15,2*%
%TO.N,GND*%
X146450000Y-98850000D03*
%TD*%
D32*
%TO.P,U2,1,SCLK*%
%TO.N,SCLK*%
X142387400Y-116582400D03*
%TO.P,U2,2,SO_GDO1*%
%TO.N,MISO*%
X141887400Y-116582400D03*
%TO.P,U2,3,GDO2*%
%TO.N,CC2500_GDO2*%
X141387400Y-116582400D03*
%TO.P,U2,4,DVDD*%
%TO.N,+3V3*%
X140887401Y-116582400D03*
%TO.P,U2,5,DCOUPL*%
%TO.N,Net-(U2-DCOUPL)*%
X140387399Y-116582400D03*
D33*
%TO.P,U2,6,GDO0_ATEST*%
%TO.N,CC2500_GDO0*%
X139607400Y-117362399D03*
%TO.P,U2,7,~{CS}*%
%TO.N,CC2500_~{CS}*%
X139607400Y-117862400D03*
%TO.P,U2,8,XOSC_Q1*%
%TO.N,Net-(U2-XOSC_Q1)*%
X139607400Y-118362400D03*
%TO.P,U2,9,AVDD*%
%TO.N,+3V3*%
X139607400Y-118862399D03*
%TO.P,U2,10,XOSC_Q2*%
%TO.N,Net-(U2-XOSC_Q2)*%
X139607400Y-119362400D03*
D32*
%TO.P,U2,11,AVDD*%
%TO.N,+3V3*%
X140387399Y-120142400D03*
%TO.P,U2,12,RF_P*%
%TO.N,Net-(U2-RF_P)*%
X140887400Y-120142400D03*
%TO.P,U2,13,RF_N*%
%TO.N,Net-(U2-RF_N)*%
X141387400Y-120142400D03*
%TO.P,U2,14,AVDD*%
%TO.N,+3V3*%
X141887400Y-120142400D03*
%TO.P,U2,15,AVDD*%
X142387401Y-120142400D03*
D33*
%TO.P,U2,16,GND*%
%TO.N,GND*%
X143167400Y-119362400D03*
%TO.P,U2,17,RBIAS*%
%TO.N,Net-(U2-RBIAS)*%
X143167400Y-118862400D03*
%TO.P,U2,18,DGUARD*%
%TO.N,+3V3*%
X143167400Y-118362400D03*
%TO.P,U2,19,GND*%
%TO.N,GND*%
X143167400Y-117862400D03*
%TO.P,U2,20,SI*%
%TO.N,MOSI*%
X143167400Y-117362400D03*
D34*
%TO.P,U2,21,PAD*%
%TO.N,GND*%
X142174800Y-117575000D03*
X140600000Y-117575000D03*
X141387400Y-118362400D03*
D35*
X141387400Y-118362400D03*
D34*
X142174800Y-119149800D03*
X140600000Y-119149800D03*
%TD*%
D36*
%TO.P,X2,1,1*%
%TO.N,Net-(U10-PF0_OSC_IN)*%
X142300001Y-105950000D03*
%TO.P,X2,2,2*%
%TO.N,GND*%
X140600001Y-105950000D03*
%TO.P,X2,3,3*%
%TO.N,Net-(U10-PF1_OSC_OUT)*%
X140600001Y-107250000D03*
%TO.P,X2,4,4*%
%TO.N,GND*%
X142300001Y-107250000D03*
%TD*%
D28*
%TO.P,C30,1*%
%TO.N,+3V3*%
X166020000Y-120900000D03*
%TO.P,C30,2*%
%TO.N,GND*%
X166980000Y-120900000D03*
%TD*%
D37*
%TO.P,D7,1,VDD*%
%TO.N,/POWER + USB/5VDCDC*%
X148125000Y-85650000D03*
%TO.P,D7,2,GND*%
%TO.N,GND*%
X147174999Y-85650000D03*
%TO.P,D7,3,EN*%
%TO.N,Net-(D7-EN)*%
X146224999Y-85650000D03*
%TO.P,D7,4,NC*%
%TO.N,unconnected-(D7-NC-Pad4)*%
X146224999Y-88150000D03*
%TO.P,D7,5,OUT*%
%TO.N,+5V*%
X148125000Y-88150000D03*
%TD*%
D24*
%TO.P,C44,1*%
%TO.N,+3V3*%
X150700000Y-114850000D03*
%TO.P,C44,2*%
%TO.N,GND*%
X150700000Y-115810000D03*
%TD*%
D38*
%TO.P,J2,1,Pin_1*%
%TO.N,Net-(J2-Pin_1)*%
X134300000Y-94360000D03*
D39*
%TO.P,J2,2,Pin_2*%
%TO.N,/I2C + CANBUS/CAN1H*%
X136840000Y-94360000D03*
%TO.P,J2,3,Pin_3*%
%TO.N,Net-(J2-Pin_3)*%
X134300000Y-96900000D03*
%TO.P,J2,4,Pin_4*%
%TO.N,/I2C + CANBUS/CAN1H*%
X136840000Y-96900000D03*
%TD*%
D18*
%TO.P,D4,1,K*%
%TO.N,/POWER + USB/5VBUS*%
X171785000Y-78800000D03*
%TO.P,D4,2,A*%
%TO.N,GND*%
X175785000Y-78800000D03*
%TD*%
D40*
%TO.P,U6,1,D*%
%TO.N,CAN2_TX*%
X163030000Y-99665000D03*
%TO.P,U6,2,GND*%
%TO.N,GND*%
X163030000Y-100935000D03*
%TO.P,U6,3,VCC*%
%TO.N,+3V3*%
X163030000Y-102205000D03*
%TO.P,U6,4,R*%
%TO.N,CAN2_RX*%
X163030000Y-103475000D03*
%TO.P,U6,5,NC*%
%TO.N,unconnected-(U6-NC-Pad5)*%
X168430000Y-103475000D03*
%TO.P,U6,6,CANL*%
%TO.N,/I2C + CANBUS/CAN2L*%
X168430000Y-102205000D03*
%TO.P,U6,7,CANH*%
%TO.N,/I2C + CANBUS/CAN2H*%
X168430000Y-100935000D03*
%TO.P,U6,8,NC*%
%TO.N,unconnected-(U6-NC-Pad8)*%
X168430000Y-99665000D03*
%TD*%
D28*
%TO.P,C29,1*%
%TO.N,+3V3*%
X166020000Y-123000000D03*
%TO.P,C29,2*%
%TO.N,GND*%
X166980000Y-123000000D03*
%TD*%
D21*
%TO.P,C21,1*%
%TO.N,GND*%
X139925000Y-102000000D03*
%TO.P,C21,2*%
%TO.N,+3V3*%
X139925000Y-101040000D03*
%TD*%
D41*
%TO.P,D10,1,K*%
%TO.N,GND*%
X157950000Y-95875000D03*
%TO.P,D10,2,A*%
%TO.N,Net-(D10-A)*%
X157950000Y-94300000D03*
%TD*%
D28*
%TO.P,C37,1*%
%TO.N,GND*%
X146015000Y-83150000D03*
%TO.P,C37,2*%
%TO.N,/POWER + USB/5VDCDC*%
X146975000Y-83150000D03*
%TD*%
D16*
%TO.P,C34,1*%
%TO.N,GND*%
X173295000Y-82725000D03*
%TO.P,C34,2*%
%TO.N,/POWER + USB/5VBUS_FILT*%
X172335000Y-82725000D03*
%TD*%
D28*
%TO.P,C19,1*%
%TO.N,+3V3*%
X167850000Y-115050000D03*
%TO.P,C19,2*%
%TO.N,GND*%
X168810000Y-115050000D03*
%TD*%
D24*
%TO.P,C17,1*%
%TO.N,Net-(J1-In)*%
X138200000Y-127440000D03*
%TO.P,C17,2*%
%TO.N,GND*%
X138200000Y-128400000D03*
%TD*%
D21*
%TO.P,C2,1*%
%TO.N,+3V3*%
X137200000Y-108650000D03*
%TO.P,C2,2*%
%TO.N,GND*%
X137200000Y-107690000D03*
%TD*%
%TO.P,C41,1*%
%TO.N,+5V*%
X151725000Y-90450000D03*
%TO.P,C41,2*%
%TO.N,GND*%
X151725000Y-89490000D03*
%TD*%
D28*
%TO.P,C14,1*%
%TO.N,Net-(C12-Pad2)*%
X141687400Y-123792400D03*
%TO.P,C14,2*%
%TO.N,GND*%
X142647400Y-123792400D03*
%TD*%
D21*
%TO.P,C1,1*%
%TO.N,+3V3*%
X131000000Y-110050002D03*
%TO.P,C1,2*%
%TO.N,GND*%
X131000000Y-109090002D03*
%TD*%
D30*
%TO.P,R5,1*%
%TO.N,Net-(J3-Pin_3)*%
X168430000Y-95075000D03*
%TO.P,R5,2*%
%TO.N,/I2C + CANBUS/CAN2H*%
X168430000Y-93425000D03*
%TD*%
D42*
%TO.P,C31,1*%
%TO.N,+BATT*%
X145285000Y-70511800D03*
D43*
%TO.P,C31,2*%
%TO.N,GND*%
X145285000Y-65000000D03*
%TD*%
D10*
%TO.P,U7,1,SCL/SCK*%
%TO.N,SCL*%
X163049999Y-122200001D03*
%TO.P,U7,2,GND*%
%TO.N,GND*%
X163550000Y-122200002D03*
%TO.P,U7,3,GND*%
X164050000Y-122200002D03*
%TO.P,U7,4,C1*%
%TO.N,Net-(U7-C1)*%
X164550001Y-122200002D03*
D11*
%TO.P,U7,5,VDD*%
%TO.N,+3V3*%
X164560000Y-121700001D03*
%TO.P,U7,6,VDDIO*%
X164560000Y-121200001D03*
D10*
%TO.P,U7,7,INT*%
%TO.N,MAG_INT*%
X164550001Y-120700000D03*
%TO.P,U7,8,DRDY*%
%TO.N,MAG_DRDY*%
X164050000Y-120700000D03*
%TO.P,U7,9,SDO*%
%TO.N,GND*%
X163550000Y-120700000D03*
%TO.P,U7,10,CS*%
%TO.N,+3V3*%
X163049999Y-120700000D03*
D11*
%TO.P,U7,11,SDA/SDI*%
%TO.N,SDA*%
X163040000Y-121200001D03*
%TO.P,U7,12,GND*%
%TO.N,GND*%
X163040000Y-121700001D03*
%TD*%
D41*
%TO.P,D11,1,K*%
%TO.N,GND*%
X142950000Y-98500000D03*
%TO.P,D11,2,A*%
%TO.N,Net-(D11-A)*%
X142950000Y-96925000D03*
%TD*%
D16*
%TO.P,C48,1*%
%TO.N,+3V3*%
X145865001Y-104750000D03*
%TO.P,C48,2*%
%TO.N,GND*%
X144905001Y-104750000D03*
%TD*%
D28*
%TO.P,C18,1*%
%TO.N,GND*%
X166740000Y-112700000D03*
%TO.P,C18,2*%
%TO.N,+3V3*%
X167700000Y-112700000D03*
%TD*%
D26*
%TO.P,R13,1*%
%TO.N,+3V3*%
X161050000Y-106050000D03*
%TO.P,R13,2*%
%TO.N,SCL*%
X161050000Y-107700000D03*
%TD*%
D44*
%TO.P,U8,1,CB*%
%TO.N,Net-(U8-CB)*%
X142485000Y-80300000D03*
%TO.P,U8,2,SS*%
%TO.N,unconnected-(U8-SS-Pad2)*%
X143755000Y-80300000D03*
%TO.P,U8,3,SYNC*%
%TO.N,unconnected-(U8-SYNC-Pad3)*%
X145025000Y-80300000D03*
%TO.P,U8,4,FB*%
%TO.N,/POWER + USB/5VDCDC*%
X146295000Y-80300000D03*
%TO.P,U8,5,ON/~{OFF}*%
%TO.N,unconnected-(U8-ON{slash}~{OFF}-Pad5)*%
X146295000Y-74900000D03*
%TO.P,U8,6,GND*%
%TO.N,GND*%
X145025000Y-74900000D03*
%TO.P,U8,7,VIN*%
%TO.N,+BATT*%
X143755000Y-74900000D03*
%TO.P,U8,8,VSW*%
%TO.N,Net-(D6-K)*%
X142485000Y-74900000D03*
%TD*%
D24*
%TO.P,C11,1*%
%TO.N,Net-(U2-RF_P)*%
X140587400Y-121782400D03*
%TO.P,C11,2*%
%TO.N,Net-(C11-Pad2)*%
X140587400Y-122742400D03*
%TD*%
D45*
%TO.P,FB1,1*%
%TO.N,/POWER + USB/5VBUS*%
X171085000Y-81125000D03*
%TO.P,FB1,2*%
%TO.N,/POWER + USB/5VBUS_FILT*%
X171085000Y-82700000D03*
%TD*%
D46*
%TO.P,X1,1,1*%
%TO.N,Net-(U2-XOSC_Q1)*%
X133787400Y-118867400D03*
%TO.P,X1,2,2*%
%TO.N,GND*%
X133787400Y-120567400D03*
%TO.P,X1,3,3*%
%TO.N,Net-(U2-XOSC_Q2)*%
X135087400Y-120567400D03*
%TO.P,X1,4,4*%
%TO.N,GND*%
X135087400Y-118867400D03*
%TD*%
D47*
%TO.P,J1,1,In*%
%TO.N,Net-(J1-In)*%
X133685000Y-127400000D03*
D48*
%TO.P,J1,2,Ext*%
%TO.N,GND*%
X136225000Y-124860000D03*
X131145000Y-124860000D03*
X136225000Y-129940000D03*
X131145000Y-129940000D03*
%TD*%
D30*
%TO.P,R2,1*%
%TO.N,Net-(J2-Pin_1)*%
X132100000Y-95050000D03*
%TO.P,R2,2*%
%TO.N,/I2C + CANBUS/CAN1L*%
X132100000Y-93400000D03*
%TD*%
D24*
%TO.P,C16,1*%
%TO.N,Net-(C15-Pad2)*%
X141125000Y-126825000D03*
%TO.P,C16,2*%
%TO.N,GND*%
X141125000Y-127785000D03*
%TD*%
D20*
%TO.P,H2,1*%
%TO.N,N/C*%
X125685000Y-128860000D03*
%TD*%
D21*
%TO.P,C52,1*%
%TO.N,Net-(U10-PF0_OSC_IN)*%
X143650001Y-106609999D03*
%TO.P,C52,2*%
%TO.N,GND*%
X143650001Y-105649999D03*
%TD*%
D28*
%TO.P,C27,1*%
%TO.N,/I2C + CANBUS/CAN1L*%
X130900000Y-92100000D03*
%TO.P,C27,2*%
%TO.N,GND*%
X131860000Y-92100000D03*
%TD*%
D26*
%TO.P,R11,1*%
%TO.N,+3V3*%
X144450000Y-95250000D03*
%TO.P,R11,2*%
%TO.N,Net-(D11-A)*%
X144450000Y-96900000D03*
%TD*%
D42*
%TO.P,C36,1*%
%TO.N,/POWER + USB/5VDCDC*%
X152985000Y-79550000D03*
D43*
%TO.P,C36,2*%
%TO.N,GND*%
X152985000Y-74038200D03*
%TD*%
D49*
%TO.P,C35,1*%
%TO.N,Net-(C35-Pad1)*%
X172635000Y-84100000D03*
%TO.P,C35,2*%
%TO.N,/POWER + USB/5VBUS_FILT*%
X171085000Y-84100000D03*
%TD*%
D50*
%TO.P,J10,1,Pin_1*%
%TO.N,+3V3*%
X151230000Y-129150002D03*
%TO.P,J10,2,Pin_2*%
%TO.N,/MCU + PAYLOAD/SWDIO*%
X151230000Y-125250000D03*
%TO.P,J10,3,Pin_3*%
%TO.N,GND*%
X152500000Y-129150002D03*
%TO.P,J10,4,Pin_4*%
%TO.N,/MCU + PAYLOAD/SWCLK*%
X152500000Y-125250000D03*
%TO.P,J10,5,Pin_5*%
%TO.N,GND*%
X153770000Y-129150002D03*
%TO.P,J10,6,Pin_6*%
%TO.N,/MCU + PAYLOAD/SWO*%
X153770000Y-125250000D03*
%TO.P,J10,7,Pin_7*%
%TO.N,unconnected-(J10-Pin_7-Pad7)*%
X155040000Y-129150002D03*
%TO.P,J10,8,Pin_8*%
%TO.N,unconnected-(J10-Pin_8-Pad8)*%
X155040000Y-125250000D03*
%TO.P,J10,9,Pin_9*%
%TO.N,GND*%
X156310000Y-129150002D03*
%TO.P,J10,10,Pin_10*%
%TO.N,/MCU + PAYLOAD/NRST*%
X156310000Y-125250000D03*
%TD*%
D51*
%TO.P,U10,1,VBAT*%
%TO.N,+3V3*%
X146750001Y-105699999D03*
%TO.P,U10,2,PC13*%
%TO.N,/MCU + PAYLOAD/GPIO2*%
X146750001Y-106199998D03*
%TO.P,U10,3,PC14_OSC32_IN*%
%TO.N,/MCU + PAYLOAD/GPIO3*%
X146750001Y-106700000D03*
%TO.P,U10,4,PC15_OSC32_OUT*%
%TO.N,ACCEL_INT*%
X146750001Y-107199999D03*
%TO.P,U10,5,PF0_OSC_IN*%
%TO.N,Net-(U10-PF0_OSC_IN)*%
X146750001Y-107699998D03*
%TO.P,U10,6,PF1_OSC_OUT*%
%TO.N,Net-(U10-PF1_OSC_OUT)*%
X146750001Y-108199999D03*
%TO.P,U10,7,PG10_NRST*%
%TO.N,/MCU + PAYLOAD/NRST*%
X146750001Y-108699999D03*
%TO.P,U10,8,PA0*%
%TO.N,GYRO_~{CS}*%
X146750001Y-109200000D03*
%TO.P,U10,9,PA1*%
%TO.N,GYRO_INT*%
X146750001Y-109699999D03*
%TO.P,U10,10,PA2*%
%TO.N,/MCU + PAYLOAD/UART_TX*%
X146750001Y-110199998D03*
%TO.P,U10,11,PA3*%
%TO.N,/MCU + PAYLOAD/UART_RX*%
X146750001Y-110700000D03*
%TO.P,U10,12,PA4*%
%TO.N,ACCEL_~{CS}*%
X146750001Y-111199999D03*
D52*
%TO.P,U10,13,PA5*%
%TO.N,SCLK*%
X148250000Y-112699998D03*
%TO.P,U10,14,PA6*%
%TO.N,MISO*%
X148749999Y-112699998D03*
%TO.P,U10,15,PA7*%
%TO.N,MOSI*%
X149250001Y-112699998D03*
%TO.P,U10,16,PB0*%
%TO.N,CC2500_GDO0*%
X149750000Y-112699998D03*
%TO.P,U10,17,PB1*%
%TO.N,CC2500_~{CS}*%
X150249999Y-112699998D03*
%TO.P,U10,18,PB2*%
%TO.N,CC2500_GDO2*%
X150750000Y-112699998D03*
%TO.P,U10,19,VSSA*%
%TO.N,GND*%
X151250000Y-112699998D03*
%TO.P,U10,20,VREF+*%
%TO.N,+3V3*%
X151750001Y-112699998D03*
%TO.P,U10,21,VDDA*%
X152250000Y-112699998D03*
%TO.P,U10,22,PB10*%
%TO.N,/MCU + PAYLOAD/GPIO8*%
X152749999Y-112699998D03*
%TO.P,U10,23,VSS*%
%TO.N,GND*%
X153250001Y-112699998D03*
%TO.P,U10,24,VDD*%
%TO.N,+3V3*%
X153750000Y-112699998D03*
D51*
%TO.P,U10,25,PB11*%
%TO.N,/MCU + PAYLOAD/GPIO9*%
X155249999Y-111199999D03*
%TO.P,U10,26,PB12*%
%TO.N,MAG_DRDY*%
X155249999Y-110700000D03*
%TO.P,U10,27,PB13*%
%TO.N,MAG_INT*%
X155249999Y-110199998D03*
%TO.P,U10,28,PB14*%
%TO.N,BMP_INT*%
X155249999Y-109699999D03*
%TO.P,U10,29,PB15*%
%TO.N,/MCU + PAYLOAD/GPIO7*%
X155249999Y-109200000D03*
%TO.P,U10,30,PA8*%
%TO.N,SDA*%
X155249999Y-108699999D03*
%TO.P,U10,31,PA9*%
%TO.N,SCL*%
X155249999Y-108199999D03*
%TO.P,U10,32,PA10*%
%TO.N,/MCU + PAYLOAD/GPIO6*%
X155249999Y-107699998D03*
%TO.P,U10,33,PA11*%
%TO.N,USB_D-*%
X155249999Y-107199999D03*
%TO.P,U10,34,PA12*%
%TO.N,USB_D+*%
X155249999Y-106700000D03*
%TO.P,U10,35,VSS*%
%TO.N,GND*%
X155249999Y-106199998D03*
%TO.P,U10,36,VDD*%
%TO.N,+3V3*%
X155249999Y-105699999D03*
D52*
%TO.P,U10,37,PA13*%
%TO.N,/MCU + PAYLOAD/SWDIO*%
X153750000Y-104200000D03*
%TO.P,U10,38,PA14*%
%TO.N,/MCU + PAYLOAD/SWCLK*%
X153250001Y-104200000D03*
%TO.P,U10,39,PA15*%
%TO.N,/MCU + PAYLOAD/GPIO5*%
X152749999Y-104200000D03*
%TO.P,U10,40,PB3*%
%TO.N,/MCU + PAYLOAD/SWO*%
X152250000Y-104200000D03*
%TO.P,U10,41,PB4*%
%TO.N,/MCU + PAYLOAD/GPIO4*%
X151750001Y-104200000D03*
%TO.P,U10,42,PB5*%
%TO.N,CAN2_RX*%
X151250000Y-104200000D03*
%TO.P,U10,43,PB6*%
%TO.N,CAN2_TX*%
X150750000Y-104200000D03*
%TO.P,U10,44,PB7*%
%TO.N,/MCU + PAYLOAD/GPIO1*%
X150249999Y-104200000D03*
%TO.P,U10,45,PB8_BOOT0*%
%TO.N,CAN1_RX*%
X149750000Y-104200000D03*
%TO.P,U10,46,PB9*%
%TO.N,CAN1_TX*%
X149250001Y-104200000D03*
%TO.P,U10,47,VSS*%
%TO.N,GND*%
X148749999Y-104200000D03*
%TO.P,U10,48,VDD*%
%TO.N,+3V3*%
X148250000Y-104200000D03*
%TD*%
D24*
%TO.P,C13,1*%
%TO.N,+3V3*%
X139452400Y-121342400D03*
%TO.P,C13,2*%
%TO.N,GND*%
X139452400Y-122302400D03*
%TD*%
D26*
%TO.P,R9,1*%
%TO.N,/POWER + USB/5VBUS_FILT*%
X151575000Y-83200000D03*
%TO.P,R9,2*%
%TO.N,Net-(D8-D)*%
X151575000Y-84850000D03*
%TD*%
D24*
%TO.P,C45,1*%
%TO.N,+3V3*%
X151750000Y-114850000D03*
%TO.P,C45,2*%
%TO.N,GND*%
X151750000Y-115810000D03*
%TD*%
D53*
%TO.P,L3,1,1*%
%TO.N,Net-(C15-Pad2)*%
X140145000Y-127150000D03*
%TO.P,L3,2,2*%
%TO.N,Net-(J1-In)*%
X139175000Y-127150000D03*
%TD*%
D54*
%TO.P,R6,1*%
%TO.N,Net-(C35-Pad1)*%
X173985000Y-84100000D03*
%TO.P,R6,2*%
%TO.N,GND*%
X175635000Y-84100000D03*
%TD*%
D24*
%TO.P,C9,1*%
%TO.N,+3V3*%
X142837400Y-121342400D03*
%TO.P,C9,2*%
%TO.N,GND*%
X142837400Y-122302400D03*
%TD*%
D26*
%TO.P,R4,1*%
%TO.N,Net-(J2-Pin_3)*%
X132100000Y-96400000D03*
%TO.P,R4,2*%
%TO.N,/I2C + CANBUS/CAN1L*%
X132100000Y-98050000D03*
%TD*%
D55*
%TO.P,L2,1,1*%
%TO.N,Net-(C12-Pad2)*%
X141687400Y-124872400D03*
%TO.P,L2,2,2*%
%TO.N,Net-(C15-Pad2)*%
X141687400Y-125842400D03*
%TD*%
D26*
%TO.P,R7,1*%
%TO.N,/POWER + USB/5VDCDC*%
X144575000Y-83700000D03*
%TO.P,R7,2*%
%TO.N,Net-(D7-EN)*%
X144575000Y-85350000D03*
%TD*%
D24*
%TO.P,C54,1*%
%TO.N,+3V3*%
X155465001Y-112700000D03*
%TO.P,C54,2*%
%TO.N,GND*%
X155465001Y-113660000D03*
%TD*%
D28*
%TO.P,C38,1*%
%TO.N,GND*%
X153025000Y-83150000D03*
%TO.P,C38,2*%
%TO.N,/POWER + USB/5VBUS_FILT*%
X153985000Y-83150000D03*
%TD*%
D56*
%TO.P,U9,1,EN*%
%TO.N,+5V*%
X152365000Y-92300000D03*
%TO.P,U9,2,IN*%
X151095000Y-92300000D03*
%TO.P,U9,3,GND*%
%TO.N,GND*%
X149825000Y-92300000D03*
%TO.P,U9,4,OUT*%
%TO.N,+3V3*%
X148555000Y-92300000D03*
%TO.P,U9,5,NR/FB*%
%TO.N,Net-(U9-NR{slash}FB)*%
X147285000Y-92300000D03*
D34*
%TO.P,U9,6,GND*%
%TO.N,GND*%
X149825000Y-97550000D03*
X151175000Y-98300000D03*
D57*
X149825000Y-98300000D03*
D34*
X148475000Y-98300000D03*
X149825000Y-99050000D03*
%TD*%
D38*
%TO.P,J3,1,Pin_1*%
%TO.N,Net-(J3-Pin_1)*%
X166270000Y-97075000D03*
D39*
%TO.P,J3,2,Pin_2*%
%TO.N,/I2C + CANBUS/CAN2L*%
X163730000Y-97075000D03*
%TO.P,J3,3,Pin_3*%
%TO.N,Net-(J3-Pin_3)*%
X166270000Y-94535000D03*
%TO.P,J3,4,Pin_4*%
%TO.N,/I2C + CANBUS/CAN2L*%
X163730000Y-94535000D03*
%TD*%
D37*
%TO.P,D9,1,VDD*%
%TO.N,/POWER + USB/5VBUS_FILT*%
X155125001Y-85650000D03*
%TO.P,D9,2,GND*%
%TO.N,GND*%
X154175000Y-85650000D03*
%TO.P,D9,3,EN*%
%TO.N,Net-(D8-D)*%
X153225000Y-85650000D03*
%TO.P,D9,4,NC*%
%TO.N,unconnected-(D9-NC-Pad4)*%
X153225000Y-88150000D03*
%TO.P,D9,5,OUT*%
%TO.N,+5V*%
X155125001Y-88150000D03*
%TD*%
D16*
%TO.P,C23,1*%
%TO.N,/I2C + CANBUS/CAN1H*%
X133900000Y-92100000D03*
%TO.P,C23,2*%
%TO.N,GND*%
X132940000Y-92100000D03*
%TD*%
D58*
%TO.P,D8,1,G*%
%TO.N,Net-(D7-EN)*%
X149675000Y-86300000D03*
%TO.P,D8,2,S*%
%TO.N,GND*%
X149675000Y-88200000D03*
%TO.P,D8,3,D*%
%TO.N,Net-(D8-D)*%
X151675000Y-87250000D03*
%TD*%
D28*
%TO.P,C53,1*%
%TO.N,+3V3*%
X156165001Y-104750000D03*
%TO.P,C53,2*%
%TO.N,GND*%
X157125001Y-104750000D03*
%TD*%
D59*
%TO.P,J9,1,VBUS*%
%TO.N,/POWER + USB/5VBUS*%
X171085000Y-75230000D03*
%TO.P,J9,2,D-*%
%TO.N,USB_D-*%
X168585000Y-75230000D03*
%TO.P,J9,3,D+*%
%TO.N,USB_D+*%
X166585000Y-75230000D03*
%TO.P,J9,4,GND*%
%TO.N,GND*%
X164085000Y-75230000D03*
D60*
%TO.P,J9,SH1,SHIELD1*%
%TO.N,unconnected-(J9-SHIELD1-PadSH1)*%
X174155000Y-71650000D03*
%TO.P,J9,SH2,SHIELD2*%
%TO.N,unconnected-(J9-SHIELD2-PadSH2)*%
X161015000Y-71650000D03*
%TD*%
D39*
%TO.P,J11,1,Pin_1*%
%TO.N,+3V3*%
X125685000Y-101320000D03*
%TO.P,J11,2,Pin_2*%
%TO.N,GND*%
X125685000Y-103860000D03*
%TO.P,J11,3,Pin_3*%
%TO.N,/MCU + PAYLOAD/GPIO1*%
X125685000Y-106400000D03*
%TO.P,J11,4,Pin_4*%
%TO.N,/MCU + PAYLOAD/GPIO2*%
X125685000Y-108940000D03*
%TO.P,J11,5,Pin_5*%
%TO.N,/MCU + PAYLOAD/GPIO3*%
X125685000Y-111480000D03*
%TO.P,J11,6,Pin_6*%
%TO.N,/MCU + PAYLOAD/UART_TX*%
X125685000Y-114020000D03*
%TO.P,J11,7,Pin_7*%
%TO.N,/MCU + PAYLOAD/UART_RX*%
X125685000Y-116560000D03*
%TO.P,J11,8,Pin_8*%
%TO.N,MISO*%
X125685000Y-119100000D03*
%TO.P,J11,9,Pin_9*%
%TO.N,SCLK*%
X125685000Y-121640000D03*
%TO.P,J11,10,Pin_10*%
%TO.N,MOSI*%
X125685000Y-124180000D03*
%TD*%
D17*
%TO.P,D2,1,K*%
%TO.N,/I2C + CANBUS/CAN2H*%
X169050000Y-88975000D03*
%TO.P,D2,2,K*%
%TO.N,/I2C + CANBUS/CAN2L*%
X167150000Y-88975000D03*
%TO.P,D2,3,A*%
%TO.N,GND*%
X168100000Y-90975000D03*
%TD*%
D28*
%TO.P,C20,1*%
%TO.N,+3V3*%
X166750000Y-113850000D03*
%TO.P,C20,2*%
%TO.N,GND*%
X167710000Y-113850000D03*
%TD*%
%TO.P,C46,1*%
%TO.N,+3V3*%
X152797498Y-115852500D03*
%TO.P,C46,2*%
%TO.N,GND*%
X153757498Y-115852500D03*
%TD*%
D21*
%TO.P,C7,1*%
%TO.N,Net-(U2-DCOUPL)*%
X139500000Y-114910000D03*
%TO.P,C7,2*%
%TO.N,GND*%
X139500000Y-113950000D03*
%TD*%
D26*
%TO.P,R8,1*%
%TO.N,Net-(D7-EN)*%
X144575000Y-86700000D03*
%TO.P,R8,2*%
%TO.N,GND*%
X144575000Y-88350000D03*
%TD*%
D61*
%TO.P,S1,1,1*%
%TO.N,/MCU + PAYLOAD/NRST*%
X167125000Y-127725000D03*
%TO.P,S1,2,2*%
X162975000Y-127725000D03*
%TO.P,S1,3,3*%
%TO.N,GND*%
X167125000Y-125575000D03*
%TO.P,S1,4,4*%
X162975000Y-125575000D03*
%TD*%
D16*
%TO.P,C32,1*%
%TO.N,GND*%
X173295000Y-81125000D03*
%TO.P,C32,2*%
%TO.N,/POWER + USB/5VBUS*%
X172335000Y-81125000D03*
%TD*%
D17*
%TO.P,D5,1,K*%
%TO.N,USB_D-*%
X168535000Y-77900000D03*
%TO.P,D5,2,K*%
%TO.N,USB_D+*%
X166635000Y-77900000D03*
%TO.P,D5,3,A*%
%TO.N,GND*%
X167585000Y-79900000D03*
%TD*%
D39*
%TO.P,J12,1,Pin_1*%
%TO.N,+5V*%
X174885000Y-101320000D03*
%TO.P,J12,2,Pin_2*%
%TO.N,GND*%
X174885000Y-103860000D03*
%TO.P,J12,3,Pin_3*%
%TO.N,/MCU + PAYLOAD/GPIO4*%
X174885000Y-106400000D03*
%TO.P,J12,4,Pin_4*%
%TO.N,/MCU + PAYLOAD/GPIO5*%
X174885000Y-108940000D03*
%TO.P,J12,5,Pin_5*%
%TO.N,/MCU + PAYLOAD/GPIO6*%
X174885000Y-111480000D03*
%TO.P,J12,6,Pin_6*%
%TO.N,/MCU + PAYLOAD/GPIO7*%
X174885000Y-114020000D03*
%TO.P,J12,7,Pin_7*%
%TO.N,/MCU + PAYLOAD/GPIO8*%
X174885000Y-116560000D03*
%TO.P,J12,8,Pin_8*%
%TO.N,/MCU + PAYLOAD/GPIO9*%
X174885000Y-119100000D03*
%TO.P,J12,9,Pin_9*%
%TO.N,SCL*%
X174885000Y-121640000D03*
%TO.P,J12,10,Pin_10*%
%TO.N,SDA*%
X174885000Y-124180000D03*
%TD*%
D28*
%TO.P,C39,1*%
%TO.N,GND*%
X147165000Y-89800000D03*
%TO.P,C39,2*%
%TO.N,+5V*%
X148125000Y-89800000D03*
%TD*%
D21*
%TO.P,C4,1*%
%TO.N,+3V3*%
X145625000Y-118042400D03*
%TO.P,C4,2*%
%TO.N,GND*%
X145625000Y-117082400D03*
%TD*%
D28*
%TO.P,C42,1*%
%TO.N,GND*%
X145115000Y-92300000D03*
%TO.P,C42,2*%
%TO.N,Net-(U9-NR{slash}FB)*%
X146075000Y-92300000D03*
%TD*%
D54*
%TO.P,R1,1*%
%TO.N,Net-(U2-RBIAS)*%
X146037400Y-119692400D03*
%TO.P,R1,2*%
%TO.N,GND*%
X147687400Y-119692400D03*
%TD*%
D16*
%TO.P,C50,1*%
%TO.N,/MCU + PAYLOAD/NRST*%
X144760000Y-108900000D03*
%TO.P,C50,2*%
%TO.N,GND*%
X143800000Y-108900000D03*
%TD*%
D24*
%TO.P,C15,1*%
%TO.N,Net-(C11-Pad2)*%
X140587400Y-124882400D03*
%TO.P,C15,2*%
%TO.N,Net-(C15-Pad2)*%
X140587400Y-125842400D03*
%TD*%
D26*
%TO.P,R3,1*%
%TO.N,Net-(J3-Pin_1)*%
X168430000Y-96425000D03*
%TO.P,R3,2*%
%TO.N,/I2C + CANBUS/CAN2H*%
X168430000Y-98075000D03*
%TD*%
D28*
%TO.P,C47,1*%
%TO.N,+3V3*%
X152797498Y-114802500D03*
%TO.P,C47,2*%
%TO.N,GND*%
X153757498Y-114802500D03*
%TD*%
D24*
%TO.P,C12,1*%
%TO.N,Net-(U2-RF_N)*%
X141687400Y-121782400D03*
%TO.P,C12,2*%
%TO.N,Net-(C12-Pad2)*%
X141687400Y-122742400D03*
%TD*%
D21*
%TO.P,C33,1*%
%TO.N,Net-(U8-CB)*%
X141000000Y-77160000D03*
%TO.P,C33,2*%
%TO.N,Net-(D6-K)*%
X141000000Y-76200000D03*
%TD*%
D62*
%TO.N,GND*%
X176400000Y-83300000D03*
X133350000Y-90895000D03*
X141125000Y-128575000D03*
X144100000Y-123150000D03*
X144900001Y-103899999D03*
X161710049Y-75789784D03*
X167205000Y-90955000D03*
X146750000Y-84450000D03*
X150625000Y-88200000D03*
X163000000Y-126450000D03*
X161710049Y-74789784D03*
X145235000Y-77600000D03*
X153025000Y-83950000D03*
X158100000Y-102800000D03*
X162350000Y-121700000D03*
X161580000Y-100925000D03*
X153800000Y-127400000D03*
X144575000Y-89250000D03*
X142900000Y-108976999D03*
X156300000Y-127400000D03*
X139800001Y-108499999D03*
X144200000Y-117050000D03*
X146235000Y-77600000D03*
X169030000Y-90930000D03*
X155465001Y-114450000D03*
X145235000Y-76600000D03*
X143437400Y-123992400D03*
X154700000Y-114800000D03*
X153583412Y-111603300D03*
X168550000Y-113850000D03*
X148650000Y-119700000D03*
X156875000Y-89800000D03*
X155450000Y-122050000D03*
X169650000Y-115050000D03*
X136100000Y-108350000D03*
X148825000Y-99900000D03*
X152050000Y-122000000D03*
X165500000Y-115800000D03*
X164300000Y-116850000D03*
X132385000Y-70600000D03*
X167025000Y-116325000D03*
X137200000Y-106900000D03*
X144850000Y-119600000D03*
X135485000Y-64200000D03*
X146490000Y-117092400D03*
X146235000Y-76600000D03*
X164975000Y-125025000D03*
X144325000Y-92300000D03*
X167770000Y-121950000D03*
X143400001Y-107449999D03*
X157950000Y-96900000D03*
X174085000Y-82725000D03*
X146450000Y-97900000D03*
X136326079Y-110723922D03*
X138775000Y-122875000D03*
X136040000Y-111500000D03*
X162800000Y-105400000D03*
X132750000Y-117500000D03*
X131850000Y-109100002D03*
X132385000Y-71600000D03*
X154700000Y-115800000D03*
X140612400Y-113167400D03*
X151750000Y-116600000D03*
X135485000Y-63200000D03*
X143187400Y-123092400D03*
X131450000Y-90895000D03*
X175300000Y-77350000D03*
X156500000Y-106150000D03*
X167770000Y-123000000D03*
X145925000Y-84100000D03*
X176300000Y-77350000D03*
X136037400Y-118042400D03*
X163850000Y-123023000D03*
X147300000Y-101600000D03*
X140600000Y-104900000D03*
X168105000Y-90005000D03*
X167770000Y-120900000D03*
X145725000Y-93500000D03*
X164500000Y-114700000D03*
X136337400Y-119692400D03*
X148400000Y-105300000D03*
X157810000Y-105380000D03*
X167150000Y-126450000D03*
X150025000Y-95250000D03*
X150825000Y-99900000D03*
X132400000Y-89970000D03*
X142950000Y-99500000D03*
X163770000Y-121450000D03*
X163400000Y-120000000D03*
X154175000Y-86850000D03*
X152500000Y-127400000D03*
X151025000Y-94250000D03*
X147150000Y-90650000D03*
X134281644Y-109427000D03*
X150700000Y-116600000D03*
X162710049Y-74789784D03*
X151025000Y-95250000D03*
X174100000Y-81130000D03*
X168500000Y-79900000D03*
X138787400Y-123792400D03*
X150025000Y-94250000D03*
X166500000Y-111900000D03*
X136362400Y-122317400D03*
X138200000Y-129190000D03*
X139500000Y-113160000D03*
X138925000Y-102150000D03*
X162710049Y-75789784D03*
X151373000Y-111550000D03*
X133787400Y-121692400D03*
X143650000Y-104850000D03*
X151725000Y-88700000D03*
%TO.N,/POWER + USB/5VBUS_FILT*%
X155125000Y-83150000D03*
X168935000Y-83900000D03*
X156125000Y-84150000D03*
X155125000Y-84150000D03*
X169935000Y-82900000D03*
X169935000Y-83900000D03*
X168935000Y-82900000D03*
X156125000Y-83150000D03*
%TO.N,/POWER + USB/5VDCDC*%
X149125000Y-84150000D03*
X149125000Y-83150000D03*
X147285000Y-80300000D03*
X148125000Y-83150000D03*
X136885000Y-81850000D03*
X135885000Y-81850000D03*
X136885000Y-82850000D03*
X148125000Y-84150000D03*
X135885000Y-82850000D03*
%TO.N,+5V*%
X154625000Y-91650000D03*
X153625000Y-91650000D03*
X154625000Y-92650000D03*
X153625000Y-92650000D03*
%TO.N,+3V3*%
X143037400Y-120342400D03*
X156350000Y-103653356D03*
X165230000Y-104170000D03*
X161580000Y-102225000D03*
X161050000Y-105100000D03*
X138087400Y-118867400D03*
X158000000Y-120450000D03*
X155265001Y-105000000D03*
X148325000Y-95250000D03*
X167800000Y-111900000D03*
X166150000Y-114450000D03*
X140613714Y-115709905D03*
X151750000Y-114000000D03*
X148325000Y-96250000D03*
X131850000Y-110050002D03*
X147325000Y-96250000D03*
X152600000Y-113950000D03*
X144687400Y-118042400D03*
X139587400Y-120342400D03*
X143837400Y-120342400D03*
X147325000Y-95250000D03*
X164975000Y-117375000D03*
X166950000Y-115050000D03*
X165220000Y-121050000D03*
X146750000Y-104950000D03*
X147325000Y-94250000D03*
X147565001Y-104200000D03*
X165220000Y-121950000D03*
X154465001Y-112700000D03*
X148325000Y-94250000D03*
X138925000Y-100900000D03*
X149450000Y-125150000D03*
X162520000Y-120200000D03*
X136300000Y-109200000D03*
X161050000Y-111650000D03*
%TO.N,/MCU + PAYLOAD/NRST*%
X148800000Y-108699999D03*
X155450000Y-123050000D03*
%TO.N,/MCU + PAYLOAD/SWDIO*%
X152950000Y-110150000D03*
X154000000Y-117300000D03*
%TO.N,/MCU + PAYLOAD/SWCLK*%
X152000000Y-108375000D03*
X153250000Y-121800000D03*
%TO.N,/MCU + PAYLOAD/SWO*%
X152500000Y-119850000D03*
X150750000Y-109600000D03*
%TO.N,SCLK*%
X133950000Y-112650000D03*
X142850000Y-115600000D03*
%TO.N,/MCU + PAYLOAD/GPIO3*%
X144650000Y-105800000D03*
%TO.N,/MCU + PAYLOAD/GPIO1*%
X149800000Y-101350000D03*
%TO.N,/MCU + PAYLOAD/GPIO2*%
X145550000Y-105725000D03*
%TO.N,MISO*%
X133550000Y-111000000D03*
X142300000Y-114850000D03*
%TO.N,MOSI*%
X132700000Y-112525000D03*
X143500000Y-116350000D03*
%TO.N,/MCU + PAYLOAD/GPIO6*%
X154000000Y-108046698D03*
%TO.N,/MCU + PAYLOAD/GPIO4*%
X152300000Y-102650000D03*
%TO.N,SDA*%
X160950000Y-120500000D03*
X163800000Y-115400000D03*
%TO.N,/MCU + PAYLOAD/GPIO7*%
X159550000Y-109800000D03*
%TO.N,/MCU + PAYLOAD/GPIO5*%
X153800000Y-102950000D03*
%TO.N,SCL*%
X162050000Y-122550000D03*
X165250000Y-114350000D03*
%TO.N,/MCU + PAYLOAD/GPIO9*%
X156400000Y-112050000D03*
%TO.N,/MCU + PAYLOAD/GPIO8*%
X154050000Y-110700000D03*
%TO.N,ACCEL_INT*%
X134700000Y-107600000D03*
X144891324Y-106939145D03*
%TO.N,ACCEL_~{CS}*%
X143550000Y-111650000D03*
X133550000Y-108800000D03*
%TO.N,GYRO_INT*%
X147925000Y-109975000D03*
X133750000Y-110150000D03*
%TO.N,CC2500_GDO0*%
X144700000Y-113225000D03*
X149400000Y-111527000D03*
%TO.N,CC2500_~{CS}*%
X148550000Y-110900000D03*
X145600000Y-112400000D03*
%TO.N,CC2500_GDO2*%
X143850000Y-114100000D03*
X149300000Y-114480856D03*
%TO.N,CAN1_TX*%
X144900000Y-102800000D03*
X148700000Y-102800000D03*
%TO.N,CAN2_TX*%
X158000000Y-100750000D03*
X161345000Y-99675000D03*
%TO.N,CAN2_RX*%
X157400000Y-101800000D03*
X161345000Y-103475000D03*
%TD*%
D63*
%TO.N,GND*%
X163550000Y-122723000D02*
X163550000Y-122200002D01*
X164712001Y-115312001D02*
X164500000Y-115100000D01*
D64*
X160830000Y-100925000D02*
X161680000Y-100925000D01*
X151750000Y-115810000D02*
X151750000Y-116600000D01*
D63*
X135912400Y-118042400D02*
X136037400Y-118042400D01*
X133787400Y-120567400D02*
X133787400Y-121692400D01*
X133345000Y-90900000D02*
X132400000Y-90900000D01*
D64*
X140612400Y-113957400D02*
X140612400Y-113167400D01*
D63*
X142550002Y-107250000D02*
X142800001Y-107499999D01*
D65*
X153250001Y-111936711D02*
X153583412Y-111603300D01*
D66*
X144512400Y-119362400D02*
X144750000Y-119600000D01*
D64*
X147174999Y-84874999D02*
X147174999Y-85650000D01*
X139347600Y-122302400D02*
X139452400Y-122302400D01*
X142837400Y-122302400D02*
X142837400Y-122742400D01*
D63*
X135840001Y-111300001D02*
X136040000Y-111500000D01*
X136357400Y-121527400D02*
X136357400Y-122312400D01*
D66*
X143815000Y-117862400D02*
X143167400Y-117862400D01*
D64*
X139775000Y-102150000D02*
X138925000Y-102150000D01*
X136327400Y-119682400D02*
X136337400Y-119692400D01*
D63*
X135200000Y-111300001D02*
X135840001Y-111300001D01*
X164738000Y-116311999D02*
X164738000Y-116412000D01*
X168650000Y-92175000D02*
X168650000Y-91525000D01*
X135200000Y-108800000D02*
X135650000Y-108800000D01*
X136357400Y-122312400D02*
X136362400Y-122317400D01*
D64*
X174085000Y-82725000D02*
X173295000Y-82725000D01*
X138905000Y-102170000D02*
X138925000Y-102150000D01*
X131840000Y-109090002D02*
X131850000Y-109100002D01*
D63*
X167225000Y-90975000D02*
X167205000Y-90955000D01*
X143650001Y-104850001D02*
X143650001Y-105649999D01*
D64*
X166500000Y-110700000D02*
X166500000Y-111900000D01*
D63*
X141125000Y-127785000D02*
X141125000Y-128575000D01*
X135200000Y-110800001D02*
X136250000Y-110800001D01*
X162975000Y-126425000D02*
X163000000Y-126450000D01*
D64*
X152500000Y-129150002D02*
X152500000Y-127400000D01*
X142837400Y-122742400D02*
X143187400Y-123092400D01*
D63*
X132757600Y-117492400D02*
X132750000Y-117500000D01*
D64*
X153757498Y-114802500D02*
X154697500Y-114802500D01*
D63*
X163850000Y-123023000D02*
X163550000Y-122723000D01*
X168105000Y-90020000D02*
X168105000Y-90005000D01*
D65*
X148400000Y-105300000D02*
X148749999Y-104950001D01*
D64*
X166980000Y-121950000D02*
X167770000Y-121950000D01*
X144100000Y-122515000D02*
X143887400Y-122302400D01*
D63*
X162350001Y-121700001D02*
X163040000Y-121700001D01*
X142950000Y-98500000D02*
X142950000Y-99500000D01*
D64*
X166500000Y-111900000D02*
X166500000Y-112460000D01*
D63*
X168100000Y-90975000D02*
X167230000Y-90975000D01*
X165512000Y-115812000D02*
X165500000Y-115800000D01*
D65*
X153250001Y-112699998D02*
X153250001Y-111936711D01*
D63*
X133350000Y-90895000D02*
X133345000Y-90900000D01*
D64*
X162800000Y-105400000D02*
X163960000Y-105400000D01*
D66*
X143167400Y-119362400D02*
X144512400Y-119362400D01*
D64*
X157810000Y-105380000D02*
X157180000Y-104750000D01*
X131000000Y-109090002D02*
X131840000Y-109090002D01*
D63*
X135087400Y-118867400D02*
X135912400Y-118042400D01*
X132940000Y-92100000D02*
X132940000Y-91440000D01*
X138200000Y-128400000D02*
X138200000Y-129190000D01*
D64*
X147150000Y-90650000D02*
X147165000Y-90635000D01*
D63*
X168100000Y-90025000D02*
X168100000Y-90975000D01*
D64*
X160830000Y-100925000D02*
X160680000Y-101075000D01*
X144905001Y-104750000D02*
X144905001Y-103904999D01*
D66*
X144200000Y-117477400D02*
X143815000Y-117862400D01*
D63*
X132400000Y-90000000D02*
X132400000Y-89970000D01*
X131450000Y-90895000D02*
X131445000Y-90900000D01*
D64*
X154697500Y-114802500D02*
X154700000Y-114800000D01*
D63*
X164975000Y-124065000D02*
X164970000Y-124060000D01*
X167011999Y-116311999D02*
X166262000Y-116311999D01*
X164738000Y-116412000D02*
X164300000Y-116850000D01*
X167125000Y-126425000D02*
X167150000Y-126450000D01*
D64*
X156310000Y-127410000D02*
X156300000Y-127400000D01*
D63*
X162350000Y-121700000D02*
X162350001Y-121700001D01*
X168100000Y-90025000D02*
X168105000Y-90020000D01*
D64*
X174095000Y-81125000D02*
X173295000Y-81125000D01*
D63*
X169030000Y-90930000D02*
X168985000Y-90975000D01*
X140605001Y-108499999D02*
X139800001Y-108499999D01*
D64*
X156085001Y-89800000D02*
X156875000Y-89800000D01*
D63*
X132940000Y-91440000D02*
X132400000Y-90900000D01*
X167570000Y-91505000D02*
X168100000Y-90975000D01*
X140600000Y-104900000D02*
X140600001Y-104900001D01*
D64*
X175635000Y-84065000D02*
X176400000Y-83300000D01*
X146480000Y-117082400D02*
X146490000Y-117092400D01*
X167585000Y-79900000D02*
X168500000Y-79900000D01*
X146750000Y-84450000D02*
X147174999Y-84874999D01*
D63*
X146015000Y-83160000D02*
X146015000Y-83150000D01*
D66*
X143167400Y-119362400D02*
X142387400Y-119362400D01*
D64*
X152050000Y-121000000D02*
X152050000Y-122000000D01*
D66*
X144750000Y-119600000D02*
X144850000Y-119600000D01*
D65*
X148749999Y-104950001D02*
X148749999Y-104200000D01*
D63*
X164712001Y-115312001D02*
X164600000Y-115200000D01*
D64*
X154647500Y-115852500D02*
X154700000Y-115800000D01*
X153025000Y-83150000D02*
X153025000Y-83950000D01*
D63*
X131860000Y-92100000D02*
X131860000Y-91440000D01*
X166262000Y-115812000D02*
X165512000Y-115812000D01*
X131430000Y-90900000D02*
X132400000Y-90900000D01*
X163550000Y-120700000D02*
X163550000Y-120150000D01*
X135650000Y-108800000D02*
X136100000Y-108350000D01*
D64*
X156310000Y-129150002D02*
X156310000Y-127410000D01*
D63*
X168985000Y-90975000D02*
X168100000Y-90975000D01*
D64*
X139925000Y-102000000D02*
X139775000Y-102150000D01*
X153757498Y-115852500D02*
X154647500Y-115852500D01*
X137500000Y-102170000D02*
X138905000Y-102170000D01*
X144100000Y-123150000D02*
X144100000Y-122515000D01*
X158110001Y-102810001D02*
X158110001Y-103649999D01*
D63*
X146450000Y-98850000D02*
X146450000Y-97900000D01*
D66*
X142462200Y-117862400D02*
X142174800Y-117575000D01*
D63*
X162975000Y-125575000D02*
X162975000Y-126425000D01*
X163550000Y-120150000D02*
X163400000Y-120000000D01*
X132400000Y-90900000D02*
X132400000Y-90000000D01*
X134654645Y-109800001D02*
X135200000Y-109800001D01*
X136250000Y-110800001D02*
X136326079Y-110723922D01*
D64*
X145925000Y-84100000D02*
X145925000Y-83250000D01*
X150700000Y-115810000D02*
X150700000Y-116600000D01*
D63*
X167025000Y-116325000D02*
X167011999Y-116311999D01*
X142847400Y-123992400D02*
X143437400Y-123992400D01*
D64*
X167710000Y-113850000D02*
X168550000Y-113850000D01*
X138775000Y-122875000D02*
X139347600Y-122302400D01*
D63*
X145925000Y-83250000D02*
X146015000Y-83160000D01*
D64*
X144905001Y-103904999D02*
X144900001Y-103899999D01*
X147300000Y-101600000D02*
X147300000Y-102349997D01*
D65*
X151250000Y-112699998D02*
X151250000Y-111673000D01*
D63*
X142976999Y-108900000D02*
X143800000Y-108900000D01*
D65*
X156450002Y-106199998D02*
X155249999Y-106199998D01*
D63*
X148642400Y-119692400D02*
X148650000Y-119700000D01*
X167230000Y-90975000D02*
X167225000Y-90975000D01*
X134281644Y-109427000D02*
X134654645Y-109800001D01*
X164050000Y-122200002D02*
X164050000Y-121730000D01*
D64*
X166500000Y-112460000D02*
X166740000Y-112700000D01*
D63*
X143650000Y-104850000D02*
X143650001Y-104850001D01*
X142750001Y-107449999D02*
X143400001Y-107449999D01*
X142647400Y-123792400D02*
X142847400Y-123992400D01*
D66*
X143167400Y-117862400D02*
X142462200Y-117862400D01*
D64*
X157180000Y-104750000D02*
X157125001Y-104750000D01*
X166980000Y-120900000D02*
X167770000Y-120900000D01*
D63*
X164975000Y-125025000D02*
X164975000Y-124065000D01*
D64*
X163030000Y-100935000D02*
X161690000Y-100935000D01*
X137200000Y-107690000D02*
X137200000Y-106900000D01*
X158100000Y-102800000D02*
X158110001Y-102810001D01*
X147165000Y-90635000D02*
X147165000Y-89800000D01*
X149675000Y-88200000D02*
X150625000Y-88200000D01*
D63*
X131445000Y-90900000D02*
X131430000Y-90900000D01*
X142550002Y-107250000D02*
X142750001Y-107449999D01*
D64*
X147300000Y-102349997D02*
X147300001Y-102349998D01*
X145625000Y-117082400D02*
X146480000Y-117082400D01*
X166980000Y-123000000D02*
X167770000Y-123000000D01*
D63*
X142300001Y-107250000D02*
X142550002Y-107250000D01*
D65*
X156500000Y-106150000D02*
X156450002Y-106199998D01*
D63*
X140600001Y-104900001D02*
X140600001Y-105950000D01*
X147687400Y-119692400D02*
X148642400Y-119692400D01*
X144575000Y-88350000D02*
X144575000Y-89250000D01*
X142900000Y-108976999D02*
X142976999Y-108900000D01*
D65*
X151250000Y-111673000D02*
X151373000Y-111550000D01*
D64*
X155450000Y-121000000D02*
X155450000Y-122050000D01*
D63*
X164050000Y-121730000D02*
X163770000Y-121450000D01*
X139617400Y-123792400D02*
X138787400Y-123792400D01*
D64*
X145725000Y-94290000D02*
X145725000Y-93500000D01*
D66*
X144200000Y-117050000D02*
X144200000Y-117477400D01*
D63*
X145115000Y-92300000D02*
X144325000Y-92300000D01*
D64*
X151725000Y-89490000D02*
X151725000Y-88700000D01*
D63*
X164738000Y-115312001D02*
X164712001Y-115312001D01*
D64*
X161690000Y-100935000D02*
X161680000Y-100925000D01*
X160630000Y-101075000D02*
X160680000Y-101075000D01*
X153770000Y-129150002D02*
X153770000Y-127430000D01*
D63*
X131860000Y-91440000D02*
X132400000Y-90900000D01*
X157950000Y-95875000D02*
X157950000Y-96900000D01*
X164500000Y-115100000D02*
X164500000Y-114700000D01*
D64*
X153770000Y-127430000D02*
X153800000Y-127400000D01*
D63*
X167125000Y-125575000D02*
X167125000Y-126425000D01*
D66*
X142387400Y-119362400D02*
X142174800Y-119149800D01*
D64*
X168810000Y-115050000D02*
X169650000Y-115050000D01*
X174100000Y-81130000D02*
X174095000Y-81125000D01*
D63*
X133550000Y-117492400D02*
X132757600Y-117492400D01*
X167570000Y-92175000D02*
X167570000Y-91505000D01*
D64*
X155465001Y-113660000D02*
X155465001Y-114450000D01*
X175635000Y-84100000D02*
X175635000Y-84065000D01*
X136327400Y-118867400D02*
X136327400Y-119682400D01*
D63*
X168650000Y-91525000D02*
X168100000Y-90975000D01*
D64*
X154175000Y-85650000D02*
X154175000Y-86850000D01*
D63*
X139500000Y-113950000D02*
X139500000Y-113160000D01*
%TO.N,Net-(U2-XOSC_Q1)*%
X134510000Y-117492400D02*
X134510000Y-117640000D01*
X134510000Y-117640000D02*
X134150000Y-118000000D01*
X134150000Y-118000000D02*
X134150000Y-118504800D01*
X138687400Y-118362400D02*
X137740400Y-117415400D01*
X139607400Y-118362400D02*
X138687400Y-118362400D01*
X134150000Y-118504800D02*
X133787400Y-118867400D01*
X137740400Y-117415400D02*
X134587000Y-117415400D01*
X134587000Y-117415400D02*
X134510000Y-117492400D01*
%TO.N,Net-(U2-XOSC_Q2)*%
X135087400Y-120567400D02*
X136357400Y-120567400D01*
X139217400Y-119362400D02*
X139607400Y-119362400D01*
X138012400Y-120567400D02*
X139217400Y-119362400D01*
X136357400Y-120567400D02*
X138012400Y-120567400D01*
%TO.N,Net-(U2-DCOUPL)*%
X140387399Y-116582400D02*
X140387399Y-116487399D01*
X140387399Y-116487399D02*
X139500000Y-115600000D01*
X139500000Y-115600000D02*
X139500000Y-114910000D01*
%TO.N,/I2C + CANBUS/CAN1H*%
X133350000Y-88900000D02*
X133350000Y-89620000D01*
X133350000Y-89620000D02*
X134000000Y-90270000D01*
X132630000Y-102170000D02*
X134900000Y-99900000D01*
X132050000Y-87450000D02*
X128510000Y-87450000D01*
X134600000Y-92800000D02*
X135280000Y-92800000D01*
X128060000Y-87450000D02*
X128510000Y-87450000D01*
X126810000Y-93000000D02*
X126810000Y-88700000D01*
X133350000Y-88900000D02*
X133350000Y-88750000D01*
X126810000Y-88700000D02*
X128060000Y-87450000D01*
X132100000Y-102170000D02*
X132630000Y-102170000D01*
X133350000Y-88750000D02*
X132050000Y-87450000D01*
X128510000Y-94200000D02*
X128010000Y-94200000D01*
X128010000Y-94200000D02*
X126810000Y-93000000D01*
X134000000Y-92000000D02*
X133900000Y-92100000D01*
X136840000Y-96960000D02*
X136840000Y-96900000D01*
X135280000Y-92800000D02*
X136840000Y-94360000D01*
X134000000Y-90270000D02*
X134000000Y-92000000D01*
X136840000Y-94360000D02*
X136840000Y-96900000D01*
X128960000Y-87000000D02*
X128510000Y-87450000D01*
X134900000Y-99900000D02*
X134900000Y-98900000D01*
X133900000Y-92100000D02*
X134600000Y-92800000D01*
X133350000Y-88900000D02*
X133350000Y-88719400D01*
X134900000Y-98900000D02*
X136840000Y-96960000D01*
%TO.N,/I2C + CANBUS/CAN2H*%
X171050000Y-88750000D02*
X169275000Y-88750000D01*
X169610000Y-92395000D02*
X168580000Y-93425000D01*
X168580000Y-93425000D02*
X169510000Y-94355000D01*
X172485000Y-96250000D02*
X172085000Y-96250000D01*
X169050000Y-88975000D02*
X169050000Y-89625000D01*
X170385000Y-95000000D02*
X170385000Y-93200000D01*
X168580000Y-93425000D02*
X168430000Y-93425000D01*
X169510000Y-94355000D02*
X169510000Y-97095000D01*
X169510000Y-97095000D02*
X168530000Y-98075000D01*
X171635000Y-96250000D02*
X170385000Y-95000000D01*
X169275000Y-88750000D02*
X169050000Y-88975000D01*
X172085000Y-96250000D02*
X171585000Y-96750000D01*
X169730000Y-92055000D02*
X169610000Y-92175000D01*
X169730000Y-90305000D02*
X169730000Y-92055000D01*
X169800000Y-100205000D02*
X169070000Y-100935000D01*
X168430000Y-98075000D02*
X168680000Y-98075000D01*
X169610000Y-92175000D02*
X169610000Y-92395000D01*
X169800000Y-99195000D02*
X169800000Y-100205000D01*
X169070000Y-100935000D02*
X168430000Y-100935000D01*
X172085000Y-96250000D02*
X171635000Y-96250000D01*
X172085000Y-91500000D02*
X172085000Y-89500000D01*
X170385000Y-93200000D02*
X172085000Y-91500000D01*
X169050000Y-89625000D02*
X169730000Y-90305000D01*
X172085000Y-89500000D02*
X171800000Y-89500000D01*
X171800000Y-89500000D02*
X171050000Y-88750000D01*
X171685000Y-89100000D02*
X172085000Y-89500000D01*
X168680000Y-98075000D02*
X169800000Y-99195000D01*
X168530000Y-98075000D02*
X168430000Y-98075000D01*
%TO.N,Net-(U7-C1)*%
X164550001Y-122680001D02*
X164970000Y-123100000D01*
X164550001Y-122200002D02*
X164550001Y-122680001D01*
%TO.N,/I2C + CANBUS/CAN1L*%
X130900000Y-92200000D02*
X132100000Y-93400000D01*
X131100000Y-94400000D02*
X131100000Y-97050000D01*
X130900000Y-92100000D02*
X130900000Y-92200000D01*
X128950000Y-89450000D02*
X129700000Y-88700000D01*
X131450000Y-89620000D02*
X130800000Y-90270000D01*
X130210000Y-93000000D02*
X128510000Y-91300000D01*
X131250000Y-88700000D02*
X131450000Y-88900000D01*
X131895000Y-98050000D02*
X130770000Y-99175000D01*
X128980000Y-96200000D02*
X130210000Y-94970000D01*
X129700000Y-88700000D02*
X131250000Y-88700000D01*
X128510000Y-89450000D02*
X128950000Y-89450000D01*
X128510000Y-91300000D02*
X128510000Y-89450000D01*
X130210000Y-94970000D02*
X130210000Y-93000000D01*
X130770000Y-99175000D02*
X130770000Y-100170000D01*
X130800000Y-90270000D02*
X130800000Y-92000000D01*
X130800000Y-92000000D02*
X130900000Y-92100000D01*
X132100000Y-93400000D02*
X131100000Y-94400000D01*
X131100000Y-97050000D02*
X132100000Y-98050000D01*
X131500000Y-100900000D02*
X132100000Y-100900000D01*
X132100000Y-98050000D02*
X131895000Y-98050000D01*
X130770000Y-100170000D02*
X131500000Y-100900000D01*
X128510000Y-96200000D02*
X128980000Y-96200000D01*
X131450000Y-88900000D02*
X131450000Y-89620000D01*
%TO.N,/I2C + CANBUS/CAN2L*%
X166530000Y-90290000D02*
X166530000Y-92095000D01*
X167150000Y-88975000D02*
X167150000Y-88755000D01*
X166530000Y-92095000D02*
X166610000Y-92175000D01*
X173785000Y-92900000D02*
X173785000Y-88700000D01*
X173785000Y-88700000D02*
X172585000Y-87500000D01*
X167150000Y-88975000D02*
X167150000Y-88800000D01*
X167860000Y-102205000D02*
X168430000Y-102205000D01*
X167150000Y-89670000D02*
X166530000Y-90290000D01*
X167150000Y-88975000D02*
X167150000Y-89670000D01*
X165790000Y-99335000D02*
X165790000Y-100135000D01*
X172085000Y-94250000D02*
X171785000Y-94250000D01*
X172585000Y-87500000D02*
X172085000Y-87500000D01*
X163730000Y-94535000D02*
X163730000Y-97075000D01*
X168450000Y-87500000D02*
X172085000Y-87500000D01*
X163730000Y-97275000D02*
X165790000Y-99335000D01*
X166610000Y-92175000D02*
X166610000Y-92225000D01*
X163730000Y-97075000D02*
X163730000Y-97275000D01*
X166610000Y-92195000D02*
X165930000Y-92875000D01*
X172435000Y-94250000D02*
X173785000Y-92900000D01*
X166610000Y-92175000D02*
X166610000Y-92195000D01*
X172085000Y-94250000D02*
X172435000Y-94250000D01*
X165390000Y-92875000D02*
X163730000Y-94535000D01*
X167150000Y-88800000D02*
X168450000Y-87500000D01*
X165790000Y-100135000D02*
X167860000Y-102205000D01*
X171985000Y-87400000D02*
X172085000Y-87500000D01*
X165930000Y-92875000D02*
X165390000Y-92875000D01*
D67*
%TO.N,+BATT*%
X142473200Y-67700000D02*
X145285000Y-70511800D01*
X133885000Y-67700000D02*
X127875000Y-67700000D01*
D68*
X143755000Y-73100000D02*
X143755000Y-74900000D01*
D67*
X142473200Y-67700000D02*
X133885000Y-67700000D01*
X127875000Y-67700000D02*
X127675000Y-67900000D01*
D69*
X145285000Y-70600000D02*
X145285000Y-70511800D01*
D64*
%TO.N,Net-(U8-CB)*%
X142485000Y-80100000D02*
X142485000Y-80300000D01*
X141000000Y-78615000D02*
X142485000Y-80100000D01*
X141000000Y-77160000D02*
X141000000Y-78615000D01*
D63*
%TO.N,/POWER + USB/5VBUS_FILT*%
X152425000Y-82400000D02*
X153375000Y-82400000D01*
X151625000Y-83200000D02*
X152425000Y-82400000D01*
X151575000Y-83200000D02*
X151625000Y-83200000D01*
X153985000Y-83010000D02*
X153985000Y-83150000D01*
X153375000Y-82400000D02*
X153985000Y-83010000D01*
D64*
%TO.N,Net-(C35-Pad1)*%
X172635000Y-84100000D02*
X173985000Y-84100000D01*
D63*
%TO.N,/POWER + USB/5VDCDC*%
X146375000Y-82400000D02*
X146975000Y-83000000D01*
X146975000Y-83000000D02*
X146975000Y-83150000D01*
D64*
X146295000Y-80300000D02*
X147285000Y-80300000D01*
D63*
X144575000Y-83050000D02*
X145225000Y-82400000D01*
X144575000Y-83700000D02*
X144575000Y-83050000D01*
X145225000Y-82400000D02*
X146375000Y-82400000D01*
%TO.N,+5V*%
X156485000Y-92650000D02*
X154625000Y-92650000D01*
%TO.N,Net-(U9-NR{slash}FB)*%
X146075000Y-92300000D02*
X147285000Y-92300000D01*
D65*
%TO.N,+3V3*%
X155249999Y-105015002D02*
X155265001Y-105000000D01*
D63*
X165069999Y-121200001D02*
X165220000Y-121050000D01*
D64*
X156165001Y-104750000D02*
X155515001Y-104750000D01*
D63*
X135200000Y-109300002D02*
X136199998Y-109300002D01*
D64*
X152797498Y-114147498D02*
X152797498Y-114802500D01*
X140287399Y-120242400D02*
X140293400Y-120236399D01*
D63*
X158000000Y-121350000D02*
X158000000Y-120450000D01*
D66*
X139607400Y-118862399D02*
X138092401Y-118862399D01*
D64*
X139785000Y-100900000D02*
X138925000Y-100900000D01*
D63*
X164560000Y-121200001D02*
X165069999Y-121200001D01*
D64*
X166150000Y-114450000D02*
X166750000Y-113850000D01*
D66*
X144687400Y-118042400D02*
X144367400Y-118362400D01*
D64*
X139587400Y-120342400D02*
X139687400Y-120242400D01*
X146550000Y-104750000D02*
X145865001Y-104750000D01*
X150350002Y-129150002D02*
X151230000Y-129150002D01*
X167770000Y-110700000D02*
X167770000Y-111870000D01*
X151750000Y-114850000D02*
X151750000Y-114000000D01*
X140612400Y-114917400D02*
X140612400Y-115708591D01*
D63*
X136199998Y-109300002D02*
X136300000Y-109200000D01*
X164975000Y-117375000D02*
X165250000Y-117100000D01*
D64*
X152797498Y-115852500D02*
X152797498Y-114802500D01*
X165230000Y-104170000D02*
X165230000Y-105400000D01*
D65*
X152600000Y-113950000D02*
X152250000Y-113600000D01*
D63*
X166550000Y-115050000D02*
X166950000Y-115050000D01*
D64*
X157146644Y-103653356D02*
X157150001Y-103649999D01*
X155515001Y-104750000D02*
X155265001Y-105000000D01*
X140612400Y-115708591D02*
X140613714Y-115709905D01*
X166020000Y-120900000D02*
X165370000Y-120900000D01*
X152600000Y-113950000D02*
X152797498Y-114147498D01*
X160630000Y-102035000D02*
X160640000Y-102035000D01*
X167800000Y-112600000D02*
X167700000Y-112700000D01*
X147300001Y-103309998D02*
X147300001Y-103935000D01*
D65*
X155249999Y-105699999D02*
X155249999Y-105015002D01*
D63*
X161050000Y-110650000D02*
X161050000Y-111650000D01*
D64*
X167800000Y-111900000D02*
X167800000Y-112600000D01*
X167770000Y-111870000D02*
X167800000Y-111900000D01*
X150700000Y-114850000D02*
X151750000Y-114850000D01*
X166020000Y-123000000D02*
X166020000Y-121950000D01*
X140293400Y-120236399D02*
X140293400Y-120142400D01*
D63*
X161050000Y-106050000D02*
X161050000Y-105100000D01*
D64*
X165370000Y-120900000D02*
X165220000Y-121050000D01*
D63*
X144450000Y-95250000D02*
X145725000Y-95250000D01*
D64*
X149450000Y-125150000D02*
X149450000Y-128250000D01*
X137287400Y-118867400D02*
X138087400Y-118867400D01*
D63*
X163049999Y-120700000D02*
X163020000Y-120700000D01*
D65*
X146750001Y-104950001D02*
X146750001Y-105699999D01*
D64*
X139687400Y-120242400D02*
X140287399Y-120242400D01*
X139925000Y-101040000D02*
X139785000Y-100900000D01*
X163030000Y-102205000D02*
X161700000Y-102205000D01*
D63*
X138092401Y-118862399D02*
X138087400Y-118867400D01*
D64*
X146750000Y-104950000D02*
X146550000Y-104750000D01*
X147300001Y-103935000D02*
X147565001Y-104200000D01*
D63*
X151750001Y-113999999D02*
X151750000Y-114000000D01*
X165250000Y-117100000D02*
X165250000Y-116574000D01*
D64*
X136650000Y-109200000D02*
X136300000Y-109200000D01*
X160830000Y-102225000D02*
X160640000Y-102035000D01*
X139452400Y-121342400D02*
X139452400Y-120477400D01*
D63*
X163020000Y-120700000D02*
X162520000Y-120200000D01*
D64*
X166500000Y-105400000D02*
X167770000Y-105400000D01*
D65*
X146750000Y-104950000D02*
X146750001Y-104950001D01*
D64*
X155465001Y-112700000D02*
X154465001Y-112700000D01*
D63*
X165750000Y-114850000D02*
X165750000Y-115050000D01*
D64*
X145625000Y-118042400D02*
X144687400Y-118042400D01*
D65*
X151750001Y-112699998D02*
X151750001Y-113999999D01*
D64*
X131000000Y-110050002D02*
X131850000Y-110050002D01*
D65*
X148250000Y-104200000D02*
X147565001Y-104200000D01*
D64*
X161700000Y-102205000D02*
X161680000Y-102225000D01*
X160830000Y-102225000D02*
X161680000Y-102225000D01*
D63*
X166262000Y-115312001D02*
X166287999Y-115312001D01*
D64*
X166020000Y-121950000D02*
X165220000Y-121950000D01*
D66*
X140887401Y-115983592D02*
X140613714Y-115709905D01*
D64*
X137200000Y-108650000D02*
X136650000Y-109200000D01*
D66*
X144367400Y-118362400D02*
X143167400Y-118362400D01*
D65*
X153750000Y-112699998D02*
X154464999Y-112699998D01*
D64*
X156350000Y-103653356D02*
X157146644Y-103653356D01*
D63*
X164560000Y-121700001D02*
X164970001Y-121700001D01*
D64*
X139452400Y-120477400D02*
X139587400Y-120342400D01*
X167850000Y-115050000D02*
X166950000Y-115050000D01*
D63*
X132099999Y-110300001D02*
X132700000Y-110300001D01*
D64*
X137500000Y-100900000D02*
X138925000Y-100900000D01*
D66*
X140887401Y-116582400D02*
X140887401Y-115983592D01*
D63*
X164970001Y-121700001D02*
X165220000Y-121950000D01*
D64*
X151762500Y-114012500D02*
X151750000Y-114000000D01*
D63*
X132099999Y-110300001D02*
X131850000Y-110050002D01*
D65*
X152250000Y-113600000D02*
X152250000Y-112699998D01*
D63*
X166150000Y-114450000D02*
X165750000Y-114850000D01*
D64*
X149450000Y-128250000D02*
X150350002Y-129150002D01*
X165230000Y-105400000D02*
X166500000Y-105400000D01*
D63*
X166287999Y-115312001D02*
X166550000Y-115050000D01*
%TO.N,/MCU + PAYLOAD/NRST*%
X146750000Y-108700000D02*
X146750001Y-108699999D01*
X161075000Y-127725000D02*
X162975000Y-127725000D01*
X158600000Y-125250000D02*
X161075000Y-127725000D01*
X156350000Y-123050000D02*
X156400000Y-123000000D01*
X156400000Y-123000000D02*
X158000000Y-123000000D01*
X148800000Y-108699999D02*
X146750001Y-108699999D01*
X162975000Y-127725000D02*
X167125000Y-127725000D01*
X156310000Y-125250000D02*
X156310000Y-123090000D01*
X144960001Y-108699999D02*
X144760000Y-108900000D01*
X155450000Y-123050000D02*
X156350000Y-123050000D01*
X146750001Y-108699999D02*
X144960001Y-108699999D01*
X156310000Y-123090000D02*
X156400000Y-123000000D01*
X156310000Y-125250000D02*
X158600000Y-125250000D01*
%TO.N,Net-(U10-PF0_OSC_IN)*%
X142900001Y-106349999D02*
X143390001Y-106349999D01*
X143650001Y-106609999D02*
X143650001Y-106700001D01*
X144649998Y-107699998D02*
X146750001Y-107699998D01*
X143650001Y-106700001D02*
X144649998Y-107699998D01*
X142500002Y-105950000D02*
X142900001Y-106349999D01*
X143390001Y-106349999D02*
X143650001Y-106609999D01*
X142300001Y-105950000D02*
X142500002Y-105950000D01*
%TO.N,Net-(U10-PF1_OSC_OUT)*%
X143200001Y-108199999D02*
X143050001Y-108349999D01*
X143050001Y-108349999D02*
X141715001Y-108349999D01*
X146750001Y-108199999D02*
X143200001Y-108199999D01*
X141715001Y-108349999D02*
X141565001Y-108499999D01*
X140600001Y-107250000D02*
X140600001Y-107325001D01*
X141565001Y-108290001D02*
X141565001Y-108499999D01*
X140600001Y-107325001D02*
X141565001Y-108290001D01*
%TO.N,Net-(D7-EN)*%
X145650000Y-85650000D02*
X146224999Y-85650000D01*
X145350000Y-85350000D02*
X145650000Y-85650000D01*
X144575000Y-86700000D02*
X144575000Y-85350000D01*
X146224999Y-85650000D02*
X146224999Y-86549999D01*
X144575000Y-85350000D02*
X145350000Y-85350000D01*
X146525000Y-86850000D02*
X149125000Y-86850000D01*
X149125000Y-86850000D02*
X149675000Y-86300000D01*
X146224999Y-86549999D02*
X146525000Y-86850000D01*
%TO.N,Net-(D8-D)*%
X151675000Y-87250000D02*
X151875000Y-87250000D01*
X151875000Y-87250000D02*
X153225000Y-85900000D01*
X152775000Y-84850000D02*
X153225000Y-85300000D01*
X153225000Y-85900000D02*
X153225000Y-85650000D01*
X151575000Y-84850000D02*
X152775000Y-84850000D01*
X153225000Y-85300000D02*
X153225000Y-85650000D01*
%TO.N,Net-(D10-A)*%
X156485000Y-94300000D02*
X157950000Y-94300000D01*
%TO.N,Net-(D11-A)*%
X142950000Y-96925000D02*
X144425000Y-96925000D01*
X144425000Y-96925000D02*
X144450000Y-96900000D01*
%TO.N,/MCU + PAYLOAD/SWDIO*%
X151230000Y-123130000D02*
X151100000Y-123000000D01*
X153950000Y-117300000D02*
X154000000Y-117300000D01*
X151100000Y-120150000D02*
X153950000Y-117300000D01*
X152950000Y-110150000D02*
X152950000Y-107100000D01*
X151100000Y-123000000D02*
X151100000Y-120150000D01*
X151230000Y-125250000D02*
X151230000Y-123130000D01*
X152950000Y-107100000D02*
X153750000Y-106300000D01*
X151150000Y-123000000D02*
X151100000Y-123000000D01*
X153750000Y-106300000D02*
X153750000Y-104200000D01*
X153750001Y-104200001D02*
X153750000Y-104200000D01*
%TO.N,/MCU + PAYLOAD/SWCLK*%
X152500000Y-124450000D02*
X152750000Y-124200000D01*
X152000000Y-106550000D02*
X153250001Y-105299999D01*
X152000000Y-108375000D02*
X152000000Y-106550000D01*
X153250000Y-122750000D02*
X153000000Y-123000000D01*
X152750000Y-124200000D02*
X152750000Y-123250000D01*
X153250001Y-105299999D02*
X153250001Y-104200000D01*
X152500000Y-125250000D02*
X152500000Y-124450000D01*
X152750000Y-123250000D02*
X153000000Y-123000000D01*
X153250000Y-121800000D02*
X153250000Y-122750000D01*
%TO.N,/MCU + PAYLOAD/SWO*%
X154100000Y-124100000D02*
X154100000Y-123400000D01*
X152250000Y-105000000D02*
X152250000Y-104200000D01*
X154100000Y-123400000D02*
X154500000Y-123000000D01*
X153770000Y-125250000D02*
X153770000Y-124430000D01*
X150750000Y-109600000D02*
X150750000Y-106500000D01*
X154500000Y-121850000D02*
X154500000Y-123000000D01*
X150750000Y-106500000D02*
X152250000Y-105000000D01*
X152500000Y-119850000D02*
X154500000Y-121850000D01*
X153770000Y-124430000D02*
X154100000Y-124100000D01*
%TO.N,Net-(J2-Pin_3)*%
X134300000Y-96900000D02*
X132600000Y-96900000D01*
X132600000Y-96900000D02*
X132100000Y-96400000D01*
%TO.N,Net-(J2-Pin_1)*%
X132790000Y-94360000D02*
X132100000Y-95050000D01*
X134300000Y-94360000D02*
X132790000Y-94360000D01*
%TO.N,Net-(J3-Pin_1)*%
X166270000Y-97075000D02*
X167780000Y-97075000D01*
X167780000Y-97075000D02*
X168430000Y-96425000D01*
%TO.N,Net-(J3-Pin_3)*%
X167890000Y-94535000D02*
X168430000Y-95075000D01*
X166270000Y-94535000D02*
X167890000Y-94535000D01*
%TO.N,SCLK*%
X145650000Y-115600000D02*
X148250000Y-113000000D01*
X142850000Y-115600000D02*
X142387400Y-116062600D01*
X142387400Y-116062600D02*
X142387400Y-116582400D01*
X148250000Y-113000000D02*
X148250000Y-112699998D01*
X133950000Y-112650000D02*
X133950000Y-111800001D01*
X142850000Y-115600000D02*
X145650000Y-115600000D01*
%TO.N,/MCU + PAYLOAD/GPIO3*%
X145550000Y-106700000D02*
X146750001Y-106700000D01*
X144650000Y-105800000D02*
X145550000Y-106700000D01*
X125685000Y-111480000D02*
X125685000Y-111465000D01*
%TO.N,/MCU + PAYLOAD/GPIO1*%
X150249999Y-101799999D02*
X150249999Y-104200000D01*
X125700000Y-106400000D02*
X125685000Y-106400000D01*
X149800000Y-101350000D02*
X150249999Y-101799999D01*
%TO.N,/MCU + PAYLOAD/GPIO2*%
X146024998Y-106199998D02*
X146750001Y-106199998D01*
X145550000Y-105725000D02*
X146024998Y-106199998D01*
%TO.N,MISO*%
X144550000Y-114850000D02*
X147750000Y-111650000D01*
X132700000Y-110800003D02*
X133350003Y-110800003D01*
X130000000Y-108900000D02*
X130599998Y-108300002D01*
X148749999Y-111899999D02*
X148749999Y-112699998D01*
X142300000Y-114850000D02*
X144550000Y-114850000D01*
X132700003Y-110800000D02*
X132700000Y-110800003D01*
X148500000Y-111650000D02*
X148749999Y-111899999D01*
X130599998Y-108300002D02*
X132700000Y-108300002D01*
X141887400Y-115262600D02*
X141887400Y-116582400D01*
X142300000Y-114850000D02*
X141887400Y-115262600D01*
X133550000Y-111000000D02*
X133350003Y-110800003D01*
X148749999Y-112699998D02*
X148729400Y-112679399D01*
X147750000Y-111650000D02*
X148500000Y-111650000D01*
X130500003Y-110800003D02*
X130000000Y-110300000D01*
X130000000Y-110300000D02*
X130000000Y-108900000D01*
X132700000Y-110800003D02*
X130500003Y-110800003D01*
%TO.N,MOSI*%
X146359600Y-116340400D02*
X143509600Y-116340400D01*
X143500000Y-116350000D02*
X143167400Y-116682600D01*
X132700000Y-112525000D02*
X132700000Y-111300002D01*
X149229399Y-112720600D02*
X149229399Y-113470601D01*
X143387600Y-117362400D02*
X143400000Y-117350000D01*
X149229399Y-113470601D02*
X146359600Y-116340400D01*
X143167400Y-116682600D02*
X143167400Y-117362400D01*
X143509600Y-116340400D02*
X143500000Y-116350000D01*
X132650000Y-111300002D02*
X132700000Y-111300002D01*
X149250001Y-112699998D02*
X149229399Y-112720600D01*
%TO.N,/MCU + PAYLOAD/UART_RX*%
X127445000Y-114800000D02*
X125685000Y-116560000D01*
X145646700Y-110900000D02*
X138700000Y-110900000D01*
X138700000Y-110900000D02*
X134800000Y-114800000D01*
X134800000Y-114800000D02*
X127445000Y-114800000D01*
X145846700Y-110700000D02*
X145646700Y-110900000D01*
X146750001Y-110700000D02*
X145846700Y-110700000D01*
%TO.N,/MCU + PAYLOAD/UART_TX*%
X145846703Y-110199998D02*
X145846701Y-110200000D01*
X138325000Y-110200000D02*
X134505000Y-114020000D01*
X146750001Y-110199998D02*
X145846703Y-110199998D01*
X145846701Y-110200000D02*
X138325000Y-110200000D01*
X134505000Y-114020000D02*
X125685000Y-114020000D01*
%TO.N,/MCU + PAYLOAD/GPIO6*%
X154000000Y-108046698D02*
X154346700Y-107699998D01*
X154346700Y-107699998D02*
X155249999Y-107699998D01*
%TO.N,/MCU + PAYLOAD/GPIO4*%
X152300000Y-102650000D02*
X152250000Y-102650000D01*
X152250000Y-102650000D02*
X151750001Y-103149999D01*
X151750001Y-103149999D02*
X151750001Y-104200000D01*
%TO.N,SDA*%
X162600000Y-109000000D02*
X163960000Y-110360000D01*
X156624998Y-108475000D02*
X159625000Y-108475000D01*
X163960000Y-110360000D02*
X163960000Y-110700000D01*
X164212000Y-115812000D02*
X164738000Y-115812000D01*
X160950000Y-120500000D02*
X161400000Y-120950000D01*
X161050000Y-109000000D02*
X161250000Y-109200000D01*
X156399999Y-108699999D02*
X156624998Y-108475000D01*
X162756713Y-121200001D02*
X163040000Y-121200001D01*
X162506712Y-120950000D02*
X162756713Y-121200001D01*
X160150000Y-109000000D02*
X161050000Y-109000000D01*
X159625000Y-108475000D02*
X160150000Y-109000000D01*
X155249999Y-108699999D02*
X156399999Y-108699999D01*
X161050000Y-109000000D02*
X162600000Y-109000000D01*
X161400000Y-120950000D02*
X162506712Y-120950000D01*
X163950000Y-110710000D02*
X163960000Y-110700000D01*
X163800000Y-110860000D02*
X163960000Y-110700000D01*
X163800000Y-115400000D02*
X163800000Y-110860000D01*
X163800000Y-115400000D02*
X164212000Y-115812000D01*
%TO.N,/MCU + PAYLOAD/GPIO7*%
X159550000Y-109800000D02*
X158950000Y-109200000D01*
X158950000Y-109200000D02*
X155249999Y-109200000D01*
%TO.N,/MCU + PAYLOAD/GPIO5*%
X153800000Y-102950000D02*
X153250000Y-102950000D01*
X152749999Y-103450001D02*
X152749999Y-104200000D01*
X153250000Y-102950000D02*
X152749999Y-103450001D01*
%TO.N,SCL*%
X165230000Y-110330000D02*
X165230000Y-110700000D01*
X165230000Y-114330000D02*
X165250000Y-114350000D01*
X165250000Y-115050000D02*
X165250000Y-114350000D01*
X162700000Y-122550000D02*
X163049999Y-122200001D01*
X161175000Y-107825000D02*
X162725000Y-107825000D01*
X165200000Y-110730000D02*
X165230000Y-110700000D01*
X160700000Y-107800000D02*
X160750000Y-107750000D01*
X160800000Y-107450000D02*
X161050000Y-107700000D01*
X155249999Y-108199999D02*
X156050001Y-108199999D01*
X162050000Y-122550000D02*
X162700000Y-122550000D01*
X156050001Y-108199999D02*
X156450000Y-107800000D01*
X156450000Y-107800000D02*
X160700000Y-107800000D01*
X165230000Y-110700000D02*
X165230000Y-114330000D01*
X162725000Y-107825000D02*
X165230000Y-110330000D01*
%TO.N,/MCU + PAYLOAD/GPIO9*%
X156400000Y-112050000D02*
X156350000Y-112050000D01*
X155499999Y-111199999D02*
X155249999Y-111199999D01*
X156350000Y-112050000D02*
X155499999Y-111199999D01*
%TO.N,/MCU + PAYLOAD/GPIO8*%
X153550000Y-110700000D02*
X152749999Y-111500001D01*
X152749999Y-111500001D02*
X152749999Y-112699998D01*
X154050000Y-110700000D02*
X153550000Y-110700000D01*
%TO.N,Net-(U2-RBIAS)*%
X143167400Y-118862400D02*
X145207400Y-118862400D01*
X145207400Y-118862400D02*
X146037400Y-119692400D01*
%TO.N,CAN1_RX*%
X149750000Y-104200000D02*
X149750000Y-102636500D01*
X149750000Y-102636500D02*
X147863500Y-100750000D01*
X142050000Y-100750000D02*
X140930000Y-99630000D01*
X140930000Y-99630000D02*
X137500000Y-99630000D01*
X147863500Y-100750000D02*
X142050000Y-100750000D01*
%TO.N,ACCEL_INT*%
X144891324Y-106939145D02*
X145152178Y-107199999D01*
X133950000Y-107600000D02*
X134700000Y-107600000D01*
X133950000Y-107800001D02*
X133950000Y-107600000D01*
X145152178Y-107199999D02*
X146750001Y-107199999D01*
%TO.N,ACCEL_~{CS}*%
X146000000Y-111650000D02*
X143550000Y-111650000D01*
X146450001Y-111199999D02*
X146000000Y-111650000D01*
X133450000Y-108800000D02*
X133550000Y-108800000D01*
X133449999Y-108800001D02*
X133450000Y-108800000D01*
X146750001Y-111199999D02*
X146450001Y-111199999D01*
X132700000Y-108800001D02*
X133449999Y-108800001D01*
%TO.N,GYRO_INT*%
X147925000Y-109975000D02*
X147649999Y-109699999D01*
X133400002Y-109800002D02*
X132700000Y-109800002D01*
X133750000Y-110150000D02*
X133400002Y-109800002D01*
X147649999Y-109699999D02*
X146750001Y-109699999D01*
%TO.N,GYRO_~{CS}*%
X136044144Y-109950000D02*
X137200000Y-109950000D01*
X145296001Y-109603999D02*
X145700000Y-109200000D01*
X145700000Y-109200000D02*
X146750001Y-109200000D01*
X135200000Y-110300000D02*
X135694144Y-110300000D01*
X137546001Y-109603999D02*
X145296001Y-109603999D01*
X137200000Y-109950000D02*
X137546001Y-109603999D01*
X135694144Y-110300000D02*
X136044144Y-109950000D01*
%TO.N,CC2500_GDO0*%
X139600000Y-117354999D02*
X139607400Y-117362399D01*
X141100000Y-112450000D02*
X139150000Y-112450000D01*
X141875000Y-113225000D02*
X141100000Y-112450000D01*
X149750000Y-111877000D02*
X149750000Y-112699998D01*
X139150000Y-112450000D02*
X138500000Y-113100000D01*
X138500000Y-115850000D02*
X139600000Y-116950000D01*
X139600000Y-116950000D02*
X139600000Y-117354999D01*
X138500000Y-113100000D02*
X138500000Y-115850000D01*
X144700000Y-113225000D02*
X141875000Y-113225000D01*
X149400000Y-111527000D02*
X149750000Y-111877000D01*
%TO.N,CC2500_~{CS}*%
X139097900Y-117862400D02*
X139607400Y-117862400D01*
X148550000Y-110900000D02*
X149800000Y-110900000D01*
X138900000Y-111700000D02*
X137650000Y-112950000D01*
X142350000Y-112400000D02*
X141650000Y-111700000D01*
X141650000Y-111700000D02*
X138900000Y-111700000D01*
X149800000Y-110900000D02*
X150249999Y-111349999D01*
X137650000Y-116414500D02*
X139097900Y-117862400D01*
X145600000Y-112400000D02*
X142350000Y-112400000D01*
X150249999Y-111349999D02*
X150249999Y-112699998D01*
X137650000Y-112950000D02*
X137650000Y-116414500D01*
%TO.N,CC2500_GDO2*%
X150750000Y-113500000D02*
X150750000Y-112699998D01*
X149300000Y-114480856D02*
X149769144Y-114480856D01*
X141950000Y-114100000D02*
X141387400Y-114662600D01*
X141387400Y-114662600D02*
X141387400Y-116582400D01*
X149769144Y-114480856D02*
X150750000Y-113500000D01*
X143850000Y-114100000D02*
X141950000Y-114100000D01*
%TO.N,BMP_INT*%
X165750000Y-116574000D02*
X165750000Y-117600000D01*
X164550000Y-118050000D02*
X159650000Y-113150000D01*
X165750000Y-117600000D02*
X165300000Y-118050000D01*
X158149999Y-109699999D02*
X155249999Y-109699999D01*
X159650000Y-113150000D02*
X159650000Y-111200000D01*
X165300000Y-118050000D02*
X164550000Y-118050000D01*
X159650000Y-111200000D02*
X158149999Y-109699999D01*
%TO.N,CAN1_TX*%
X144900000Y-102800000D02*
X142100000Y-102800000D01*
X142100000Y-102800000D02*
X141460000Y-103440000D01*
X148700000Y-102800000D02*
X149250001Y-103350001D01*
X149250001Y-103350001D02*
X149250001Y-104200000D01*
X141460000Y-103440000D02*
X137990000Y-103440000D01*
X137540000Y-103400000D02*
X137500000Y-103440000D01*
%TO.N,CAN2_TX*%
X163020000Y-99675000D02*
X163030000Y-99665000D01*
X161345000Y-99675000D02*
X163020000Y-99675000D01*
X152050000Y-100750000D02*
X150750000Y-102050000D01*
X150750000Y-102050000D02*
X150750000Y-104200000D01*
X158000000Y-100750000D02*
X152050000Y-100750000D01*
%TO.N,CAN2_RX*%
X161345000Y-103475000D02*
X163030000Y-103475000D01*
X151250000Y-102500000D02*
X151250000Y-104200000D01*
X151950000Y-101800000D02*
X151250000Y-102500000D01*
X157400000Y-101800000D02*
X151950000Y-101800000D01*
%TO.N,MAG_INT*%
X157499998Y-110199998D02*
X155249999Y-110199998D01*
X164550001Y-120700000D02*
X164550001Y-119100001D01*
X164550001Y-119100001D02*
X158550000Y-113100000D01*
X158550000Y-111250000D02*
X157499998Y-110199998D01*
X158550000Y-113100000D02*
X158550000Y-111250000D01*
%TO.N,MAG_DRDY*%
X164050000Y-120700000D02*
X164050000Y-119650000D01*
X156800000Y-110700000D02*
X155249999Y-110700000D01*
X164050000Y-119650000D02*
X157500000Y-113100000D01*
X157500000Y-111400000D02*
X156800000Y-110700000D01*
X157500000Y-113100000D02*
X157500000Y-111400000D01*
D70*
%TO.N,Net-(C11-Pad2)*%
X140587400Y-124882400D02*
X140587400Y-123792400D01*
X140587400Y-123792400D02*
X140587400Y-122742400D01*
%TO.N,Net-(U2-RF_P)*%
X140887400Y-120832400D02*
X140887400Y-120142400D01*
X140587400Y-121782400D02*
X140587400Y-121132400D01*
X140587400Y-121132400D02*
X140887400Y-120832400D01*
%TO.N,Net-(U2-RF_N)*%
X141687400Y-121782400D02*
X141687400Y-121127400D01*
X141387400Y-120827400D02*
X141387400Y-120142400D01*
X141687400Y-121127400D02*
X141387400Y-120827400D01*
%TO.N,Net-(C12-Pad2)*%
X141687400Y-124872400D02*
X141687400Y-123792400D01*
X141687400Y-123792400D02*
X141687400Y-122742400D01*
%TO.N,Net-(C15-Pad2)*%
X140145000Y-127150000D02*
X140800000Y-127150000D01*
X140800000Y-127150000D02*
X141125000Y-126825000D01*
%TO.N,Net-(J1-In)*%
X138525000Y-127150000D02*
X139175000Y-127150000D01*
X138235000Y-127440000D02*
X138525000Y-127150000D01*
X138200000Y-127440000D02*
X133725000Y-127440000D01*
X133725000Y-127440000D02*
X133685000Y-127400000D01*
X138200000Y-127440000D02*
X138235000Y-127440000D01*
D71*
%TO.N,USB_D+*%
X166635000Y-77900000D02*
X166635000Y-77950000D01*
X166635000Y-77900000D02*
X166601882Y-77900000D01*
X159199200Y-105422682D02*
X157882682Y-106739200D01*
X157882682Y-106739200D02*
X156184550Y-106739200D01*
X156145350Y-106700000D02*
X155249999Y-106700000D01*
D63*
X166585000Y-75230000D02*
X166585000Y-77850000D01*
X166585000Y-77850000D02*
X166635000Y-77900000D01*
D71*
X156184550Y-106739200D02*
X156145350Y-106700000D01*
X166601882Y-77900000D02*
X159199200Y-85302682D01*
X159199200Y-85302682D02*
X159199200Y-105422682D01*
%TO.N,USB_D-*%
X168535000Y-77900000D02*
X168535000Y-77950000D01*
X167585000Y-78850000D02*
X166250000Y-78850000D01*
X156145350Y-107199999D02*
X155249999Y-107199999D01*
X159620800Y-85477318D02*
X159620800Y-105597318D01*
X168535000Y-77900000D02*
X167585000Y-78850000D01*
X165999059Y-79099059D02*
X159620800Y-85477318D01*
D63*
X168585000Y-75230000D02*
X168585000Y-77850000D01*
D71*
X156184550Y-107160799D02*
X156145350Y-107199999D01*
X159620800Y-105597318D02*
X158057319Y-107160799D01*
X158057319Y-107160799D02*
X156184550Y-107160799D01*
X166250000Y-78850000D02*
X166000941Y-79099059D01*
D63*
X168585000Y-77850000D02*
X168535000Y-77900000D01*
D71*
X166000941Y-79099059D02*
X165999059Y-79099059D01*
%TD*%
%TA.AperFunction,Conductor*%
%TO.N,/POWER + USB/5VBUS*%
G36*
X172507999Y-73769685D02*
G01*
X172553754Y-73822489D01*
X172563942Y-73858146D01*
X173083982Y-77892103D01*
X173085000Y-77907957D01*
X173085000Y-79675617D01*
X173075768Y-79722567D01*
X172635000Y-80799999D01*
X172635000Y-81476000D01*
X172615315Y-81543039D01*
X172562511Y-81588794D01*
X172511000Y-81600000D01*
X170609000Y-81600000D01*
X170541961Y-81580315D01*
X170496206Y-81527511D01*
X170485000Y-81476000D01*
X170485000Y-73874000D01*
X170504685Y-73806961D01*
X170557489Y-73761206D01*
X170609000Y-73750000D01*
X172440960Y-73750000D01*
X172507999Y-73769685D01*
G37*
%TD.AperFunction*%
%TD*%
%TA.AperFunction,Conductor*%
%TO.N,/POWER + USB/5VDCDC*%
G36*
X149518039Y-82719685D02*
G01*
X149563794Y-82772489D01*
X149575000Y-82824000D01*
X149575000Y-84554344D01*
X149555315Y-84621383D01*
X149545394Y-84634754D01*
X148462132Y-85906410D01*
X148403675Y-85944678D01*
X148367738Y-85950000D01*
X147949000Y-85950000D01*
X147881961Y-85930315D01*
X147836206Y-85877511D01*
X147825000Y-85826000D01*
X147825000Y-84550000D01*
X146761319Y-83486319D01*
X146727834Y-83424996D01*
X146725000Y-83398638D01*
X146725000Y-82824000D01*
X146744685Y-82756961D01*
X146797489Y-82711206D01*
X146849000Y-82700000D01*
X149451000Y-82700000D01*
X149518039Y-82719685D01*
G37*
%TD.AperFunction*%
%TD*%
%TA.AperFunction,Conductor*%
%TO.N,Net-(C15-Pad2)*%
G36*
X141953039Y-125884685D02*
G01*
X141998794Y-125937489D01*
X142010000Y-125989000D01*
X142010000Y-126076664D01*
X141990315Y-126143703D01*
X141971280Y-126166682D01*
X141475870Y-126636018D01*
X141413665Y-126667834D01*
X141390590Y-126670000D01*
X140862713Y-126670000D01*
X140795674Y-126650315D01*
X140773423Y-126632043D01*
X140314710Y-126156019D01*
X140282367Y-126094086D01*
X140280000Y-126069976D01*
X140280000Y-125989000D01*
X140299685Y-125921961D01*
X140352489Y-125876206D01*
X140404000Y-125865000D01*
X141886000Y-125865000D01*
X141953039Y-125884685D01*
G37*
%TD.AperFunction*%
%TD*%
%TA.AperFunction,Conductor*%
%TO.N,GND*%
G36*
X151368039Y-99269685D02*
G01*
X151413794Y-99322489D01*
X151425000Y-99374000D01*
X151425000Y-100226000D01*
X151405315Y-100293039D01*
X151352511Y-100338794D01*
X151301000Y-100350000D01*
X148349000Y-100350000D01*
X148281961Y-100330315D01*
X148236206Y-100277511D01*
X148225000Y-100226000D01*
X148225000Y-99374000D01*
X148244685Y-99306961D01*
X148297489Y-99261206D01*
X148349000Y-99250000D01*
X151301000Y-99250000D01*
X151368039Y-99269685D01*
G37*
%TD.AperFunction*%
%TD*%
%TA.AperFunction,Conductor*%
%TO.N,/POWER + USB/5VBUS_FILT*%
G36*
X172578039Y-82219685D02*
G01*
X172623794Y-82272489D01*
X172635000Y-82324000D01*
X172635000Y-83026000D01*
X172615315Y-83093039D01*
X172562511Y-83138794D01*
X172511000Y-83150000D01*
X171984999Y-83150000D01*
X171585000Y-83549999D01*
X171585000Y-84476000D01*
X171565315Y-84543039D01*
X171512511Y-84588794D01*
X171461000Y-84600000D01*
X170542358Y-84600000D01*
X170527700Y-84599131D01*
X168544342Y-84363016D01*
X168480099Y-84335544D01*
X168440907Y-84277701D01*
X168435000Y-84239885D01*
X168435000Y-82559796D01*
X168454685Y-82492757D01*
X168507489Y-82447002D01*
X168543984Y-82436709D01*
X170477522Y-82200912D01*
X170492533Y-82200000D01*
X172511000Y-82200000D01*
X172578039Y-82219685D01*
G37*
%TD.AperFunction*%
%TD*%
%TA.AperFunction,Conductor*%
%TO.N,GND*%
G36*
X164603088Y-73809469D02*
G01*
X164648843Y-73862273D01*
X164660049Y-73913784D01*
X164660049Y-76615784D01*
X164640364Y-76682823D01*
X164587560Y-76728578D01*
X164536049Y-76739784D01*
X163473960Y-76739784D01*
X163446479Y-76736700D01*
X163410742Y-76728578D01*
X162610514Y-76546708D01*
X161356568Y-76261720D01*
X161295558Y-76227668D01*
X161262643Y-76166037D01*
X161260049Y-76140804D01*
X161260049Y-74436600D01*
X161279734Y-74369561D01*
X161332538Y-74323806D01*
X161353970Y-74316303D01*
X163445241Y-73793486D01*
X163475315Y-73789784D01*
X164536049Y-73789784D01*
X164603088Y-73809469D01*
G37*
%TD.AperFunction*%
%TD*%
%TA.AperFunction,Conductor*%
%TO.N,GND*%
G36*
X135628039Y-70069685D02*
G01*
X135673794Y-70122489D01*
X135685000Y-70174000D01*
X135685000Y-72026000D01*
X135665315Y-72093039D01*
X135612511Y-72138794D01*
X135561000Y-72150000D01*
X131909000Y-72150000D01*
X131841961Y-72130315D01*
X131796206Y-72077511D01*
X131785000Y-72026000D01*
X131785000Y-70174000D01*
X131804685Y-70106961D01*
X131857489Y-70061206D01*
X131909000Y-70050000D01*
X135561000Y-70050000D01*
X135628039Y-70069685D01*
G37*
%TD.AperFunction*%
%TD*%
%TA.AperFunction,Conductor*%
%TO.N,+3V3*%
G36*
X146850000Y-96150000D02*
G01*
X146775000Y-96093750D01*
X146775000Y-96093749D01*
X146360713Y-95783035D01*
X146050000Y-95550000D01*
X146049999Y-95550000D01*
X145524000Y-95550000D01*
X145456961Y-95530315D01*
X145411206Y-95477511D01*
X145400000Y-95426000D01*
X145400000Y-95074000D01*
X145419685Y-95006961D01*
X145472489Y-94961206D01*
X145524000Y-94950000D01*
X146050000Y-94950000D01*
X146850000Y-94400000D01*
X146850000Y-96150000D01*
G37*
%TD.AperFunction*%
%TD*%
%TA.AperFunction,Conductor*%
%TO.N,+3V3*%
G36*
X148818039Y-91269685D02*
G01*
X148863794Y-91322489D01*
X148875000Y-91374000D01*
X148875000Y-96626000D01*
X148855315Y-96693039D01*
X148802511Y-96738794D01*
X148751000Y-96750000D01*
X146899000Y-96750000D01*
X146831961Y-96730315D01*
X146786206Y-96677511D01*
X146775000Y-96626000D01*
X146775000Y-96093750D01*
X146850000Y-96150000D01*
X146850000Y-94400000D01*
X146775000Y-94451562D01*
X146775000Y-93874000D01*
X146794685Y-93806961D01*
X146847489Y-93761206D01*
X146899000Y-93750000D01*
X147774999Y-93750000D01*
X147775000Y-93750000D01*
X148175000Y-93500000D01*
X148175000Y-91374000D01*
X148194685Y-91306961D01*
X148247489Y-91261206D01*
X148299000Y-91250000D01*
X148751000Y-91250000D01*
X148818039Y-91269685D01*
G37*
%TD.AperFunction*%
%TD*%
%TA.AperFunction,Conductor*%
%TO.N,GND*%
G36*
X145328039Y-74119685D02*
G01*
X145373794Y-74172489D01*
X145385000Y-74224000D01*
X145385000Y-75800000D01*
X145384999Y-75800000D01*
X145585000Y-75950000D01*
X145785000Y-76100000D01*
X146661000Y-76100000D01*
X146728039Y-76119685D01*
X146773794Y-76172489D01*
X146785000Y-76224000D01*
X146785000Y-77976000D01*
X146765315Y-78043039D01*
X146712511Y-78088794D01*
X146661000Y-78100000D01*
X144809000Y-78100000D01*
X144741961Y-78080315D01*
X144696206Y-78027511D01*
X144685000Y-77976000D01*
X144685000Y-74224000D01*
X144704685Y-74156961D01*
X144757489Y-74111206D01*
X144809000Y-74100000D01*
X145261000Y-74100000D01*
X145328039Y-74119685D01*
G37*
%TD.AperFunction*%
%TD*%
%TA.AperFunction,Conductor*%
%TO.N,+BATT*%
G36*
X143009506Y-69447678D02*
G01*
X146439771Y-70473029D01*
X146498362Y-70511088D01*
X146527078Y-70574784D01*
X146528234Y-70594159D01*
X146501062Y-72043343D01*
X146480124Y-72110001D01*
X146456467Y-72136277D01*
X144130943Y-74074213D01*
X144066840Y-74102009D01*
X144059808Y-74102679D01*
X143416125Y-74145591D01*
X143347925Y-74130410D01*
X143309592Y-74097470D01*
X142875715Y-73533429D01*
X142850442Y-73468290D01*
X142850000Y-73457825D01*
X142850000Y-69566486D01*
X142869685Y-69499447D01*
X142922489Y-69453692D01*
X142991647Y-69443748D01*
X143009506Y-69447678D01*
G37*
%TD.AperFunction*%
%TD*%
%TA.AperFunction,Conductor*%
%TO.N,+3V3*%
G36*
X144280439Y-119862085D02*
G01*
X144326194Y-119914889D01*
X144337400Y-119966400D01*
X144337400Y-121518400D01*
X144317715Y-121585439D01*
X144264911Y-121631194D01*
X144213400Y-121642400D01*
X142611400Y-121642400D01*
X142544361Y-121622715D01*
X142498606Y-121569911D01*
X142487400Y-121518400D01*
X142487400Y-121342399D01*
X141856180Y-120575919D01*
X141828757Y-120511655D01*
X141827899Y-120497106D01*
X141827899Y-119986898D01*
X141847584Y-119919860D01*
X141900388Y-119874105D01*
X141951899Y-119862899D01*
X142632256Y-119862899D01*
X142632264Y-119862899D01*
X142632279Y-119862897D01*
X142632282Y-119862897D01*
X142657387Y-119859986D01*
X142657387Y-119859985D01*
X142657391Y-119859985D01*
X142673288Y-119852965D01*
X142723374Y-119842400D01*
X144213400Y-119842400D01*
X144280439Y-119862085D01*
G37*
%TD.AperFunction*%
%TD*%
%TA.AperFunction,Conductor*%
%TO.N,+5V*%
G36*
X148368039Y-87469685D02*
G01*
X148413794Y-87522489D01*
X148425000Y-87574000D01*
X148425000Y-88700000D01*
X151375000Y-90100000D01*
X152075000Y-90100000D01*
X154825000Y-88700000D01*
X154825000Y-87574000D01*
X154844685Y-87506961D01*
X154897489Y-87461206D01*
X154949000Y-87450000D01*
X155301000Y-87450000D01*
X155368039Y-87469685D01*
X155413794Y-87522489D01*
X155425000Y-87574000D01*
X155425000Y-93276000D01*
X155405315Y-93343039D01*
X155352511Y-93388794D01*
X155301000Y-93400000D01*
X150849000Y-93400000D01*
X150781961Y-93380315D01*
X150736206Y-93327511D01*
X150725000Y-93276000D01*
X150725000Y-90750000D01*
X148425000Y-90750000D01*
X147949000Y-90750000D01*
X147881961Y-90730315D01*
X147836206Y-90677511D01*
X147825000Y-90626000D01*
X147825000Y-87574000D01*
X147844685Y-87506961D01*
X147897489Y-87461206D01*
X147949000Y-87450000D01*
X148301000Y-87450000D01*
X148368039Y-87469685D01*
G37*
%TD.AperFunction*%
%TD*%
%TA.AperFunction,Conductor*%
%TO.N,/POWER + USB/5VDCDC*%
G36*
X137478039Y-80969685D02*
G01*
X137523794Y-81022489D01*
X137535000Y-81074000D01*
X137535000Y-83326000D01*
X137515315Y-83393039D01*
X137462511Y-83438794D01*
X137411000Y-83450000D01*
X135359000Y-83450000D01*
X135291961Y-83430315D01*
X135246206Y-83377511D01*
X135235000Y-83326000D01*
X135235000Y-81074000D01*
X135254685Y-81006961D01*
X135307489Y-80961206D01*
X135359000Y-80950000D01*
X137411000Y-80950000D01*
X137478039Y-80969685D01*
G37*
%TD.AperFunction*%
%TD*%
%TA.AperFunction,Conductor*%
%TO.N,GND*%
G36*
X177028039Y-76769685D02*
G01*
X177073794Y-76822489D01*
X177085000Y-76874000D01*
X177085000Y-79576000D01*
X177065315Y-79643039D01*
X177012511Y-79688794D01*
X176961000Y-79700000D01*
X174609000Y-79700000D01*
X174541961Y-79680315D01*
X174496206Y-79627511D01*
X174485000Y-79576000D01*
X174485000Y-76874000D01*
X174504685Y-76806961D01*
X174557489Y-76761206D01*
X174609000Y-76750000D01*
X176961000Y-76750000D01*
X177028039Y-76769685D01*
G37*
%TD.AperFunction*%
%TD*%
%TA.AperFunction,Conductor*%
%TO.N,Net-(D6-K)*%
G36*
X139692797Y-70219685D02*
G01*
X139722223Y-70246086D01*
X142807465Y-74065909D01*
X142834275Y-74130430D01*
X142835000Y-74143823D01*
X142835000Y-75633311D01*
X142815315Y-75700350D01*
X142779362Y-75736765D01*
X141731093Y-76429454D01*
X141664309Y-76449990D01*
X141662731Y-76450000D01*
X140635000Y-76450000D01*
X135359000Y-76450000D01*
X135291961Y-76430315D01*
X135246206Y-76377511D01*
X135235000Y-76326000D01*
X135235000Y-72977570D01*
X135254685Y-72910531D01*
X135304752Y-72866066D01*
X137085000Y-72000000D01*
X137085000Y-70324000D01*
X137104685Y-70256961D01*
X137157489Y-70211206D01*
X137209000Y-70200000D01*
X139625758Y-70200000D01*
X139692797Y-70219685D01*
G37*
%TD.AperFunction*%
%TD*%
%TA.AperFunction,Conductor*%
%TO.N,/POWER + USB/5VBUS_FILT*%
G36*
X156518039Y-82719685D02*
G01*
X156563794Y-82772489D01*
X156575000Y-82824000D01*
X156575000Y-84554344D01*
X156555315Y-84621383D01*
X156545394Y-84634754D01*
X155462132Y-85906410D01*
X155403675Y-85944678D01*
X155367738Y-85950000D01*
X154949000Y-85950000D01*
X154881961Y-85930315D01*
X154836206Y-85877511D01*
X154825000Y-85826000D01*
X154825000Y-84550000D01*
X153761319Y-83486319D01*
X153727834Y-83424996D01*
X153725000Y-83398638D01*
X153725000Y-82824000D01*
X153744685Y-82756961D01*
X153797489Y-82711206D01*
X153849000Y-82700000D01*
X156451000Y-82700000D01*
X156518039Y-82719685D01*
G37*
%TD.AperFunction*%
%TD*%
%TA.AperFunction,Conductor*%
%TO.N,GND*%
G36*
X150118039Y-91269685D02*
G01*
X150163794Y-91322489D01*
X150175000Y-91374000D01*
X150175000Y-93500000D01*
X150575000Y-93750000D01*
X151451000Y-93750000D01*
X151518039Y-93769685D01*
X151563794Y-93822489D01*
X151575000Y-93874000D01*
X151575000Y-95651000D01*
X151555315Y-95718039D01*
X151502511Y-95763794D01*
X151451000Y-95775000D01*
X149599000Y-95775000D01*
X149531961Y-95755315D01*
X149486206Y-95702511D01*
X149475000Y-95651000D01*
X149475000Y-91374000D01*
X149494685Y-91306961D01*
X149547489Y-91261206D01*
X149599000Y-91250000D01*
X150051000Y-91250000D01*
X150118039Y-91269685D01*
G37*
%TD.AperFunction*%
%TD*%
%TA.AperFunction,Conductor*%
%TO.N,GND*%
G36*
X136028039Y-62419685D02*
G01*
X136073794Y-62472489D01*
X136085000Y-62524000D01*
X136085000Y-64876000D01*
X136065315Y-64943039D01*
X136012511Y-64988794D01*
X135961000Y-65000000D01*
X132909000Y-65000000D01*
X132841961Y-64980315D01*
X132796206Y-64927511D01*
X132785000Y-64876000D01*
X132785000Y-62524000D01*
X132804685Y-62456961D01*
X132857489Y-62411206D01*
X132909000Y-62400000D01*
X135961000Y-62400000D01*
X136028039Y-62419685D01*
G37*
%TD.AperFunction*%
%TD*%
M02*
