%TF.GenerationSoftware,KiCad,Pcbnew,8.0.3-8.0.3-0~ubuntu22.04.1*%
%TF.CreationDate,2024-07-11T19:27:40-06:00*%
%TF.ProjectId,FCC_KiCAD,4643435f-4b69-4434-9144-2e6b69636164,rev?*%
%TF.SameCoordinates,Original*%
%TF.FileFunction,Paste,Top*%
%TF.FilePolarity,Positive*%
%FSLAX46Y46*%
G04 Gerber Fmt 4.6, Leading zero omitted, Abs format (unit mm)*
G04 Created by KiCad (PCBNEW 8.0.3-8.0.3-0~ubuntu22.04.1) date 2024-07-11 19:27:40*
%MOMM*%
%LPD*%
G01*
G04 APERTURE LIST*
G04 Aperture macros list*
%AMRoundRect*
0 Rectangle with rounded corners*
0 $1 Rounding radius*
0 $2 $3 $4 $5 $6 $7 $8 $9 X,Y pos of 4 corners*
0 Add a 4 corners polygon primitive as box body*
4,1,4,$2,$3,$4,$5,$6,$7,$8,$9,$2,$3,0*
0 Add four circle primitives for the rounded corners*
1,1,$1+$1,$2,$3*
1,1,$1+$1,$4,$5*
1,1,$1+$1,$6,$7*
1,1,$1+$1,$8,$9*
0 Add four rect primitives between the rounded corners*
20,1,$1+$1,$2,$3,$4,$5,0*
20,1,$1+$1,$4,$5,$6,$7,0*
20,1,$1+$1,$6,$7,$8,$9,0*
20,1,$1+$1,$8,$9,$2,$3,0*%
G04 Aperture macros list end*
%ADD10C,0.100000*%
%ADD11R,0.250000X0.275000*%
%ADD12R,0.275000X0.250000*%
%ADD13R,0.675000X0.250000*%
%ADD14R,0.250000X0.675000*%
%ADD15RoundRect,0.140000X0.140000X0.170000X-0.140000X0.170000X-0.140000X-0.170000X0.140000X-0.170000X0*%
%ADD16R,0.800000X0.900000*%
%ADD17R,2.500000X1.700000*%
%ADD18RoundRect,0.050000X0.725000X0.250000X-0.725000X0.250000X-0.725000X-0.250000X0.725000X-0.250000X0*%
%ADD19RoundRect,0.140000X0.170000X-0.140000X0.170000X0.140000X-0.170000X0.140000X-0.170000X-0.140000X0*%
%ADD20RoundRect,0.140000X-0.170000X0.140000X-0.170000X-0.140000X0.170000X-0.140000X0.170000X0.140000X0*%
%ADD21R,0.600000X1.400000*%
%ADD22RoundRect,0.200000X-0.275000X0.200000X-0.275000X-0.200000X0.275000X-0.200000X0.275000X0.200000X0*%
%ADD23R,1.700000X2.500000*%
%ADD24RoundRect,0.140000X-0.140000X-0.170000X0.140000X-0.170000X0.140000X0.170000X-0.140000X0.170000X0*%
%ADD25RoundRect,0.147500X-0.147500X-0.172500X0.147500X-0.172500X0.147500X0.172500X-0.147500X0.172500X0*%
%ADD26RoundRect,0.200000X0.275000X-0.200000X0.275000X0.200000X-0.275000X0.200000X-0.275000X-0.200000X0*%
%ADD27R,2.200000X2.000000*%
%ADD28R,0.280000X0.760000*%
%ADD29R,0.760000X0.280000*%
%ADD30R,1.200000X1.000000*%
%ADD31R,0.550000X1.300000*%
%ADD32RoundRect,0.050000X-0.725000X-0.250000X0.725000X-0.250000X0.725000X0.250000X-0.725000X0.250000X0*%
%ADD33RoundRect,0.218750X0.256250X-0.218750X0.256250X0.218750X-0.256250X0.218750X-0.256250X-0.218750X0*%
%ADD34RoundRect,0.050000X0.250000X-0.725000X0.250000X0.725000X-0.250000X0.725000X-0.250000X-0.725000X0*%
%ADD35RoundRect,0.218750X-0.256250X0.218750X-0.256250X-0.218750X0.256250X-0.218750X0.256250X0.218750X0*%
%ADD36R,1.000000X1.200000*%
%ADD37RoundRect,0.225000X0.225000X0.250000X-0.225000X0.250000X-0.225000X-0.250000X0.225000X-0.250000X0*%
%ADD38R,0.800000X2.400000*%
%ADD39R,1.193800X0.304800*%
%ADD40R,0.304800X1.193800*%
%ADD41RoundRect,0.147500X0.147500X0.172500X-0.147500X0.172500X-0.147500X-0.172500X0.147500X-0.172500X0*%
%ADD42RoundRect,0.200000X-0.200000X-0.275000X0.200000X-0.275000X0.200000X0.275000X-0.200000X0.275000X0*%
%ADD43RoundRect,0.147500X-0.172500X0.147500X-0.172500X-0.147500X0.172500X-0.147500X0.172500X0.147500X0*%
%ADD44RoundRect,0.050000X-0.275000X0.975000X-0.275000X-0.975000X0.275000X-0.975000X0.275000X0.975000X0*%
%ADD45R,0.900000X0.800000*%
%ADD46R,1.120000X2.880000*%
%ADD47R,1.050000X0.650000*%
G04 APERTURE END LIST*
%TO.C,U2*%
D10*
X140937400Y-118012400D02*
X140387400Y-118012400D01*
X140387400Y-118712400D01*
X140937400Y-118712400D01*
X140937400Y-118012400D01*
G36*
X140937400Y-118012400D02*
G01*
X140387400Y-118012400D01*
X140387400Y-118712400D01*
X140937400Y-118712400D01*
X140937400Y-118012400D01*
G37*
X141737400Y-117362400D02*
X141037400Y-117362400D01*
X141037400Y-117912400D01*
X141737400Y-117912400D01*
X141737400Y-117362400D01*
G36*
X141737400Y-117362400D02*
G01*
X141037400Y-117362400D01*
X141037400Y-117912400D01*
X141737400Y-117912400D01*
X141737400Y-117362400D01*
G37*
X141737400Y-118812400D02*
X141037400Y-118812400D01*
X141037400Y-119362400D01*
X141737400Y-119362400D01*
X141737400Y-118812400D01*
G36*
X141737400Y-118812400D02*
G01*
X141037400Y-118812400D01*
X141037400Y-119362400D01*
X141737400Y-119362400D01*
X141737400Y-118812400D01*
G37*
X142387400Y-118012400D02*
X141837400Y-118012400D01*
X141837400Y-118712400D01*
X142387400Y-118712400D01*
X142387400Y-118012400D01*
G36*
X142387400Y-118012400D02*
G01*
X141837400Y-118012400D01*
X141837400Y-118712400D01*
X142387400Y-118712400D01*
X142387400Y-118012400D01*
G37*
%TO.C,U9*%
X149600000Y-97325000D02*
X148400000Y-97325000D01*
X148400000Y-98075000D01*
X149600000Y-98075000D01*
X149600000Y-97325000D01*
G36*
X149600000Y-97325000D02*
G01*
X148400000Y-97325000D01*
X148400000Y-98075000D01*
X149600000Y-98075000D01*
X149600000Y-97325000D01*
G37*
X149600000Y-98525000D02*
X148400000Y-98525000D01*
X148400000Y-99275000D01*
X149600000Y-99275000D01*
X149600000Y-98525000D01*
G36*
X149600000Y-98525000D02*
G01*
X148400000Y-98525000D01*
X148400000Y-99275000D01*
X149600000Y-99275000D01*
X149600000Y-98525000D01*
G37*
X150575000Y-98000000D02*
X149075000Y-98000000D01*
X149075000Y-98600000D01*
X150575000Y-98600000D01*
X150575000Y-98000000D01*
G36*
X150575000Y-98000000D02*
G01*
X149075000Y-98000000D01*
X149075000Y-98600000D01*
X150575000Y-98600000D01*
X150575000Y-98000000D01*
G37*
X151250000Y-97325000D02*
X150050000Y-97325000D01*
X150050000Y-98075000D01*
X151250000Y-98075000D01*
X151250000Y-97325000D01*
G36*
X151250000Y-97325000D02*
G01*
X150050000Y-97325000D01*
X150050000Y-98075000D01*
X151250000Y-98075000D01*
X151250000Y-97325000D01*
G37*
X151250000Y-98525000D02*
X150050000Y-98525000D01*
X150050000Y-99275000D01*
X151250000Y-99275000D01*
X151250000Y-98525000D01*
G36*
X151250000Y-98525000D02*
G01*
X150050000Y-98525000D01*
X150050000Y-99275000D01*
X151250000Y-99275000D01*
X151250000Y-98525000D01*
G37*
%TD*%
D11*
%TO.C,U4*%
X165750000Y-115050000D03*
X165250000Y-115050000D03*
D12*
X164738000Y-115312001D03*
X164738000Y-115812000D03*
X164738000Y-116311999D03*
D11*
X165250000Y-116574000D03*
X165750000Y-116574000D03*
D12*
X166262000Y-116311999D03*
X166262000Y-115812000D03*
X166262000Y-115312001D03*
%TD*%
D13*
%TO.C,U1*%
X135200000Y-108300001D03*
X135200000Y-108800000D03*
X135200000Y-109300002D03*
X135200000Y-109800001D03*
X135200000Y-110300000D03*
X135200000Y-110800001D03*
X135200000Y-111300001D03*
D14*
X133950000Y-111800001D03*
D13*
X132700000Y-111300002D03*
X132700000Y-110800003D03*
X132700000Y-110300001D03*
X132700000Y-109800002D03*
X132700000Y-109300003D03*
X132700000Y-108800001D03*
X132700000Y-108300002D03*
D14*
X133950000Y-107800001D03*
%TD*%
D15*
%TO.C,C55*%
X141565001Y-108499999D03*
X140605001Y-108499999D03*
%TD*%
D16*
%TO.C,D12*%
X151100000Y-123000000D03*
X153000000Y-123000000D03*
X152050000Y-121000000D03*
%TD*%
D17*
%TO.C,D6*%
X138385000Y-71100000D03*
X134385000Y-71100000D03*
%TD*%
D18*
%TO.C,U5*%
X137500000Y-103440000D03*
X137500000Y-102170000D03*
X137500000Y-100900000D03*
X137500000Y-99630000D03*
X132100000Y-99630000D03*
X132100000Y-100900000D03*
X132100000Y-102170000D03*
X132100000Y-103440000D03*
%TD*%
D15*
%TO.C,C40*%
X156085001Y-89800000D03*
X155125001Y-89800000D03*
%TD*%
D19*
%TO.C,C51*%
X147300001Y-103309998D03*
X147300001Y-102349998D03*
%TD*%
%TO.C,C5*%
X140612400Y-114917400D03*
X140612400Y-113957400D03*
%TD*%
D16*
%TO.C,D1*%
X133350000Y-88900000D03*
X131450000Y-88900000D03*
X132400000Y-90900000D03*
%TD*%
D15*
%TO.C,C8*%
X137287400Y-118867400D03*
X136327400Y-118867400D03*
%TD*%
D20*
%TO.C,C26*%
X164970000Y-123100000D03*
X164970000Y-124060000D03*
%TD*%
D16*
%TO.C,D13*%
X154500000Y-123000000D03*
X156400000Y-123000000D03*
X155450000Y-121000000D03*
%TD*%
D21*
%TO.C,U3*%
X167770000Y-105400000D03*
X166500000Y-105400000D03*
X165230000Y-105400000D03*
X163960000Y-105400000D03*
X163960000Y-110700000D03*
X165230000Y-110700000D03*
X166500000Y-110700000D03*
X167770000Y-110700000D03*
%TD*%
D15*
%TO.C,C3*%
X134510000Y-117492400D03*
X133550000Y-117492400D03*
%TD*%
D22*
%TO.C,R10*%
X156485000Y-92650000D03*
X156485000Y-94300000D03*
%TD*%
D23*
%TO.C,D3*%
X133885000Y-67700000D03*
X133885000Y-63700000D03*
%TD*%
D24*
%TO.C,C28*%
X166610000Y-92175000D03*
X167570000Y-92175000D03*
%TD*%
D20*
%TO.C,C22*%
X160630000Y-101075000D03*
X160630000Y-102035000D03*
%TD*%
D25*
%TO.C,L1*%
X139617400Y-123792400D03*
X140587400Y-123792400D03*
%TD*%
D20*
%TO.C,C6*%
X136357400Y-120567400D03*
X136357400Y-121527400D03*
%TD*%
D26*
%TO.C,R14*%
X161050000Y-110650000D03*
X161050000Y-109000000D03*
%TD*%
D20*
%TO.C,C10*%
X143887400Y-121342400D03*
X143887400Y-122302400D03*
%TD*%
D27*
%TO.C,L4*%
X136385000Y-74200000D03*
X136385000Y-80100000D03*
%TD*%
D20*
%TO.C,C43*%
X145725000Y-94290000D03*
X145725000Y-95250000D03*
%TD*%
D15*
%TO.C,C24*%
X169610000Y-92175000D03*
X168650000Y-92175000D03*
%TD*%
D24*
%TO.C,C25*%
X166020000Y-121950000D03*
X166980000Y-121950000D03*
%TD*%
D22*
%TO.C,R12*%
X158000000Y-121350000D03*
X158000000Y-123000000D03*
%TD*%
D24*
%TO.C,C49*%
X157150001Y-103649999D03*
X158110001Y-103649999D03*
%TD*%
D26*
%TO.C,R15*%
X146450000Y-100500000D03*
X146450000Y-98850000D03*
%TD*%
D28*
%TO.C,U2*%
X142387400Y-116582400D03*
X141887400Y-116582400D03*
X141387400Y-116582400D03*
X140887401Y-116582400D03*
X140387399Y-116582400D03*
D29*
X139607400Y-117362399D03*
X139607400Y-117862400D03*
X139607400Y-118362400D03*
X139607400Y-118862399D03*
X139607400Y-119362400D03*
D28*
X140387399Y-120142400D03*
X140887400Y-120142400D03*
X141387400Y-120142400D03*
X141887400Y-120142400D03*
X142387401Y-120142400D03*
D29*
X143167400Y-119362400D03*
X143167400Y-118862400D03*
X143167400Y-118362400D03*
X143167400Y-117862400D03*
X143167400Y-117362400D03*
%TD*%
D30*
%TO.C,X2*%
X142300001Y-105950000D03*
X140600001Y-105950000D03*
X140600001Y-107250000D03*
X142300001Y-107250000D03*
%TD*%
D24*
%TO.C,C30*%
X166020000Y-120900000D03*
X166980000Y-120900000D03*
%TD*%
D31*
%TO.C,D7*%
X148125000Y-85650000D03*
X147174999Y-85650000D03*
X146224999Y-85650000D03*
X146224999Y-88150000D03*
X148125000Y-88150000D03*
%TD*%
D20*
%TO.C,C44*%
X150700000Y-114850000D03*
X150700000Y-115810000D03*
%TD*%
D17*
%TO.C,D4*%
X171785000Y-78800000D03*
X175785000Y-78800000D03*
%TD*%
D32*
%TO.C,U6*%
X163030000Y-99665000D03*
X163030000Y-100935000D03*
X163030000Y-102205000D03*
X163030000Y-103475000D03*
X168430000Y-103475000D03*
X168430000Y-102205000D03*
X168430000Y-100935000D03*
X168430000Y-99665000D03*
%TD*%
D24*
%TO.C,C29*%
X166020000Y-123000000D03*
X166980000Y-123000000D03*
%TD*%
D19*
%TO.C,C21*%
X139925000Y-102000000D03*
X139925000Y-101040000D03*
%TD*%
D33*
%TO.C,D10*%
X157950000Y-95875000D03*
X157950000Y-94300000D03*
%TD*%
D24*
%TO.C,C37*%
X146015000Y-83150000D03*
X146975000Y-83150000D03*
%TD*%
D15*
%TO.C,C34*%
X173295000Y-82725000D03*
X172335000Y-82725000D03*
%TD*%
D24*
%TO.C,C19*%
X167850000Y-115050000D03*
X168810000Y-115050000D03*
%TD*%
D20*
%TO.C,C17*%
X138200000Y-127440000D03*
X138200000Y-128400000D03*
%TD*%
D19*
%TO.C,C2*%
X137200000Y-108650000D03*
X137200000Y-107690000D03*
%TD*%
%TO.C,C41*%
X151725000Y-90450000D03*
X151725000Y-89490000D03*
%TD*%
D24*
%TO.C,C14*%
X141687400Y-123792400D03*
X142647400Y-123792400D03*
%TD*%
D19*
%TO.C,C1*%
X131000000Y-110050002D03*
X131000000Y-109090002D03*
%TD*%
D26*
%TO.C,R5*%
X168430000Y-95075000D03*
X168430000Y-93425000D03*
%TD*%
D11*
%TO.C,U7*%
X163049999Y-122200001D03*
X163550000Y-122200002D03*
X164050000Y-122200002D03*
X164550001Y-122200002D03*
D12*
X164560000Y-121700001D03*
X164560000Y-121200001D03*
D11*
X164550001Y-120700000D03*
X164050000Y-120700000D03*
X163550000Y-120700000D03*
X163049999Y-120700000D03*
D12*
X163040000Y-121200001D03*
X163040000Y-121700001D03*
%TD*%
D33*
%TO.C,D11*%
X142950000Y-98500000D03*
X142950000Y-96925000D03*
%TD*%
D15*
%TO.C,C48*%
X145865001Y-104750000D03*
X144905001Y-104750000D03*
%TD*%
D24*
%TO.C,C18*%
X166740000Y-112700000D03*
X167700000Y-112700000D03*
%TD*%
D22*
%TO.C,R13*%
X161050000Y-106050000D03*
X161050000Y-107700000D03*
%TD*%
D34*
%TO.C,U8*%
X142485000Y-80300000D03*
X143755000Y-80300000D03*
X145025000Y-80300000D03*
X146295000Y-80300000D03*
X146295000Y-74900000D03*
X145025000Y-74900000D03*
X143755000Y-74900000D03*
X142485000Y-74900000D03*
%TD*%
D20*
%TO.C,C11*%
X140587400Y-121782400D03*
X140587400Y-122742400D03*
%TD*%
D35*
%TO.C,FB1*%
X171085000Y-81125000D03*
X171085000Y-82700000D03*
%TD*%
D36*
%TO.C,X1*%
X133787400Y-118867400D03*
X133787400Y-120567400D03*
X135087400Y-120567400D03*
X135087400Y-118867400D03*
%TD*%
D26*
%TO.C,R2*%
X132100000Y-95050000D03*
X132100000Y-93400000D03*
%TD*%
D20*
%TO.C,C16*%
X141125000Y-126825000D03*
X141125000Y-127785000D03*
%TD*%
D19*
%TO.C,C52*%
X143650001Y-106609999D03*
X143650001Y-105649999D03*
%TD*%
D24*
%TO.C,C27*%
X130900000Y-92100000D03*
X131860000Y-92100000D03*
%TD*%
D22*
%TO.C,R11*%
X144450000Y-95250000D03*
X144450000Y-96900000D03*
%TD*%
D37*
%TO.C,C35*%
X172635000Y-84100000D03*
X171085000Y-84100000D03*
%TD*%
D38*
%TO.C,J10*%
X151230000Y-129150002D03*
X151230000Y-125250000D03*
X152500000Y-129150002D03*
X152500000Y-125250000D03*
X153770000Y-129150002D03*
X153770000Y-125250000D03*
X155040000Y-129150002D03*
X155040000Y-125250000D03*
X156310000Y-129150002D03*
X156310000Y-125250000D03*
%TD*%
D39*
%TO.C,U10*%
X146750001Y-105699999D03*
X146750001Y-106199998D03*
X146750001Y-106700000D03*
X146750001Y-107199999D03*
X146750001Y-107699998D03*
X146750001Y-108199999D03*
X146750001Y-108699999D03*
X146750001Y-109200000D03*
X146750001Y-109699999D03*
X146750001Y-110199998D03*
X146750001Y-110700000D03*
X146750001Y-111199999D03*
D40*
X148250000Y-112699998D03*
X148749999Y-112699998D03*
X149250001Y-112699998D03*
X149750000Y-112699998D03*
X150249999Y-112699998D03*
X150750000Y-112699998D03*
X151250000Y-112699998D03*
X151750001Y-112699998D03*
X152250000Y-112699998D03*
X152749999Y-112699998D03*
X153250001Y-112699998D03*
X153750000Y-112699998D03*
D39*
X155249999Y-111199999D03*
X155249999Y-110700000D03*
X155249999Y-110199998D03*
X155249999Y-109699999D03*
X155249999Y-109200000D03*
X155249999Y-108699999D03*
X155249999Y-108199999D03*
X155249999Y-107699998D03*
X155249999Y-107199999D03*
X155249999Y-106700000D03*
X155249999Y-106199998D03*
X155249999Y-105699999D03*
D40*
X153750000Y-104200000D03*
X153250001Y-104200000D03*
X152749999Y-104200000D03*
X152250000Y-104200000D03*
X151750001Y-104200000D03*
X151250000Y-104200000D03*
X150750000Y-104200000D03*
X150249999Y-104200000D03*
X149750000Y-104200000D03*
X149250001Y-104200000D03*
X148749999Y-104200000D03*
X148250000Y-104200000D03*
%TD*%
D20*
%TO.C,C13*%
X139452400Y-121342400D03*
X139452400Y-122302400D03*
%TD*%
D22*
%TO.C,R9*%
X151575000Y-83200000D03*
X151575000Y-84850000D03*
%TD*%
D20*
%TO.C,C45*%
X151750000Y-114850000D03*
X151750000Y-115810000D03*
%TD*%
D41*
%TO.C,L3*%
X140145000Y-127150000D03*
X139175000Y-127150000D03*
%TD*%
D42*
%TO.C,R6*%
X173985000Y-84100000D03*
X175635000Y-84100000D03*
%TD*%
D20*
%TO.C,C9*%
X142837400Y-121342400D03*
X142837400Y-122302400D03*
%TD*%
D22*
%TO.C,R4*%
X132100000Y-96400000D03*
X132100000Y-98050000D03*
%TD*%
D43*
%TO.C,L2*%
X141687400Y-124872400D03*
X141687400Y-125842400D03*
%TD*%
D22*
%TO.C,R7*%
X144575000Y-83700000D03*
X144575000Y-85350000D03*
%TD*%
D20*
%TO.C,C54*%
X155465001Y-112700000D03*
X155465001Y-113660000D03*
%TD*%
D24*
%TO.C,C38*%
X153025000Y-83150000D03*
X153985000Y-83150000D03*
%TD*%
D44*
%TO.C,U9*%
X152365000Y-92300000D03*
X151095000Y-92300000D03*
X149825000Y-92300000D03*
X148555000Y-92300000D03*
X147285000Y-92300000D03*
%TD*%
D31*
%TO.C,D9*%
X155125001Y-85650000D03*
X154175000Y-85650000D03*
X153225000Y-85650000D03*
X153225000Y-88150000D03*
X155125001Y-88150000D03*
%TD*%
D15*
%TO.C,C23*%
X133900000Y-92100000D03*
X132940000Y-92100000D03*
%TD*%
D45*
%TO.C,D8*%
X149675000Y-86300000D03*
X149675000Y-88200000D03*
X151675000Y-87250000D03*
%TD*%
D24*
%TO.C,C53*%
X156165001Y-104750000D03*
X157125001Y-104750000D03*
%TD*%
D46*
%TO.C,J9*%
X171085000Y-75230000D03*
X168585000Y-75230000D03*
X166585000Y-75230000D03*
X164085000Y-75230000D03*
%TD*%
D16*
%TO.C,D2*%
X169050000Y-88975000D03*
X167150000Y-88975000D03*
X168100000Y-90975000D03*
%TD*%
D24*
%TO.C,C20*%
X166750000Y-113850000D03*
X167710000Y-113850000D03*
%TD*%
%TO.C,C46*%
X152797498Y-115852500D03*
X153757498Y-115852500D03*
%TD*%
D19*
%TO.C,C7*%
X139500000Y-114910000D03*
X139500000Y-113950000D03*
%TD*%
D22*
%TO.C,R8*%
X144575000Y-86700000D03*
X144575000Y-88350000D03*
%TD*%
D47*
%TO.C,S1*%
X167125000Y-127725000D03*
X162975000Y-127725000D03*
X167125000Y-125575000D03*
X162975000Y-125575000D03*
%TD*%
D15*
%TO.C,C32*%
X173295000Y-81125000D03*
X172335000Y-81125000D03*
%TD*%
D16*
%TO.C,D5*%
X168535000Y-77900000D03*
X166635000Y-77900000D03*
X167585000Y-79900000D03*
%TD*%
D24*
%TO.C,C39*%
X147165000Y-89800000D03*
X148125000Y-89800000D03*
%TD*%
D19*
%TO.C,C4*%
X145625000Y-118042400D03*
X145625000Y-117082400D03*
%TD*%
D24*
%TO.C,C42*%
X145115000Y-92300000D03*
X146075000Y-92300000D03*
%TD*%
D42*
%TO.C,R1*%
X146037400Y-119692400D03*
X147687400Y-119692400D03*
%TD*%
D15*
%TO.C,C50*%
X144760000Y-108900000D03*
X143800000Y-108900000D03*
%TD*%
D20*
%TO.C,C15*%
X140587400Y-124882400D03*
X140587400Y-125842400D03*
%TD*%
D22*
%TO.C,R3*%
X168430000Y-96425000D03*
X168430000Y-98075000D03*
%TD*%
D24*
%TO.C,C47*%
X152797498Y-114802500D03*
X153757498Y-114802500D03*
%TD*%
D20*
%TO.C,C12*%
X141687400Y-121782400D03*
X141687400Y-122742400D03*
%TD*%
D19*
%TO.C,C33*%
X141000000Y-77160000D03*
X141000000Y-76200000D03*
%TD*%
M02*
