%TF.GenerationSoftware,KiCad,Pcbnew,8.0.3-8.0.3-0~ubuntu22.04.1*%
%TF.CreationDate,2024-07-11T19:27:40-06:00*%
%TF.ProjectId,FCC_KiCAD,4643435f-4b69-4434-9144-2e6b69636164,rev?*%
%TF.SameCoordinates,Original*%
%TF.FileFunction,Copper,L4,Bot*%
%TF.FilePolarity,Positive*%
%FSLAX46Y46*%
G04 Gerber Fmt 4.6, Leading zero omitted, Abs format (unit mm)*
G04 Created by KiCad (PCBNEW 8.0.3-8.0.3-0~ubuntu22.04.1) date 2024-07-11 19:27:40*
%MOMM*%
%LPD*%
G01*
G04 APERTURE LIST*
%TA.AperFunction,ComponentPad*%
%ADD10R,2.000000X1.300000*%
%TD*%
%TA.AperFunction,ComponentPad*%
%ADD11O,2.000000X1.300000*%
%TD*%
%TA.AperFunction,ComponentPad*%
%ADD12C,4.400000*%
%TD*%
%TA.AperFunction,ComponentPad*%
%ADD13R,6.200000X6.200000*%
%TD*%
%TA.AperFunction,ComponentPad*%
%ADD14C,6.200000*%
%TD*%
%TA.AperFunction,ComponentPad*%
%ADD15C,0.600000*%
%TD*%
%TA.AperFunction,ComponentPad*%
%ADD16R,1.750000X1.750000*%
%TD*%
%TA.AperFunction,ComponentPad*%
%ADD17C,1.750000*%
%TD*%
%TA.AperFunction,ComponentPad*%
%ADD18R,1.800000X1.800000*%
%TD*%
%TA.AperFunction,ComponentPad*%
%ADD19C,1.800000*%
%TD*%
%TA.AperFunction,ComponentPad*%
%ADD20C,2.500000*%
%TD*%
%TA.AperFunction,ComponentPad*%
%ADD21C,2.700000*%
%TD*%
%TA.AperFunction,ComponentPad*%
%ADD22C,4.000000*%
%TD*%
%TA.AperFunction,ViaPad*%
%ADD23C,0.600000*%
%TD*%
%TA.AperFunction,Conductor*%
%ADD24C,0.254000*%
%TD*%
G04 APERTURE END LIST*
D10*
%TO.P,J4,1,Pin_1*%
%TO.N,/I2C + CANBUS/CAN1H*%
X128510000Y-87450000D03*
D11*
%TO.P,J4,2,Pin_2*%
%TO.N,/I2C + CANBUS/CAN1L*%
X128510000Y-89450000D03*
%TD*%
D10*
%TO.P,J5,1,Pin_1*%
%TO.N,/I2C + CANBUS/CAN1H*%
X128510000Y-94200000D03*
D11*
%TO.P,J5,2,Pin_2*%
%TO.N,/I2C + CANBUS/CAN1L*%
X128510000Y-96200000D03*
%TD*%
D10*
%TO.P,J6,1,Pin_1*%
%TO.N,/I2C + CANBUS/CAN2H*%
X172085000Y-96250000D03*
D11*
%TO.P,J6,2,Pin_2*%
%TO.N,/I2C + CANBUS/CAN2L*%
X172085000Y-94250000D03*
%TD*%
D10*
%TO.P,J7,1,Pin_1*%
%TO.N,/I2C + CANBUS/CAN2H*%
X172085000Y-89500000D03*
D11*
%TO.P,J7,2,Pin_2*%
%TO.N,/I2C + CANBUS/CAN2L*%
X172085000Y-87500000D03*
%TD*%
D12*
%TO.P,H3,1*%
%TO.N,N/C*%
X174935000Y-128860000D03*
%TD*%
D13*
%TO.P,J8,1,Pin_1*%
%TO.N,+BATT*%
X127675000Y-68850000D03*
D14*
%TO.P,J8,2,Pin_2*%
%TO.N,GND*%
X127675000Y-76050000D03*
%TD*%
D12*
%TO.P,H1,1*%
%TO.N,N/C*%
X154935000Y-66150000D03*
%TD*%
D15*
%TO.P,U2,21,PAD*%
%TO.N,GND*%
X142174800Y-117575000D03*
X140600000Y-117575000D03*
X141387400Y-118362400D03*
X142174800Y-119149800D03*
X140600000Y-119149800D03*
%TD*%
D16*
%TO.P,J2,1,Pin_1*%
%TO.N,Net-(J2-Pin_1)*%
X134300000Y-94360000D03*
D17*
%TO.P,J2,2,Pin_2*%
%TO.N,/I2C + CANBUS/CAN1H*%
X136840000Y-94360000D03*
%TO.P,J2,3,Pin_3*%
%TO.N,Net-(J2-Pin_3)*%
X134300000Y-96900000D03*
%TO.P,J2,4,Pin_4*%
%TO.N,/I2C + CANBUS/CAN1H*%
X136840000Y-96900000D03*
%TD*%
D18*
%TO.P,C31,1*%
%TO.N,+BATT*%
X145285000Y-70511800D03*
D19*
%TO.P,C31,2*%
%TO.N,GND*%
X145285000Y-65000000D03*
%TD*%
D20*
%TO.P,J1,1,In*%
%TO.N,Net-(J1-In)*%
X133685000Y-127400000D03*
D21*
%TO.P,J1,2,Ext*%
%TO.N,GND*%
X136225000Y-124860000D03*
X131145000Y-124860000D03*
X136225000Y-129940000D03*
X131145000Y-129940000D03*
%TD*%
D12*
%TO.P,H2,1*%
%TO.N,N/C*%
X125685000Y-128860000D03*
%TD*%
D18*
%TO.P,C36,1*%
%TO.N,/POWER + USB/5VDCDC*%
X152985000Y-79550000D03*
D19*
%TO.P,C36,2*%
%TO.N,GND*%
X152985000Y-74038200D03*
%TD*%
D15*
%TO.P,U9,6,GND*%
%TO.N,GND*%
X149825000Y-97550000D03*
X151175000Y-98300000D03*
X148475000Y-98300000D03*
X149825000Y-99050000D03*
%TD*%
D16*
%TO.P,J3,1,Pin_1*%
%TO.N,Net-(J3-Pin_1)*%
X166270000Y-97075000D03*
D17*
%TO.P,J3,2,Pin_2*%
%TO.N,/I2C + CANBUS/CAN2L*%
X163730000Y-97075000D03*
%TO.P,J3,3,Pin_3*%
%TO.N,Net-(J3-Pin_3)*%
X166270000Y-94535000D03*
%TO.P,J3,4,Pin_4*%
%TO.N,/I2C + CANBUS/CAN2L*%
X163730000Y-94535000D03*
%TD*%
D22*
%TO.P,J9,SH1,SHIELD1*%
%TO.N,unconnected-(J9-SHIELD1-PadSH1)*%
X174155000Y-71650000D03*
%TO.P,J9,SH2,SHIELD2*%
%TO.N,unconnected-(J9-SHIELD2-PadSH2)*%
X161015000Y-71650000D03*
%TD*%
D17*
%TO.P,J11,1,Pin_1*%
%TO.N,+3V3*%
X125685000Y-101320000D03*
%TO.P,J11,2,Pin_2*%
%TO.N,GND*%
X125685000Y-103860000D03*
%TO.P,J11,3,Pin_3*%
%TO.N,/MCU + PAYLOAD/GPIO1*%
X125685000Y-106400000D03*
%TO.P,J11,4,Pin_4*%
%TO.N,/MCU + PAYLOAD/GPIO2*%
X125685000Y-108940000D03*
%TO.P,J11,5,Pin_5*%
%TO.N,/MCU + PAYLOAD/GPIO3*%
X125685000Y-111480000D03*
%TO.P,J11,6,Pin_6*%
%TO.N,/MCU + PAYLOAD/UART_TX*%
X125685000Y-114020000D03*
%TO.P,J11,7,Pin_7*%
%TO.N,/MCU + PAYLOAD/UART_RX*%
X125685000Y-116560000D03*
%TO.P,J11,8,Pin_8*%
%TO.N,MISO*%
X125685000Y-119100000D03*
%TO.P,J11,9,Pin_9*%
%TO.N,SCLK*%
X125685000Y-121640000D03*
%TO.P,J11,10,Pin_10*%
%TO.N,MOSI*%
X125685000Y-124180000D03*
%TD*%
%TO.P,J12,1,Pin_1*%
%TO.N,+5V*%
X174885000Y-101320000D03*
%TO.P,J12,2,Pin_2*%
%TO.N,GND*%
X174885000Y-103860000D03*
%TO.P,J12,3,Pin_3*%
%TO.N,/MCU + PAYLOAD/GPIO4*%
X174885000Y-106400000D03*
%TO.P,J12,4,Pin_4*%
%TO.N,/MCU + PAYLOAD/GPIO5*%
X174885000Y-108940000D03*
%TO.P,J12,5,Pin_5*%
%TO.N,/MCU + PAYLOAD/GPIO6*%
X174885000Y-111480000D03*
%TO.P,J12,6,Pin_6*%
%TO.N,/MCU + PAYLOAD/GPIO7*%
X174885000Y-114020000D03*
%TO.P,J12,7,Pin_7*%
%TO.N,/MCU + PAYLOAD/GPIO8*%
X174885000Y-116560000D03*
%TO.P,J12,8,Pin_8*%
%TO.N,/MCU + PAYLOAD/GPIO9*%
X174885000Y-119100000D03*
%TO.P,J12,9,Pin_9*%
%TO.N,SCL*%
X174885000Y-121640000D03*
%TO.P,J12,10,Pin_10*%
%TO.N,SDA*%
X174885000Y-124180000D03*
%TD*%
D23*
%TO.N,GND*%
X176400000Y-83300000D03*
X133350000Y-90895000D03*
X141125000Y-128575000D03*
X144100000Y-123150000D03*
X144900001Y-103899999D03*
X161710049Y-75789784D03*
X167205000Y-90955000D03*
X146750000Y-84450000D03*
X150625000Y-88200000D03*
X163000000Y-126450000D03*
X161710049Y-74789784D03*
X145235000Y-77600000D03*
X153025000Y-83950000D03*
X158100000Y-102800000D03*
X162350000Y-121700000D03*
X161580000Y-100925000D03*
X153800000Y-127400000D03*
X144575000Y-89250000D03*
X142900000Y-108976999D03*
X156300000Y-127400000D03*
X139800001Y-108499999D03*
X144200000Y-117050000D03*
X146235000Y-77600000D03*
X169030000Y-90930000D03*
X155465001Y-114450000D03*
X145235000Y-76600000D03*
X143437400Y-123992400D03*
X154700000Y-114800000D03*
X153583412Y-111603300D03*
X168550000Y-113850000D03*
X148650000Y-119700000D03*
X156875000Y-89800000D03*
X155450000Y-122050000D03*
X169650000Y-115050000D03*
X136100000Y-108350000D03*
X148825000Y-99900000D03*
X152050000Y-122000000D03*
X165500000Y-115800000D03*
X164300000Y-116850000D03*
X132385000Y-70600000D03*
X167025000Y-116325000D03*
X137200000Y-106900000D03*
X144850000Y-119600000D03*
X135485000Y-64200000D03*
X146490000Y-117092400D03*
X146235000Y-76600000D03*
X164975000Y-125025000D03*
X144325000Y-92300000D03*
X167770000Y-121950000D03*
X143400001Y-107449999D03*
X157950000Y-96900000D03*
X174085000Y-82725000D03*
X146450000Y-97900000D03*
X136326079Y-110723922D03*
X138775000Y-122875000D03*
X136040000Y-111500000D03*
X162800000Y-105400000D03*
X132750000Y-117500000D03*
X131850000Y-109100002D03*
X132385000Y-71600000D03*
X154700000Y-115800000D03*
X140612400Y-113167400D03*
X151750000Y-116600000D03*
X135485000Y-63200000D03*
X143187400Y-123092400D03*
X131450000Y-90895000D03*
X175300000Y-77350000D03*
X156500000Y-106150000D03*
X167770000Y-123000000D03*
X145925000Y-84100000D03*
X176300000Y-77350000D03*
X136037400Y-118042400D03*
X163850000Y-123023000D03*
X147300000Y-101600000D03*
X140600000Y-104900000D03*
X168105000Y-90005000D03*
X167770000Y-120900000D03*
X145725000Y-93500000D03*
X164500000Y-114700000D03*
X136337400Y-119692400D03*
X148400000Y-105300000D03*
X157810000Y-105380000D03*
X167150000Y-126450000D03*
X150025000Y-95250000D03*
X150825000Y-99900000D03*
X132400000Y-89970000D03*
X142950000Y-99500000D03*
X163770000Y-121450000D03*
X163400000Y-120000000D03*
X154175000Y-86850000D03*
X152500000Y-127400000D03*
X151025000Y-94250000D03*
X147150000Y-90650000D03*
X134281644Y-109427000D03*
X150700000Y-116600000D03*
X162710049Y-74789784D03*
X151025000Y-95250000D03*
X174100000Y-81130000D03*
X168500000Y-79900000D03*
X138787400Y-123792400D03*
X150025000Y-94250000D03*
X166500000Y-111900000D03*
X136362400Y-122317400D03*
X138200000Y-129190000D03*
X139500000Y-113160000D03*
X138925000Y-102150000D03*
X162710049Y-75789784D03*
X151373000Y-111550000D03*
X133787400Y-121692400D03*
X143650000Y-104850000D03*
X151725000Y-88700000D03*
%TO.N,/POWER + USB/5VBUS_FILT*%
X155125000Y-83150000D03*
X168935000Y-83900000D03*
X156125000Y-84150000D03*
X155125000Y-84150000D03*
X169935000Y-82900000D03*
X169935000Y-83900000D03*
X168935000Y-82900000D03*
X156125000Y-83150000D03*
%TO.N,/POWER + USB/5VDCDC*%
X149125000Y-84150000D03*
X149125000Y-83150000D03*
X147285000Y-80300000D03*
X148125000Y-83150000D03*
X136885000Y-81850000D03*
X135885000Y-81850000D03*
X136885000Y-82850000D03*
X148125000Y-84150000D03*
X135885000Y-82850000D03*
%TO.N,+5V*%
X154625000Y-91650000D03*
X153625000Y-91650000D03*
X154625000Y-92650000D03*
X153625000Y-92650000D03*
%TO.N,+3V3*%
X143037400Y-120342400D03*
X156350000Y-103653356D03*
X165230000Y-104170000D03*
X161580000Y-102225000D03*
X161050000Y-105100000D03*
X138087400Y-118867400D03*
X158000000Y-120450000D03*
X155265001Y-105000000D03*
X148325000Y-95250000D03*
X167800000Y-111900000D03*
X166150000Y-114450000D03*
X140613714Y-115709905D03*
X151750000Y-114000000D03*
X148325000Y-96250000D03*
X131850000Y-110050002D03*
X147325000Y-96250000D03*
X152600000Y-113950000D03*
X144687400Y-118042400D03*
X139587400Y-120342400D03*
X143837400Y-120342400D03*
X147325000Y-95250000D03*
X164975000Y-117375000D03*
X166950000Y-115050000D03*
X165220000Y-121050000D03*
X146750000Y-104950000D03*
X147325000Y-94250000D03*
X147565001Y-104200000D03*
X165220000Y-121950000D03*
X154465001Y-112700000D03*
X148325000Y-94250000D03*
X138925000Y-100900000D03*
X149450000Y-125150000D03*
X162520000Y-120200000D03*
X136300000Y-109200000D03*
X161050000Y-111650000D03*
%TO.N,/MCU + PAYLOAD/NRST*%
X148800000Y-108699999D03*
X155450000Y-123050000D03*
%TO.N,/MCU + PAYLOAD/SWDIO*%
X152950000Y-110150000D03*
X154000000Y-117300000D03*
%TO.N,/MCU + PAYLOAD/SWCLK*%
X152000000Y-108375000D03*
X153250000Y-121800000D03*
%TO.N,/MCU + PAYLOAD/SWO*%
X152500000Y-119850000D03*
X150750000Y-109600000D03*
%TO.N,SCLK*%
X133950000Y-112650000D03*
X142850000Y-115600000D03*
%TO.N,/MCU + PAYLOAD/GPIO3*%
X144650000Y-105800000D03*
%TO.N,/MCU + PAYLOAD/GPIO1*%
X149800000Y-101350000D03*
%TO.N,/MCU + PAYLOAD/GPIO2*%
X145550000Y-105725000D03*
%TO.N,MISO*%
X133550000Y-111000000D03*
X142300000Y-114850000D03*
%TO.N,MOSI*%
X132700000Y-112525000D03*
X143500000Y-116350000D03*
%TO.N,/MCU + PAYLOAD/GPIO6*%
X154000000Y-108046698D03*
%TO.N,/MCU + PAYLOAD/GPIO4*%
X152300000Y-102650000D03*
%TO.N,SDA*%
X160950000Y-120500000D03*
X163800000Y-115400000D03*
%TO.N,/MCU + PAYLOAD/GPIO7*%
X159550000Y-109800000D03*
%TO.N,/MCU + PAYLOAD/GPIO5*%
X153800000Y-102950000D03*
%TO.N,SCL*%
X162050000Y-122550000D03*
X165250000Y-114350000D03*
%TO.N,/MCU + PAYLOAD/GPIO9*%
X156400000Y-112050000D03*
%TO.N,/MCU + PAYLOAD/GPIO8*%
X154050000Y-110700000D03*
%TO.N,ACCEL_INT*%
X134700000Y-107600000D03*
X144891324Y-106939145D03*
%TO.N,ACCEL_~{CS}*%
X143550000Y-111650000D03*
X133550000Y-108800000D03*
%TO.N,GYRO_INT*%
X147925000Y-109975000D03*
X133750000Y-110150000D03*
%TO.N,CC2500_GDO0*%
X144700000Y-113225000D03*
X149400000Y-111527000D03*
%TO.N,CC2500_~{CS}*%
X148550000Y-110900000D03*
X145600000Y-112400000D03*
%TO.N,CC2500_GDO2*%
X143850000Y-114100000D03*
X149300000Y-114480856D03*
%TO.N,CAN1_TX*%
X144900000Y-102800000D03*
X148700000Y-102800000D03*
%TO.N,CAN2_TX*%
X158000000Y-100750000D03*
X161345000Y-99675000D03*
%TO.N,CAN2_RX*%
X157400000Y-101800000D03*
X161345000Y-103475000D03*
%TD*%
D24*
%TO.N,/MCU + PAYLOAD/NRST*%
X150100000Y-115450000D02*
X149600000Y-115950000D01*
X151650000Y-123050000D02*
X155450000Y-123050000D01*
X149600000Y-121000000D02*
X151650000Y-123050000D01*
X150100000Y-110600000D02*
X150100000Y-115450000D01*
X149500000Y-109399999D02*
X149500000Y-110000000D01*
X149500000Y-110000000D02*
X150100000Y-110600000D01*
X149600000Y-115950000D02*
X149600000Y-121000000D01*
X148800000Y-108699999D02*
X149500000Y-109399999D01*
%TO.N,/MCU + PAYLOAD/SWDIO*%
X152950000Y-110150000D02*
X152956412Y-110156412D01*
X152956412Y-112206412D02*
X154000000Y-113250000D01*
X152956412Y-110156412D02*
X152956412Y-112206412D01*
X154000000Y-113250000D02*
X154000000Y-117300000D01*
%TO.N,/MCU + PAYLOAD/SWCLK*%
X153275000Y-113550000D02*
X153275000Y-121775000D01*
X153275000Y-121775000D02*
X153250000Y-121800000D01*
X152000000Y-108375000D02*
X152000000Y-112275000D01*
X152000000Y-112275000D02*
X153275000Y-113550000D01*
%TO.N,/MCU + PAYLOAD/SWO*%
X152500000Y-116100000D02*
X152500000Y-119850000D01*
X150750000Y-109600000D02*
X150746000Y-109604000D01*
X150746000Y-109604000D02*
X150746000Y-114346000D01*
X150746000Y-114346000D02*
X152500000Y-116100000D01*
%TO.N,SCLK*%
X142850000Y-115600000D02*
X141750000Y-115600000D01*
X128500000Y-118825000D02*
X125685000Y-121640000D01*
X136125000Y-114825000D02*
X133950000Y-112650000D01*
X133950000Y-112650000D02*
X133025000Y-111725000D01*
X140975000Y-114825000D02*
X136125000Y-114825000D01*
X130075000Y-111725000D02*
X128500000Y-113300000D01*
X133025000Y-111725000D02*
X130075000Y-111725000D01*
X128500000Y-113300000D02*
X128500000Y-118825000D01*
X141750000Y-115600000D02*
X140975000Y-114825000D01*
%TO.N,/MCU + PAYLOAD/GPIO3*%
X131400000Y-105800000D02*
X125720000Y-111480000D01*
X125720000Y-111480000D02*
X125685000Y-111480000D01*
X144650000Y-105800000D02*
X131400000Y-105800000D01*
%TO.N,/MCU + PAYLOAD/GPIO1*%
X149200000Y-100750000D02*
X145400000Y-100750000D01*
X143175000Y-102975000D02*
X129110000Y-102975000D01*
X129110000Y-102975000D02*
X125685000Y-106400000D01*
X145400000Y-100750000D02*
X143175000Y-102975000D01*
X149800000Y-101350000D02*
X149200000Y-100750000D01*
%TO.N,/MCU + PAYLOAD/GPIO2*%
X130600000Y-104025000D02*
X125685000Y-108940000D01*
X143850000Y-104025000D02*
X130600000Y-104025000D01*
X145550000Y-105725000D02*
X143850000Y-104025000D01*
%TO.N,MISO*%
X127600000Y-117185000D02*
X125685000Y-119100000D01*
X136525000Y-113975000D02*
X133550000Y-111000000D01*
X129500000Y-111000000D02*
X127600000Y-112900000D01*
X142300000Y-114850000D02*
X141425000Y-113975000D01*
X127600000Y-112900000D02*
X127600000Y-117185000D01*
X133550000Y-111000000D02*
X129500000Y-111000000D01*
X141425000Y-113975000D02*
X136525000Y-113975000D01*
%TO.N,MOSI*%
X143500000Y-116350000D02*
X140000000Y-116350000D01*
X132700000Y-112525000D02*
X130575000Y-112525000D01*
X140000000Y-116350000D02*
X139425000Y-115775000D01*
X129400000Y-120465000D02*
X125685000Y-124180000D01*
X130575000Y-112525000D02*
X129400000Y-113700000D01*
X129400000Y-113700000D02*
X129400000Y-120465000D01*
X135950000Y-115775000D02*
X132700000Y-112525000D01*
X139425000Y-115775000D02*
X135950000Y-115775000D01*
%TO.N,/MCU + PAYLOAD/UART_TX*%
X125780000Y-114020000D02*
X125685000Y-114020000D01*
%TO.N,/MCU + PAYLOAD/GPIO6*%
X172230000Y-108825000D02*
X174885000Y-111480000D01*
X154000000Y-108550000D02*
X154275000Y-108825000D01*
X154000000Y-108046698D02*
X154000000Y-108550000D01*
X154275000Y-108825000D02*
X172230000Y-108825000D01*
%TO.N,/MCU + PAYLOAD/GPIO4*%
X152300000Y-102650000D02*
X152950000Y-102000000D01*
X156000000Y-102000000D02*
X160400000Y-106400000D01*
X160400000Y-106400000D02*
X174885000Y-106400000D01*
X152950000Y-102000000D02*
X156000000Y-102000000D01*
%TO.N,SDA*%
X160950000Y-120500000D02*
X160950000Y-122650000D01*
X174715000Y-124350000D02*
X174885000Y-124180000D01*
X160950000Y-120500000D02*
X160950000Y-118250000D01*
X160950000Y-118250000D02*
X163800000Y-115400000D01*
X160950000Y-122650000D02*
X162650000Y-124350000D01*
X162650000Y-124350000D02*
X174715000Y-124350000D01*
%TO.N,/MCU + PAYLOAD/GPIO7*%
X170665000Y-109800000D02*
X174885000Y-114020000D01*
X159550000Y-109800000D02*
X170665000Y-109800000D01*
%TO.N,/MCU + PAYLOAD/GPIO5*%
X159200000Y-107700000D02*
X173645000Y-107700000D01*
X173645000Y-107700000D02*
X174885000Y-108940000D01*
X153800000Y-102950000D02*
X154450000Y-102950000D01*
X154450000Y-102950000D02*
X159200000Y-107700000D01*
%TO.N,SCL*%
X172875000Y-123650000D02*
X174885000Y-121640000D01*
X163150000Y-123650000D02*
X172875000Y-123650000D01*
X161650000Y-118550000D02*
X161650000Y-122150000D01*
X161650000Y-122150000D02*
X162050000Y-122550000D01*
X165250000Y-114950000D02*
X161650000Y-118550000D01*
X162050000Y-122550000D02*
X163150000Y-123650000D01*
X165250000Y-114350000D02*
X165250000Y-114950000D01*
%TO.N,/MCU + PAYLOAD/GPIO9*%
X156400000Y-112050000D02*
X157150000Y-112800000D01*
X168585000Y-112800000D02*
X174885000Y-119100000D01*
X157150000Y-112800000D02*
X168585000Y-112800000D01*
%TO.N,/MCU + PAYLOAD/GPIO8*%
X174860000Y-116560000D02*
X174885000Y-116560000D01*
X154050000Y-110700000D02*
X169000000Y-110700000D01*
X169000000Y-110700000D02*
X174860000Y-116560000D01*
%TO.N,ACCEL_INT*%
X144577179Y-106625000D02*
X142900000Y-106625000D01*
X141925000Y-107600000D02*
X134700000Y-107600000D01*
X142900000Y-106625000D02*
X141925000Y-107600000D01*
X144891324Y-106939145D02*
X144577179Y-106625000D01*
%TO.N,ACCEL_~{CS}*%
X135925000Y-109975000D02*
X134750000Y-108800000D01*
X142700000Y-111650000D02*
X141025000Y-109975000D01*
X143550000Y-111650000D02*
X142700000Y-111650000D01*
X134750000Y-108800000D02*
X133550000Y-108800000D01*
X141025000Y-109975000D02*
X135925000Y-109975000D01*
%TO.N,GYRO_INT*%
X133750000Y-110186712D02*
X133750000Y-110150000D01*
X144075000Y-112500000D02*
X136063288Y-112500000D01*
X146925000Y-111425000D02*
X145150000Y-111425000D01*
X147925000Y-109975000D02*
X147925000Y-110425000D01*
X145150000Y-111425000D02*
X144075000Y-112500000D01*
X147925000Y-110425000D02*
X146925000Y-111425000D01*
X136063288Y-112500000D02*
X133750000Y-110186712D01*
%TO.N,CC2500_GDO0*%
X147275000Y-113225000D02*
X148973000Y-111527000D01*
X148973000Y-111527000D02*
X149400000Y-111527000D01*
X144700000Y-113225000D02*
X147275000Y-113225000D01*
%TO.N,CC2500_~{CS}*%
X147050000Y-112400000D02*
X148550000Y-110900000D01*
X145600000Y-112400000D02*
X147050000Y-112400000D01*
%TO.N,CC2500_GDO2*%
X145355856Y-114480856D02*
X144975000Y-114100000D01*
X144975000Y-114100000D02*
X143850000Y-114100000D01*
X149300000Y-114480856D02*
X145355856Y-114480856D01*
%TO.N,CAN1_TX*%
X148700000Y-102800000D02*
X144900000Y-102800000D01*
%TO.N,CAN2_TX*%
X158300000Y-100750000D02*
X159250000Y-100750000D01*
X159250000Y-100750000D02*
X160325000Y-99675000D01*
X160325000Y-99675000D02*
X161345000Y-99675000D01*
%TO.N,CAN2_RX*%
X160375000Y-103475000D02*
X161345000Y-103475000D01*
X157700000Y-101800000D02*
X158700000Y-101800000D01*
X158700000Y-101800000D02*
X160375000Y-103475000D01*
%TD*%
M02*
