M48
; DRILL file {KiCad 8.0.3-8.0.3-0~ubuntu22.04.1} date 2024-07-11T19:27:31-0600
; FORMAT={-:-/ absolute / metric / decimal}
; #@! TF.CreationDate,2024-07-11T19:27:31-06:00
; #@! TF.GenerationSoftware,Kicad,Pcbnew,8.0.3-8.0.3-0~ubuntu22.04.1
; #@! TF.FileFunction,MixedPlating,1,4
FMAT,2
METRIC
; #@! TA.AperFunction,Plated,PTH,ViaDrill
T1C0.300
; #@! TA.AperFunction,Plated,PTH,ComponentDrill
T2C0.300
; #@! TA.AperFunction,Plated,PTH,ComponentDrill
T3C0.750
; #@! TA.AperFunction,Plated,PTH,ComponentDrill
T4C1.050
; #@! TA.AperFunction,Plated,PTH,ComponentDrill
T5C1.100
; #@! TA.AperFunction,Plated,PTH,ComponentDrill
T6C1.500
; #@! TA.AperFunction,Plated,PTH,ComponentDrill
T7C1.700
; #@! TA.AperFunction,Plated,PTH,ComponentDrill
T8C2.200
; #@! TA.AperFunction,Plated,PTH,ComponentDrill
T9C2.500
; #@! TA.AperFunction,Plated,PTH,ComponentDrill
T10C4.600
%
G90
G05
T1
X131.45Y-90.895
X131.85Y-109.1
X131.85Y-110.05
X132.385Y-70.6
X132.385Y-71.6
X132.4Y-89.97
X132.7Y-112.525
X132.75Y-117.5
X133.35Y-90.895
X133.55Y-108.8
X133.55Y-111.0
X133.75Y-110.15
X133.787Y-121.692
X133.95Y-112.65
X134.282Y-109.427
X134.7Y-107.6
X135.485Y-63.2
X135.485Y-64.2
X135.885Y-81.85
X135.885Y-82.85
X136.037Y-118.042
X136.04Y-111.5
X136.1Y-108.35
X136.3Y-109.2
X136.326Y-110.724
X136.337Y-119.692
X136.362Y-122.317
X136.885Y-81.85
X136.885Y-82.85
X137.2Y-106.9
X138.087Y-118.867
X138.2Y-129.19
X138.775Y-122.875
X138.787Y-123.792
X138.925Y-100.9
X138.925Y-102.15
X139.5Y-113.16
X139.587Y-120.342
X139.8Y-108.5
X140.6Y-104.9
X140.612Y-113.167
X140.614Y-115.71
X141.125Y-128.575
X142.3Y-114.85
X142.85Y-115.6
X142.9Y-108.977
X142.95Y-99.5
X143.037Y-120.342
X143.187Y-123.092
X143.4Y-107.45
X143.437Y-123.992
X143.5Y-116.35
X143.55Y-111.65
X143.65Y-104.85
X143.837Y-120.342
X143.85Y-114.1
X144.1Y-123.15
X144.2Y-117.05
X144.325Y-92.3
X144.575Y-89.25
X144.65Y-105.8
X144.687Y-118.042
X144.7Y-113.225
X144.85Y-119.6
X144.891Y-106.939
X144.9Y-102.8
X144.9Y-103.9
X145.235Y-76.6
X145.235Y-77.6
X145.55Y-105.725
X145.6Y-112.4
X145.725Y-93.5
X145.925Y-84.1
X146.235Y-76.6
X146.235Y-77.6
X146.45Y-97.9
X146.49Y-117.092
X146.75Y-84.45
X146.75Y-104.95
X147.15Y-90.65
X147.285Y-80.3
X147.3Y-101.6
X147.325Y-94.25
X147.325Y-95.25
X147.325Y-96.25
X147.565Y-104.2
X147.925Y-109.975
X148.125Y-83.15
X148.125Y-84.15
X148.325Y-94.25
X148.325Y-95.25
X148.325Y-96.25
X148.4Y-105.3
X148.55Y-110.9
X148.65Y-119.7
X148.7Y-102.8
X148.8Y-108.7
X148.825Y-99.9
X149.125Y-83.15
X149.125Y-84.15
X149.3Y-114.481
X149.4Y-111.527
X149.45Y-125.15
X149.8Y-101.35
X150.025Y-94.25
X150.025Y-95.25
X150.625Y-88.2
X150.7Y-116.6
X150.75Y-109.6
X150.825Y-99.9
X151.025Y-94.25
X151.025Y-95.25
X151.373Y-111.55
X151.725Y-88.7
X151.75Y-114.0
X151.75Y-116.6
X152.0Y-108.375
X152.05Y-122.0
X152.3Y-102.65
X152.5Y-119.85
X152.5Y-127.4
X152.6Y-113.95
X152.95Y-110.15
X153.025Y-83.95
X153.25Y-121.8
X153.583Y-111.603
X153.625Y-91.65
X153.625Y-92.65
X153.8Y-102.95
X153.8Y-127.4
X154.0Y-108.047
X154.0Y-117.3
X154.05Y-110.7
X154.175Y-86.85
X154.465Y-112.7
X154.625Y-91.65
X154.625Y-92.65
X154.7Y-114.8
X154.7Y-115.8
X155.125Y-83.15
X155.125Y-84.15
X155.265Y-105.0
X155.45Y-122.05
X155.45Y-123.05
X155.465Y-114.45
X156.125Y-83.15
X156.125Y-84.15
X156.3Y-127.4
X156.35Y-103.653
X156.4Y-112.05
X156.5Y-106.15
X156.875Y-89.8
X157.4Y-101.8
X157.81Y-105.38
X157.95Y-96.9
X158.0Y-100.75
X158.0Y-120.45
X158.1Y-102.8
X159.55Y-109.8
X160.95Y-120.5
X161.05Y-105.1
X161.05Y-111.65
X161.345Y-99.675
X161.345Y-103.475
X161.58Y-100.925
X161.58Y-102.225
X161.71Y-74.79
X161.71Y-75.79
X162.05Y-122.55
X162.35Y-121.7
X162.52Y-120.2
X162.71Y-74.79
X162.71Y-75.79
X162.8Y-105.4
X163.0Y-126.45
X163.4Y-120.0
X163.77Y-121.45
X163.8Y-115.4
X163.85Y-123.023
X164.3Y-116.85
X164.5Y-114.7
X164.975Y-117.375
X164.975Y-125.025
X165.22Y-121.05
X165.22Y-121.95
X165.23Y-104.17
X165.25Y-114.35
X165.5Y-115.8
X166.15Y-114.45
X166.5Y-111.9
X166.95Y-115.05
X167.025Y-116.325
X167.15Y-126.45
X167.205Y-90.955
X167.77Y-120.9
X167.77Y-121.95
X167.77Y-123.0
X167.8Y-111.9
X168.105Y-90.005
X168.5Y-79.9
X168.55Y-113.85
X168.935Y-82.9
X168.935Y-83.9
X169.03Y-90.93
X169.65Y-115.05
X169.935Y-82.9
X169.935Y-83.9
X174.085Y-82.725
X174.1Y-81.13
X175.3Y-77.35
X176.3Y-77.35
X176.4Y-83.3
T2
X140.6Y-117.575
X140.6Y-119.15
X141.387Y-118.362
X142.175Y-117.575
X142.175Y-119.15
X148.475Y-98.3
X149.825Y-97.55
X149.825Y-99.05
X151.175Y-98.3
T3
X128.51Y-87.45
X128.51Y-89.45
X128.51Y-94.2
X128.51Y-96.2
X172.085Y-87.5
X172.085Y-89.5
X172.085Y-94.25
X172.085Y-96.25
T4
X125.685Y-101.32
X125.685Y-103.86
X125.685Y-106.4
X125.685Y-108.94
X125.685Y-111.48
X125.685Y-114.02
X125.685Y-116.56
X125.685Y-119.1
X125.685Y-121.64
X125.685Y-124.18
X134.3Y-94.36
X134.3Y-96.9
X136.84Y-94.36
X136.84Y-96.9
X163.73Y-94.535
X163.73Y-97.075
X166.27Y-94.535
X166.27Y-97.075
X174.885Y-101.32
X174.885Y-103.86
X174.885Y-106.4
X174.885Y-108.94
X174.885Y-111.48
X174.885Y-114.02
X174.885Y-116.56
X174.885Y-119.1
X174.885Y-121.64
X174.885Y-124.18
T5
X145.285Y-65.0
X145.285Y-70.512
X152.985Y-74.038
X152.985Y-79.55
T6
X133.685Y-127.4
T7
X131.145Y-124.86
X131.145Y-129.94
X136.225Y-124.86
X136.225Y-129.94
T8
X125.685Y-128.86
X154.935Y-66.15
X174.935Y-128.86
T9
X161.015Y-71.65
X174.155Y-71.65
T10
X127.675Y-68.85
X127.675Y-76.05
M30
